# MagicaVoxel @ Ephtracy

# group
o 

# material
mtllib LittleRaccon.mtl
usemtl palette

# normals
vn -1 0 0
vn 1 0 0
vn 0 0 1
vn 0 0 -1
vn 0 -1 0
vn 0 1 0

# texcoords
vt 0.958984 0.5
vt 0.962891 0.5
vt 0.978516 0.5
vt 0.986328 0.5
vt 0.990234 0.5
vt 0.994141 0.5

# verts
v -1.2 1.1 0.2
v -1.2 1.1 -0.2
v -1.2 1.5 0.2
v -1.2 1.5 -0.2
v -0.7 1.6 0.1
v -0.7 1.6 -0.3
v -0.7 1.6 -0.8
v -0.7 2.1 0.1
v -0.7 2.1 -0.3
v -0.7 2.1 -0.8
v -0.6 0.3 0.4
v -0.6 0.3 -0.4
v -0.6 0.4 0.5
v -0.6 0.4 0.4
v -0.6 0.4 -0.4
v -0.6 0.4 -0.5
v -0.6 1.1 0.2
v -0.6 1.1 -0.2
v -0.6 1.5 0.2
v -0.6 1.5 -0.2
v -0.6 1.6 0.5
v -0.6 1.6 0.1
v -0.6 1.6 -0.3
v -0.6 1.6 -0.5
v -0.6 1.7 0.5
v -0.6 1.7 0.1
v -0.6 1.8 0.6
v -0.6 1.8 0.5
v -0.6 2.1 0.1
v -0.6 2.1 -0.3
v -0.6 2.1 -0.7
v -0.6 2.5 0.6
v -0.6 2.5 0.5
v -0.6 2.5 0.1
v -0.6 2.5 -0.6
v -0.6 2.5 -0.7
v -0.6 2.6 0.5
v -0.6 2.6 -0.6
v -0.5 0 0.2
v -0.5 0 -0.2
v -0.5 0.3 0.2
v -0.5 0.3 -0.2
v -0.4 1 1.4
v -0.4 1 0.7
v -0.4 1.1 1.4
v -0.4 1.1 0.7
v -0.4 1.3 1.4
v -0.4 1.3 0.7
v -0.4 1.4 1.4
v -0.4 1.4 0.7
v -0.4 1.6 1.4
v -0.4 1.6 0.7
v -0.4 1.7 1.4
v -0.4 1.7 0.7
v -0.4 1.9 1.4
v -0.4 1.9 0.7
v -0.4 2 1.4
v -0.4 2 0.7
v -0.4 2.2 1.4
v -0.4 2.2 0.7
v -0.4 2.3 1.4
v -0.4 2.3 0.7
v -0.4 2.6 1.4
v -0.4 2.6 0.7
v -0.4 2.6 0.2
v -0.4 2.6 0
v -0.4 2.6 -0.1
v -0.4 2.8 1.4
v -0.4 2.8 0.7
v -0.4 2.8 0.2
v -0.4 2.8 0
v -0.4 2.9 0.2
v -0.4 2.9 -0.1
v -0.3 0.3 1.3
v -0.3 0.3 0.7
v -0.3 0.4 1.3
v -0.3 0.4 0.7
v -0.3 0.5 1.3
v -0.3 0.5 0.7
v -0.3 0.7 1.3
v -0.3 0.7 0.7
v -0.3 0.8 1.3
v -0.3 0.8 0.7
v -0.3 1 1.3
v -0.3 1 0.7
v -0.2 0.4 0.7
v -0.2 0.4 0.6
v -0.2 0.4 0.5
v -0.2 0.5 0.7
v -0.2 0.7 0.7
v -0.2 0.8 0.7
v -0.2 0.8 0.6
v -0.2 0.8 0.5
v -0.2 1.6 0.2
v -0.2 1.6 0
v -0.2 1.7 0.2
v -0.2 1.7 0
v -0.0999999 1.8 -0.8
v -0.0999999 1.8 -0.9
v -0.0999999 2 -0.8
v -0.0999999 2 -0.9
v 0.1 0 0.2
v 0.1 0 -0.2
v 0.1 0.3 0.2
v 0.1 0.3 -0.2
v 0.1 2.3 -0.6
v 0.1 2.3 -0.7
v 0.1 2.5 -0.6
v 0.1 2.5 -0.7
v 0.1 2.6 0.2
v 0.1 2.6 0
v 0.1 2.6 -0.1
v 0.1 2.8 0.2
v 0.1 2.8 0
v 0.1 2.9 0.2
v 0.1 2.9 -0.1
v 0.2 1.6 -0.2
v 0.2 1.6 -0.3
v 0.2 1.7 -0.2
v 0.2 1.7 -0.3
v 0.5 1.6 0.1
v 0.5 1.6 0
v 0.5 1.7 0.1
v 0.5 1.7 0
v 0.6 1.6 -0.3
v 0.6 1.6 -0.5
v 0.6 1.6 -0.7
v 0.6 1.7 -0.3
v 0.6 1.7 -0.7
v -0.6 1.6 -0.3
v -0.6 1.6 -0.5
v -0.6 1.6 -0.7
v -0.6 1.7 -0.3
v -0.6 1.7 -0.7
v -0.5 1.6 0.1
v -0.5 1.6 0
v -0.5 1.7 0.1
v -0.5 1.7 0
v -0.2 1.6 -0.2
v -0.2 1.6 -0.3
v -0.2 1.7 -0.2
v -0.2 1.7 -0.3
v -0.0999999 0 0.2
v -0.0999999 0 -0.2
v -0.0999999 0.3 0.2
v -0.0999999 0.3 -0.2
v -0.0999999 2.3 -0.6
v -0.0999999 2.3 -0.7
v -0.0999999 2.5 -0.6
v -0.0999999 2.5 -0.7
v -0.0999999 2.6 0.2
v -0.0999999 2.6 0
v -0.0999999 2.6 -0.1
v -0.0999999 2.8 0.2
v -0.0999999 2.8 0
v -0.0999999 2.9 0.2
v -0.0999999 2.9 -0.1
v 0.1 1.8 -0.8
v 0.1 1.8 -0.9
v 0.1 2 -0.8
v 0.1 2 -0.9
v 0.2 0.4 0.7
v 0.2 0.4 0.6
v 0.2 0.4 0.5
v 0.2 0.5 0.7
v 0.2 0.7 0.7
v 0.2 0.8 0.7
v 0.2 0.8 0.6
v 0.2 0.8 0.5
v 0.2 1.6 0.2
v 0.2 1.6 0
v 0.2 1.7 0.2
v 0.2 1.7 0
v 0.3 0.3 1.3
v 0.3 0.3 0.7
v 0.3 0.4 1.3
v 0.3 0.4 0.7
v 0.3 0.5 1.3
v 0.3 0.5 0.7
v 0.3 0.7 1.3
v 0.3 0.7 0.7
v 0.3 0.8 1.3
v 0.3 0.8 0.7
v 0.3 1 1.3
v 0.3 1 0.7
v 0.4 1 1.4
v 0.4 1 0.7
v 0.4 1.1 1.4
v 0.4 1.1 0.7
v 0.4 1.3 1.4
v 0.4 1.3 0.7
v 0.4 1.4 1.4
v 0.4 1.4 0.7
v 0.4 1.6 1.4
v 0.4 1.6 0.7
v 0.4 1.7 1.4
v 0.4 1.7 0.7
v 0.4 1.9 1.4
v 0.4 1.9 0.7
v 0.4 2 1.4
v 0.4 2 0.7
v 0.4 2.2 1.4
v 0.4 2.2 0.7
v 0.4 2.3 1.4
v 0.4 2.3 0.7
v 0.4 2.6 1.4
v 0.4 2.6 0.7
v 0.4 2.6 0.2
v 0.4 2.6 0
v 0.4 2.6 -0.1
v 0.4 2.8 1.4
v 0.4 2.8 0.7
v 0.4 2.8 0.2
v 0.4 2.8 0
v 0.4 2.9 0.2
v 0.4 2.9 -0.1
v 0.5 0 0.2
v 0.5 0 -0.2
v 0.5 0.3 0.2
v 0.5 0.3 -0.2
v 0.6 0.3 0.4
v 0.6 0.3 -0.4
v 0.6 0.4 0.5
v 0.6 0.4 0.4
v 0.6 0.4 -0.4
v 0.6 0.4 -0.5
v 0.6 1.1 0.2
v 0.6 1.1 -0.2
v 0.6 1.5 0.2
v 0.6 1.5 -0.2
v 0.6 1.6 0.5
v 0.6 1.6 0.1
v 0.6 1.6 -0.3
v 0.6 1.6 -0.5
v 0.6 1.7 0.5
v 0.6 1.7 0.1
v 0.6 1.8 0.6
v 0.6 1.8 0.5
v 0.6 2.1 0.1
v 0.6 2.1 -0.3
v 0.6 2.1 -0.7
v 0.6 2.5 0.6
v 0.6 2.5 0.5
v 0.6 2.5 0.1
v 0.6 2.5 -0.6
v 0.6 2.5 -0.7
v 0.6 2.6 0.5
v 0.6 2.6 -0.6
v 0.7 1.6 0.1
v 0.7 1.6 -0.3
v 0.7 1.6 -0.8
v 0.7 2.1 0.1
v 0.7 2.1 -0.3
v 0.7 2.1 -0.8
v 1.2 1.1 0.2
v 1.2 1.1 -0.2
v 1.2 1.5 0.2
v 1.2 1.5 -0.2
v -0.4 1 1.4
v -0.4 1.1 1.4
v -0.4 1.3 1.4
v -0.4 1.4 1.4
v -0.4 1.6 1.4
v -0.4 1.7 1.4
v -0.4 1.9 1.4
v -0.4 2 1.4
v -0.4 2.2 1.4
v -0.4 2.3 1.4
v -0.4 2.6 1.4
v -0.4 2.8 1.4
v 0.4 1 1.4
v 0.4 1.1 1.4
v 0.4 1.3 1.4
v 0.4 1.4 1.4
v 0.4 1.6 1.4
v 0.4 1.7 1.4
v 0.4 1.9 1.4
v 0.4 2 1.4
v 0.4 2.2 1.4
v 0.4 2.3 1.4
v 0.4 2.6 1.4
v 0.4 2.8 1.4
v -0.3 0.3 1.3
v -0.3 0.4 1.3
v -0.3 0.5 1.3
v -0.3 0.7 1.3
v -0.3 0.8 1.3
v -0.3 1 1.3
v 0.3 0.3 1.3
v 0.3 0.4 1.3
v 0.3 0.5 1.3
v 0.3 0.7 1.3
v 0.3 0.8 1.3
v 0.3 1 1.3
v -0.6 1.8 0.6
v -0.6 2.5 0.6
v 0.6 1.8 0.6
v 0.6 2.5 0.6
v -0.6 0.4 0.5
v -0.6 1.6 0.5
v -0.6 1.7 0.5
v -0.6 1.8 0.5
v -0.6 2.5 0.5
v -0.6 2.6 0.5
v -0.2 0.4 0.5
v -0.2 0.8 0.5
v -0.0999999 0.8 0.5
v 0.1 0.8 0.5
v 0.2 0.4 0.5
v 0.2 0.8 0.5
v 0.6 0.4 0.5
v 0.6 1.6 0.5
v 0.6 1.7 0.5
v 0.6 1.8 0.5
v 0.6 2.5 0.5
v 0.6 2.6 0.5
v -0.6 0.3 0.4
v -0.6 0.4 0.4
v 0.6 0.3 0.4
v 0.6 0.4 0.4
v -1.2 1.1 0.2
v -1.2 1.5 0.2
v -1.1 1.1 0.2
v -1.1 1.4 0.2
v -1 1.4 0.2
v -1 1.5 0.2
v -0.6 1.1 0.2
v -0.6 1.5 0.2
v -0.5 0 0.2
v -0.5 0.3 0.2
v -0.4 2.6 0.2
v -0.4 2.8 0.2
v -0.4 2.9 0.2
v -0.2 1.6 0.2
v -0.2 1.7 0.2
v -0.0999999 0 0.2
v -0.0999999 0.3 0.2
v -0.0999999 2.6 0.2
v -0.0999999 2.8 0.2
v -0.0999999 2.9 0.2
v 0.1 0 0.2
v 0.1 0.3 0.2
v 0.1 2.6 0.2
v 0.1 2.8 0.2
v 0.1 2.9 0.2
v 0.2 1.6 0.2
v 0.2 1.7 0.2
v 0.4 2.6 0.2
v 0.4 2.8 0.2
v 0.4 2.9 0.2
v 0.5 0 0.2
v 0.5 0.3 0.2
v 0.6 1.1 0.2
v 0.6 1.5 0.2
v 1 1.4 0.2
v 1 1.5 0.2
v 1.1 1.1 0.2
v 1.1 1.4 0.2
v 1.2 1.1 0.2
v 1.2 1.5 0.2
v -0.7 1.6 0.1
v -0.7 2.1 0.1
v -0.6 1.6 0.1
v -0.6 1.7 0.1
v -0.6 2.1 0.1
v -0.5 1.6 0.1
v -0.5 1.7 0.1
v 0.5 1.6 0.1
v 0.5 1.7 0.1
v 0.6 1.6 0.1
v 0.6 1.7 0.1
v 0.6 2.1 0.1
v 0.7 1.6 0.1
v 0.7 2.1 0.1
v -0.5 1.6 0
v -0.5 1.7 0
v -0.2 1.6 0
v -0.2 1.7 0
v 0.2 1.6 0
v 0.2 1.7 0
v 0.5 1.6 0
v 0.5 1.7 0
v -0.6 1.6 -0.7
v -0.6 1.7 -0.7
v 0.6 1.6 -0.7
v 0.6 1.7 -0.7
v -0.4 1 0.7
v -0.4 1.1 0.7
v -0.4 1.3 0.7
v -0.4 1.4 0.7
v -0.4 1.6 0.7
v -0.4 1.7 0.7
v -0.4 1.9 0.7
v -0.4 2 0.7
v -0.4 2.2 0.7
v -0.4 2.3 0.7
v -0.4 2.6 0.7
v -0.4 2.8 0.7
v -0.3 0.3 0.7
v -0.3 0.4 0.7
v -0.3 0.5 0.7
v -0.3 0.7 0.7
v -0.3 0.8 0.7
v -0.3 1 0.7
v -0.3 1.1 0.7
v -0.3 1.3 0.7
v -0.3 1.4 0.7
v -0.3 1.6 0.7
v -0.3 1.7 0.7
v -0.3 1.9 0.7
v -0.3 2 0.7
v -0.3 2.2 0.7
v -0.3 2.3 0.7
v -0.3 2.6 0.7
v -0.2 0.3 0.7
v -0.2 0.4 0.7
v -0.2 0.5 0.7
v -0.2 0.7 0.7
v -0.2 0.8 0.7
v -0.2 1 0.7
v 0.2 0.3 0.7
v 0.2 0.4 0.7
v 0.2 0.5 0.7
v 0.2 0.7 0.7
v 0.2 0.8 0.7
v 0.2 1 0.7
v 0.3 0.3 0.7
v 0.3 0.4 0.7
v 0.3 0.5 0.7
v 0.3 0.7 0.7
v 0.3 0.8 0.7
v 0.3 1 0.7
v 0.3 1.1 0.7
v 0.3 1.3 0.7
v 0.3 1.4 0.7
v 0.3 1.6 0.7
v 0.3 1.7 0.7
v 0.3 1.9 0.7
v 0.3 2 0.7
v 0.3 2.2 0.7
v 0.3 2.3 0.7
v 0.3 2.6 0.7
v 0.4 1 0.7
v 0.4 1.1 0.7
v 0.4 1.3 0.7
v 0.4 1.4 0.7
v 0.4 1.6 0.7
v 0.4 1.7 0.7
v 0.4 1.9 0.7
v 0.4 2 0.7
v 0.4 2.2 0.7
v 0.4 2.3 0.7
v 0.4 2.6 0.7
v 0.4 2.8 0.7
v -0.4 2.6 -0.1
v -0.4 2.9 -0.1
v -0.3 2.6 -0.1
v -0.3 2.8 -0.1
v -0.2 2.6 -0.1
v -0.2 2.8 -0.1
v -0.0999999 2.6 -0.1
v -0.0999999 2.9 -0.1
v 0.1 2.6 -0.1
v 0.1 2.9 -0.1
v 0.2 2.6 -0.1
v 0.2 2.8 -0.1
v 0.3 2.6 -0.1
v 0.3 2.8 -0.1
v 0.4 2.6 -0.1
v 0.4 2.9 -0.1
v -1.2 1.1 -0.2
v -1.2 1.5 -0.2
v -1 1.1 -0.2
v -1 1.5 -0.2
v -0.6 1.1 -0.2
v -0.6 1.5 -0.2
v -0.5 0 -0.2
v -0.5 0.3 -0.2
v -0.2 1.6 -0.2
v -0.2 1.7 -0.2
v -0.0999999 0 -0.2
v -0.0999999 0.3 -0.2
v 0.1 0 -0.2
v 0.1 0.3 -0.2
v 0.2 1.6 -0.2
v 0.2 1.7 -0.2
v 0.5 0 -0.2
v 0.5 0.3 -0.2
v 0.6 1.1 -0.2
v 0.6 1.5 -0.2
v 1 1.1 -0.2
v 1 1.5 -0.2
v 1.2 1.1 -0.2
v 1.2 1.5 -0.2
v -0.6 1.6 -0.3
v -0.6 1.7 -0.3
v -0.2 1.6 -0.3
v -0.2 1.7 -0.3
v 0.2 1.6 -0.3
v 0.2 1.7 -0.3
v 0.6 1.6 -0.3
v 0.6 1.7 -0.3
v -0.6 0.3 -0.4
v -0.6 0.4 -0.4
v -0.3 0.4 -0.4
v 0.3 0.4 -0.4
v 0.6 0.3 -0.4
v 0.6 0.4 -0.4
v -0.6 0.4 -0.5
v -0.6 1.6 -0.5
v -0.3 0.4 -0.5
v -0.3 1.6 -0.5
v 0.3 0.4 -0.5
v 0.3 1.6 -0.5
v 0.6 0.4 -0.5
v 0.6 1.6 -0.5
v -0.6 2.5 -0.6
v -0.6 2.6 -0.6
v -0.0999999 2.3 -0.6
v -0.0999999 2.5 -0.6
v 0.1 2.3 -0.6
v 0.1 2.5 -0.6
v 0.6 2.5 -0.6
v 0.6 2.6 -0.6
v -0.6 2.1 -0.7
v -0.6 2.5 -0.7
v -0.4 2.2 -0.7
v -0.4 2.4 -0.7
v -0.2 2.2 -0.7
v -0.2 2.4 -0.7
v -0.0999999 2.3 -0.7
v -0.0999999 2.5 -0.7
v 0.1 2.3 -0.7
v 0.1 2.5 -0.7
v 0.2 2.2 -0.7
v 0.2 2.4 -0.7
v 0.4 2.2 -0.7
v 0.4 2.4 -0.7
v 0.6 2.1 -0.7
v 0.6 2.5 -0.7
v -0.7 1.6 -0.8
v -0.7 2.1 -0.8
v -0.0999999 1.8 -0.8
v -0.0999999 2 -0.8
v 0.1 1.8 -0.8
v 0.1 2 -0.8
v 0.7 1.6 -0.8
v 0.7 2.1 -0.8
v -0.0999999 1.8 -0.9
v -0.0999999 2 -0.9
v 0.1 1.8 -0.9
v 0.1 2 -0.9
v -0.5 0 0.2
v -0.0999999 0 0.2
v 0.1 0 0.2
v 0.5 0 0.2
v -0.5 0 -0.2
v -0.0999999 0 -0.2
v 0.1 0 -0.2
v 0.5 0 -0.2
v -0.3 0.3 1.3
v 0.3 0.3 1.3
v -0.2 0.3 1.2
v 0.2 0.3 1.2
v -0.3 0.3 0.7
v -0.2 0.3 0.7
v 0.2 0.3 0.7
v 0.3 0.3 0.7
v -0.6 0.3 0.4
v 0.6 0.3 0.4
v -0.5 0.3 0.2
v -0.0999999 0.3 0.2
v 0.1 0.3 0.2
v 0.5 0.3 0.2
v -0.5 0.3 -0.2
v -0.0999999 0.3 -0.2
v 0.1 0.3 -0.2
v 0.5 0.3 -0.2
v -0.6 0.3 -0.4
v 0.6 0.3 -0.4
v -0.2 0.4 0.7
v 0.2 0.4 0.7
v -0.2 0.4 0.6
v 0.2 0.4 0.6
v -0.6 0.4 0.5
v -0.2 0.4 0.5
v 0.2 0.4 0.5
v 0.6 0.4 0.5
v -0.6 0.4 0.4
v 0.6 0.4 0.4
v -0.6 0.4 -0.4
v -0.3 0.4 -0.4
v 0.3 0.4 -0.4
v 0.6 0.4 -0.4
v -0.6 0.4 -0.5
v -0.3 0.4 -0.5
v 0.3 0.4 -0.5
v 0.6 0.4 -0.5
v -0.4 1 1.4
v 0.4 1 1.4
v -0.3 1 1.3
v 0.3 1 1.3
v -0.4 1 0.7
v -0.3 1 0.7
v 0.3 1 0.7
v 0.4 1 0.7
v -1.2 1.1 0.2
v -1.1 1.1 0.2
v -0.6 1.1 0.2
v 0.6 1.1 0.2
v 1.1 1.1 0.2
v 1.2 1.1 0.2
v -1.1 1.1 -0.1
v -1 1.1 -0.1
v 1 1.1 -0.1
v 1.1 1.1 -0.1
v -1.2 1.1 -0.2
v -1 1.1 -0.2
v -0.6 1.1 -0.2
v 0.6 1.1 -0.2
v 1 1.1 -0.2
v 1.2 1.1 -0.2
v -0.7 1.6 0.1
v -0.6 1.6 0.1
v 0.6 1.6 0.1
v 0.7 1.6 0.1
v -0.7 1.6 -0.3
v -0.6 1.6 -0.3
v 0.6 1.6 -0.3
v 0.7 1.6 -0.3
v -0.6 1.6 -0.5
v 0.6 1.6 -0.5
v -0.6 1.6 -0.7
v 0.6 1.6 -0.7
v -0.7 1.6 -0.8
v 0.7 1.6 -0.8
v -0.6 1.7 0.5
v 0.6 1.7 0.5
v -0.2 1.7 0.2
v 0.2 1.7 0.2
v -0.6 1.7 0.1
v -0.5 1.7 0.1
v 0.5 1.7 0.1
v 0.6 1.7 0.1
v -0.5 1.7 0
v -0.2 1.7 0
v 0.2 1.7 0
v 0.5 1.7 0
v -0.2 1.7 -0.2
v 0.2 1.7 -0.2
v -0.6 1.7 -0.3
v -0.2 1.7 -0.3
v 0.2 1.7 -0.3
v 0.6 1.7 -0.3
v -0.6 1.7 -0.7
v 0.6 1.7 -0.7
v -0.6 1.8 0.6
v 0.6 1.8 0.6
v -0.6 1.8 0.5
v 0.6 1.8 0.5
v -0.0999999 1.8 -0.8
v 0.1 1.8 -0.8
v -0.0999999 1.8 -0.9
v 0.1 1.8 -0.9
v -0.2 0.8 0.7
v 0.2 0.8 0.7
v -0.2 0.8 0.6
v -0.0999999 0.8 0.6
v 0.1 0.8 0.6
v 0.2 0.8 0.6
v -0.2 0.8 0.5
v -0.0999999 0.8 0.5
v 0.1 0.8 0.5
v 0.2 0.8 0.5
v -1.2 1.5 0.2
v -1 1.5 0.2
v -0.6 1.5 0.2
v 0.6 1.5 0.2
v 1 1.5 0.2
v 1.2 1.5 0.2
v -1.2 1.5 -0.2
v -1 1.5 -0.2
v -0.6 1.5 -0.2
v 0.6 1.5 -0.2
v 1 1.5 -0.2
v 1.2 1.5 -0.2
v -0.6 1.6 0.5
v 0.6 1.6 0.5
v -0.2 1.6 0.2
v 0.2 1.6 0.2
v -0.6 1.6 0.1
v -0.5 1.6 0.1
v 0.5 1.6 0.1
v 0.6 1.6 0.1
v -0.5 1.6 0
v -0.2 1.6 0
v 0.2 1.6 0
v 0.5 1.6 0
v -0.2 1.6 -0.2
v 0.2 1.6 -0.2
v -0.6 1.6 -0.3
v -0.2 1.6 -0.3
v 0.2 1.6 -0.3
v 0.6 1.6 -0.3
v -0.3 1.6 -0.4
v 0.3 1.6 -0.4
v -0.6 1.6 -0.5
v -0.3 1.6 -0.5
v 0.3 1.6 -0.5
v 0.6 1.6 -0.5
v -0.0999999 2 -0.8
v 0.1 2 -0.8
v -0.0999999 2 -0.9
v 0.1 2 -0.9
v -0.7 2.1 0.1
v -0.6 2.1 0.1
v 0.6 2.1 0.1
v 0.7 2.1 0.1
v -0.7 2.1 -0.3
v -0.6 2.1 -0.3
v 0.6 2.1 -0.3
v 0.7 2.1 -0.3
v -0.6 2.1 -0.7
v 0.6 2.1 -0.7
v -0.7 2.1 -0.8
v 0.7 2.1 -0.8
v -0.0999999 2.3 -0.6
v 0.1 2.3 -0.6
v -0.0999999 2.3 -0.7
v 0.1 2.3 -0.7
v -0.6 2.5 0.6
v 0.6 2.5 0.6
v -0.6 2.5 0.5
v 0.6 2.5 0.5
v -0.6 2.5 -0.6
v -0.0999999 2.5 -0.6
v 0.1 2.5 -0.6
v 0.6 2.5 -0.6
v -0.6 2.5 -0.7
v -0.0999999 2.5 -0.7
v 0.1 2.5 -0.7
v 0.6 2.5 -0.7
v -0.6 2.6 0.5
v 0.6 2.6 0.5
v -0.4 2.6 0.2
v -0.0999999 2.6 0.2
v 0.1 2.6 0.2
v 0.4 2.6 0.2
v -0.4 2.6 0
v -0.0999999 2.6 0
v 0.1 2.6 0
v 0.4 2.6 0
v -0.4 2.6 -0.1
v -0.3 2.6 -0.1
v -0.2 2.6 -0.1
v -0.0999999 2.6 -0.1
v 0.1 2.6 -0.1
v 0.2 2.6 -0.1
v 0.3 2.6 -0.1
v 0.4 2.6 -0.1
v -0.6 2.6 -0.6
v 0.6 2.6 -0.6
v -0.4 2.8 1.4
v 0.4 2.8 1.4
v -0.4 2.8 0.7
v 0.4 2.8 0.7
v -0.4 2.9 0.2
v -0.0999999 2.9 0.2
v 0.1 2.9 0.2
v 0.4 2.9 0.2
v -0.4 2.9 -0.1
v -0.0999999 2.9 -0.1
v 0.1 2.9 -0.1
v 0.4 2.9 -0.1

# faces
f 3/6/1 2/6/1 1/6/1
f 4/6/1 2/6/1 3/6/1
f 8/1/1 6/1/1 5/1/1
f 9/2/1 7/2/1 6/2/1
f 9/1/1 6/1/1 8/1/1
f 10/2/1 7/2/1 9/2/1
f 14/4/1 12/4/1 11/4/1
f 15/4/1 12/4/1 14/4/1
f 17/4/1 14/4/1 13/4/1
f 17/4/1 16/4/1 15/4/1
f 17/4/1 15/4/1 14/4/1
f 18/4/1 16/4/1 17/4/1
f 19/4/1 17/4/1 13/4/1
f 20/4/1 16/4/1 18/4/1
f 21/4/1 19/4/1 13/4/1
f 21/4/1 20/4/1 19/4/1
f 22/4/1 20/4/1 21/4/1
f 23/4/1 16/4/1 20/4/1
f 23/4/1 20/4/1 22/4/1
f 24/4/1 16/4/1 23/4/1
f 28/4/1 26/4/1 25/4/1
f 29/4/1 26/4/1 28/4/1
f 29/4/1 28/4/1 27/4/1
f 32/4/1 29/4/1 27/4/1
f 33/4/1 29/4/1 32/4/1
f 34/6/1 30/6/1 29/6/1
f 34/4/1 29/4/1 33/4/1
f 34/6/1 31/6/1 30/6/1
f 35/6/1 31/6/1 34/6/1
f 36/6/1 31/6/1 35/6/1
f 37/4/1 34/4/1 33/4/1
f 37/4/1 35/4/1 34/4/1
f 38/4/1 35/4/1 37/4/1
f 41/5/1 40/5/1 39/5/1
f 42/5/1 40/5/1 41/5/1
f 45/6/1 44/6/1 43/6/1
f 46/6/1 44/6/1 45/6/1
f 47/4/1 46/4/1 45/4/1
f 48/4/1 46/4/1 47/4/1
f 49/6/1 48/6/1 47/6/1
f 50/6/1 48/6/1 49/6/1
f 51/4/1 50/4/1 49/4/1
f 52/4/1 50/4/1 51/4/1
f 53/6/1 52/6/1 51/6/1
f 54/6/1 52/6/1 53/6/1
f 55/4/1 54/4/1 53/4/1
f 56/4/1 54/4/1 55/4/1
f 57/6/1 56/6/1 55/6/1
f 58/6/1 56/6/1 57/6/1
f 59/4/1 58/4/1 57/4/1
f 60/4/1 58/4/1 59/4/1
f 61/6/1 60/6/1 59/6/1
f 62/6/1 60/6/1 61/6/1
f 63/4/1 62/4/1 61/4/1
f 64/4/1 62/4/1 63/4/1
f 68/6/1 64/6/1 63/6/1
f 69/6/1 64/6/1 68/6/1
f 70/4/1 66/4/1 65/4/1
f 71/6/1 67/6/1 66/6/1
f 71/4/1 66/4/1 70/4/1
f 72/6/1 71/6/1 70/6/1
f 73/6/1 67/6/1 71/6/1
f 73/6/1 71/6/1 72/6/1
f 76/4/1 75/4/1 74/4/1
f 77/4/1 75/4/1 76/4/1
f 78/6/1 77/6/1 76/6/1
f 79/6/1 77/6/1 78/6/1
f 80/4/1 79/4/1 78/4/1
f 81/4/1 79/4/1 80/4/1
f 82/6/1 81/6/1 80/6/1
f 83/6/1 81/6/1 82/6/1
f 84/4/1 83/4/1 82/4/1
f 85/4/1 83/4/1 84/4/1
f 89/6/1 87/6/1 86/6/1
f 90/6/1 87/6/1 89/6/1
f 91/6/1 87/6/1 90/6/1
f 92/4/1 88/4/1 87/4/1
f 92/6/1 87/6/1 91/6/1
f 93/4/1 88/4/1 92/4/1
f 96/4/1 95/4/1 94/4/1
f 97/4/1 95/4/1 96/4/1
f 100/6/1 99/6/1 98/6/1
f 101/6/1 99/6/1 100/6/1
f 104/5/1 103/5/1 102/5/1
f 105/5/1 103/5/1 104/5/1
f 108/6/1 107/6/1 106/6/1
f 109/6/1 107/6/1 108/6/1
f 113/4/1 111/4/1 110/4/1
f 114/6/1 112/6/1 111/6/1
f 114/4/1 111/4/1 113/4/1
f 115/6/1 114/6/1 113/6/1
f 116/6/1 112/6/1 114/6/1
f 116/6/1 114/6/1 115/6/1
f 119/1/1 118/1/1 117/1/1
f 120/1/1 118/1/1 119/1/1
f 123/1/1 122/1/1 121/1/1
f 124/1/1 122/1/1 123/1/1
f 128/2/1 126/2/1 125/2/1
f 128/2/1 127/2/1 126/2/1
f 129/2/1 127/2/1 128/2/1
f 130/2/2 131/2/2 133/2/2
f 131/2/2 132/2/2 133/2/2
f 133/2/2 132/2/2 134/2/2
f 135/1/2 136/1/2 137/1/2
f 137/1/2 136/1/2 138/1/2
f 139/1/2 140/1/2 141/1/2
f 141/1/2 140/1/2 142/1/2
f 143/5/2 144/5/2 145/5/2
f 145/5/2 144/5/2 146/5/2
f 147/6/2 148/6/2 149/6/2
f 149/6/2 148/6/2 150/6/2
f 151/4/2 152/4/2 154/4/2
f 152/6/2 153/6/2 155/6/2
f 154/4/2 152/4/2 155/4/2
f 154/6/2 155/6/2 156/6/2
f 155/6/2 153/6/2 157/6/2
f 156/6/2 155/6/2 157/6/2
f 158/6/2 159/6/2 160/6/2
f 160/6/2 159/6/2 161/6/2
f 162/6/2 163/6/2 165/6/2
f 165/6/2 163/6/2 166/6/2
f 166/6/2 163/6/2 167/6/2
f 163/4/2 164/4/2 168/4/2
f 167/6/2 163/6/2 168/6/2
f 168/4/2 164/4/2 169/4/2
f 170/4/2 171/4/2 172/4/2
f 172/4/2 171/4/2 173/4/2
f 174/4/2 175/4/2 176/4/2
f 176/4/2 175/4/2 177/4/2
f 176/6/2 177/6/2 178/6/2
f 178/6/2 177/6/2 179/6/2
f 178/4/2 179/4/2 180/4/2
f 180/4/2 179/4/2 181/4/2
f 180/6/2 181/6/2 182/6/2
f 182/6/2 181/6/2 183/6/2
f 182/4/2 183/4/2 184/4/2
f 184/4/2 183/4/2 185/4/2
f 186/6/2 187/6/2 188/6/2
f 188/6/2 187/6/2 189/6/2
f 188/4/2 189/4/2 190/4/2
f 190/4/2 189/4/2 191/4/2
f 190/6/2 191/6/2 192/6/2
f 192/6/2 191/6/2 193/6/2
f 192/4/2 193/4/2 194/4/2
f 194/4/2 193/4/2 195/4/2
f 194/6/2 195/6/2 196/6/2
f 196/6/2 195/6/2 197/6/2
f 196/4/2 197/4/2 198/4/2
f 198/4/2 197/4/2 199/4/2
f 198/6/2 199/6/2 200/6/2
f 200/6/2 199/6/2 201/6/2
f 200/4/2 201/4/2 202/4/2
f 202/4/2 201/4/2 203/4/2
f 202/6/2 203/6/2 204/6/2
f 204/6/2 203/6/2 205/6/2
f 204/4/2 205/4/2 206/4/2
f 206/4/2 205/4/2 207/4/2
f 206/6/2 207/6/2 211/6/2
f 211/6/2 207/6/2 212/6/2
f 208/4/2 209/4/2 213/4/2
f 209/6/2 210/6/2 214/6/2
f 213/4/2 209/4/2 214/4/2
f 213/6/2 214/6/2 215/6/2
f 214/6/2 210/6/2 216/6/2
f 215/6/2 214/6/2 216/6/2
f 217/5/2 218/5/2 219/5/2
f 219/5/2 218/5/2 220/5/2
f 221/4/2 222/4/2 224/4/2
f 224/4/2 222/4/2 225/4/2
f 223/4/2 224/4/2 227/4/2
f 225/4/2 226/4/2 227/4/2
f 224/4/2 225/4/2 227/4/2
f 227/4/2 226/4/2 228/4/2
f 223/4/2 227/4/2 229/4/2
f 228/4/2 226/4/2 230/4/2
f 223/4/2 229/4/2 231/4/2
f 229/4/2 230/4/2 231/4/2
f 231/4/2 230/4/2 232/4/2
f 230/4/2 226/4/2 233/4/2
f 232/4/2 230/4/2 233/4/2
f 233/4/2 226/4/2 234/4/2
f 235/4/2 236/4/2 238/4/2
f 238/4/2 236/4/2 239/4/2
f 237/4/2 238/4/2 239/4/2
f 237/4/2 239/4/2 242/4/2
f 242/4/2 239/4/2 243/4/2
f 239/6/2 240/6/2 244/6/2
f 243/4/2 239/4/2 244/4/2
f 240/6/2 241/6/2 244/6/2
f 244/6/2 241/6/2 245/6/2
f 245/6/2 241/6/2 246/6/2
f 243/4/2 244/4/2 247/4/2
f 244/4/2 245/4/2 247/4/2
f 247/4/2 245/4/2 248/4/2
f 249/1/2 250/1/2 252/1/2
f 250/2/2 251/2/2 253/2/2
f 252/1/2 250/1/2 253/1/2
f 253/2/2 251/2/2 254/2/2
f 255/6/2 256/6/2 257/6/2
f 257/6/2 256/6/2 258/6/2
f 271/6/3 260/6/3 259/6/3
f 272/4/3 261/4/3 260/4/3
f 272/6/3 260/6/3 271/6/3
f 273/6/3 262/6/3 261/6/3
f 273/4/3 261/4/3 272/4/3
f 274/4/3 263/4/3 262/4/3
f 274/6/3 262/6/3 273/6/3
f 275/6/3 264/6/3 263/6/3
f 275/4/3 263/4/3 274/4/3
f 276/4/3 265/4/3 264/4/3
f 276/6/3 264/6/3 275/6/3
f 277/6/3 266/6/3 265/6/3
f 277/4/3 265/4/3 276/4/3
f 278/4/3 267/4/3 266/4/3
f 278/6/3 266/6/3 277/6/3
f 279/6/3 268/6/3 267/6/3
f 279/4/3 267/4/3 278/4/3
f 280/4/3 269/4/3 268/4/3
f 280/6/3 268/6/3 279/6/3
f 281/6/3 270/6/3 269/6/3
f 281/4/3 269/4/3 280/4/3
f 282/6/3 270/6/3 281/6/3
f 289/4/3 284/4/3 283/4/3
f 290/6/3 285/6/3 284/6/3
f 290/4/3 284/4/3 289/4/3
f 291/4/3 286/4/3 285/4/3
f 291/6/3 285/6/3 290/6/3
f 292/6/3 287/6/3 286/6/3
f 292/4/3 286/4/3 291/4/3
f 293/4/3 288/4/3 287/4/3
f 293/6/3 287/6/3 292/6/3
f 294/4/3 288/4/3 293/4/3
f 297/4/3 296/4/3 295/4/3
f 298/4/3 296/4/3 297/4/3
f 305/4/3 300/4/3 299/4/3
f 306/4/3 300/4/3 305/4/3
f 307/4/3 300/4/3 306/4/3
f 308/4/3 300/4/3 307/4/3
f 310/4/3 300/4/3 308/4/3
f 311/4/3 310/4/3 309/4/3
f 312/4/3 300/4/3 310/4/3
f 312/4/3 310/4/3 311/4/3
f 313/4/3 302/4/3 301/4/3
f 314/4/3 302/4/3 313/4/3
f 315/4/3 304/4/3 303/4/3
f 316/4/3 304/4/3 315/4/3
f 319/4/3 318/4/3 317/4/3
f 320/4/3 318/4/3 319/4/3
f 323/6/3 322/6/3 321/6/3
f 324/6/3 322/6/3 323/6/3
f 325/4/3 324/4/3 323/4/3
f 325/6/3 322/6/3 324/6/3
f 326/6/3 322/6/3 325/6/3
f 327/4/3 325/4/3 323/4/3
f 327/4/3 326/4/3 325/4/3
f 328/4/3 326/4/3 327/4/3
f 336/5/3 330/5/3 329/5/3
f 337/5/3 330/5/3 336/5/3
f 338/4/3 332/4/3 331/4/3
f 339/6/3 333/6/3 332/6/3
f 339/4/3 332/4/3 338/4/3
f 340/6/3 333/6/3 339/6/3
f 346/4/3 335/4/3 334/4/3
f 347/4/3 335/4/3 346/4/3
f 348/4/3 344/4/3 343/4/3
f 349/6/3 345/6/3 344/6/3
f 349/4/3 344/4/3 348/4/3
f 350/6/3 345/6/3 349/6/3
f 351/5/3 342/5/3 341/5/3
f 352/5/3 342/5/3 351/5/3
f 355/4/3 354/4/3 353/4/3
f 356/4/3 354/4/3 355/4/3
f 357/4/3 355/4/3 353/4/3
f 358/6/3 356/6/3 355/6/3
f 358/4/3 355/4/3 357/4/3
f 359/6/3 358/6/3 357/6/3
f 360/6/3 356/6/3 358/6/3
f 360/6/3 358/6/3 359/6/3
f 363/1/3 362/1/3 361/1/3
f 364/1/3 362/1/3 363/1/3
f 365/1/3 362/1/3 364/1/3
f 366/1/3 364/1/3 363/1/3
f 367/1/3 364/1/3 366/1/3
f 370/1/3 369/1/3 368/1/3
f 371/1/3 369/1/3 370/1/3
f 373/1/3 371/1/3 370/1/3
f 373/1/3 372/1/3 371/1/3
f 374/1/3 372/1/3 373/1/3
f 377/1/3 376/1/3 375/1/3
f 378/1/3 376/1/3 377/1/3
f 381/1/3 380/1/3 379/1/3
f 382/1/3 380/1/3 381/1/3
f 385/2/3 384/2/3 383/2/3
f 386/2/3 384/2/3 385/2/3
f 387/6/4 388/6/4 404/6/4
f 388/4/4 389/4/4 405/4/4
f 404/6/4 388/6/4 405/6/4
f 389/6/4 390/6/4 406/6/4
f 405/4/4 389/4/4 406/4/4
f 390/4/4 391/4/4 407/4/4
f 406/6/4 390/6/4 407/6/4
f 391/6/4 392/6/4 408/6/4
f 407/4/4 391/4/4 408/4/4
f 392/4/4 393/4/4 409/4/4
f 408/6/4 392/6/4 409/6/4
f 393/6/4 394/6/4 410/6/4
f 409/4/4 393/4/4 410/4/4
f 394/4/4 395/4/4 411/4/4
f 410/6/4 394/6/4 411/6/4
f 395/6/4 396/6/4 412/6/4
f 411/4/4 395/4/4 412/4/4
f 396/4/4 397/4/4 413/4/4
f 412/6/4 396/6/4 413/6/4
f 397/6/4 398/6/4 414/6/4
f 413/4/4 397/4/4 414/4/4
f 399/4/4 400/4/4 415/4/4
f 400/6/4 401/6/4 416/6/4
f 415/4/4 400/4/4 416/4/4
f 401/4/4 402/4/4 417/4/4
f 416/6/4 401/6/4 417/6/4
f 402/6/4 403/6/4 418/6/4
f 417/4/4 402/4/4 418/4/4
f 403/4/4 404/4/4 419/4/4
f 418/6/4 403/6/4 419/6/4
f 404/6/4 405/6/4 420/6/4
f 419/4/4 404/4/4 420/4/4
f 405/6/4 406/6/4 420/6/4
f 413/6/4 414/6/4 420/6/4
f 406/6/4 407/6/4 420/6/4
f 407/6/4 408/6/4 420/6/4
f 408/6/4 409/6/4 420/6/4
f 409/6/4 410/6/4 420/6/4
f 412/6/4 413/6/4 420/6/4
f 411/6/4 412/6/4 420/6/4
f 410/6/4 411/6/4 420/6/4
f 415/6/4 416/6/4 421/6/4
f 421/6/4 416/6/4 422/6/4
f 419/6/4 420/6/4 425/6/4
f 420/6/4 414/6/4 426/6/4
f 425/6/4 420/6/4 426/6/4
f 421/4/4 422/4/4 427/4/4
f 422/6/4 423/6/4 428/6/4
f 427/4/4 422/4/4 428/4/4
f 423/4/4 424/4/4 429/4/4
f 428/6/4 423/6/4 429/6/4
f 424/6/4 425/6/4 430/6/4
f 429/4/4 424/4/4 430/4/4
f 425/4/4 426/4/4 431/4/4
f 430/6/4 425/6/4 431/6/4
f 426/6/4 414/6/4 432/6/4
f 431/4/4 426/4/4 432/4/4
f 432/6/4 414/6/4 433/6/4
f 433/6/4 414/6/4 434/6/4
f 434/6/4 414/6/4 435/6/4
f 435/6/4 414/6/4 436/6/4
f 436/6/4 414/6/4 437/6/4
f 437/6/4 414/6/4 438/6/4
f 438/6/4 414/6/4 439/6/4
f 439/6/4 414/6/4 440/6/4
f 440/6/4 414/6/4 441/6/4
f 414/6/4 398/6/4 442/6/4
f 441/6/4 414/6/4 442/6/4
f 432/6/4 433/6/4 443/6/4
f 433/4/4 434/4/4 444/4/4
f 443/6/4 433/6/4 444/6/4
f 434/6/4 435/6/4 445/6/4
f 444/4/4 434/4/4 445/4/4
f 435/4/4 436/4/4 446/4/4
f 445/6/4 435/6/4 446/6/4
f 436/6/4 437/6/4 447/6/4
f 446/4/4 436/4/4 447/4/4
f 437/4/4 438/4/4 448/4/4
f 447/6/4 437/6/4 448/6/4
f 438/6/4 439/6/4 449/6/4
f 448/4/4 438/4/4 449/4/4
f 439/4/4 440/4/4 450/4/4
f 449/6/4 439/6/4 450/6/4
f 440/6/4 441/6/4 451/6/4
f 450/4/4 440/4/4 451/4/4
f 441/4/4 442/4/4 452/4/4
f 451/6/4 441/6/4 452/6/4
f 442/6/4 398/6/4 453/6/4
f 452/4/4 442/4/4 453/4/4
f 453/6/4 398/6/4 454/6/4
f 455/6/4 456/6/4 457/6/4
f 457/6/4 456/6/4 458/6/4
f 457/3/4 458/3/4 459/3/4
f 458/6/4 456/6/4 460/6/4
f 459/3/4 458/3/4 460/3/4
f 459/6/4 460/6/4 461/6/4
f 460/6/4 456/6/4 462/6/4
f 461/6/4 460/6/4 462/6/4
f 463/6/4 464/6/4 465/6/4
f 465/6/4 464/6/4 466/6/4
f 465/3/4 466/3/4 467/3/4
f 466/6/4 464/6/4 468/6/4
f 467/3/4 466/3/4 468/3/4
f 467/6/4 468/6/4 469/6/4
f 468/6/4 464/6/4 470/6/4
f 469/6/4 468/6/4 470/6/4
f 471/6/4 472/6/4 473/6/4
f 473/6/4 472/6/4 474/6/4
f 473/4/4 474/4/4 475/4/4
f 475/4/4 474/4/4 476/4/4
f 477/5/4 478/5/4 481/5/4
f 481/5/4 478/5/4 482/5/4
f 479/4/4 480/4/4 485/4/4
f 485/4/4 480/4/4 486/4/4
f 483/5/4 484/5/4 487/5/4
f 487/5/4 484/5/4 488/5/4
f 489/4/4 490/4/4 491/4/4
f 491/4/4 490/4/4 492/4/4
f 491/6/4 492/6/4 493/6/4
f 493/6/4 492/6/4 494/6/4
f 495/1/4 496/1/4 497/1/4
f 497/1/4 496/1/4 498/1/4
f 499/1/4 500/1/4 501/1/4
f 501/1/4 500/1/4 502/1/4
f 503/4/4 504/4/4 505/4/4
f 503/4/4 505/4/4 506/4/4
f 503/4/4 506/4/4 507/4/4
f 507/4/4 506/4/4 508/4/4
f 509/4/4 510/4/4 511/4/4
f 511/4/4 510/4/4 512/4/4
f 511/2/4 512/2/4 513/2/4
f 513/2/4 512/2/4 514/2/4
f 513/4/4 514/4/4 515/4/4
f 515/4/4 514/4/4 516/4/4
f 517/4/4 518/4/4 520/4/4
f 519/4/4 520/4/4 521/4/4
f 520/4/4 518/4/4 522/4/4
f 521/4/4 520/4/4 522/4/4
f 522/4/4 518/4/4 523/4/4
f 523/4/4 518/4/4 524/4/4
f 525/6/4 526/6/4 527/6/4
f 527/6/4 526/6/4 528/6/4
f 525/6/4 527/6/4 529/6/4
f 527/2/4 528/2/4 529/2/4
f 528/6/4 526/6/4 530/6/4
f 529/2/4 528/2/4 530/2/4
f 529/6/4 530/6/4 531/6/4
f 530/6/4 526/6/4 532/6/4
f 531/6/4 530/6/4 532/6/4
f 529/6/4 531/6/4 533/6/4
f 525/6/4 529/6/4 535/6/4
f 533/6/4 534/6/4 535/6/4
f 529/6/4 533/6/4 535/6/4
f 535/6/4 534/6/4 536/6/4
f 525/6/4 535/6/4 537/6/4
f 535/2/4 536/2/4 537/2/4
f 536/6/4 534/6/4 538/6/4
f 537/2/4 536/2/4 538/2/4
f 525/6/4 537/6/4 539/6/4
f 537/6/4 538/6/4 539/6/4
f 538/6/4 534/6/4 540/6/4
f 539/6/4 538/6/4 540/6/4
f 541/2/4 542/2/4 543/2/4
f 543/2/4 542/2/4 544/2/4
f 541/2/4 543/2/4 545/2/4
f 544/2/4 542/2/4 546/2/4
f 541/2/4 545/2/4 547/2/4
f 545/2/4 546/2/4 547/2/4
f 546/2/4 542/2/4 548/2/4
f 547/2/4 546/2/4 548/2/4
f 549/6/4 550/6/4 551/6/4
f 551/6/4 550/6/4 552/6/4
f 557/5/5 554/5/5 553/5/5
f 558/5/5 554/5/5 557/5/5
f 559/5/5 556/5/5 555/5/5
f 560/5/5 556/5/5 559/5/5
f 563/4/5 562/4/5 561/4/5
f 564/4/5 562/4/5 563/4/5
f 565/4/5 563/4/5 561/4/5
f 566/6/5 564/6/5 563/6/5
f 566/4/5 563/4/5 565/4/5
f 567/4/5 562/4/5 564/4/5
f 567/6/5 564/6/5 566/6/5
f 568/4/5 562/4/5 567/4/5
f 571/4/5 570/4/5 569/4/5
f 572/4/5 570/4/5 571/4/5
f 573/4/5 570/4/5 572/4/5
f 574/4/5 570/4/5 573/4/5
f 575/4/5 571/4/5 569/4/5
f 576/4/5 573/4/5 572/4/5
f 577/4/5 573/4/5 576/4/5
f 578/4/5 570/4/5 574/4/5
f 579/4/5 577/4/5 576/4/5
f 579/4/5 578/4/5 577/4/5
f 579/4/5 575/4/5 569/4/5
f 579/4/5 576/4/5 575/4/5
f 580/4/5 570/4/5 578/4/5
f 580/4/5 578/4/5 579/4/5
f 583/6/5 582/6/5 581/6/5
f 584/6/5 582/6/5 583/6/5
f 586/4/5 584/4/5 583/4/5
f 587/4/5 584/4/5 586/4/5
f 589/4/5 587/4/5 586/4/5
f 589/4/5 588/4/5 587/4/5
f 589/4/5 586/4/5 585/4/5
f 590/4/5 588/4/5 589/4/5
f 595/4/5 592/4/5 591/4/5
f 596/2/5 593/2/5 592/2/5
f 596/4/5 592/4/5 595/4/5
f 597/4/5 594/4/5 593/4/5
f 597/2/5 593/2/5 596/2/5
f 598/4/5 594/4/5 597/4/5
f 601/6/5 600/6/5 599/6/5
f 602/6/5 600/6/5 601/6/5
f 603/6/5 601/6/5 599/6/5
f 604/6/5 601/6/5 603/6/5
f 605/6/5 600/6/5 602/6/5
f 606/6/5 600/6/5 605/6/5
f 613/6/5 608/6/5 607/6/5
f 613/4/5 609/4/5 608/4/5
f 614/4/5 609/4/5 613/4/5
f 615/4/5 611/4/5 610/4/5
f 616/6/5 612/6/5 611/6/5
f 616/4/5 611/4/5 615/4/5
f 617/6/5 613/6/5 607/6/5
f 617/6/5 614/6/5 613/6/5
f 618/4/5 609/4/5 614/4/5
f 618/6/5 614/6/5 617/6/5
f 619/4/5 609/4/5 618/4/5
f 620/4/5 615/4/5 610/4/5
f 621/6/5 616/6/5 615/6/5
f 621/4/5 615/4/5 620/4/5
f 622/6/5 612/6/5 616/6/5
f 622/6/5 616/6/5 621/6/5
f 627/1/5 624/1/5 623/1/5
f 628/1/5 624/1/5 627/1/5
f 629/1/5 626/1/5 625/1/5
f 630/1/5 626/1/5 629/1/5
f 631/2/5 628/2/5 627/2/5
f 632/2/5 630/2/5 629/2/5
f 633/2/5 631/2/5 627/2/5
f 634/2/5 630/2/5 632/2/5
f 635/2/5 633/2/5 627/2/5
f 635/2/5 634/2/5 633/2/5
f 636/2/5 630/2/5 634/2/5
f 636/2/5 634/2/5 635/2/5
f 639/4/5 638/4/5 637/4/5
f 640/4/5 638/4/5 639/4/5
f 641/4/5 639/4/5 637/4/5
f 642/4/5 639/4/5 641/4/5
f 643/4/5 638/4/5 640/4/5
f 644/4/5 638/4/5 643/4/5
f 645/4/5 639/4/5 642/4/5
f 646/4/5 639/4/5 645/4/5
f 647/4/5 643/4/5 640/4/5
f 648/4/5 643/4/5 647/4/5
f 652/4/5 650/4/5 649/4/5
f 653/4/5 650/4/5 652/4/5
f 655/4/5 653/4/5 652/4/5
f 655/4/5 654/4/5 653/4/5
f 655/4/5 652/4/5 651/4/5
f 656/4/5 654/4/5 655/4/5
f 659/4/5 658/4/5 657/4/5
f 660/4/5 658/4/5 659/4/5
f 663/6/5 662/6/5 661/6/5
f 664/6/5 662/6/5 663/6/5
f 665/6/6 666/6/6 667/6/6
f 667/6/6 666/6/6 668/6/6
f 668/6/6 666/6/6 669/6/6
f 669/6/6 666/6/6 670/6/6
f 667/4/6 668/4/6 671/4/6
f 668/2/6 669/2/6 672/2/6
f 671/4/6 668/4/6 672/4/6
f 669/4/6 670/4/6 673/4/6
f 672/2/6 669/2/6 673/2/6
f 673/4/6 670/4/6 674/4/6
f 675/6/6 676/6/6 681/6/6
f 676/4/6 677/4/6 682/4/6
f 681/6/6 676/6/6 682/6/6
f 682/4/6 677/4/6 683/4/6
f 678/4/6 679/4/6 684/4/6
f 679/6/6 680/6/6 685/6/6
f 684/4/6 679/4/6 685/4/6
f 685/6/6 680/6/6 686/6/6
f 687/4/6 688/4/6 689/4/6
f 689/4/6 688/4/6 690/4/6
f 687/4/6 689/4/6 691/4/6
f 691/4/6 689/4/6 692/4/6
f 690/4/6 688/4/6 693/4/6
f 693/4/6 688/4/6 694/4/6
f 692/4/6 689/4/6 695/4/6
f 695/4/6 689/4/6 696/4/6
f 690/4/6 693/4/6 697/4/6
f 697/4/6 693/4/6 698/4/6
f 699/4/6 700/4/6 702/4/6
f 702/4/6 700/4/6 703/4/6
f 702/4/6 703/4/6 705/4/6
f 703/4/6 704/4/6 705/4/6
f 701/4/6 702/4/6 705/4/6
f 705/4/6 704/4/6 706/4/6
f 701/4/6 705/4/6 707/4/6
f 705/2/6 706/2/6 708/2/6
f 707/4/6 705/4/6 708/4/6
f 706/4/6 704/4/6 709/4/6
f 708/2/6 706/2/6 709/2/6
f 709/4/6 704/4/6 710/4/6
f 711/6/6 712/6/6 713/6/6
f 713/6/6 712/6/6 714/6/6
f 715/1/6 716/1/6 719/1/6
f 719/1/6 716/1/6 720/1/6
f 717/1/6 718/1/6 721/1/6
f 721/1/6 718/1/6 722/1/6
f 719/2/6 720/2/6 723/2/6
f 721/2/6 722/2/6 724/2/6
f 719/2/6 723/2/6 725/2/6
f 723/2/6 724/2/6 725/2/6
f 724/2/6 722/2/6 726/2/6
f 725/2/6 724/2/6 726/2/6
f 727/6/6 728/6/6 729/6/6
f 729/6/6 728/6/6 730/6/6
f 731/4/6 732/4/6 733/4/6
f 733/4/6 732/4/6 734/4/6
f 735/6/6 736/6/6 739/6/6
f 739/6/6 736/6/6 740/6/6
f 737/6/6 738/6/6 741/6/6
f 741/6/6 738/6/6 742/6/6
f 743/4/6 744/4/6 745/4/6
f 745/4/6 744/4/6 746/4/6
f 746/4/6 744/4/6 747/4/6
f 747/4/6 744/4/6 748/4/6
f 743/4/6 745/4/6 749/4/6
f 746/4/6 747/4/6 750/4/6
f 750/4/6 747/4/6 751/4/6
f 748/4/6 744/4/6 752/4/6
f 743/4/6 749/4/6 753/4/6
f 750/4/6 751/4/6 756/4/6
f 756/4/6 751/4/6 757/4/6
f 752/4/6 744/4/6 760/4/6
f 754/4/6 755/4/6 761/4/6
f 759/4/6 760/4/6 761/4/6
f 758/4/6 759/4/6 761/4/6
f 743/4/6 753/4/6 761/4/6
f 757/4/6 758/4/6 761/4/6
f 756/4/6 757/4/6 761/4/6
f 755/4/6 756/4/6 761/4/6
f 753/4/6 754/4/6 761/4/6
f 760/4/6 744/4/6 762/4/6
f 761/4/6 760/4/6 762/4/6
f 763/6/6 764/6/6 765/6/6
f 765/6/6 764/6/6 766/6/6
f 767/6/6 768/6/6 771/6/6
f 771/6/6 768/6/6 772/6/6
f 769/6/6 770/6/6 773/6/6
f 773/6/6 770/6/6 774/6/6
