# MagicaVoxel @ Ephtracy

# group
o 

# material
mtllib New_Raccoon-2.mtl
usemtl palette

# normals
vn -1 0 0
vn 1 0 0
vn 0 0 1
vn 0 0 -1
vn 0 -1 0
vn 0 1 0

# texcoords
vt 0.986328 0.5
vt 0.990234 0.5
vt 0.994141 0.5

# verts
v 0.4 0.1 0.8
v 0.4 0.1 0.3
v 0.4 0.1 0
v 0.4 0.2 0.8
v 0.4 0.2 0.7
v 0.4 0.3 0.7
v 0.4 0.3 0.5
v 0.4 0.3 0.3
v 0.4 0.3 0
v 0.4 0.3 -0.1
v 0.4 0.7 0.6
v 0.4 0.7 0.5
v 0.4 0.7 -0.1
v 0.4 0.7 -0.2
v 0.4 1.1 -0.1
v 0.4 1.1 -0.2
v 0.4 1.3 0
v 0.4 1.3 -0.1
v 0.4 1.4 0.6
v 0.4 1.4 0
v 0.5 0.1 0.9
v 0.5 0.1 0.8
v 0.5 0.2 0.9
v 0.5 0.2 0.8
v 0.5 0.2 0.7
v 0.5 0.3 0.8
v 0.5 0.3 0.7
v 0.5 0.3 0.6
v 0.5 0.3 0.5
v 0.5 0.4 0.6
v 0.5 0.4 0.5
v 0.5 0.8 0.7
v 0.5 0.8 0.6
v 0.5 1.3 0.7
v 0.5 1.3 0.6
v 0.6 1 -0.1
v 0.6 1 -0.2
v 0.6 1.1 -0.1
v 0.6 1.1 -0.2
v 0.8 0.1 0.9
v 0.8 0.1 0.8
v 0.8 0.2 0.9
v 0.8 0.2 0.8
v 0.8 0.2 0.7
v 0.8 0.3 0.8
v 0.8 0.3 0.7
v 0.8 0.3 0.6
v 0.8 0.3 0.5
v 0.8 0.4 0.6
v 0.8 0.4 0.5
v 0.8 0.8 0.7
v 0.8 0.8 0.6
v 0.8 1.3 0.7
v 0.8 1.3 0.6
v 0.9 0.1 0.8
v 0.9 0.1 0.3
v 0.9 0.1 0
v 0.9 0.2 0.8
v 0.9 0.2 0.7
v 0.9 0.3 0.7
v 0.9 0.3 0.5
v 0.9 0.3 0.3
v 0.9 0.3 0
v 0.9 0.3 -0.1
v 0.9 0.7 0.6
v 0.9 0.7 0.5
v 0.9 0.7 0.3
v 0.9 0.7 0
v 0.9 0.7 -0.1
v 0.9 0.7 -0.2
v 0.9 0.8 0.3
v 0.9 0.8 0
v 0.9 1 -0.1
v 0.9 1 -0.2
v 0.9 1.3 0
v 0.9 1.3 -0.1
v 0.9 1.4 0.6
v 0.9 1.4 0
v 0.5 0.1 0.9
v 0.5 0.2 0.9
v 0.8 0.1 0.9
v 0.8 0.2 0.9
v 0.4 0.1 0.8
v 0.4 0.2 0.8
v 0.5 0.1 0.8
v 0.5 0.2 0.8
v 0.5 0.3 0.8
v 0.8 0.1 0.8
v 0.8 0.2 0.8
v 0.8 0.3 0.8
v 0.9 0.1 0.8
v 0.9 0.2 0.8
v 0.4 0.2 0.7
v 0.4 0.3 0.7
v 0.5 0.2 0.7
v 0.5 0.3 0.7
v 0.5 0.8 0.7
v 0.5 1.3 0.7
v 0.8 0.2 0.7
v 0.8 0.3 0.7
v 0.8 0.8 0.7
v 0.8 1.3 0.7
v 0.9 0.2 0.7
v 0.9 0.3 0.7
v 0.4 0.7 0.6
v 0.4 1.4 0.6
v 0.5 0.3 0.6
v 0.5 0.4 0.6
v 0.5 0.8 0.6
v 0.5 1.3 0.6
v 0.8 0.3 0.6
v 0.8 0.4 0.6
v 0.8 0.8 0.6
v 0.8 1.3 0.6
v 0.9 0.7 0.6
v 0.9 1.4 0.6
v 0.4 0.3 0.5
v 0.4 0.7 0.5
v 0.5 0.3 0.5
v 0.5 0.4 0.5
v 0.8 0.3 0.5
v 0.8 0.4 0.5
v 0.9 0.3 0.5
v 0.9 0.7 0.5
v 0.4 0.1 0
v 0.4 0.3 0
v 0.4 1.3 0
v 0.4 1.4 0
v 0.9 0.1 0
v 0.9 0.3 0
v 0.9 1.3 0
v 0.9 1.4 0
v 0.4 0.3 -0.1
v 0.4 0.7 -0.1
v 0.4 1.1 -0.1
v 0.4 1.3 -0.1
v 0.6 1 -0.1
v 0.6 1.1 -0.1
v 0.9 0.3 -0.1
v 0.9 0.7 -0.1
v 0.9 1 -0.1
v 0.9 1.3 -0.1
v 0.4 0.7 -0.2
v 0.4 1.1 -0.2
v 0.6 1 -0.2
v 0.6 1.1 -0.2
v 0.9 0.7 -0.2
v 0.9 1 -0.2
v 0.5 0.1 0.9
v 0.8 0.1 0.9
v 0.4 0.1 0.8
v 0.5 0.1 0.8
v 0.8 0.1 0.8
v 0.9 0.1 0.8
v 0.4 0.1 0.3
v 0.6 0.1 0.3
v 0.8 0.1 0.3
v 0.9 0.1 0.3
v 0.6 0.1 0.2
v 0.8 0.1 0.2
v 0.4 0.1 0
v 0.9 0.1 0
v 0.4 0.3 0
v 0.9 0.3 0
v 0.4 0.3 -0.1
v 0.9 0.3 -0.1
v 0.4 0.7 0.6
v 0.9 0.7 0.6
v 0.4 0.7 0.5
v 0.9 0.7 0.5
v 0.4 0.7 -0.1
v 0.9 0.7 -0.1
v 0.4 0.7 -0.2
v 0.9 0.7 -0.2
v 0.5 0.8 0.7
v 0.8 0.8 0.7
v 0.5 0.8 0.6
v 0.8 0.8 0.6
v 0.5 0.2 0.9
v 0.8 0.2 0.9
v 0.4 0.2 0.8
v 0.5 0.2 0.8
v 0.8 0.2 0.8
v 0.9 0.2 0.8
v 0.4 0.2 0.7
v 0.5 0.2 0.7
v 0.8 0.2 0.7
v 0.9 0.2 0.7
v 0.5 0.3 0.8
v 0.8 0.3 0.8
v 0.4 0.3 0.7
v 0.5 0.3 0.7
v 0.8 0.3 0.7
v 0.9 0.3 0.7
v 0.5 0.3 0.6
v 0.8 0.3 0.6
v 0.4 0.3 0.5
v 0.5 0.3 0.5
v 0.8 0.3 0.5
v 0.9 0.3 0.5
v 0.5 0.4 0.6
v 0.8 0.4 0.6
v 0.5 0.4 0.5
v 0.8 0.4 0.5
v 0.6 1 -0.1
v 0.9 1 -0.1
v 0.6 1 -0.2
v 0.9 1 -0.2
v 0.4 1.1 -0.1
v 0.6 1.1 -0.1
v 0.4 1.1 -0.2
v 0.6 1.1 -0.2
v 0.5 1.3 0.7
v 0.8 1.3 0.7
v 0.5 1.3 0.6
v 0.8 1.3 0.6
v 0.4 1.3 0
v 0.9 1.3 0
v 0.4 1.3 -0.1
v 0.9 1.3 -0.1
v 0.4 1.4 0.6
v 0.9 1.4 0.6
v 0.4 1.4 0
v 0.9 1.4 0

# faces
f 4/3/1 2/3/1 1/3/1
f 5/3/1 2/3/1 4/3/1
f 6/3/1 2/3/1 5/3/1
f 7/3/1 2/3/1 6/3/1
f 8/2/1 3/2/1 2/2/1
f 8/3/1 2/3/1 7/3/1
f 9/2/1 3/2/1 8/2/1
f 12/2/1 10/2/1 9/2/1
f 12/2/1 9/2/1 8/2/1
f 12/2/1 8/2/1 7/2/1
f 13/2/1 10/2/1 12/2/1
f 15/3/1 12/3/1 11/3/1
f 15/3/1 14/3/1 13/3/1
f 15/3/1 13/3/1 12/3/1
f 16/3/1 14/3/1 15/3/1
f 17/3/1 15/3/1 11/3/1
f 18/3/1 15/3/1 17/3/1
f 19/3/1 17/3/1 11/3/1
f 20/3/1 17/3/1 19/3/1
f 23/3/1 22/3/1 21/3/1
f 24/3/1 22/3/1 23/3/1
f 26/3/1 25/3/1 24/3/1
f 27/3/1 25/3/1 26/3/1
f 30/3/1 29/3/1 28/3/1
f 31/3/1 29/3/1 30/3/1
f 34/3/1 33/3/1 32/3/1
f 35/3/1 33/3/1 34/3/1
f 36/3/2 37/3/2 38/3/2
f 38/3/2 37/3/2 39/3/2
f 40/3/2 41/3/2 42/3/2
f 42/3/2 41/3/2 43/3/2
f 43/3/2 44/3/2 45/3/2
f 45/3/2 44/3/2 46/3/2
f 47/3/2 48/3/2 49/3/2
f 49/3/2 48/3/2 50/3/2
f 51/3/2 52/3/2 53/3/2
f 53/3/2 52/3/2 54/3/2
f 55/3/2 56/3/2 58/3/2
f 58/3/2 56/3/2 59/3/2
f 59/3/2 56/3/2 60/3/2
f 60/3/2 56/3/2 61/3/2
f 56/2/2 57/2/2 62/2/2
f 61/3/2 56/3/2 62/3/2
f 62/2/2 57/2/2 63/2/2
f 63/2/2 64/2/2 66/2/2
f 62/2/2 63/2/2 66/2/2
f 61/2/2 62/2/2 66/2/2
f 66/2/2 64/2/2 67/2/2
f 67/2/2 64/2/2 68/2/2
f 68/2/2 64/2/2 69/2/2
f 65/3/2 66/3/2 71/3/2
f 66/3/2 67/3/2 71/3/2
f 67/2/2 68/2/2 71/2/2
f 69/3/2 70/3/2 72/3/2
f 71/2/2 68/2/2 72/2/2
f 68/3/2 69/3/2 72/3/2
f 71/3/2 72/3/2 73/3/2
f 72/3/2 70/3/2 73/3/2
f 73/3/2 70/3/2 74/3/2
f 71/3/2 73/3/2 75/3/2
f 75/3/2 73/3/2 76/3/2
f 65/3/2 71/3/2 77/3/2
f 71/3/2 75/3/2 77/3/2
f 77/3/2 75/3/2 78/3/2
f 81/3/3 80/3/3 79/3/3
f 82/3/3 80/3/3 81/3/3
f 85/3/3 84/3/3 83/3/3
f 86/3/3 84/3/3 85/3/3
f 89/3/3 87/3/3 86/3/3
f 90/3/3 87/3/3 89/3/3
f 91/3/3 89/3/3 88/3/3
f 92/3/3 89/3/3 91/3/3
f 95/3/3 94/3/3 93/3/3
f 96/3/3 94/3/3 95/3/3
f 101/3/3 98/3/3 97/3/3
f 102/3/3 98/3/3 101/3/3
f 103/3/3 100/3/3 99/3/3
f 104/3/3 100/3/3 103/3/3
f 109/3/3 106/3/3 105/3/3
f 110/3/3 106/3/3 109/3/3
f 111/3/3 108/3/3 107/3/3
f 112/3/3 108/3/3 111/3/3
f 113/3/3 109/3/3 105/3/3
f 114/3/3 106/3/3 110/3/3
f 115/3/3 113/3/3 105/3/3
f 115/3/3 114/3/3 113/3/3
f 116/3/3 106/3/3 114/3/3
f 116/3/3 114/3/3 115/3/3
f 119/2/3 118/2/3 117/2/3
f 120/2/3 118/2/3 119/2/3
f 122/2/3 118/2/3 120/2/3
f 123/2/3 122/2/3 121/2/3
f 124/2/3 118/2/3 122/2/3
f 124/2/3 122/2/3 123/2/3
f 125/2/4 126/2/4 129/2/4
f 129/2/4 126/2/4 130/2/4
f 127/3/4 128/3/4 131/3/4
f 131/3/4 128/3/4 132/3/4
f 135/3/4 136/3/4 138/3/4
f 133/2/4 134/2/4 139/2/4
f 139/2/4 134/2/4 140/2/4
f 137/3/4 138/3/4 141/3/4
f 138/3/4 136/3/4 142/3/4
f 141/3/4 138/3/4 142/3/4
f 143/3/4 144/3/4 145/3/4
f 145/3/4 144/3/4 146/3/4
f 143/3/4 145/3/4 147/3/4
f 147/3/4 145/3/4 148/3/4
f 152/3/5 150/3/5 149/3/5
f 153/3/5 150/3/5 152/3/5
f 155/3/5 152/3/5 151/3/5
f 155/3/5 154/3/5 153/3/5
f 155/3/5 153/3/5 152/3/5
f 156/3/5 154/3/5 155/3/5
f 157/3/5 154/3/5 156/3/5
f 158/3/5 154/3/5 157/3/5
f 159/2/5 156/2/5 155/2/5
f 159/3/5 157/3/5 156/3/5
f 160/2/5 158/2/5 157/2/5
f 160/3/5 157/3/5 159/3/5
f 161/2/5 159/2/5 155/2/5
f 161/2/5 160/2/5 159/2/5
f 162/2/5 158/2/5 160/2/5
f 162/2/5 160/2/5 161/2/5
f 165/2/5 164/2/5 163/2/5
f 166/2/5 164/2/5 165/2/5
f 169/3/5 168/3/5 167/3/5
f 170/3/5 168/3/5 169/3/5
f 173/3/5 172/3/5 171/3/5
f 174/3/5 172/3/5 173/3/5
f 177/3/5 176/3/5 175/3/5
f 178/3/5 176/3/5 177/3/5
f 179/3/6 180/3/6 182/3/6
f 182/3/6 180/3/6 183/3/6
f 181/3/6 182/3/6 185/3/6
f 185/3/6 182/3/6 186/3/6
f 183/3/6 184/3/6 187/3/6
f 187/3/6 184/3/6 188/3/6
f 189/3/6 190/3/6 192/3/6
f 192/3/6 190/3/6 193/3/6
f 191/3/6 192/3/6 195/3/6
f 193/3/6 194/3/6 195/3/6
f 192/3/6 193/3/6 195/3/6
f 195/3/6 194/3/6 196/3/6
f 191/3/6 195/3/6 197/3/6
f 197/3/6 195/3/6 198/3/6
f 196/3/6 194/3/6 199/3/6
f 199/3/6 194/3/6 200/3/6
f 201/3/6 202/3/6 203/3/6
f 203/3/6 202/3/6 204/3/6
f 205/3/6 206/3/6 207/3/6
f 207/3/6 206/3/6 208/3/6
f 209/3/6 210/3/6 211/3/6
f 211/3/6 210/3/6 212/3/6
f 213/3/6 214/3/6 215/3/6
f 215/3/6 214/3/6 216/3/6
f 217/3/6 218/3/6 219/3/6
f 219/3/6 218/3/6 220/3/6
f 221/3/6 222/3/6 223/3/6
f 223/3/6 222/3/6 224/3/6
