# MagicaVoxel @ Ephtracy

# group
o 

# material
mtllib New_Raccoon-1.mtl
usemtl palette

# normals
vn -1 0 0
vn 1 0 0
vn 0 0 1
vn 0 0 -1
vn 0 -1 0
vn 0 1 0

# texcoords
vt 0.958984 0.5
vt 0.982422 0.5
vt 0.986328 0.5
vt 0.990234 0.5
vt 0.994141 0.5

# verts
v -0.7 0.8 -0.2
v -0.7 0.8 -0.4
v -0.7 0.9 -0.1
v -0.7 0.9 -0.2
v -0.7 0.9 -0.4
v -0.7 0.9 -0.5
v -0.7 1 -1.19209e-07
v -0.7 1 -0.1
v -0.7 1.1 0.0999999
v -0.7 1.1 -1.19209e-07
v -0.7 1.1 -0.4
v -0.7 1.1 -0.5
v -0.7 1.2 0.2
v -0.7 1.2 0.0999999
v -0.7 1.2 -0.3
v -0.7 1.2 -0.4
v -0.7 1.3 0.3
v -0.7 1.3 0.2
v -0.7 1.3 -0.2
v -0.7 1.3 -0.3
v -0.7 1.4 0.4
v -0.7 1.4 0.3
v -0.7 1.4 -0.1
v -0.7 1.4 -0.2
v -0.7 1.5 0.5
v -0.7 1.5 0.4
v -0.7 1.5 -1.19209e-07
v -0.7 1.5 -0.1
v -0.7 1.6 0.5
v -0.7 1.6 -1.19209e-07
v -0.6 0.6 -0.1
v -0.6 0.6 -0.2
v -0.6 0.7 -1.19209e-07
v -0.6 0.7 -0.1
v -0.6 0.7 -0.2
v -0.6 0.7 -0.3
v -0.6 0.8 0.0999999
v -0.6 0.8 -1.19209e-07
v -0.6 0.8 -0.2
v -0.6 0.8 -0.3
v -0.6 0.9 0.2
v -0.6 0.9 0.0999999
v -0.6 0.9 -0.1
v -0.6 0.9 -0.2
v -0.6 1 0.3
v -0.6 1 0.2
v -0.6 1 -1.19209e-07
v -0.6 1 -0.1
v -0.6 1 -0.5
v -0.6 1 -0.6
v -0.6 1.1 0.4
v -0.6 1.1 0.3
v -0.6 1.1 0.0999999
v -0.6 1.1 -1.19209e-07
v -0.6 1.1 -0.4
v -0.6 1.1 -0.5
v -0.6 1.1 -0.6
v -0.6 1.1 -0.7
v -0.6 1.2 0.5
v -0.6 1.2 0.4
v -0.6 1.2 0.2
v -0.6 1.2 0.0999999
v -0.6 1.2 -0.3
v -0.6 1.2 -0.4
v -0.6 1.2 -0.6
v -0.6 1.2 -0.7
v -0.6 1.3 0.6
v -0.6 1.3 0.5
v -0.6 1.3 0.3
v -0.6 1.3 0.2
v -0.6 1.3 -0.2
v -0.6 1.3 -0.3
v -0.6 1.3 -0.5
v -0.6 1.3 -0.6
v -0.6 1.4 0.7
v -0.6 1.4 0.6
v -0.6 1.4 0.4
v -0.6 1.4 0.3
v -0.6 1.4 -0.1
v -0.6 1.4 -0.2
v -0.6 1.4 -0.4
v -0.6 1.4 -0.5
v -0.6 1.5 0.5
v -0.6 1.5 0.4
v -0.6 1.5 -1.19209e-07
v -0.6 1.5 -0.1
v -0.6 1.5 -0.3
v -0.6 1.5 -0.4
v -0.6 1.6 0.7
v -0.6 1.6 0.5
v -0.6 1.6 -1.19209e-07
v -0.6 1.6 -0.2
v -0.6 1.6 -0.3
v -0.6 1.7 -0.1
v -0.6 1.7 -0.2
v -0.6 1.8 0.7
v -0.6 1.8 -1.19209e-07
v -0.6 1.8 -0.1
v -0.6 1.9 0.7
v -0.6 1.9 -1.19209e-07
v -0.5 0.5 -1.19209e-07
v -0.5 0.5 -0.1
v -0.5 0.6 0.0999999
v -0.5 0.6 -1.19209e-07
v -0.5 0.6 -0.1
v -0.5 0.6 -0.2
v -0.5 0.6 -0.5
v -0.5 0.7 0.2
v -0.5 0.7 0.0999999
v -0.5 0.7 -1.19209e-07
v -0.5 0.7 -0.1
v -0.5 0.7 -0.2
v -0.5 0.7 -0.3
v -0.5 0.7 -0.5
v -0.5 0.7 -0.6
v -0.5 0.8 0.3
v -0.5 0.8 0.2
v -0.5 0.8 0.0999999
v -0.5 0.8 -1.19209e-07
v -0.5 0.8 -0.3
v -0.5 0.8 -0.4
v -0.5 0.8 -0.6
v -0.5 0.8 -0.7
v -0.5 0.9 0.4
v -0.5 0.9 0.3
v -0.5 0.9 0.2
v -0.5 0.9 0.0999999
v -0.5 0.9 -0.4
v -0.5 0.9 -0.5
v -0.5 1 0.5
v -0.5 1 0.4
v -0.5 1 0.3
v -0.5 1 0.2
v -0.5 1 -0.5
v -0.5 1 -0.6
v -0.5 1.1 0.6
v -0.5 1.1 0.5
v -0.5 1.1 0.4
v -0.5 1.1 0.3
v -0.5 1.1 -0.6
v -0.5 1.1 -0.7
v -0.5 1.1 -0.8
v -0.5 1.1 -0.9
v -0.5 1.2 0.7
v -0.5 1.2 0.6
v -0.5 1.2 0.5
v -0.5 1.2 0.4
v -0.5 1.2 -0.6
v -0.5 1.2 -0.7
v -0.5 1.3 0.8
v -0.5 1.3 0.7
v -0.5 1.3 0.6
v -0.5 1.3 0.5
v -0.5 1.3 -0.5
v -0.5 1.3 -0.6
v -0.5 1.3 -0.7
v -0.5 1.3 -0.8
v -0.5 1.3 -0.9
v -0.5 1.4 0.7
v -0.5 1.4 0.6
v -0.5 1.4 -0.4
v -0.5 1.4 -0.5
v -0.5 1.4 -0.6
v -0.5 1.4 -0.7
v -0.5 1.5 -0.3
v -0.5 1.5 -0.4
v -0.5 1.5 -0.5
v -0.5 1.5 -0.6
v -0.5 1.6 0.8
v -0.5 1.6 0.7
v -0.5 1.6 -0.2
v -0.5 1.6 -0.3
v -0.5 1.6 -0.4
v -0.5 1.6 -0.5
v -0.5 1.7 -0.1
v -0.5 1.7 -0.2
v -0.5 1.7 -0.3
v -0.5 1.7 -0.4
v -0.5 1.8 0.8
v -0.5 1.8 0.7
v -0.5 1.8 -1.19209e-07
v -0.5 1.8 -0.1
v -0.5 1.8 -0.2
v -0.5 1.8 -0.3
v -0.5 1.9 0.8
v -0.5 1.9 0.7
v -0.5 1.9 -1.19209e-07
v -0.5 1.9 -0.1
v -0.5 1.9 -0.2
v -0.5 2 0.0999999
v -0.5 2 -0.1
v -0.5 2.1 0.8
v -0.5 2.1 0.0999999
v -0.5 2.2 0.8
v -0.5 2.2 0.0999999
v -0.5 2.3 0.8
v -0.5 2.3 0.0999999
v -0.5 2.6 0.6
v -0.5 2.6 0.3
v -0.5 2.7 0.7
v -0.5 2.7 0.6
v -0.5 2.7 0.3
v -0.5 2.7 0.2
v -0.5 2.9 0.3
v -0.5 2.9 0.2
v -0.5 3 0.7
v -0.5 3 0.6
v -0.5 3 0.4
v -0.5 3 0.3
v -0.5 3.1 0.6
v -0.5 3.1 0.4
v -0.4 0.5 0.0999999
v -0.4 0.5 -1.19209e-07
v -0.4 0.5 -0.1
v -0.4 0.5 -0.4
v -0.4 0.6 0.2
v -0.4 0.6 0.0999999
v -0.4 0.6 -1.19209e-07
v -0.4 0.6 -0.1
v -0.4 0.6 -0.4
v -0.4 0.7 0.3
v -0.4 0.7 0.2
v -0.4 0.7 0.0999999
v -0.4 0.8 0.4
v -0.4 0.8 0.3
v -0.4 0.8 0.2
v -0.4 0.9 0.5
v -0.4 0.9 0.4
v -0.4 0.9 0.3
v -0.4 0.9 -0.7
v -0.4 0.9 -0.8
v -0.4 0.9 -0.9
v -0.4 1 0.6
v -0.4 1 0.5
v -0.4 1 0.4
v -0.4 1 -0.9
v -0.4 1 -1
v -0.4 1.1 0.7
v -0.4 1.1 0.6
v -0.4 1.1 0.5
v -0.4 1.1 -0.7
v -0.4 1.1 -0.8
v -0.4 1.1 -0.9
v -0.4 1.2 0.8
v -0.4 1.2 0.7
v -0.4 1.2 0.6
v -0.4 1.3 0.8
v -0.4 1.3 0.7
v -0.4 1.3 -0.7
v -0.4 1.3 -0.8
v -0.4 1.3 -0.9
v -0.4 1.4 0.9
v -0.4 1.4 0.8
v -0.4 1.4 -0.6
v -0.4 1.4 -0.7
v -0.4 1.4 -0.9
v -0.4 1.4 -1
v -0.4 1.5 -0.5
v -0.4 1.5 -0.6
v -0.4 1.5 -0.7
v -0.4 1.5 -0.8
v -0.4 1.5 -0.9
v -0.4 1.6 0.9
v -0.4 1.6 0.8
v -0.4 1.6 -0.4
v -0.4 1.6 -0.5
v -0.4 1.6 -0.7
v -0.4 1.7 -0.3
v -0.4 1.7 -0.4
v -0.4 1.7 -0.5
v -0.4 1.8 0.9
v -0.4 1.8 0.8
v -0.4 1.8 -0.2
v -0.4 1.8 -0.3
v -0.4 1.8 -0.4
v -0.4 1.9 0.9
v -0.4 1.9 0.8
v -0.4 1.9 -0.1
v -0.4 1.9 -0.2
v -0.4 1.9 -0.3
v -0.4 2 0.0999999
v -0.4 2 -0.1
v -0.4 2 -0.2
v -0.4 2.1 0.9
v -0.4 2.1 0.8
v -0.4 2.1 0.0999999
v -0.4 2.1 -0.1
v -0.4 2.2 0.9
v -0.4 2.2 0.8
v -0.4 2.2 0.0999999
v -0.4 2.2 -0.1
v -0.4 2.3 0.9
v -0.4 2.3 0.8
v -0.4 2.3 0.0999999
v -0.4 2.4 0.8
v -0.4 2.4 0.0999999
v -0.4 2.5 0.8
v -0.4 2.5 0.2
v -0.4 2.5 0.0999999
v -0.4 2.6 0.6
v -0.4 2.6 0.3
v -0.4 2.6 0.2
v -0.4 2.6 0.0999999
v -0.4 2.7 0.7
v -0.4 2.7 0.6
v -0.4 2.7 0.3
v -0.4 2.7 0.2
v -0.4 2.9 0.3
v -0.4 2.9 0.2
v -0.4 3 0.7
v -0.4 3 0.6
v -0.4 3 0.4
v -0.4 3 0.3
v -0.4 3 0.2
v -0.4 3 0.0999999
v -0.4 3.1 0.8
v -0.4 3.1 0.7
v -0.4 3.1 0.6
v -0.4 3.1 0.4
v -0.4 3.1 0.3
v -0.4 3.1 0.2
v -0.4 3.2 0.7
v -0.4 3.2 0.6
v -0.4 3.2 0.3
v -0.4 3.4 0.6
v -0.4 3.4 0.5
v -0.4 3.5 0.5
v -0.4 3.5 0.3
v -0.3 0.8 -0.7
v -0.3 0.8 -0.8
v -0.3 0.8 -0.9
v -0.3 0.9 -0.7
v -0.3 0.9 -0.8
v -0.3 0.9 -0.9
v -0.3 0.9 -1
v -0.3 1 -0.9
v -0.3 1 -1
v -0.3 1 -1.1
v -0.3 1.1 -1.1
v -0.3 1.1 -1.3
v -0.3 1.2 -1.3
v -0.3 1.2 -1.5
v -0.3 1.4 -0.9
v -0.3 1.4 -1
v -0.3 1.5 -0.7
v -0.3 1.5 -0.8
v -0.3 1.5 -0.9
v -0.3 1.5 -1
v -0.3 1.6 -0.7
v -0.3 1.6 -0.8
v -0.3 1.6 -0.9
v -0.3 2 -1
v -0.3 2 -1.5
v -0.3 2.4 0.7
v -0.3 2.4 0.2
v -0.3 2.5 0.7
v -0.3 2.5 0.2
v -0.3 2.6 0.9
v -0.3 2.6 0.8
v -0.3 2.7 1
v -0.3 2.7 0.9
v -0.3 3 1
v -0.3 3 0.8
v -0.3 3 0.2
v -0.3 3 0.0999999
v -0.3 3.1 0.8
v -0.3 3.1 0.7
v -0.3 3.1 0.3
v -0.3 3.1 0.2
v -0.3 3.1 0.0999999
v -0.3 3.2 0.8
v -0.3 3.2 0.7
v -0.3 3.2 0.6
v -0.3 3.2 0.3
v -0.3 3.2 0.2
v -0.3 3.3 0.8
v -0.3 3.3 0.6
v -0.2 1 -1.1
v -0.2 1 -1.2
v -0.2 1.1 -1.1
v -0.2 1.1 -1.2
v -0.2 2 -1.1
v -0.2 2 -1.4
v -0.2 2.1 -1.1
v -0.2 2.1 -1.4
v -0.2 2.2 0.0999999
v -0.2 2.2 -1.19209e-07
v -0.2 2.4 0.2
v -0.2 2.4 0.0999999
v -0.2 2.4 -1.19209e-07
v -0.2 2.5 0.2
v -0.2 2.5 0.0999999
v -0.2 2.7 1.1
v -0.2 2.7 1
v -0.2 3 1.1
v -0.2 3 1
v -0.2 3.1 0.2
v -0.2 3.1 0.0999999
v -0.2 3.2 0.3
v -0.2 3.2 0.2
v -0.2 3.2 0.0999999
v -0.2 3.3 0.7
v -0.2 3.3 0.6
v -0.2 3.4 0.7
v -0.2 3.4 0.6
v -0.2 3.4 0.3
v -0.2 3.4 0.2
v -0.1 2.8 1.2
v -0.1 2.8 1.1
v -0.1 3 1.2
v -0.1 3 1.1
v 0.2 2.7 0.3
v 0.2 2.7 0.2
v 0.2 3 0.3
v 0.2 3 0.2
v 0.3 3.4 0.5
v 0.3 3.4 0.3
v 0.3 3.5 0.5
v 0.3 3.5 0.3
v -0.3 3.4 0.5
v -0.3 3.4 0.3
v -0.3 3.5 0.5
v -0.3 3.5 0.3
v -0.2 2.7 0.3
v -0.2 2.7 0.2
v -0.2 3 0.3
v -0.2 3 0.2
v 0.1 2.8 1.2
v 0.1 2.8 1.1
v 0.1 3 1.2
v 0.1 3 1.1
v 0.2 1 -1.1
v 0.2 1 -1.2
v 0.2 1.1 -1.1
v 0.2 1.1 -1.2
v 0.2 2 -1.1
v 0.2 2 -1.4
v 0.2 2.1 -1.1
v 0.2 2.1 -1.4
v 0.2 2.2 0.0999999
v 0.2 2.2 -1.19209e-07
v 0.2 2.4 0.2
v 0.2 2.4 0.0999999
v 0.2 2.4 -1.19209e-07
v 0.2 2.5 0.2
v 0.2 2.5 0.0999999
v 0.2 2.7 1.1
v 0.2 2.7 1
v 0.2 3 1.1
v 0.2 3 1
v 0.2 3.1 0.2
v 0.2 3.1 0.0999999
v 0.2 3.2 0.3
v 0.2 3.2 0.2
v 0.2 3.2 0.0999999
v 0.2 3.3 0.7
v 0.2 3.3 0.6
v 0.2 3.4 0.7
v 0.2 3.4 0.6
v 0.2 3.4 0.3
v 0.2 3.4 0.2
v 0.3 0.8 -0.7
v 0.3 0.8 -0.8
v 0.3 0.8 -0.9
v 0.3 0.9 -0.7
v 0.3 0.9 -0.8
v 0.3 0.9 -0.9
v 0.3 0.9 -1
v 0.3 1 -0.9
v 0.3 1 -1
v 0.3 1 -1.1
v 0.3 1.1 -1.1
v 0.3 1.1 -1.3
v 0.3 1.2 -1.3
v 0.3 1.2 -1.5
v 0.3 1.4 -0.9
v 0.3 1.4 -1
v 0.3 1.5 -0.7
v 0.3 1.5 -0.8
v 0.3 1.5 -0.9
v 0.3 1.5 -1
v 0.3 1.6 -0.7
v 0.3 1.6 -0.8
v 0.3 1.6 -0.9
v 0.3 2 -1
v 0.3 2 -1.5
v 0.3 2.4 0.7
v 0.3 2.4 0.2
v 0.3 2.5 0.7
v 0.3 2.5 0.2
v 0.3 2.6 0.9
v 0.3 2.6 0.8
v 0.3 2.7 1
v 0.3 2.7 0.9
v 0.3 3 1
v 0.3 3 0.8
v 0.3 3 0.2
v 0.3 3 0.0999999
v 0.3 3.1 0.8
v 0.3 3.1 0.7
v 0.3 3.1 0.3
v 0.3 3.1 0.2
v 0.3 3.1 0.0999999
v 0.3 3.2 0.8
v 0.3 3.2 0.7
v 0.3 3.2 0.6
v 0.3 3.2 0.3
v 0.3 3.2 0.2
v 0.3 3.3 0.8
v 0.3 3.3 0.6
v 0.4 0.5 0.0999999
v 0.4 0.5 -1.19209e-07
v 0.4 0.5 -0.1
v 0.4 0.5 -0.4
v 0.4 0.6 0.2
v 0.4 0.6 0.0999999
v 0.4 0.6 -1.19209e-07
v 0.4 0.6 -0.1
v 0.4 0.6 -0.4
v 0.4 0.7 0.3
v 0.4 0.7 0.2
v 0.4 0.7 0.0999999
v 0.4 0.8 0.4
v 0.4 0.8 0.3
v 0.4 0.8 0.2
v 0.4 0.9 0.5
v 0.4 0.9 0.4
v 0.4 0.9 0.3
v 0.4 0.9 -0.7
v 0.4 0.9 -0.8
v 0.4 0.9 -0.9
v 0.4 1 0.6
v 0.4 1 0.5
v 0.4 1 0.4
v 0.4 1 -0.9
v 0.4 1 -1
v 0.4 1.1 0.7
v 0.4 1.1 0.6
v 0.4 1.1 0.5
v 0.4 1.1 -0.7
v 0.4 1.1 -0.8
v 0.4 1.1 -0.9
v 0.4 1.2 0.8
v 0.4 1.2 0.7
v 0.4 1.2 0.6
v 0.4 1.3 0.8
v 0.4 1.3 0.7
v 0.4 1.3 -0.7
v 0.4 1.3 -0.8
v 0.4 1.3 -0.9
v 0.4 1.4 0.9
v 0.4 1.4 0.8
v 0.4 1.4 -0.6
v 0.4 1.4 -0.7
v 0.4 1.4 -0.9
v 0.4 1.4 -1
v 0.4 1.5 -0.5
v 0.4 1.5 -0.6
v 0.4 1.5 -0.7
v 0.4 1.5 -0.8
v 0.4 1.5 -0.9
v 0.4 1.6 0.9
v 0.4 1.6 0.8
v 0.4 1.6 -0.4
v 0.4 1.6 -0.5
v 0.4 1.6 -0.7
v 0.4 1.7 -0.3
v 0.4 1.7 -0.4
v 0.4 1.7 -0.5
v 0.4 1.8 0.9
v 0.4 1.8 0.8
v 0.4 1.8 -0.2
v 0.4 1.8 -0.3
v 0.4 1.8 -0.4
v 0.4 1.9 0.9
v 0.4 1.9 0.8
v 0.4 1.9 -0.1
v 0.4 1.9 -0.2
v 0.4 1.9 -0.3
v 0.4 2 0.0999999
v 0.4 2 -0.1
v 0.4 2 -0.2
v 0.4 2.1 0.9
v 0.4 2.1 0.8
v 0.4 2.1 0.0999999
v 0.4 2.1 -0.1
v 0.4 2.2 0.9
v 0.4 2.2 0.8
v 0.4 2.2 0.0999999
v 0.4 2.2 -0.1
v 0.4 2.3 0.9
v 0.4 2.3 0.8
v 0.4 2.4 0.8
v 0.4 2.4 0.0999999
v 0.4 2.5 0.8
v 0.4 2.5 0.2
v 0.4 2.5 0.0999999
v 0.4 2.6 0.6
v 0.4 2.6 0.3
v 0.4 2.6 0.2
v 0.4 2.6 0.0999999
v 0.4 2.7 0.7
v 0.4 2.7 0.6
v 0.4 2.7 0.3
v 0.4 2.7 0.2
v 0.4 2.9 0.3
v 0.4 2.9 0.2
v 0.4 3 0.7
v 0.4 3 0.6
v 0.4 3 0.4
v 0.4 3 0.3
v 0.4 3 0.2
v 0.4 3 0.0999999
v 0.4 3.1 0.8
v 0.4 3.1 0.7
v 0.4 3.1 0.6
v 0.4 3.1 0.4
v 0.4 3.1 0.3
v 0.4 3.1 0.2
v 0.4 3.2 0.7
v 0.4 3.2 0.6
v 0.4 3.2 0.3
v 0.4 3.4 0.6
v 0.4 3.4 0.5
v 0.4 3.5 0.5
v 0.4 3.5 0.3
v 0.5 0.5 -1.19209e-07
v 0.5 0.5 -0.1
v 0.5 0.6 0.0999999
v 0.5 0.6 -1.19209e-07
v 0.5 0.6 -0.1
v 0.5 0.6 -0.2
v 0.5 0.6 -0.5
v 0.5 0.7 0.2
v 0.5 0.7 0.0999999
v 0.5 0.7 -1.19209e-07
v 0.5 0.7 -0.1
v 0.5 0.7 -0.2
v 0.5 0.7 -0.3
v 0.5 0.7 -0.5
v 0.5 0.7 -0.6
v 0.5 0.8 0.3
v 0.5 0.8 0.2
v 0.5 0.8 0.0999999
v 0.5 0.8 -1.19209e-07
v 0.5 0.8 -0.3
v 0.5 0.8 -0.4
v 0.5 0.8 -0.6
v 0.5 0.8 -0.7
v 0.5 0.9 0.4
v 0.5 0.9 0.3
v 0.5 0.9 0.2
v 0.5 0.9 0.0999999
v 0.5 0.9 -0.4
v 0.5 0.9 -0.5
v 0.5 1 0.5
v 0.5 1 0.4
v 0.5 1 0.3
v 0.5 1 0.2
v 0.5 1 -0.5
v 0.5 1 -0.6
v 0.5 1.1 0.6
v 0.5 1.1 0.5
v 0.5 1.1 0.4
v 0.5 1.1 0.3
v 0.5 1.1 -0.6
v 0.5 1.1 -0.7
v 0.5 1.1 -0.8
v 0.5 1.1 -0.9
v 0.5 1.2 0.7
v 0.5 1.2 0.6
v 0.5 1.2 0.5
v 0.5 1.2 0.4
v 0.5 1.2 -0.6
v 0.5 1.2 -0.7
v 0.5 1.3 0.8
v 0.5 1.3 0.7
v 0.5 1.3 0.6
v 0.5 1.3 0.5
v 0.5 1.3 -0.5
v 0.5 1.3 -0.6
v 0.5 1.3 -0.7
v 0.5 1.3 -0.8
v 0.5 1.3 -0.9
v 0.5 1.4 0.7
v 0.5 1.4 0.6
v 0.5 1.4 -0.4
v 0.5 1.4 -0.5
v 0.5 1.4 -0.6
v 0.5 1.4 -0.7
v 0.5 1.5 -0.3
v 0.5 1.5 -0.4
v 0.5 1.5 -0.5
v 0.5 1.5 -0.6
v 0.5 1.6 0.8
v 0.5 1.6 0.7
v 0.5 1.6 -0.2
v 0.5 1.6 -0.3
v 0.5 1.6 -0.4
v 0.5 1.6 -0.5
v 0.5 1.7 -0.1
v 0.5 1.7 -0.2
v 0.5 1.7 -0.3
v 0.5 1.7 -0.4
v 0.5 1.8 0.8
v 0.5 1.8 0.7
v 0.5 1.8 -1.19209e-07
v 0.5 1.8 -0.1
v 0.5 1.8 -0.2
v 0.5 1.8 -0.3
v 0.5 1.9 0.8
v 0.5 1.9 0.7
v 0.5 1.9 -1.19209e-07
v 0.5 1.9 -0.1
v 0.5 1.9 -0.2
v 0.5 2 0.0999999
v 0.5 2 -0.1
v 0.5 2.1 0.8
v 0.5 2.1 0.0999999
v 0.5 2.2 0.8
v 0.5 2.2 0.0999999
v 0.5 2.6 0.6
v 0.5 2.6 0.3
v 0.5 2.7 0.7
v 0.5 2.7 0.6
v 0.5 2.7 0.3
v 0.5 2.7 0.2
v 0.5 2.9 0.3
v 0.5 2.9 0.2
v 0.5 3 0.7
v 0.5 3 0.6
v 0.5 3 0.4
v 0.5 3 0.3
v 0.5 3.1 0.6
v 0.5 3.1 0.4
v 0.6 0.6 -0.1
v 0.6 0.6 -0.2
v 0.6 0.7 -1.19209e-07
v 0.6 0.7 -0.1
v 0.6 0.7 -0.2
v 0.6 0.7 -0.3
v 0.6 0.8 0.0999999
v 0.6 0.8 -1.19209e-07
v 0.6 0.8 -0.2
v 0.6 0.8 -0.3
v 0.6 0.9 0.2
v 0.6 0.9 0.0999999
v 0.6 0.9 -0.1
v 0.6 0.9 -0.2
v 0.6 1 0.3
v 0.6 1 0.2
v 0.6 1 -1.19209e-07
v 0.6 1 -0.1
v 0.6 1 -0.5
v 0.6 1 -0.6
v 0.6 1.1 0.4
v 0.6 1.1 0.3
v 0.6 1.1 0.0999999
v 0.6 1.1 -1.19209e-07
v 0.6 1.1 -0.4
v 0.6 1.1 -0.5
v 0.6 1.1 -0.6
v 0.6 1.1 -0.7
v 0.6 1.2 0.5
v 0.6 1.2 0.4
v 0.6 1.2 0.2
v 0.6 1.2 0.0999999
v 0.6 1.2 -0.3
v 0.6 1.2 -0.4
v 0.6 1.2 -0.6
v 0.6 1.2 -0.7
v 0.6 1.3 0.6
v 0.6 1.3 0.5
v 0.6 1.3 0.3
v 0.6 1.3 0.2
v 0.6 1.3 -0.2
v 0.6 1.3 -0.3
v 0.6 1.3 -0.5
v 0.6 1.3 -0.6
v 0.6 1.4 0.7
v 0.6 1.4 0.6
v 0.6 1.4 0.4
v 0.6 1.4 0.3
v 0.6 1.4 -0.1
v 0.6 1.4 -0.2
v 0.6 1.4 -0.4
v 0.6 1.4 -0.5
v 0.6 1.5 0.4
v 0.6 1.5 -0.1
v 0.6 1.5 -0.3
v 0.6 1.5 -0.4
v 0.6 1.6 0.7
v 0.6 1.6 -0.2
v 0.6 1.6 -0.3
v 0.6 1.7 -0.1
v 0.6 1.7 -0.2
v 0.6 1.8 0.7
v 0.6 1.8 -1.19209e-07
v 0.6 1.8 -0.1
v 0.6 1.9 0.7
v 0.6 1.9 -1.19209e-07
v 0.7 0.8 -0.2
v 0.7 0.8 -0.4
v 0.7 0.9 -0.1
v 0.7 0.9 -0.2
v 0.7 0.9 -0.4
v 0.7 0.9 -0.5
v 0.7 1 -1.19209e-07
v 0.7 1 -0.1
v 0.7 1.1 0.0999999
v 0.7 1.1 -1.19209e-07
v 0.7 1.1 -0.4
v 0.7 1.1 -0.5
v 0.7 1.2 0.2
v 0.7 1.2 0.0999999
v 0.7 1.2 -0.3
v 0.7 1.2 -0.4
v 0.7 1.3 0.3
v 0.7 1.3 0.2
v 0.7 1.3 -0.2
v 0.7 1.3 -0.3
v 0.7 1.4 0.4
v 0.7 1.4 0.3
v 0.7 1.4 -0.1
v 0.7 1.4 -0.2
v 0.7 1.5 0.4
v 0.7 1.5 -0.1
v -0.1 2.8 1.2
v -0.1 3 1.2
v 0.1 2.8 1.2
v 0.1 3 1.2
v -0.2 2.7 1.1
v -0.2 3 1.1
v -0.1 2.8 1.1
v -0.1 3 1.1
v 0.1 2.8 1.1
v 0.1 3 1.1
v 0.2 2.7 1.1
v 0.2 3 1.1
v -0.3 2.7 1
v -0.3 3 1
v -0.2 2.7 1
v -0.2 3 1
v 0.2 2.7 1
v 0.2 3 1
v 0.3 2.7 1
v 0.3 3 1
v -0.4 1.4 0.9
v -0.4 1.6 0.9
v -0.4 1.8 0.9
v -0.4 1.9 0.9
v -0.4 2.1 0.9
v -0.4 2.2 0.9
v -0.4 2.3 0.9
v -0.3 1.6 0.9
v -0.3 1.8 0.9
v -0.3 2.6 0.9
v -0.3 2.7 0.9
v 0.3 1.6 0.9
v 0.3 1.8 0.9
v 0.3 2.6 0.9
v 0.3 2.7 0.9
v 0.4 1.4 0.9
v 0.4 1.6 0.9
v 0.4 1.8 0.9
v 0.4 1.9 0.9
v 0.4 2.1 0.9
v 0.4 2.2 0.9
v 0.4 2.3 0.9
v -0.5 1.3 0.8
v -0.5 1.6 0.8
v -0.5 1.8 0.8
v -0.5 1.9 0.8
v -0.5 2.1 0.8
v -0.5 2.2 0.8
v -0.5 2.3 0.8
v -0.4 1.2 0.8
v -0.4 1.3 0.8
v -0.4 1.4 0.8
v -0.4 1.6 0.8
v -0.4 1.8 0.8
v -0.4 1.9 0.8
v -0.4 2.1 0.8
v -0.4 2.2 0.8
v -0.4 2.3 0.8
v -0.4 2.4 0.8
v -0.4 2.5 0.8
v -0.4 3.1 0.8
v -0.3 2.6 0.8
v -0.3 3 0.8
v -0.3 3.1 0.8
v -0.3 3.2 0.8
v -0.3 3.3 0.8
v -0.2 3 0.8
v -0.2 3.1 0.8
v -0.1 3 0.8
v -0.1 3.1 0.8
v -0.1 3.2 0.8
v 0.1 3 0.8
v 0.1 3.1 0.8
v 0.1 3.2 0.8
v 0.2 3 0.8
v 0.2 3.1 0.8
v 0.3 2.6 0.8
v 0.3 3 0.8
v 0.3 3.1 0.8
v 0.3 3.2 0.8
v 0.3 3.3 0.8
v 0.4 1.2 0.8
v 0.4 1.3 0.8
v 0.4 1.4 0.8
v 0.4 1.6 0.8
v 0.4 1.8 0.8
v 0.4 1.9 0.8
v 0.4 2.1 0.8
v 0.4 2.2 0.8
v 0.4 2.3 0.8
v 0.4 2.4 0.8
v 0.4 2.5 0.8
v 0.4 3.1 0.8
v 0.5 1.3 0.8
v 0.5 1.6 0.8
v 0.5 1.8 0.8
v 0.5 1.9 0.8
v 0.5 2.1 0.8
v 0.5 2.2 0.8
v -0.6 1.4 0.7
v -0.6 1.6 0.7
v -0.6 1.8 0.7
v -0.6 1.9 0.7
v -0.5 1.2 0.7
v -0.5 1.3 0.7
v -0.5 1.4 0.7
v -0.5 1.6 0.7
v -0.5 1.8 0.7
v -0.5 1.9 0.7
v -0.5 2.7 0.7
v -0.5 3 0.7
v -0.4 1.1 0.7
v -0.4 1.2 0.7
v -0.4 1.3 0.7
v -0.4 2.7 0.7
v -0.4 3 0.7
v -0.4 3.1 0.7
v -0.4 3.2 0.7
v -0.3 2.4 0.7
v -0.3 2.5 0.7
v -0.3 3.1 0.7
v -0.3 3.2 0.7
v -0.2 3.3 0.7
v -0.2 3.4 0.7
v 0.2 3.3 0.7
v 0.2 3.4 0.7
v 0.3 2.4 0.7
v 0.3 2.5 0.7
v 0.3 3.1 0.7
v 0.3 3.2 0.7
v 0.4 1.1 0.7
v 0.4 1.2 0.7
v 0.4 1.3 0.7
v 0.4 2.7 0.7
v 0.4 3 0.7
v 0.4 3.1 0.7
v 0.4 3.2 0.7
v 0.5 1.2 0.7
v 0.5 1.3 0.7
v 0.5 1.4 0.7
v 0.5 1.6 0.7
v 0.5 1.8 0.7
v 0.5 1.9 0.7
v 0.5 2.7 0.7
v 0.5 3 0.7
v 0.6 1.4 0.7
v 0.6 1.6 0.7
v 0.6 1.8 0.7
v 0.6 1.9 0.7
v -0.6 1.3 0.6
v -0.6 1.4 0.6
v -0.5 1.1 0.6
v -0.5 1.2 0.6
v -0.5 1.3 0.6
v -0.5 1.4 0.6
v -0.5 2.6 0.6
v -0.5 2.7 0.6
v -0.5 3 0.6
v -0.5 3.1 0.6
v -0.4 1 0.6
v -0.4 1.1 0.6
v -0.4 1.2 0.6
v -0.4 2.6 0.6
v -0.4 2.7 0.6
v -0.4 3 0.6
v -0.4 3.1 0.6
v -0.4 3.2 0.6
v -0.4 3.4 0.6
v -0.3 3.2 0.6
v -0.3 3.3 0.6
v -0.3 3.4 0.6
v -0.2 3.3 0.6
v -0.2 3.4 0.6
v 0.2 3.3 0.6
v 0.2 3.4 0.6
v 0.3 3.2 0.6
v 0.3 3.3 0.6
v 0.3 3.4 0.6
v 0.4 1 0.6
v 0.4 1.1 0.6
v 0.4 1.2 0.6
v 0.4 2.6 0.6
v 0.4 2.7 0.6
v 0.4 3 0.6
v 0.4 3.1 0.6
v 0.4 3.2 0.6
v 0.4 3.4 0.6
v 0.5 1.1 0.6
v 0.5 1.2 0.6
v 0.5 1.3 0.6
v 0.5 1.4 0.6
v 0.5 2.6 0.6
v 0.5 2.7 0.6
v 0.5 3 0.6
v 0.5 3.1 0.6
v 0.6 1.3 0.6
v 0.6 1.4 0.6
v -0.7 1.5 0.5
v -0.7 1.6 0.5
v -0.6 1.2 0.5
v -0.6 1.3 0.5
v -0.6 1.5 0.5
v -0.6 1.6 0.5
v -0.5 1 0.5
v -0.5 1.1 0.5
v -0.5 1.2 0.5
v -0.5 1.3 0.5
v -0.4 0.9 0.5
v -0.4 1 0.5
v -0.4 1.1 0.5
v -0.4 3.4 0.5
v -0.4 3.5 0.5
v -0.3 3.4 0.5
v -0.3 3.5 0.5
v 0.3 3.4 0.5
v 0.3 3.5 0.5
v 0.4 0.9 0.5
v 0.4 1 0.5
v 0.4 1.1 0.5
v 0.4 3.4 0.5
v 0.4 3.5 0.5
v 0.5 1 0.5
v 0.5 1.1 0.5
v 0.5 1.2 0.5
v 0.5 1.3 0.5
v 0.6 1.2 0.5
v 0.6 1.3 0.5
v -0.7 1.4 0.4
v -0.7 1.5 0.4
v -0.6 1.1 0.4
v -0.6 1.2 0.4
v -0.6 1.4 0.4
v -0.6 1.5 0.4
v -0.5 0.9 0.4
v -0.5 1 0.4
v -0.5 1.1 0.4
v -0.5 1.2 0.4
v -0.4 0.8 0.4
v -0.4 0.9 0.4
v -0.4 1 0.4
v 0.4 0.8 0.4
v 0.4 0.9 0.4
v 0.4 1 0.4
v 0.5 0.9 0.4
v 0.5 1 0.4
v 0.5 1.1 0.4
v 0.5 1.2 0.4
v 0.6 1.1 0.4
v 0.6 1.2 0.4
v 0.6 1.4 0.4
v 0.6 1.5 0.4
v 0.7 1.4 0.4
v 0.7 1.5 0.4
v -0.7 1.3 0.3
v -0.7 1.4 0.3
v -0.6 1 0.3
v -0.6 1.1 0.3
v -0.6 1.3 0.3
v -0.6 1.4 0.3
v -0.5 0.8 0.3
v -0.5 0.9 0.3
v -0.5 1 0.3
v -0.5 1.1 0.3
v -0.4 0.7 0.3
v -0.4 0.8 0.3
v -0.4 0.9 0.3
v 0.4 0.7 0.3
v 0.4 0.8 0.3
v 0.4 0.9 0.3
v 0.5 0.8 0.3
v 0.5 0.9 0.3
v 0.5 1 0.3
v 0.5 1.1 0.3
v 0.6 1 0.3
v 0.6 1.1 0.3
v 0.6 1.3 0.3
v 0.6 1.4 0.3
v 0.7 1.3 0.3
v 0.7 1.4 0.3
v -0.7 1.2 0.2
v -0.7 1.3 0.2
v -0.6 0.9 0.2
v -0.6 1 0.2
v -0.6 1.2 0.2
v -0.6 1.3 0.2
v -0.5 0.7 0.2
v -0.5 0.8 0.2
v -0.5 0.9 0.2
v -0.5 1 0.2
v -0.4 0.6 0.2
v -0.4 0.7 0.2
v -0.4 0.8 0.2
v -0.2 2.7 0.2
v -0.2 3 0.2
v 0.2 2.7 0.2
v 0.2 3 0.2
v 0.4 0.6 0.2
v 0.4 0.7 0.2
v 0.4 0.8 0.2
v 0.5 0.7 0.2
v 0.5 0.8 0.2
v 0.5 0.9 0.2
v 0.5 1 0.2
v 0.6 0.9 0.2
v 0.6 1 0.2
v 0.6 1.2 0.2
v 0.6 1.3 0.2
v 0.7 1.2 0.2
v 0.7 1.3 0.2
v -0.7 1.1 0.0999999
v -0.7 1.2 0.0999999
v -0.6 0.8 0.0999999
v -0.6 0.9 0.0999999
v -0.6 1.1 0.0999999
v -0.6 1.2 0.0999999
v -0.5 0.6 0.0999999
v -0.5 0.7 0.0999999
v -0.5 0.8 0.0999999
v -0.5 0.9 0.0999999
v -0.4 0.5 0.0999999
v -0.4 0.6 0.0999999
v -0.4 0.7 0.0999999
v 0.4 0.5 0.0999999
v 0.4 0.6 0.0999999
v 0.4 0.7 0.0999999
v 0.5 0.6 0.0999999
v 0.5 0.7 0.0999999
v 0.5 0.8 0.0999999
v 0.5 0.9 0.0999999
v 0.6 0.8 0.0999999
v 0.6 0.9 0.0999999
v 0.6 1.1 0.0999999
v 0.6 1.2 0.0999999
v 0.7 1.1 0.0999999
v 0.7 1.2 0.0999999
v -0.7 1 -1.19209e-07
v -0.7 1.1 -1.19209e-07
v -0.6 0.7 -1.19209e-07
v -0.6 0.8 -1.19209e-07
v -0.6 1 -1.19209e-07
v -0.6 1.1 -1.19209e-07
v -0.5 0.5 -1.19209e-07
v -0.5 0.6 -1.19209e-07
v -0.5 0.7 -1.19209e-07
v -0.5 0.8 -1.19209e-07
v -0.4 0.5 -1.19209e-07
v -0.4 0.6 -1.19209e-07
v 0.4 0.5 -1.19209e-07
v 0.4 0.6 -1.19209e-07
v 0.5 0.5 -1.19209e-07
v 0.5 0.6 -1.19209e-07
v 0.5 0.7 -1.19209e-07
v 0.5 0.8 -1.19209e-07
v 0.6 0.7 -1.19209e-07
v 0.6 0.8 -1.19209e-07
v 0.6 1 -1.19209e-07
v 0.6 1.1 -1.19209e-07
v 0.7 1 -1.19209e-07
v 0.7 1.1 -1.19209e-07
v -0.7 0.9 -0.1
v -0.7 1 -0.1
v -0.6 0.6 -0.1
v -0.6 0.7 -0.1
v -0.6 0.9 -0.1
v -0.6 1 -0.1
v -0.5 0.6 -0.1
v -0.5 0.7 -0.1
v 0.5 0.6 -0.1
v 0.5 0.7 -0.1
v 0.6 0.6 -0.1
v 0.6 0.7 -0.1
v 0.6 0.9 -0.1
v 0.6 1 -0.1
v 0.7 0.9 -0.1
v 0.7 1 -0.1
v -0.7 0.8 -0.2
v -0.7 0.9 -0.2
v -0.6 0.8 -0.2
v -0.6 0.9 -0.2
v 0.6 0.8 -0.2
v 0.6 0.9 -0.2
v 0.7 0.8 -0.2
v 0.7 0.9 -0.2
v -0.3 1.5 -1
v -0.3 2 -1
v 0.3 1.5 -1
v 0.3 2 -1
v -0.2 2 -1.1
v -0.2 2.1 -1.1
v 0.2 2 -1.1
v 0.2 2.1 -1.1
v -0.5 3 0.4
v -0.5 3.1 0.4
v -0.4 3 0.4
v -0.4 3.1 0.4
v 0.4 3 0.4
v 0.4 3.1 0.4
v 0.5 3 0.4
v 0.5 3.1 0.4
v -0.5 2.6 0.3
v -0.5 2.7 0.3
v -0.5 2.9 0.3
v -0.5 3 0.3
v -0.4 2.6 0.3
v -0.4 2.7 0.3
v -0.4 2.9 0.3
v -0.4 3 0.3
v -0.4 3.1 0.3
v -0.4 3.2 0.3
v -0.4 3.5 0.3
v -0.3 3.1 0.3
v -0.3 3.2 0.3
v -0.3 3.4 0.3
v -0.3 3.5 0.3
v -0.2 2.7 0.3
v -0.2 3 0.3
v -0.2 3.2 0.3
v -0.2 3.4 0.3
v 0.2 2.7 0.3
v 0.2 3 0.3
v 0.2 3.2 0.3
v 0.2 3.4 0.3
v 0.3 3.1 0.3
v 0.3 3.2 0.3
v 0.3 3.4 0.3
v 0.3 3.5 0.3
v 0.4 2.6 0.3
v 0.4 2.7 0.3
v 0.4 2.9 0.3
v 0.4 3 0.3
v 0.4 3.1 0.3
v 0.4 3.2 0.3
v 0.4 3.5 0.3
v 0.5 2.6 0.3
v 0.5 2.7 0.3
v 0.5 2.9 0.3
v 0.5 3 0.3
v -0.5 2.7 0.2
v -0.5 2.9 0.2
v -0.4 2.7 0.2
v -0.4 2.9 0.2
v -0.4 3 0.2
v -0.4 3.1 0.2
v -0.3 2.4 0.2
v -0.3 2.5 0.2
v -0.3 3 0.2
v -0.3 3.1 0.2
v -0.3 3.2 0.2
v -0.2 2.4 0.2
v -0.2 2.5 0.2
v -0.2 3.1 0.2
v -0.2 3.2 0.2
v -0.2 3.4 0.2
v 0.2 2.4 0.2
v 0.2 2.5 0.2
v 0.2 3.1 0.2
v 0.2 3.2 0.2
v 0.2 3.4 0.2
v 0.3 2.4 0.2
v 0.3 2.5 0.2
v 0.3 3 0.2
v 0.3 3.1 0.2
v 0.3 3.2 0.2
v 0.4 2.7 0.2
v 0.4 2.9 0.2
v 0.4 3 0.2
v 0.4 3.1 0.2
v 0.5 2.7 0.2
v 0.5 2.9 0.2
v -0.5 2 0.0999999
v -0.5 2.1 0.0999999
v -0.5 2.2 0.0999999
v -0.5 2.3 0.0999999
v -0.4 2 0.0999999
v -0.4 2.1 0.0999999
v -0.4 2.2 0.0999999
v -0.4 2.3 0.0999999
v -0.4 2.4 0.0999999
v -0.4 2.5 0.0999999
v -0.4 2.6 0.0999999
v -0.4 3 0.0999999
v -0.3 3 0.0999999
v -0.3 3.1 0.0999999
v -0.2 2.2 0.0999999
v -0.2 2.4 0.0999999
v -0.2 2.5 0.0999999
v -0.2 2.6 0.0999999
v -0.2 3.1 0.0999999
v -0.2 3.2 0.0999999
v 0.2 2.2 0.0999999
v 0.2 2.4 0.0999999
v 0.2 2.5 0.0999999
v 0.2 2.6 0.0999999
v 0.2 3.1 0.0999999
v 0.2 3.2 0.0999999
v 0.3 3 0.0999999
v 0.3 3.1 0.0999999
v 0.4 2 0.0999999
v 0.4 2.1 0.0999999
v 0.4 2.2 0.0999999
v 0.4 2.4 0.0999999
v 0.4 2.5 0.0999999
v 0.4 2.6 0.0999999
v 0.4 3 0.0999999
v 0.5 2 0.0999999
v 0.5 2.1 0.0999999
v 0.5 2.2 0.0999999
v -0.7 1.5 -1.19209e-07
v -0.7 1.6 -1.19209e-07
v -0.6 1.5 -1.19209e-07
v -0.6 1.6 -1.19209e-07
v -0.6 1.8 -1.19209e-07
v -0.6 1.9 -1.19209e-07
v -0.5 1.8 -1.19209e-07
v -0.5 1.9 -1.19209e-07
v -0.2 2.2 -1.19209e-07
v -0.2 2.4 -1.19209e-07
v 0.2 2.2 -1.19209e-07
v 0.2 2.4 -1.19209e-07
v 0.5 1.8 -1.19209e-07
v 0.5 1.9 -1.19209e-07
v 0.6 1.8 -1.19209e-07
v 0.6 1.9 -1.19209e-07
v -0.7 1.4 -0.1
v -0.7 1.5 -0.1
v -0.6 1.4 -0.1
v -0.6 1.5 -0.1
v -0.6 1.7 -0.1
v -0.6 1.8 -0.1
v -0.5 0.5 -0.1
v -0.5 0.6 -0.1
v -0.5 1.7 -0.1
v -0.5 1.8 -0.1
v -0.5 1.9 -0.1
v -0.5 2 -0.1
v -0.4 0.5 -0.1
v -0.4 0.6 -0.1
v -0.4 1.9 -0.1
v -0.4 2 -0.1
v -0.4 2.1 -0.1
v -0.4 2.2 -0.1
v -0.2 2 -0.1
v -0.2 2.1 -0.1
v -0.2 2.2 -0.1
v 0.2 2 -0.1
v 0.2 2.1 -0.1
v 0.2 2.2 -0.1
v 0.4 0.5 -0.1
v 0.4 0.6 -0.1
v 0.4 1.9 -0.1
v 0.4 2 -0.1
v 0.4 2.1 -0.1
v 0.4 2.2 -0.1
v 0.5 0.5 -0.1
v 0.5 0.6 -0.1
v 0.5 1.7 -0.1
v 0.5 1.8 -0.1
v 0.5 1.9 -0.1
v 0.5 2 -0.1
v 0.6 1.4 -0.1
v 0.6 1.5 -0.1
v 0.6 1.7 -0.1
v 0.6 1.8 -0.1
v 0.7 1.4 -0.1
v 0.7 1.5 -0.1
v -0.7 1.3 -0.2
v -0.7 1.4 -0.2
v -0.6 0.6 -0.2
v -0.6 0.7 -0.2
v -0.6 1.3 -0.2
v -0.6 1.4 -0.2
v -0.6 1.6 -0.2
v -0.6 1.7 -0.2
v -0.5 0.6 -0.2
v -0.5 0.7 -0.2
v -0.5 1.6 -0.2
v -0.5 1.7 -0.2
v -0.5 1.8 -0.2
v -0.5 1.9 -0.2
v -0.4 1.8 -0.2
v -0.4 1.9 -0.2
v -0.4 2 -0.2
v -0.2 1.9 -0.2
v -0.2 2 -0.2
v 0.2 1.9 -0.2
v 0.2 2 -0.2
v 0.4 1.8 -0.2
v 0.4 1.9 -0.2
v 0.4 2 -0.2
v 0.5 0.6 -0.2
v 0.5 0.7 -0.2
v 0.5 1.6 -0.2
v 0.5 1.7 -0.2
v 0.5 1.8 -0.2
v 0.5 1.9 -0.2
v 0.6 0.6 -0.2
v 0.6 0.7 -0.2
v 0.6 1.3 -0.2
v 0.6 1.4 -0.2
v 0.6 1.6 -0.2
v 0.6 1.7 -0.2
v 0.7 1.3 -0.2
v 0.7 1.4 -0.2
v -0.7 1.2 -0.3
v -0.7 1.3 -0.3
v -0.6 0.7 -0.3
v -0.6 0.8 -0.3
v -0.6 1.2 -0.3
v -0.6 1.3 -0.3
v -0.6 1.5 -0.3
v -0.6 1.6 -0.3
v -0.5 0.7 -0.3
v -0.5 0.8 -0.3
v -0.5 1.5 -0.3
v -0.5 1.6 -0.3
v -0.5 1.7 -0.3
v -0.5 1.8 -0.3
v -0.4 1.7 -0.3
v -0.4 1.8 -0.3
v -0.4 1.9 -0.3
v -0.2 1.8 -0.3
v -0.2 1.9 -0.3
v 0.2 1.8 -0.3
v 0.2 1.9 -0.3
v 0.4 1.7 -0.3
v 0.4 1.8 -0.3
v 0.4 1.9 -0.3
v 0.5 0.7 -0.3
v 0.5 0.8 -0.3
v 0.5 1.5 -0.3
v 0.5 1.6 -0.3
v 0.5 1.7 -0.3
v 0.5 1.8 -0.3
v 0.6 0.7 -0.3
v 0.6 0.8 -0.3
v 0.6 1.2 -0.3
v 0.6 1.3 -0.3
v 0.6 1.5 -0.3
v 0.6 1.6 -0.3
v 0.7 1.2 -0.3
v 0.7 1.3 -0.3
v -0.7 0.8 -0.4
v -0.7 0.9 -0.4
v -0.7 1.1 -0.4
v -0.7 1.2 -0.4
v -0.6 1.1 -0.4
v -0.6 1.2 -0.4
v -0.6 1.4 -0.4
v -0.6 1.5 -0.4
v -0.5 0.8 -0.4
v -0.5 0.9 -0.4
v -0.5 1.4 -0.4
v -0.5 1.5 -0.4
v -0.5 1.6 -0.4
v -0.5 1.7 -0.4
v -0.4 0.5 -0.4
v -0.4 0.6 -0.4
v -0.4 1.6 -0.4
v -0.4 1.7 -0.4
v -0.4 1.8 -0.4
v -0.2 1.7 -0.4
v -0.2 1.8 -0.4
v 0.2 1.7 -0.4
v 0.2 1.8 -0.4
v 0.4 0.5 -0.4
v 0.4 0.6 -0.4
v 0.4 1.6 -0.4
v 0.4 1.7 -0.4
v 0.4 1.8 -0.4
v 0.5 0.8 -0.4
v 0.5 0.9 -0.4
v 0.5 1.4 -0.4
v 0.5 1.5 -0.4
v 0.5 1.6 -0.4
v 0.5 1.7 -0.4
v 0.6 1.1 -0.4
v 0.6 1.2 -0.4
v 0.6 1.4 -0.4
v 0.6 1.5 -0.4
v 0.7 0.8 -0.4
v 0.7 0.9 -0.4
v 0.7 1.1 -0.4
v 0.7 1.2 -0.4
v -0.7 0.9 -0.5
v -0.7 1.1 -0.5
v -0.6 1 -0.5
v -0.6 1.1 -0.5
v -0.6 1.3 -0.5
v -0.6 1.4 -0.5
v -0.5 0.6 -0.5
v -0.5 0.7 -0.5
v -0.5 0.9 -0.5
v -0.5 1 -0.5
v -0.5 1.3 -0.5
v -0.5 1.4 -0.5
v -0.5 1.5 -0.5
v -0.5 1.6 -0.5
v -0.4 1.5 -0.5
v -0.4 1.6 -0.5
v -0.4 1.7 -0.5
v -0.2 1.6 -0.5
v -0.2 1.7 -0.5
v 0.2 1.6 -0.5
v 0.2 1.7 -0.5
v 0.4 1.5 -0.5
v 0.4 1.6 -0.5
v 0.4 1.7 -0.5
v 0.5 0.6 -0.5
v 0.5 0.7 -0.5
v 0.5 0.9 -0.5
v 0.5 1 -0.5
v 0.5 1.3 -0.5
v 0.5 1.4 -0.5
v 0.5 1.5 -0.5
v 0.5 1.6 -0.5
v 0.6 1 -0.5
v 0.6 1.1 -0.5
v 0.6 1.3 -0.5
v 0.6 1.4 -0.5
v 0.7 0.9 -0.5
v 0.7 1.1 -0.5
v -0.6 1 -0.6
v -0.6 1.1 -0.6
v -0.6 1.2 -0.6
v -0.6 1.3 -0.6
v -0.5 0.7 -0.6
v -0.5 0.8 -0.6
v -0.5 1 -0.6
v -0.5 1.1 -0.6
v -0.5 1.2 -0.6
v -0.5 1.3 -0.6
v -0.5 1.4 -0.6
v -0.5 1.5 -0.6
v -0.4 1.4 -0.6
v -0.4 1.5 -0.6
v 0.4 1.4 -0.6
v 0.4 1.5 -0.6
v 0.5 0.7 -0.6
v 0.5 0.8 -0.6
v 0.5 1 -0.6
v 0.5 1.1 -0.6
v 0.5 1.2 -0.6
v 0.5 1.3 -0.6
v 0.5 1.4 -0.6
v 0.5 1.5 -0.6
v 0.6 1 -0.6
v 0.6 1.1 -0.6
v 0.6 1.2 -0.6
v 0.6 1.3 -0.6
v -0.6 1.1 -0.7
v -0.6 1.2 -0.7
v -0.5 0.8 -0.7
v -0.5 1.1 -0.7
v -0.5 1.2 -0.7
v -0.5 1.3 -0.7
v -0.5 1.4 -0.7
v -0.4 0.9 -0.7
v -0.4 1.1 -0.7
v -0.4 1.3 -0.7
v -0.4 1.4 -0.7
v -0.4 1.5 -0.7
v -0.4 1.6 -0.7
v -0.3 0.8 -0.7
v -0.3 0.9 -0.7
v -0.3 1.5 -0.7
v -0.3 1.6 -0.7
v 0.3 0.8 -0.7
v 0.3 0.9 -0.7
v 0.3 1.5 -0.7
v 0.3 1.6 -0.7
v 0.4 0.9 -0.7
v 0.4 1.1 -0.7
v 0.4 1.3 -0.7
v 0.4 1.4 -0.7
v 0.4 1.5 -0.7
v 0.4 1.6 -0.7
v 0.5 0.8 -0.7
v 0.5 1.1 -0.7
v 0.5 1.2 -0.7
v 0.5 1.3 -0.7
v 0.5 1.4 -0.7
v 0.6 1.1 -0.7
v 0.6 1.2 -0.7
v -0.5 1.1 -0.9
v -0.5 1.3 -0.9
v -0.4 0.9 -0.9
v -0.4 1 -0.9
v -0.4 1.1 -0.9
v -0.4 1.3 -0.9
v -0.4 1.4 -0.9
v -0.4 1.5 -0.9
v -0.3 0.8 -0.9
v -0.3 0.9 -0.9
v -0.3 1 -0.9
v -0.3 1.4 -0.9
v -0.3 1.5 -0.9
v -0.3 1.6 -0.9
v 0.3 0.8 -0.9
v 0.3 0.9 -0.9
v 0.3 1 -0.9
v 0.3 1.4 -0.9
v 0.3 1.5 -0.9
v 0.3 1.6 -0.9
v 0.4 0.9 -0.9
v 0.4 1 -0.9
v 0.4 1.1 -0.9
v 0.4 1.3 -0.9
v 0.4 1.4 -0.9
v 0.4 1.5 -0.9
v 0.5 1.1 -0.9
v 0.5 1.3 -0.9
v -0.4 1 -1
v -0.4 1.4 -1
v -0.3 0.9 -1
v -0.3 1 -1
v -0.3 1.4 -1
v 0.3 0.9 -1
v 0.3 1 -1
v 0.3 1.4 -1
v 0.4 1 -1
v 0.4 1.4 -1
v -0.3 1 -1.1
v -0.3 1.1 -1.1
v -0.2 1 -1.1
v -0.2 1.1 -1.1
v 0.2 1 -1.1
v 0.2 1.1 -1.1
v 0.3 1 -1.1
v 0.3 1.1 -1.1
v -0.2 1 -1.2
v -0.2 1.1 -1.2
v 0.2 1 -1.2
v 0.2 1.1 -1.2
v -0.3 1.1 -1.3
v -0.3 1.2 -1.3
v 0.3 1.1 -1.3
v 0.3 1.2 -1.3
v -0.2 2 -1.4
v -0.2 2.1 -1.4
v 0.2 2 -1.4
v 0.2 2.1 -1.4
v -0.3 1.2 -1.5
v -0.3 2 -1.5
v 0.3 1.2 -1.5
v 0.3 2 -1.5
v -0.4 0.5 0.0999999
v 0.4 0.5 0.0999999
v -0.5 0.5 -1.19209e-07
v -0.4 0.5 -1.19209e-07
v 0.4 0.5 -1.19209e-07
v 0.5 0.5 -1.19209e-07
v -0.5 0.5 -0.1
v -0.4 0.5 -0.1
v 0.4 0.5 -0.1
v 0.5 0.5 -0.1
v -0.4 0.5 -0.4
v 0.4 0.5 -0.4
v -0.4 0.6 0.2
v 0.4 0.6 0.2
v -0.5 0.6 0.0999999
v -0.4 0.6 0.0999999
v 0.4 0.6 0.0999999
v 0.5 0.6 0.0999999
v -0.5 0.6 -1.19209e-07
v -0.4 0.6 -1.19209e-07
v 0.4 0.6 -1.19209e-07
v 0.5 0.6 -1.19209e-07
v -0.6 0.6 -0.1
v -0.5 0.6 -0.1
v -0.4 0.6 -0.1
v 0.4 0.6 -0.1
v 0.5 0.6 -0.1
v 0.6 0.6 -0.1
v -0.6 0.6 -0.2
v -0.5 0.6 -0.2
v 0.5 0.6 -0.2
v 0.6 0.6 -0.2
v -0.4 0.6 -0.4
v 0.4 0.6 -0.4
v -0.5 0.6 -0.5
v 0.5 0.6 -0.5
v -0.4 0.7 0.3
v 0.4 0.7 0.3
v -0.5 0.7 0.2
v -0.4 0.7 0.2
v 0.4 0.7 0.2
v 0.5 0.7 0.2
v -0.5 0.7 0.0999999
v -0.4 0.7 0.0999999
v 0.4 0.7 0.0999999
v 0.5 0.7 0.0999999
v -0.6 0.7 -1.19209e-07
v -0.5 0.7 -1.19209e-07
v 0.5 0.7 -1.19209e-07
v 0.6 0.7 -1.19209e-07
v -0.6 0.7 -0.1
v -0.5 0.7 -0.1
v 0.5 0.7 -0.1
v 0.6 0.7 -0.1
v -0.6 0.7 -0.2
v -0.5 0.7 -0.2
v 0.5 0.7 -0.2
v 0.6 0.7 -0.2
v -0.6 0.7 -0.3
v -0.5 0.7 -0.3
v 0.5 0.7 -0.3
v 0.6 0.7 -0.3
v -0.5 0.7 -0.5
v 0.5 0.7 -0.5
v -0.5 0.7 -0.6
v 0.5 0.7 -0.6
v -0.4 0.8 0.4
v 0.4 0.8 0.4
v -0.5 0.8 0.3
v -0.4 0.8 0.3
v 0.4 0.8 0.3
v 0.5 0.8 0.3
v -0.5 0.8 0.2
v -0.4 0.8 0.2
v 0.4 0.8 0.2
v 0.5 0.8 0.2
v -0.6 0.8 0.0999999
v -0.5 0.8 0.0999999
v 0.5 0.8 0.0999999
v 0.6 0.8 0.0999999
v -0.6 0.8 -1.19209e-07
v -0.5 0.8 -1.19209e-07
v 0.5 0.8 -1.19209e-07
v 0.6 0.8 -1.19209e-07
v -0.7 0.8 -0.2
v -0.6 0.8 -0.2
v 0.6 0.8 -0.2
v 0.7 0.8 -0.2
v -0.6 0.8 -0.3
v -0.5 0.8 -0.3
v 0.5 0.8 -0.3
v 0.6 0.8 -0.3
v -0.7 0.8 -0.4
v -0.5 0.8 -0.4
v 0.5 0.8 -0.4
v 0.7 0.8 -0.4
v -0.5 0.8 -0.6
v 0.5 0.8 -0.6
v -0.5 0.8 -0.7
v -0.3 0.8 -0.7
v 0.3 0.8 -0.7
v 0.5 0.8 -0.7
v -0.3 0.8 -0.8
v 0.3 0.8 -0.8
v -0.3 0.8 -0.9
v 0.3 0.8 -0.9
v -0.4 0.9 0.5
v 0.4 0.9 0.5
v -0.5 0.9 0.4
v -0.4 0.9 0.4
v 0.4 0.9 0.4
v 0.5 0.9 0.4
v -0.5 0.9 0.3
v -0.4 0.9 0.3
v 0.4 0.9 0.3
v 0.5 0.9 0.3
v -0.6 0.9 0.2
v -0.5 0.9 0.2
v 0.5 0.9 0.2
v 0.6 0.9 0.2
v -0.6 0.9 0.0999999
v -0.5 0.9 0.0999999
v 0.5 0.9 0.0999999
v 0.6 0.9 0.0999999
v -0.7 0.9 -0.1
v -0.6 0.9 -0.1
v 0.6 0.9 -0.1
v 0.7 0.9 -0.1
v -0.7 0.9 -0.2
v -0.6 0.9 -0.2
v 0.6 0.9 -0.2
v 0.7 0.9 -0.2
v -0.7 0.9 -0.4
v -0.5 0.9 -0.4
v 0.5 0.9 -0.4
v 0.7 0.9 -0.4
v -0.7 0.9 -0.5
v -0.5 0.9 -0.5
v 0.5 0.9 -0.5
v 0.7 0.9 -0.5
v -0.4 0.9 -0.7
v -0.3 0.9 -0.7
v 0.3 0.9 -0.7
v 0.4 0.9 -0.7
v -0.4 0.9 -0.8
v -0.3 0.9 -0.8
v 0.3 0.9 -0.8
v 0.4 0.9 -0.8
v -0.4 0.9 -0.9
v -0.3 0.9 -0.9
v 0.3 0.9 -0.9
v 0.4 0.9 -0.9
v -0.3 0.9 -1
v 0.3 0.9 -1
v -0.4 1 0.6
v 0.4 1 0.6
v -0.5 1 0.5
v -0.4 1 0.5
v 0.4 1 0.5
v 0.5 1 0.5
v -0.5 1 0.4
v -0.4 1 0.4
v 0.4 1 0.4
v 0.5 1 0.4
v -0.6 1 0.3
v -0.5 1 0.3
v 0.5 1 0.3
v 0.6 1 0.3
v -0.6 1 0.2
v -0.5 1 0.2
v 0.5 1 0.2
v 0.6 1 0.2
v -0.7 1 -1.19209e-07
v -0.6 1 -1.19209e-07
v 0.6 1 -1.19209e-07
v 0.7 1 -1.19209e-07
v -0.7 1 -0.1
v -0.6 1 -0.1
v 0.6 1 -0.1
v 0.7 1 -0.1
v -0.6 1 -0.5
v -0.5 1 -0.5
v 0.5 1 -0.5
v 0.6 1 -0.5
v -0.6 1 -0.6
v -0.5 1 -0.6
v 0.5 1 -0.6
v 0.6 1 -0.6
v -0.4 1 -0.9
v -0.3 1 -0.9
v 0.3 1 -0.9
v 0.4 1 -0.9
v -0.4 1 -1
v -0.3 1 -1
v 0.3 1 -1
v 0.4 1 -1
v -0.3 1 -1.1
v -0.2 1 -1.1
v 0.2 1 -1.1
v 0.3 1 -1.1
v -0.2 1 -1.2
v 0.2 1 -1.2
v -0.4 1.1 0.7
v 0.4 1.1 0.7
v -0.5 1.1 0.6
v -0.4 1.1 0.6
v 0.4 1.1 0.6
v 0.5 1.1 0.6
v -0.5 1.1 0.5
v -0.4 1.1 0.5
v 0.4 1.1 0.5
v 0.5 1.1 0.5
v -0.6 1.1 0.4
v -0.5 1.1 0.4
v 0.5 1.1 0.4
v 0.6 1.1 0.4
v -0.6 1.1 0.3
v -0.5 1.1 0.3
v 0.5 1.1 0.3
v 0.6 1.1 0.3
v -0.7 1.1 0.0999999
v -0.6 1.1 0.0999999
v 0.6 1.1 0.0999999
v 0.7 1.1 0.0999999
v -0.7 1.1 -1.19209e-07
v -0.6 1.1 -1.19209e-07
v 0.6 1.1 -1.19209e-07
v 0.7 1.1 -1.19209e-07
v -0.6 1.1 -0.6
v -0.5 1.1 -0.6
v 0.5 1.1 -0.6
v 0.6 1.1 -0.6
v -0.6 1.1 -0.7
v -0.5 1.1 -0.7
v -0.4 1.1 -0.7
v 0.4 1.1 -0.7
v 0.5 1.1 -0.7
v 0.6 1.1 -0.7
v -0.5 1.1 -0.8
v -0.4 1.1 -0.8
v 0.4 1.1 -0.8
v 0.5 1.1 -0.8
v -0.5 1.1 -0.9
v -0.4 1.1 -0.9
v 0.4 1.1 -0.9
v 0.5 1.1 -0.9
v -0.3 1.1 -1.1
v -0.2 1.1 -1.1
v 0.2 1.1 -1.1
v 0.3 1.1 -1.1
v -0.2 1.1 -1.2
v 0.2 1.1 -1.2
v -0.3 1.1 -1.3
v 0.3 1.1 -1.3
v -0.4 1.2 0.8
v 0.4 1.2 0.8
v -0.5 1.2 0.7
v -0.4 1.2 0.7
v 0.4 1.2 0.7
v 0.5 1.2 0.7
v -0.5 1.2 0.6
v -0.4 1.2 0.6
v 0.4 1.2 0.6
v 0.5 1.2 0.6
v -0.6 1.2 0.5
v -0.5 1.2 0.5
v 0.5 1.2 0.5
v 0.6 1.2 0.5
v -0.6 1.2 0.4
v -0.5 1.2 0.4
v 0.5 1.2 0.4
v 0.6 1.2 0.4
v -0.7 1.2 0.2
v -0.6 1.2 0.2
v 0.6 1.2 0.2
v 0.7 1.2 0.2
v -0.7 1.2 0.0999999
v -0.6 1.2 0.0999999
v 0.6 1.2 0.0999999
v 0.7 1.2 0.0999999
v -0.3 1.2 -1.3
v 0.3 1.2 -1.3
v -0.3 1.2 -1.5
v 0.3 1.2 -1.5
v -0.5 1.3 0.8
v -0.4 1.3 0.8
v 0.4 1.3 0.8
v 0.5 1.3 0.8
v -0.5 1.3 0.7
v -0.4 1.3 0.7
v 0.4 1.3 0.7
v 0.5 1.3 0.7
v -0.6 1.3 0.6
v -0.5 1.3 0.6
v 0.5 1.3 0.6
v 0.6 1.3 0.6
v -0.6 1.3 0.5
v -0.5 1.3 0.5
v 0.5 1.3 0.5
v 0.6 1.3 0.5
v -0.7 1.3 0.3
v -0.6 1.3 0.3
v 0.6 1.3 0.3
v 0.7 1.3 0.3
v -0.7 1.3 0.2
v -0.6 1.3 0.2
v 0.6 1.3 0.2
v 0.7 1.3 0.2
v -0.4 1.4 0.9
v 0.4 1.4 0.9
v -0.4 1.4 0.8
v 0.4 1.4 0.8
v -0.6 1.4 0.7
v -0.5 1.4 0.7
v 0.5 1.4 0.7
v 0.6 1.4 0.7
v -0.6 1.4 0.6
v -0.5 1.4 0.6
v 0.5 1.4 0.6
v 0.6 1.4 0.6
v -0.7 1.4 0.4
v -0.6 1.4 0.4
v 0.6 1.4 0.4
v 0.7 1.4 0.4
v -0.7 1.4 0.3
v -0.6 1.4 0.3
v 0.6 1.4 0.3
v 0.7 1.4 0.3
v -0.7 1.5 0.5
v -0.6 1.5 0.5
v -0.7 1.5 0.4
v -0.6 1.5 0.4
v -0.4 2.5 0.8
v 0.4 2.5 0.8
v -0.3 2.5 0.7
v 0.3 2.5 0.7
v -0.4 2.5 0.2
v -0.3 2.5 0.2
v -0.2 2.5 0.2
v 0.2 2.5 0.2
v 0.3 2.5 0.2
v 0.4 2.5 0.2
v -0.4 2.5 0.0999999
v -0.2 2.5 0.0999999
v 0.2 2.5 0.0999999
v 0.4 2.5 0.0999999
v -0.3 2.6 0.9
v 0.3 2.6 0.9
v -0.3 2.6 0.8
v 0.3 2.6 0.8
v -0.5 2.6 0.6
v -0.4 2.6 0.6
v 0.4 2.6 0.6
v 0.5 2.6 0.6
v -0.5 2.6 0.3
v -0.4 2.6 0.3
v 0.4 2.6 0.3
v 0.5 2.6 0.3
v -0.2 2.7 1.1
v 0.2 2.7 1.1
v -0.3 2.7 1
v -0.2 2.7 1
v 0.2 2.7 1
v 0.3 2.7 1
v -0.3 2.7 0.9
v 0.3 2.7 0.9
v -0.5 2.7 0.7
v -0.4 2.7 0.7
v 0.4 2.7 0.7
v 0.5 2.7 0.7
v -0.5 2.7 0.6
v -0.4 2.7 0.6
v 0.4 2.7 0.6
v 0.5 2.7 0.6
v -0.5 2.7 0.3
v -0.4 2.7 0.3
v 0.4 2.7 0.3
v 0.5 2.7 0.3
v -0.5 2.7 0.2
v -0.4 2.7 0.2
v 0.4 2.7 0.2
v 0.5 2.7 0.2
v -0.1 2.8 1.2
v 0.1 2.8 1.2
v -0.1 2.8 1.1
v 0.1 2.8 1.1
v -0.2 3 0.3
v 0.2 3 0.3
v -0.2 3 0.2
v 0.2 3 0.2
v -0.7 1.1 -0.4
v -0.6 1.1 -0.4
v 0.6 1.1 -0.4
v 0.7 1.1 -0.4
v -0.7 1.1 -0.5
v -0.6 1.1 -0.5
v 0.6 1.1 -0.5
v 0.7 1.1 -0.5
v -0.7 1.2 -0.3
v -0.6 1.2 -0.3
v 0.6 1.2 -0.3
v 0.7 1.2 -0.3
v -0.7 1.2 -0.4
v -0.6 1.2 -0.4
v 0.6 1.2 -0.4
v 0.7 1.2 -0.4
v -0.6 1.2 -0.6
v -0.5 1.2 -0.6
v 0.5 1.2 -0.6
v 0.6 1.2 -0.6
v -0.6 1.2 -0.7
v -0.5 1.2 -0.7
v 0.5 1.2 -0.7
v 0.6 1.2 -0.7
v -0.7 1.3 -0.2
v -0.6 1.3 -0.2
v 0.6 1.3 -0.2
v 0.7 1.3 -0.2
v -0.7 1.3 -0.3
v -0.6 1.3 -0.3
v 0.6 1.3 -0.3
v 0.7 1.3 -0.3
v -0.6 1.3 -0.5
v -0.5 1.3 -0.5
v 0.5 1.3 -0.5
v 0.6 1.3 -0.5
v -0.6 1.3 -0.6
v -0.5 1.3 -0.6
v 0.5 1.3 -0.6
v 0.6 1.3 -0.6
v -0.5 1.3 -0.7
v -0.4 1.3 -0.7
v 0.4 1.3 -0.7
v 0.5 1.3 -0.7
v -0.5 1.3 -0.8
v -0.4 1.3 -0.8
v 0.4 1.3 -0.8
v 0.5 1.3 -0.8
v -0.5 1.3 -0.9
v -0.4 1.3 -0.9
v 0.4 1.3 -0.9
v 0.5 1.3 -0.9
v -0.7 1.4 -0.1
v -0.6 1.4 -0.1
v 0.6 1.4 -0.1
v 0.7 1.4 -0.1
v -0.7 1.4 -0.2
v -0.6 1.4 -0.2
v 0.6 1.4 -0.2
v 0.7 1.4 -0.2
v -0.6 1.4 -0.4
v -0.5 1.4 -0.4
v 0.5 1.4 -0.4
v 0.6 1.4 -0.4
v -0.6 1.4 -0.5
v -0.5 1.4 -0.5
v 0.5 1.4 -0.5
v 0.6 1.4 -0.5
v -0.5 1.4 -0.6
v -0.4 1.4 -0.6
v 0.4 1.4 -0.6
v 0.5 1.4 -0.6
v -0.5 1.4 -0.7
v -0.4 1.4 -0.7
v 0.4 1.4 -0.7
v 0.5 1.4 -0.7
v -0.4 1.4 -0.9
v -0.3 1.4 -0.9
v 0.3 1.4 -0.9
v 0.4 1.4 -0.9
v -0.4 1.4 -1
v -0.3 1.4 -1
v 0.3 1.4 -1
v 0.4 1.4 -1
v 0.6 1.5 0.4
v 0.7 1.5 0.4
v -0.7 1.5 -1.19209e-07
v -0.6 1.5 -1.19209e-07
v -0.7 1.5 -0.1
v -0.6 1.5 -0.1
v 0.6 1.5 -0.1
v 0.7 1.5 -0.1
v -0.6 1.5 -0.3
v -0.5 1.5 -0.3
v 0.5 1.5 -0.3
v 0.6 1.5 -0.3
v -0.6 1.5 -0.4
v -0.5 1.5 -0.4
v 0.5 1.5 -0.4
v 0.6 1.5 -0.4
v -0.5 1.5 -0.5
v -0.4 1.5 -0.5
v 0.4 1.5 -0.5
v 0.5 1.5 -0.5
v -0.5 1.5 -0.6
v -0.4 1.5 -0.6
v 0.4 1.5 -0.6
v 0.5 1.5 -0.6
v -0.4 1.5 -0.7
v -0.3 1.5 -0.7
v 0.3 1.5 -0.7
v 0.4 1.5 -0.7
v -0.4 1.5 -0.8
v -0.3 1.5 -0.8
v 0.3 1.5 -0.8
v 0.4 1.5 -0.8
v -0.4 1.5 -0.9
v -0.3 1.5 -0.9
v 0.3 1.5 -0.9
v 0.4 1.5 -0.9
v -0.3 1.5 -1
v 0.3 1.5 -1
v -0.7 1.6 0.5
v -0.6 1.6 0.5
v -0.7 1.6 -1.19209e-07
v -0.6 1.6 -1.19209e-07
v -0.6 1.6 -0.2
v -0.5 1.6 -0.2
v 0.5 1.6 -0.2
v 0.6 1.6 -0.2
v -0.6 1.6 -0.3
v -0.5 1.6 -0.3
v 0.5 1.6 -0.3
v 0.6 1.6 -0.3
v -0.5 1.6 -0.4
v -0.4 1.6 -0.4
v 0.4 1.6 -0.4
v 0.5 1.6 -0.4
v -0.5 1.6 -0.5
v -0.4 1.6 -0.5
v -0.2 1.6 -0.5
v 0.2 1.6 -0.5
v 0.4 1.6 -0.5
v 0.5 1.6 -0.5
v -0.4 1.6 -0.7
v -0.3 1.6 -0.7
v 0.3 1.6 -0.7
v 0.4 1.6 -0.7
v -0.3 1.6 -0.8
v -0.2 1.6 -0.8
v 0.2 1.6 -0.8
v 0.3 1.6 -0.8
v -0.3 1.6 -0.9
v 0.3 1.6 -0.9
v -0.6 1.7 -0.1
v -0.5 1.7 -0.1
v 0.5 1.7 -0.1
v 0.6 1.7 -0.1
v -0.6 1.7 -0.2
v -0.5 1.7 -0.2
v 0.5 1.7 -0.2
v 0.6 1.7 -0.2
v -0.5 1.7 -0.3
v -0.4 1.7 -0.3
v 0.4 1.7 -0.3
v 0.5 1.7 -0.3
v -0.5 1.7 -0.4
v -0.4 1.7 -0.4
v -0.2 1.7 -0.4
v 0.2 1.7 -0.4
v 0.4 1.7 -0.4
v 0.5 1.7 -0.4
v -0.4 1.7 -0.5
v -0.2 1.7 -0.5
v 0.2 1.7 -0.5
v 0.4 1.7 -0.5
v -0.6 1.8 -1.19209e-07
v -0.5 1.8 -1.19209e-07
v 0.5 1.8 -1.19209e-07
v 0.6 1.8 -1.19209e-07
v -0.6 1.8 -0.1
v -0.5 1.8 -0.1
v 0.5 1.8 -0.1
v 0.6 1.8 -0.1
v -0.5 1.8 -0.2
v -0.4 1.8 -0.2
v 0.4 1.8 -0.2
v 0.5 1.8 -0.2
v -0.5 1.8 -0.3
v -0.4 1.8 -0.3
v -0.2 1.8 -0.3
v 0.2 1.8 -0.3
v 0.4 1.8 -0.3
v 0.5 1.8 -0.3
v -0.4 1.8 -0.4
v -0.2 1.8 -0.4
v 0.2 1.8 -0.4
v 0.4 1.8 -0.4
v -0.6 1.9 0.7
v -0.5 1.9 0.7
v 0.5 1.9 0.7
v 0.6 1.9 0.7
v -0.6 1.9 -1.19209e-07
v -0.5 1.9 -1.19209e-07
v 0.5 1.9 -1.19209e-07
v 0.6 1.9 -1.19209e-07
v -0.5 1.9 -0.1
v -0.4 1.9 -0.1
v 0.4 1.9 -0.1
v 0.5 1.9 -0.1
v -0.5 1.9 -0.2
v -0.4 1.9 -0.2
v -0.2 1.9 -0.2
v 0.2 1.9 -0.2
v 0.4 1.9 -0.2
v 0.5 1.9 -0.2
v -0.4 1.9 -0.3
v -0.2 1.9 -0.3
v 0.2 1.9 -0.3
v 0.4 1.9 -0.3
v -0.5 2 0.0999999
v -0.4 2 0.0999999
v 0.4 2 0.0999999
v 0.5 2 0.0999999
v -0.5 2 -0.1
v -0.4 2 -0.1
v -0.2 2 -0.1
v 0.2 2 -0.1
v 0.4 2 -0.1
v 0.5 2 -0.1
v -0.4 2 -0.2
v -0.2 2 -0.2
v 0.2 2 -0.2
v 0.4 2 -0.2
v -0.3 2 -1
v 0.3 2 -1
v -0.2 2 -1.1
v 0.2 2 -1.1
v -0.2 2 -1.4
v 0.2 2 -1.4
v -0.3 2 -1.5
v 0.3 2 -1.5
v -0.2 2.1 -1.1
v 0.2 2.1 -1.1
v -0.2 2.1 -1.4
v 0.2 2.1 -1.4
v 0.4 2.2 0.8
v 0.5 2.2 0.8
v -0.4 2.2 0.0999999
v -0.2 2.2 0.0999999
v 0.2 2.2 0.0999999
v 0.4 2.2 0.0999999
v 0.5 2.2 0.0999999
v -0.2 2.2 -1.19209e-07
v 0.2 2.2 -1.19209e-07
v -0.4 2.2 -0.1
v -0.2 2.2 -0.1
v 0.2 2.2 -0.1
v 0.4 2.2 -0.1
v -0.4 2.3 0.9
v 0.4 2.3 0.9
v -0.5 2.3 0.8
v -0.4 2.3 0.8
v 0.4 2.3 0.8
v -0.5 2.3 0.0999999
v -0.4 2.3 0.0999999
v -0.4 2.4 0.8
v 0.4 2.4 0.8
v -0.3 2.4 0.7
v 0.3 2.4 0.7
v -0.3 2.4 0.2
v -0.2 2.4 0.2
v 0.2 2.4 0.2
v 0.3 2.4 0.2
v -0.4 2.4 0.0999999
v -0.2 2.4 0.0999999
v 0.2 2.4 0.0999999
v 0.4 2.4 0.0999999
v -0.2 2.4 -1.19209e-07
v 0.2 2.4 -1.19209e-07
v -0.2 2.7 0.3
v 0.2 2.7 0.3
v -0.2 2.7 0.2
v 0.2 2.7 0.2
v -0.5 2.9 0.3
v -0.4 2.9 0.3
v 0.4 2.9 0.3
v 0.5 2.9 0.3
v -0.5 2.9 0.2
v -0.4 2.9 0.2
v 0.4 2.9 0.2
v 0.5 2.9 0.2
v -0.1 3 1.2
v 0.1 3 1.2
v -0.2 3 1.1
v -0.1 3 1.1
v 0.1 3 1.1
v 0.2 3 1.1
v -0.3 3 1
v -0.2 3 1
v 0.2 3 1
v 0.3 3 1
v -0.3 3 0.8
v -0.2 3 0.8
v -0.1 3 0.8
v 0.1 3 0.8
v 0.2 3 0.8
v 0.3 3 0.8
v -0.5 3 0.7
v -0.4 3 0.7
v 0.4 3 0.7
v 0.5 3 0.7
v -0.5 3 0.6
v -0.4 3 0.6
v 0.4 3 0.6
v 0.5 3 0.6
v -0.5 3 0.4
v -0.4 3 0.4
v 0.4 3 0.4
v 0.5 3 0.4
v -0.5 3 0.3
v -0.4 3 0.3
v 0.4 3 0.3
v 0.5 3 0.3
v -0.4 3 0.2
v -0.3 3 0.2
v 0.3 3 0.2
v 0.4 3 0.2
v -0.4 3 0.0999999
v -0.3 3 0.0999999
v 0.3 3 0.0999999
v 0.4 3 0.0999999
v -0.4 3.1 0.8
v -0.3 3.1 0.8
v 0.3 3.1 0.8
v 0.4 3.1 0.8
v -0.4 3.1 0.7
v -0.3 3.1 0.7
v 0.3 3.1 0.7
v 0.4 3.1 0.7
v -0.5 3.1 0.6
v -0.4 3.1 0.6
v 0.4 3.1 0.6
v 0.5 3.1 0.6
v -0.5 3.1 0.4
v -0.4 3.1 0.4
v 0.4 3.1 0.4
v 0.5 3.1 0.4
v -0.4 3.1 0.3
v -0.3 3.1 0.3
v 0.3 3.1 0.3
v 0.4 3.1 0.3
v -0.4 3.1 0.2
v -0.3 3.1 0.2
v -0.2 3.1 0.2
v 0.2 3.1 0.2
v 0.3 3.1 0.2
v 0.4 3.1 0.2
v -0.3 3.1 0.0999999
v -0.2 3.1 0.0999999
v 0.2 3.1 0.0999999
v 0.3 3.1 0.0999999
v -0.4 3.2 0.7
v -0.3 3.2 0.7
v 0.3 3.2 0.7
v 0.4 3.2 0.7
v -0.4 3.2 0.6
v -0.3 3.2 0.6
v 0.3 3.2 0.6
v 0.4 3.2 0.6
v -0.3 3.2 0.3
v -0.2 3.2 0.3
v 0.2 3.2 0.3
v 0.3 3.2 0.3
v -0.3 3.2 0.2
v -0.2 3.2 0.2
v 0.2 3.2 0.2
v 0.3 3.2 0.2
v -0.2 3.2 0.0999999
v 0.2 3.2 0.0999999
v -0.3 3.3 0.8
v 0.3 3.3 0.8
v -0.2 3.3 0.7
v 0.2 3.3 0.7
v -0.3 3.3 0.6
v -0.2 3.3 0.6
v 0.2 3.3 0.6
v 0.3 3.3 0.6
v -0.2 3.4 0.7
v 0.2 3.4 0.7
v -0.4 3.4 0.6
v -0.3 3.4 0.6
v -0.2 3.4 0.6
v 0.2 3.4 0.6
v 0.3 3.4 0.6
v 0.4 3.4 0.6
v -0.4 3.4 0.5
v -0.3 3.4 0.5
v 0.3 3.4 0.5
v 0.4 3.4 0.5
v -0.3 3.4 0.3
v -0.2 3.4 0.3
v 0.2 3.4 0.3
v 0.3 3.4 0.3
v -0.2 3.4 0.2
v 0.2 3.4 0.2
v -0.4 3.5 0.5
v -0.3 3.5 0.5
v 0.3 3.5 0.5
v 0.4 3.5 0.5
v -0.4 3.5 0.3
v -0.3 3.5 0.3
v 0.3 3.5 0.3
v 0.4 3.5 0.3

# faces
f 4/4/1 2/4/1 1/4/1
f 5/4/1 2/4/1 4/4/1
f 8/4/1 4/4/1 3/4/1
f 8/4/1 6/4/1 5/4/1
f 8/4/1 5/4/1 4/4/1
f 10/4/1 8/4/1 7/4/1
f 11/4/1 6/4/1 8/4/1
f 11/4/1 8/4/1 10/4/1
f 12/4/1 6/4/1 11/4/1
f 14/4/1 10/4/1 9/4/1
f 14/4/1 11/4/1 10/4/1
f 15/4/1 11/4/1 14/4/1
f 16/4/1 11/4/1 15/4/1
f 18/4/1 14/4/1 13/4/1
f 18/4/1 15/4/1 14/4/1
f 19/4/1 15/4/1 18/4/1
f 20/4/1 15/4/1 19/4/1
f 22/4/1 18/4/1 17/4/1
f 22/4/1 19/4/1 18/4/1
f 23/4/1 19/4/1 22/4/1
f 24/4/1 19/4/1 23/4/1
f 26/4/1 22/4/1 21/4/1
f 26/4/1 23/4/1 22/4/1
f 27/4/1 23/4/1 26/4/1
f 28/4/1 23/4/1 27/4/1
f 29/4/1 26/4/1 25/4/1
f 29/4/1 27/4/1 26/4/1
f 30/4/1 27/4/1 29/4/1
f 34/4/1 32/4/1 31/4/1
f 35/4/1 32/4/1 34/4/1
f 38/4/1 34/4/1 33/4/1
f 38/4/1 36/4/1 35/4/1
f 38/4/1 35/4/1 34/4/1
f 39/4/1 36/4/1 38/4/1
f 40/4/1 36/4/1 39/4/1
f 42/4/1 38/4/1 37/4/1
f 42/4/1 39/4/1 38/4/1
f 43/4/1 39/4/1 42/4/1
f 44/4/1 39/4/1 43/4/1
f 46/4/1 42/4/1 41/4/1
f 46/4/1 43/4/1 42/4/1
f 47/4/1 43/4/1 46/4/1
f 48/4/1 43/4/1 47/4/1
f 52/4/1 47/4/1 46/4/1
f 52/4/1 46/4/1 45/4/1
f 53/4/1 47/4/1 52/4/1
f 54/4/1 47/4/1 53/4/1
f 56/4/1 50/4/1 49/4/1
f 57/4/1 50/4/1 56/4/1
f 60/4/1 52/4/1 51/4/1
f 60/4/1 53/4/1 52/4/1
f 61/4/1 53/4/1 60/4/1
f 62/4/1 53/4/1 61/4/1
f 64/4/1 58/4/1 57/4/1
f 64/4/1 57/4/1 56/4/1
f 64/4/1 56/4/1 55/4/1
f 65/4/1 58/4/1 64/4/1
f 66/4/1 58/4/1 65/4/1
f 68/4/1 61/4/1 60/4/1
f 68/4/1 60/4/1 59/4/1
f 69/4/1 61/4/1 68/4/1
f 70/4/1 61/4/1 69/4/1
f 72/4/1 65/4/1 64/4/1
f 72/4/1 64/4/1 63/4/1
f 73/4/1 65/4/1 72/4/1
f 74/4/1 65/4/1 73/4/1
f 76/4/1 69/4/1 68/4/1
f 76/4/1 68/4/1 67/4/1
f 77/4/1 69/4/1 76/4/1
f 78/4/1 69/4/1 77/4/1
f 80/4/1 73/4/1 72/4/1
f 80/4/1 72/4/1 71/4/1
f 81/4/1 73/4/1 80/4/1
f 82/4/1 73/4/1 81/4/1
f 83/4/1 77/4/1 76/4/1
f 83/4/1 76/4/1 75/4/1
f 84/4/1 77/4/1 83/4/1
f 86/4/1 81/4/1 80/4/1
f 86/4/1 80/4/1 79/4/1
f 87/4/1 81/4/1 86/4/1
f 88/4/1 81/4/1 87/4/1
f 89/4/1 83/4/1 75/4/1
f 90/4/1 83/4/1 89/4/1
f 91/4/1 87/4/1 86/4/1
f 91/4/1 86/4/1 85/4/1
f 92/4/1 87/4/1 91/4/1
f 93/4/1 87/4/1 92/4/1
f 94/3/1 90/3/1 89/3/1
f 94/3/1 91/3/1 90/3/1
f 94/3/1 92/3/1 91/3/1
f 95/3/1 92/3/1 94/3/1
f 96/3/1 94/3/1 89/3/1
f 97/3/1 94/3/1 96/3/1
f 98/3/1 94/3/1 97/3/1
f 99/4/1 97/4/1 96/4/1
f 100/4/1 97/4/1 99/4/1
f 104/4/1 102/4/1 101/4/1
f 105/4/1 102/4/1 104/4/1
f 109/4/1 104/4/1 103/4/1
f 109/4/1 105/4/1 104/4/1
f 110/4/1 105/4/1 109/4/1
f 111/4/1 105/4/1 110/4/1
f 112/4/1 107/4/1 106/4/1
f 113/4/1 107/4/1 112/4/1
f 114/4/1 107/4/1 113/4/1
f 117/4/1 109/4/1 108/4/1
f 117/4/1 110/4/1 109/4/1
f 118/4/1 110/4/1 117/4/1
f 119/4/1 110/4/1 118/4/1
f 120/4/1 115/4/1 114/4/1
f 120/4/1 114/4/1 113/4/1
f 121/4/1 115/4/1 120/4/1
f 122/4/1 115/4/1 121/4/1
f 125/4/1 118/4/1 117/4/1
f 125/4/1 117/4/1 116/4/1
f 126/4/1 118/4/1 125/4/1
f 127/4/1 118/4/1 126/4/1
f 128/4/1 123/4/1 122/4/1
f 128/4/1 122/4/1 121/4/1
f 129/4/1 123/4/1 128/4/1
f 131/4/1 126/4/1 125/4/1
f 131/4/1 125/4/1 124/4/1
f 132/4/1 126/4/1 131/4/1
f 133/4/1 126/4/1 132/4/1
f 134/4/1 123/4/1 129/4/1
f 135/4/1 123/4/1 134/4/1
f 137/4/1 131/4/1 130/4/1
f 137/4/1 132/4/1 131/4/1
f 138/4/1 132/4/1 137/4/1
f 139/4/1 132/4/1 138/4/1
f 140/4/1 123/4/1 135/4/1
f 141/4/1 123/4/1 140/4/1
f 145/4/1 137/4/1 136/4/1
f 145/4/1 138/4/1 137/4/1
f 146/4/1 138/4/1 145/4/1
f 147/4/1 138/4/1 146/4/1
f 149/4/1 142/4/1 141/4/1
f 151/4/1 145/4/1 144/4/1
f 151/4/1 146/4/1 145/4/1
f 152/4/1 146/4/1 151/4/1
f 153/4/1 146/4/1 152/4/1
f 155/4/1 149/4/1 148/4/1
f 156/4/1 142/4/1 149/4/1
f 156/4/1 149/4/1 155/4/1
f 157/3/1 143/3/1 142/3/1
f 157/4/1 142/4/1 156/4/1
f 158/3/1 143/3/1 157/3/1
f 159/4/1 151/4/1 150/4/1
f 159/4/1 152/4/1 151/4/1
f 160/4/1 152/4/1 159/4/1
f 162/4/1 156/4/1 155/4/1
f 162/4/1 155/4/1 154/4/1
f 163/4/1 156/4/1 162/4/1
f 164/4/1 156/4/1 163/4/1
f 166/4/1 162/4/1 161/4/1
f 166/4/1 163/4/1 162/4/1
f 167/4/1 163/4/1 166/4/1
f 168/4/1 163/4/1 167/4/1
f 169/4/1 159/4/1 150/4/1
f 170/4/1 159/4/1 169/4/1
f 172/4/1 166/4/1 165/4/1
f 172/4/1 167/4/1 166/4/1
f 173/4/1 167/4/1 172/4/1
f 174/4/1 167/4/1 173/4/1
f 176/3/1 172/3/1 171/3/1
f 176/3/1 173/3/1 172/3/1
f 177/3/1 173/3/1 176/3/1
f 178/3/1 173/3/1 177/3/1
f 179/3/1 170/3/1 169/3/1
f 180/3/1 170/3/1 179/3/1
f 182/3/1 176/3/1 175/3/1
f 182/3/1 177/3/1 176/3/1
f 183/3/1 177/3/1 182/3/1
f 184/3/1 177/3/1 183/3/1
f 185/4/1 180/4/1 179/4/1
f 186/4/1 180/4/1 185/4/1
f 187/4/1 182/4/1 181/4/1
f 187/4/1 183/4/1 182/4/1
f 188/4/1 183/4/1 187/4/1
f 189/4/1 183/4/1 188/4/1
f 190/2/1 186/2/1 185/2/1
f 190/2/1 187/2/1 186/2/1
f 190/2/1 188/2/1 187/2/1
f 191/2/1 188/2/1 190/2/1
f 192/2/1 190/2/1 185/2/1
f 193/2/1 190/2/1 192/2/1
f 194/4/1 193/4/1 192/4/1
f 195/4/1 193/4/1 194/4/1
f 196/3/1 195/3/1 194/3/1
f 197/3/1 195/3/1 196/3/1
f 201/4/1 199/4/1 198/4/1
f 202/4/1 199/4/1 201/4/1
f 204/4/1 201/4/1 200/4/1
f 204/4/1 203/4/1 202/4/1
f 204/4/1 202/4/1 201/4/1
f 205/4/1 203/4/1 204/4/1
f 206/4/1 204/4/1 200/4/1
f 207/4/1 204/4/1 206/4/1
f 208/4/1 204/4/1 207/4/1
f 209/4/1 204/4/1 208/4/1
f 210/4/1 208/4/1 207/4/1
f 211/4/1 208/4/1 210/4/1
f 217/4/1 213/4/1 212/4/1
f 218/4/1 213/4/1 217/4/1
f 219/4/1 215/4/1 214/4/1
f 220/4/1 215/4/1 219/4/1
f 222/4/1 217/4/1 216/4/1
f 223/4/1 217/4/1 222/4/1
f 225/4/1 222/4/1 221/4/1
f 226/4/1 222/4/1 225/4/1
f 228/4/1 225/4/1 224/4/1
f 229/4/1 225/4/1 228/4/1
f 234/4/1 228/4/1 227/4/1
f 235/4/1 228/4/1 234/4/1
f 236/3/1 232/3/1 231/3/1
f 239/4/1 234/4/1 233/4/1
f 240/4/1 234/4/1 239/4/1
f 241/4/1 231/4/1 230/4/1
f 242/3/1 237/3/1 236/3/1
f 242/4/1 231/4/1 241/4/1
f 242/3/1 236/3/1 231/3/1
f 243/3/1 237/3/1 242/3/1
f 245/4/1 239/4/1 238/4/1
f 246/4/1 239/4/1 245/4/1
f 247/4/1 245/4/1 244/4/1
f 248/4/1 245/4/1 247/4/1
f 251/3/1 237/3/1 243/3/1
f 255/4/1 250/4/1 249/4/1
f 256/3/1 251/3/1 250/3/1
f 256/3/1 237/3/1 251/3/1
f 257/3/1 237/3/1 256/3/1
f 259/4/1 255/4/1 254/4/1
f 260/4/1 250/4/1 255/4/1
f 260/4/1 255/4/1 259/4/1
f 261/3/1 256/3/1 250/3/1
f 261/4/1 250/4/1 260/4/1
f 262/3/1 256/3/1 261/3/1
f 263/4/1 253/4/1 252/4/1
f 264/4/1 253/4/1 263/4/1
f 266/4/1 259/4/1 258/4/1
f 266/4/1 260/4/1 259/4/1
f 267/4/1 260/4/1 266/4/1
f 269/3/1 266/3/1 265/3/1
f 270/3/1 266/3/1 269/3/1
f 271/3/1 264/3/1 263/3/1
f 272/3/1 264/3/1 271/3/1
f 274/3/1 269/3/1 268/3/1
f 275/3/1 269/3/1 274/3/1
f 276/4/1 272/4/1 271/4/1
f 277/4/1 272/4/1 276/4/1
f 279/4/1 274/4/1 273/4/1
f 280/4/1 274/4/1 279/4/1
f 282/2/1 279/2/1 278/2/1
f 283/2/1 279/2/1 282/2/1
f 284/2/1 277/2/1 276/2/1
f 285/2/1 277/2/1 284/2/1
f 286/2/1 282/2/1 281/2/1
f 287/2/1 282/2/1 286/2/1
f 288/4/1 285/4/1 284/4/1
f 289/4/1 285/4/1 288/4/1
f 290/4/1 287/4/1 286/4/1
f 291/4/1 287/4/1 290/4/1
f 292/3/1 289/3/1 288/3/1
f 293/3/1 289/3/1 292/3/1
f 295/3/1 294/3/1 293/3/1
f 296/3/1 294/3/1 295/3/1
f 300/4/1 298/4/1 297/4/1
f 301/4/1 298/4/1 300/4/1
f 302/3/1 299/3/1 298/3/1
f 302/4/1 298/4/1 301/4/1
f 303/3/1 299/3/1 302/3/1
f 304/4/1 300/4/1 297/4/1
f 305/4/1 300/4/1 304/4/1
f 306/4/1 303/4/1 302/4/1
f 306/4/1 302/4/1 301/4/1
f 307/4/1 303/4/1 306/4/1
f 309/4/1 303/4/1 307/4/1
f 310/4/1 304/4/1 297/4/1
f 313/4/1 309/4/1 308/4/1
f 314/4/1 303/4/1 309/4/1
f 314/4/1 309/4/1 313/4/1
f 315/4/1 303/4/1 314/4/1
f 316/4/1 311/4/1 310/4/1
f 316/4/1 310/4/1 297/4/1
f 317/4/1 311/4/1 316/4/1
f 318/4/1 311/4/1 317/4/1
f 319/4/1 313/4/1 312/4/1
f 319/4/1 314/4/1 313/4/1
f 320/4/1 314/4/1 319/4/1
f 321/4/1 314/4/1 320/4/1
f 322/4/1 318/4/1 317/4/1
f 322/4/1 320/4/1 319/4/1
f 322/4/1 319/4/1 318/4/1
f 323/4/1 320/4/1 322/4/1
f 324/4/1 320/4/1 323/4/1
f 325/5/1 324/5/1 323/5/1
f 326/5/1 324/5/1 325/5/1
f 327/5/1 324/5/1 326/5/1
f 328/5/1 324/5/1 327/5/1
f 332/4/1 330/4/1 329/4/1
f 333/3/1 331/3/1 330/3/1
f 333/4/1 330/4/1 332/4/1
f 334/3/1 331/3/1 333/3/1
f 336/3/1 335/3/1 334/3/1
f 337/3/1 335/3/1 336/3/1
f 339/5/1 338/5/1 337/5/1
f 341/5/1 340/5/1 339/5/1
f 344/5/1 339/5/1 337/5/1
f 344/5/1 342/5/1 341/5/1
f 344/5/1 341/5/1 339/5/1
f 347/5/1 344/5/1 343/5/1
f 348/5/1 342/5/1 344/5/1
f 348/5/1 344/5/1 347/5/1
f 349/4/1 346/4/1 345/4/1
f 350/3/1 347/3/1 346/3/1
f 350/4/1 346/4/1 349/4/1
f 351/3/1 347/3/1 350/3/1
f 352/5/1 342/5/1 348/5/1
f 353/5/1 342/5/1 352/5/1
f 356/4/1 355/4/1 354/4/1
f 357/4/1 355/4/1 356/4/1
f 361/4/1 359/4/1 358/4/1
f 362/4/1 361/4/1 360/4/1
f 363/4/1 359/4/1 361/4/1
f 363/4/1 361/4/1 362/4/1
f 369/4/1 365/4/1 364/4/1
f 370/4/1 365/4/1 369/4/1
f 371/5/1 367/5/1 366/5/1
f 372/5/1 367/5/1 371/5/1
f 374/4/1 369/4/1 368/4/1
f 375/4/1 369/4/1 374/4/1
f 376/4/1 373/4/1 372/4/1
f 376/4/1 372/4/1 371/4/1
f 377/4/1 373/4/1 376/4/1
f 380/5/1 379/5/1 378/5/1
f 381/5/1 379/5/1 380/5/1
f 384/5/1 383/5/1 382/5/1
f 385/5/1 383/5/1 384/5/1
f 389/5/1 387/5/1 386/5/1
f 390/5/1 387/5/1 389/5/1
f 391/5/1 389/5/1 388/5/1
f 392/5/1 389/5/1 391/5/1
f 395/4/1 394/4/1 393/4/1
f 396/4/1 394/4/1 395/4/1
f 400/4/1 398/4/1 397/4/1
f 401/4/1 398/4/1 400/4/1
f 404/4/1 403/4/1 402/4/1
f 405/4/1 403/4/1 404/4/1
f 406/4/1 400/4/1 399/4/1
f 407/4/1 400/4/1 406/4/1
f 410/5/1 409/5/1 408/5/1
f 411/5/1 409/5/1 410/5/1
f 414/4/1 413/4/1 412/4/1
f 415/4/1 413/4/1 414/4/1
f 418/5/1 417/5/1 416/5/1
f 419/5/1 417/5/1 418/5/1
f 420/5/2 421/5/2 422/5/2
f 422/5/2 421/5/2 423/5/2
f 424/4/2 425/4/2 426/4/2
f 426/4/2 425/4/2 427/4/2
f 428/5/2 429/5/2 430/5/2
f 430/5/2 429/5/2 431/5/2
f 432/5/2 433/5/2 434/5/2
f 434/5/2 433/5/2 435/5/2
f 436/5/2 437/5/2 438/5/2
f 438/5/2 437/5/2 439/5/2
f 440/5/2 441/5/2 443/5/2
f 443/5/2 441/5/2 444/5/2
f 442/5/2 443/5/2 445/5/2
f 445/5/2 443/5/2 446/5/2
f 447/4/2 448/4/2 449/4/2
f 449/4/2 448/4/2 450/4/2
f 451/4/2 452/4/2 454/4/2
f 454/4/2 452/4/2 455/4/2
f 456/4/2 457/4/2 458/4/2
f 458/4/2 457/4/2 459/4/2
f 453/4/2 454/4/2 460/4/2
f 460/4/2 454/4/2 461/4/2
f 462/4/2 463/4/2 465/4/2
f 463/3/2 464/3/2 466/3/2
f 465/4/2 463/4/2 466/4/2
f 466/3/2 464/3/2 467/3/2
f 467/3/2 468/3/2 469/3/2
f 469/3/2 468/3/2 470/3/2
f 470/5/2 471/5/2 472/5/2
f 472/5/2 473/5/2 474/5/2
f 470/5/2 472/5/2 477/5/2
f 474/5/2 475/5/2 477/5/2
f 472/5/2 474/5/2 477/5/2
f 476/5/2 477/5/2 480/5/2
f 477/5/2 475/5/2 481/5/2
f 480/5/2 477/5/2 481/5/2
f 478/4/2 479/4/2 482/4/2
f 479/3/2 480/3/2 483/3/2
f 482/4/2 479/4/2 483/4/2
f 483/3/2 480/3/2 484/3/2
f 481/5/2 475/5/2 485/5/2
f 485/5/2 475/5/2 486/5/2
f 487/4/2 488/4/2 489/4/2
f 489/4/2 488/4/2 490/4/2
f 491/4/2 492/4/2 494/4/2
f 493/4/2 494/4/2 495/4/2
f 494/4/2 492/4/2 496/4/2
f 495/4/2 494/4/2 496/4/2
f 497/4/2 498/4/2 502/4/2
f 502/4/2 498/4/2 503/4/2
f 499/5/2 500/5/2 504/5/2
f 504/5/2 500/5/2 505/5/2
f 501/4/2 502/4/2 507/4/2
f 507/4/2 502/4/2 508/4/2
f 505/4/2 506/4/2 509/4/2
f 504/4/2 505/4/2 509/4/2
f 509/4/2 506/4/2 510/4/2
f 511/4/2 512/4/2 516/4/2
f 516/4/2 512/4/2 517/4/2
f 513/4/2 514/4/2 518/4/2
f 518/4/2 514/4/2 519/4/2
f 515/4/2 516/4/2 521/4/2
f 521/4/2 516/4/2 522/4/2
f 520/4/2 521/4/2 524/4/2
f 524/4/2 521/4/2 525/4/2
f 523/4/2 524/4/2 527/4/2
f 527/4/2 524/4/2 528/4/2
f 526/4/2 527/4/2 533/4/2
f 533/4/2 527/4/2 534/4/2
f 530/3/2 531/3/2 535/3/2
f 532/4/2 533/4/2 538/4/2
f 538/4/2 533/4/2 539/4/2
f 529/4/2 530/4/2 540/4/2
f 535/3/2 536/3/2 541/3/2
f 540/4/2 530/4/2 541/4/2
f 530/3/2 535/3/2 541/3/2
f 541/3/2 536/3/2 542/3/2
f 537/4/2 538/4/2 544/4/2
f 544/4/2 538/4/2 545/4/2
f 543/4/2 544/4/2 546/4/2
f 546/4/2 544/4/2 547/4/2
f 542/3/2 536/3/2 550/3/2
f 548/4/2 549/4/2 554/4/2
f 549/3/2 550/3/2 555/3/2
f 550/3/2 536/3/2 555/3/2
f 555/3/2 536/3/2 556/3/2
f 553/4/2 554/4/2 558/4/2
f 554/4/2 549/4/2 559/4/2
f 558/4/2 554/4/2 559/4/2
f 549/3/2 555/3/2 560/3/2
f 559/4/2 549/4/2 560/4/2
f 560/3/2 555/3/2 561/3/2
f 551/4/2 552/4/2 562/4/2
f 562/4/2 552/4/2 563/4/2
f 557/4/2 558/4/2 565/4/2
f 558/4/2 559/4/2 565/4/2
f 565/4/2 559/4/2 566/4/2
f 564/3/2 565/3/2 568/3/2
f 568/3/2 565/3/2 569/3/2
f 562/3/2 563/3/2 570/3/2
f 570/3/2 563/3/2 571/3/2
f 567/3/2 568/3/2 573/3/2
f 573/3/2 568/3/2 574/3/2
f 570/4/2 571/4/2 575/4/2
f 575/4/2 571/4/2 576/4/2
f 572/4/2 573/4/2 578/4/2
f 578/4/2 573/4/2 579/4/2
f 577/2/2 578/2/2 581/2/2
f 581/2/2 578/2/2 582/2/2
f 575/2/2 576/2/2 583/2/2
f 583/2/2 576/2/2 584/2/2
f 580/2/2 581/2/2 585/2/2
f 585/2/2 581/2/2 586/2/2
f 583/4/2 584/4/2 587/4/2
f 587/4/2 584/4/2 588/4/2
f 585/4/2 586/4/2 589/4/2
f 589/4/2 586/4/2 590/4/2
f 587/3/2 588/3/2 591/3/2
f 588/3/2 589/3/2 591/3/2
f 591/3/2 589/3/2 592/3/2
f 592/3/2 589/3/2 593/3/2
f 593/3/2 589/3/2 594/3/2
f 595/4/2 596/4/2 598/4/2
f 598/4/2 596/4/2 599/4/2
f 596/3/2 597/3/2 600/3/2
f 599/4/2 596/4/2 600/4/2
f 600/3/2 597/3/2 601/3/2
f 595/4/2 598/4/2 602/4/2
f 602/4/2 598/4/2 603/4/2
f 600/4/2 601/4/2 604/4/2
f 599/4/2 600/4/2 604/4/2
f 604/4/2 601/4/2 605/4/2
f 605/4/2 601/4/2 607/4/2
f 595/4/2 602/4/2 608/4/2
f 606/4/2 607/4/2 611/4/2
f 607/4/2 601/4/2 612/4/2
f 611/4/2 607/4/2 612/4/2
f 612/4/2 601/4/2 613/4/2
f 608/4/2 609/4/2 614/4/2
f 595/4/2 608/4/2 614/4/2
f 614/4/2 609/4/2 615/4/2
f 615/4/2 609/4/2 616/4/2
f 610/4/2 611/4/2 617/4/2
f 611/4/2 612/4/2 617/4/2
f 617/4/2 612/4/2 618/4/2
f 618/4/2 612/4/2 619/4/2
f 615/4/2 616/4/2 620/4/2
f 617/4/2 618/4/2 620/4/2
f 616/4/2 617/4/2 620/4/2
f 620/4/2 618/4/2 621/4/2
f 621/4/2 618/4/2 622/4/2
f 621/5/2 622/5/2 623/5/2
f 623/5/2 622/5/2 624/5/2
f 624/5/2 622/5/2 625/5/2
f 625/5/2 622/5/2 626/5/2
f 627/4/2 628/4/2 630/4/2
f 630/4/2 628/4/2 631/4/2
f 629/4/2 630/4/2 635/4/2
f 630/4/2 631/4/2 635/4/2
f 635/4/2 631/4/2 636/4/2
f 636/4/2 631/4/2 637/4/2
f 632/4/2 633/4/2 638/4/2
f 638/4/2 633/4/2 639/4/2
f 639/4/2 633/4/2 640/4/2
f 634/4/2 635/4/2 643/4/2
f 635/4/2 636/4/2 643/4/2
f 643/4/2 636/4/2 644/4/2
f 644/4/2 636/4/2 645/4/2
f 640/4/2 641/4/2 646/4/2
f 639/4/2 640/4/2 646/4/2
f 646/4/2 641/4/2 647/4/2
f 647/4/2 641/4/2 648/4/2
f 643/4/2 644/4/2 651/4/2
f 642/4/2 643/4/2 651/4/2
f 651/4/2 644/4/2 652/4/2
f 652/4/2 644/4/2 653/4/2
f 648/4/2 649/4/2 654/4/2
f 647/4/2 648/4/2 654/4/2
f 654/4/2 649/4/2 655/4/2
f 651/4/2 652/4/2 657/4/2
f 650/4/2 651/4/2 657/4/2
f 657/4/2 652/4/2 658/4/2
f 658/4/2 652/4/2 659/4/2
f 655/4/2 649/4/2 660/4/2
f 660/4/2 649/4/2 661/4/2
f 656/4/2 657/4/2 663/4/2
f 657/4/2 658/4/2 663/4/2
f 663/4/2 658/4/2 664/4/2
f 664/4/2 658/4/2 665/4/2
f 661/4/2 649/4/2 666/4/2
f 666/4/2 649/4/2 667/4/2
f 662/4/2 663/4/2 671/4/2
f 663/4/2 664/4/2 671/4/2
f 671/4/2 664/4/2 672/4/2
f 672/4/2 664/4/2 673/4/2
f 667/4/2 668/4/2 675/4/2
f 670/4/2 671/4/2 677/4/2
f 671/4/2 672/4/2 677/4/2
f 677/4/2 672/4/2 678/4/2
f 678/4/2 672/4/2 679/4/2
f 674/4/2 675/4/2 681/4/2
f 675/4/2 668/4/2 682/4/2
f 681/4/2 675/4/2 682/4/2
f 668/3/2 669/3/2 683/3/2
f 682/4/2 668/4/2 683/4/2
f 683/3/2 669/3/2 684/3/2
f 676/4/2 677/4/2 685/4/2
f 677/4/2 678/4/2 685/4/2
f 685/4/2 678/4/2 686/4/2
f 681/4/2 682/4/2 688/4/2
f 680/4/2 681/4/2 688/4/2
f 688/4/2 682/4/2 689/4/2
f 689/4/2 682/4/2 690/4/2
f 687/4/2 688/4/2 692/4/2
f 688/4/2 689/4/2 692/4/2
f 692/4/2 689/4/2 693/4/2
f 693/4/2 689/4/2 694/4/2
f 676/4/2 685/4/2 695/4/2
f 695/4/2 685/4/2 696/4/2
f 691/4/2 692/4/2 698/4/2
f 692/4/2 693/4/2 698/4/2
f 698/4/2 693/4/2 699/4/2
f 699/4/2 693/4/2 700/4/2
f 697/3/2 698/3/2 702/3/2
f 698/3/2 699/3/2 702/3/2
f 702/3/2 699/3/2 703/3/2
f 703/3/2 699/3/2 704/3/2
f 695/3/2 696/3/2 705/3/2
f 705/3/2 696/3/2 706/3/2
f 701/3/2 702/3/2 708/3/2
f 702/3/2 703/3/2 708/3/2
f 708/3/2 703/3/2 709/3/2
f 709/3/2 703/3/2 710/3/2
f 705/4/2 706/4/2 711/4/2
f 711/4/2 706/4/2 712/4/2
f 707/4/2 708/4/2 713/4/2
f 708/4/2 709/4/2 713/4/2
f 713/4/2 709/4/2 714/4/2
f 714/4/2 709/4/2 715/4/2
f 711/2/2 712/2/2 716/2/2
f 712/2/2 713/2/2 716/2/2
f 713/2/2 714/2/2 716/2/2
f 716/2/2 714/2/2 717/2/2
f 711/2/2 716/2/2 718/2/2
f 718/2/2 716/2/2 719/2/2
f 718/4/2 719/4/2 720/4/2
f 720/4/2 719/4/2 721/4/2
f 722/4/2 723/4/2 725/4/2
f 725/4/2 723/4/2 726/4/2
f 724/4/2 725/4/2 728/4/2
f 726/4/2 727/4/2 728/4/2
f 725/4/2 726/4/2 728/4/2
f 728/4/2 727/4/2 729/4/2
f 724/4/2 728/4/2 730/4/2
f 730/4/2 728/4/2 731/4/2
f 731/4/2 728/4/2 732/4/2
f 732/4/2 728/4/2 733/4/2
f 731/4/2 732/4/2 734/4/2
f 734/4/2 732/4/2 735/4/2
f 736/4/2 737/4/2 739/4/2
f 739/4/2 737/4/2 740/4/2
f 738/4/2 739/4/2 743/4/2
f 740/4/2 741/4/2 743/4/2
f 739/4/2 740/4/2 743/4/2
f 743/4/2 741/4/2 744/4/2
f 744/4/2 741/4/2 745/4/2
f 742/4/2 743/4/2 747/4/2
f 743/4/2 744/4/2 747/4/2
f 747/4/2 744/4/2 748/4/2
f 748/4/2 744/4/2 749/4/2
f 746/4/2 747/4/2 751/4/2
f 747/4/2 748/4/2 751/4/2
f 751/4/2 748/4/2 752/4/2
f 752/4/2 748/4/2 753/4/2
f 751/4/2 752/4/2 757/4/2
f 750/4/2 751/4/2 757/4/2
f 757/4/2 752/4/2 758/4/2
f 758/4/2 752/4/2 759/4/2
f 754/4/2 755/4/2 761/4/2
f 761/4/2 755/4/2 762/4/2
f 756/4/2 757/4/2 765/4/2
f 757/4/2 758/4/2 765/4/2
f 765/4/2 758/4/2 766/4/2
f 766/4/2 758/4/2 767/4/2
f 762/4/2 763/4/2 769/4/2
f 761/4/2 762/4/2 769/4/2
f 760/4/2 761/4/2 769/4/2
f 769/4/2 763/4/2 770/4/2
f 770/4/2 763/4/2 771/4/2
f 765/4/2 766/4/2 773/4/2
f 764/4/2 765/4/2 773/4/2
f 773/4/2 766/4/2 774/4/2
f 774/4/2 766/4/2 775/4/2
f 769/4/2 770/4/2 777/4/2
f 768/4/2 769/4/2 777/4/2
f 777/4/2 770/4/2 778/4/2
f 778/4/2 770/4/2 779/4/2
f 773/4/2 774/4/2 781/4/2
f 772/4/2 773/4/2 781/4/2
f 781/4/2 774/4/2 782/4/2
f 782/4/2 774/4/2 783/4/2
f 777/4/2 778/4/2 785/4/2
f 776/4/2 777/4/2 785/4/2
f 785/4/2 778/4/2 786/4/2
f 786/4/2 778/4/2 787/4/2
f 781/4/2 782/4/2 788/4/2
f 780/4/2 781/4/2 788/4/2
f 785/4/2 786/4/2 789/4/2
f 784/4/2 785/4/2 789/4/2
f 789/4/2 786/4/2 790/4/2
f 790/4/2 786/4/2 791/4/2
f 780/4/2 788/4/2 792/4/2
f 788/4/2 789/4/2 792/4/2
f 789/4/2 790/4/2 792/4/2
f 792/4/2 790/4/2 793/4/2
f 793/4/2 790/4/2 794/4/2
f 792/3/2 793/3/2 795/3/2
f 795/3/2 793/3/2 796/3/2
f 792/3/2 795/3/2 797/3/2
f 797/3/2 795/3/2 798/3/2
f 798/3/2 795/3/2 799/3/2
f 797/4/2 798/4/2 800/4/2
f 800/4/2 798/4/2 801/4/2
f 802/4/2 803/4/2 805/4/2
f 805/4/2 803/4/2 806/4/2
f 804/4/2 805/4/2 809/4/2
f 806/4/2 807/4/2 809/4/2
f 805/4/2 806/4/2 809/4/2
f 808/4/2 809/4/2 811/4/2
f 809/4/2 807/4/2 812/4/2
f 811/4/2 809/4/2 812/4/2
f 812/4/2 807/4/2 813/4/2
f 810/4/2 811/4/2 815/4/2
f 811/4/2 812/4/2 815/4/2
f 815/4/2 812/4/2 816/4/2
f 816/4/2 812/4/2 817/4/2
f 814/4/2 815/4/2 819/4/2
f 815/4/2 816/4/2 819/4/2
f 819/4/2 816/4/2 820/4/2
f 820/4/2 816/4/2 821/4/2
f 818/4/2 819/4/2 823/4/2
f 819/4/2 820/4/2 823/4/2
f 823/4/2 820/4/2 824/4/2
f 824/4/2 820/4/2 825/4/2
f 822/4/2 823/4/2 826/4/2
f 823/4/2 824/4/2 826/4/2
f 826/4/2 824/4/2 827/4/2
f 830/5/3 829/5/3 828/5/3
f 831/5/3 829/5/3 830/5/3
f 834/4/3 833/4/3 832/4/3
f 835/4/3 833/4/3 834/4/3
f 836/4/3 834/4/3 832/4/3
f 838/4/3 836/4/3 832/4/3
f 838/4/3 837/4/3 836/4/3
f 839/4/3 837/4/3 838/4/3
f 842/4/3 841/4/3 840/4/3
f 843/4/3 841/4/3 842/4/3
f 846/4/3 845/4/3 844/4/3
f 847/4/3 845/4/3 846/4/3
f 855/4/3 849/4/3 848/4/3
f 855/3/3 850/3/3 849/3/3
f 856/4/3 851/4/3 850/4/3
f 856/3/3 850/3/3 855/3/3
f 859/4/3 855/4/3 848/4/3
f 859/4/3 856/4/3 855/4/3
f 860/4/3 851/4/3 856/4/3
f 860/4/3 856/4/3 859/4/3
f 861/4/3 858/4/3 857/4/3
f 862/4/3 858/4/3 861/4/3
f 863/4/3 859/4/3 848/4/3
f 864/3/3 860/3/3 859/3/3
f 864/4/3 859/4/3 863/4/3
f 865/4/3 851/4/3 860/4/3
f 865/3/3 860/3/3 864/3/3
f 866/2/3 852/2/3 851/2/3
f 866/4/3 851/4/3 865/4/3
f 867/4/3 853/4/3 852/4/3
f 867/2/3 852/2/3 866/2/3
f 868/3/3 854/3/3 853/3/3
f 868/4/3 853/4/3 867/4/3
f 869/3/3 854/3/3 868/3/3
f 878/4/3 871/4/3 870/4/3
f 879/4/3 871/4/3 878/4/3
f 880/3/3 872/3/3 871/3/3
f 880/4/3 871/4/3 879/4/3
f 881/4/3 873/4/3 872/4/3
f 881/3/3 872/3/3 880/3/3
f 882/2/3 874/2/3 873/2/3
f 882/4/3 873/4/3 881/4/3
f 883/4/3 875/4/3 874/4/3
f 883/2/3 874/2/3 882/2/3
f 884/3/3 876/3/3 875/3/3
f 884/4/3 875/4/3 883/4/3
f 885/3/3 876/3/3 884/3/3
f 889/4/3 888/4/3 887/4/3
f 890/4/3 888/4/3 889/4/3
f 891/4/3 888/4/3 890/4/3
f 894/5/3 891/5/3 890/5/3
f 894/5/3 892/5/3 891/5/3
f 895/5/3 892/5/3 894/5/3
f 896/1/3 895/1/3 894/1/3
f 897/5/3 892/5/3 895/5/3
f 897/1/3 895/1/3 896/1/3
f 898/4/3 893/4/3 892/4/3
f 898/5/3 892/5/3 897/5/3
f 899/4/3 897/4/3 896/4/3
f 899/4/3 898/4/3 897/4/3
f 900/4/3 898/4/3 899/4/3
f 901/4/3 893/4/3 898/4/3
f 901/4/3 898/4/3 900/4/3
f 902/1/3 900/1/3 899/1/3
f 903/5/3 901/5/3 900/5/3
f 903/1/3 900/1/3 902/1/3
f 904/4/3 889/4/3 887/4/3
f 905/5/3 903/5/3 902/5/3
f 906/5/3 901/5/3 903/5/3
f 906/5/3 903/5/3 905/5/3
f 907/4/3 893/4/3 901/4/3
f 907/5/3 901/5/3 906/5/3
f 908/4/3 893/4/3 907/4/3
f 909/4/3 879/4/3 878/4/3
f 909/4/3 878/4/3 877/4/3
f 910/4/3 879/4/3 909/4/3
f 911/4/3 879/4/3 910/4/3
f 917/3/3 886/3/3 885/3/3
f 918/3/3 886/3/3 917/3/3
f 919/4/3 905/4/3 904/4/3
f 919/4/3 906/4/3 905/4/3
f 919/4/3 904/4/3 887/4/3
f 920/4/3 906/4/3 919/4/3
f 921/4/3 911/4/3 910/4/3
f 921/4/3 912/4/3 911/4/3
f 922/3/3 913/3/3 912/3/3
f 922/4/3 912/4/3 921/4/3
f 923/4/3 914/4/3 913/4/3
f 923/3/3 913/3/3 922/3/3
f 924/2/3 915/2/3 914/2/3
f 924/4/3 914/4/3 923/4/3
f 925/4/3 916/4/3 915/4/3
f 925/2/3 915/2/3 924/2/3
f 926/4/3 916/4/3 925/4/3
f 933/4/3 928/4/3 927/4/3
f 934/3/3 929/3/3 928/3/3
f 934/4/3 928/4/3 933/4/3
f 935/4/3 930/4/3 929/4/3
f 935/3/3 929/3/3 934/3/3
f 936/4/3 930/4/3 935/4/3
f 940/4/3 932/4/3 931/4/3
f 941/4/3 932/4/3 940/4/3
f 942/4/3 938/4/3 937/4/3
f 943/4/3 938/4/3 942/4/3
f 948/4/3 945/4/3 944/4/3
f 949/4/3 945/4/3 948/4/3
f 952/4/3 951/4/3 950/4/3
f 953/4/3 951/4/3 952/4/3
f 954/4/3 947/4/3 946/4/3
f 955/4/3 947/4/3 954/4/3
f 958/4/3 940/4/3 939/4/3
f 959/4/3 940/4/3 958/4/3
f 963/4/3 957/4/3 956/4/3
f 964/4/3 957/4/3 963/4/3
f 965/4/3 960/4/3 959/4/3
f 966/4/3 960/4/3 965/4/3
f 971/4/3 962/4/3 961/4/3
f 972/4/3 962/4/3 971/4/3
f 973/4/3 968/4/3 967/4/3
f 974/3/3 969/3/3 968/3/3
f 974/4/3 968/4/3 973/4/3
f 975/4/3 970/4/3 969/4/3
f 975/3/3 969/3/3 974/3/3
f 976/4/3 970/4/3 975/4/3
f 981/4/3 978/4/3 977/4/3
f 982/4/3 978/4/3 981/4/3
f 988/4/3 980/4/3 979/4/3
f 989/4/3 980/4/3 988/4/3
f 990/4/3 984/4/3 983/4/3
f 991/4/3 984/4/3 990/4/3
f 992/4/3 986/4/3 985/4/3
f 993/4/3 986/4/3 992/4/3
f 996/5/3 995/5/3 994/5/3
f 997/5/3 995/5/3 996/5/3
f 998/5/3 995/5/3 997/5/3
f 999/4/3 998/4/3 997/4/3
f 1000/4/3 998/4/3 999/4/3
f 1004/4/3 1002/4/3 1001/4/3
f 1005/4/3 1002/4/3 1004/4/3
f 1006/4/3 988/4/3 987/4/3
f 1007/4/3 988/4/3 1006/4/3
f 1013/5/3 1004/5/3 1003/5/3
f 1013/5/3 1005/5/3 1004/5/3
f 1014/5/3 1005/5/3 1013/5/3
f 1015/4/3 1008/4/3 1007/4/3
f 1016/4/3 1008/4/3 1015/4/3
f 1019/4/3 1010/4/3 1009/4/3
f 1020/4/3 1010/4/3 1019/4/3
f 1021/4/3 1012/4/3 1011/4/3
f 1022/4/3 1012/4/3 1021/4/3
f 1023/4/3 1018/4/3 1017/4/3
f 1024/4/3 1018/4/3 1023/4/3
f 1029/4/3 1026/4/3 1025/4/3
f 1030/4/3 1026/4/3 1029/4/3
f 1033/4/3 1028/4/3 1027/4/3
f 1034/4/3 1028/4/3 1033/4/3
f 1036/4/3 1032/4/3 1031/4/3
f 1037/4/3 1032/4/3 1036/4/3
f 1040/5/3 1039/5/3 1038/5/3
f 1041/5/3 1039/5/3 1040/5/3
f 1044/4/3 1036/4/3 1035/4/3
f 1045/4/3 1036/4/3 1044/4/3
f 1047/5/3 1043/5/3 1042/5/3
f 1048/5/3 1043/5/3 1047/5/3
f 1049/4/3 1046/4/3 1045/4/3
f 1050/4/3 1046/4/3 1049/4/3
f 1053/4/3 1052/4/3 1051/4/3
f 1054/4/3 1052/4/3 1053/4/3
f 1059/4/3 1056/4/3 1055/4/3
f 1060/4/3 1056/4/3 1059/4/3
f 1063/4/3 1058/4/3 1057/4/3
f 1064/4/3 1058/4/3 1063/4/3
f 1066/4/3 1062/4/3 1061/4/3
f 1067/4/3 1062/4/3 1066/4/3
f 1068/4/3 1066/4/3 1065/4/3
f 1069/4/3 1066/4/3 1068/4/3
f 1071/4/3 1070/4/3 1069/4/3
f 1072/4/3 1070/4/3 1071/4/3
f 1075/4/3 1074/4/3 1073/4/3
f 1076/4/3 1074/4/3 1075/4/3
f 1079/4/3 1078/4/3 1077/4/3
f 1080/4/3 1078/4/3 1079/4/3
f 1085/4/3 1082/4/3 1081/4/3
f 1086/4/3 1082/4/3 1085/4/3
f 1089/4/3 1084/4/3 1083/4/3
f 1090/4/3 1084/4/3 1089/4/3
f 1092/4/3 1088/4/3 1087/4/3
f 1093/4/3 1088/4/3 1092/4/3
f 1094/4/3 1092/4/3 1091/4/3
f 1095/4/3 1092/4/3 1094/4/3
f 1097/4/3 1096/4/3 1095/4/3
f 1098/4/3 1096/4/3 1097/4/3
f 1101/4/3 1100/4/3 1099/4/3
f 1102/4/3 1100/4/3 1101/4/3
f 1105/4/3 1104/4/3 1103/4/3
f 1106/4/3 1104/4/3 1105/4/3
f 1111/4/3 1108/4/3 1107/4/3
f 1112/4/3 1108/4/3 1111/4/3
f 1115/4/3 1110/4/3 1109/4/3
f 1116/4/3 1110/4/3 1115/4/3
f 1118/4/3 1114/4/3 1113/4/3
f 1119/4/3 1114/4/3 1118/4/3
f 1122/4/3 1121/4/3 1120/4/3
f 1123/4/3 1121/4/3 1122/4/3
f 1124/4/3 1118/4/3 1117/4/3
f 1125/4/3 1118/4/3 1124/4/3
f 1127/4/3 1126/4/3 1125/4/3
f 1128/4/3 1126/4/3 1127/4/3
f 1131/4/3 1130/4/3 1129/4/3
f 1132/4/3 1130/4/3 1131/4/3
f 1135/4/3 1134/4/3 1133/4/3
f 1136/4/3 1134/4/3 1135/4/3
f 1141/4/3 1138/4/3 1137/4/3
f 1142/4/3 1138/4/3 1141/4/3
f 1145/4/3 1140/4/3 1139/4/3
f 1146/4/3 1140/4/3 1145/4/3
f 1148/4/3 1144/4/3 1143/4/3
f 1149/4/3 1144/4/3 1148/4/3
f 1150/4/3 1148/4/3 1147/4/3
f 1151/4/3 1148/4/3 1150/4/3
f 1153/4/3 1152/4/3 1151/4/3
f 1154/4/3 1152/4/3 1153/4/3
f 1157/4/3 1156/4/3 1155/4/3
f 1158/4/3 1156/4/3 1157/4/3
f 1161/4/3 1160/4/3 1159/4/3
f 1162/4/3 1160/4/3 1161/4/3
f 1167/4/3 1164/4/3 1163/4/3
f 1168/4/3 1164/4/3 1167/4/3
f 1171/4/3 1166/4/3 1165/4/3
f 1172/4/3 1166/4/3 1171/4/3
f 1173/4/3 1170/4/3 1169/4/3
f 1174/4/3 1170/4/3 1173/4/3
f 1177/4/3 1176/4/3 1175/4/3
f 1178/4/3 1176/4/3 1177/4/3
f 1181/4/3 1180/4/3 1179/4/3
f 1182/4/3 1180/4/3 1181/4/3
f 1185/4/3 1184/4/3 1183/4/3
f 1186/4/3 1184/4/3 1185/4/3
f 1191/4/3 1188/4/3 1187/4/3
f 1192/4/3 1188/4/3 1191/4/3
f 1193/4/3 1190/4/3 1189/4/3
f 1194/4/3 1190/4/3 1193/4/3
f 1197/4/3 1196/4/3 1195/4/3
f 1198/4/3 1196/4/3 1197/4/3
f 1201/4/3 1200/4/3 1199/4/3
f 1202/4/3 1200/4/3 1201/4/3
f 1205/4/3 1204/4/3 1203/4/3
f 1206/4/3 1204/4/3 1205/4/3
f 1209/4/3 1208/4/3 1207/4/3
f 1210/4/3 1208/4/3 1209/4/3
f 1213/5/3 1212/5/3 1211/5/3
f 1214/5/3 1212/5/3 1213/5/3
f 1217/5/3 1216/5/3 1215/5/3
f 1218/5/3 1216/5/3 1217/5/3
f 1219/4/4 1220/4/4 1221/4/4
f 1221/4/4 1220/4/4 1222/4/4
f 1223/4/4 1224/4/4 1225/4/4
f 1225/4/4 1224/4/4 1226/4/4
f 1227/4/4 1228/4/4 1231/4/4
f 1231/4/4 1228/4/4 1232/4/4
f 1229/4/4 1230/4/4 1233/4/4
f 1233/4/4 1230/4/4 1234/4/4
f 1235/4/4 1236/4/4 1238/4/4
f 1236/5/4 1237/5/4 1239/5/4
f 1238/4/4 1236/4/4 1239/4/4
f 1239/5/4 1237/5/4 1240/5/4
f 1240/5/4 1237/5/4 1241/5/4
f 1239/4/4 1240/4/4 1244/4/4
f 1244/4/4 1240/4/4 1245/4/4
f 1242/4/4 1243/4/4 1246/4/4
f 1246/4/4 1243/4/4 1247/4/4
f 1248/4/4 1249/4/4 1251/4/4
f 1251/4/4 1249/4/4 1252/4/4
f 1250/4/4 1251/4/4 1258/4/4
f 1251/5/4 1252/5/4 1259/5/4
f 1258/4/4 1251/4/4 1259/4/4
f 1252/5/4 1253/5/4 1259/5/4
f 1259/5/4 1253/5/4 1260/5/4
f 1254/4/4 1255/4/4 1261/4/4
f 1261/4/4 1255/4/4 1262/4/4
f 1256/4/4 1257/4/4 1263/4/4
f 1263/4/4 1257/4/4 1264/4/4
f 1265/4/4 1266/4/4 1267/4/4
f 1267/4/4 1266/4/4 1268/4/4
f 1269/4/4 1270/4/4 1273/4/4
f 1273/4/4 1270/4/4 1274/4/4
f 1271/4/4 1272/4/4 1276/4/4
f 1276/4/4 1272/4/4 1277/4/4
f 1274/4/4 1275/4/4 1278/4/4
f 1278/4/4 1275/4/4 1279/4/4
f 1279/4/4 1280/4/4 1284/4/4
f 1284/4/4 1280/4/4 1285/4/4
f 1281/4/4 1282/4/4 1286/4/4
f 1286/4/4 1282/4/4 1287/4/4
f 1283/4/4 1284/4/4 1289/4/4
f 1289/4/4 1284/4/4 1290/4/4
f 1288/4/4 1289/4/4 1293/4/4
f 1293/4/4 1289/4/4 1294/4/4
f 1291/4/4 1292/4/4 1295/4/4
f 1295/4/4 1292/4/4 1296/4/4
f 1297/2/4 1298/2/4 1301/2/4
f 1298/4/4 1299/4/4 1302/4/4
f 1301/2/4 1298/2/4 1302/2/4
f 1299/3/4 1300/3/4 1303/3/4
f 1302/4/4 1299/4/4 1303/4/4
f 1303/3/4 1300/3/4 1304/3/4
f 1307/4/4 1308/4/4 1309/4/4
f 1304/3/4 1305/3/4 1311/3/4
f 1303/3/4 1304/3/4 1311/3/4
f 1311/3/4 1305/3/4 1312/3/4
f 1306/3/4 1307/3/4 1313/3/4
f 1309/4/4 1310/4/4 1314/4/4
f 1307/4/4 1309/4/4 1314/4/4
f 1313/3/4 1307/3/4 1314/3/4
f 1314/4/4 1310/4/4 1315/4/4
f 1312/5/4 1313/5/4 1318/5/4
f 1313/5/4 1314/5/4 1318/5/4
f 1318/5/4 1314/5/4 1319/5/4
f 1315/4/4 1316/4/4 1320/4/4
f 1319/5/4 1314/5/4 1320/5/4
f 1314/4/4 1315/4/4 1320/4/4
f 1320/4/4 1316/4/4 1321/4/4
f 1321/4/4 1316/4/4 1322/4/4
f 1320/4/4 1321/4/4 1323/4/4
f 1323/4/4 1321/4/4 1324/4/4
f 1317/3/4 1318/3/4 1327/3/4
f 1327/3/4 1318/3/4 1328/3/4
f 1319/3/4 1320/3/4 1329/3/4
f 1320/4/4 1323/4/4 1330/4/4
f 1329/3/4 1320/3/4 1330/3/4
f 1330/4/4 1323/4/4 1331/4/4
f 1325/2/4 1326/2/4 1332/2/4
f 1326/4/4 1327/4/4 1333/4/4
f 1332/2/4 1326/2/4 1333/2/4
f 1333/4/4 1327/4/4 1334/4/4
f 1335/4/4 1336/4/4 1337/4/4
f 1337/4/4 1336/4/4 1338/4/4
f 1339/4/4 1340/4/4 1341/4/4
f 1341/4/4 1340/4/4 1342/4/4
f 1343/5/4 1344/5/4 1345/5/4
f 1345/5/4 1344/5/4 1346/5/4
f 1347/4/4 1348/4/4 1349/4/4
f 1349/4/4 1348/4/4 1350/4/4
f 1351/4/4 1352/4/4 1353/4/4
f 1353/4/4 1352/4/4 1354/4/4
f 1355/3/4 1356/3/4 1359/3/4
f 1359/3/4 1356/3/4 1360/3/4
f 1357/4/4 1358/4/4 1363/4/4
f 1363/4/4 1358/4/4 1364/4/4
f 1361/2/4 1362/2/4 1365/2/4
f 1365/2/4 1362/2/4 1366/2/4
f 1366/2/4 1367/2/4 1369/2/4
f 1367/4/4 1368/4/4 1370/4/4
f 1369/2/4 1367/2/4 1370/2/4
f 1370/4/4 1368/4/4 1371/4/4
f 1369/5/4 1370/5/4 1372/5/4
f 1370/5/4 1371/5/4 1372/5/4
f 1372/5/4 1371/5/4 1373/5/4
f 1373/5/4 1371/5/4 1374/5/4
f 1372/2/4 1373/2/4 1378/2/4
f 1373/4/4 1374/4/4 1379/4/4
f 1378/2/4 1373/2/4 1379/2/4
f 1379/4/4 1374/4/4 1380/4/4
f 1375/4/4 1376/4/4 1381/4/4
f 1381/4/4 1376/4/4 1382/4/4
f 1377/2/4 1378/2/4 1385/2/4
f 1385/2/4 1378/2/4 1386/2/4
f 1383/3/4 1384/3/4 1389/3/4
f 1389/3/4 1384/3/4 1390/3/4
f 1387/4/4 1388/4/4 1391/4/4
f 1391/4/4 1388/4/4 1392/4/4
f 1393/4/4 1394/4/4 1397/4/4
f 1397/4/4 1394/4/4 1398/4/4
f 1395/4/4 1396/4/4 1401/4/4
f 1401/4/4 1396/4/4 1402/4/4
f 1399/3/4 1400/3/4 1403/3/4
f 1403/3/4 1400/3/4 1404/3/4
f 1405/4/4 1406/4/4 1407/4/4
f 1407/4/4 1406/4/4 1408/4/4
f 1408/2/4 1409/2/4 1410/2/4
f 1410/2/4 1409/2/4 1411/2/4
f 1410/5/4 1411/5/4 1412/5/4
f 1412/5/4 1411/5/4 1413/5/4
f 1412/2/4 1413/2/4 1415/2/4
f 1415/2/4 1413/2/4 1416/2/4
f 1414/4/4 1415/4/4 1421/4/4
f 1421/4/4 1415/4/4 1422/4/4
f 1417/4/4 1418/4/4 1423/4/4
f 1423/4/4 1418/4/4 1424/4/4
f 1419/3/4 1420/3/4 1427/3/4
f 1427/3/4 1420/3/4 1428/3/4
f 1425/4/4 1426/4/4 1429/4/4
f 1429/4/4 1426/4/4 1430/4/4
f 1431/4/4 1432/4/4 1435/4/4
f 1435/4/4 1432/4/4 1436/4/4
f 1433/4/4 1434/4/4 1439/4/4
f 1439/4/4 1434/4/4 1440/4/4
f 1437/4/4 1438/4/4 1441/4/4
f 1441/4/4 1438/4/4 1442/4/4
f 1443/3/4 1444/3/4 1445/3/4
f 1445/3/4 1444/3/4 1446/3/4
f 1446/4/4 1447/4/4 1448/4/4
f 1448/4/4 1447/4/4 1449/4/4
f 1448/5/4 1449/5/4 1450/5/4
f 1450/5/4 1449/5/4 1451/5/4
f 1450/4/4 1451/4/4 1453/4/4
f 1453/4/4 1451/4/4 1454/4/4
f 1452/3/4 1453/3/4 1459/3/4
f 1459/3/4 1453/3/4 1460/3/4
f 1455/4/4 1456/4/4 1461/4/4
f 1461/4/4 1456/4/4 1462/4/4
f 1457/4/4 1458/4/4 1465/4/4
f 1465/4/4 1458/4/4 1466/4/4
f 1463/4/4 1464/4/4 1467/4/4
f 1467/4/4 1464/4/4 1468/4/4
f 1471/4/4 1472/4/4 1473/4/4
f 1473/4/4 1472/4/4 1474/4/4
f 1469/4/4 1470/4/4 1477/4/4
f 1477/4/4 1470/4/4 1478/4/4
f 1475/4/4 1476/4/4 1479/4/4
f 1479/4/4 1476/4/4 1480/4/4
f 1481/3/4 1482/3/4 1485/3/4
f 1485/3/4 1482/3/4 1486/3/4
f 1486/3/4 1487/3/4 1488/3/4
f 1488/3/4 1487/3/4 1489/3/4
f 1488/5/4 1489/5/4 1490/5/4
f 1490/5/4 1489/5/4 1491/5/4
f 1483/4/4 1484/4/4 1492/4/4
f 1492/4/4 1484/4/4 1493/4/4
f 1490/3/4 1491/3/4 1495/3/4
f 1495/3/4 1491/3/4 1496/3/4
f 1494/3/4 1495/3/4 1501/3/4
f 1501/3/4 1495/3/4 1502/3/4
f 1499/4/4 1500/4/4 1505/4/4
f 1505/4/4 1500/4/4 1506/4/4
f 1497/4/4 1498/4/4 1507/4/4
f 1507/4/4 1498/4/4 1508/4/4
f 1503/4/4 1504/4/4 1509/4/4
f 1509/4/4 1504/4/4 1510/4/4
f 1511/4/4 1512/4/4 1513/4/4
f 1513/4/4 1512/4/4 1514/4/4
f 1511/4/4 1513/4/4 1519/4/4
f 1519/4/4 1513/4/4 1520/4/4
f 1515/4/4 1516/4/4 1521/4/4
f 1521/4/4 1516/4/4 1522/4/4
f 1523/4/4 1524/4/4 1525/4/4
f 1525/4/4 1524/4/4 1526/4/4
f 1526/3/4 1527/3/4 1528/3/4
f 1528/3/4 1527/3/4 1529/3/4
f 1528/5/4 1529/5/4 1530/5/4
f 1530/5/4 1529/5/4 1531/5/4
f 1530/3/4 1531/3/4 1533/3/4
f 1533/3/4 1531/3/4 1534/3/4
f 1517/4/4 1518/4/4 1535/4/4
f 1535/4/4 1518/4/4 1536/4/4
f 1532/4/4 1533/4/4 1541/4/4
f 1541/4/4 1533/4/4 1542/4/4
f 1537/4/4 1538/4/4 1543/4/4
f 1539/4/4 1540/4/4 1545/4/4
f 1545/4/4 1540/4/4 1546/4/4
f 1543/4/4 1544/4/4 1547/4/4
f 1537/4/4 1543/4/4 1547/4/4
f 1547/4/4 1544/4/4 1548/4/4
f 1549/4/4 1550/4/4 1555/4/4
f 1555/4/4 1550/4/4 1556/4/4
f 1551/4/4 1552/4/4 1557/4/4
f 1557/4/4 1552/4/4 1558/4/4
f 1559/4/4 1560/4/4 1561/4/4
f 1561/4/4 1560/4/4 1562/4/4
f 1553/4/4 1554/4/4 1565/4/4
f 1565/4/4 1554/4/4 1566/4/4
f 1563/4/4 1564/4/4 1571/4/4
f 1571/4/4 1564/4/4 1572/4/4
f 1567/4/4 1568/4/4 1573/4/4
f 1573/4/4 1568/4/4 1574/4/4
f 1569/4/4 1570/4/4 1575/4/4
f 1575/4/4 1570/4/4 1576/4/4
f 1577/4/4 1578/4/4 1580/4/4
f 1580/4/4 1578/4/4 1581/4/4
f 1579/4/4 1580/4/4 1584/4/4
f 1584/4/4 1580/4/4 1585/4/4
f 1582/4/4 1583/4/4 1586/4/4
f 1586/4/4 1583/4/4 1587/4/4
f 1579/4/4 1584/4/4 1590/4/4
f 1590/4/4 1584/4/4 1591/4/4
f 1588/4/4 1589/4/4 1592/4/4
f 1592/4/4 1589/4/4 1593/4/4
f 1594/4/4 1595/4/4 1598/4/4
f 1596/4/4 1597/4/4 1602/4/4
f 1602/4/4 1597/4/4 1603/4/4
f 1594/4/4 1598/4/4 1604/4/4
f 1598/4/4 1599/4/4 1604/4/4
f 1604/4/4 1599/4/4 1605/4/4
f 1600/4/4 1601/4/4 1607/4/4
f 1607/4/4 1601/4/4 1608/4/4
f 1605/4/4 1606/4/4 1609/4/4
f 1609/4/4 1606/4/4 1610/4/4
f 1611/3/4 1612/3/4 1615/3/4
f 1615/3/4 1612/3/4 1616/3/4
f 1613/3/4 1614/3/4 1620/3/4
f 1620/3/4 1614/3/4 1621/3/4
f 1617/3/4 1618/3/4 1622/3/4
f 1622/3/4 1618/3/4 1623/3/4
f 1619/3/4 1620/3/4 1625/3/4
f 1625/3/4 1620/3/4 1626/3/4
f 1623/3/4 1624/3/4 1629/3/4
f 1629/3/4 1624/3/4 1630/3/4
f 1626/3/4 1627/3/4 1631/3/4
f 1631/3/4 1627/3/4 1632/3/4
f 1628/3/4 1629/3/4 1635/3/4
f 1635/3/4 1629/3/4 1636/3/4
f 1633/3/4 1634/3/4 1637/3/4
f 1637/3/4 1634/3/4 1638/3/4
f 1639/3/4 1640/3/4 1642/3/4
f 1642/3/4 1640/3/4 1643/3/4
f 1641/3/4 1642/3/4 1644/3/4
f 1644/3/4 1642/3/4 1645/3/4
f 1645/3/4 1646/3/4 1647/3/4
f 1647/3/4 1646/3/4 1648/3/4
f 1649/5/4 1650/5/4 1651/5/4
f 1651/5/4 1650/5/4 1652/5/4
f 1653/5/4 1654/5/4 1655/5/4
f 1655/5/4 1654/5/4 1656/5/4
f 1657/5/4 1658/5/4 1659/5/4
f 1659/5/4 1658/5/4 1660/5/4
f 1661/5/4 1662/5/4 1663/5/4
f 1663/5/4 1662/5/4 1664/5/4
f 1665/5/4 1666/5/4 1667/5/4
f 1667/5/4 1666/5/4 1668/5/4
f 1669/5/4 1670/5/4 1671/5/4
f 1671/5/4 1670/5/4 1672/5/4
f 1676/4/5 1674/4/5 1673/4/5
f 1677/4/5 1674/4/5 1676/4/5
f 1679/4/5 1676/4/5 1675/4/5
f 1679/4/5 1678/4/5 1677/4/5
f 1679/4/5 1677/4/5 1676/4/5
f 1680/4/5 1678/4/5 1679/4/5
f 1681/4/5 1678/4/5 1680/4/5
f 1682/4/5 1678/4/5 1681/4/5
f 1683/4/5 1681/4/5 1680/4/5
f 1684/4/5 1681/4/5 1683/4/5
f 1688/4/5 1686/4/5 1685/4/5
f 1689/4/5 1686/4/5 1688/4/5
f 1691/4/5 1688/4/5 1687/4/5
f 1692/4/5 1688/4/5 1691/4/5
f 1693/4/5 1690/4/5 1689/4/5
f 1694/4/5 1690/4/5 1693/4/5
f 1701/4/5 1696/4/5 1695/4/5
f 1701/4/5 1697/4/5 1696/4/5
f 1702/4/5 1697/4/5 1701/4/5
f 1703/4/5 1699/4/5 1698/4/5
f 1703/4/5 1700/4/5 1699/4/5
f 1704/4/5 1700/4/5 1703/4/5
f 1705/4/5 1697/4/5 1702/4/5
f 1706/4/5 1703/4/5 1698/4/5
f 1707/4/5 1705/4/5 1702/4/5
f 1707/4/5 1706/4/5 1705/4/5
f 1708/4/5 1703/4/5 1706/4/5
f 1708/4/5 1706/4/5 1707/4/5
f 1712/4/5 1710/4/5 1709/4/5
f 1713/4/5 1710/4/5 1712/4/5
f 1715/4/5 1712/4/5 1711/4/5
f 1716/4/5 1712/4/5 1715/4/5
f 1717/4/5 1714/4/5 1713/4/5
f 1718/4/5 1714/4/5 1717/4/5
f 1723/4/5 1720/4/5 1719/4/5
f 1724/4/5 1720/4/5 1723/4/5
f 1725/4/5 1722/4/5 1721/4/5
f 1726/4/5 1722/4/5 1725/4/5
f 1731/4/5 1728/4/5 1727/4/5
f 1732/4/5 1728/4/5 1731/4/5
f 1733/4/5 1730/4/5 1729/4/5
f 1734/4/5 1730/4/5 1733/4/5
f 1737/4/5 1736/4/5 1735/4/5
f 1738/4/5 1736/4/5 1737/4/5
f 1742/4/5 1740/4/5 1739/4/5
f 1743/4/5 1740/4/5 1742/4/5
f 1745/4/5 1742/4/5 1741/4/5
f 1746/4/5 1742/4/5 1745/4/5
f 1747/4/5 1744/4/5 1743/4/5
f 1748/4/5 1744/4/5 1747/4/5
f 1753/4/5 1750/4/5 1749/4/5
f 1754/4/5 1750/4/5 1753/4/5
f 1755/4/5 1752/4/5 1751/4/5
f 1756/4/5 1752/4/5 1755/4/5
f 1761/4/5 1758/4/5 1757/4/5
f 1764/4/5 1760/4/5 1759/4/5
f 1765/4/5 1762/4/5 1761/4/5
f 1765/4/5 1761/4/5 1757/4/5
f 1766/4/5 1762/4/5 1765/4/5
f 1767/4/5 1764/4/5 1763/4/5
f 1768/4/5 1760/4/5 1764/4/5
f 1768/4/5 1764/4/5 1767/4/5
f 1771/4/5 1770/4/5 1769/4/5
f 1772/4/5 1770/4/5 1771/4/5
f 1773/4/5 1770/4/5 1772/4/5
f 1774/4/5 1770/4/5 1773/4/5
f 1775/4/5 1773/4/5 1772/4/5
f 1776/4/5 1773/4/5 1775/4/5
f 1777/3/5 1776/3/5 1775/3/5
f 1778/3/5 1776/3/5 1777/3/5
f 1782/4/5 1780/4/5 1779/4/5
f 1783/4/5 1780/4/5 1782/4/5
f 1785/4/5 1782/4/5 1781/4/5
f 1786/4/5 1782/4/5 1785/4/5
f 1787/4/5 1784/4/5 1783/4/5
f 1788/4/5 1784/4/5 1787/4/5
f 1793/4/5 1790/4/5 1789/4/5
f 1794/4/5 1790/4/5 1793/4/5
f 1795/4/5 1792/4/5 1791/4/5
f 1796/4/5 1792/4/5 1795/4/5
f 1801/4/5 1798/4/5 1797/4/5
f 1802/4/5 1798/4/5 1801/4/5
f 1803/4/5 1800/4/5 1799/4/5
f 1804/4/5 1800/4/5 1803/4/5
f 1809/4/5 1806/4/5 1805/4/5
f 1810/4/5 1806/4/5 1809/4/5
f 1811/4/5 1808/4/5 1807/4/5
f 1812/4/5 1808/4/5 1811/4/5
f 1817/4/5 1814/4/5 1813/4/5
f 1818/4/5 1814/4/5 1817/4/5
f 1819/4/5 1816/4/5 1815/4/5
f 1820/4/5 1816/4/5 1819/4/5
f 1821/3/5 1818/3/5 1817/3/5
f 1822/3/5 1818/3/5 1821/3/5
f 1823/3/5 1820/3/5 1819/3/5
f 1824/3/5 1820/3/5 1823/3/5
f 1825/3/5 1823/3/5 1822/3/5
f 1826/3/5 1823/3/5 1825/3/5
f 1830/4/5 1828/4/5 1827/4/5
f 1831/4/5 1828/4/5 1830/4/5
f 1833/4/5 1830/4/5 1829/4/5
f 1834/4/5 1830/4/5 1833/4/5
f 1835/4/5 1832/4/5 1831/4/5
f 1836/4/5 1832/4/5 1835/4/5
f 1841/4/5 1838/4/5 1837/4/5
f 1842/4/5 1838/4/5 1841/4/5
f 1843/4/5 1840/4/5 1839/4/5
f 1844/4/5 1840/4/5 1843/4/5
f 1849/4/5 1846/4/5 1845/4/5
f 1850/4/5 1846/4/5 1849/4/5
f 1851/4/5 1848/4/5 1847/4/5
f 1852/4/5 1848/4/5 1851/4/5
f 1857/4/5 1854/4/5 1853/4/5
f 1858/4/5 1854/4/5 1857/4/5
f 1859/4/5 1856/4/5 1855/4/5
f 1860/4/5 1856/4/5 1859/4/5
f 1865/3/5 1862/3/5 1861/3/5
f 1866/3/5 1862/3/5 1865/3/5
f 1867/3/5 1864/3/5 1863/3/5
f 1868/3/5 1864/3/5 1867/3/5
f 1869/5/5 1867/5/5 1866/5/5
f 1870/5/5 1867/5/5 1869/5/5
f 1871/5/5 1867/5/5 1870/5/5
f 1872/5/5 1867/5/5 1871/5/5
f 1873/5/5 1871/5/5 1870/5/5
f 1874/5/5 1871/5/5 1873/5/5
f 1878/4/5 1876/4/5 1875/4/5
f 1879/4/5 1876/4/5 1878/4/5
f 1881/4/5 1878/4/5 1877/4/5
f 1882/4/5 1878/4/5 1881/4/5
f 1883/4/5 1880/4/5 1879/4/5
f 1884/4/5 1880/4/5 1883/4/5
f 1889/4/5 1886/4/5 1885/4/5
f 1890/4/5 1886/4/5 1889/4/5
f 1891/4/5 1888/4/5 1887/4/5
f 1892/4/5 1888/4/5 1891/4/5
f 1897/4/5 1894/4/5 1893/4/5
f 1898/4/5 1894/4/5 1897/4/5
f 1899/4/5 1896/4/5 1895/4/5
f 1900/4/5 1896/4/5 1899/4/5
f 1905/4/5 1902/4/5 1901/4/5
f 1906/4/5 1902/4/5 1905/4/5
f 1909/4/5 1904/4/5 1903/4/5
f 1910/4/5 1904/4/5 1909/4/5
f 1911/4/5 1907/4/5 1906/4/5
f 1912/4/5 1907/4/5 1911/4/5
f 1913/4/5 1909/4/5 1908/4/5
f 1914/4/5 1909/4/5 1913/4/5
f 1915/3/5 1912/3/5 1911/3/5
f 1916/3/5 1912/3/5 1915/3/5
f 1917/3/5 1914/3/5 1913/3/5
f 1918/3/5 1914/3/5 1917/3/5
f 1923/5/5 1920/5/5 1919/5/5
f 1924/5/5 1922/5/5 1921/5/5
f 1925/5/5 1923/5/5 1919/5/5
f 1925/5/5 1924/5/5 1923/5/5
f 1926/5/5 1922/5/5 1924/5/5
f 1926/5/5 1924/5/5 1925/5/5
f 1930/4/5 1928/4/5 1927/4/5
f 1931/4/5 1928/4/5 1930/4/5
f 1933/4/5 1930/4/5 1929/4/5
f 1934/4/5 1930/4/5 1933/4/5
f 1935/4/5 1932/4/5 1931/4/5
f 1936/4/5 1932/4/5 1935/4/5
f 1941/4/5 1938/4/5 1937/4/5
f 1942/4/5 1938/4/5 1941/4/5
f 1943/4/5 1940/4/5 1939/4/5
f 1944/4/5 1940/4/5 1943/4/5
f 1949/4/5 1946/4/5 1945/4/5
f 1950/4/5 1946/4/5 1949/4/5
f 1951/4/5 1948/4/5 1947/4/5
f 1952/4/5 1948/4/5 1951/4/5
f 1955/5/5 1954/5/5 1953/5/5
f 1956/5/5 1954/5/5 1955/5/5
f 1961/4/5 1958/4/5 1957/4/5
f 1962/4/5 1958/4/5 1961/4/5
f 1963/4/5 1960/4/5 1959/4/5
f 1964/4/5 1960/4/5 1963/4/5
f 1969/4/5 1966/4/5 1965/4/5
f 1970/4/5 1966/4/5 1969/4/5
f 1971/4/5 1968/4/5 1967/4/5
f 1972/4/5 1968/4/5 1971/4/5
f 1977/4/5 1974/4/5 1973/4/5
f 1978/4/5 1974/4/5 1977/4/5
f 1979/4/5 1976/4/5 1975/4/5
f 1980/4/5 1976/4/5 1979/4/5
f 1983/4/5 1982/4/5 1981/4/5
f 1984/4/5 1982/4/5 1983/4/5
f 1989/4/5 1986/4/5 1985/4/5
f 1990/4/5 1986/4/5 1989/4/5
f 1991/4/5 1988/4/5 1987/4/5
f 1992/4/5 1988/4/5 1991/4/5
f 1997/4/5 1994/4/5 1993/4/5
f 1998/4/5 1994/4/5 1997/4/5
f 1999/4/5 1996/4/5 1995/4/5
f 2000/4/5 1996/4/5 1999/4/5
f 2003/4/5 2002/4/5 2001/4/5
f 2004/4/5 2002/4/5 2003/4/5
f 2007/4/5 2006/4/5 2005/4/5
f 2008/4/5 2006/4/5 2007/4/5
f 2009/4/5 2007/4/5 2005/4/5
f 2010/4/5 2007/4/5 2009/4/5
f 2013/4/5 2006/4/5 2008/4/5
f 2014/4/5 2006/4/5 2013/4/5
f 2015/3/5 2011/3/5 2010/3/5
f 2015/3/5 2010/3/5 2009/3/5
f 2016/3/5 2011/3/5 2015/3/5
f 2017/3/5 2014/3/5 2013/3/5
f 2017/3/5 2013/3/5 2012/3/5
f 2018/3/5 2014/3/5 2017/3/5
f 2021/4/5 2020/4/5 2019/4/5
f 2022/4/5 2020/4/5 2021/4/5
f 2027/4/5 2024/4/5 2023/4/5
f 2028/4/5 2024/4/5 2027/4/5
f 2029/4/5 2026/4/5 2025/4/5
f 2030/4/5 2026/4/5 2029/4/5
f 2034/4/5 2032/4/5 2031/4/5
f 2035/4/5 2032/4/5 2034/4/5
f 2037/4/5 2034/4/5 2033/4/5
f 2037/4/5 2036/4/5 2035/4/5
f 2037/4/5 2035/4/5 2034/4/5
f 2038/4/5 2036/4/5 2037/4/5
f 2043/4/5 2040/4/5 2039/4/5
f 2044/4/5 2040/4/5 2043/4/5
f 2045/4/5 2042/4/5 2041/4/5
f 2046/4/5 2042/4/5 2045/4/5
f 2051/4/5 2048/4/5 2047/4/5
f 2052/4/5 2048/4/5 2051/4/5
f 2053/4/5 2050/4/5 2049/4/5
f 2054/4/5 2050/4/5 2053/4/5
f 2057/5/5 2056/5/5 2055/5/5
f 2058/5/5 2056/5/5 2057/5/5
f 2061/4/5 2060/4/5 2059/4/5
f 2062/4/5 2060/4/5 2061/4/5
f 2063/4/6 2064/4/6 2067/4/6
f 2067/4/6 2064/4/6 2068/4/6
f 2065/4/6 2066/4/6 2069/4/6
f 2069/4/6 2066/4/6 2070/4/6
f 2071/4/6 2072/4/6 2075/4/6
f 2075/4/6 2072/4/6 2076/4/6
f 2073/4/6 2074/4/6 2077/4/6
f 2077/4/6 2074/4/6 2078/4/6
f 2079/4/6 2080/4/6 2083/4/6
f 2083/4/6 2080/4/6 2084/4/6
f 2081/4/6 2082/4/6 2085/4/6
f 2085/4/6 2082/4/6 2086/4/6
f 2087/4/6 2088/4/6 2091/4/6
f 2091/4/6 2088/4/6 2092/4/6
f 2089/4/6 2090/4/6 2093/4/6
f 2093/4/6 2090/4/6 2094/4/6
f 2095/4/6 2096/4/6 2099/4/6
f 2099/4/6 2096/4/6 2100/4/6
f 2097/4/6 2098/4/6 2101/4/6
f 2101/4/6 2098/4/6 2102/4/6
f 2103/4/6 2104/4/6 2107/4/6
f 2107/4/6 2104/4/6 2108/4/6
f 2105/4/6 2106/4/6 2109/4/6
f 2109/4/6 2106/4/6 2110/4/6
f 2107/3/6 2108/3/6 2111/3/6
f 2111/3/6 2108/3/6 2112/3/6
f 2109/3/6 2110/3/6 2113/3/6
f 2113/3/6 2110/3/6 2114/3/6
f 2115/4/6 2116/4/6 2119/4/6
f 2119/4/6 2116/4/6 2120/4/6
f 2117/4/6 2118/4/6 2121/4/6
f 2121/4/6 2118/4/6 2122/4/6
f 2123/4/6 2124/4/6 2127/4/6
f 2127/4/6 2124/4/6 2128/4/6
f 2125/4/6 2126/4/6 2129/4/6
f 2129/4/6 2126/4/6 2130/4/6
f 2131/4/6 2132/4/6 2135/4/6
f 2135/4/6 2132/4/6 2136/4/6
f 2133/4/6 2134/4/6 2137/4/6
f 2137/4/6 2134/4/6 2138/4/6
f 2139/3/6 2140/3/6 2143/3/6
f 2143/3/6 2140/3/6 2144/3/6
f 2141/3/6 2142/3/6 2145/3/6
f 2145/3/6 2142/3/6 2146/3/6
f 2149/4/6 2150/4/6 2151/4/6
f 2151/4/6 2150/4/6 2152/4/6
f 2147/4/6 2148/4/6 2153/4/6
f 2153/4/6 2148/4/6 2154/4/6
f 2155/4/6 2156/4/6 2159/4/6
f 2159/4/6 2156/4/6 2160/4/6
f 2157/4/6 2158/4/6 2161/4/6
f 2161/4/6 2158/4/6 2162/4/6
f 2163/4/6 2164/4/6 2167/4/6
f 2167/4/6 2164/4/6 2168/4/6
f 2165/4/6 2166/4/6 2169/4/6
f 2169/4/6 2166/4/6 2170/4/6
f 2171/4/6 2172/4/6 2175/4/6
f 2175/4/6 2172/4/6 2176/4/6
f 2173/4/6 2174/4/6 2177/4/6
f 2177/4/6 2174/4/6 2178/4/6
f 2175/3/6 2176/3/6 2179/3/6
f 2179/3/6 2176/3/6 2180/3/6
f 2177/3/6 2178/3/6 2181/3/6
f 2181/3/6 2178/3/6 2182/3/6
f 2180/5/6 2181/5/6 2183/5/6
f 2183/5/6 2181/5/6 2184/5/6
f 2185/4/6 2186/4/6 2187/4/6
f 2187/4/6 2186/4/6 2188/4/6
f 2189/4/6 2190/4/6 2193/4/6
f 2193/4/6 2190/4/6 2194/4/6
f 2191/4/6 2192/4/6 2195/4/6
f 2195/4/6 2192/4/6 2196/4/6
f 2197/4/6 2198/4/6 2201/4/6
f 2201/4/6 2198/4/6 2202/4/6
f 2199/4/6 2200/4/6 2205/4/6
f 2205/4/6 2200/4/6 2206/4/6
f 2202/4/6 2203/4/6 2207/4/6
f 2207/4/6 2203/4/6 2208/4/6
f 2204/4/6 2205/4/6 2209/4/6
f 2209/4/6 2205/4/6 2210/4/6
f 2208/4/6 2203/4/6 2211/4/6
f 2203/5/6 2204/5/6 2212/5/6
f 2211/4/6 2203/4/6 2212/4/6
f 2204/4/6 2209/4/6 2213/4/6
f 2212/5/6 2204/5/6 2213/5/6
f 2213/4/6 2209/4/6 2214/4/6
f 2211/3/6 2212/3/6 2215/3/6
f 2212/3/6 2213/3/6 2215/3/6
f 2213/3/6 2214/3/6 2215/3/6
f 2215/3/6 2214/3/6 2216/3/6
f 2217/3/6 2218/3/6 2221/3/6
f 2221/3/6 2218/3/6 2222/3/6
f 2219/3/6 2220/3/6 2223/3/6
f 2223/3/6 2220/3/6 2224/3/6
f 2225/3/6 2226/3/6 2229/3/6
f 2229/3/6 2226/3/6 2230/3/6
f 2227/3/6 2228/3/6 2233/3/6
f 2233/3/6 2228/3/6 2234/3/6
f 2230/3/6 2231/3/6 2235/3/6
f 2231/5/6 2232/5/6 2236/5/6
f 2235/3/6 2231/3/6 2236/3/6
f 2232/3/6 2233/3/6 2237/3/6
f 2236/5/6 2232/5/6 2237/5/6
f 2237/3/6 2233/3/6 2238/3/6
f 2239/3/6 2240/3/6 2243/3/6
f 2243/3/6 2240/3/6 2244/3/6
f 2241/3/6 2242/3/6 2245/3/6
f 2245/3/6 2242/3/6 2246/3/6
f 2247/3/6 2248/3/6 2251/3/6
f 2251/3/6 2248/3/6 2252/3/6
f 2249/3/6 2250/3/6 2255/3/6
f 2255/3/6 2250/3/6 2256/3/6
f 2252/3/6 2253/3/6 2257/3/6
f 2253/5/6 2254/5/6 2258/5/6
f 2257/3/6 2253/3/6 2258/3/6
f 2254/3/6 2255/3/6 2259/3/6
f 2258/5/6 2254/5/6 2259/5/6
f 2259/3/6 2255/3/6 2260/3/6
f 2261/4/6 2262/4/6 2265/4/6
f 2265/4/6 2262/4/6 2266/4/6
f 2263/4/6 2264/4/6 2267/4/6
f 2267/4/6 2264/4/6 2268/4/6
f 2269/4/6 2270/4/6 2273/4/6
f 2273/4/6 2270/4/6 2274/4/6
f 2271/4/6 2272/4/6 2277/4/6
f 2277/4/6 2272/4/6 2278/4/6
f 2274/4/6 2275/4/6 2279/4/6
f 2275/5/6 2276/5/6 2280/5/6
f 2279/4/6 2275/4/6 2280/4/6
f 2276/4/6 2277/4/6 2281/4/6
f 2280/5/6 2276/5/6 2281/5/6
f 2281/4/6 2277/4/6 2282/4/6
f 2283/2/6 2284/2/6 2287/2/6
f 2287/2/6 2284/2/6 2288/2/6
f 2285/2/6 2286/2/6 2291/2/6
f 2291/2/6 2286/2/6 2292/2/6
f 2288/2/6 2289/2/6 2293/2/6
f 2289/5/6 2290/5/6 2294/5/6
f 2293/2/6 2289/2/6 2294/2/6
f 2290/2/6 2291/2/6 2295/2/6
f 2294/5/6 2290/5/6 2295/5/6
f 2295/2/6 2291/2/6 2296/2/6
f 2297/5/6 2298/5/6 2299/5/6
f 2299/5/6 2298/5/6 2300/5/6
f 2297/5/6 2299/5/6 2301/5/6
f 2300/5/6 2298/5/6 2302/5/6
f 2297/5/6 2301/5/6 2303/5/6
f 2301/5/6 2302/5/6 2303/5/6
f 2302/5/6 2298/5/6 2304/5/6
f 2303/5/6 2302/5/6 2304/5/6
f 2305/5/6 2306/5/6 2307/5/6
f 2307/5/6 2306/5/6 2308/5/6
f 2309/4/6 2310/4/6 2314/4/6
f 2314/4/6 2310/4/6 2315/4/6
f 2311/4/6 2312/4/6 2316/4/6
f 2313/4/6 2314/4/6 2317/4/6
f 2311/4/6 2316/4/6 2318/4/6
f 2316/5/6 2317/5/6 2319/5/6
f 2318/4/6 2316/4/6 2319/4/6
f 2317/4/6 2314/4/6 2320/4/6
f 2319/5/6 2317/5/6 2320/5/6
f 2320/4/6 2314/4/6 2321/4/6
f 2322/3/6 2323/3/6 2325/3/6
f 2325/3/6 2323/3/6 2326/3/6
f 2324/3/6 2325/3/6 2327/3/6
f 2327/3/6 2325/3/6 2328/3/6
f 2329/3/6 2330/3/6 2331/3/6
f 2331/3/6 2330/3/6 2332/3/6
f 2329/3/6 2331/3/6 2333/3/6
f 2332/3/6 2330/3/6 2336/3/6
f 2333/3/6 2334/3/6 2337/3/6
f 2329/3/6 2333/3/6 2337/3/6
f 2337/3/6 2334/3/6 2338/3/6
f 2335/3/6 2336/3/6 2339/3/6
f 2336/3/6 2330/3/6 2340/3/6
f 2339/3/6 2336/3/6 2340/3/6
f 2338/5/6 2339/5/6 2341/5/6
f 2341/5/6 2339/5/6 2342/5/6
f 2343/5/6 2344/5/6 2345/5/6
f 2345/5/6 2344/5/6 2346/5/6
f 2347/4/6 2348/4/6 2351/4/6
f 2351/4/6 2348/4/6 2352/4/6
f 2349/4/6 2350/4/6 2353/4/6
f 2353/4/6 2350/4/6 2354/4/6
f 2355/5/6 2356/5/6 2358/5/6
f 2358/5/6 2356/5/6 2359/5/6
f 2357/4/6 2358/4/6 2362/4/6
f 2359/4/6 2360/4/6 2362/4/6
f 2358/4/6 2359/4/6 2362/4/6
f 2362/4/6 2360/4/6 2363/4/6
f 2361/4/6 2362/4/6 2365/4/6
f 2363/4/6 2364/4/6 2365/4/6
f 2362/4/6 2363/4/6 2365/4/6
f 2365/4/6 2364/4/6 2366/4/6
f 2366/4/6 2364/4/6 2367/4/6
f 2367/4/6 2364/4/6 2368/4/6
f 2368/4/6 2364/4/6 2369/4/6
f 2369/4/6 2364/4/6 2370/4/6
f 2371/4/6 2372/4/6 2375/4/6
f 2375/4/6 2372/4/6 2376/4/6
f 2373/4/6 2374/4/6 2377/4/6
f 2377/4/6 2374/4/6 2378/4/6
f 2379/4/6 2380/4/6 2383/4/6
f 2383/4/6 2380/4/6 2384/4/6
f 2381/4/6 2382/4/6 2385/4/6
f 2385/4/6 2382/4/6 2386/4/6
f 2387/4/6 2388/4/6 2391/4/6
f 2391/4/6 2388/4/6 2392/4/6
f 2389/4/6 2390/4/6 2393/4/6
f 2393/4/6 2390/4/6 2394/4/6
f 2395/4/6 2396/4/6 2399/4/6
f 2399/4/6 2396/4/6 2400/4/6
f 2397/4/6 2398/4/6 2401/4/6
f 2401/4/6 2398/4/6 2402/4/6
f 2403/4/6 2404/4/6 2407/4/6
f 2407/4/6 2404/4/6 2408/4/6
f 2405/4/6 2406/4/6 2409/4/6
f 2409/4/6 2406/4/6 2410/4/6
f 2411/4/6 2412/4/6 2415/4/6
f 2415/4/6 2412/4/6 2416/4/6
f 2413/4/6 2414/4/6 2419/4/6
f 2419/4/6 2414/4/6 2420/4/6
f 2416/4/6 2417/4/6 2421/4/6
f 2421/4/6 2417/4/6 2422/4/6
f 2418/4/6 2419/4/6 2423/4/6
f 2423/4/6 2419/4/6 2424/4/6
f 2425/4/6 2426/4/6 2429/4/6
f 2429/4/6 2426/4/6 2430/4/6
f 2427/4/6 2428/4/6 2431/4/6
f 2431/4/6 2428/4/6 2432/4/6
f 2433/4/6 2434/4/6 2437/4/6
f 2437/4/6 2434/4/6 2438/4/6
f 2435/4/6 2436/4/6 2439/4/6
f 2439/4/6 2436/4/6 2440/4/6
f 2438/4/6 2439/4/6 2441/4/6
f 2441/4/6 2439/4/6 2442/4/6
f 2443/4/6 2444/4/6 2445/4/6
f 2445/4/6 2444/4/6 2446/4/6
f 2443/4/6 2445/4/6 2447/4/6
f 2447/4/6 2445/4/6 2448/4/6
f 2446/4/6 2444/4/6 2449/4/6
f 2449/4/6 2444/4/6 2450/4/6
f 2451/4/6 2452/4/6 2455/4/6
f 2455/4/6 2452/4/6 2456/4/6
f 2453/5/6 2454/5/6 2459/5/6
f 2454/4/6 2455/4/6 2460/4/6
f 2459/5/6 2454/5/6 2460/5/6
f 2455/4/6 2456/4/6 2460/4/6
f 2456/4/6 2457/4/6 2460/4/6
f 2457/5/6 2458/5/6 2461/5/6
f 2460/4/6 2457/4/6 2461/4/6
f 2461/5/6 2458/5/6 2462/5/6
f 2460/4/6 2461/4/6 2463/4/6
f 2463/4/6 2461/4/6 2464/4/6
f 2464/4/6 2461/4/6 2465/4/6
f 2465/4/6 2461/4/6 2466/4/6
f 2464/4/6 2465/4/6 2467/4/6
f 2467/4/6 2465/4/6 2468/4/6
f 2469/5/6 2470/5/6 2473/5/6
f 2473/5/6 2470/5/6 2474/5/6
f 2471/5/6 2472/5/6 2475/5/6
f 2475/5/6 2472/5/6 2476/5/6
