# MagicaVoxel @ Ephtracy

# group
o 

# material
mtllib Bridge_Lake_Hills_1.mtl
usemtl palette

# normals
vn -1 0 0
vn 1 0 0
vn 0 0 1
vn 0 0 -1
vn 0 -1 0
vn 0 1 0

# texcoords
vt 0.537109 0.5
vt 0.837891 0.5
vt 0.912109 0.5
vt 0.982422 0.5
vt 0.986328 0.5
vt 0.990234 0.5
vt 0.994141 0.5

# verts
v -2 0 2
v -2 0 -2
v -2 0.3 2
v -2 0.3 -2
v -2 0.5 2
v -2 0.5 -2
v -2 0.6 2
v -2 0.6 1.7
v -2 0.6 1
v -2 0.6 0.5
v -2 0.6 0.4
v -2 0.6 -0.7
v -2 0.6 -2
v -2 0.7 2
v -2 0.7 1.7
v -2 0.7 0.9
v -2 0.7 0.8
v -2 0.7 0.7
v -2 0.7 0.6
v -2 0.7 -0.7
v -2 0.7 -1
v -2 0.8 1
v -2 0.8 0.9
v -2 0.8 0.8
v -2 0.8 0.7
v -2 0.8 0.6
v -2 0.8 0.5
v -2 0.8 0.4
v -2 0.8 -1
v -2 0.8 -1.2
v -2 0.8 -1.8
v -2 0.8 -2
v -2 0.9 1
v -2 0.9 0.9
v -2 0.9 0.5
v -2 0.9 0.4
v -2 0.9 -1.2
v -2 0.9 -1.8
v -1.9 0.6 1.7
v -1.9 0.6 1.6
v -1.9 0.7 2
v -1.9 0.7 1.9
v -1.9 0.7 1.7
v -1.9 0.7 1.6
v -1.9 0.8 2
v -1.9 0.8 1.9
v -1.8 0.7 1.9
v -1.8 0.7 1.7
v -1.8 0.8 1.9
v -1.8 0.8 1.7
v -1.7 0.8 2
v -1.7 0.8 1.9
v -1.7 0.9 2
v -1.7 0.9 1.9
v -1.5 0.8 1.9
v -1.5 0.8 1.8
v -1.5 0.8 1
v -1.5 0.8 0.9
v -1.5 0.8 0.5
v -1.5 0.8 0.4
v -1.5 0.9 1.9
v -1.5 0.9 1.8
v -1.5 0.9 1
v -1.5 0.9 0.9
v -1.5 0.9 0.5
v -1.5 0.9 0.4
v -1.3 0.8 0.5
v -1.3 0.8 0.4
v -1.3 0.9 0.5
v -1.3 0.9 0.4
v -1.1 0.6 1
v -1.1 0.6 0.9
v -1.1 0.6 0.4
v -1.1 0.6 0.3
v -1.1 0.7 1
v -1.1 0.7 0.9
v -1.1 0.8 1
v -1.1 0.8 0.9
v -1.1 0.8 0.4
v -1.1 0.8 0.3
v -1.1 0.9 1
v -1.1 0.9 0.9
v -1 0.8 0.4
v -1 0.8 0.3
v -1 0.9 0.4
v -1 0.9 0.3
v -0.9 0.8 0.9
v -0.9 0.8 0.8
v -0.9 0.9 0.9
v -0.9 0.9 0.8
v -0.7 0.6 0.3
v -0.7 0.6 0.2
v -0.7 0.8 0.9
v -0.7 0.8 0.8
v -0.7 0.8 0.4
v -0.7 0.8 0.3
v -0.7 0.8 0.2
v -0.7 0.9 0.9
v -0.7 0.9 0.8
v -0.7 0.9 0.4
v -0.7 0.9 0.2
v -0.5 0.6 0.2
v -0.5 0.6 0.0999999
v -0.5 0.8 2
v -0.5 0.8 1.9
v -0.5 0.8 0.3
v -0.5 0.8 0.2
v -0.5 0.8 0.0999999
v -0.5 0.9 2
v -0.5 0.9 1.9
v -0.5 0.9 0.3
v -0.5 0.9 0.0999999
v -0.4 0.6 0.0999999
v -0.4 0.6 -2.38419e-07
v -0.4 0.7 1.9
v -0.4 0.7 1.8
v -0.4 0.8 1.9
v -0.4 0.8 1.8
v -0.4 0.8 0.9
v -0.4 0.8 0.7
v -0.4 0.8 0.0999999
v -0.4 0.8 -2.38419e-07
v -0.4 0.9 0.9
v -0.4 0.9 0.7
v -0.4 0.9 0.0999999
v -0.4 0.9 -2.38419e-07
v -0.3 0.6 -2.38419e-07
v -0.3 0.6 -0.1
v -0.3 0.8 -2.38419e-07
v -0.3 0.8 -0.1
v -0.3 0.9 -2.38419e-07
v -0.3 0.9 -0.1
v -0.2 0.6 -0.1
v -0.2 0.6 -0.3
v -0.2 0.7 1.8
v -0.2 0.7 1.7
v -0.2 0.8 1.8
v -0.2 0.8 1.7
v -0.2 0.8 -0.1
v -0.2 0.8 -0.2
v -0.2 0.8 -0.3
v -0.2 0.9 -0.2
v -0.2 0.9 -0.3
v -0.0999999 0.6 1.7
v -0.0999999 0.6 1.6
v -0.0999999 0.6 -0.3
v -0.0999999 0.6 -0.4
v -0.0999999 0.6 -0.9
v -0.0999999 0.6 -1
v -0.0999999 0.7 1.7
v -0.0999999 0.7 1.6
v -0.0999999 0.8 0.8
v -0.0999999 0.8 0.6
v -0.0999999 0.8 -0.3
v -0.0999999 0.8 -0.4
v -0.0999999 0.8 -0.9
v -0.0999999 0.8 -1
v -0.0999999 0.9 0.8
v -0.0999999 0.9 0.6
v -0.0999999 0.9 -0.3
v -0.0999999 0.9 -0.4
v 2.38419e-07 0.6 -1
v 2.38419e-07 0.6 -1.2
v 2.38419e-07 0.6 -1.6
v 2.38419e-07 0.6 -2
v 2.38419e-07 0.7 -0.4
v 2.38419e-07 0.7 -0.9
v 2.38419e-07 0.8 2
v 2.38419e-07 0.8 1.9
v 2.38419e-07 0.8 -0.4
v 2.38419e-07 0.8 -0.6
v 2.38419e-07 0.8 -0.7
v 2.38419e-07 0.8 -0.9
v 2.38419e-07 0.8 -1
v 2.38419e-07 0.8 -1.2
v 2.38419e-07 0.8 -1.6
v 2.38419e-07 0.8 -1.8
v 2.38419e-07 0.8 -1.9
v 2.38419e-07 0.8 -2
v 2.38419e-07 0.9 2
v 2.38419e-07 0.9 1.9
v 2.38419e-07 0.9 -0.4
v 2.38419e-07 0.9 -0.6
v 2.38419e-07 0.9 -0.7
v 2.38419e-07 0.9 -0.9
v 2.38419e-07 0.9 -1
v 2.38419e-07 0.9 -1.2
v 2.38419e-07 0.9 -1.6
v 2.38419e-07 0.9 -1.8
v 2.38419e-07 0.9 -1.9
v 2.38419e-07 0.9 -2
v 0.1 0.6 1.6
v 0.1 0.6 1.4
v 0.1 0.6 -0.4
v 0.1 0.6 -0.9
v 0.1 0.6 -1.2
v 0.1 0.6 -1.3
v 0.1 0.7 1.8
v 0.1 0.7 1.7
v 0.1 0.7 1.6
v 0.1 0.7 1.4
v 0.1 0.7 -0.4
v 0.1 0.7 -0.9
v 0.1 0.7 -1.3
v 0.1 0.7 -1.6
v 0.1 0.8 1.8
v 0.1 0.8 1.7
v 0.1 0.8 0.6
v 0.1 0.8 0.5
v 0.1 0.8 -1.2
v 0.1 0.8 -1.4
v 0.1 0.8 -1.5
v 0.1 0.8 -1.6
v 0.1 0.9 0.6
v 0.1 0.9 0.5
v 0.1 0.9 -1.2
v 0.1 0.9 -1.4
v 0.1 0.9 -1.5
v 0.1 0.9 -1.6
v 0.2 0.6 1.4
v 0.2 0.6 1.2
v 0.2 0.6 -1.3
v 0.2 0.6 -1.6
v 0.2 0.7 1.4
v 0.2 0.7 1.2
v 0.2 0.7 -1.3
v 0.2 0.7 -1.6
v 0.2 0.8 0.5
v 0.2 0.8 0.4
v 0.2 0.9 0.5
v 0.2 0.9 0.4
v 0.3 0.6 1.2
v 0.3 0.6 1.1
v 0.3 0.7 1.7
v 0.3 0.7 1.6
v 0.3 0.7 1.2
v 0.3 0.7 1.1
v 0.3 0.8 1.9
v 0.3 0.8 1.8
v 0.3 0.8 1.7
v 0.3 0.8 1.6
v 0.3 0.8 0.3
v 0.3 0.8 0.2
v 0.3 0.9 1.9
v 0.3 0.9 1.8
v 0.3 0.9 0.3
v 0.3 0.9 0.2
v 0.4 0.7 1.6
v 0.4 0.7 1.5
v 0.4 0.8 1.6
v 0.4 0.8 1.5
v 0.4 0.8 0.2
v 0.4 0.8 0.0999999
v 0.4 0.9 0.2
v 0.4 0.9 0.0999999
v 0.5 0.7 1.5
v 0.5 0.7 1.4
v 0.5 0.8 1.8
v 0.5 0.8 1.7
v 0.5 0.8 1.5
v 0.5 0.8 1.4
v 0.5 0.8 0.0999999
v 0.5 0.8 -0.1
v 0.5 0.8 -0.2
v 0.5 0.8 -0.4
v 0.5 0.8 -1
v 0.5 0.8 -1.1
v 0.5 0.8 -1.2
v 0.5 0.8 -1.4
v 0.5 0.8 -1.5
v 0.5 0.8 -1.6
v 0.5 0.9 1.8
v 0.5 0.9 1.7
v 0.5 0.9 0.0999999
v 0.5 0.9 -0.1
v 0.5 0.9 -0.2
v 0.5 0.9 -0.4
v 0.5 0.9 -1
v 0.5 0.9 -1.1
v 0.5 0.9 -1.2
v 0.5 0.9 -1.4
v 0.5 0.9 -1.5
v 0.5 0.9 -1.6
v 0.6 0.8 1.7
v 0.6 0.8 1.6
v 0.6 0.8 -0.5
v 0.6 0.8 -0.6
v 0.6 0.8 -0.7
v 0.6 0.8 -1
v 0.6 0.8 -1.6
v 0.6 0.8 -1.7
v 0.6 0.8 -1.8
v 0.6 0.8 -2
v 0.6 0.9 1.7
v 0.6 0.9 1.6
v 0.6 0.9 -0.5
v 0.6 0.9 -0.6
v 0.6 0.9 -0.7
v 0.6 0.9 -1
v 0.6 0.9 -1.6
v 0.6 0.9 -1.7
v 0.6 0.9 -1.8
v 0.6 0.9 -2
v 0.7 0.6 1.1
v 0.7 0.6 1
v 0.7 0.7 1.4
v 0.7 0.7 1.3
v 0.7 0.7 1.1
v 0.7 0.7 1
v 0.7 0.8 1.4
v 0.7 0.8 1.3
v 0.8 0.6 1
v 0.8 0.6 0.8
v 0.8 0.7 1
v 0.8 0.7 0.8
v 0.8 0.8 1.6
v 0.8 0.8 1.5
v 0.8 0.9 1.6
v 0.8 0.9 1.5
v 0.9 0.7 1.3
v 0.9 0.7 1.2
v 0.9 0.8 1.3
v 0.9 0.8 1.2
v 1 0.6 -1.7
v 1 0.6 -2
v 1 0.7 1.2
v 1 0.7 1.1
v 1 0.7 -1.7
v 1 0.7 -2
v 1 0.8 1.5
v 1 0.8 1.4
v 1 0.8 1.2
v 1 0.8 1.1
v 1 0.9 1.5
v 1 0.9 1.4
v 1.1 0.6 -1.4
v 1.1 0.6 -1.7
v 1.1 0.7 1.1
v 1.1 0.7 1
v 1.1 0.7 -1.4
v 1.1 0.7 -1.7
v 1.1 0.8 1.1
v 1.1 0.8 1
v 1.2 0.6 -1.3
v 1.2 0.6 -1.4
v 1.2 0.7 -1.3
v 1.2 0.7 -1.4
v 1.2 0.7 -1.6
v 1.2 0.7 -1.9
v 1.2 0.8 1.4
v 1.2 0.8 1.3
v 1.2 0.8 -1.6
v 1.2 0.8 -1.9
v 1.2 0.9 1.4
v 1.2 0.9 1.3
v 1.3 0.6 -1.1
v 1.3 0.6 -1.3
v 1.3 0.7 1.1
v 1.3 0.7 1
v 1.3 0.7 -1.1
v 1.3 0.7 -1.3
v 1.3 0.7 -1.6
v 1.3 0.7 -1.9
v 1.3 0.7 -2
v 1.3 0.8 1.3
v 1.3 0.8 1.2
v 1.3 0.8 1.1
v 1.3 0.8 1
v 1.3 0.8 -1.3
v 1.3 0.8 -1.6
v 1.3 0.8 -1.9
v 1.3 0.8 -2
v 1.3 0.9 1.3
v 1.3 0.9 1.2
v 1.4 0.7 -1.2
v 1.4 0.7 -1.3
v 1.4 0.8 -1.2
v 1.4 0.8 -1.3
v 1.4 0.8 -1.9
v 1.4 0.8 -2
v 1.4 0.9 -1.9
v 1.4 0.9 -2
v 1.5 0.6 -1
v 1.5 0.6 -1.1
v 1.5 0.7 1
v 1.5 0.7 0.9
v 1.5 0.7 -1
v 1.5 0.7 -1.1
v 1.5 0.8 1
v 1.5 0.8 0.9
v 1.5 0.8 -1.6
v 1.5 0.8 -1.9
v 1.5 0.9 -1.6
v 1.5 0.9 -1.9
v 1.6 0.8 -1.5
v 1.6 0.8 -1.6
v 1.6 0.9 -1.5
v 1.6 0.9 -1.6
v 1.7 0.8 1.3
v 1.7 0.8 1.2
v 1.7 0.8 -1.4
v 1.7 0.8 -1.5
v 1.7 0.9 1.3
v 1.7 0.9 1.2
v 1.7 0.9 -1.4
v 1.7 0.9 -1.5
v -1.9 0.6 1
v -1.9 0.6 0.9
v -1.9 0.6 -0.7
v -1.9 0.6 -0.8
v -1.9 0.7 1
v -1.9 0.7 0.9
v -1.9 0.7 -0.7
v -1.9 0.7 -0.8
v -1.9 0.8 -1.2
v -1.9 0.8 -1.3
v -1.9 0.9 -1.2
v -1.9 0.9 -1.3
v -1.8 0.7 -1
v -1.8 0.7 -1.1
v -1.8 0.7 -1.9
v -1.8 0.7 -2
v -1.8 0.8 -1
v -1.8 0.8 -1.1
v -1.8 0.8 -1.9
v -1.8 0.8 -2
v -1.7 0.6 -0.8
v -1.7 0.6 -0.9
v -1.7 0.7 -0.8
v -1.7 0.7 -0.9
v -1.7 0.7 -1.1
v -1.7 0.7 -1.2
v -1.7 0.8 1
v -1.7 0.8 0.9
v -1.7 0.8 -1.1
v -1.7 0.8 -1.2
v -1.7 0.9 1
v -1.7 0.9 0.9
v -1.6 0.6 -0.9
v -1.6 0.6 -1
v -1.6 0.7 -0.9
v -1.6 0.7 -1
v -1.6 0.7 -1.8
v -1.6 0.7 -1.9
v -1.6 0.8 0.5
v -1.6 0.8 0.4
v -1.6 0.8 -1.3
v -1.6 0.8 -1.4
v -1.6 0.8 -1.7
v -1.6 0.8 -1.8
v -1.6 0.8 -1.9
v -1.6 0.9 0.5
v -1.6 0.9 0.4
v -1.6 0.9 -1.3
v -1.6 0.9 -1.4
v -1.6 0.9 -1.7
v -1.6 0.9 -1.8
v -1.5 0.8 -1.4
v -1.5 0.8 -1.7
v -1.5 0.9 -1.4
v -1.5 0.9 -1.7
v -1.4 0.6 -1
v -1.4 0.6 -1.1
v -1.4 0.7 -1
v -1.4 0.7 -1.1
v -1.4 0.8 0.5
v -1.4 0.8 0.4
v -1.4 0.9 0.5
v -1.4 0.9 0.4
v -1.3 0.7 -1.2
v -1.3 0.7 -1.3
v -1.3 0.7 -1.7
v -1.3 0.7 -1.8
v -1.3 0.8 -1.2
v -1.3 0.8 -1.3
v -1.3 0.8 -1.7
v -1.3 0.8 -1.8
v -1.2 0.7 -1.3
v -1.2 0.7 -1.7
v -1.2 0.8 1
v -1.2 0.8 0.9
v -1.2 0.8 -1.3
v -1.2 0.8 -1.7
v -1.2 0.9 1
v -1.2 0.9 0.9
v -1.1 0.6 -1.1
v -1.1 0.6 -1.2
v -1.1 0.7 -1.1
v -1.1 0.7 -1.2
v -1 0.6 -1.2
v -1 0.6 -1.7
v -1 0.7 -1.2
v -1 0.7 -1.7
v -1 0.8 0.5
v -1 0.8 0.4
v -1 0.9 0.5
v -1 0.9 0.4
v -0.9 0.6 -1.7
v -0.9 0.6 -2
v -0.9 0.7 -1.7
v -0.9 0.7 -2
v -0.9 0.8 1.9
v -0.9 0.8 1.8
v -0.9 0.9 1.9
v -0.9 0.9 1.8
v -0.8 0.6 1
v -0.8 0.6 0.9
v -0.8 0.8 1
v -0.8 0.8 0.9
v -0.8 0.8 0.8
v -0.8 0.8 0.4
v -0.8 0.8 0.3
v -0.8 0.9 1
v -0.8 0.9 0.8
v -0.8 0.9 0.4
v -0.8 0.9 0.3
v -0.7 0.7 1.8
v -0.7 0.7 1.7
v -0.7 0.8 2
v -0.7 0.8 1.9
v -0.7 0.8 1.8
v -0.7 0.8 1.7
v -0.7 0.9 2
v -0.7 0.9 1.9
v -0.6 0.7 1.9
v -0.6 0.7 1.8
v -0.6 0.8 1.9
v -0.6 0.8 1.8
v -0.6 0.8 0.4
v -0.6 0.8 0.2
v -0.6 0.9 0.4
v -0.6 0.9 0.2
v -0.5 0.8 0.9
v -0.5 0.8 0.8
v -0.5 0.9 0.9
v -0.5 0.9 0.8
v -0.4 0.8 0.3
v -0.4 0.8 0.2
v -0.4 0.9 0.3
v -0.4 0.9 0.2
v -0.3 0.6 1.7
v -0.3 0.6 1.6
v -0.3 0.6 0.9
v -0.3 0.6 0.8
v -0.3 0.7 1.7
v -0.3 0.7 1.6
v -0.3 0.8 0.9
v -0.3 0.8 0.8
v -0.3 0.8 0.2
v -0.3 0.8 0.0999999
v -0.3 0.9 0.9
v -0.3 0.9 0.8
v -0.3 0.9 0.2
v -0.3 0.9 0.0999999
v -0.2 0.8 0.8
v -0.2 0.8 0.7
v -0.2 0.8 0.0999999
v -0.2 0.8 -2.38419e-07
v -0.2 0.9 0.8
v -0.2 0.9 0.7
v -0.2 0.9 0.0999999
v -0.2 0.9 -2.38419e-07
v -0.0999999 0.7 1.8
v -0.0999999 0.7 1.7
v -0.0999999 0.8 2
v -0.0999999 0.8 1.9
v -0.0999999 0.8 1.8
v -0.0999999 0.8 1.7
v -0.0999999 0.8 -2.38419e-07
v -0.0999999 0.8 -0.1
v -0.0999999 0.9 2
v -0.0999999 0.9 1.9
v -0.0999999 0.9 -2.38419e-07
v -0.0999999 0.9 -0.1
v 2.38419e-07 0.6 0.8
v 2.38419e-07 0.6 0.7
v 2.38419e-07 0.8 0.8
v 2.38419e-07 0.8 0.7
v 2.38419e-07 0.8 -0.2
v 2.38419e-07 0.8 -0.3
v 2.38419e-07 0.9 0.8
v 2.38419e-07 0.9 0.7
v 2.38419e-07 0.9 -0.2
v 2.38419e-07 0.9 -0.3
v 0.1 0.8 -0.3
v 0.1 0.8 -0.5
v 0.1 0.8 -0.6
v 0.1 0.8 -0.7
v 0.1 0.8 -0.8
v 0.1 0.8 -0.9
v 0.1 0.8 -1
v 0.1 0.8 -1.1
v 0.1 0.8 -1.7
v 0.1 0.8 -1.8
v 0.1 0.8 -1.9
v 0.1 0.8 -2
v 0.1 0.9 -0.3
v 0.1 0.9 -0.6
v 0.1 0.9 -0.7
v 0.1 0.9 -0.9
v 0.1 0.9 -1
v 0.1 0.9 -1.1
v 0.1 0.9 -1.7
v 0.1 0.9 -1.8
v 0.1 0.9 -1.9
v 0.1 0.9 -2
v 0.2 0.6 0.7
v 0.2 0.6 0.6
v 0.2 0.8 0.7
v 0.2 0.8 0.6
v 0.2 0.8 -1.1
v 0.2 0.8 -1.2
v 0.2 0.8 -1.3
v 0.2 0.8 -1.4
v 0.2 0.8 -1.5
v 0.2 0.8 -1.6
v 0.2 0.8 -1.7
v 0.2 0.9 0.7
v 0.2 0.9 0.6
v 0.2 0.9 -1.1
v 0.2 0.9 -1.4
v 0.2 0.9 -1.5
v 0.2 0.9 -1.7
v 0.3 0.6 0.6
v 0.3 0.6 0.5
v 0.3 0.8 0.6
v 0.3 0.8 0.5
v 0.3 0.9 0.6
v 0.3 0.9 0.5
v 0.4 0.6 0.5
v 0.4 0.6 0.3
v 0.4 0.8 0.5
v 0.4 0.8 0.4
v 0.4 0.8 0.3
v 0.4 0.9 0.5
v 0.4 0.9 0.4
v 0.5 0.6 0.3
v 0.5 0.6 0.2
v 0.5 0.6 -1.3
v 0.5 0.6 -1.6
v 0.5 0.7 -1.3
v 0.5 0.7 -1.6
v 0.5 0.8 0.3
v 0.5 0.8 0.2
v 0.5 0.9 0.3
v 0.5 0.9 0.2
v 0.6 0.6 0.2
v 0.6 0.6 -0.3
v 0.6 0.6 -0.4
v 0.6 0.6 -0.8
v 0.6 0.6 -1
v 0.6 0.6 -1.1
v 0.6 0.7 -0.4
v 0.6 0.7 -0.8
v 0.6 0.7 -1.3
v 0.6 0.7 -1.6
v 0.6 0.8 0.2
v 0.6 0.8 -0.1
v 0.6 0.8 -0.2
v 0.6 0.8 -0.3
v 0.6 0.8 -1
v 0.6 0.8 -1.1
v 0.6 0.8 -1.2
v 0.6 0.8 -1.3
v 0.6 0.8 -1.4
v 0.6 0.8 -1.5
v 0.6 0.8 -1.6
v 0.6 0.9 0.2
v 0.6 0.9 -0.1
v 0.6 0.9 -0.2
v 0.6 0.9 -0.3
v 0.6 0.9 -1
v 0.6 0.9 -1.1
v 0.6 0.9 -1.2
v 0.6 0.9 -1.4
v 0.6 0.9 -1.5
v 0.6 0.9 -1.6
v 0.7 0.6 -0.3
v 0.7 0.6 -0.4
v 0.7 0.6 -1.1
v 0.7 0.6 -1.3
v 0.7 0.6 -1.6
v 0.7 0.6 -2
v 0.7 0.7 -0.4
v 0.7 0.7 -0.8
v 0.7 0.7 -0.9
v 0.7 0.8 -0.3
v 0.7 0.8 -0.4
v 0.7 0.8 -0.5
v 0.7 0.8 -0.6
v 0.7 0.8 -0.7
v 0.7 0.8 -0.9
v 0.7 0.8 -1
v 0.7 0.8 -1.1
v 0.7 0.8 -1.3
v 0.7 0.8 -1.6
v 0.7 0.8 -1.7
v 0.7 0.8 -1.8
v 0.7 0.8 -2
v 0.7 0.9 -0.3
v 0.7 0.9 -0.4
v 0.7 0.9 -0.5
v 0.7 0.9 -0.6
v 0.7 0.9 -0.7
v 0.7 0.9 -1
v 0.7 0.9 -1.6
v 0.7 0.9 -1.7
v 0.7 0.9 -1.8
v 0.7 0.9 -2
v 0.8 0.6 -0.8
v 0.8 0.6 -0.9
v 0.8 0.6 -1
v 0.8 0.7 -0.8
v 0.8 0.7 -0.9
v 0.8 0.8 -0.9
v 0.8 0.8 -1
v 1.2 0.7 1.1
v 1.2 0.7 1
v 1.2 0.8 1.1
v 1.2 0.8 1
v 1.6 0.8 1.3
v 1.6 0.8 1.2
v 1.6 0.9 1.3
v 1.6 0.9 1.2
v 1.8 0.7 1
v 1.8 0.7 0.9
v 1.8 0.8 1
v 1.8 0.8 0.9
v 1.9 0.6 -1
v 1.9 0.6 -1.1
v 1.9 0.7 -1
v 1.9 0.7 -1.1
v 1.9 0.8 1.3
v 1.9 0.8 1.2
v 1.9 0.9 1.3
v 1.9 0.9 1.2
v 2 0 2
v 2 0 -2
v 2 0.3 2
v 2 0.3 -2
v 2 0.5 2
v 2 0.5 -2
v 2 0.6 2
v 2 0.6 0.8
v 2 0.6 -1.1
v 2 0.6 -2
v 2 0.7 1
v 2 0.7 0.8
v 2 0.7 -1.1
v 2 0.7 -1.2
v 2 0.8 1.3
v 2 0.8 1
v 2 0.8 -1.2
v 2 0.8 -1.4
v 2 0.9 2
v 2 0.9 1.3
v 2 0.9 -1.4
v 2 0.9 -2
v -2 0 2
v -2 0.3 2
v -2 0.5 2
v -2 0.6 2
v -2 0.7 2
v -1.9 0.7 2
v -1.9 0.8 2
v -1.7 0.8 2
v -1.7 0.9 2
v -0.7 0.8 2
v -0.7 0.9 2
v -0.5 0.8 2
v -0.5 0.9 2
v -0.0999999 0.8 2
v -0.0999999 0.9 2
v 2.38419e-07 0.8 2
v 2.38419e-07 0.9 2
v 2 0 2
v 2 0.3 2
v 2 0.5 2
v 2 0.6 2
v 2 0.9 2
v -2 0.6 1
v -2 0.8 1
v -2 0.9 1
v -1.9 0.6 1
v -1.9 0.7 1
v -1.7 0.8 1
v -1.7 0.9 1
v -1.5 0.8 1
v -1.5 0.9 1
v -1.2 0.8 1
v -1.2 0.9 1
v -1.1 0.6 1
v -1.1 0.7 1
v -1.1 0.8 1
v -1.1 0.9 1
v -0.8 0.6 1
v -0.8 0.8 1
v -0.8 0.9 1
v -1.9 0.6 0.9
v -1.9 0.7 0.9
v -1.1 0.6 0.9
v -1.1 0.7 0.9
v -0.8 0.6 0.9
v -0.8 0.8 0.9
v -0.7 0.8 0.9
v -0.7 0.9 0.9
v -0.5 0.8 0.9
v -0.5 0.9 0.9
v -0.4 0.8 0.9
v -0.4 0.9 0.9
v -0.3 0.6 0.9
v -0.3 0.8 0.9
v -0.3 0.9 0.9
v -0.3 0.6 0.8
v -0.3 0.8 0.8
v -0.3 0.9 0.8
v -0.2 0.8 0.8
v -0.2 0.9 0.8
v -0.0999999 0.8 0.8
v -0.0999999 0.9 0.8
v 2.38419e-07 0.6 0.8
v 2.38419e-07 0.8 0.8
v 2.38419e-07 0.9 0.8
v 2.38419e-07 0.6 0.7
v 2.38419e-07 0.8 0.7
v 2.38419e-07 0.9 0.7
v 0.2 0.6 0.7
v 0.2 0.8 0.7
v 0.2 0.9 0.7
v 0.2 0.6 0.6
v 0.2 0.8 0.6
v 0.2 0.9 0.6
v 0.3 0.6 0.6
v 0.3 0.8 0.6
v 0.3 0.9 0.6
v -2 0.8 0.5
v -2 0.9 0.5
v -1.6 0.8 0.5
v -1.6 0.9 0.5
v -1.5 0.8 0.5
v -1.5 0.9 0.5
v -1.4 0.8 0.5
v -1.4 0.9 0.5
v -1.3 0.8 0.5
v -1.3 0.9 0.5
v -1.2 0.8 0.5
v -1 0.8 0.5
v -1 0.9 0.5
v 0.3 0.6 0.5
v 0.3 0.8 0.5
v 0.3 0.9 0.5
v 0.4 0.6 0.5
v 0.4 0.8 0.5
v 0.4 0.9 0.5
v -1 0.8 0.4
v -1 0.9 0.4
v -0.9 0.8 0.4
v -0.8 0.8 0.4
v -0.8 0.9 0.4
v -0.7 0.8 0.4
v -0.7 0.9 0.4
v -0.6 0.8 0.4
v -0.6 0.9 0.4
v -0.5 0.8 0.3
v -0.5 0.9 0.3
v -0.4 0.8 0.3
v -0.4 0.9 0.3
v 0.3 0.8 0.3
v 0.3 0.9 0.3
v 0.4 0.6 0.3
v 0.4 0.8 0.3
v 0.5 0.6 0.3
v 0.5 0.8 0.3
v 0.5 0.9 0.3
v -0.4 0.8 0.2
v -0.4 0.9 0.2
v -0.3 0.8 0.2
v -0.3 0.9 0.2
v 0.5 0.6 0.2
v 0.5 0.8 0.2
v 0.5 0.9 0.2
v 0.6 0.6 0.2
v 0.6 0.8 0.2
v 0.6 0.9 0.2
v -0.3 0.8 0.0999999
v -0.3 0.9 0.0999999
v -0.2 0.8 0.0999999
v -0.2 0.9 0.0999999
v -0.2 0.8 -2.38419e-07
v -0.2 0.9 -2.38419e-07
v -0.0999999 0.8 -2.38419e-07
v -0.0999999 0.9 -2.38419e-07
v -0.2 0.8 -0.2
v -0.2 0.9 -0.2
v 2.38419e-07 0.8 -0.2
v 2.38419e-07 0.9 -0.2
v 0.5 0.8 -0.2
v 0.5 0.9 -0.2
v 0.6 0.8 -0.2
v 0.6 0.9 -0.2
v 2.38419e-07 0.8 -0.3
v 2.38419e-07 0.9 -0.3
v 0.1 0.8 -0.3
v 0.1 0.9 -0.3
v 0.6 0.6 -0.3
v 0.6 0.8 -0.3
v 0.6 0.9 -0.3
v 0.7 0.6 -0.3
v 0.7 0.8 -0.3
v 0.7 0.9 -0.3
v 0.6 0.8 -0.5
v 0.6 0.9 -0.5
v 0.7 0.8 -0.5
v 0.7 0.9 -0.5
v -2 0.6 -0.7
v -2 0.7 -0.7
v -1.9 0.6 -0.7
v -1.9 0.7 -0.7
v 2.38419e-07 0.8 -0.7
v 2.38419e-07 0.9 -0.7
v 0.1 0.8 -0.7
v 0.1 0.9 -0.7
v 0.6 0.8 -0.7
v 0.6 0.9 -0.7
v 0.7 0.8 -0.7
v 0.7 0.9 -0.7
v -1.9 0.6 -0.8
v -1.9 0.7 -0.8
v -1.7 0.6 -0.8
v -1.7 0.7 -0.8
v 0.6 0.6 -0.8
v 0.6 0.7 -0.8
v 0.7 0.6 -0.8
v 0.7 0.7 -0.8
v 0.8 0.6 -0.8
v 0.8 0.7 -0.8
v -1.7 0.6 -0.9
v -1.7 0.7 -0.9
v -1.6 0.6 -0.9
v -1.6 0.7 -0.9
v -0.0999999 0.6 -0.9
v -0.0999999 0.8 -0.9
v 2.38419e-07 0.7 -0.9
v 2.38419e-07 0.8 -0.9
v 0.1 0.6 -0.9
v 0.1 0.7 -0.9
v 0.7 0.7 -0.9
v 0.7 0.8 -0.9
v 0.8 0.7 -0.9
v 0.8 0.8 -0.9
v -2 0.7 -1
v -2 0.8 -1
v -1.8 0.7 -1
v -1.8 0.8 -1
v -1.6 0.6 -1
v -1.6 0.7 -1
v -1.4 0.6 -1
v -1.4 0.7 -1
v 2.38419e-07 0.8 -1
v 2.38419e-07 0.9 -1
v 0.1 0.8 -1
v 0.1 0.9 -1
v 0.5 0.8 -1
v 0.5 0.9 -1
v 0.6 0.8 -1
v 0.6 0.9 -1
v 1.5 0.6 -1
v 1.5 0.7 -1
v 1.9 0.6 -1
v 1.9 0.7 -1
v -1.8 0.7 -1.1
v -1.8 0.8 -1.1
v -1.7 0.7 -1.1
v -1.7 0.8 -1.1
v -1.4 0.6 -1.1
v -1.4 0.7 -1.1
v -1.1 0.6 -1.1
v -1.1 0.7 -1.1
v 0.1 0.8 -1.1
v 0.1 0.9 -1.1
v 0.2 0.8 -1.1
v 0.2 0.9 -1.1
v 0.6 0.6 -1.1
v 0.6 0.8 -1.1
v 0.7 0.6 -1.1
v 0.7 0.8 -1.1
v 1.3 0.6 -1.1
v 1.3 0.7 -1.1
v 1.5 0.6 -1.1
v 1.5 0.7 -1.1
v 1.9 0.6 -1.1
v 1.9 0.7 -1.1
v 2 0.6 -1.1
v 2 0.7 -1.1
v -2 0.8 -1.2
v -2 0.9 -1.2
v -1.9 0.8 -1.2
v -1.9 0.9 -1.2
v -1.7 0.7 -1.2
v -1.7 0.8 -1.2
v -1.3 0.7 -1.2
v -1.3 0.8 -1.2
v -1.1 0.6 -1.2
v -1.1 0.7 -1.2
v -1 0.6 -1.2
v -1 0.7 -1.2
v 0.5 0.8 -1.2
v 0.5 0.9 -1.2
v 0.6 0.8 -1.2
v 0.6 0.9 -1.2
v 1.4 0.7 -1.2
v 1.4 0.8 -1.2
v 2 0.7 -1.2
v 2 0.8 -1.2
v -1.9 0.8 -1.3
v -1.9 0.9 -1.3
v -1.6 0.8 -1.3
v -1.6 0.9 -1.3
v -1.3 0.7 -1.3
v -1.3 0.8 -1.3
v -1.2 0.7 -1.3
v -1.2 0.8 -1.3
v 1.2 0.6 -1.3
v 1.2 0.7 -1.3
v 1.3 0.6 -1.3
v 1.3 0.7 -1.3
v 1.3 0.8 -1.3
v 1.4 0.7 -1.3
v 1.4 0.8 -1.3
v -1.6 0.8 -1.4
v -1.6 0.9 -1.4
v -1.5 0.8 -1.4
v -1.5 0.9 -1.4
v 1.1 0.6 -1.4
v 1.1 0.7 -1.4
v 1.2 0.6 -1.4
v 1.2 0.7 -1.4
v 1.7 0.8 -1.4
v 1.7 0.9 -1.4
v 2 0.8 -1.4
v 2 0.9 -1.4
v 0.1 0.8 -1.5
v 0.1 0.9 -1.5
v 0.2 0.8 -1.5
v 0.2 0.9 -1.5
v 0.5 0.8 -1.5
v 0.5 0.9 -1.5
v 0.6 0.8 -1.5
v 0.6 0.9 -1.5
v 1.6 0.8 -1.5
v 1.6 0.9 -1.5
v 1.7 0.8 -1.5
v 1.7 0.9 -1.5
v 2.38419e-07 0.6 -1.6
v 2.38419e-07 0.8 -1.6
v 2.38419e-07 0.9 -1.6
v 0.1 0.7 -1.6
v 0.1 0.8 -1.6
v 0.1 0.9 -1.6
v 0.2 0.6 -1.6
v 0.2 0.7 -1.6
v 0.5 0.6 -1.6
v 0.5 0.7 -1.6
v 0.6 0.7 -1.6
v 0.6 0.8 -1.6
v 0.6 0.9 -1.6
v 0.7 0.6 -1.6
v 0.7 0.8 -1.6
v 0.7 0.9 -1.6
v 1.2 0.7 -1.6
v 1.2 0.8 -1.6
v 1.3 0.7 -1.6
v 1.3 0.8 -1.6
v 1.5 0.8 -1.6
v 1.5 0.9 -1.6
v 1.6 0.8 -1.6
v 1.6 0.9 -1.6
v -1 0.6 -1.7
v -1 0.7 -1.7
v -0.9 0.6 -1.7
v -0.9 0.7 -1.7
v 1 0.6 -1.7
v 1 0.7 -1.7
v 1.1 0.6 -1.7
v 1.1 0.7 -1.7
v 0.6 0.8 -1.8
v 0.6 0.9 -1.8
v 0.7 0.8 -1.8
v 0.7 0.9 -1.8
v 2.38419e-07 0.8 -1.9
v 2.38419e-07 0.9 -1.9
v 0.1 0.8 -1.9
v 0.1 0.9 -1.9
v 1.4 0.8 -1.9
v 1.4 0.9 -1.9
v 1.5 0.8 -1.9
v 1.5 0.9 -1.9
v -1.9 0.7 1.9
v -1.9 0.8 1.9
v -1.8 0.7 1.9
v -1.8 0.8 1.9
v -1.7 0.8 1.9
v -1.7 0.9 1.9
v -1.5 0.8 1.9
v -1.5 0.9 1.9
v -0.9 0.8 1.9
v -0.9 0.9 1.9
v -0.7 0.8 1.9
v -0.7 0.9 1.9
v -0.6 0.7 1.9
v -0.6 0.8 1.9
v -0.5 0.8 1.9
v -0.5 0.9 1.9
v -0.4 0.7 1.9
v -0.4 0.8 1.9
v -0.0999999 0.8 1.9
v -0.0999999 0.9 1.9
v 2.38419e-07 0.8 1.9
v 2.38419e-07 0.9 1.9
v 0.3 0.8 1.9
v 0.3 0.9 1.9
v -1.5 0.8 1.8
v -1.5 0.9 1.8
v -0.9 0.8 1.8
v -0.9 0.9 1.8
v -0.7 0.7 1.8
v -0.7 0.8 1.8
v -0.6 0.7 1.8
v -0.6 0.8 1.8
v -0.4 0.7 1.8
v -0.4 0.8 1.8
v -0.2 0.7 1.8
v -0.2 0.8 1.8
v -0.0999999 0.7 1.8
v -0.0999999 0.8 1.8
v 0.1 0.7 1.8
v 0.1 0.8 1.8
v 0.3 0.8 1.8
v 0.3 0.9 1.8
v 0.5 0.8 1.8
v 0.5 0.9 1.8
v -2 0.6 1.7
v -2 0.7 1.7
v -1.9 0.6 1.7
v -1.9 0.7 1.7
v -1.8 0.7 1.7
v -1.8 0.8 1.7
v -0.7 0.7 1.7
v -0.7 0.8 1.7
v -0.3 0.6 1.7
v -0.3 0.7 1.7
v -0.2 0.7 1.7
v -0.2 0.8 1.7
v -0.0999999 0.6 1.7
v -0.0999999 0.7 1.7
v -0.0999999 0.8 1.7
v 0.1 0.7 1.7
v 0.1 0.8 1.7
v 0.3 0.7 1.7
v 0.3 0.8 1.7
v 0.5 0.8 1.7
v 0.5 0.9 1.7
v 0.6 0.8 1.7
v 0.6 0.9 1.7
v -1.9 0.6 1.6
v -1.9 0.7 1.6
v -0.3 0.6 1.6
v -0.3 0.7 1.6
v -0.0999999 0.6 1.6
v -0.0999999 0.7 1.6
v 0.1 0.6 1.6
v 0.1 0.7 1.6
v 0.3 0.7 1.6
v 0.3 0.8 1.6
v 0.4 0.7 1.6
v 0.4 0.8 1.6
v 0.6 0.8 1.6
v 0.6 0.9 1.6
v 0.8 0.8 1.6
v 0.8 0.9 1.6
v 0.4 0.7 1.5
v 0.4 0.8 1.5
v 0.5 0.7 1.5
v 0.5 0.8 1.5
v 0.8 0.8 1.5
v 0.8 0.9 1.5
v 1 0.8 1.5
v 1 0.9 1.5
v 0.1 0.6 1.4
v 0.1 0.7 1.4
v 0.2 0.6 1.4
v 0.2 0.7 1.4
v 0.5 0.7 1.4
v 0.5 0.8 1.4
v 0.7 0.7 1.4
v 0.7 0.8 1.4
v 1 0.8 1.4
v 1 0.9 1.4
v 1.2 0.8 1.4
v 1.2 0.9 1.4
v 0.7 0.7 1.3
v 0.7 0.8 1.3
v 0.9 0.7 1.3
v 0.9 0.8 1.3
v 1.2 0.8 1.3
v 1.2 0.9 1.3
v 1.3 0.8 1.3
v 1.3 0.9 1.3
v 1.6 0.8 1.3
v 1.6 0.9 1.3
v 1.7 0.8 1.3
v 1.7 0.9 1.3
v 1.9 0.8 1.3
v 1.9 0.9 1.3
v 2 0.8 1.3
v 2 0.9 1.3
v 0.2 0.6 1.2
v 0.2 0.7 1.2
v 0.3 0.6 1.2
v 0.3 0.7 1.2
v 0.9 0.7 1.2
v 0.9 0.8 1.2
v 1 0.7 1.2
v 1 0.8 1.2
v 1.3 0.8 1.2
v 1.3 0.9 1.2
v 1.6 0.8 1.2
v 1.6 0.9 1.2
v 1.7 0.8 1.2
v 1.7 0.9 1.2
v 1.9 0.8 1.2
v 1.9 0.9 1.2
v 0.3 0.6 1.1
v 0.3 0.7 1.1
v 0.7 0.6 1.1
v 0.7 0.7 1.1
v 1 0.7 1.1
v 1 0.8 1.1
v 1.1 0.7 1.1
v 1.1 0.8 1.1
v 1.2 0.7 1.1
v 1.2 0.8 1.1
v 1.3 0.7 1.1
v 1.3 0.8 1.1
v 0.7 0.6 1
v 0.7 0.7 1
v 0.8 0.6 1
v 0.8 0.7 1
v 1.1 0.7 1
v 1.1 0.8 1
v 1.2 0.7 1
v 1.2 0.8 1
v 1.3 0.7 1
v 1.3 0.8 1
v 1.5 0.7 1
v 1.5 0.8 1
v 1.8 0.7 1
v 1.8 0.8 1
v 2 0.7 1
v 2 0.8 1
v -2 0.8 0.9
v -2 0.9 0.9
v -1.9 0.8 0.9
v -1.7 0.8 0.9
v -1.7 0.9 0.9
v -1.5 0.8 0.9
v -1.5 0.9 0.9
v -1.4 0.8 0.9
v -1.3 0.8 0.9
v -1.2 0.8 0.9
v -1.2 0.9 0.9
v -1.1 0.8 0.9
v -1.1 0.9 0.9
v -1 0.8 0.9
v -0.9 0.8 0.9
v -0.9 0.9 0.9
v 1.5 0.7 0.9
v 1.5 0.8 0.9
v 1.8 0.7 0.9
v 1.8 0.8 0.9
v -0.9 0.8 0.8
v -0.9 0.9 0.8
v -0.8 0.8 0.8
v -0.8 0.9 0.8
v -0.7 0.8 0.8
v -0.7 0.9 0.8
v -0.5 0.8 0.8
v -0.5 0.9 0.8
v 0.8 0.6 0.8
v 0.8 0.7 0.8
v 2 0.6 0.8
v 2 0.7 0.8
v -0.4 0.8 0.7
v -0.4 0.9 0.7
v -0.2 0.8 0.7
v -0.2 0.9 0.7
v -0.0999999 0.8 0.6
v -0.0999999 0.9 0.6
v 0.1 0.8 0.6
v 0.1 0.9 0.6
v 0.1 0.8 0.5
v 0.1 0.9 0.5
v 0.2 0.8 0.5
v 0.2 0.9 0.5
v -2 0.6 0.4
v -2 0.8 0.4
v -2 0.9 0.4
v -1.9 0.6 0.4
v -1.9 0.8 0.4
v -1.6 0.8 0.4
v -1.6 0.9 0.4
v -1.5 0.8 0.4
v -1.5 0.9 0.4
v -1.4 0.8 0.4
v -1.4 0.9 0.4
v -1.3 0.8 0.4
v -1.3 0.9 0.4
v -1.1 0.6 0.4
v -1.1 0.8 0.4
v -1 0.8 0.4
v -1 0.9 0.4
v 0.2 0.8 0.4
v 0.2 0.9 0.4
v 0.4 0.8 0.4
v 0.4 0.9 0.4
v -1.1 0.6 0.3
v -1.1 0.8 0.3
v -1 0.8 0.3
v -1 0.9 0.3
v -0.8 0.8 0.3
v -0.8 0.9 0.3
v -0.7 0.6 0.3
v -0.7 0.8 0.3
v -0.7 0.6 0.2
v -0.7 0.8 0.2
v -0.7 0.9 0.2
v -0.6 0.8 0.2
v -0.6 0.9 0.2
v -0.5 0.6 0.2
v -0.5 0.8 0.2
v 0.3 0.8 0.2
v 0.3 0.9 0.2
v 0.4 0.8 0.2
v 0.4 0.9 0.2
v -0.5 0.6 0.0999999
v -0.5 0.8 0.0999999
v -0.5 0.9 0.0999999
v -0.4 0.6 0.0999999
v -0.4 0.8 0.0999999
v -0.4 0.9 0.0999999
v 0.4 0.8 0.0999999
v 0.4 0.9 0.0999999
v 0.5 0.8 0.0999999
v 0.5 0.9 0.0999999
v -0.4 0.6 -2.38419e-07
v -0.4 0.8 -2.38419e-07
v -0.4 0.9 -2.38419e-07
v -0.3 0.6 -2.38419e-07
v -0.3 0.8 -2.38419e-07
v -0.3 0.9 -2.38419e-07
v -0.3 0.6 -0.1
v -0.3 0.8 -0.1
v -0.3 0.9 -0.1
v -0.2 0.6 -0.1
v -0.2 0.8 -0.1
v -0.0999999 0.8 -0.1
v -0.0999999 0.9 -0.1
v 0.5 0.8 -0.1
v 0.5 0.9 -0.1
v 0.6 0.8 -0.1
v 0.6 0.9 -0.1
v -0.2 0.6 -0.3
v -0.2 0.8 -0.3
v -0.2 0.9 -0.3
v -0.0999999 0.6 -0.3
v -0.0999999 0.8 -0.3
v -0.0999999 0.9 -0.3
v -0.0999999 0.6 -0.4
v -0.0999999 0.8 -0.4
v -0.0999999 0.9 -0.4
v 2.38419e-07 0.7 -0.4
v 2.38419e-07 0.8 -0.4
v 2.38419e-07 0.9 -0.4
v 0.1 0.6 -0.4
v 0.1 0.7 -0.4
v 0.5 0.8 -0.4
v 0.5 0.9 -0.4
v 0.6 0.6 -0.4
v 0.6 0.7 -0.4
v 0.7 0.6 -0.4
v 0.7 0.7 -0.4
v 0.7 0.8 -0.4
v 0.7 0.9 -0.4
v 2.38419e-07 0.8 -0.6
v 2.38419e-07 0.9 -0.6
v 0.1 0.8 -0.6
v 0.1 0.9 -0.6
v 0.6 0.8 -0.6
v 0.6 0.9 -0.6
v 0.7 0.8 -0.6
v 0.7 0.9 -0.6
v 2.38419e-07 0.8 -0.9
v 2.38419e-07 0.9 -0.9
v 0.1 0.8 -0.9
v 0.1 0.9 -0.9
v -0.0999999 0.6 -1
v -0.0999999 0.8 -1
v 2.38419e-07 0.6 -1
v 2.38419e-07 0.8 -1
v 0.6 0.6 -1
v 0.6 0.8 -1
v 0.6 0.9 -1
v 0.7 0.8 -1
v 0.7 0.9 -1
v 0.8 0.6 -1
v 0.8 0.8 -1
v 0.5 0.8 -1.1
v 0.5 0.9 -1.1
v 0.6 0.8 -1.1
v 0.6 0.9 -1.1
v 2.38419e-07 0.6 -1.2
v 2.38419e-07 0.8 -1.2
v 2.38419e-07 0.9 -1.2
v 0.1 0.6 -1.2
v 0.1 0.8 -1.2
v 0.1 0.9 -1.2
v 0.1 0.6 -1.3
v 0.1 0.7 -1.3
v 0.2 0.6 -1.3
v 0.2 0.7 -1.3
v 0.5 0.6 -1.3
v 0.5 0.7 -1.3
v 0.6 0.7 -1.3
v 0.6 0.8 -1.3
v 0.7 0.6 -1.3
v 0.7 0.8 -1.3
v 0.1 0.8 -1.4
v 0.1 0.9 -1.4
v 0.2 0.8 -1.4
v 0.2 0.9 -1.4
v 0.5 0.8 -1.4
v 0.5 0.9 -1.4
v 0.6 0.8 -1.4
v 0.6 0.9 -1.4
v 0.5 0.8 -1.6
v 0.5 0.9 -1.6
v 0.6 0.8 -1.6
v 0.6 0.9 -1.6
v -1.6 0.8 -1.7
v -1.6 0.9 -1.7
v -1.5 0.8 -1.7
v -1.5 0.9 -1.7
v -1.3 0.7 -1.7
v -1.3 0.8 -1.7
v -1.2 0.7 -1.7
v -1.2 0.8 -1.7
v 0.1 0.8 -1.7
v 0.1 0.9 -1.7
v 0.2 0.8 -1.7
v 0.2 0.9 -1.7
v 0.6 0.8 -1.7
v 0.6 0.9 -1.7
v 0.7 0.8 -1.7
v 0.7 0.9 -1.7
v -2 0.8 -1.8
v -2 0.9 -1.8
v -1.6 0.7 -1.8
v -1.6 0.8 -1.8
v -1.6 0.9 -1.8
v -1.3 0.7 -1.8
v -1.3 0.8 -1.8
v 2.38419e-07 0.8 -1.8
v 2.38419e-07 0.9 -1.8
v 0.1 0.8 -1.8
v 0.1 0.9 -1.8
v -1.8 0.7 -1.9
v -1.8 0.8 -1.9
v -1.6 0.7 -1.9
v -1.6 0.8 -1.9
v 1.2 0.7 -1.9
v 1.2 0.8 -1.9
v 1.3 0.7 -1.9
v 1.3 0.8 -1.9
v -2 0 -2
v -2 0.3 -2
v -2 0.5 -2
v -2 0.6 -2
v -2 0.8 -2
v -1.8 0.7 -2
v -1.8 0.8 -2
v -0.9 0.6 -2
v -0.9 0.7 -2
v 2.38419e-07 0.6 -2
v 2.38419e-07 0.8 -2
v 2.38419e-07 0.9 -2
v 0.1 0.8 -2
v 0.1 0.9 -2
v 0.2 0.7 -2
v 0.2 0.8 -2
v 0.4 0.7 -2
v 0.4 0.8 -2
v 0.6 0.8 -2
v 0.6 0.9 -2
v 0.7 0.6 -2
v 0.7 0.8 -2
v 0.7 0.9 -2
v 1 0.6 -2
v 1 0.7 -2
v 1.3 0.7 -2
v 1.3 0.8 -2
v 1.4 0.8 -2
v 1.4 0.9 -2
v 2 0 -2
v 2 0.3 -2
v 2 0.5 -2
v 2 0.6 -2
v 2 0.9 -2
v -2 0 2
v 2 0 2
v -2 0 -2
v 2 0 -2
v -1.9 0.7 1
v -1.1 0.7 1
v -1.9 0.7 0.9
v -1.1 0.7 0.9
v 2.38419e-07 0.7 -0.4
v 0.1 0.7 -0.4
v 0.6 0.7 -0.4
v 0.7 0.7 -0.4
v 0.6 0.7 -0.8
v 0.7 0.7 -0.8
v 2.38419e-07 0.7 -0.9
v 0.1 0.7 -0.9
v 0.1 0.7 -1.3
v 0.2 0.7 -1.3
v 0.5 0.7 -1.3
v 0.6 0.7 -1.3
v 0.1 0.7 -1.6
v 0.2 0.7 -1.6
v 0.5 0.7 -1.6
v 0.6 0.7 -1.6
v -2 0.6 1.7
v -1.9 0.6 1.7
v -0.3 0.6 1.7
v -0.0999999 0.6 1.7
v -1.9 0.6 1.6
v -0.3 0.6 1.6
v -0.0999999 0.6 1.6
v 0.1 0.6 1.6
v 0.1 0.6 1.4
v 0.2 0.6 1.4
v 0.2 0.6 1.2
v 0.3 0.6 1.2
v 0.3 0.6 1.1
v 0.7 0.6 1.1
v -2 0.6 1
v -1.9 0.6 1
v -1.1 0.6 1
v -0.8 0.6 1
v 0.7 0.6 1
v 0.8 0.6 1
v -1.9 0.6 0.9
v -1.1 0.6 0.9
v -0.8 0.6 0.9
v -0.3 0.6 0.9
v -0.3 0.6 0.8
v 2.38419e-07 0.6 0.8
v 0.8 0.6 0.8
v 2 0.6 0.8
v 2.38419e-07 0.6 0.7
v 0.2 0.6 0.7
v 0.2 0.6 0.6
v 0.3 0.6 0.6
v 0.3 0.6 0.5
v 0.4 0.6 0.5
v -2 0.6 0.4
v -1.9 0.6 0.4
v -1.1 0.6 0.4
v -1.1 0.6 0.3
v -0.7 0.6 0.3
v 0.4 0.6 0.3
v 0.5 0.6 0.3
v -0.7 0.6 0.2
v -0.5 0.6 0.2
v 0.5 0.6 0.2
v 0.6 0.6 0.2
v -0.5 0.6 0.0999999
v -0.4 0.6 0.0999999
v -0.4 0.6 -2.38419e-07
v -0.3 0.6 -2.38419e-07
v -0.3 0.6 -0.1
v -0.2 0.6 -0.1
v -0.2 0.6 -0.3
v -0.0999999 0.6 -0.3
v 0.6 0.6 -0.3
v 0.7 0.6 -0.3
v -0.0999999 0.6 -0.4
v 0.1 0.6 -0.4
v 0.6 0.6 -0.4
v 0.7 0.6 -0.4
v -2 0.6 -0.7
v -1.9 0.6 -0.7
v -1.9 0.6 -0.8
v -1.7 0.6 -0.8
v 0.6 0.6 -0.8
v 0.7 0.6 -0.8
v 0.8 0.6 -0.8
v -1.7 0.6 -0.9
v -1.6 0.6 -0.9
v -0.0999999 0.6 -0.9
v 0.1 0.6 -0.9
v 0.8 0.6 -0.9
v -1.6 0.6 -1
v -1.4 0.6 -1
v -0.0999999 0.6 -1
v 2.38419e-07 0.6 -1
v 0.6 0.6 -1
v 0.8 0.6 -1
v 1.5 0.6 -1
v 1.9 0.6 -1
v -1.4 0.6 -1.1
v -1.1 0.6 -1.1
v 0.6 0.6 -1.1
v 0.7 0.6 -1.1
v 1.3 0.6 -1.1
v 1.5 0.6 -1.1
v 1.9 0.6 -1.1
v 2 0.6 -1.1
v -1.1 0.6 -1.2
v -1 0.6 -1.2
v 2.38419e-07 0.6 -1.2
v 0.1 0.6 -1.2
v 0.1 0.6 -1.3
v 0.2 0.6 -1.3
v 0.5 0.6 -1.3
v 0.7 0.6 -1.3
v 1.2 0.6 -1.3
v 1.3 0.6 -1.3
v 1.1 0.6 -1.4
v 1.2 0.6 -1.4
v 2.38419e-07 0.6 -1.6
v 0.2 0.6 -1.6
v 0.5 0.6 -1.6
v 0.7 0.6 -1.6
v -1 0.6 -1.7
v -0.9 0.6 -1.7
v 1 0.6 -1.7
v 1.1 0.6 -1.7
v -0.9 0.6 -2
v 2.38419e-07 0.6 -2
v 0.7 0.6 -2
v 1 0.6 -2
v -2 0.7 2
v -1.9 0.7 2
v -1.9 0.7 1.9
v -1.8 0.7 1.9
v -0.6 0.7 1.9
v -0.4 0.7 1.9
v -0.7 0.7 1.8
v -0.6 0.7 1.8
v -0.4 0.7 1.8
v -0.2 0.7 1.8
v -0.0999999 0.7 1.8
v 0.1 0.7 1.8
v -2 0.7 1.7
v -1.9 0.7 1.7
v -1.8 0.7 1.7
v -0.7 0.7 1.7
v -0.3 0.7 1.7
v -0.2 0.7 1.7
v -0.0999999 0.7 1.7
v 0.1 0.7 1.7
v 0.3 0.7 1.7
v -1.9 0.7 1.6
v -0.3 0.7 1.6
v -0.0999999 0.7 1.6
v 0.1 0.7 1.6
v 0.3 0.7 1.6
v 0.4 0.7 1.6
v 0.4 0.7 1.5
v 0.5 0.7 1.5
v 0.1 0.7 1.4
v 0.2 0.7 1.4
v 0.5 0.7 1.4
v 0.7 0.7 1.4
v 0.7 0.7 1.3
v 0.9 0.7 1.3
v 0.2 0.7 1.2
v 0.3 0.7 1.2
v 0.9 0.7 1.2
v 1 0.7 1.2
v 0.3 0.7 1.1
v 0.7 0.7 1.1
v 1 0.7 1.1
v 1.1 0.7 1.1
v 1.2 0.7 1.1
v 1.3 0.7 1.1
v 0.7 0.7 1
v 0.8 0.7 1
v 1.1 0.7 1
v 1.2 0.7 1
v 1.3 0.7 1
v 1.5 0.7 1
v 1.8 0.7 1
v 2 0.7 1
v 1.5 0.7 0.9
v 1.8 0.7 0.9
v 0.8 0.7 0.8
v 2 0.7 0.8
v -2 0.7 -0.7
v -1.9 0.7 -0.7
v -1.9 0.7 -0.8
v -1.7 0.7 -0.8
v 0.7 0.7 -0.8
v 0.8 0.7 -0.8
v -1.7 0.7 -0.9
v -1.6 0.7 -0.9
v 0.7 0.7 -0.9
v 0.8 0.7 -0.9
v -2 0.7 -1
v -1.8 0.7 -1
v -1.6 0.7 -1
v -1.4 0.7 -1
v 1.5 0.7 -1
v 1.9 0.7 -1
v -1.8 0.7 -1.1
v -1.7 0.7 -1.1
v -1.4 0.7 -1.1
v -1.1 0.7 -1.1
v 1.3 0.7 -1.1
v 1.5 0.7 -1.1
v 1.9 0.7 -1.1
v 2 0.7 -1.1
v -1.7 0.7 -1.2
v -1.3 0.7 -1.2
v -1.1 0.7 -1.2
v -1 0.7 -1.2
v 1.4 0.7 -1.2
v 2 0.7 -1.2
v -1.3 0.7 -1.3
v -1.2 0.7 -1.3
v 1.2 0.7 -1.3
v 1.3 0.7 -1.3
v 1.4 0.7 -1.3
v 1.1 0.7 -1.4
v 1.2 0.7 -1.4
v 1.2 0.7 -1.6
v 1.3 0.7 -1.6
v -1.3 0.7 -1.7
v -1.2 0.7 -1.7
v -1 0.7 -1.7
v -0.9 0.7 -1.7
v 1 0.7 -1.7
v 1.1 0.7 -1.7
v -1.6 0.7 -1.8
v -1.3 0.7 -1.8
v -1.8 0.7 -1.9
v -1.6 0.7 -1.9
v 1.2 0.7 -1.9
v 1.3 0.7 -1.9
v -1.8 0.7 -2
v -0.9 0.7 -2
v 1 0.7 -2
v 1.3 0.7 -2
v -1.9 0.8 2
v -1.7 0.8 2
v -0.7 0.8 2
v -0.5 0.8 2
v -0.0999999 0.8 2
v 2.38419e-07 0.8 2
v -1.9 0.8 1.9
v -1.8 0.8 1.9
v -1.7 0.8 1.9
v -1.5 0.8 1.9
v -0.9 0.8 1.9
v -0.7 0.8 1.9
v -0.6 0.8 1.9
v -0.5 0.8 1.9
v -0.4 0.8 1.9
v -0.0999999 0.8 1.9
v 2.38419e-07 0.8 1.9
v 0.3 0.8 1.9
v -1.5 0.8 1.8
v -0.9 0.8 1.8
v -0.7 0.8 1.8
v -0.6 0.8 1.8
v -0.4 0.8 1.8
v -0.2 0.8 1.8
v -0.0999999 0.8 1.8
v 0.1 0.8 1.8
v 0.3 0.8 1.8
v 0.5 0.8 1.8
v -1.8 0.8 1.7
v -0.7 0.8 1.7
v -0.2 0.8 1.7
v -0.0999999 0.8 1.7
v 0.1 0.8 1.7
v 0.3 0.8 1.7
v 0.5 0.8 1.7
v 0.6 0.8 1.7
v 0.3 0.8 1.6
v 0.4 0.8 1.6
v 0.6 0.8 1.6
v 0.8 0.8 1.6
v 0.4 0.8 1.5
v 0.5 0.8 1.5
v 0.8 0.8 1.5
v 1 0.8 1.5
v 0.5 0.8 1.4
v 0.7 0.8 1.4
v 1 0.8 1.4
v 1.2 0.8 1.4
v 0.7 0.8 1.3
v 0.9 0.8 1.3
v 1.2 0.8 1.3
v 1.3 0.8 1.3
v 1.6 0.8 1.3
v 1.7 0.8 1.3
v 1.9 0.8 1.3
v 2 0.8 1.3
v 0.9 0.8 1.2
v 1 0.8 1.2
v 1.3 0.8 1.2
v 1.6 0.8 1.2
v 1.7 0.8 1.2
v 1.9 0.8 1.2
v 1 0.8 1.1
v 1.1 0.8 1.1
v 1.2 0.8 1.1
v 1.3 0.8 1.1
v -1.7 0.8 1
v -1.5 0.8 1
v -1.2 0.8 1
v -1.1 0.8 1
v 1.1 0.8 1
v 1.2 0.8 1
v 1.3 0.8 1
v 1.5 0.8 1
v 1.8 0.8 1
v 2 0.8 1
v -2 0.8 0.9
v -1.9 0.8 0.9
v -1.7 0.8 0.9
v -1.6 0.8 0.9
v -1.5 0.8 0.9
v -1.4 0.8 0.9
v -1.3 0.8 0.9
v -1.2 0.8 0.9
v -1.1 0.8 0.9
v -1 0.8 0.9
v -0.9 0.8 0.9
v -0.8 0.8 0.9
v -0.7 0.8 0.9
v -0.5 0.8 0.9
v -0.4 0.8 0.9
v 1.5 0.8 0.9
v 1.8 0.8 0.9
v -2 0.8 0.8
v -1.9 0.8 0.8
v -1.8 0.8 0.8
v -1.7 0.8 0.8
v -1.6 0.8 0.8
v -1.5 0.8 0.8
v -1.4 0.8 0.8
v -1.3 0.8 0.8
v -1.2 0.8 0.8
v -1.1 0.8 0.8
v -1 0.8 0.8
v -0.9 0.8 0.8
v -0.8 0.8 0.8
v -0.7 0.8 0.8
v -0.5 0.8 0.8
v -0.2 0.8 0.8
v -0.0999999 0.8 0.8
v -2 0.8 0.7
v -1.9 0.8 0.7
v -1.8 0.8 0.7
v -1.7 0.8 0.7
v -1.6 0.8 0.7
v -1.5 0.8 0.7
v -1.4 0.8 0.7
v -1.3 0.8 0.7
v -1.2 0.8 0.7
v -1.1 0.8 0.7
v -1 0.8 0.7
v -0.9 0.8 0.7
v -0.8 0.8 0.7
v -0.7 0.8 0.7
v -0.4 0.8 0.7
v -0.2 0.8 0.7
v -2 0.8 0.6
v -1.8 0.8 0.6
v -1.7 0.8 0.6
v -1.6 0.8 0.6
v -1.5 0.8 0.6
v -1.3 0.8 0.6
v -1.2 0.8 0.6
v -1 0.8 0.6
v -0.9 0.8 0.6
v -0.8 0.8 0.6
v -0.7 0.8 0.6
v -0.6 0.8 0.6
v -0.5 0.8 0.6
v -0.4 0.8 0.6
v -0.0999999 0.8 0.6
v 0.1 0.8 0.6
v -2 0.8 0.5
v -1.6 0.8 0.5
v -1.5 0.8 0.5
v -1.4 0.8 0.5
v -1.3 0.8 0.5
v -1.2 0.8 0.5
v -1 0.8 0.5
v -0.9 0.8 0.5
v -0.8 0.8 0.5
v -0.7 0.8 0.5
v -0.6 0.8 0.5
v -0.5 0.8 0.5
v -0.4 0.8 0.5
v -0.3 0.8 0.5
v -0.2 0.8 0.5
v 0.1 0.8 0.5
v 0.2 0.8 0.5
v -1.6 0.8 0.4
v -1.5 0.8 0.4
v -1.4 0.8 0.4
v -1.3 0.8 0.4
v -1.1 0.8 0.4
v -1 0.8 0.4
v -0.9 0.8 0.4
v -0.8 0.8 0.4
v -0.7 0.8 0.4
v -0.6 0.8 0.4
v -0.5 0.8 0.4
v -0.4 0.8 0.4
v -0.3 0.8 0.4
v -0.2 0.8 0.4
v -0.0999999 0.8 0.4
v 2.38419e-07 0.8 0.4
v 0.1 0.8 0.4
v 0.2 0.8 0.4
v 0.4 0.8 0.4
v -1.1 0.8 0.3
v -1 0.8 0.3
v -0.8 0.8 0.3
v -0.7 0.8 0.3
v -0.5 0.8 0.3
v -0.4 0.8 0.3
v -0.3 0.8 0.3
v -0.2 0.8 0.3
v -0.0999999 0.8 0.3
v 2.38419e-07 0.8 0.3
v 0.1 0.8 0.3
v 0.2 0.8 0.3
v 0.3 0.8 0.3
v 0.4 0.8 0.3
v -0.6 0.8 0.2
v -0.5 0.8 0.2
v -0.4 0.8 0.2
v -0.3 0.8 0.2
v -0.2 0.8 0.2
v -0.0999999 0.8 0.2
v 0.1 0.8 0.2
v 0.2 0.8 0.2
v 0.3 0.8 0.2
v 0.4 0.8 0.2
v -0.3 0.8 0.0999999
v -0.2 0.8 0.0999999
v -0.0999999 0.8 0.0999999
v 2.38419e-07 0.8 0.0999999
v 0.4 0.8 0.0999999
v 0.5 0.8 0.0999999
v -0.2 0.8 -2.38419e-07
v -0.0999999 0.8 -2.38419e-07
v 2.38419e-07 0.8 -2.38419e-07
v 0.1 0.8 -2.38419e-07
v 0.2 0.8 -2.38419e-07
v 0.3 0.8 -2.38419e-07
v -0.2 0.8 -0.1
v -0.0999999 0.8 -0.1
v 2.38419e-07 0.8 -0.1
v 0.1 0.8 -0.1
v 0.3 0.8 -0.1
v 0.4 0.8 -0.1
v 0.5 0.8 -0.1
v 0.6 0.8 -0.1
v -0.2 0.8 -0.2
v 2.38419e-07 0.8 -0.2
v 0.1 0.8 -0.2
v 0.2 0.8 -0.2
v 0.3 0.8 -0.2
v 0.4 0.8 -0.2
v 0.5 0.8 -0.2
v 0.6 0.8 -0.2
v 2.38419e-07 0.8 -0.3
v 0.1 0.8 -0.3
v 0.2 0.8 -0.3
v 0.3 0.8 -0.3
v 0.4 0.8 -0.3
v 0.2 0.8 -0.4
v 0.3 0.8 -0.4
v 0.4 0.8 -0.4
v 0.5 0.8 -0.4
v 0.7 0.8 -0.4
v 0.1 0.8 -0.5
v 0.2 0.8 -0.5
v 0.3 0.8 -0.5
v 0.4 0.8 -0.5
v 0.5 0.8 -0.5
v 0.6 0.8 -0.5
v 0.7 0.8 -0.5
v 2.38419e-07 0.8 -0.6
v 0.1 0.8 -0.6
v 0.2 0.8 -0.6
v 0.3 0.8 -0.6
v 0.4 0.8 -0.6
v 0.6 0.8 -0.6
v 0.7 0.8 -0.6
v 2.38419e-07 0.8 -0.7
v 0.1 0.8 -0.7
v 0.2 0.8 -0.7
v 0.3 0.8 -0.7
v 0.4 0.8 -0.7
v 0.5 0.8 -0.7
v 0.6 0.8 -0.7
v 0.7 0.8 -0.7
v 0.1 0.8 -0.8
v 0.2 0.8 -0.8
v 0.3 0.8 -0.8
v 0.4 0.8 -0.8
v 0.5 0.8 -0.8
v -0.0999999 0.8 -0.9
v 2.38419e-07 0.8 -0.9
v 0.1 0.8 -0.9
v 0.2 0.8 -0.9
v 0.3 0.8 -0.9
v 0.4 0.8 -0.9
v 0.5 0.8 -0.9
v 0.7 0.8 -0.9
v 0.8 0.8 -0.9
v -2 0.8 -1
v -1.8 0.8 -1
v -0.0999999 0.8 -1
v 2.38419e-07 0.8 -1
v 0.1 0.8 -1
v 0.2 0.8 -1
v 0.3 0.8 -1
v 0.4 0.8 -1
v 0.5 0.8 -1
v 0.6 0.8 -1
v 0.7 0.8 -1
v 0.8 0.8 -1
v -1.8 0.8 -1.1
v -1.7 0.8 -1.1
v 0.1 0.8 -1.1
v 0.2 0.8 -1.1
v 0.3 0.8 -1.1
v 0.4 0.8 -1.1
v 0.5 0.8 -1.1
v 0.6 0.8 -1.1
v 0.7 0.8 -1.1
v -2 0.8 -1.2
v -1.9 0.8 -1.2
v -1.7 0.8 -1.2
v -1.3 0.8 -1.2
v 0.2 0.8 -1.2
v 0.3 0.8 -1.2
v 0.4 0.8 -1.2
v 0.5 0.8 -1.2
v 0.6 0.8 -1.2
v 1.4 0.8 -1.2
v 2 0.8 -1.2
v -1.9 0.8 -1.3
v -1.6 0.8 -1.3
v -1.3 0.8 -1.3
v -1.2 0.8 -1.3
v 0.2 0.8 -1.3
v 0.3 0.8 -1.3
v 0.6 0.8 -1.3
v 0.7 0.8 -1.3
v 1.3 0.8 -1.3
v 1.4 0.8 -1.3
v -1.6 0.8 -1.4
v -1.5 0.8 -1.4
v 0.1 0.8 -1.4
v 0.2 0.8 -1.4
v 0.3 0.8 -1.4
v 0.4 0.8 -1.4
v 0.5 0.8 -1.4
v 0.6 0.8 -1.4
v 1.7 0.8 -1.4
v 2 0.8 -1.4
v 0.1 0.8 -1.5
v 0.2 0.8 -1.5
v 0.3 0.8 -1.5
v 0.4 0.8 -1.5
v 0.5 0.8 -1.5
v 0.6 0.8 -1.5
v 1.6 0.8 -1.5
v 1.7 0.8 -1.5
v 0.2 0.8 -1.6
v 0.3 0.8 -1.6
v 0.4 0.8 -1.6
v 0.5 0.8 -1.6
v 0.6 0.8 -1.6
v 1.2 0.8 -1.6
v 1.3 0.8 -1.6
v 1.5 0.8 -1.6
v 1.6 0.8 -1.6
v -1.6 0.8 -1.7
v -1.5 0.8 -1.7
v -1.3 0.8 -1.7
v -1.2 0.8 -1.7
v 0.1 0.8 -1.7
v 0.2 0.8 -1.7
v 0.3 0.8 -1.7
v 0.4 0.8 -1.7
v 0.5 0.8 -1.7
v 0.6 0.8 -1.7
v 0.7 0.8 -1.7
v -2 0.8 -1.8
v -1.6 0.8 -1.8
v -1.3 0.8 -1.8
v 2.38419e-07 0.8 -1.8
v 0.1 0.8 -1.8
v 0.2 0.8 -1.8
v 0.3 0.8 -1.8
v 0.4 0.8 -1.8
v 0.5 0.8 -1.8
v 0.6 0.8 -1.8
v 0.7 0.8 -1.8
v -1.8 0.8 -1.9
v -1.6 0.8 -1.9
v 2.38419e-07 0.8 -1.9
v 0.1 0.8 -1.9
v 0.2 0.8 -1.9
v 0.3 0.8 -1.9
v 0.4 0.8 -1.9
v 0.5 0.8 -1.9
v 1.2 0.8 -1.9
v 1.3 0.8 -1.9
v 1.4 0.8 -1.9
v 1.5 0.8 -1.9
v -2 0.8 -2
v -1.8 0.8 -2
v 0.1 0.8 -2
v 0.2 0.8 -2
v 0.4 0.8 -2
v 0.6 0.8 -2
v 1.3 0.8 -2
v 1.4 0.8 -2
v -1.7 0.9 2
v -0.7 0.9 2
v -0.5 0.9 2
v -0.0999999 0.9 2
v 2.38419e-07 0.9 2
v 2 0.9 2
v -1.7 0.9 1.9
v -1.5 0.9 1.9
v -0.9 0.9 1.9
v -0.7 0.9 1.9
v -0.5 0.9 1.9
v -0.0999999 0.9 1.9
v 2.38419e-07 0.9 1.9
v 0.3 0.9 1.9
v -1.5 0.9 1.8
v -0.9 0.9 1.8
v 0.3 0.9 1.8
v 0.5 0.9 1.8
v 0.5 0.9 1.7
v 0.6 0.9 1.7
v 0.6 0.9 1.6
v 0.8 0.9 1.6
v 0.8 0.9 1.5
v 1 0.9 1.5
v 1 0.9 1.4
v 1.2 0.9 1.4
v 1.2 0.9 1.3
v 1.3 0.9 1.3
v 1.6 0.9 1.3
v 1.7 0.9 1.3
v 1.9 0.9 1.3
v 2 0.9 1.3
v 1.3 0.9 1.2
v 1.6 0.9 1.2
v 1.7 0.9 1.2
v 1.9 0.9 1.2
v -2 0.9 1
v -1.7 0.9 1
v -1.5 0.9 1
v -1.2 0.9 1
v -1.1 0.9 1
v -0.8 0.9 1
v -2 0.9 0.9
v -1.7 0.9 0.9
v -1.5 0.9 0.9
v -1.2 0.9 0.9
v -1.1 0.9 0.9
v -0.9 0.9 0.9
v -0.7 0.9 0.9
v -0.5 0.9 0.9
v -0.4 0.9 0.9
v -0.3 0.9 0.9
v -0.9 0.9 0.8
v -0.8 0.9 0.8
v -0.7 0.9 0.8
v -0.5 0.9 0.8
v -0.3 0.9 0.8
v -0.2 0.9 0.8
v -0.0999999 0.9 0.8
v 2.38419e-07 0.9 0.8
v -0.4 0.9 0.7
v -0.2 0.9 0.7
v 2.38419e-07 0.9 0.7
v 0.2 0.9 0.7
v -0.0999999 0.9 0.6
v 0.1 0.9 0.6
v 0.2 0.9 0.6
v 0.3 0.9 0.6
v -2 0.9 0.5
v -1.6 0.9 0.5
v -1.5 0.9 0.5
v -1.4 0.9 0.5
v -1.3 0.9 0.5
v -1 0.9 0.5
v 0.1 0.9 0.5
v 0.2 0.9 0.5
v 0.3 0.9 0.5
v 0.4 0.9 0.5
v -2 0.9 0.4
v -1.6 0.9 0.4
v -1.5 0.9 0.4
v -1.4 0.9 0.4
v -1.3 0.9 0.4
v -1 0.9 0.4
v -0.8 0.9 0.4
v -0.7 0.9 0.4
v -0.6 0.9 0.4
v 0.2 0.9 0.4
v 0.4 0.9 0.4
v -1 0.9 0.3
v -0.8 0.9 0.3
v -0.5 0.9 0.3
v -0.4 0.9 0.3
v 0.3 0.9 0.3
v 0.5 0.9 0.3
v -0.7 0.9 0.2
v -0.6 0.9 0.2
v -0.4 0.9 0.2
v -0.3 0.9 0.2
v 0.3 0.9 0.2
v 0.4 0.9 0.2
v 0.5 0.9 0.2
v 0.6 0.9 0.2
v -0.5 0.9 0.0999999
v -0.4 0.9 0.0999999
v -0.3 0.9 0.0999999
v -0.2 0.9 0.0999999
v 0.4 0.9 0.0999999
v 0.5 0.9 0.0999999
v -0.4 0.9 -2.38419e-07
v -0.3 0.9 -2.38419e-07
v -0.2 0.9 -2.38419e-07
v -0.0999999 0.9 -2.38419e-07
v -0.3 0.9 -0.1
v -0.0999999 0.9 -0.1
v 0.5 0.9 -0.1
v 0.6 0.9 -0.1
v -0.2 0.9 -0.2
v 2.38419e-07 0.9 -0.2
v 0.5 0.9 -0.2
v 0.6 0.9 -0.2
v -0.2 0.9 -0.3
v -0.0999999 0.9 -0.3
v 2.38419e-07 0.9 -0.3
v 0.1 0.9 -0.3
v 0.6 0.9 -0.3
v 0.7 0.9 -0.3
v -0.0999999 0.9 -0.4
v 2.38419e-07 0.9 -0.4
v 0.5 0.9 -0.4
v 0.7 0.9 -0.4
v 0.6 0.9 -0.5
v 0.7 0.9 -0.5
v 2.38419e-07 0.9 -0.6
v 0.1 0.9 -0.6
v 0.6 0.9 -0.6
v 0.7 0.9 -0.6
v 2.38419e-07 0.9 -0.7
v 0.1 0.9 -0.7
v 0.6 0.9 -0.7
v 0.7 0.9 -0.7
v 2.38419e-07 0.9 -0.9
v 0.1 0.9 -0.9
v 2.38419e-07 0.9 -1
v 0.1 0.9 -1
v 0.5 0.9 -1
v 0.6 0.9 -1
v 0.7 0.9 -1
v 0.1 0.9 -1.1
v 0.2 0.9 -1.1
v 0.5 0.9 -1.1
v 0.6 0.9 -1.1
v -2 0.9 -1.2
v -1.9 0.9 -1.2
v 2.38419e-07 0.9 -1.2
v 0.1 0.9 -1.2
v 0.5 0.9 -1.2
v 0.6 0.9 -1.2
v -1.9 0.9 -1.3
v -1.6 0.9 -1.3
v -1.6 0.9 -1.4
v -1.5 0.9 -1.4
v 0.1 0.9 -1.4
v 0.2 0.9 -1.4
v 0.5 0.9 -1.4
v 0.6 0.9 -1.4
v 1.7 0.9 -1.4
v 2 0.9 -1.4
v 0.1 0.9 -1.5
v 0.2 0.9 -1.5
v 0.5 0.9 -1.5
v 0.6 0.9 -1.5
v 1.6 0.9 -1.5
v 1.7 0.9 -1.5
v 2.38419e-07 0.9 -1.6
v 0.1 0.9 -1.6
v 0.5 0.9 -1.6
v 0.6 0.9 -1.6
v 0.7 0.9 -1.6
v 1.5 0.9 -1.6
v 1.6 0.9 -1.6
v -1.6 0.9 -1.7
v -1.5 0.9 -1.7
v 0.1 0.9 -1.7
v 0.2 0.9 -1.7
v 0.6 0.9 -1.7
v 0.7 0.9 -1.7
v -2 0.9 -1.8
v -1.6 0.9 -1.8
v 2.38419e-07 0.9 -1.8
v 0.1 0.9 -1.8
v 0.6 0.9 -1.8
v 0.7 0.9 -1.8
v 2.38419e-07 0.9 -1.9
v 0.1 0.9 -1.9
v 1.4 0.9 -1.9
v 1.5 0.9 -1.9
v 2.38419e-07 0.9 -2
v 0.1 0.9 -2
v 0.6 0.9 -2
v 0.7 0.9 -2
v 1.4 0.9 -2
v 2 0.9 -2

# faces
f 3/5/1 2/5/1 1/5/1
f 4/5/1 2/5/1 3/5/1
f 5/1/1 4/1/1 3/1/1
f 6/1/1 4/1/1 5/1/1
f 7/2/1 6/2/1 5/2/1
f 8/2/1 6/2/1 7/2/1
f 9/2/1 6/2/1 8/2/1
f 10/2/1 6/2/1 9/2/1
f 11/2/1 6/2/1 10/2/1
f 12/2/1 6/2/1 11/2/1
f 13/2/1 6/2/1 12/2/1
f 14/3/1 8/3/1 7/3/1
f 15/3/1 8/3/1 14/3/1
f 16/6/1 10/6/1 9/6/1
f 17/6/1 10/6/1 16/6/1
f 18/6/1 10/6/1 17/6/1
f 19/6/1 10/6/1 18/6/1
f 20/3/1 13/3/1 12/3/1
f 21/3/1 13/3/1 20/3/1
f 22/6/1 16/6/1 9/6/1
f 23/5/1 17/5/1 16/5/1
f 23/6/1 16/6/1 22/6/1
f 24/6/1 18/6/1 17/6/1
f 24/5/1 17/5/1 23/5/1
f 25/5/1 19/5/1 18/5/1
f 25/6/1 18/6/1 24/6/1
f 26/6/1 10/6/1 19/6/1
f 26/5/1 19/5/1 25/5/1
f 27/5/1 11/5/1 10/5/1
f 27/6/1 10/6/1 26/6/1
f 28/5/1 11/5/1 27/5/1
f 29/3/1 13/3/1 21/3/1
f 30/3/1 13/3/1 29/3/1
f 31/3/1 13/3/1 30/3/1
f 32/3/1 13/3/1 31/3/1
f 33/7/1 23/7/1 22/7/1
f 34/7/1 23/7/1 33/7/1
f 35/7/1 28/7/1 27/7/1
f 36/7/1 28/7/1 35/7/1
f 37/3/1 31/3/1 30/3/1
f 38/3/1 31/3/1 37/3/1
f 43/3/1 40/3/1 39/3/1
f 44/3/1 40/3/1 43/3/1
f 45/3/1 42/3/1 41/3/1
f 46/3/1 42/3/1 45/3/1
f 49/3/1 48/3/1 47/3/1
f 50/3/1 48/3/1 49/3/1
f 53/3/1 52/3/1 51/3/1
f 54/3/1 52/3/1 53/3/1
f 61/3/1 56/3/1 55/3/1
f 62/3/1 56/3/1 61/3/1
f 63/7/1 58/7/1 57/7/1
f 64/7/1 58/7/1 63/7/1
f 65/7/1 60/7/1 59/7/1
f 66/7/1 60/7/1 65/7/1
f 69/7/1 68/7/1 67/7/1
f 70/7/1 68/7/1 69/7/1
f 75/6/1 72/6/1 71/6/1
f 76/6/1 72/6/1 75/6/1
f 79/6/1 74/6/1 73/6/1
f 80/6/1 74/6/1 79/6/1
f 81/7/1 78/7/1 77/7/1
f 82/7/1 78/7/1 81/7/1
f 85/7/1 84/7/1 83/7/1
f 86/7/1 84/7/1 85/7/1
f 89/7/1 88/7/1 87/7/1
f 90/7/1 88/7/1 89/7/1
f 96/6/1 92/6/1 91/6/1
f 97/6/1 92/6/1 96/6/1
f 98/7/1 94/7/1 93/7/1
f 99/7/1 94/7/1 98/7/1
f 100/7/1 96/7/1 95/7/1
f 100/7/1 97/7/1 96/7/1
f 101/7/1 97/7/1 100/7/1
f 107/6/1 103/6/1 102/6/1
f 108/6/1 103/6/1 107/6/1
f 109/3/1 105/3/1 104/3/1
f 110/3/1 105/3/1 109/3/1
f 111/7/1 107/7/1 106/7/1
f 111/7/1 108/7/1 107/7/1
f 112/7/1 108/7/1 111/7/1
f 117/3/1 116/3/1 115/3/1
f 118/3/1 116/3/1 117/3/1
f 121/6/1 114/6/1 113/6/1
f 122/6/1 114/6/1 121/6/1
f 123/7/1 120/7/1 119/7/1
f 124/7/1 120/7/1 123/7/1
f 125/7/1 122/7/1 121/7/1
f 126/7/1 122/7/1 125/7/1
f 129/6/1 128/6/1 127/6/1
f 130/6/1 128/6/1 129/6/1
f 131/7/1 130/7/1 129/7/1
f 132/7/1 130/7/1 131/7/1
f 137/3/1 136/3/1 135/3/1
f 138/3/1 136/3/1 137/3/1
f 139/6/1 134/6/1 133/6/1
f 140/6/1 134/6/1 139/6/1
f 141/6/1 134/6/1 140/6/1
f 142/7/1 141/7/1 140/7/1
f 143/7/1 141/7/1 142/7/1
f 150/3/1 145/3/1 144/3/1
f 151/3/1 145/3/1 150/3/1
f 154/6/1 147/6/1 146/6/1
f 155/6/1 147/6/1 154/6/1
f 156/6/1 149/6/1 148/6/1
f 157/6/1 149/6/1 156/6/1
f 158/7/1 153/7/1 152/7/1
f 159/7/1 153/7/1 158/7/1
f 160/7/1 155/7/1 154/7/1
f 161/7/1 155/7/1 160/7/1
f 170/6/1 167/6/1 166/6/1
f 171/6/1 167/6/1 170/6/1
f 172/6/1 167/6/1 171/6/1
f 173/6/1 167/6/1 172/6/1
f 174/6/1 163/6/1 162/6/1
f 175/6/1 163/6/1 174/6/1
f 176/6/1 165/6/1 164/6/1
f 177/6/1 165/6/1 176/6/1
f 178/6/1 165/6/1 177/6/1
f 179/6/1 165/6/1 178/6/1
f 180/3/1 169/3/1 168/3/1
f 181/3/1 169/3/1 180/3/1
f 182/7/1 171/7/1 170/7/1
f 183/7/1 171/7/1 182/7/1
f 184/7/1 173/7/1 172/7/1
f 185/7/1 173/7/1 184/7/1
f 186/7/1 175/7/1 174/7/1
f 187/7/1 175/7/1 186/7/1
f 188/7/1 177/7/1 176/7/1
f 189/7/1 177/7/1 188/7/1
f 190/7/1 179/7/1 178/7/1
f 191/7/1 179/7/1 190/7/1
f 200/3/1 193/3/1 192/3/1
f 201/3/1 193/3/1 200/3/1
f 202/6/1 195/6/1 194/6/1
f 203/6/1 195/6/1 202/6/1
f 204/6/1 197/6/1 196/6/1
f 206/3/1 199/3/1 198/3/1
f 207/3/1 199/3/1 206/3/1
f 210/6/1 205/6/1 204/6/1
f 210/6/1 204/6/1 196/6/1
f 211/6/1 205/6/1 210/6/1
f 212/6/1 205/6/1 211/6/1
f 213/6/1 205/6/1 212/6/1
f 214/7/1 209/7/1 208/7/1
f 215/7/1 209/7/1 214/7/1
f 216/7/1 211/7/1 210/7/1
f 217/7/1 211/7/1 216/7/1
f 218/7/1 213/7/1 212/7/1
f 219/7/1 213/7/1 218/7/1
f 224/3/1 221/3/1 220/3/1
f 225/3/1 221/3/1 224/3/1
f 226/6/1 223/6/1 222/6/1
f 227/6/1 223/6/1 226/6/1
f 230/7/1 229/7/1 228/7/1
f 231/7/1 229/7/1 230/7/1
f 236/3/1 233/3/1 232/3/1
f 237/3/1 233/3/1 236/3/1
f 240/3/1 235/3/1 234/3/1
f 241/3/1 235/3/1 240/3/1
f 244/3/1 239/3/1 238/3/1
f 245/3/1 239/3/1 244/3/1
f 246/7/1 243/7/1 242/7/1
f 247/7/1 243/7/1 246/7/1
f 250/3/1 249/3/1 248/3/1
f 251/3/1 249/3/1 250/3/1
f 254/7/1 253/7/1 252/7/1
f 255/7/1 253/7/1 254/7/1
f 260/3/1 257/3/1 256/3/1
f 261/3/1 257/3/1 260/3/1
f 272/3/1 259/3/1 258/3/1
f 273/3/1 259/3/1 272/3/1
f 274/7/1 263/7/1 262/7/1
f 275/7/1 263/7/1 274/7/1
f 276/7/1 265/7/1 264/7/1
f 277/7/1 265/7/1 276/7/1
f 278/7/1 267/7/1 266/7/1
f 279/7/1 267/7/1 278/7/1
f 280/7/1 269/7/1 268/7/1
f 281/7/1 269/7/1 280/7/1
f 282/7/1 271/7/1 270/7/1
f 283/7/1 271/7/1 282/7/1
f 294/3/1 285/3/1 284/3/1
f 295/3/1 285/3/1 294/3/1
f 296/7/1 287/7/1 286/7/1
f 297/7/1 287/7/1 296/7/1
f 298/7/1 289/7/1 288/7/1
f 299/7/1 289/7/1 298/7/1
f 300/7/1 291/7/1 290/7/1
f 301/7/1 291/7/1 300/7/1
f 302/7/1 293/7/1 292/7/1
f 303/7/1 293/7/1 302/7/1
f 308/3/1 305/3/1 304/3/1
f 309/3/1 305/3/1 308/3/1
f 310/3/1 307/3/1 306/3/1
f 311/3/1 307/3/1 310/3/1
f 314/3/1 313/3/1 312/3/1
f 315/3/1 313/3/1 314/3/1
f 318/3/1 317/3/1 316/3/1
f 319/3/1 317/3/1 318/3/1
f 322/3/1 321/3/1 320/3/1
f 323/3/1 321/3/1 322/3/1
f 328/3/1 325/3/1 324/3/1
f 329/3/1 325/3/1 328/3/1
f 332/3/1 327/3/1 326/3/1
f 333/3/1 327/3/1 332/3/1
f 334/3/1 331/3/1 330/3/1
f 335/3/1 331/3/1 334/3/1
f 340/3/1 337/3/1 336/3/1
f 341/3/1 337/3/1 340/3/1
f 342/3/1 339/3/1 338/3/1
f 343/3/1 339/3/1 342/3/1
f 346/3/1 345/3/1 344/3/1
f 347/3/1 345/3/1 346/3/1
f 352/3/1 349/3/1 348/3/1
f 353/3/1 349/3/1 352/3/1
f 354/3/1 351/3/1 350/3/1
f 355/3/1 351/3/1 354/3/1
f 360/3/1 357/3/1 356/3/1
f 361/3/1 357/3/1 360/3/1
f 367/3/1 359/3/1 358/3/1
f 368/3/1 359/3/1 367/3/1
f 369/3/1 362/3/1 361/3/1
f 370/3/1 362/3/1 369/3/1
f 371/3/1 364/3/1 363/3/1
f 372/3/1 364/3/1 371/3/1
f 373/3/1 366/3/1 365/3/1
f 374/3/1 366/3/1 373/3/1
f 377/3/1 376/3/1 375/3/1
f 378/3/1 376/3/1 377/3/1
f 381/3/1 380/3/1 379/3/1
f 382/3/1 380/3/1 381/3/1
f 387/3/1 384/3/1 383/3/1
f 388/3/1 384/3/1 387/3/1
f 389/3/1 386/3/1 385/3/1
f 390/3/1 386/3/1 389/3/1
f 393/3/1 392/3/1 391/3/1
f 394/3/1 392/3/1 393/3/1
f 397/3/1 396/3/1 395/3/1
f 398/3/1 396/3/1 397/3/1
f 403/3/1 400/3/1 399/3/1
f 404/3/1 400/3/1 403/3/1
f 405/3/1 402/3/1 401/3/1
f 406/3/1 402/3/1 405/3/1
f 407/6/2 408/6/2 411/6/2
f 411/6/2 408/6/2 412/6/2
f 409/3/2 410/3/2 413/3/2
f 413/3/2 410/3/2 414/3/2
f 415/3/2 416/3/2 417/3/2
f 417/3/2 416/3/2 418/3/2
f 419/3/2 420/3/2 423/3/2
f 423/3/2 420/3/2 424/3/2
f 421/3/2 422/3/2 425/3/2
f 425/3/2 422/3/2 426/3/2
f 427/3/2 428/3/2 429/3/2
f 429/3/2 428/3/2 430/3/2
f 431/3/2 432/3/2 435/3/2
f 435/3/2 432/3/2 436/3/2
f 433/7/2 434/7/2 437/7/2
f 437/7/2 434/7/2 438/7/2
f 439/3/2 440/3/2 441/3/2
f 441/3/2 440/3/2 442/3/2
f 443/3/2 444/3/2 450/3/2
f 450/3/2 444/3/2 451/3/2
f 445/7/2 446/7/2 452/7/2
f 452/7/2 446/7/2 453/7/2
f 447/3/2 448/3/2 454/3/2
f 454/3/2 448/3/2 455/3/2
f 449/3/2 450/3/2 456/3/2
f 456/3/2 450/3/2 457/3/2
f 458/3/2 459/3/2 460/3/2
f 460/3/2 459/3/2 461/3/2
f 462/3/2 463/3/2 464/3/2
f 464/3/2 463/3/2 465/3/2
f 466/7/2 467/7/2 468/7/2
f 468/7/2 467/7/2 469/7/2
f 470/3/2 471/3/2 474/3/2
f 474/3/2 471/3/2 475/3/2
f 472/3/2 473/3/2 476/3/2
f 476/3/2 473/3/2 477/3/2
f 478/3/2 479/3/2 482/3/2
f 482/3/2 479/3/2 483/3/2
f 480/7/2 481/7/2 484/7/2
f 484/7/2 481/7/2 485/7/2
f 486/3/2 487/3/2 488/3/2
f 488/3/2 487/3/2 489/3/2
f 490/3/2 491/3/2 492/3/2
f 492/3/2 491/3/2 493/3/2
f 494/7/2 495/7/2 496/7/2
f 496/7/2 495/7/2 497/7/2
f 498/3/2 499/3/2 500/3/2
f 500/3/2 499/3/2 501/3/2
f 502/3/2 503/3/2 504/3/2
f 504/3/2 503/3/2 505/3/2
f 506/6/2 507/6/2 508/6/2
f 508/6/2 507/6/2 509/6/2
f 508/7/2 509/7/2 513/7/2
f 509/7/2 510/7/2 513/7/2
f 513/7/2 510/7/2 514/7/2
f 511/7/2 512/7/2 515/7/2
f 515/7/2 512/7/2 516/7/2
f 517/3/2 518/3/2 521/3/2
f 521/3/2 518/3/2 522/3/2
f 519/3/2 520/3/2 523/3/2
f 523/3/2 520/3/2 524/3/2
f 525/3/2 526/3/2 527/3/2
f 527/3/2 526/3/2 528/3/2
f 529/7/2 530/7/2 531/7/2
f 531/7/2 530/7/2 532/7/2
f 533/7/2 534/7/2 535/7/2
f 535/7/2 534/7/2 536/7/2
f 537/7/2 538/7/2 539/7/2
f 539/7/2 538/7/2 540/7/2
f 541/3/2 542/3/2 545/3/2
f 545/3/2 542/3/2 546/3/2
f 543/6/2 544/6/2 547/6/2
f 547/6/2 544/6/2 548/6/2
f 547/7/2 548/7/2 551/7/2
f 551/7/2 548/7/2 552/7/2
f 549/7/2 550/7/2 553/7/2
f 553/7/2 550/7/2 554/7/2
f 555/7/2 556/7/2 559/7/2
f 559/7/2 556/7/2 560/7/2
f 557/7/2 558/7/2 561/7/2
f 561/7/2 558/7/2 562/7/2
f 563/3/2 564/3/2 567/3/2
f 567/3/2 564/3/2 568/3/2
f 565/3/2 566/3/2 571/3/2
f 571/3/2 566/3/2 572/3/2
f 569/7/2 570/7/2 573/7/2
f 573/7/2 570/7/2 574/7/2
f 575/6/2 576/6/2 577/6/2
f 577/6/2 576/6/2 578/6/2
f 577/7/2 578/7/2 581/7/2
f 581/7/2 578/7/2 582/7/2
f 579/7/2 580/7/2 583/7/2
f 583/7/2 580/7/2 584/7/2
f 585/7/2 586/7/2 597/7/2
f 586/7/2 587/7/2 597/7/2
f 597/7/2 587/7/2 598/7/2
f 588/7/2 589/7/2 599/7/2
f 589/7/2 590/7/2 599/7/2
f 599/7/2 590/7/2 600/7/2
f 591/7/2 592/7/2 601/7/2
f 601/7/2 592/7/2 602/7/2
f 593/7/2 594/7/2 603/7/2
f 603/7/2 594/7/2 604/7/2
f 595/7/2 596/7/2 605/7/2
f 605/7/2 596/7/2 606/7/2
f 607/6/2 608/6/2 609/6/2
f 609/6/2 608/6/2 610/6/2
f 609/7/2 610/7/2 618/7/2
f 618/7/2 610/7/2 619/7/2
f 611/7/2 612/7/2 620/7/2
f 612/7/2 613/7/2 620/7/2
f 613/7/2 614/7/2 620/7/2
f 620/7/2 614/7/2 621/7/2
f 616/7/2 617/7/2 622/7/2
f 615/7/2 616/7/2 622/7/2
f 622/7/2 617/7/2 623/7/2
f 624/6/2 625/6/2 626/6/2
f 626/6/2 625/6/2 627/6/2
f 626/7/2 627/7/2 628/7/2
f 628/7/2 627/7/2 629/7/2
f 630/6/2 631/6/2 632/6/2
f 632/6/2 631/6/2 633/6/2
f 633/6/2 631/6/2 634/6/2
f 632/7/2 633/7/2 635/7/2
f 635/7/2 633/7/2 636/7/2
f 639/6/2 640/6/2 641/6/2
f 641/6/2 640/6/2 642/6/2
f 637/6/2 638/6/2 643/6/2
f 643/6/2 638/6/2 644/6/2
f 643/7/2 644/7/2 645/7/2
f 645/7/2 644/7/2 646/7/2
f 649/6/2 650/6/2 653/6/2
f 653/6/2 650/6/2 654/6/2
f 647/6/2 648/6/2 657/6/2
f 657/6/2 648/6/2 658/6/2
f 658/6/2 648/6/2 659/6/2
f 659/6/2 648/6/2 660/6/2
f 651/6/2 652/6/2 661/6/2
f 661/6/2 652/6/2 662/6/2
f 655/6/2 656/6/2 664/6/2
f 664/6/2 656/6/2 665/6/2
f 665/6/2 656/6/2 666/6/2
f 666/6/2 656/6/2 667/6/2
f 657/7/2 658/7/2 668/7/2
f 668/7/2 658/7/2 669/7/2
f 659/7/2 660/7/2 670/7/2
f 670/7/2 660/7/2 671/7/2
f 661/7/2 662/7/2 672/7/2
f 672/7/2 662/7/2 673/7/2
f 663/7/2 664/7/2 674/7/2
f 664/7/2 665/7/2 674/7/2
f 674/7/2 665/7/2 675/7/2
f 666/7/2 667/7/2 676/7/2
f 676/7/2 667/7/2 677/7/2
f 678/6/2 679/6/2 684/6/2
f 678/6/2 684/6/2 687/6/2
f 685/6/2 686/6/2 687/6/2
f 684/6/2 685/6/2 687/6/2
f 687/6/2 686/6/2 688/6/2
f 688/6/2 686/6/2 689/6/2
f 689/6/2 686/6/2 690/6/2
f 690/6/2 686/6/2 691/6/2
f 691/6/2 686/6/2 692/6/2
f 680/6/2 681/6/2 694/6/2
f 694/6/2 681/6/2 695/6/2
f 682/6/2 683/6/2 696/6/2
f 696/6/2 683/6/2 697/6/2
f 697/6/2 683/6/2 698/6/2
f 698/6/2 683/6/2 699/6/2
f 687/7/2 688/7/2 700/7/2
f 700/7/2 688/7/2 701/7/2
f 689/7/2 690/7/2 702/7/2
f 702/7/2 690/7/2 703/7/2
f 692/7/2 693/7/2 704/7/2
f 691/7/2 692/7/2 704/7/2
f 704/7/2 693/7/2 705/7/2
f 696/7/2 697/7/2 706/7/2
f 706/7/2 697/7/2 707/7/2
f 698/7/2 699/7/2 708/7/2
f 708/7/2 699/7/2 709/7/2
f 710/7/2 711/7/2 713/7/2
f 711/6/2 712/6/2 714/6/2
f 713/7/2 711/7/2 714/7/2
f 714/6/2 712/6/2 715/6/2
f 715/6/2 712/6/2 716/6/2
f 717/3/2 718/3/2 719/3/2
f 719/3/2 718/3/2 720/3/2
f 721/3/2 722/3/2 723/3/2
f 723/3/2 722/3/2 724/3/2
f 725/3/2 726/3/2 727/3/2
f 727/3/2 726/3/2 728/3/2
f 729/3/2 730/3/2 731/3/2
f 731/3/2 730/3/2 732/3/2
f 733/3/2 734/3/2 735/3/2
f 735/3/2 734/3/2 736/3/2
f 737/5/2 738/5/2 739/5/2
f 739/5/2 738/5/2 740/5/2
f 739/1/2 740/1/2 741/1/2
f 741/1/2 740/1/2 742/1/2
f 741/2/2 742/2/2 743/2/2
f 743/2/2 742/2/2 744/2/2
f 744/2/2 742/2/2 745/2/2
f 745/2/2 742/2/2 746/2/2
f 743/3/2 744/3/2 747/3/2
f 747/3/2 744/3/2 748/3/2
f 745/3/2 746/3/2 749/3/2
f 749/3/2 746/3/2 750/3/2
f 743/3/2 747/3/2 751/3/2
f 751/3/2 747/3/2 752/3/2
f 750/3/2 746/3/2 753/3/2
f 753/3/2 746/3/2 754/3/2
f 743/3/2 751/3/2 755/3/2
f 755/3/2 751/3/2 756/3/2
f 754/3/2 746/3/2 757/3/2
f 757/3/2 746/3/2 758/3/2
f 764/3/3 763/3/3 762/3/3
f 766/3/3 765/3/3 764/3/3
f 768/3/3 766/3/3 764/3/3
f 768/3/3 767/3/3 766/3/3
f 769/3/3 767/3/3 768/3/3
f 770/3/3 768/3/3 764/3/3
f 772/3/3 770/3/3 764/3/3
f 772/3/3 771/3/3 770/3/3
f 773/3/3 771/3/3 772/3/3
f 774/3/3 772/3/3 764/3/3
f 776/5/3 760/5/3 759/5/3
f 777/1/3 761/1/3 760/1/3
f 777/5/3 760/5/3 776/5/3
f 778/2/3 762/2/3 761/2/3
f 778/1/3 761/1/3 777/1/3
f 779/3/3 775/3/3 774/3/3
f 779/2/3 762/2/3 778/2/3
f 779/3/3 764/3/3 762/3/3
f 779/3/3 774/3/3 764/3/3
f 780/3/3 775/3/3 779/3/3
f 784/6/3 782/6/3 781/6/3
f 785/6/3 782/6/3 784/6/3
f 786/7/3 783/7/3 782/7/3
f 786/6/3 782/6/3 785/6/3
f 787/7/3 783/7/3 786/7/3
f 788/6/3 786/6/3 785/6/3
f 790/6/3 788/6/3 785/6/3
f 790/7/3 789/7/3 788/7/3
f 791/7/3 789/7/3 790/7/3
f 793/6/3 790/6/3 785/6/3
f 794/6/3 790/6/3 793/6/3
f 796/6/3 793/6/3 792/6/3
f 796/6/3 794/6/3 793/6/3
f 797/7/3 795/7/3 794/7/3
f 797/6/3 794/6/3 796/6/3
f 798/7/3 795/7/3 797/7/3
f 801/6/3 800/6/3 799/6/3
f 802/6/3 800/6/3 801/6/3
f 805/6/3 804/6/3 803/6/3
f 807/6/3 805/6/3 803/6/3
f 807/7/3 806/7/3 805/7/3
f 808/7/3 806/7/3 807/7/3
f 809/6/3 807/6/3 803/6/3
f 811/6/3 809/6/3 803/6/3
f 812/7/3 810/7/3 809/7/3
f 812/6/3 809/6/3 811/6/3
f 813/7/3 810/7/3 812/7/3
f 817/6/3 815/6/3 814/6/3
f 817/7/3 816/7/3 815/7/3
f 818/7/3 816/7/3 817/7/3
f 819/6/3 817/6/3 814/6/3
f 821/6/3 819/6/3 814/6/3
f 822/7/3 820/7/3 819/7/3
f 822/6/3 819/6/3 821/6/3
f 823/7/3 820/7/3 822/7/3
f 827/6/3 825/6/3 824/6/3
f 828/7/3 826/7/3 825/7/3
f 828/6/3 825/6/3 827/6/3
f 829/7/3 826/7/3 828/7/3
f 833/6/3 831/6/3 830/6/3
f 834/7/3 832/7/3 831/7/3
f 834/6/3 831/6/3 833/6/3
f 835/7/3 832/7/3 834/7/3
f 838/7/3 837/7/3 836/7/3
f 839/7/3 837/7/3 838/7/3
f 842/7/3 841/7/3 840/7/3
f 843/7/3 841/7/3 842/7/3
f 846/7/3 845/7/3 844/7/3
f 847/7/3 845/7/3 846/7/3
f 848/7/3 845/7/3 847/7/3
f 852/6/3 850/6/3 849/6/3
f 853/7/3 851/7/3 850/7/3
f 853/6/3 850/6/3 852/6/3
f 854/7/3 851/7/3 853/7/3
f 857/7/3 856/7/3 855/7/3
f 858/7/3 856/7/3 857/7/3
f 859/7/3 856/7/3 858/7/3
f 862/7/3 861/7/3 860/7/3
f 863/7/3 861/7/3 862/7/3
f 866/7/3 865/7/3 864/7/3
f 867/7/3 865/7/3 866/7/3
f 871/7/3 869/7/3 868/7/3
f 872/6/3 871/6/3 870/6/3
f 873/7/3 869/7/3 871/7/3
f 873/6/3 871/6/3 872/6/3
f 874/7/3 869/7/3 873/7/3
f 877/7/3 876/7/3 875/7/3
f 878/7/3 876/7/3 877/7/3
f 882/6/3 880/6/3 879/6/3
f 883/7/3 881/7/3 880/7/3
f 883/6/3 880/6/3 882/6/3
f 884/7/3 881/7/3 883/7/3
f 887/7/3 886/7/3 885/7/3
f 888/7/3 886/7/3 887/7/3
f 891/7/3 890/7/3 889/7/3
f 892/7/3 890/7/3 891/7/3
f 895/7/3 894/7/3 893/7/3
f 896/7/3 894/7/3 895/7/3
f 899/7/3 898/7/3 897/7/3
f 900/7/3 898/7/3 899/7/3
f 903/7/3 902/7/3 901/7/3
f 904/7/3 902/7/3 903/7/3
f 908/6/3 906/6/3 905/6/3
f 909/7/3 907/7/3 906/7/3
f 909/6/3 906/6/3 908/6/3
f 910/7/3 907/7/3 909/7/3
f 913/7/3 912/7/3 911/7/3
f 914/7/3 912/7/3 913/7/3
f 917/3/3 916/3/3 915/3/3
f 918/3/3 916/3/3 917/3/3
f 921/7/3 920/7/3 919/7/3
f 922/7/3 920/7/3 921/7/3
f 925/7/3 924/7/3 923/7/3
f 926/7/3 924/7/3 925/7/3
f 929/3/3 928/3/3 927/3/3
f 930/3/3 928/3/3 929/3/3
f 933/6/3 932/6/3 931/6/3
f 934/6/3 932/6/3 933/6/3
f 935/7/3 934/7/3 933/7/3
f 936/7/3 934/7/3 935/7/3
f 939/3/3 938/3/3 937/3/3
f 940/3/3 938/3/3 939/3/3
f 943/6/3 942/6/3 941/6/3
f 944/6/3 942/6/3 943/6/3
f 945/6/3 943/6/3 941/6/3
f 946/6/3 943/6/3 945/6/3
f 949/6/3 948/6/3 947/6/3
f 950/6/3 948/6/3 949/6/3
f 953/3/3 952/3/3 951/3/3
f 954/3/3 952/3/3 953/3/3
f 957/3/3 956/3/3 955/3/3
f 958/3/3 956/3/3 957/3/3
f 961/7/3 960/7/3 959/7/3
f 962/7/3 960/7/3 961/7/3
f 965/7/3 964/7/3 963/7/3
f 966/7/3 964/7/3 965/7/3
f 969/3/3 968/3/3 967/3/3
f 970/3/3 968/3/3 969/3/3
f 973/3/3 972/3/3 971/3/3
f 974/3/3 972/3/3 973/3/3
f 977/3/3 976/3/3 975/3/3
f 978/3/3 976/3/3 977/3/3
f 981/7/3 980/7/3 979/7/3
f 982/7/3 980/7/3 981/7/3
f 985/6/3 984/6/3 983/6/3
f 986/6/3 984/6/3 985/6/3
f 989/3/3 988/3/3 987/3/3
f 990/3/3 988/3/3 989/3/3
f 993/3/3 992/3/3 991/3/3
f 994/3/3 992/3/3 993/3/3
f 997/3/3 996/3/3 995/3/3
f 998/3/3 996/3/3 997/3/3
f 1001/3/3 1000/3/3 999/3/3
f 1002/3/3 1000/3/3 1001/3/3
f 1005/3/3 1004/3/3 1003/3/3
f 1006/3/3 1004/3/3 1005/3/3
f 1009/7/3 1008/7/3 1007/7/3
f 1010/7/3 1008/7/3 1009/7/3
f 1013/3/3 1012/3/3 1011/3/3
f 1014/3/3 1012/3/3 1013/3/3
f 1017/3/3 1016/3/3 1015/3/3
f 1018/3/3 1016/3/3 1017/3/3
f 1021/3/3 1020/3/3 1019/3/3
f 1022/3/3 1020/3/3 1021/3/3
f 1025/3/3 1024/3/3 1023/3/3
f 1026/3/3 1024/3/3 1025/3/3
f 1028/3/3 1027/3/3 1026/3/3
f 1029/3/3 1027/3/3 1028/3/3
f 1032/3/3 1031/3/3 1030/3/3
f 1033/3/3 1031/3/3 1032/3/3
f 1036/3/3 1035/3/3 1034/3/3
f 1037/3/3 1035/3/3 1036/3/3
f 1040/3/3 1039/3/3 1038/3/3
f 1041/3/3 1039/3/3 1040/3/3
f 1044/7/3 1043/7/3 1042/7/3
f 1045/7/3 1043/7/3 1044/7/3
f 1048/7/3 1047/7/3 1046/7/3
f 1049/7/3 1047/7/3 1048/7/3
f 1052/3/3 1051/3/3 1050/3/3
f 1053/3/3 1051/3/3 1052/3/3
f 1057/6/3 1055/6/3 1054/6/3
f 1058/7/3 1056/7/3 1055/7/3
f 1058/6/3 1055/6/3 1057/6/3
f 1059/7/3 1056/7/3 1058/7/3
f 1060/6/3 1057/6/3 1054/6/3
f 1061/6/3 1057/6/3 1060/6/3
f 1064/6/3 1063/6/3 1062/6/3
f 1067/6/3 1064/6/3 1062/6/3
f 1067/6/3 1065/6/3 1064/6/3
f 1068/7/3 1066/7/3 1065/7/3
f 1068/6/3 1065/6/3 1067/6/3
f 1069/7/3 1066/7/3 1068/7/3
f 1072/3/3 1071/3/3 1070/3/3
f 1073/3/3 1071/3/3 1072/3/3
f 1076/3/3 1075/3/3 1074/3/3
f 1077/3/3 1075/3/3 1076/3/3
f 1080/3/3 1079/3/3 1078/3/3
f 1081/3/3 1079/3/3 1080/3/3
f 1084/3/3 1083/3/3 1082/3/3
f 1085/3/3 1083/3/3 1084/3/3
f 1088/7/3 1087/7/3 1086/7/3
f 1089/7/3 1087/7/3 1088/7/3
f 1092/7/3 1091/7/3 1090/7/3
f 1093/7/3 1091/7/3 1092/7/3
f 1096/3/3 1095/3/3 1094/3/3
f 1097/3/3 1095/3/3 1096/3/3
f 1098/3/4 1099/3/4 1100/3/4
f 1100/3/4 1099/3/4 1101/3/4
f 1102/3/4 1103/3/4 1104/3/4
f 1104/3/4 1103/3/4 1105/3/4
f 1106/3/4 1107/3/4 1108/3/4
f 1108/3/4 1107/3/4 1109/3/4
f 1110/3/4 1111/3/4 1112/3/4
f 1110/3/4 1112/3/4 1114/3/4
f 1112/3/4 1113/3/4 1114/3/4
f 1114/3/4 1113/3/4 1115/3/4
f 1115/3/4 1113/3/4 1116/3/4
f 1116/3/4 1113/3/4 1117/3/4
f 1118/3/4 1119/3/4 1120/3/4
f 1120/3/4 1119/3/4 1121/3/4
f 1122/3/4 1123/3/4 1124/3/4
f 1124/3/4 1123/3/4 1125/3/4
f 1126/3/4 1127/3/4 1128/3/4
f 1128/3/4 1127/3/4 1129/3/4
f 1130/3/4 1131/3/4 1132/3/4
f 1132/3/4 1131/3/4 1133/3/4
f 1134/3/4 1135/3/4 1136/3/4
f 1136/3/4 1135/3/4 1137/3/4
f 1138/3/4 1139/3/4 1140/3/4
f 1140/3/4 1139/3/4 1141/3/4
f 1142/3/4 1143/3/4 1144/3/4
f 1144/3/4 1143/3/4 1145/3/4
f 1146/3/4 1147/3/4 1148/3/4
f 1148/3/4 1147/3/4 1149/3/4
f 1150/3/4 1151/3/4 1152/3/4
f 1150/3/4 1152/3/4 1154/3/4
f 1152/3/4 1153/3/4 1154/3/4
f 1154/3/4 1153/3/4 1155/3/4
f 1155/3/4 1153/3/4 1156/3/4
f 1157/3/4 1158/3/4 1159/3/4
f 1159/3/4 1158/3/4 1160/3/4
f 1161/3/4 1162/3/4 1163/3/4
f 1163/3/4 1162/3/4 1164/3/4
f 1165/3/4 1166/3/4 1167/3/4
f 1167/3/4 1166/3/4 1168/3/4
f 1169/3/4 1170/3/4 1171/3/4
f 1171/3/4 1170/3/4 1172/3/4
f 1173/3/4 1174/3/4 1175/3/4
f 1175/3/4 1174/3/4 1176/3/4
f 1177/3/4 1178/3/4 1179/3/4
f 1179/3/4 1178/3/4 1180/3/4
f 1181/3/4 1182/3/4 1183/3/4
f 1183/3/4 1182/3/4 1184/3/4
f 1185/3/4 1186/3/4 1187/3/4
f 1187/3/4 1186/3/4 1188/3/4
f 1189/3/4 1190/3/4 1191/3/4
f 1191/3/4 1190/3/4 1192/3/4
f 1193/3/4 1194/3/4 1195/3/4
f 1195/3/4 1194/3/4 1196/3/4
f 1197/3/4 1198/3/4 1199/3/4
f 1199/3/4 1198/3/4 1200/3/4
f 1201/3/4 1202/3/4 1203/3/4
f 1203/3/4 1202/3/4 1204/3/4
f 1205/3/4 1206/3/4 1207/3/4
f 1207/3/4 1206/3/4 1208/3/4
f 1209/3/4 1210/3/4 1211/3/4
f 1211/3/4 1210/3/4 1212/3/4
f 1213/3/4 1214/3/4 1215/3/4
f 1215/3/4 1214/3/4 1216/3/4
f 1217/3/4 1218/3/4 1219/3/4
f 1219/3/4 1218/3/4 1220/3/4
f 1221/3/4 1222/3/4 1223/3/4
f 1223/3/4 1222/3/4 1224/3/4
f 1225/3/4 1226/3/4 1227/3/4
f 1227/3/4 1226/3/4 1228/3/4
f 1229/3/4 1230/3/4 1231/3/4
f 1231/3/4 1230/3/4 1232/3/4
f 1233/3/4 1234/3/4 1235/3/4
f 1235/3/4 1234/3/4 1236/3/4
f 1237/3/4 1238/3/4 1239/3/4
f 1239/3/4 1238/3/4 1240/3/4
f 1241/3/4 1242/3/4 1243/3/4
f 1243/3/4 1242/3/4 1244/3/4
f 1245/3/4 1246/3/4 1247/3/4
f 1247/3/4 1246/3/4 1248/3/4
f 1249/3/4 1250/3/4 1251/3/4
f 1251/3/4 1250/3/4 1252/3/4
f 1253/3/4 1254/3/4 1255/3/4
f 1255/3/4 1254/3/4 1256/3/4
f 1257/3/4 1258/3/4 1259/3/4
f 1259/3/4 1258/3/4 1260/3/4
f 1261/7/4 1262/7/4 1263/7/4
f 1263/7/4 1262/7/4 1264/7/4
f 1264/7/4 1262/7/4 1265/7/4
f 1266/7/4 1267/7/4 1268/7/4
f 1268/7/4 1267/7/4 1269/7/4
f 1269/7/4 1267/7/4 1270/7/4
f 1270/7/4 1267/7/4 1271/7/4
f 1272/7/4 1273/7/4 1274/7/4
f 1274/7/4 1273/7/4 1275/7/4
f 1275/7/4 1273/7/4 1276/7/4
f 1277/3/4 1278/3/4 1279/3/4
f 1279/3/4 1278/3/4 1280/3/4
f 1281/7/4 1282/7/4 1283/7/4
f 1283/7/4 1282/7/4 1284/7/4
f 1285/7/4 1286/7/4 1287/7/4
f 1287/7/4 1286/7/4 1288/7/4
f 1289/3/4 1290/3/4 1291/3/4
f 1291/3/4 1290/3/4 1292/3/4
f 1293/7/4 1294/7/4 1295/7/4
f 1295/7/4 1294/7/4 1296/7/4
f 1297/7/4 1298/7/4 1299/7/4
f 1299/7/4 1298/7/4 1300/7/4
f 1301/7/4 1302/7/4 1303/7/4
f 1303/7/4 1302/7/4 1304/7/4
f 1305/5/4 1306/5/4 1308/5/4
f 1306/7/4 1307/7/4 1309/7/4
f 1308/5/4 1306/5/4 1309/5/4
f 1308/6/4 1309/6/4 1310/6/4
f 1309/7/4 1307/7/4 1310/7/4
f 1310/7/4 1307/7/4 1311/7/4
f 1308/6/4 1310/6/4 1312/6/4
f 1308/6/4 1312/6/4 1314/6/4
f 1312/7/4 1313/7/4 1314/7/4
f 1314/7/4 1313/7/4 1315/7/4
f 1308/6/4 1314/6/4 1316/6/4
f 1308/6/4 1316/6/4 1318/6/4
f 1316/7/4 1317/7/4 1319/7/4
f 1318/6/4 1316/6/4 1319/6/4
f 1319/7/4 1317/7/4 1320/7/4
f 1320/7/4 1317/7/4 1321/7/4
f 1322/7/4 1323/7/4 1324/7/4
f 1324/7/4 1323/7/4 1325/7/4
f 1326/6/4 1327/6/4 1328/6/4
f 1326/6/4 1328/6/4 1330/6/4
f 1328/7/4 1329/7/4 1330/7/4
f 1330/7/4 1329/7/4 1331/7/4
f 1326/6/4 1330/6/4 1332/6/4
f 1332/6/4 1330/6/4 1333/6/4
f 1334/6/4 1335/6/4 1337/6/4
f 1335/7/4 1336/7/4 1337/7/4
f 1337/7/4 1336/7/4 1338/7/4
f 1334/6/4 1337/6/4 1339/6/4
f 1339/6/4 1337/6/4 1340/6/4
f 1341/7/4 1342/7/4 1343/7/4
f 1343/7/4 1342/7/4 1344/7/4
f 1345/6/4 1346/6/4 1348/6/4
f 1346/7/4 1347/7/4 1349/7/4
f 1348/6/4 1346/6/4 1349/6/4
f 1349/7/4 1347/7/4 1350/7/4
f 1351/7/4 1352/7/4 1353/7/4
f 1353/7/4 1352/7/4 1354/7/4
f 1355/6/4 1356/6/4 1358/6/4
f 1356/7/4 1357/7/4 1359/7/4
f 1358/6/4 1356/6/4 1359/6/4
f 1359/7/4 1357/7/4 1360/7/4
f 1361/6/4 1362/6/4 1364/6/4
f 1362/7/4 1363/7/4 1365/7/4
f 1364/6/4 1362/6/4 1365/6/4
f 1365/7/4 1363/7/4 1366/7/4
f 1366/7/4 1363/7/4 1367/7/4
f 1368/7/4 1369/7/4 1370/7/4
f 1370/7/4 1369/7/4 1371/7/4
f 1372/6/4 1373/6/4 1375/6/4
f 1373/7/4 1374/7/4 1376/7/4
f 1375/6/4 1373/6/4 1376/6/4
f 1376/7/4 1374/7/4 1377/7/4
f 1378/6/4 1379/6/4 1381/6/4
f 1379/7/4 1380/7/4 1382/7/4
f 1381/6/4 1379/6/4 1382/6/4
f 1382/7/4 1380/7/4 1383/7/4
f 1378/6/4 1381/6/4 1384/6/4
f 1384/6/4 1381/6/4 1385/6/4
f 1388/6/4 1389/6/4 1390/6/4
f 1390/6/4 1389/6/4 1391/6/4
f 1386/7/4 1387/7/4 1392/7/4
f 1392/7/4 1387/7/4 1393/7/4
f 1394/7/4 1395/7/4 1396/7/4
f 1396/7/4 1395/7/4 1397/7/4
f 1398/7/4 1399/7/4 1400/7/4
f 1400/7/4 1399/7/4 1401/7/4
f 1402/7/4 1403/7/4 1404/7/4
f 1404/7/4 1403/7/4 1405/7/4
f 1406/6/4 1407/6/4 1408/6/4
f 1408/6/4 1407/6/4 1409/6/4
f 1410/6/4 1411/6/4 1413/6/4
f 1411/7/4 1412/7/4 1413/7/4
f 1413/7/4 1412/7/4 1414/7/4
f 1410/6/4 1413/6/4 1415/6/4
f 1415/6/4 1413/6/4 1416/6/4
f 1417/7/4 1418/7/4 1419/7/4
f 1419/7/4 1418/7/4 1420/7/4
f 1421/6/4 1422/6/4 1424/6/4
f 1422/7/4 1423/7/4 1425/7/4
f 1424/6/4 1422/6/4 1425/6/4
f 1425/7/4 1423/7/4 1426/7/4
f 1427/6/4 1428/6/4 1429/6/4
f 1429/6/4 1428/6/4 1430/6/4
f 1431/6/4 1432/6/4 1433/6/4
f 1431/6/4 1433/6/4 1435/6/4
f 1433/6/4 1434/6/4 1435/6/4
f 1435/6/4 1434/6/4 1436/6/4
f 1437/7/4 1438/7/4 1439/7/4
f 1439/7/4 1438/7/4 1440/7/4
f 1441/7/4 1442/7/4 1443/7/4
f 1443/7/4 1442/7/4 1444/7/4
f 1445/7/4 1446/7/4 1447/7/4
f 1447/7/4 1446/7/4 1448/7/4
f 1449/3/4 1450/3/4 1451/3/4
f 1451/3/4 1450/3/4 1452/3/4
f 1453/3/4 1454/3/4 1455/3/4
f 1455/3/4 1454/3/4 1456/3/4
f 1457/7/4 1458/7/4 1459/7/4
f 1459/7/4 1458/7/4 1460/7/4
f 1461/7/4 1462/7/4 1463/7/4
f 1463/7/4 1462/7/4 1464/7/4
f 1465/3/4 1466/3/4 1468/3/4
f 1468/3/4 1466/3/4 1469/3/4
f 1467/3/4 1468/3/4 1470/3/4
f 1470/3/4 1468/3/4 1471/3/4
f 1472/7/4 1473/7/4 1474/7/4
f 1474/7/4 1473/7/4 1475/7/4
f 1476/3/4 1477/3/4 1478/3/4
f 1478/3/4 1477/3/4 1479/3/4
f 1480/3/4 1481/3/4 1482/3/4
f 1482/3/4 1481/3/4 1483/3/4
f 1487/3/4 1488/3/4 1489/3/4
f 1489/3/4 1488/3/4 1490/3/4
f 1486/2/4 1487/2/4 1491/2/4
f 1487/3/4 1489/3/4 1491/3/4
f 1491/3/4 1489/3/4 1492/3/4
f 1486/2/4 1491/2/4 1493/2/4
f 1493/6/4 1494/6/4 1496/6/4
f 1494/7/4 1495/7/4 1496/7/4
f 1496/7/4 1495/7/4 1497/7/4
f 1493/6/4 1496/6/4 1498/6/4
f 1498/6/4 1496/6/4 1499/6/4
f 1493/6/4 1498/6/4 1500/6/4
f 1498/4/4 1499/4/4 1500/4/4
f 1500/4/4 1499/4/4 1501/4/4
f 1500/6/4 1501/6/4 1502/6/4
f 1486/2/4 1493/2/4 1504/2/4
f 1500/6/4 1502/6/4 1504/6/4
f 1493/6/4 1500/6/4 1504/6/4
f 1502/7/4 1503/7/4 1505/7/4
f 1504/6/4 1502/6/4 1505/6/4
f 1505/7/4 1503/7/4 1506/7/4
f 1486/2/4 1504/2/4 1507/2/4
f 1507/3/4 1508/3/4 1509/3/4
f 1509/3/4 1510/3/4 1511/3/4
f 1484/5/4 1485/5/4 1513/5/4
f 1485/1/4 1486/1/4 1514/1/4
f 1513/5/4 1485/5/4 1514/5/4
f 1486/2/4 1507/2/4 1515/2/4
f 1514/1/4 1486/1/4 1515/1/4
f 1511/3/4 1512/3/4 1516/3/4
f 1515/2/4 1507/2/4 1516/2/4
f 1507/3/4 1509/3/4 1516/3/4
f 1509/3/4 1511/3/4 1516/3/4
f 1516/3/4 1512/3/4 1517/3/4
f 1520/5/5 1519/5/5 1518/5/5
f 1521/5/5 1519/5/5 1520/5/5
f 1524/6/5 1523/6/5 1522/6/5
f 1525/6/5 1523/6/5 1524/6/5
f 1530/6/5 1529/6/5 1528/6/5
f 1531/6/5 1529/6/5 1530/6/5
f 1532/6/5 1527/6/5 1526/6/5
f 1533/6/5 1527/6/5 1532/6/5
f 1538/6/5 1535/6/5 1534/6/5
f 1539/6/5 1535/6/5 1538/6/5
f 1540/6/5 1537/6/5 1536/6/5
f 1541/6/5 1537/6/5 1540/6/5
f 1542/2/6 1543/2/6 1546/2/6
f 1544/2/6 1545/2/6 1547/2/6
f 1547/2/6 1545/2/6 1548/2/6
f 1546/2/6 1547/2/6 1550/2/6
f 1548/2/6 1549/2/6 1550/2/6
f 1547/2/6 1548/2/6 1550/2/6
f 1550/2/6 1551/2/6 1552/2/6
f 1552/2/6 1553/2/6 1554/2/6
f 1542/2/6 1546/2/6 1556/2/6
f 1554/2/6 1555/2/6 1556/2/6
f 1552/2/6 1554/2/6 1556/2/6
f 1550/2/6 1552/2/6 1556/2/6
f 1546/2/6 1550/2/6 1556/2/6
f 1556/2/6 1555/2/6 1557/2/6
f 1557/2/6 1555/2/6 1558/2/6
f 1558/2/6 1555/2/6 1559/2/6
f 1559/2/6 1555/2/6 1560/2/6
f 1557/2/6 1558/2/6 1562/2/6
f 1562/2/6 1558/2/6 1563/2/6
f 1560/2/6 1561/2/6 1564/2/6
f 1559/2/6 1560/2/6 1564/2/6
f 1564/2/6 1561/2/6 1565/2/6
f 1565/2/6 1561/2/6 1566/2/6
f 1566/2/6 1561/2/6 1567/2/6
f 1567/2/6 1561/2/6 1568/2/6
f 1568/2/6 1569/2/6 1570/2/6
f 1567/2/6 1568/2/6 1570/2/6
f 1570/2/6 1569/2/6 1571/2/6
f 1571/2/6 1569/2/6 1572/2/6
f 1572/2/6 1569/2/6 1573/2/6
f 1573/2/6 1569/2/6 1574/2/6
f 1574/2/6 1569/2/6 1575/2/6
f 1576/2/6 1577/2/6 1579/2/6
f 1577/2/6 1578/2/6 1579/2/6
f 1575/2/6 1569/2/6 1581/2/6
f 1581/2/6 1569/2/6 1582/2/6
f 1579/2/6 1580/2/6 1583/2/6
f 1582/2/6 1569/2/6 1585/2/6
f 1585/2/6 1569/2/6 1586/2/6
f 1583/2/6 1584/2/6 1587/2/6
f 1587/2/6 1588/2/6 1589/2/6
f 1589/2/6 1590/2/6 1591/2/6
f 1591/2/6 1592/2/6 1593/2/6
f 1586/2/6 1569/2/6 1595/2/6
f 1595/2/6 1569/2/6 1596/2/6
f 1593/2/6 1594/2/6 1597/2/6
f 1596/2/6 1569/2/6 1600/2/6
f 1597/2/6 1598/2/6 1601/2/6
f 1576/2/6 1579/2/6 1601/2/6
f 1579/2/6 1583/2/6 1601/2/6
f 1583/2/6 1587/2/6 1601/2/6
f 1593/2/6 1597/2/6 1601/2/6
f 1587/2/6 1589/2/6 1601/2/6
f 1591/2/6 1593/2/6 1601/2/6
f 1589/2/6 1591/2/6 1601/2/6
f 1601/2/6 1598/2/6 1602/2/6
f 1602/2/6 1598/2/6 1603/2/6
f 1603/2/6 1598/2/6 1604/2/6
f 1599/2/6 1600/2/6 1605/2/6
f 1600/2/6 1569/2/6 1606/2/6
f 1605/2/6 1600/2/6 1606/2/6
f 1606/2/6 1569/2/6 1607/2/6
f 1604/2/6 1598/2/6 1608/2/6
f 1608/2/6 1598/2/6 1609/2/6
f 1609/2/6 1598/2/6 1610/2/6
f 1610/2/6 1598/2/6 1611/2/6
f 1607/2/6 1569/2/6 1612/2/6
f 1609/2/6 1610/2/6 1613/2/6
f 1613/2/6 1610/2/6 1614/2/6
f 1614/2/6 1610/2/6 1615/2/6
f 1612/2/6 1569/2/6 1618/2/6
f 1618/2/6 1569/2/6 1619/2/6
f 1619/2/6 1569/2/6 1620/2/6
f 1615/2/6 1616/2/6 1621/2/6
f 1614/2/6 1615/2/6 1621/2/6
f 1621/2/6 1616/2/6 1622/2/6
f 1618/2/6 1619/2/6 1623/2/6
f 1617/2/6 1618/2/6 1623/2/6
f 1623/2/6 1619/2/6 1624/2/6
f 1624/2/6 1619/2/6 1625/2/6
f 1625/2/6 1619/2/6 1626/2/6
f 1620/2/6 1569/2/6 1627/2/6
f 1627/2/6 1569/2/6 1628/2/6
f 1622/2/6 1616/2/6 1629/2/6
f 1629/2/6 1616/2/6 1630/2/6
f 1630/2/6 1616/2/6 1631/2/6
f 1631/2/6 1632/2/6 1633/2/6
f 1630/2/6 1631/2/6 1633/2/6
f 1624/2/6 1625/2/6 1636/2/6
f 1636/2/6 1625/2/6 1637/2/6
f 1637/2/6 1625/2/6 1638/2/6
f 1635/2/6 1636/2/6 1639/2/6
f 1636/2/6 1637/2/6 1639/2/6
f 1639/2/6 1637/2/6 1640/2/6
f 1633/2/6 1634/2/6 1641/2/6
f 1630/2/6 1633/2/6 1641/2/6
f 1641/2/6 1634/2/6 1642/2/6
f 1635/2/6 1639/2/6 1643/2/6
f 1643/2/6 1639/2/6 1644/2/6
f 1630/2/6 1641/2/6 1645/2/6
f 1645/2/6 1641/2/6 1646/2/6
f 1644/2/6 1639/2/6 1647/2/6
f 1647/2/6 1639/2/6 1648/2/6
f 1646/2/6 1641/2/6 1649/2/6
f 1649/2/6 1641/2/6 1650/2/6
f 1644/2/6 1647/2/6 1651/2/6
f 1651/2/6 1647/2/6 1652/2/6
f 1653/3/6 1654/3/6 1655/3/6
f 1657/3/6 1658/3/6 1660/3/6
f 1660/3/6 1658/3/6 1661/3/6
f 1653/3/6 1655/3/6 1665/3/6
f 1655/3/6 1656/3/6 1665/3/6
f 1665/3/6 1656/3/6 1666/3/6
f 1666/3/6 1656/3/6 1667/3/6
f 1661/3/6 1662/3/6 1668/3/6
f 1659/3/6 1660/3/6 1668/3/6
f 1660/3/6 1661/3/6 1668/3/6
f 1668/3/6 1662/3/6 1669/3/6
f 1669/3/6 1662/3/6 1670/3/6
f 1663/3/6 1664/3/6 1671/3/6
f 1671/3/6 1664/3/6 1672/3/6
f 1666/3/6 1667/3/6 1674/3/6
f 1667/3/6 1668/3/6 1674/3/6
f 1668/3/6 1669/3/6 1674/3/6
f 1674/3/6 1669/3/6 1675/3/6
f 1672/3/6 1673/3/6 1676/3/6
f 1671/3/6 1672/3/6 1676/3/6
f 1676/3/6 1673/3/6 1677/3/6
f 1677/3/6 1673/3/6 1678/3/6
f 1678/3/6 1679/3/6 1680/3/6
f 1677/3/6 1678/3/6 1680/3/6
f 1677/3/6 1680/3/6 1682/3/6
f 1680/3/6 1681/3/6 1682/3/6
f 1682/3/6 1681/3/6 1683/3/6
f 1683/3/6 1681/3/6 1684/3/6
f 1684/3/6 1685/3/6 1686/3/6
f 1683/3/6 1684/3/6 1686/3/6
f 1683/3/6 1686/3/6 1688/3/6
f 1686/3/6 1687/3/6 1688/3/6
f 1688/3/6 1687/3/6 1689/3/6
f 1689/3/6 1687/3/6 1690/3/6
f 1690/3/6 1691/3/6 1692/3/6
f 1689/3/6 1690/3/6 1692/3/6
f 1692/3/6 1691/3/6 1693/3/6
f 1693/3/6 1691/3/6 1694/3/6
f 1693/3/6 1694/3/6 1698/3/6
f 1694/3/6 1695/3/6 1698/3/6
f 1698/3/6 1695/3/6 1699/3/6
f 1699/3/6 1695/3/6 1700/3/6
f 1696/3/6 1697/3/6 1701/3/6
f 1701/3/6 1697/3/6 1702/3/6
f 1699/3/6 1700/3/6 1706/3/6
f 1702/3/6 1703/3/6 1706/3/6
f 1701/3/6 1702/3/6 1706/3/6
f 1700/3/6 1701/3/6 1706/3/6
f 1704/3/6 1705/3/6 1707/3/6
f 1699/3/6 1706/3/6 1708/3/6
f 1706/3/6 1707/3/6 1708/3/6
f 1707/3/6 1705/3/6 1709/3/6
f 1708/3/6 1707/3/6 1709/3/6
f 1710/3/6 1711/3/6 1712/3/6
f 1712/3/6 1713/3/6 1716/3/6
f 1714/7/6 1715/7/6 1718/7/6
f 1718/7/6 1715/7/6 1719/7/6
f 1710/3/6 1712/3/6 1720/3/6
f 1716/3/6 1717/3/6 1720/3/6
f 1712/3/6 1716/3/6 1720/3/6
f 1720/3/6 1717/3/6 1721/3/6
f 1721/3/6 1717/3/6 1722/3/6
f 1722/3/6 1723/3/6 1726/3/6
f 1721/3/6 1722/3/6 1726/3/6
f 1726/3/6 1723/3/6 1727/3/6
f 1727/3/6 1723/3/6 1728/3/6
f 1724/3/6 1725/3/6 1731/3/6
f 1731/3/6 1725/3/6 1732/3/6
f 1728/3/6 1729/3/6 1734/3/6
f 1727/3/6 1728/3/6 1734/3/6
f 1734/3/6 1729/3/6 1735/3/6
f 1735/3/6 1729/3/6 1736/3/6
f 1732/3/6 1733/3/6 1738/3/6
f 1731/3/6 1732/3/6 1738/3/6
f 1730/3/6 1731/3/6 1738/3/6
f 1738/3/6 1733/3/6 1739/3/6
f 1736/3/6 1737/3/6 1740/3/6
f 1735/3/6 1736/3/6 1740/3/6
f 1740/3/6 1737/3/6 1741/3/6
f 1730/3/6 1738/3/6 1743/3/6
f 1743/3/6 1738/3/6 1744/3/6
f 1742/3/6 1743/3/6 1746/3/6
f 1746/3/6 1743/3/6 1747/3/6
f 1745/3/6 1746/3/6 1747/3/6
f 1747/3/6 1743/3/6 1748/3/6
f 1741/3/6 1737/3/6 1750/3/6
f 1750/3/6 1737/3/6 1751/3/6
f 1745/3/6 1747/3/6 1754/3/6
f 1751/3/6 1752/3/6 1756/3/6
f 1749/3/6 1750/3/6 1756/3/6
f 1750/3/6 1751/3/6 1756/3/6
f 1755/3/6 1756/3/6 1758/3/6
f 1753/3/6 1754/3/6 1759/3/6
f 1754/3/6 1747/3/6 1759/3/6
f 1757/3/6 1758/3/6 1761/3/6
f 1758/3/6 1756/3/6 1762/3/6
f 1761/3/6 1758/3/6 1762/3/6
f 1756/3/6 1752/3/6 1762/3/6
f 1759/3/6 1760/3/6 1763/3/6
f 1753/3/6 1759/3/6 1763/3/6
f 1763/3/6 1760/3/6 1764/3/6
f 1765/3/6 1766/3/6 1771/3/6
f 1771/3/6 1766/3/6 1772/3/6
f 1772/3/6 1766/3/6 1773/3/6
f 1767/3/6 1768/3/6 1776/3/6
f 1776/3/6 1768/3/6 1777/3/6
f 1777/3/6 1768/3/6 1778/3/6
f 1769/3/6 1770/3/6 1780/3/6
f 1780/3/6 1770/3/6 1781/3/6
f 1773/3/6 1774/3/6 1783/3/6
f 1772/3/6 1773/3/6 1783/3/6
f 1775/3/6 1776/3/6 1784/3/6
f 1776/3/6 1777/3/6 1784/3/6
f 1784/3/6 1777/3/6 1785/3/6
f 1785/3/6 1777/3/6 1786/3/6
f 1781/3/6 1782/3/6 1787/3/6
f 1780/3/6 1781/3/6 1787/3/6
f 1779/3/6 1780/3/6 1787/3/6
f 1787/3/6 1782/3/6 1788/3/6
f 1788/3/6 1782/3/6 1789/3/6
f 1789/3/6 1782/3/6 1790/3/6
f 1790/3/6 1782/3/6 1791/3/6
f 1784/3/6 1785/3/6 1793/3/6
f 1783/3/6 1784/3/6 1793/3/6
f 1772/3/6 1783/3/6 1793/3/6
f 1793/3/6 1785/3/6 1794/3/6
f 1788/3/6 1789/3/6 1795/3/6
f 1795/3/6 1789/3/6 1796/3/6
f 1791/3/6 1792/3/6 1797/3/6
f 1790/3/6 1791/3/6 1797/3/6
f 1797/3/6 1792/3/6 1798/3/6
f 1798/3/6 1792/3/6 1799/3/6
f 1799/3/6 1800/3/6 1801/3/6
f 1798/3/6 1799/3/6 1801/3/6
f 1801/3/6 1800/3/6 1802/3/6
f 1802/3/6 1800/3/6 1803/3/6
f 1803/3/6 1804/3/6 1805/3/6
f 1802/3/6 1803/3/6 1805/3/6
f 1805/3/6 1804/3/6 1806/3/6
f 1806/3/6 1804/3/6 1807/3/6
f 1807/3/6 1808/3/6 1809/3/6
f 1806/3/6 1807/3/6 1809/3/6
f 1809/3/6 1808/3/6 1810/3/6
f 1810/3/6 1808/3/6 1811/3/6
f 1811/3/6 1812/3/6 1813/3/6
f 1810/3/6 1811/3/6 1813/3/6
f 1813/3/6 1812/3/6 1814/3/6
f 1814/3/6 1812/3/6 1815/3/6
f 1814/3/6 1815/3/6 1821/3/6
f 1815/3/6 1816/3/6 1821/3/6
f 1821/3/6 1816/3/6 1822/3/6
f 1822/3/6 1816/3/6 1823/3/6
f 1817/3/6 1818/3/6 1824/3/6
f 1824/3/6 1818/3/6 1825/3/6
f 1819/3/6 1820/3/6 1826/3/6
f 1824/3/6 1825/3/6 1827/3/6
f 1825/3/6 1826/3/6 1827/3/6
f 1822/3/6 1823/3/6 1827/3/6
f 1823/3/6 1824/3/6 1827/3/6
f 1827/3/6 1826/3/6 1828/3/6
f 1828/3/6 1826/3/6 1829/3/6
f 1829/3/6 1826/3/6 1830/3/6
f 1828/3/6 1829/3/6 1835/3/6
f 1835/3/6 1829/3/6 1836/3/6
f 1830/3/6 1826/3/6 1837/3/6
f 1837/3/6 1826/3/6 1838/3/6
f 1838/3/6 1826/3/6 1839/3/6
f 1826/3/6 1820/3/6 1840/3/6
f 1839/3/6 1826/3/6 1840/3/6
f 1831/6/6 1832/6/6 1843/6/6
f 1843/6/6 1832/6/6 1844/6/6
f 1844/6/6 1832/6/6 1845/6/6
f 1833/6/6 1834/6/6 1848/6/6
f 1848/6/6 1834/6/6 1849/6/6
f 1838/3/6 1839/3/6 1856/3/6
f 1856/3/6 1839/3/6 1857/3/6
f 1841/5/6 1842/5/6 1858/5/6
f 1842/6/6 1843/6/6 1859/6/6
f 1858/5/6 1842/5/6 1859/5/6
f 1843/6/6 1844/6/6 1859/6/6
f 1859/6/6 1844/6/6 1860/6/6
f 1860/6/6 1844/6/6 1861/6/6
f 1844/4/6 1845/4/6 1862/4/6
f 1861/6/6 1844/6/6 1862/6/6
f 1845/6/6 1846/6/6 1863/6/6
f 1862/4/6 1845/4/6 1863/4/6
f 1846/5/6 1847/5/6 1864/5/6
f 1863/6/6 1846/6/6 1864/6/6
f 1847/6/6 1848/6/6 1865/6/6
f 1864/5/6 1847/5/6 1865/5/6
f 1848/4/6 1849/4/6 1866/4/6
f 1865/6/6 1848/6/6 1866/6/6
f 1849/5/6 1850/5/6 1867/5/6
f 1866/4/6 1849/4/6 1867/4/6
f 1850/6/6 1851/6/6 1868/6/6
f 1867/5/6 1850/5/6 1868/5/6
f 1868/6/6 1851/6/6 1869/6/6
f 1852/6/6 1853/6/6 1870/6/6
f 1870/6/6 1853/6/6 1871/6/6
f 1854/6/6 1855/6/6 1872/6/6
f 1858/6/6 1859/6/6 1875/6/6
f 1859/5/6 1860/5/6 1876/5/6
f 1875/6/6 1859/6/6 1876/6/6
f 1860/6/6 1861/6/6 1877/6/6
f 1876/5/6 1860/5/6 1877/5/6
f 1862/5/6 1863/5/6 1878/5/6
f 1877/6/6 1861/6/6 1878/6/6
f 1861/5/6 1862/5/6 1878/5/6
f 1863/5/6 1864/5/6 1878/5/6
f 1878/5/6 1864/5/6 1879/5/6
f 1879/5/6 1864/5/6 1880/5/6
f 1864/4/6 1865/4/6 1881/4/6
f 1880/5/6 1864/5/6 1881/5/6
f 1865/6/6 1866/6/6 1882/6/6
f 1881/4/6 1865/4/6 1882/4/6
f 1866/5/6 1867/5/6 1883/5/6
f 1882/6/6 1866/6/6 1883/6/6
f 1870/6/6 1871/6/6 1884/6/6
f 1883/5/6 1867/5/6 1884/5/6
f 1871/6/6 1872/6/6 1884/6/6
f 1868/6/6 1869/6/6 1884/6/6
f 1867/6/6 1868/6/6 1884/6/6
f 1869/6/6 1870/6/6 1884/6/6
f 1884/6/6 1872/6/6 1885/6/6
f 1885/6/6 1872/6/6 1886/6/6
f 1886/6/6 1872/6/6 1887/6/6
f 1887/6/6 1872/6/6 1888/6/6
f 1872/6/6 1855/6/6 1889/6/6
f 1888/6/6 1872/6/6 1889/6/6
f 1873/6/6 1874/6/6 1890/6/6
f 1876/5/6 1877/5/6 1891/5/6
f 1875/5/6 1876/5/6 1891/5/6
f 1877/4/6 1878/4/6 1892/4/6
f 1891/5/6 1877/5/6 1892/5/6
f 1878/5/6 1879/5/6 1893/5/6
f 1892/4/6 1878/4/6 1893/4/6
f 1879/6/6 1880/6/6 1894/6/6
f 1893/5/6 1879/5/6 1894/5/6
f 1880/5/6 1881/5/6 1895/5/6
f 1894/6/6 1880/6/6 1895/6/6
f 1881/5/6 1882/5/6 1895/5/6
f 1882/4/6 1883/4/6 1896/4/6
f 1895/5/6 1882/5/6 1896/5/6
f 1883/5/6 1884/5/6 1897/5/6
f 1896/4/6 1883/4/6 1897/4/6
f 1884/5/6 1885/5/6 1897/5/6
f 1885/4/6 1886/4/6 1898/4/6
f 1897/5/6 1885/5/6 1898/5/6
f 1886/6/6 1887/6/6 1899/6/6
f 1898/4/6 1886/4/6 1899/4/6
f 1887/5/6 1888/5/6 1900/5/6
f 1899/6/6 1887/6/6 1900/6/6
f 1889/6/6 1890/6/6 1901/6/6
f 1900/5/6 1888/5/6 1901/5/6
f 1888/6/6 1889/6/6 1901/6/6
f 1901/6/6 1890/6/6 1902/6/6
f 1902/6/6 1890/6/6 1903/6/6
f 1903/6/6 1890/6/6 1904/6/6
f 1890/6/6 1874/6/6 1905/6/6
f 1904/6/6 1890/6/6 1905/6/6
f 1891/6/6 1892/6/6 1907/6/6
f 1892/6/6 1893/6/6 1907/6/6
f 1893/6/6 1894/6/6 1907/6/6
f 1894/5/6 1895/5/6 1908/5/6
f 1907/6/6 1894/6/6 1908/6/6
f 1895/6/6 1896/6/6 1909/6/6
f 1908/5/6 1895/5/6 1909/5/6
f 1909/6/6 1896/6/6 1910/6/6
f 1896/5/6 1897/5/6 1911/5/6
f 1910/6/6 1896/6/6 1911/6/6
f 1897/6/6 1898/6/6 1912/6/6
f 1911/5/6 1897/5/6 1912/5/6
f 1899/5/6 1900/5/6 1913/5/6
f 1912/6/6 1898/6/6 1913/6/6
f 1898/5/6 1899/5/6 1913/5/6
f 1913/5/6 1900/5/6 1914/5/6
f 1900/4/6 1901/4/6 1915/4/6
f 1914/5/6 1900/5/6 1915/5/6
f 1901/5/6 1902/5/6 1916/5/6
f 1915/4/6 1901/4/6 1916/4/6
f 1902/4/6 1903/4/6 1917/4/6
f 1916/5/6 1902/5/6 1917/5/6
f 1903/5/6 1904/5/6 1918/5/6
f 1917/4/6 1903/4/6 1918/4/6
f 1905/6/6 1906/6/6 1919/6/6
f 1918/5/6 1904/5/6 1919/5/6
f 1904/6/6 1905/6/6 1919/6/6
f 1919/6/6 1906/6/6 1920/6/6
f 1920/6/6 1906/6/6 1921/6/6
f 1921/6/6 1906/6/6 1922/6/6
f 1908/6/6 1909/6/6 1924/6/6
f 1924/6/6 1909/6/6 1925/6/6
f 1910/6/6 1911/6/6 1926/6/6
f 1926/6/6 1911/6/6 1927/6/6
f 1913/4/6 1914/4/6 1929/4/6
f 1915/6/6 1916/6/6 1930/6/6
f 1914/6/6 1915/6/6 1930/6/6
f 1929/4/6 1914/4/6 1930/4/6
f 1930/6/6 1916/6/6 1931/6/6
f 1916/5/6 1917/5/6 1932/5/6
f 1931/6/6 1916/6/6 1932/6/6
f 1917/5/6 1918/5/6 1932/5/6
f 1932/5/6 1918/5/6 1933/5/6
f 1918/4/6 1919/4/6 1934/4/6
f 1933/5/6 1918/5/6 1934/5/6
f 1919/5/6 1920/5/6 1935/5/6
f 1934/4/6 1919/4/6 1935/4/6
f 1920/4/6 1921/4/6 1936/4/6
f 1935/5/6 1920/5/6 1936/5/6
f 1922/6/6 1923/6/6 1937/6/6
f 1936/4/6 1921/4/6 1937/4/6
f 1921/6/6 1922/6/6 1937/6/6
f 1937/6/6 1923/6/6 1938/6/6
f 1938/6/6 1923/6/6 1939/6/6
f 1939/6/6 1923/6/6 1940/6/6
f 1940/6/6 1923/6/6 1941/6/6
f 1928/6/6 1929/6/6 1943/6/6
f 1943/6/6 1929/6/6 1944/6/6
f 1931/6/6 1932/6/6 1945/6/6
f 1945/6/6 1932/6/6 1946/6/6
f 1934/6/6 1935/6/6 1947/6/6
f 1933/6/6 1934/6/6 1947/6/6
f 1935/5/6 1936/5/6 1948/5/6
f 1947/6/6 1935/6/6 1948/6/6
f 1937/5/6 1938/5/6 1948/5/6
f 1936/5/6 1937/5/6 1948/5/6
f 1948/5/6 1938/5/6 1949/5/6
f 1949/5/6 1938/5/6 1950/5/6
f 1938/6/6 1939/6/6 1951/6/6
f 1950/5/6 1938/5/6 1951/5/6
f 1939/5/6 1940/5/6 1952/5/6
f 1951/6/6 1939/6/6 1952/6/6
f 1941/6/6 1942/6/6 1953/6/6
f 1952/5/6 1940/5/6 1953/5/6
f 1940/6/6 1941/6/6 1953/6/6
f 1953/6/6 1942/6/6 1954/6/6
f 1954/6/6 1942/6/6 1955/6/6
f 1955/6/6 1942/6/6 1956/6/6
f 1933/6/6 1947/6/6 1957/6/6
f 1957/6/6 1947/6/6 1958/6/6
f 1948/6/6 1949/6/6 1959/6/6
f 1949/4/6 1950/4/6 1960/4/6
f 1959/6/6 1949/6/6 1960/6/6
f 1950/5/6 1951/5/6 1961/5/6
f 1960/4/6 1950/4/6 1961/4/6
f 1951/4/6 1952/4/6 1962/4/6
f 1961/5/6 1951/5/6 1962/5/6
f 1952/4/6 1953/4/6 1962/4/6
f 1953/5/6 1954/5/6 1963/5/6
f 1962/4/6 1953/4/6 1963/4/6
f 1954/6/6 1955/6/6 1964/6/6
f 1963/5/6 1954/5/6 1964/5/6
f 1964/6/6 1955/6/6 1965/6/6
f 1960/6/6 1961/6/6 1967/6/6
f 1962/5/6 1963/5/6 1968/5/6
f 1967/6/6 1961/6/6 1968/6/6
f 1961/5/6 1962/5/6 1968/5/6
f 1968/5/6 1963/5/6 1969/5/6
f 1969/5/6 1963/5/6 1970/5/6
f 1965/6/6 1966/6/6 1971/6/6
f 1964/6/6 1965/6/6 1971/6/6
f 1963/6/6 1964/6/6 1971/6/6
f 1968/6/6 1969/6/6 1973/6/6
f 1969/4/6 1970/4/6 1974/4/6
f 1973/6/6 1969/6/6 1974/6/6
f 1970/5/6 1963/5/6 1975/5/6
f 1974/4/6 1970/4/6 1975/4/6
f 1963/6/6 1971/6/6 1976/6/6
f 1975/5/6 1963/5/6 1976/5/6
f 1971/6/6 1972/6/6 1976/6/6
f 1976/6/6 1972/6/6 1977/6/6
f 1977/6/6 1972/6/6 1978/6/6
f 1974/6/6 1975/6/6 1980/6/6
f 1975/5/6 1976/5/6 1981/5/6
f 1980/6/6 1975/6/6 1981/6/6
f 1976/4/6 1977/4/6 1982/4/6
f 1981/5/6 1976/5/6 1982/5/6
f 1977/5/6 1978/5/6 1983/5/6
f 1978/6/6 1972/6/6 1983/6/6
f 1983/6/6 1972/6/6 1984/6/6
f 1984/6/6 1972/6/6 1985/6/6
f 1981/6/6 1982/6/6 1987/6/6
f 1979/6/6 1980/6/6 1987/6/6
f 1980/6/6 1981/6/6 1987/6/6
f 1987/6/6 1982/6/6 1988/6/6
f 1982/4/6 1977/4/6 1989/4/6
f 1988/6/6 1982/6/6 1989/6/6
f 1983/5/6 1984/5/6 1990/5/6
f 1989/4/6 1977/4/6 1990/4/6
f 1977/5/6 1983/5/6 1990/5/6
f 1990/5/6 1984/5/6 1991/5/6
f 1985/6/6 1986/6/6 1992/6/6
f 1991/5/6 1984/5/6 1992/5/6
f 1984/6/6 1985/6/6 1992/6/6
f 1992/6/6 1986/6/6 1993/6/6
f 1993/6/6 1986/6/6 1994/6/6
f 1988/6/6 1989/6/6 1995/6/6
f 1989/5/6 1990/5/6 1996/5/6
f 1995/6/6 1989/6/6 1996/6/6
f 1990/4/6 1991/4/6 1997/4/6
f 1996/5/6 1990/5/6 1997/5/6
f 1992/6/6 1993/6/6 1998/6/6
f 1997/4/6 1991/4/6 1998/4/6
f 1991/6/6 1992/6/6 1998/6/6
f 1998/6/6 1993/6/6 1999/6/6
f 1996/6/6 1997/6/6 2000/6/6
f 1997/5/6 1998/5/6 2000/5/6
f 1998/4/6 1999/4/6 2001/4/6
f 2000/5/6 1998/5/6 2001/5/6
f 1999/6/6 1993/6/6 2002/6/6
f 2001/4/6 1999/4/6 2002/4/6
f 2002/6/6 1993/6/6 2003/6/6
f 1996/6/6 2000/6/6 2005/6/6
f 2000/4/6 2001/4/6 2006/4/6
f 2005/6/6 2000/6/6 2006/6/6
f 2002/6/6 2003/6/6 2007/6/6
f 2006/4/6 2001/4/6 2007/4/6
f 2003/6/6 2004/6/6 2007/6/6
f 2001/6/6 2002/6/6 2007/6/6
f 2007/6/6 2004/6/6 2008/6/6
f 2008/6/6 2004/6/6 2009/6/6
f 2009/6/6 2004/6/6 2010/6/6
f 2010/6/6 2004/6/6 2011/6/6
f 2005/5/6 2006/5/6 2013/5/6
f 2006/5/6 2007/5/6 2013/5/6
f 2013/5/6 2007/5/6 2014/5/6
f 2007/6/6 2008/6/6 2015/6/6
f 2014/5/6 2007/5/6 2015/5/6
f 2008/5/6 2009/5/6 2016/5/6
f 2015/6/6 2008/6/6 2016/6/6
f 2009/6/6 2010/6/6 2017/6/6
f 2013/6/6 2014/6/6 2019/6/6
f 2012/6/6 2013/6/6 2019/6/6
f 2019/6/6 2014/6/6 2020/6/6
f 2014/5/6 2015/5/6 2021/5/6
f 2020/6/6 2014/6/6 2021/6/6
f 2015/4/6 2016/4/6 2022/4/6
f 2021/5/6 2015/5/6 2022/5/6
f 2016/5/6 2009/5/6 2023/5/6
f 2022/4/6 2016/4/6 2023/4/6
f 2017/6/6 2018/6/6 2024/6/6
f 2023/5/6 2009/5/6 2024/5/6
f 2009/6/6 2017/6/6 2024/6/6
f 2024/6/6 2018/6/6 2025/6/6
f 2025/6/6 2018/6/6 2026/6/6
f 2020/5/6 2021/5/6 2027/5/6
f 2021/4/6 2022/4/6 2028/4/6
f 2027/5/6 2021/5/6 2028/5/6
f 2022/5/6 2023/5/6 2029/5/6
f 2028/4/6 2022/4/6 2029/4/6
f 2024/6/6 2025/6/6 2030/6/6
f 2029/5/6 2023/5/6 2030/5/6
f 2023/6/6 2024/6/6 2030/6/6
f 2030/6/6 2025/6/6 2031/6/6
f 2027/4/6 2028/4/6 2034/4/6
f 2028/5/6 2029/5/6 2035/5/6
f 2034/4/6 2028/4/6 2035/4/6
f 2029/4/6 2030/4/6 2036/4/6
f 2035/5/6 2029/5/6 2036/5/6
f 2030/4/6 2031/4/6 2036/4/6
f 2036/4/6 2031/4/6 2037/4/6
f 2031/6/6 2025/6/6 2038/6/6
f 2037/4/6 2031/4/6 2038/4/6
f 2032/6/6 2033/6/6 2043/6/6
f 2033/6/6 2034/6/6 2043/6/6
f 2034/6/6 2035/6/6 2043/6/6
f 2043/6/6 2035/6/6 2044/6/6
f 2044/6/6 2035/6/6 2045/6/6
f 2035/4/6 2036/4/6 2046/4/6
f 2045/6/6 2035/6/6 2046/6/6
f 2036/6/6 2037/6/6 2047/6/6
f 2046/4/6 2036/4/6 2047/4/6
f 2037/5/6 2038/5/6 2048/5/6
f 2047/6/6 2037/6/6 2048/6/6
f 2038/6/6 2025/6/6 2049/6/6
f 2048/5/6 2038/5/6 2049/5/6
f 2049/6/6 2025/6/6 2050/6/6
f 2039/6/6 2040/6/6 2051/6/6
f 2051/6/6 2040/6/6 2052/6/6
f 2041/3/6 2042/3/6 2053/3/6
f 2045/6/6 2046/6/6 2055/6/6
f 2047/5/6 2048/5/6 2056/5/6
f 2055/6/6 2046/6/6 2056/6/6
f 2046/5/6 2047/5/6 2056/5/6
f 2056/5/6 2048/5/6 2057/5/6
f 2048/6/6 2049/6/6 2058/6/6
f 2057/5/6 2048/5/6 2058/5/6
f 2058/6/6 2049/6/6 2059/6/6
f 2041/3/6 2053/3/6 2062/3/6
f 2053/3/6 2054/3/6 2062/3/6
f 2062/3/6 2054/3/6 2063/3/6
f 2063/3/6 2054/3/6 2064/3/6
f 2056/5/6 2057/5/6 2066/5/6
f 2060/6/6 2061/6/6 2067/6/6
f 2066/5/6 2057/5/6 2067/5/6
f 2059/6/6 2060/6/6 2067/6/6
f 2058/6/6 2059/6/6 2067/6/6
f 2057/6/6 2058/6/6 2067/6/6
f 2067/6/6 2061/6/6 2068/6/6
f 2068/6/6 2061/6/6 2069/6/6
f 2069/6/6 2061/6/6 2070/6/6
f 2064/3/6 2065/3/6 2073/3/6
f 2063/3/6 2064/3/6 2073/3/6
f 2073/3/6 2065/3/6 2074/3/6
f 2074/3/6 2065/3/6 2075/3/6
f 2066/6/6 2067/6/6 2077/6/6
f 2067/5/6 2068/5/6 2078/5/6
f 2077/6/6 2067/6/6 2078/6/6
f 2070/6/6 2061/6/6 2079/6/6
f 2079/6/6 2061/6/6 2080/6/6
f 2071/3/6 2072/3/6 2082/3/6
f 2075/3/6 2076/3/6 2083/3/6
f 2074/3/6 2075/3/6 2083/3/6
f 2083/3/6 2076/3/6 2084/3/6
f 2077/4/6 2078/4/6 2086/4/6
f 2078/5/6 2068/5/6 2087/5/6
f 2086/4/6 2078/4/6 2087/4/6
f 2068/6/6 2069/6/6 2088/6/6
f 2087/5/6 2068/5/6 2088/5/6
f 2088/6/6 2069/6/6 2089/6/6
f 2081/3/6 2082/3/6 2091/3/6
f 2082/3/6 2072/3/6 2091/3/6
f 2091/3/6 2072/3/6 2092/3/6
f 2085/6/6 2086/6/6 2093/6/6
f 2086/5/6 2087/5/6 2094/5/6
f 2093/6/6 2086/6/6 2094/6/6
f 2089/6/6 2090/6/6 2095/6/6
f 2094/5/6 2087/5/6 2095/5/6
f 2088/6/6 2089/6/6 2095/6/6
f 2087/6/6 2088/6/6 2095/6/6
f 2095/6/6 2090/6/6 2096/6/6
f 2096/6/6 2090/6/6 2097/6/6
f 2097/6/6 2090/6/6 2098/6/6
f 2081/3/6 2091/3/6 2099/3/6
f 2099/3/6 2091/3/6 2100/3/6
f 2094/5/6 2095/5/6 2101/5/6
f 2095/4/6 2096/4/6 2102/4/6
f 2101/5/6 2095/5/6 2102/5/6
f 2096/6/6 2097/6/6 2103/6/6
f 2102/4/6 2096/4/6 2103/4/6
f 2103/6/6 2097/6/6 2104/6/6
f 2081/3/6 2099/3/6 2107/3/6
f 2107/3/6 2099/3/6 2108/3/6
f 2108/3/6 2099/3/6 2109/3/6
f 2084/3/6 2076/3/6 2111/3/6
f 2111/3/6 2076/3/6 2112/3/6
f 2112/3/6 2076/3/6 2113/3/6
f 2101/6/6 2102/6/6 2115/6/6
f 2102/5/6 2103/5/6 2116/5/6
f 2115/6/6 2102/6/6 2116/6/6
f 2104/6/6 2105/6/6 2117/6/6
f 2116/5/6 2103/5/6 2117/5/6
f 2103/6/6 2104/6/6 2117/6/6
f 2117/6/6 2105/6/6 2118/6/6
f 2118/6/6 2105/6/6 2119/6/6
f 2110/3/6 2111/3/6 2122/3/6
f 2111/3/6 2112/3/6 2122/3/6
f 2122/3/6 2112/3/6 2123/3/6
f 2115/6/6 2116/6/6 2125/6/6
f 2114/6/6 2115/6/6 2125/6/6
f 2125/6/6 2116/6/6 2126/6/6
f 2116/4/6 2117/4/6 2127/4/6
f 2126/6/6 2116/6/6 2127/6/6
f 2117/6/6 2118/6/6 2128/6/6
f 2127/4/6 2117/4/6 2128/4/6
f 2118/4/6 2119/4/6 2129/4/6
f 2128/6/6 2118/6/6 2129/6/6
f 2119/6/6 2120/6/6 2130/6/6
f 2129/4/6 2119/4/6 2130/4/6
f 2130/6/6 2120/6/6 2131/6/6
f 2121/3/6 2122/3/6 2132/3/6
f 2132/3/6 2122/3/6 2133/3/6
f 2125/6/6 2126/6/6 2134/6/6
f 2124/6/6 2125/6/6 2134/6/6
f 2134/6/6 2126/6/6 2135/6/6
f 2126/5/6 2127/5/6 2136/5/6
f 2135/6/6 2126/6/6 2136/6/6
f 2127/6/6 2128/6/6 2137/6/6
f 2136/5/6 2127/5/6 2137/5/6
f 2128/5/6 2129/5/6 2138/5/6
f 2137/6/6 2128/6/6 2138/6/6
f 2129/6/6 2130/6/6 2139/6/6
f 2138/5/6 2129/5/6 2139/5/6
f 2106/3/6 2107/3/6 2140/3/6
f 2107/3/6 2108/3/6 2140/3/6
f 2140/3/6 2108/3/6 2141/3/6
f 2141/3/6 2108/3/6 2142/3/6
f 2142/3/6 2108/3/6 2143/3/6
f 2121/3/6 2132/3/6 2144/3/6
f 2144/3/6 2132/3/6 2145/3/6
f 2135/6/6 2136/6/6 2146/6/6
f 2136/4/6 2137/4/6 2147/4/6
f 2146/6/6 2136/6/6 2147/6/6
f 2137/4/6 2138/4/6 2147/4/6
f 2138/6/6 2139/6/6 2148/6/6
f 2147/4/6 2138/4/6 2148/4/6
f 2139/6/6 2130/6/6 2149/6/6
f 2148/6/6 2139/6/6 2149/6/6
f 2141/3/6 2142/3/6 2150/3/6
f 2150/3/6 2142/3/6 2151/3/6
f 2152/3/6 2153/3/6 2158/3/6
f 2158/3/6 2153/3/6 2159/3/6
f 2159/3/6 2153/3/6 2160/3/6
f 2160/3/6 2153/3/6 2161/3/6
f 2154/3/6 2155/3/6 2162/3/6
f 2162/3/6 2155/3/6 2163/3/6
f 2156/3/6 2157/3/6 2164/3/6
f 2164/3/6 2157/3/6 2165/3/6
f 2159/3/6 2160/3/6 2166/3/6
f 2166/3/6 2160/3/6 2167/3/6
f 2165/3/6 2157/3/6 2168/3/6
f 2168/3/6 2157/3/6 2169/3/6
f 2169/3/6 2157/3/6 2170/3/6
f 2170/3/6 2157/3/6 2171/3/6
f 2171/3/6 2157/3/6 2172/3/6
f 2172/3/6 2157/3/6 2173/3/6
f 2173/3/6 2157/3/6 2174/3/6
f 2174/3/6 2157/3/6 2175/3/6
f 2175/3/6 2157/3/6 2176/3/6
f 2176/3/6 2157/3/6 2177/3/6
f 2177/3/6 2157/3/6 2178/3/6
f 2178/3/6 2157/3/6 2179/3/6
f 2179/3/6 2157/3/6 2180/3/6
f 2180/3/6 2157/3/6 2181/3/6
f 2181/3/6 2157/3/6 2182/3/6
f 2182/3/6 2157/3/6 2183/3/6
f 2179/3/6 2180/3/6 2184/3/6
f 2184/3/6 2180/3/6 2185/3/6
f 2181/3/6 2182/3/6 2186/3/6
f 2186/3/6 2182/3/6 2187/3/6
f 2188/7/6 2189/7/6 2194/7/6
f 2194/7/6 2189/7/6 2195/7/6
f 2190/7/6 2191/7/6 2196/7/6
f 2196/7/6 2191/7/6 2197/7/6
f 2192/7/6 2193/7/6 2198/7/6
f 2198/7/6 2193/7/6 2199/7/6
f 2199/7/6 2193/7/6 2204/7/6
f 2204/7/6 2193/7/6 2205/7/6
f 2200/7/6 2201/7/6 2206/7/6
f 2206/7/6 2201/7/6 2207/7/6
f 2202/7/6 2203/7/6 2208/7/6
f 2208/7/6 2209/7/6 2212/7/6
f 2202/7/6 2208/7/6 2212/7/6
f 2212/7/6 2209/7/6 2213/7/6
f 2210/7/6 2211/7/6 2214/7/6
f 2214/7/6 2215/7/6 2216/7/6
f 2210/7/6 2214/7/6 2216/7/6
f 2216/7/6 2215/7/6 2217/7/6
f 2217/7/6 2215/7/6 2218/7/6
f 2218/7/6 2219/7/6 2226/7/6
f 2217/7/6 2218/7/6 2226/7/6
f 2226/7/6 2219/7/6 2227/7/6
f 2227/7/6 2219/7/6 2228/7/6
f 2220/7/6 2221/7/6 2230/7/6
f 2230/7/6 2221/7/6 2231/7/6
f 2222/7/6 2223/7/6 2232/7/6
f 2232/7/6 2223/7/6 2233/7/6
f 2224/7/6 2225/7/6 2234/7/6
f 2234/7/6 2225/7/6 2235/7/6
f 2228/7/6 2229/7/6 2239/7/6
f 2227/7/6 2228/7/6 2239/7/6
f 2239/7/6 2229/7/6 2240/7/6
f 2235/7/6 2236/7/6 2241/7/6
f 2241/7/6 2236/7/6 2242/7/6
f 2237/7/6 2238/7/6 2247/7/6
f 2247/7/6 2238/7/6 2248/7/6
f 2243/7/6 2244/7/6 2249/7/6
f 2245/7/6 2246/7/6 2251/7/6
f 2251/7/6 2246/7/6 2252/7/6
f 2252/7/6 2246/7/6 2253/7/6
f 2249/7/6 2250/7/6 2255/7/6
f 2243/7/6 2249/7/6 2255/7/6
f 2255/7/6 2250/7/6 2256/7/6
f 2256/7/6 2250/7/6 2257/7/6
f 2253/7/6 2254/7/6 2259/7/6
f 2252/7/6 2253/7/6 2259/7/6
f 2259/7/6 2254/7/6 2260/7/6
f 2257/7/6 2258/7/6 2261/7/6
f 2256/7/6 2257/7/6 2261/7/6
f 2261/7/6 2258/7/6 2262/7/6
f 2262/7/6 2258/7/6 2263/7/6
f 2263/7/6 2264/7/6 2265/7/6
f 2262/7/6 2263/7/6 2265/7/6
f 2265/7/6 2264/7/6 2266/7/6
f 2260/7/6 2254/7/6 2267/7/6
f 2267/7/6 2254/7/6 2268/7/6
f 2269/7/6 2270/7/6 2273/7/6
f 2273/7/6 2270/7/6 2274/7/6
f 2274/7/6 2270/7/6 2275/7/6
f 2271/7/6 2272/7/6 2277/7/6
f 2275/7/6 2276/7/6 2279/7/6
f 2274/7/6 2275/7/6 2279/7/6
f 2279/7/6 2276/7/6 2280/7/6
f 2271/7/6 2277/7/6 2281/7/6
f 2277/7/6 2278/7/6 2281/7/6
f 2281/7/6 2278/7/6 2282/7/6
f 2280/7/6 2276/7/6 2285/7/6
f 2285/7/6 2276/7/6 2286/7/6
f 2283/7/6 2284/7/6 2287/7/6
f 2287/7/6 2284/7/6 2288/7/6
f 2289/7/6 2290/7/6 2293/7/6
f 2293/7/6 2290/7/6 2294/7/6
f 2291/7/6 2292/7/6 2298/7/6
f 2298/7/6 2292/7/6 2299/7/6
f 2295/7/6 2296/7/6 2300/7/6
f 2297/7/6 2298/7/6 2302/7/6
f 2302/7/6 2298/7/6 2303/7/6
f 2300/7/6 2301/7/6 2306/7/6
f 2295/7/6 2300/7/6 2306/7/6
f 2306/7/6 2301/7/6 2307/7/6
f 2304/3/6 2305/3/6 2310/3/6
f 2310/3/6 2311/3/6 2312/3/6
f 2307/7/6 2301/7/6 2314/7/6
f 2314/7/6 2301/7/6 2315/7/6
f 2308/7/6 2309/7/6 2316/7/6
f 2316/7/6 2309/7/6 2317/7/6
f 2318/3/6 2319/3/6 2325/3/6
f 2320/7/6 2321/7/6 2327/7/6
f 2322/7/6 2323/7/6 2328/7/6
f 2328/7/6 2323/7/6 2329/7/6
f 2324/3/6 2325/3/6 2332/3/6
f 2312/3/6 2313/3/6 2333/3/6
f 2310/3/6 2312/3/6 2333/3/6
f 2333/3/6 2313/3/6 2334/3/6
f 2326/7/6 2327/7/6 2335/7/6
f 2327/7/6 2321/7/6 2335/7/6
f 2335/7/6 2321/7/6 2336/7/6
f 2329/7/6 2330/7/6 2337/7/6
f 2337/7/6 2330/7/6 2338/7/6
f 2304/3/6 2310/3/6 2339/3/6
f 2310/3/6 2333/3/6 2339/3/6
f 2339/3/6 2333/3/6 2340/3/6
f 2326/7/6 2335/7/6 2341/7/6
f 2341/7/6 2335/7/6 2342/7/6
f 2331/3/6 2332/3/6 2348/3/6
f 2345/7/6 2346/7/6 2349/7/6
f 2349/7/6 2346/7/6 2350/7/6
f 2343/7/6 2344/7/6 2351/7/6
f 2351/7/6 2344/7/6 2352/7/6
f 2347/3/6 2348/3/6 2353/3/6
f 2332/3/6 2325/3/6 2354/3/6
f 2353/3/6 2348/3/6 2354/3/6
f 2325/3/6 2319/3/6 2354/3/6
f 2348/3/6 2332/3/6 2354/3/6
