# MagicaVoxel @ Ephtracy

# group
o 

# material
mtllib Dirt_Crossroads.mtl
usemtl palette

# normals
vn -1 0 0
vn 1 0 0
vn 0 0 1
vn 0 0 -1
vn 0 -1 0
vn 0 1 0

# texcoords
vt 0.537109 0.5
vt 0.904297 0.5
vt 0.978516 0.5
vt 0.994141 0.5

# verts
v -2 0 2
v -2 0 -2
v -2 0.3 2
v -2 0.3 -2
v -2 0.5 2
v -2 0.5 1
v -2 0.5 -1
v -2 0.5 -2
v -2 0.6 1
v -2 0.6 -1
v -2 0.7 2
v -2 0.7 1
v -2 0.7 -1
v -2 0.7 -2
v -1.9 0.6 1
v -1.9 0.6 0.8
v -1.9 0.7 1.6
v -1.9 0.7 1.2
v -1.9 0.7 1
v -1.9 0.7 0.8
v -1.9 0.8 1.6
v -1.9 0.8 1.5
v -1.9 0.8 1.4
v -1.9 0.8 1.2
v -1.9 0.9 1.5
v -1.9 0.9 1.4
v -1.8 0.6 -0.9
v -1.8 0.6 -1
v -1.8 0.7 1.9
v -1.8 0.7 1.7
v -1.8 0.7 -0.9
v -1.8 0.7 -1
v -1.8 0.7 -1.2
v -1.8 0.7 -1.4
v -1.8 0.7 -1.6
v -1.8 0.7 -1.7
v -1.8 0.7 -1.8
v -1.8 0.8 1.9
v -1.8 0.8 1.7
v -1.8 0.8 -1
v -1.8 0.8 -1.2
v -1.8 0.8 -1.4
v -1.8 0.8 -1.6
v -1.8 0.8 -1.7
v -1.8 0.8 -1.8
v -1.7 0.5 0.4
v -1.7 0.5 0.0999999
v -1.7 0.6 0.4
v -1.7 0.6 0.0999999
v -1.7 0.7 -1.6
v -1.7 0.7 -1.7
v -1.7 0.8 1.6
v -1.7 0.8 1.3
v -1.7 0.8 -1.6
v -1.7 0.8 -1.7
v -1.7 0.9 1.6
v -1.7 0.9 1.3
v -1.6 0.6 -0.9
v -1.6 0.6 -1
v -1.6 0.7 -0.9
v -1.6 0.7 -1
v -1.6 0.7 -1.3
v -1.6 0.7 -1.4
v -1.6 0.8 -1.3
v -1.6 0.8 -1.4
v -1.5 0.6 1
v -1.5 0.6 0.9
v -1.5 0.7 1
v -1.5 0.7 0.9
v -1.4 0.5 -0.3
v -1.4 0.5 -0.4
v -1.4 0.6 -0.3
v -1.4 0.6 -0.4
v -1.4 0.6 -0.8
v -1.4 0.6 -1
v -1.4 0.7 -0.8
v -1.4 0.7 -1
v -1.3 0.7 1.9
v -1.3 0.7 1.7
v -1.3 0.7 1.6
v -1.3 0.7 1.5
v -1.3 0.8 1.9
v -1.3 0.8 1.7
v -1.3 0.8 1.6
v -1.3 0.8 1.5
v -1.2 0.5 0.0999999
v -1.2 0.5 -2.38419e-07
v -1.2 0.6 1.2
v -1.2 0.6 1.1
v -1.2 0.6 0.0999999
v -1.2 0.6 -2.38419e-07
v -1.2 0.6 -0.9
v -1.2 0.6 -1
v -1.2 0.7 1.4
v -1.2 0.7 1.3
v -1.2 0.7 1.2
v -1.2 0.7 1.1
v -1.2 0.7 -0.9
v -1.2 0.7 -1
v -1.2 0.8 1.4
v -1.2 0.8 1.3
v -1.1 0.6 1.8
v -1.1 0.6 1.7
v -1.1 0.6 1
v -1.1 0.6 0.9
v -1.1 0.7 1.8
v -1.1 0.7 1.7
v -1.1 0.7 1
v -1.1 0.7 0.9
v -1 0.5 0.2
v -1 0.5 0.0999999
v -1 0.6 1.3
v -1 0.6 1.2
v -1 0.6 0.2
v -1 0.6 0.0999999
v -1 0.7 1.3
v -1 0.7 1.2
v -0.7 0.5 -0.4
v -0.7 0.5 -0.6
v -0.7 0.6 -0.4
v -0.7 0.6 -0.6
v -0.6 0.5 -0.6
v -0.6 0.5 -0.7
v -0.6 0.6 -0.6
v -0.6 0.6 -0.7
v -0.5 0.5 -0.2
v -0.5 0.5 -0.3
v -0.5 0.5 -0.7
v -0.5 0.5 -0.8
v -0.5 0.6 -0.2
v -0.5 0.6 -0.3
v -0.5 0.6 -0.7
v -0.5 0.6 -0.8
v -0.4 0.5 1.4
v -0.4 0.5 1.3
v -0.4 0.5 0.6
v -0.4 0.5 0.5
v -0.4 0.5 -0.1
v -0.4 0.5 -0.2
v -0.4 0.6 1.4
v -0.4 0.6 1.3
v -0.4 0.6 0.6
v -0.4 0.6 0.5
v -0.4 0.6 -0.1
v -0.4 0.6 -0.2
v -0.3 0.5 1.5
v -0.3 0.5 1.4
v -0.3 0.6 1.5
v -0.3 0.6 1.4
v -0.2 0.5 -0.9
v -0.2 0.5 -1
v -0.2 0.5 -1.3
v -0.2 0.5 -1.5
v -0.2 0.6 -0.9
v -0.2 0.6 -1
v -0.2 0.6 -1.3
v -0.2 0.6 -1.5
v -0.0999999 0.5 -0.3
v -0.0999999 0.5 -0.4
v -0.0999999 0.5 -1.5
v -0.0999999 0.5 -1.7
v -0.0999999 0.6 -0.3
v -0.0999999 0.6 -0.4
v -0.0999999 0.6 -1.5
v -0.0999999 0.6 -1.7
v 2.38419e-07 0.5 0.5
v 2.38419e-07 0.5 0.4
v 2.38419e-07 0.6 0.5
v 2.38419e-07 0.6 0.4
v 0.1 0.5 1
v 0.1 0.5 0.9
v 0.1 0.6 1
v 0.1 0.6 0.9
v 0.3 0.5 -0.4
v 0.3 0.5 -0.6
v 0.3 0.6 -0.4
v 0.3 0.6 -0.6
v 0.4 0.5 -0.2
v 0.4 0.5 -0.3
v 0.4 0.5 -1.2
v 0.4 0.5 -1.3
v 0.4 0.5 -1.5
v 0.4 0.5 -1.8
v 0.4 0.6 -0.2
v 0.4 0.6 -0.3
v 0.4 0.6 -1.2
v 0.4 0.6 -1.3
v 0.4 0.6 -1.5
v 0.4 0.6 -1.8
v 0.6 0.5 1.6
v 0.6 0.5 1.4
v 0.6 0.5 0.7
v 0.6 0.5 0.6
v 0.6 0.5 -0.7
v 0.6 0.5 -0.8
v 0.6 0.6 1.6
v 0.6 0.6 1.4
v 0.6 0.6 0.7
v 0.6 0.6 0.6
v 0.6 0.6 -0.7
v 0.6 0.6 -0.8
v 0.7 0.5 -0.4
v 0.7 0.5 -0.5
v 0.7 0.6 -0.4
v 0.7 0.6 -0.5
v 0.8 0.5 0.6
v 0.8 0.5 0.4
v 0.8 0.5 -0.3
v 0.8 0.5 -0.4
v 0.8 0.6 0.6
v 0.8 0.6 0.4
v 0.8 0.6 -0.3
v 0.8 0.6 -0.4
v 0.9 0.6 1.8
v 0.9 0.6 1.7
v 0.9 0.6 1.4
v 0.9 0.6 1.3
v 0.9 0.6 1.2
v 0.9 0.6 1.1
v 0.9 0.6 -1.2
v 0.9 0.6 -1.4
v 0.9 0.6 -1.5
v 0.9 0.6 -1.7
v 0.9 0.6 -1.8
v 0.9 0.6 -1.9
v 0.9 0.7 1.8
v 0.9 0.7 1.7
v 0.9 0.7 1.4
v 0.9 0.7 1.3
v 0.9 0.7 1.2
v 0.9 0.7 1.1
v 0.9 0.7 -1.2
v 0.9 0.7 -1.4
v 0.9 0.7 -1.5
v 0.9 0.7 -1.7
v 0.9 0.7 -1.8
v 0.9 0.7 -1.9
v 1 0.6 2
v 1 0.6 1.9
v 1 0.6 1.6
v 1 0.6 1.4
v 1 0.6 1.3
v 1 0.6 1.2
v 1 0.6 1.1
v 1 0.6 1
v 1 0.6 -1
v 1 0.6 -1.1
v 1 0.6 -1.4
v 1 0.6 -1.5
v 1 0.6 -1.7
v 1 0.6 -1.8
v 1 0.6 -1.9
v 1 0.6 -2
v 1 0.7 2
v 1 0.7 1.9
v 1 0.7 1.6
v 1 0.7 1.4
v 1 0.7 1.3
v 1 0.7 1.2
v 1 0.7 1.1
v 1 0.7 1
v 1 0.7 -1
v 1 0.7 -1.1
v 1 0.7 -1.4
v 1 0.7 -1.5
v 1 0.7 -1.7
v 1 0.7 -1.8
v 1 0.7 -1.9
v 1 0.7 -2
v 1.1 0.5 -0.2
v 1.1 0.5 -0.3
v 1.1 0.6 1.9
v 1.1 0.6 1.8
v 1.1 0.6 1.7
v 1.1 0.6 1.6
v 1.1 0.6 1
v 1.1 0.6 0.9
v 1.1 0.6 -0.2
v 1.1 0.6 -0.3
v 1.1 0.6 -1.1
v 1.1 0.6 -1.2
v 1.1 0.7 1.9
v 1.1 0.7 1.8
v 1.1 0.7 1.7
v 1.1 0.7 1.6
v 1.1 0.7 1
v 1.1 0.7 0.9
v 1.1 0.7 -1.1
v 1.1 0.7 -1.2
v 1.2 0.5 -0.1
v 1.2 0.5 -0.2
v 1.2 0.6 -0.1
v 1.2 0.6 -0.2
v 1.2 0.6 -1.8
v 1.2 0.6 -1.9
v 1.2 0.7 -1.8
v 1.2 0.7 -1.9
v 1.3 0.6 1.7
v 1.3 0.6 1.6
v 1.3 0.6 1
v 1.3 0.6 0.9
v 1.3 0.6 -0.9
v 1.3 0.6 -1
v 1.3 0.7 1.9
v 1.3 0.7 1.8
v 1.3 0.7 1.7
v 1.3 0.7 1.6
v 1.3 0.7 1.4
v 1.3 0.7 1.2
v 1.3 0.7 1
v 1.3 0.7 0.9
v 1.3 0.7 -0.9
v 1.3 0.7 -1
v 1.3 0.7 -1.1
v 1.3 0.7 -1.2
v 1.3 0.7 -1.3
v 1.3 0.7 -1.7
v 1.3 0.8 1.9
v 1.3 0.8 1.8
v 1.3 0.8 1.4
v 1.3 0.8 1.2
v 1.3 0.8 -1.1
v 1.3 0.8 -1.2
v 1.3 0.8 -1.3
v 1.3 0.8 -1.7
v 1.4 0.7 1.5
v 1.4 0.7 1.4
v 1.4 0.8 1.5
v 1.4 0.8 1.4
v 1.4 0.8 -1.4
v 1.4 0.8 -1.6
v 1.4 0.9 -1.4
v 1.4 0.9 -1.6
v 1.5 0.6 -0.8
v 1.5 0.6 -1
v 1.5 0.7 1.8
v 1.5 0.7 1.5
v 1.5 0.7 1.2
v 1.5 0.7 1.1
v 1.5 0.7 -0.8
v 1.5 0.7 -1
v 1.5 0.8 1.8
v 1.5 0.8 1.5
v 1.5 0.8 1.2
v 1.5 0.8 1.1
v 1.6 0.6 1
v 1.6 0.6 0.9
v 1.6 0.7 1
v 1.6 0.7 0.9
v 1.7 0.7 2
v 1.7 0.7 1.9
v 1.7 0.7 -1.5
v 1.7 0.7 -1.9
v 1.7 0.8 2
v 1.7 0.8 1.9
v 1.7 0.8 -1.5
v 1.7 0.8 -1.7
v 1.7 0.8 -1.8
v 1.7 0.8 -1.9
v 1.7 0.9 -1.7
v 1.7 0.9 -1.8
v 1.8 0.6 1
v 1.8 0.6 0.9
v 1.8 0.7 1.7
v 1.8 0.7 1.6
v 1.8 0.7 1.4
v 1.8 0.7 1.2
v 1.8 0.7 1
v 1.8 0.7 0.9
v 1.8 0.7 -1.1
v 1.8 0.7 -1.3
v 1.8 0.8 1.7
v 1.8 0.8 1.6
v 1.8 0.8 1.4
v 1.8 0.8 1.2
v 1.8 0.8 -1.1
v 1.8 0.8 -1.3
v 1.9 0.5 0.2
v 1.9 0.5 -0.2
v 1.9 0.6 0.2
v 1.9 0.6 -0.2
v -1.8 0.5 0.4
v -1.8 0.5 0.0999999
v -1.8 0.6 0.9
v -1.8 0.6 0.8
v -1.8 0.6 0.4
v -1.8 0.6 0.0999999
v -1.8 0.7 0.9
v -1.8 0.7 0.8
v -1.8 0.8 1.5
v -1.8 0.8 1.4
v -1.8 0.9 1.5
v -1.8 0.9 1.4
v -1.7 0.5 -0.3
v -1.7 0.5 -0.4
v -1.7 0.6 1
v -1.7 0.6 0.9
v -1.7 0.6 -0.3
v -1.7 0.6 -0.4
v -1.7 0.6 -0.9
v -1.7 0.6 -1
v -1.7 0.7 1
v -1.7 0.7 0.9
v -1.7 0.7 -0.9
v -1.7 0.7 -1
v -1.6 0.8 1.6
v -1.6 0.8 1.5
v -1.6 0.9 1.6
v -1.6 0.9 1.5
v -1.5 0.6 -0.9
v -1.5 0.6 -1
v -1.5 0.7 1.8
v -1.5 0.7 1.7
v -1.5 0.7 -0.9
v -1.5 0.7 -1
v -1.5 0.7 -1.2
v -1.5 0.8 1.8
v -1.5 0.8 1.7
v -1.5 0.8 1.5
v -1.5 0.8 1.3
v -1.5 0.8 -1
v -1.5 0.8 -1.2
v -1.5 0.9 1.5
v -1.5 0.9 1.3
v -1.4 0.6 1
v -1.4 0.6 0.9
v -1.4 0.7 1.9
v -1.4 0.7 1.8
v -1.4 0.7 1.6
v -1.4 0.7 1.2
v -1.4 0.7 1
v -1.4 0.7 0.9
v -1.4 0.8 1.9
v -1.4 0.8 1.8
v -1.4 0.8 1.6
v -1.4 0.8 1.2
v -1.3 0.5 0.2
v -1.3 0.5 -2.38419e-07
v -1.3 0.6 1.2
v -1.3 0.6 1.1
v -1.3 0.6 0.2
v -1.3 0.6 -2.38419e-07
v -1.3 0.6 -0.8
v -1.3 0.6 -1
v -1.3 0.7 1.2
v -1.3 0.7 1.1
v -1.3 0.7 -0.8
v -1.3 0.7 -1
v -1.3 0.7 -1.3
v -1.3 0.7 -1.8
v -1.3 0.8 -1.3
v -1.3 0.8 -1.8
v -1.2 0.6 1.8
v -1.2 0.6 1.7
v -1.2 0.7 1.9
v -1.2 0.7 1.8
v -1.2 0.7 1.7
v -1.2 0.7 1.6
v -1.2 0.7 1.5
v -1.2 0.8 1.9
v -1.2 0.8 1.7
v -1.2 0.8 1.6
v -1.2 0.8 1.5
v -1.1 0.6 1.5
v -1.1 0.6 1.4
v -1.1 0.6 1.3
v -1.1 0.6 1.2
v -1.1 0.7 1.5
v -1.1 0.7 1.4
v -1.1 0.7 1.3
v -1.1 0.7 1.2
v -1.1 0.8 1.4
v -1.1 0.8 1.3
v -1 0.6 2
v -1 0.6 1.8
v -1 0.6 1.2
v -1 0.6 1.1
v -1 0.6 1
v -1 0.6 0.9
v -1 0.6 -0.9
v -1 0.6 -1
v -1 0.6 -1.1
v -1 0.6 -1.2
v -1 0.6 -1.5
v -1 0.6 -1.7
v -1 0.6 -1.9
v -1 0.6 -2
v -1 0.7 2
v -1 0.7 1.8
v -1 0.7 1.2
v -1 0.7 1.1
v -1 0.7 1
v -1 0.7 0.9
v -1 0.7 -0.9
v -1 0.7 -1
v -1 0.7 -1.1
v -1 0.7 -1.2
v -1 0.7 -1.5
v -1 0.7 -1.7
v -1 0.7 -1.9
v -1 0.7 -2
v -0.9 0.6 1.8
v -0.9 0.6 1.5
v -0.9 0.6 1.3
v -0.9 0.6 1.2
v -0.9 0.6 1.1
v -0.9 0.6 1
v -0.9 0.6 -1
v -0.9 0.6 -1.1
v -0.9 0.6 -1.2
v -0.9 0.6 -1.5
v -0.9 0.6 -1.7
v -0.9 0.6 -1.9
v -0.9 0.7 1.8
v -0.9 0.7 1.5
v -0.9 0.7 1.3
v -0.9 0.7 1.2
v -0.9 0.7 1.1
v -0.9 0.7 1
v -0.9 0.7 -1
v -0.9 0.7 -1.1
v -0.9 0.7 -1.2
v -0.9 0.7 -1.5
v -0.9 0.7 -1.7
v -0.9 0.7 -1.9
v -0.8 0.5 -0.4
v -0.8 0.5 -0.6
v -0.8 0.6 1.4
v -0.8 0.6 1.3
v -0.8 0.6 -0.4
v -0.8 0.6 -0.6
v -0.8 0.7 1.4
v -0.8 0.7 1.3
v -0.7 0.5 -0.6
v -0.7 0.5 -0.7
v -0.7 0.6 -0.6
v -0.7 0.6 -0.7
v -0.6 0.5 -0.2
v -0.6 0.5 -0.3
v -0.6 0.5 -0.7
v -0.6 0.5 -0.8
v -0.6 0.6 -0.2
v -0.6 0.6 -0.3
v -0.6 0.6 -0.7
v -0.6 0.6 -0.8
v -0.5 0.5 1.4
v -0.5 0.5 1.3
v -0.5 0.5 0.6
v -0.5 0.5 0.4
v -0.5 0.5 -0.1
v -0.5 0.5 -0.2
v -0.5 0.6 1.4
v -0.5 0.6 1.3
v -0.5 0.6 0.6
v -0.5 0.6 0.4
v -0.5 0.6 -0.1
v -0.5 0.6 -0.2
v -0.4 0.5 1.5
v -0.4 0.5 1.4
v -0.4 0.6 1.5
v -0.4 0.6 1.4
v -0.3 0.5 -0.9
v -0.3 0.5 -1
v -0.3 0.5 -1.3
v -0.3 0.5 -1.6
v -0.3 0.6 -0.9
v -0.3 0.6 -1
v -0.3 0.6 -1.3
v -0.3 0.6 -1.6
v -0.2 0.5 1
v -0.2 0.5 0.9
v -0.2 0.5 -0.3
v -0.2 0.5 -0.4
v -0.2 0.5 -1.6
v -0.2 0.5 -1.7
v -0.2 0.6 1
v -0.2 0.6 0.9
v -0.2 0.6 -0.3
v -0.2 0.6 -0.4
v -0.2 0.6 -1.6
v -0.2 0.6 -1.7
v 0.2 0.5 -0.4
v 0.2 0.5 -0.6
v 0.2 0.6 -0.4
v 0.2 0.6 -0.6
v 0.3 0.5 -0.2
v 0.3 0.5 -0.3
v 0.3 0.5 -1.2
v 0.3 0.5 -1.3
v 0.3 0.5 -1.5
v 0.3 0.5 -1.8
v 0.3 0.6 -0.2
v 0.3 0.6 -0.3
v 0.3 0.6 -1.2
v 0.3 0.6 -1.3
v 0.3 0.6 -1.5
v 0.3 0.6 -1.8
v 0.4 0.5 0.7
v 0.4 0.5 0.6
v 0.4 0.6 0.7
v 0.4 0.6 0.6
v 0.5 0.5 1.6
v 0.5 0.5 1.4
v 0.5 0.5 0.6
v 0.5 0.5 0.5
v 0.5 0.5 -0.7
v 0.5 0.5 -0.8
v 0.5 0.6 1.6
v 0.5 0.6 1.4
v 0.5 0.6 0.6
v 0.5 0.6 0.5
v 0.5 0.6 -0.7
v 0.5 0.6 -0.8
v 0.6 0.5 -0.4
v 0.6 0.5 -0.5
v 0.6 0.6 -0.4
v 0.6 0.6 -0.5
v 0.7 0.5 0.5
v 0.7 0.5 0.4
v 0.7 0.5 -0.2
v 0.7 0.5 -0.4
v 0.7 0.6 0.5
v 0.7 0.6 0.4
v 0.7 0.6 -0.2
v 0.7 0.6 -0.4
v 1.1 0.5 -0.1
v 1.1 0.5 -0.2
v 1.1 0.6 -0.1
v 1.1 0.6 -0.2
v 1.1 0.6 -1.8
v 1.1 0.6 -1.9
v 1.1 0.7 -1.8
v 1.1 0.7 -1.9
v 1.2 0.6 1.7
v 1.2 0.6 1.6
v 1.2 0.6 1
v 1.2 0.6 0.9
v 1.2 0.7 1.7
v 1.2 0.7 1.6
v 1.2 0.7 1
v 1.2 0.7 0.9
v 1.4 0.6 -0.9
v 1.4 0.6 -1
v 1.4 0.7 1.9
v 1.4 0.7 1.8
v 1.4 0.7 -0.9
v 1.4 0.7 -1
v 1.4 0.8 1.9
v 1.4 0.8 1.8
v 1.5 0.6 1
v 1.5 0.6 0.9
v 1.5 0.7 1.5
v 1.5 0.7 1.2
v 1.5 0.7 1
v 1.5 0.7 0.9
v 1.5 0.7 -1.1
v 1.5 0.7 -1.2
v 1.5 0.8 1.5
v 1.5 0.8 1.2
v 1.5 0.8 -1.1
v 1.5 0.8 -1.2
v 1.5 0.8 -1.4
v 1.5 0.8 -1.6
v 1.5 0.9 -1.4
v 1.5 0.9 -1.6
v 1.6 0.6 -0.8
v 1.6 0.6 -0.9
v 1.6 0.7 1.2
v 1.6 0.7 1.1
v 1.6 0.7 -0.8
v 1.6 0.7 -0.9
v 1.6 0.7 -1.3
v 1.6 0.7 -1.7
v 1.6 0.8 1.2
v 1.6 0.8 1.1
v 1.6 0.8 -1.3
v 1.6 0.8 -1.7
v 1.7 0.6 1
v 1.7 0.6 0.9
v 1.7 0.7 1.8
v 1.7 0.7 1.5
v 1.7 0.7 1
v 1.7 0.7 0.9
v 1.7 0.8 1.8
v 1.7 0.8 1.5
v 1.8 0.5 0.2
v 1.8 0.5 -0.2
v 1.8 0.6 0.2
v 1.8 0.6 -0.2
v 1.8 0.6 -0.9
v 1.8 0.6 -1
v 1.8 0.7 2
v 1.8 0.7 1.9
v 1.8 0.7 -0.9
v 1.8 0.7 -1
v 1.8 0.8 2
v 1.8 0.8 1.9
v 1.9 0.6 1
v 1.9 0.6 0.9
v 1.9 0.7 1.7
v 1.9 0.7 1.6
v 1.9 0.7 1.4
v 1.9 0.7 1.2
v 1.9 0.7 1
v 1.9 0.7 0.9
v 1.9 0.7 -1.1
v 1.9 0.7 -1.3
v 1.9 0.7 -1.5
v 1.9 0.7 -1.9
v 1.9 0.8 1.7
v 1.9 0.8 1.6
v 1.9 0.8 1.4
v 1.9 0.8 1.2
v 1.9 0.8 -1.1
v 1.9 0.8 -1.3
v 1.9 0.8 -1.5
v 1.9 0.8 -1.7
v 1.9 0.8 -1.8
v 1.9 0.8 -1.9
v 1.9 0.9 -1.7
v 1.9 0.9 -1.8
v 2 0 2
v 2 0 -2
v 2 0.3 2
v 2 0.3 -2
v 2 0.5 2
v 2 0.5 1
v 2 0.5 -1
v 2 0.5 -2
v 2 0.6 1
v 2 0.6 -1
v 2 0.7 2
v 2 0.7 1
v 2 0.7 -1
v 2 0.7 -2
v -2 0 2
v -2 0.3 2
v -2 0.5 2
v -2 0.7 2
v -1 0.5 2
v -1 0.6 2
v -1 0.7 2
v 1 0.5 2
v 1 0.6 2
v 1 0.7 2
v 1.7 0.7 2
v 1.7 0.8 2
v 1.8 0.7 2
v 1.8 0.8 2
v 2 0 2
v 2 0.3 2
v 2 0.5 2
v 2 0.7 2
v -1.8 0.7 1.9
v -1.8 0.8 1.9
v -1.4 0.7 1.9
v -1.4 0.8 1.9
v -1.3 0.7 1.9
v -1.3 0.8 1.9
v -1.2 0.7 1.9
v -1.2 0.8 1.9
v 1.3 0.7 1.9
v 1.3 0.8 1.9
v 1.4 0.7 1.9
v 1.4 0.8 1.9
v -1 0.6 1.8
v -1 0.7 1.8
v -0.9 0.6 1.8
v -0.9 0.7 1.8
v 0.9 0.6 1.8
v 0.9 0.7 1.8
v 1.1 0.6 1.8
v 1.1 0.7 1.8
v 1.5 0.7 1.8
v 1.5 0.8 1.8
v 1.7 0.7 1.8
v 1.7 0.8 1.8
v -1.2 0.6 1.7
v -1.2 0.7 1.7
v -1.1 0.6 1.7
v -1.1 0.7 1.7
v 1.8 0.7 1.7
v 1.8 0.8 1.7
v 1.9 0.7 1.7
v 1.9 0.8 1.7
v -1.9 0.7 1.6
v -1.9 0.8 1.6
v -1.7 0.8 1.6
v -1.7 0.9 1.6
v -1.6 0.8 1.6
v -1.6 0.9 1.6
v -1.4 0.7 1.6
v -1.4 0.8 1.6
v -1.3 0.7 1.6
v -1.3 0.8 1.6
v -1.2 0.7 1.6
v -1.2 0.8 1.6
v 1 0.6 1.6
v 1 0.7 1.6
v 1.1 0.6 1.6
v 1.1 0.7 1.6
v 1.2 0.6 1.6
v 1.2 0.7 1.6
v 1.3 0.6 1.6
v 1.3 0.7 1.6
v -1.9 0.8 1.5
v -1.9 0.9 1.5
v -1.8 0.8 1.5
v -1.8 0.9 1.5
v -1.6 0.8 1.5
v -1.6 0.9 1.5
v -1.5 0.8 1.5
v -1.5 0.9 1.5
v 1.4 0.7 1.5
v 1.4 0.8 1.5
v 1.5 0.7 1.5
v 1.5 0.8 1.5
v -1.2 0.7 1.4
v -1.2 0.8 1.4
v -1.1 0.6 1.4
v -1.1 0.7 1.4
v -1.1 0.8 1.4
v -0.8 0.6 1.4
v -0.8 0.7 1.4
v -0.4 0.5 1.4
v -0.4 0.6 1.4
v -0.3 0.5 1.4
v -0.3 0.6 1.4
v 0.5 0.5 1.4
v 0.5 0.6 1.4
v 0.6 0.5 1.4
v 0.6 0.6 1.4
v 0.9 0.6 1.4
v 0.9 0.7 1.4
v 1 0.6 1.4
v 1 0.7 1.4
v 1.3 0.7 1.4
v 1.3 0.8 1.4
v 1.4 0.7 1.4
v 1.4 0.8 1.4
v 1.8 0.7 1.4
v 1.8 0.8 1.4
v 1.9 0.7 1.4
v 1.9 0.8 1.4
v -0.5 0.5 1.3
v -0.5 0.6 1.3
v -0.4 0.5 1.3
v -0.4 0.6 1.3
v -1.1 0.6 1.2
v -1.1 0.7 1.2
v -1 0.6 1.2
v -1 0.7 1.2
v 0.9 0.6 1.2
v 0.9 0.7 1.2
v 1 0.6 1.2
v 1 0.7 1.2
v 1.5 0.7 1.2
v 1.5 0.8 1.2
v 1.6 0.7 1.2
v 1.6 0.8 1.2
v -1.3 0.6 1.1
v -1.3 0.7 1.1
v -1.2 0.6 1.1
v -1.2 0.7 1.1
v -1 0.6 1.1
v -1 0.7 1.1
v -0.9 0.6 1.1
v -0.9 0.7 1.1
v -0.2 0.5 0.9
v -0.2 0.6 0.9
v 0.1 0.5 0.9
v 0.1 0.6 0.9
v 0.4 0.5 0.6
v 0.4 0.6 0.6
v 0.5 0.5 0.6
v 0.5 0.6 0.6
v 0.5 0.5 0.5
v 0.5 0.6 0.5
v 0.7 0.5 0.5
v 0.7 0.6 0.5
v -0.5 0.5 0.4
v -0.5 0.6 0.4
v 2.38419e-07 0.5 0.4
v 2.38419e-07 0.6 0.4
v 0.7 0.5 0.4
v 0.7 0.6 0.4
v 0.8 0.5 0.4
v 0.8 0.6 0.4
v -1.8 0.5 0.0999999
v -1.8 0.6 0.0999999
v -1.7 0.5 0.0999999
v -1.7 0.6 0.0999999
v -1.2 0.5 0.0999999
v -1.2 0.6 0.0999999
v -1 0.5 0.0999999
v -1 0.6 0.0999999
v -1.3 0.5 -2.38419e-07
v -1.3 0.6 -2.38419e-07
v -1.2 0.5 -2.38419e-07
v -1.2 0.6 -2.38419e-07
v -0.5 0.5 -0.2
v -0.5 0.6 -0.2
v -0.4 0.5 -0.2
v -0.4 0.6 -0.2
v 1.1 0.5 -0.2
v 1.1 0.6 -0.2
v 1.2 0.5 -0.2
v 1.2 0.6 -0.2
v 1.8 0.5 -0.2
v 1.8 0.6 -0.2
v 1.9 0.5 -0.2
v 1.9 0.6 -0.2
v -0.6 0.5 -0.3
v -0.6 0.6 -0.3
v -0.5 0.5 -0.3
v -0.5 0.6 -0.3
v 0.3 0.5 -0.3
v 0.3 0.6 -0.3
v 0.4 0.5 -0.3
v 0.4 0.6 -0.3
v 0.8 0.5 -0.3
v 0.8 0.6 -0.3
v 1.1 0.5 -0.3
v 1.1 0.6 -0.3
v -1.7 0.5 -0.4
v -1.7 0.6 -0.4
v -1.4 0.5 -0.4
v -1.4 0.6 -0.4
v -0.2 0.5 -0.4
v -0.2 0.6 -0.4
v -0.0999999 0.5 -0.4
v -0.0999999 0.6 -0.4
v 0.7 0.5 -0.4
v 0.7 0.6 -0.4
v 0.8 0.5 -0.4
v 0.8 0.6 -0.4
v 0.6 0.5 -0.5
v 0.6 0.6 -0.5
v 0.7 0.5 -0.5
v 0.7 0.6 -0.5
v -0.8 0.5 -0.6
v -0.8 0.6 -0.6
v -0.7 0.5 -0.6
v -0.7 0.6 -0.6
v 0.2 0.5 -0.6
v 0.2 0.6 -0.6
v 0.3 0.5 -0.6
v 0.3 0.6 -0.6
v -0.7 0.5 -0.7
v -0.7 0.6 -0.7
v -0.6 0.5 -0.7
v -0.6 0.6 -0.7
v -1.4 0.6 -0.8
v -1.4 0.7 -0.8
v -1.3 0.6 -0.8
v -1.3 0.7 -0.8
v -0.6 0.5 -0.8
v -0.6 0.6 -0.8
v -0.5 0.5 -0.8
v -0.5 0.6 -0.8
v 0.5 0.5 -0.8
v 0.5 0.6 -0.8
v 0.6 0.5 -0.8
v 0.6 0.6 -0.8
v 1.5 0.6 -0.8
v 1.5 0.7 -0.8
v 1.6 0.6 -0.8
v 1.6 0.7 -0.8
v -1.8 0.6 -0.9
v -1.8 0.7 -0.9
v -1.7 0.6 -0.9
v -1.7 0.7 -0.9
v -1.6 0.6 -0.9
v -1.6 0.7 -0.9
v -1.5 0.6 -0.9
v -1.5 0.7 -0.9
v -1.2 0.6 -0.9
v -1.2 0.7 -0.9
v -1 0.6 -0.9
v -1 0.7 -0.9
v 1.3 0.6 -0.9
v 1.3 0.7 -0.9
v 1.4 0.6 -0.9
v 1.4 0.7 -0.9
v 1.6 0.6 -0.9
v 1.6 0.7 -0.9
v 1.8 0.6 -0.9
v 1.8 0.7 -0.9
v -2 0.6 -1
v -2 0.7 -1
v -1.8 0.6 -1
v -1.8 0.7 -1
v -1.8 0.8 -1
v -1.7 0.6 -1
v -1.7 0.7 -1
v -1.6 0.6 -1
v -1.6 0.7 -1
v -1.5 0.6 -1
v -1.5 0.7 -1
v -1.5 0.8 -1
v -1.4 0.6 -1
v -1.4 0.7 -1
v -1.3 0.6 -1
v -1.3 0.7 -1
v -1.2 0.6 -1
v -1.2 0.7 -1
v -1 0.6 -1
v -1 0.7 -1
v -0.9 0.6 -1
v -0.9 0.7 -1
v -0.3 0.5 -1
v -0.3 0.6 -1
v -0.2 0.5 -1
v -0.2 0.6 -1
v 1 0.6 -1
v 1 0.7 -1
v 1.3 0.6 -1
v 1.3 0.7 -1
v 1.4 0.6 -1
v 1.4 0.7 -1
v 1.5 0.6 -1
v 1.5 0.7 -1
v 1.8 0.6 -1
v 1.8 0.7 -1
v 2 0.6 -1
v 2 0.7 -1
v 1.3 0.7 -1.1
v 1.3 0.8 -1.1
v 1.5 0.7 -1.1
v 1.5 0.8 -1.1
v 1.8 0.7 -1.1
v 1.8 0.8 -1.1
v 1.9 0.7 -1.1
v 1.9 0.8 -1.1
v -1 0.6 -1.2
v -1 0.7 -1.2
v -0.9 0.6 -1.2
v -0.9 0.7 -1.2
v 0.9 0.6 -1.2
v 0.9 0.7 -1.2
v 1.1 0.6 -1.2
v 1.1 0.7 -1.2
v -1.6 0.7 -1.3
v -1.6 0.8 -1.3
v -1.3 0.7 -1.3
v -1.3 0.8 -1.3
v 0.3 0.5 -1.3
v 0.3 0.6 -1.3
v 0.4 0.5 -1.3
v 0.4 0.6 -1.3
v 1.3 0.7 -1.3
v 1.3 0.8 -1.3
v 1.6 0.7 -1.3
v 1.6 0.8 -1.3
v -1.8 0.7 -1.4
v -1.8 0.8 -1.4
v -1.6 0.7 -1.4
v -1.6 0.8 -1.4
v 1.4 0.8 -1.4
v 1.4 0.9 -1.4
v 1.5 0.8 -1.4
v 1.5 0.9 -1.4
v 0.9 0.6 -1.5
v 0.9 0.7 -1.5
v 1 0.6 -1.5
v 1 0.7 -1.5
v 1.7 0.7 -1.5
v 1.7 0.8 -1.5
v 1.9 0.7 -1.5
v 1.9 0.8 -1.5
v -0.3 0.5 -1.6
v -0.3 0.6 -1.6
v -0.2 0.5 -1.6
v -0.2 0.6 -1.6
v -1.8 0.7 -1.7
v -1.8 0.8 -1.7
v -1.7 0.7 -1.7
v -1.7 0.8 -1.7
v -1 0.6 -1.7
v -1 0.7 -1.7
v -0.9 0.6 -1.7
v -0.9 0.7 -1.7
v -0.2 0.5 -1.7
v -0.2 0.6 -1.7
v -0.0999999 0.5 -1.7
v -0.0999999 0.6 -1.7
v 1.7 0.8 -1.7
v 1.7 0.9 -1.7
v 1.9 0.8 -1.7
v 1.9 0.9 -1.7
v 0.3 0.5 -1.8
v 0.3 0.6 -1.8
v 0.4 0.5 -1.8
v 0.4 0.6 -1.8
v 0.9 0.6 -1.8
v 0.9 0.7 -1.8
v 1 0.6 -1.8
v 1 0.7 -1.8
v 1.1 0.6 -1.9
v 1.1 0.7 -1.9
v 1.2 0.6 -1.9
v 1.2 0.7 -1.9
v 1 0.6 1.9
v 1 0.7 1.9
v 1.1 0.6 1.9
v 1.1 0.7 1.9
v 1.7 0.7 1.9
v 1.7 0.8 1.9
v 1.8 0.7 1.9
v 1.8 0.8 1.9
v -1.5 0.7 1.8
v -1.5 0.8 1.8
v -1.4 0.7 1.8
v -1.4 0.8 1.8
v -1.2 0.6 1.8
v -1.2 0.7 1.8
v -1.1 0.6 1.8
v -1.1 0.7 1.8
v 1.3 0.7 1.8
v 1.3 0.8 1.8
v 1.4 0.7 1.8
v 1.4 0.8 1.8
v -1.8 0.7 1.7
v -1.8 0.8 1.7
v -1.5 0.7 1.7
v -1.5 0.8 1.7
v -1.3 0.7 1.7
v -1.3 0.8 1.7
v -1.2 0.7 1.7
v -1.2 0.8 1.7
v 0.9 0.6 1.7
v 0.9 0.7 1.7
v 1.1 0.6 1.7
v 1.1 0.7 1.7
v 1.2 0.6 1.7
v 1.2 0.7 1.7
v 1.3 0.6 1.7
v 1.3 0.7 1.7
v 0.5 0.5 1.6
v 0.5 0.6 1.6
v 0.6 0.5 1.6
v 0.6 0.6 1.6
v 1.8 0.7 1.6
v 1.8 0.8 1.6
v 1.9 0.7 1.6
v 1.9 0.8 1.6
v -1.3 0.7 1.5
v -1.3 0.8 1.5
v -1.2 0.7 1.5
v -1.2 0.8 1.5
v -1.1 0.6 1.5
v -1.1 0.7 1.5
v -0.9 0.6 1.5
v -0.9 0.7 1.5
v -0.4 0.5 1.5
v -0.4 0.6 1.5
v -0.3 0.5 1.5
v -0.3 0.6 1.5
v 1.5 0.7 1.5
v 1.5 0.8 1.5
v 1.7 0.7 1.5
v 1.7 0.8 1.5
v -1.9 0.8 1.4
v -1.9 0.9 1.4
v -1.8 0.8 1.4
v -1.8 0.9 1.4
v -0.5 0.5 1.4
v -0.5 0.6 1.4
v -0.4 0.5 1.4
v -0.4 0.6 1.4
v -1.7 0.8 1.3
v -1.7 0.9 1.3
v -1.5 0.8 1.3
v -1.5 0.9 1.3
v -1.2 0.7 1.3
v -1.2 0.8 1.3
v -1.1 0.6 1.3
v -1.1 0.7 1.3
v -1.1 0.8 1.3
v -1 0.6 1.3
v -1 0.7 1.3
v -0.9 0.6 1.3
v -0.9 0.7 1.3
v -0.8 0.6 1.3
v -0.8 0.7 1.3
v 0.9 0.6 1.3
v 0.9 0.7 1.3
v 1 0.6 1.3
v 1 0.7 1.3
v -1.9 0.7 1.2
v -1.9 0.8 1.2
v -1.4 0.7 1.2
v -1.4 0.8 1.2
v -1.3 0.6 1.2
v -1.3 0.7 1.2
v -1.2 0.6 1.2
v -1.2 0.7 1.2
v -1 0.6 1.2
v -1 0.7 1.2
v -0.9 0.6 1.2
v -0.9 0.7 1.2
v 1.3 0.7 1.2
v 1.3 0.8 1.2
v 1.5 0.7 1.2
v 1.5 0.8 1.2
v 1.8 0.7 1.2
v 1.8 0.8 1.2
v 1.9 0.7 1.2
v 1.9 0.8 1.2
v 0.9 0.6 1.1
v 0.9 0.7 1.1
v 1 0.6 1.1
v 1 0.7 1.1
v 1.5 0.7 1.1
v 1.5 0.8 1.1
v 1.6 0.7 1.1
v 1.6 0.8 1.1
v -2 0.6 1
v -2 0.7 1
v -1.9 0.6 1
v -1.9 0.7 1
v -1.7 0.6 1
v -1.7 0.7 1
v -1.5 0.6 1
v -1.5 0.7 1
v -1.4 0.6 1
v -1.4 0.7 1
v -1.1 0.6 1
v -1.1 0.7 1
v -1 0.6 1
v -1 0.7 1
v -0.9 0.6 1
v -0.9 0.7 1
v -0.2 0.5 1
v -0.2 0.6 1
v 0.1 0.5 1
v 0.1 0.6 1
v 1 0.6 1
v 1 0.7 1
v 1.1 0.6 1
v 1.1 0.7 1
v 1.2 0.6 1
v 1.2 0.7 1
v 1.3 0.6 1
v 1.3 0.7 1
v 1.5 0.6 1
v 1.5 0.7 1
v 1.6 0.6 1
v 1.6 0.7 1
v 1.7 0.6 1
v 1.7 0.7 1
v 1.8 0.6 1
v 1.8 0.7 1
v 1.9 0.6 1
v 1.9 0.7 1
v 2 0.6 1
v 2 0.7 1
v -1.8 0.6 0.9
v -1.8 0.7 0.9
v -1.7 0.6 0.9
v -1.7 0.7 0.9
v -1.5 0.6 0.9
v -1.5 0.7 0.9
v -1.4 0.6 0.9
v -1.4 0.7 0.9
v -1.1 0.6 0.9
v -1.1 0.7 0.9
v -1 0.6 0.9
v -1 0.7 0.9
v 1.1 0.6 0.9
v 1.1 0.7 0.9
v 1.2 0.6 0.9
v 1.2 0.7 0.9
v 1.3 0.6 0.9
v 1.3 0.7 0.9
v 1.5 0.6 0.9
v 1.5 0.7 0.9
v 1.6 0.6 0.9
v 1.6 0.7 0.9
v 1.7 0.6 0.9
v 1.7 0.7 0.9
v 1.8 0.6 0.9
v 1.8 0.7 0.9
v 1.9 0.6 0.9
v 1.9 0.7 0.9
v -1.9 0.6 0.8
v -1.9 0.7 0.8
v -1.8 0.6 0.8
v -1.8 0.7 0.8
v 0.4 0.5 0.7
v 0.4 0.6 0.7
v 0.6 0.5 0.7
v 0.6 0.6 0.7
v -0.5 0.5 0.6
v -0.5 0.6 0.6
v -0.4 0.5 0.6
v -0.4 0.6 0.6
v 0.6 0.5 0.6
v 0.6 0.6 0.6
v 0.8 0.5 0.6
v 0.8 0.6 0.6
v -0.4 0.5 0.5
v -0.4 0.6 0.5
v 2.38419e-07 0.5 0.5
v 2.38419e-07 0.6 0.5
v -1.8 0.5 0.4
v -1.8 0.6 0.4
v -1.7 0.5 0.4
v -1.7 0.6 0.4
v -1.3 0.5 0.2
v -1.3 0.6 0.2
v -1 0.5 0.2
v -1 0.6 0.2
v 1.8 0.5 0.2
v 1.8 0.6 0.2
v 1.9 0.5 0.2
v 1.9 0.6 0.2
v -0.5 0.5 -0.1
v -0.5 0.6 -0.1
v -0.4 0.5 -0.1
v -0.4 0.6 -0.1
v 1.1 0.5 -0.1
v 1.1 0.6 -0.1
v 1.2 0.5 -0.1
v 1.2 0.6 -0.1
v -0.6 0.5 -0.2
v -0.6 0.6 -0.2
v -0.5 0.5 -0.2
v -0.5 0.6 -0.2
v 0.3 0.5 -0.2
v 0.3 0.6 -0.2
v 0.4 0.5 -0.2
v 0.4 0.6 -0.2
v 0.7 0.5 -0.2
v 0.7 0.6 -0.2
v 1.1 0.5 -0.2
v 1.1 0.6 -0.2
v -1.7 0.5 -0.3
v -1.7 0.6 -0.3
v -1.4 0.5 -0.3
v -1.4 0.6 -0.3
v -0.2 0.5 -0.3
v -0.2 0.6 -0.3
v -0.0999999 0.5 -0.3
v -0.0999999 0.6 -0.3
v -0.8 0.5 -0.4
v -0.8 0.6 -0.4
v -0.7 0.5 -0.4
v -0.7 0.6 -0.4
v 0.2 0.5 -0.4
v 0.2 0.6 -0.4
v 0.3 0.5 -0.4
v 0.3 0.6 -0.4
v 0.6 0.5 -0.4
v 0.6 0.6 -0.4
v 0.7 0.5 -0.4
v 0.7 0.6 -0.4
v -0.7 0.5 -0.6
v -0.7 0.6 -0.6
v -0.6 0.5 -0.6
v -0.6 0.6 -0.6
v -0.6 0.5 -0.7
v -0.6 0.6 -0.7
v -0.5 0.5 -0.7
v -0.5 0.6 -0.7
v 0.5 0.5 -0.7
v 0.5 0.6 -0.7
v 0.6 0.5 -0.7
v 0.6 0.6 -0.7
v -0.3 0.5 -0.9
v -0.3 0.6 -0.9
v -0.2 0.5 -0.9
v -0.2 0.6 -0.9
v -1 0.6 -1.1
v -1 0.7 -1.1
v -0.9 0.6 -1.1
v -0.9 0.7 -1.1
v 1 0.6 -1.1
v 1 0.7 -1.1
v 1.1 0.6 -1.1
v 1.1 0.7 -1.1
v -1.8 0.7 -1.2
v -1.8 0.8 -1.2
v -1.5 0.7 -1.2
v -1.5 0.8 -1.2
v 0.3 0.5 -1.2
v 0.3 0.6 -1.2
v 0.4 0.5 -1.2
v 0.4 0.6 -1.2
v 1.3 0.7 -1.2
v 1.3 0.8 -1.2
v 1.5 0.7 -1.2
v 1.5 0.8 -1.2
v -0.3 0.5 -1.3
v -0.3 0.6 -1.3
v -0.2 0.5 -1.3
v -0.2 0.6 -1.3
v 1.8 0.7 -1.3
v 1.8 0.8 -1.3
v 1.9 0.7 -1.3
v 1.9 0.8 -1.3
v 0.9 0.6 -1.4
v 0.9 0.7 -1.4
v 1 0.6 -1.4
v 1 0.7 -1.4
v -1 0.6 -1.5
v -1 0.7 -1.5
v -0.9 0.6 -1.5
v -0.9 0.7 -1.5
v -0.2 0.5 -1.5
v -0.2 0.6 -1.5
v -0.0999999 0.5 -1.5
v -0.0999999 0.6 -1.5
v 0.3 0.5 -1.5
v 0.3 0.6 -1.5
v 0.4 0.5 -1.5
v 0.4 0.6 -1.5
v -1.8 0.7 -1.6
v -1.8 0.8 -1.6
v -1.7 0.7 -1.6
v -1.7 0.8 -1.6
v 1.4 0.8 -1.6
v 1.4 0.9 -1.6
v 1.5 0.8 -1.6
v 1.5 0.9 -1.6
v 0.9 0.6 -1.7
v 0.9 0.7 -1.7
v 1 0.6 -1.7
v 1 0.7 -1.7
v 1.3 0.7 -1.7
v 1.3 0.8 -1.7
v 1.6 0.7 -1.7
v 1.6 0.8 -1.7
v -1.8 0.7 -1.8
v -1.8 0.8 -1.8
v -1.3 0.7 -1.8
v -1.3 0.8 -1.8
v 1.1 0.6 -1.8
v 1.1 0.7 -1.8
v 1.2 0.6 -1.8
v 1.2 0.7 -1.8
v 1.7 0.8 -1.8
v 1.7 0.9 -1.8
v 1.9 0.8 -1.8
v 1.9 0.9 -1.8
v -1 0.6 -1.9
v -1 0.7 -1.9
v -0.9 0.6 -1.9
v -0.9 0.7 -1.9
v 0.9 0.6 -1.9
v 0.9 0.7 -1.9
v 1 0.6 -1.9
v 1 0.7 -1.9
v 1.7 0.7 -1.9
v 1.7 0.8 -1.9
v 1.9 0.7 -1.9
v 1.9 0.8 -1.9
v -2 0 -2
v -2 0.3 -2
v -2 0.5 -2
v -2 0.7 -2
v -1 0.5 -2
v -1 0.6 -2
v -1 0.7 -2
v 1 0.5 -2
v 1 0.6 -2
v 1 0.7 -2
v 2 0 -2
v 2 0.3 -2
v 2 0.5 -2
v 2 0.7 -2
v -2 0 2
v 2 0 2
v -2 0 -2
v 2 0 -2
v 0.5 0.5 1.6
v 0.6 0.5 1.6
v -0.4 0.5 1.5
v -0.3 0.5 1.5
v -0.5 0.5 1.4
v -0.4 0.5 1.4
v -0.3 0.5 1.4
v 0.5 0.5 1.4
v 0.6 0.5 1.4
v -0.5 0.5 1.3
v -0.4 0.5 1.3
v -0.2 0.5 1
v 0.1 0.5 1
v -0.2 0.5 0.9
v 0.1 0.5 0.9
v 0.4 0.5 0.7
v 0.6 0.5 0.7
v -0.5 0.5 0.6
v -0.4 0.5 0.6
v 0.4 0.5 0.6
v 0.5 0.5 0.6
v 0.6 0.5 0.6
v 0.8 0.5 0.6
v -0.4 0.5 0.5
v 2.38419e-07 0.5 0.5
v 0.5 0.5 0.5
v 0.7 0.5 0.5
v -1.8 0.5 0.4
v -1.7 0.5 0.4
v -0.5 0.5 0.4
v 2.38419e-07 0.5 0.4
v 0.7 0.5 0.4
v 0.8 0.5 0.4
v -1.3 0.5 0.2
v -1 0.5 0.2
v 1.8 0.5 0.2
v 1.9 0.5 0.2
v -1.8 0.5 0.0999999
v -1.7 0.5 0.0999999
v -1.2 0.5 0.0999999
v -1 0.5 0.0999999
v -1.3 0.5 -2.38419e-07
v -1.2 0.5 -2.38419e-07
v -0.5 0.5 -0.1
v -0.4 0.5 -0.1
v 1.1 0.5 -0.1
v 1.2 0.5 -0.1
v -0.6 0.5 -0.2
v -0.5 0.5 -0.2
v -0.4 0.5 -0.2
v 0.3 0.5 -0.2
v 0.4 0.5 -0.2
v 0.7 0.5 -0.2
v 1.1 0.5 -0.2
v 1.2 0.5 -0.2
v 1.8 0.5 -0.2
v 1.9 0.5 -0.2
v -1.7 0.5 -0.3
v -1.4 0.5 -0.3
v -0.6 0.5 -0.3
v -0.5 0.5 -0.3
v -0.2 0.5 -0.3
v -0.0999999 0.5 -0.3
v 0.3 0.5 -0.3
v 0.4 0.5 -0.3
v 0.8 0.5 -0.3
v 1.1 0.5 -0.3
v -1.7 0.5 -0.4
v -1.4 0.5 -0.4
v -0.8 0.5 -0.4
v -0.7 0.5 -0.4
v -0.2 0.5 -0.4
v -0.0999999 0.5 -0.4
v 0.2 0.5 -0.4
v 0.3 0.5 -0.4
v 0.6 0.5 -0.4
v 0.7 0.5 -0.4
v 0.8 0.5 -0.4
v 0.6 0.5 -0.5
v 0.7 0.5 -0.5
v -0.8 0.5 -0.6
v -0.7 0.5 -0.6
v -0.6 0.5 -0.6
v 0.2 0.5 -0.6
v 0.3 0.5 -0.6
v -0.7 0.5 -0.7
v -0.6 0.5 -0.7
v -0.5 0.5 -0.7
v 0.5 0.5 -0.7
v 0.6 0.5 -0.7
v -0.6 0.5 -0.8
v -0.5 0.5 -0.8
v 0.5 0.5 -0.8
v 0.6 0.5 -0.8
v -0.3 0.5 -0.9
v -0.2 0.5 -0.9
v -0.3 0.5 -1
v -0.2 0.5 -1
v 0.3 0.5 -1.2
v 0.4 0.5 -1.2
v -0.3 0.5 -1.3
v -0.2 0.5 -1.3
v 0.3 0.5 -1.3
v 0.4 0.5 -1.3
v -0.2 0.5 -1.5
v -0.0999999 0.5 -1.5
v 0.3 0.5 -1.5
v 0.4 0.5 -1.5
v -0.3 0.5 -1.6
v -0.2 0.5 -1.6
v -0.2 0.5 -1.7
v -0.0999999 0.5 -1.7
v 0.3 0.5 -1.8
v 0.4 0.5 -1.8
v -1 0.6 2
v 1 0.6 2
v 1 0.6 1.9
v 1.1 0.6 1.9
v -1.2 0.6 1.8
v -1.1 0.6 1.8
v -1 0.6 1.8
v -0.9 0.6 1.8
v 0.9 0.6 1.8
v 1.1 0.6 1.8
v -1.2 0.6 1.7
v -1.1 0.6 1.7
v 0.9 0.6 1.7
v 1.1 0.6 1.7
v 1.2 0.6 1.7
v 1.3 0.6 1.7
v 0.5 0.6 1.6
v 0.6 0.6 1.6
v 1 0.6 1.6
v 1.1 0.6 1.6
v 1.2 0.6 1.6
v 1.3 0.6 1.6
v -1.1 0.6 1.5
v -0.9 0.6 1.5
v -0.4 0.6 1.5
v -0.3 0.6 1.5
v 0.8 0.6 1.5
v 0.9 0.6 1.5
v -1.1 0.6 1.4
v -0.8 0.6 1.4
v -0.5 0.6 1.4
v -0.4 0.6 1.4
v -0.3 0.6 1.4
v 0.5 0.6 1.4
v 0.6 0.6 1.4
v 0.8 0.6 1.4
v 0.9 0.6 1.4
v 1 0.6 1.4
v -1.1 0.6 1.3
v -1 0.6 1.3
v -0.9 0.6 1.3
v -0.8 0.6 1.3
v -0.5 0.6 1.3
v -0.4 0.6 1.3
v 0.9 0.6 1.3
v 1 0.6 1.3
v -1.3 0.6 1.2
v -1.2 0.6 1.2
v -1.1 0.6 1.2
v -1 0.6 1.2
v -0.9 0.6 1.2
v 0.9 0.6 1.2
v 1 0.6 1.2
v -1.3 0.6 1.1
v -1.2 0.6 1.1
v -1 0.6 1.1
v -0.9 0.6 1.1
v 0.9 0.6 1.1
v 1 0.6 1.1
v -2 0.6 1
v -1.9 0.6 1
v -1.7 0.6 1
v -1.5 0.6 1
v -1.4 0.6 1
v -1.1 0.6 1
v -1 0.6 1
v -0.9 0.6 1
v -0.2 0.6 1
v 0.1 0.6 1
v 1 0.6 1
v 1.1 0.6 1
v 1.2 0.6 1
v 1.3 0.6 1
v 1.5 0.6 1
v 1.6 0.6 1
v 1.7 0.6 1
v 1.8 0.6 1
v 1.9 0.6 1
v 2 0.6 1
v -1.8 0.6 0.9
v -1.7 0.6 0.9
v -1.6 0.6 0.9
v -1.5 0.6 0.9
v -1.4 0.6 0.9
v -1.2 0.6 0.9
v -1.1 0.6 0.9
v -1 0.6 0.9
v -0.2 0.6 0.9
v 0.1 0.6 0.9
v 1 0.6 0.9
v 1.1 0.6 0.9
v 1.2 0.6 0.9
v 1.3 0.6 0.9
v 1.5 0.6 0.9
v 1.6 0.6 0.9
v 1.7 0.6 0.9
v 1.8 0.6 0.9
v 1.9 0.6 0.9
v -1.9 0.6 0.8
v -1.8 0.6 0.8
v -1.6 0.6 0.8
v -1.5 0.6 0.8
v -1.4 0.6 0.8
v -1.3 0.6 0.8
v -1.2 0.6 0.8
v -1.1 0.6 0.8
v 1 0.6 0.8
v 1.1 0.6 0.8
v 1.5 0.6 0.8
v 1.6 0.6 0.8
v 1.7 0.6 0.8
v 1.8 0.6 0.8
v 1.9 0.6 0.8
v -1.7 0.6 0.7
v -1.6 0.6 0.7
v -1.4 0.6 0.7
v -1.3 0.6 0.7
v -1 0.6 0.7
v -0.9 0.6 0.7
v 0.4 0.6 0.7
v 0.6 0.6 0.7
v 1.2 0.6 0.7
v 1.3 0.6 0.7
v 1.6 0.6 0.7
v 1.7 0.6 0.7
v 1.8 0.6 0.7
v 1.9 0.6 0.7
v -1.7 0.6 0.6
v -1.6 0.6 0.6
v -1.5 0.6 0.6
v -1.4 0.6 0.6
v -1 0.6 0.6
v -0.9 0.6 0.6
v -0.5 0.6 0.6
v -0.4 0.6 0.6
v 0.4 0.6 0.6
v 0.5 0.6 0.6
v 0.6 0.6 0.6
v 0.8 0.6 0.6
v 1.3 0.6 0.6
v 1.4 0.6 0.6
v 1.6 0.6 0.6
v 1.7 0.6 0.6
v -1.5 0.6 0.5
v -1.4 0.6 0.5
v -0.4 0.6 0.5
v 2.38419e-07 0.6 0.5
v 0.5 0.6 0.5
v 0.7 0.6 0.5
v 1.3 0.6 0.5
v 1.4 0.6 0.5
v 1.5 0.6 0.5
v 1.6 0.6 0.5
v -1.8 0.6 0.4
v -1.7 0.6 0.4
v -0.5 0.6 0.4
v 2.38419e-07 0.6 0.4
v 0.7 0.6 0.4
v 0.8 0.6 0.4
v 1.5 0.6 0.4
v 1.6 0.6 0.4
v -1.3 0.6 0.2
v -1 0.6 0.2
v 1.8 0.6 0.2
v 1.9 0.6 0.2
v -1.8 0.6 0.0999999
v -1.7 0.6 0.0999999
v -1.2 0.6 0.0999999
v -1 0.6 0.0999999
v -1.3 0.6 -2.38419e-07
v -1.2 0.6 -2.38419e-07
v -0.5 0.6 -0.1
v -0.4 0.6 -0.1
v 1.1 0.6 -0.1
v 1.2 0.6 -0.1
v -0.6 0.6 -0.2
v -0.5 0.6 -0.2
v -0.4 0.6 -0.2
v 0.3 0.6 -0.2
v 0.4 0.6 -0.2
v 0.7 0.6 -0.2
v 1.1 0.6 -0.2
v 1.2 0.6 -0.2
v 1.8 0.6 -0.2
v 1.9 0.6 -0.2
v -1.7 0.6 -0.3
v -1.4 0.6 -0.3
v -0.6 0.6 -0.3
v -0.5 0.6 -0.3
v -0.2 0.6 -0.3
v -0.0999999 0.6 -0.3
v 0.3 0.6 -0.3
v 0.4 0.6 -0.3
v 0.8 0.6 -0.3
v 1.1 0.6 -0.3
v -1.7 0.6 -0.4
v -1.4 0.6 -0.4
v -0.8 0.6 -0.4
v -0.7 0.6 -0.4
v -0.2 0.6 -0.4
v -0.0999999 0.6 -0.4
v 0.2 0.6 -0.4
v 0.3 0.6 -0.4
v 0.6 0.6 -0.4
v 0.7 0.6 -0.4
v 0.8 0.6 -0.4
v 0.6 0.6 -0.5
v 0.7 0.6 -0.5
v -0.8 0.6 -0.6
v -0.7 0.6 -0.6
v -0.6 0.6 -0.6
v 0.2 0.6 -0.6
v 0.3 0.6 -0.6
v -1.7 0.6 -0.7
v -1.6 0.6 -0.7
v -1.5 0.6 -0.7
v -1.4 0.6 -0.7
v -1.1 0.6 -0.7
v -1 0.6 -0.7
v -0.7 0.6 -0.7
v -0.6 0.6 -0.7
v -0.5 0.6 -0.7
v 0.5 0.6 -0.7
v 0.6 0.6 -0.7
v 1.2 0.6 -0.7
v 1.3 0.6 -0.7
v 1.4 0.6 -0.7
v 1.5 0.6 -0.7
v 1.8 0.6 -0.7
v 1.9 0.6 -0.7
v -1.9 0.6 -0.8
v -1.8 0.6 -0.8
v -1.7 0.6 -0.8
v -1.6 0.6 -0.8
v -1.5 0.6 -0.8
v -1.4 0.6 -0.8
v -1.3 0.6 -0.8
v -1.1 0.6 -0.8
v -1 0.6 -0.8
v -0.6 0.6 -0.8
v -0.5 0.6 -0.8
v 0.5 0.6 -0.8
v 0.6 0.6 -0.8
v 1 0.6 -0.8
v 1.1 0.6 -0.8
v 1.2 0.6 -0.8
v 1.3 0.6 -0.8
v 1.4 0.6 -0.8
v 1.5 0.6 -0.8
v 1.6 0.6 -0.8
v 1.8 0.6 -0.8
v 1.9 0.6 -0.8
v -1.9 0.6 -0.9
v -1.8 0.6 -0.9
v -1.7 0.6 -0.9
v -1.6 0.6 -0.9
v -1.5 0.6 -0.9
v -1.2 0.6 -0.9
v -1 0.6 -0.9
v -0.3 0.6 -0.9
v -0.2 0.6 -0.9
v 0.9 0.6 -0.9
v 1 0.6 -0.9
v 1.1 0.6 -0.9
v 1.3 0.6 -0.9
v 1.4 0.6 -0.9
v 1.6 0.6 -0.9
v 1.8 0.6 -0.9
v -2 0.6 -1
v -1.8 0.6 -1
v -1.7 0.6 -1
v -1.6 0.6 -1
v -1.5 0.6 -1
v -1.4 0.6 -1
v -1.3 0.6 -1
v -1.2 0.6 -1
v -1 0.6 -1
v -0.9 0.6 -1
v -0.3 0.6 -1
v -0.2 0.6 -1
v 0.8 0.6 -1
v 0.9 0.6 -1
v 1 0.6 -1
v 1.3 0.6 -1
v 1.4 0.6 -1
v 1.5 0.6 -1
v 1.8 0.6 -1
v 2 0.6 -1
v -1 0.6 -1.1
v -0.9 0.6 -1.1
v -0.7 0.6 -1.1
v -0.6 0.6 -1.1
v 0.6 0.6 -1.1
v 0.7 0.6 -1.1
v 0.8 0.6 -1.1
v 0.9 0.6 -1.1
v 1 0.6 -1.1
v 1.1 0.6 -1.1
v -1 0.6 -1.2
v -0.9 0.6 -1.2
v -0.7 0.6 -1.2
v -0.6 0.6 -1.2
v 0.3 0.6 -1.2
v 0.4 0.6 -1.2
v 0.6 0.6 -1.2
v 0.7 0.6 -1.2
v 0.9 0.6 -1.2
v 1.1 0.6 -1.2
v -0.3 0.6 -1.3
v -0.2 0.6 -1.3
v 0.3 0.6 -1.3
v 0.4 0.6 -1.3
v -0.8 0.6 -1.4
v -0.7 0.6 -1.4
v 0.7 0.6 -1.4
v 0.8 0.6 -1.4
v 0.9 0.6 -1.4
v 1 0.6 -1.4
v -1 0.6 -1.5
v -0.9 0.6 -1.5
v -0.8 0.6 -1.5
v -0.7 0.6 -1.5
v -0.2 0.6 -1.5
v -0.0999999 0.6 -1.5
v 0.3 0.6 -1.5
v 0.4 0.6 -1.5
v 0.7 0.6 -1.5
v 0.8 0.6 -1.5
v 0.9 0.6 -1.5
v 1 0.6 -1.5
v -0.8 0.6 -1.6
v -0.7 0.6 -1.6
v -0.3 0.6 -1.6
v -0.2 0.6 -1.6
v -1 0.6 -1.7
v -0.9 0.6 -1.7
v -0.8 0.6 -1.7
v -0.7 0.6 -1.7
v -0.2 0.6 -1.7
v -0.0999999 0.6 -1.7
v 0.8 0.6 -1.7
v 0.9 0.6 -1.7
v 1 0.6 -1.7
v -0.6 0.6 -1.8
v -0.5 0.6 -1.8
v 0.3 0.6 -1.8
v 0.4 0.6 -1.8
v 0.8 0.6 -1.8
v 0.9 0.6 -1.8
v 1 0.6 -1.8
v 1.1 0.6 -1.8
v 1.2 0.6 -1.8
v -1 0.6 -1.9
v -0.9 0.6 -1.9
v -0.6 0.6 -1.9
v -0.5 0.6 -1.9
v 0.9 0.6 -1.9
v 1 0.6 -1.9
v 1.1 0.6 -1.9
v 1.2 0.6 -1.9
v -1 0.6 -2
v 1 0.6 -2
v -2 0.7 2
v -1 0.7 2
v 1 0.7 2
v 1.7 0.7 2
v 1.8 0.7 2
v 2 0.7 2
v -1.8 0.7 1.9
v -1.4 0.7 1.9
v -1.3 0.7 1.9
v -1.2 0.7 1.9
v 1 0.7 1.9
v 1.1 0.7 1.9
v 1.3 0.7 1.9
v 1.4 0.7 1.9
v 1.7 0.7 1.9
v 1.8 0.7 1.9
v -1.5 0.7 1.8
v -1.4 0.7 1.8
v -1.2 0.7 1.8
v -1.1 0.7 1.8
v -1 0.7 1.8
v -0.9 0.7 1.8
v 0.9 0.7 1.8
v 1.1 0.7 1.8
v 1.3 0.7 1.8
v 1.4 0.7 1.8
v 1.5 0.7 1.8
v 1.7 0.7 1.8
v -1.8 0.7 1.7
v -1.5 0.7 1.7
v -1.3 0.7 1.7
v -1.2 0.7 1.7
v -1.1 0.7 1.7
v 0.9 0.7 1.7
v 1.1 0.7 1.7
v 1.2 0.7 1.7
v 1.3 0.7 1.7
v 1.8 0.7 1.7
v 1.9 0.7 1.7
v -1.9 0.7 1.6
v -1.4 0.7 1.6
v -1.3 0.7 1.6
v -1.2 0.7 1.6
v 1 0.7 1.6
v 1.1 0.7 1.6
v 1.2 0.7 1.6
v 1.3 0.7 1.6
v 1.8 0.7 1.6
v 1.9 0.7 1.6
v -1.3 0.7 1.5
v -1.2 0.7 1.5
v -1.1 0.7 1.5
v -0.9 0.7 1.5
v 1.4 0.7 1.5
v 1.5 0.7 1.5
v 1.7 0.7 1.5
v -1.2 0.7 1.4
v -1.1 0.7 1.4
v -0.8 0.7 1.4
v 0.9 0.7 1.4
v 1 0.7 1.4
v 1.3 0.7 1.4
v 1.4 0.7 1.4
v 1.8 0.7 1.4
v 1.9 0.7 1.4
v -1.2 0.7 1.3
v -1.1 0.7 1.3
v -1 0.7 1.3
v -0.9 0.7 1.3
v -0.8 0.7 1.3
v 0.9 0.7 1.3
v 1 0.7 1.3
v -1.9 0.7 1.2
v -1.4 0.7 1.2
v -1.3 0.7 1.2
v -1.2 0.7 1.2
v -1.1 0.7 1.2
v -1 0.7 1.2
v -0.9 0.7 1.2
v 0.9 0.7 1.2
v 1 0.7 1.2
v 1.3 0.7 1.2
v 1.5 0.7 1.2
v 1.6 0.7 1.2
v 1.8 0.7 1.2
v 1.9 0.7 1.2
v -1.3 0.7 1.1
v -1.2 0.7 1.1
v -1 0.7 1.1
v -0.9 0.7 1.1
v 0.9 0.7 1.1
v 1 0.7 1.1
v 1.5 0.7 1.1
v 1.6 0.7 1.1
v -2 0.7 1
v -1.9 0.7 1
v -1.7 0.7 1
v -1.5 0.7 1
v -1.4 0.7 1
v -1.1 0.7 1
v -1 0.7 1
v -0.9 0.7 1
v 1 0.7 1
v 1.1 0.7 1
v 1.2 0.7 1
v 1.3 0.7 1
v 1.5 0.7 1
v 1.6 0.7 1
v 1.7 0.7 1
v 1.8 0.7 1
v 1.9 0.7 1
v 2 0.7 1
v -1.8 0.7 0.9
v -1.7 0.7 0.9
v -1.5 0.7 0.9
v -1.4 0.7 0.9
v -1.1 0.7 0.9
v -1 0.7 0.9
v 1.1 0.7 0.9
v 1.2 0.7 0.9
v 1.3 0.7 0.9
v 1.5 0.7 0.9
v 1.6 0.7 0.9
v 1.7 0.7 0.9
v 1.8 0.7 0.9
v 1.9 0.7 0.9
v -1.9 0.7 0.8
v -1.8 0.7 0.8
v -1.4 0.7 -0.8
v -1.3 0.7 -0.8
v 1.5 0.7 -0.8
v 1.6 0.7 -0.8
v -1.8 0.7 -0.9
v -1.7 0.7 -0.9
v -1.6 0.7 -0.9
v -1.5 0.7 -0.9
v -1.2 0.7 -0.9
v -1 0.7 -0.9
v 1.3 0.7 -0.9
v 1.4 0.7 -0.9
v 1.6 0.7 -0.9
v 1.8 0.7 -0.9
v -2 0.7 -1
v -1.8 0.7 -1
v -1.7 0.7 -1
v -1.6 0.7 -1
v -1.5 0.7 -1
v -1.4 0.7 -1
v -1.3 0.7 -1
v -1.2 0.7 -1
v -1 0.7 -1
v -0.9 0.7 -1
v 1 0.7 -1
v 1.3 0.7 -1
v 1.4 0.7 -1
v 1.5 0.7 -1
v 1.8 0.7 -1
v 2 0.7 -1
v -1 0.7 -1.1
v -0.9 0.7 -1.1
v 1 0.7 -1.1
v 1.1 0.7 -1.1
v 1.3 0.7 -1.1
v 1.5 0.7 -1.1
v 1.8 0.7 -1.1
v 1.9 0.7 -1.1
v -1.8 0.7 -1.2
v -1.5 0.7 -1.2
v -1 0.7 -1.2
v -0.9 0.7 -1.2
v 0.9 0.7 -1.2
v 1.1 0.7 -1.2
v 1.3 0.7 -1.2
v 1.5 0.7 -1.2
v -1.6 0.7 -1.3
v -1.3 0.7 -1.3
v 1.3 0.7 -1.3
v 1.6 0.7 -1.3
v 1.8 0.7 -1.3
v 1.9 0.7 -1.3
v -1.8 0.7 -1.4
v -1.6 0.7 -1.4
v 0.9 0.7 -1.4
v 1 0.7 -1.4
v -1 0.7 -1.5
v -0.9 0.7 -1.5
v 0.9 0.7 -1.5
v 1 0.7 -1.5
v 1.7 0.7 -1.5
v 1.9 0.7 -1.5
v -1.8 0.7 -1.6
v -1.7 0.7 -1.6
v -1.8 0.7 -1.7
v -1.7 0.7 -1.7
v -1 0.7 -1.7
v -0.9 0.7 -1.7
v 0.9 0.7 -1.7
v 1 0.7 -1.7
v 1.3 0.7 -1.7
v 1.6 0.7 -1.7
v -1.8 0.7 -1.8
v -1.3 0.7 -1.8
v 0.9 0.7 -1.8
v 1 0.7 -1.8
v 1.1 0.7 -1.8
v 1.2 0.7 -1.8
v -1 0.7 -1.9
v -0.9 0.7 -1.9
v 0.9 0.7 -1.9
v 1 0.7 -1.9
v 1.1 0.7 -1.9
v 1.2 0.7 -1.9
v 1.7 0.7 -1.9
v 1.9 0.7 -1.9
v -2 0.7 -2
v -1 0.7 -2
v 1 0.7 -2
v 2 0.7 -2
v 1.7 0.8 2
v 1.8 0.8 2
v -1.8 0.8 1.9
v -1.4 0.8 1.9
v -1.3 0.8 1.9
v -1.2 0.8 1.9
v 1.3 0.8 1.9
v 1.4 0.8 1.9
v 1.7 0.8 1.9
v 1.8 0.8 1.9
v -1.5 0.8 1.8
v -1.4 0.8 1.8
v 1.3 0.8 1.8
v 1.4 0.8 1.8
v 1.5 0.8 1.8
v 1.7 0.8 1.8
v -1.8 0.8 1.7
v -1.5 0.8 1.7
v -1.3 0.8 1.7
v -1.2 0.8 1.7
v 1.8 0.8 1.7
v 1.9 0.8 1.7
v -1.9 0.8 1.6
v -1.7 0.8 1.6
v -1.6 0.8 1.6
v -1.4 0.8 1.6
v -1.3 0.8 1.6
v -1.2 0.8 1.6
v 1.8 0.8 1.6
v 1.9 0.8 1.6
v -1.9 0.8 1.5
v -1.8 0.8 1.5
v -1.6 0.8 1.5
v -1.5 0.8 1.5
v -1.3 0.8 1.5
v -1.2 0.8 1.5
v 1.4 0.8 1.5
v 1.5 0.8 1.5
v 1.7 0.8 1.5
v -1.9 0.8 1.4
v -1.8 0.8 1.4
v -1.2 0.8 1.4
v -1.1 0.8 1.4
v 1.3 0.8 1.4
v 1.4 0.8 1.4
v 1.8 0.8 1.4
v 1.9 0.8 1.4
v -1.7 0.8 1.3
v -1.5 0.8 1.3
v -1.2 0.8 1.3
v -1.1 0.8 1.3
v -1.9 0.8 1.2
v -1.4 0.8 1.2
v 1.3 0.8 1.2
v 1.5 0.8 1.2
v 1.6 0.8 1.2
v 1.8 0.8 1.2
v 1.9 0.8 1.2
v 1.5 0.8 1.1
v 1.6 0.8 1.1
v -1.8 0.8 -1
v -1.5 0.8 -1
v 1.3 0.8 -1.1
v 1.5 0.8 -1.1
v 1.8 0.8 -1.1
v 1.9 0.8 -1.1
v -1.8 0.8 -1.2
v -1.5 0.8 -1.2
v 1.3 0.8 -1.2
v 1.5 0.8 -1.2
v -1.6 0.8 -1.3
v -1.3 0.8 -1.3
v 1.3 0.8 -1.3
v 1.6 0.8 -1.3
v 1.8 0.8 -1.3
v 1.9 0.8 -1.3
v -1.8 0.8 -1.4
v -1.6 0.8 -1.4
v 1.4 0.8 -1.4
v 1.5 0.8 -1.4
v 1.7 0.8 -1.5
v 1.9 0.8 -1.5
v -1.8 0.8 -1.6
v -1.7 0.8 -1.6
v 1.4 0.8 -1.6
v 1.5 0.8 -1.6
v -1.8 0.8 -1.7
v -1.7 0.8 -1.7
v 1.3 0.8 -1.7
v 1.6 0.8 -1.7
v 1.7 0.8 -1.7
v 1.9 0.8 -1.7
v -1.8 0.8 -1.8
v -1.3 0.8 -1.8
v 1.7 0.8 -1.8
v 1.9 0.8 -1.8
v 1.7 0.8 -1.9
v 1.9 0.8 -1.9
v -1.7 0.9 1.6
v -1.6 0.9 1.6
v -1.9 0.9 1.5
v -1.8 0.9 1.5
v -1.6 0.9 1.5
v -1.5 0.9 1.5
v -1.9 0.9 1.4
v -1.8 0.9 1.4
v -1.7 0.9 1.3
v -1.5 0.9 1.3
v 1.4 0.9 -1.4
v 1.5 0.9 -1.4
v 1.4 0.9 -1.6
v 1.5 0.9 -1.6
v 1.7 0.9 -1.7
v 1.9 0.9 -1.7
v 1.7 0.9 -1.8
v 1.9 0.9 -1.8

# faces
f 3/3/1 2/3/1 1/3/1
f 4/3/1 2/3/1 3/3/1
f 5/1/1 4/1/1 3/1/1
f 6/1/1 4/1/1 5/1/1
f 7/1/1 4/1/1 6/1/1
f 8/1/1 4/1/1 7/1/1
f 9/2/1 6/2/1 5/2/1
f 9/1/1 7/1/1 6/1/1
f 10/2/1 8/2/1 7/2/1
f 10/1/1 7/1/1 9/1/1
f 11/2/1 9/2/1 5/2/1
f 12/2/1 9/2/1 11/2/1
f 13/2/1 8/2/1 10/2/1
f 14/2/1 8/2/1 13/2/1
f 19/2/1 16/2/1 15/2/1
f 20/2/1 16/2/1 19/2/1
f 21/2/1 18/2/1 17/2/1
f 22/2/1 18/2/1 21/2/1
f 23/2/1 18/2/1 22/2/1
f 24/2/1 18/2/1 23/2/1
f 25/2/1 23/2/1 22/2/1
f 26/2/1 23/2/1 25/2/1
f 31/2/1 28/2/1 27/2/1
f 32/2/1 28/2/1 31/2/1
f 38/2/1 30/2/1 29/2/1
f 39/2/1 30/2/1 38/2/1
f 40/2/1 33/2/1 32/2/1
f 41/2/1 33/2/1 40/2/1
f 42/2/1 35/2/1 34/2/1
f 43/2/1 35/2/1 42/2/1
f 44/2/1 37/2/1 36/2/1
f 45/2/1 37/2/1 44/2/1
f 48/1/1 47/1/1 46/1/1
f 49/1/1 47/1/1 48/1/1
f 54/2/1 51/2/1 50/2/1
f 55/2/1 51/2/1 54/2/1
f 56/2/1 53/2/1 52/2/1
f 57/2/1 53/2/1 56/2/1
f 60/2/1 59/2/1 58/2/1
f 61/2/1 59/2/1 60/2/1
f 64/2/1 63/2/1 62/2/1
f 65/2/1 63/2/1 64/2/1
f 68/2/1 67/2/1 66/2/1
f 69/2/1 67/2/1 68/2/1
f 72/1/1 71/1/1 70/1/1
f 73/1/1 71/1/1 72/1/1
f 76/2/1 75/2/1 74/2/1
f 77/2/1 75/2/1 76/2/1
f 82/2/1 79/2/1 78/2/1
f 83/2/1 79/2/1 82/2/1
f 84/2/1 81/2/1 80/2/1
f 85/2/1 81/2/1 84/2/1
f 90/1/1 87/1/1 86/1/1
f 91/1/1 87/1/1 90/1/1
f 96/2/1 89/2/1 88/2/1
f 97/2/1 89/2/1 96/2/1
f 98/2/1 93/2/1 92/2/1
f 99/2/1 93/2/1 98/2/1
f 100/2/1 95/2/1 94/2/1
f 101/2/1 95/2/1 100/2/1
f 106/2/1 103/2/1 102/2/1
f 107/2/1 103/2/1 106/2/1
f 108/2/1 105/2/1 104/2/1
f 109/2/1 105/2/1 108/2/1
f 114/1/1 111/1/1 110/1/1
f 115/1/1 111/1/1 114/1/1
f 116/2/1 113/2/1 112/2/1
f 117/2/1 113/2/1 116/2/1
f 120/1/1 119/1/1 118/1/1
f 121/1/1 119/1/1 120/1/1
f 124/1/1 123/1/1 122/1/1
f 125/1/1 123/1/1 124/1/1
f 130/1/1 127/1/1 126/1/1
f 131/1/1 127/1/1 130/1/1
f 132/1/1 129/1/1 128/1/1
f 133/1/1 129/1/1 132/1/1
f 140/1/1 135/1/1 134/1/1
f 141/1/1 135/1/1 140/1/1
f 142/1/1 137/1/1 136/1/1
f 143/1/1 137/1/1 142/1/1
f 144/1/1 139/1/1 138/1/1
f 145/1/1 139/1/1 144/1/1
f 148/1/1 147/1/1 146/1/1
f 149/1/1 147/1/1 148/1/1
f 154/1/1 151/1/1 150/1/1
f 155/1/1 151/1/1 154/1/1
f 156/1/1 153/1/1 152/1/1
f 157/1/1 153/1/1 156/1/1
f 162/1/1 159/1/1 158/1/1
f 163/1/1 159/1/1 162/1/1
f 164/1/1 161/1/1 160/1/1
f 165/1/1 161/1/1 164/1/1
f 168/1/1 167/1/1 166/1/1
f 169/1/1 167/1/1 168/1/1
f 172/1/1 171/1/1 170/1/1
f 173/1/1 171/1/1 172/1/1
f 176/1/1 175/1/1 174/1/1
f 177/1/1 175/1/1 176/1/1
f 184/1/1 179/1/1 178/1/1
f 185/1/1 179/1/1 184/1/1
f 186/1/1 181/1/1 180/1/1
f 187/1/1 181/1/1 186/1/1
f 188/1/1 183/1/1 182/1/1
f 189/1/1 183/1/1 188/1/1
f 196/1/1 191/1/1 190/1/1
f 197/1/1 191/1/1 196/1/1
f 198/1/1 193/1/1 192/1/1
f 199/1/1 193/1/1 198/1/1
f 200/1/1 195/1/1 194/1/1
f 201/1/1 195/1/1 200/1/1
f 204/1/1 203/1/1 202/1/1
f 205/1/1 203/1/1 204/1/1
f 210/1/1 207/1/1 206/1/1
f 211/1/1 207/1/1 210/1/1
f 212/1/1 209/1/1 208/1/1
f 213/1/1 209/1/1 212/1/1
f 226/2/1 215/2/1 214/2/1
f 227/2/1 215/2/1 226/2/1
f 228/2/1 217/2/1 216/2/1
f 229/2/1 217/2/1 228/2/1
f 230/2/1 219/2/1 218/2/1
f 231/2/1 219/2/1 230/2/1
f 232/2/1 221/2/1 220/2/1
f 233/2/1 221/2/1 232/2/1
f 234/2/1 223/2/1 222/2/1
f 235/2/1 223/2/1 234/2/1
f 236/2/1 225/2/1 224/2/1
f 237/2/1 225/2/1 236/2/1
f 254/2/1 239/2/1 238/2/1
f 255/2/1 239/2/1 254/2/1
f 256/2/1 241/2/1 240/2/1
f 257/2/1 241/2/1 256/2/1
f 258/2/1 243/2/1 242/2/1
f 259/2/1 243/2/1 258/2/1
f 260/2/1 245/2/1 244/2/1
f 261/2/1 245/2/1 260/2/1
f 262/2/1 247/2/1 246/2/1
f 263/2/1 247/2/1 262/2/1
f 264/2/1 249/2/1 248/2/1
f 265/2/1 249/2/1 264/2/1
f 266/2/1 251/2/1 250/2/1
f 267/2/1 251/2/1 266/2/1
f 268/2/1 253/2/1 252/2/1
f 269/2/1 253/2/1 268/2/1
f 278/1/1 271/1/1 270/1/1
f 279/1/1 271/1/1 278/1/1
f 282/2/1 273/2/1 272/2/1
f 283/2/1 273/2/1 282/2/1
f 284/2/1 275/2/1 274/2/1
f 285/2/1 275/2/1 284/2/1
f 286/2/1 277/2/1 276/2/1
f 287/2/1 277/2/1 286/2/1
f 288/2/1 281/2/1 280/2/1
f 289/2/1 281/2/1 288/2/1
f 292/1/1 291/1/1 290/1/1
f 293/1/1 291/1/1 292/1/1
f 296/2/1 295/2/1 294/2/1
f 297/2/1 295/2/1 296/2/1
f 306/2/1 299/2/1 298/2/1
f 307/2/1 299/2/1 306/2/1
f 310/2/1 301/2/1 300/2/1
f 311/2/1 301/2/1 310/2/1
f 312/2/1 303/2/1 302/2/1
f 313/2/1 303/2/1 312/2/1
f 318/2/1 305/2/1 304/2/1
f 319/2/1 305/2/1 318/2/1
f 320/2/1 309/2/1 308/2/1
f 321/2/1 309/2/1 320/2/1
f 322/2/1 315/2/1 314/2/1
f 323/2/1 315/2/1 322/2/1
f 324/2/1 317/2/1 316/2/1
f 325/2/1 317/2/1 324/2/1
f 328/2/1 327/2/1 326/2/1
f 329/2/1 327/2/1 328/2/1
f 332/2/1 331/2/1 330/2/1
f 333/2/1 331/2/1 332/2/1
f 340/2/1 335/2/1 334/2/1
f 341/2/1 335/2/1 340/2/1
f 342/2/1 337/2/1 336/2/1
f 343/2/1 337/2/1 342/2/1
f 344/2/1 339/2/1 338/2/1
f 345/2/1 339/2/1 344/2/1
f 348/2/1 347/2/1 346/2/1
f 349/2/1 347/2/1 348/2/1
f 354/2/1 351/2/1 350/2/1
f 355/2/1 351/2/1 354/2/1
f 356/2/1 353/2/1 352/2/1
f 357/2/1 353/2/1 356/2/1
f 358/2/1 353/2/1 357/2/1
f 359/2/1 353/2/1 358/2/1
f 360/2/1 358/2/1 357/2/1
f 361/2/1 358/2/1 360/2/1
f 368/2/1 363/2/1 362/2/1
f 369/2/1 363/2/1 368/2/1
f 372/2/1 365/2/1 364/2/1
f 373/2/1 365/2/1 372/2/1
f 374/2/1 367/2/1 366/2/1
f 375/2/1 367/2/1 374/2/1
f 376/2/1 371/2/1 370/2/1
f 377/2/1 371/2/1 376/2/1
f 380/1/1 379/1/1 378/1/1
f 381/1/1 379/1/1 380/1/1
f 382/1/2 383/1/2 386/1/2
f 386/1/2 383/1/2 387/1/2
f 384/2/2 385/2/2 388/2/2
f 388/2/2 385/2/2 389/2/2
f 390/2/2 391/2/2 392/2/2
f 392/2/2 391/2/2 393/2/2
f 394/1/2 395/1/2 398/1/2
f 398/1/2 395/1/2 399/1/2
f 396/2/2 397/2/2 402/2/2
f 402/2/2 397/2/2 403/2/2
f 400/2/2 401/2/2 404/2/2
f 404/2/2 401/2/2 405/2/2
f 406/2/2 407/2/2 408/2/2
f 408/2/2 407/2/2 409/2/2
f 410/2/2 411/2/2 414/2/2
f 414/2/2 411/2/2 415/2/2
f 412/2/2 413/2/2 417/2/2
f 417/2/2 413/2/2 418/2/2
f 415/2/2 416/2/2 421/2/2
f 421/2/2 416/2/2 422/2/2
f 419/2/2 420/2/2 423/2/2
f 423/2/2 420/2/2 424/2/2
f 425/2/2 426/2/2 431/2/2
f 431/2/2 426/2/2 432/2/2
f 427/2/2 428/2/2 433/2/2
f 433/2/2 428/2/2 434/2/2
f 429/2/2 430/2/2 435/2/2
f 435/2/2 430/2/2 436/2/2
f 437/1/2 438/1/2 441/1/2
f 441/1/2 438/1/2 442/1/2
f 439/2/2 440/2/2 445/2/2
f 445/2/2 440/2/2 446/2/2
f 443/2/2 444/2/2 447/2/2
f 447/2/2 444/2/2 448/2/2
f 449/2/2 450/2/2 451/2/2
f 451/2/2 450/2/2 452/2/2
f 453/2/2 454/2/2 456/2/2
f 456/2/2 454/2/2 457/2/2
f 455/2/2 456/2/2 460/2/2
f 456/2/2 457/2/2 460/2/2
f 460/2/2 457/2/2 461/2/2
f 458/2/2 459/2/2 462/2/2
f 462/2/2 459/2/2 463/2/2
f 464/2/2 465/2/2 468/2/2
f 468/2/2 465/2/2 469/2/2
f 466/2/2 467/2/2 470/2/2
f 470/2/2 467/2/2 471/2/2
f 469/2/2 470/2/2 472/2/2
f 472/2/2 470/2/2 473/2/2
f 474/2/2 475/2/2 488/2/2
f 488/2/2 475/2/2 489/2/2
f 476/2/2 477/2/2 490/2/2
f 490/2/2 477/2/2 491/2/2
f 478/2/2 479/2/2 492/2/2
f 492/2/2 479/2/2 493/2/2
f 480/2/2 481/2/2 494/2/2
f 494/2/2 481/2/2 495/2/2
f 482/2/2 483/2/2 496/2/2
f 496/2/2 483/2/2 497/2/2
f 484/2/2 485/2/2 498/2/2
f 498/2/2 485/2/2 499/2/2
f 486/2/2 487/2/2 500/2/2
f 500/2/2 487/2/2 501/2/2
f 502/2/2 503/2/2 514/2/2
f 514/2/2 503/2/2 515/2/2
f 504/2/2 505/2/2 516/2/2
f 516/2/2 505/2/2 517/2/2
f 506/2/2 507/2/2 518/2/2
f 518/2/2 507/2/2 519/2/2
f 508/2/2 509/2/2 520/2/2
f 520/2/2 509/2/2 521/2/2
f 510/2/2 511/2/2 522/2/2
f 522/2/2 511/2/2 523/2/2
f 512/2/2 513/2/2 524/2/2
f 524/2/2 513/2/2 525/2/2
f 526/1/2 527/1/2 530/1/2
f 530/1/2 527/1/2 531/1/2
f 528/2/2 529/2/2 532/2/2
f 532/2/2 529/2/2 533/2/2
f 534/1/2 535/1/2 536/1/2
f 536/1/2 535/1/2 537/1/2
f 538/1/2 539/1/2 542/1/2
f 542/1/2 539/1/2 543/1/2
f 540/1/2 541/1/2 544/1/2
f 544/1/2 541/1/2 545/1/2
f 546/1/2 547/1/2 552/1/2
f 552/1/2 547/1/2 553/1/2
f 548/1/2 549/1/2 554/1/2
f 554/1/2 549/1/2 555/1/2
f 550/1/2 551/1/2 556/1/2
f 556/1/2 551/1/2 557/1/2
f 558/1/2 559/1/2 560/1/2
f 560/1/2 559/1/2 561/1/2
f 562/1/2 563/1/2 566/1/2
f 566/1/2 563/1/2 567/1/2
f 564/1/2 565/1/2 568/1/2
f 568/1/2 565/1/2 569/1/2
f 570/1/2 571/1/2 576/1/2
f 576/1/2 571/1/2 577/1/2
f 572/1/2 573/1/2 578/1/2
f 578/1/2 573/1/2 579/1/2
f 574/1/2 575/1/2 580/1/2
f 580/1/2 575/1/2 581/1/2
f 582/1/2 583/1/2 584/1/2
f 584/1/2 583/1/2 585/1/2
f 586/1/2 587/1/2 592/1/2
f 592/1/2 587/1/2 593/1/2
f 588/1/2 589/1/2 594/1/2
f 594/1/2 589/1/2 595/1/2
f 590/1/2 591/1/2 596/1/2
f 596/1/2 591/1/2 597/1/2
f 598/1/2 599/1/2 600/1/2
f 600/1/2 599/1/2 601/1/2
f 602/1/2 603/1/2 608/1/2
f 608/1/2 603/1/2 609/1/2
f 604/1/2 605/1/2 610/1/2
f 610/1/2 605/1/2 611/1/2
f 606/1/2 607/1/2 612/1/2
f 612/1/2 607/1/2 613/1/2
f 614/1/2 615/1/2 616/1/2
f 616/1/2 615/1/2 617/1/2
f 618/1/2 619/1/2 622/1/2
f 622/1/2 619/1/2 623/1/2
f 620/1/2 621/1/2 624/1/2
f 624/1/2 621/1/2 625/1/2
f 626/1/2 627/1/2 628/1/2
f 628/1/2 627/1/2 629/1/2
f 630/2/2 631/2/2 632/2/2
f 632/2/2 631/2/2 633/2/2
f 634/2/2 635/2/2 638/2/2
f 638/2/2 635/2/2 639/2/2
f 636/2/2 637/2/2 640/2/2
f 640/2/2 637/2/2 641/2/2
f 642/2/2 643/2/2 646/2/2
f 646/2/2 643/2/2 647/2/2
f 644/2/2 645/2/2 648/2/2
f 648/2/2 645/2/2 649/2/2
f 650/2/2 651/2/2 654/2/2
f 654/2/2 651/2/2 655/2/2
f 652/2/2 653/2/2 658/2/2
f 658/2/2 653/2/2 659/2/2
f 656/2/2 657/2/2 660/2/2
f 660/2/2 657/2/2 661/2/2
f 662/2/2 663/2/2 664/2/2
f 664/2/2 663/2/2 665/2/2
f 666/2/2 667/2/2 670/2/2
f 670/2/2 667/2/2 671/2/2
f 668/2/2 669/2/2 674/2/2
f 674/2/2 669/2/2 675/2/2
f 672/2/2 673/2/2 676/2/2
f 676/2/2 673/2/2 677/2/2
f 678/2/2 679/2/2 682/2/2
f 682/2/2 679/2/2 683/2/2
f 680/2/2 681/2/2 684/2/2
f 684/2/2 681/2/2 685/2/2
f 686/1/2 687/1/2 688/1/2
f 688/1/2 687/1/2 689/1/2
f 690/2/2 691/2/2 694/2/2
f 694/2/2 691/2/2 695/2/2
f 692/2/2 693/2/2 696/2/2
f 696/2/2 693/2/2 697/2/2
f 698/2/2 699/2/2 704/2/2
f 704/2/2 699/2/2 705/2/2
f 700/2/2 701/2/2 710/2/2
f 710/2/2 701/2/2 711/2/2
f 702/2/2 703/2/2 712/2/2
f 712/2/2 703/2/2 713/2/2
f 706/2/2 707/2/2 714/2/2
f 714/2/2 707/2/2 715/2/2
f 708/2/2 709/2/2 716/2/2
f 716/2/2 709/2/2 717/2/2
f 717/2/2 709/2/2 718/2/2
f 718/2/2 709/2/2 719/2/2
f 717/2/2 718/2/2 720/2/2
f 720/2/2 718/2/2 721/2/2
f 722/3/2 723/3/2 724/3/2
f 724/3/2 723/3/2 725/3/2
f 724/1/2 725/1/2 726/1/2
f 726/1/2 725/1/2 727/1/2
f 727/1/2 725/1/2 728/1/2
f 728/1/2 725/1/2 729/1/2
f 726/2/2 727/2/2 730/2/2
f 727/1/2 728/1/2 730/1/2
f 728/2/2 729/2/2 731/2/2
f 730/1/2 728/1/2 731/1/2
f 726/2/2 730/2/2 732/2/2
f 732/2/2 730/2/2 733/2/2
f 731/2/2 729/2/2 734/2/2
f 734/2/2 729/2/2 735/2/2
f 740/1/3 738/1/3 737/1/3
f 740/2/3 739/2/3 738/2/3
f 741/2/3 739/2/3 740/2/3
f 742/2/3 739/2/3 741/2/3
f 743/1/3 740/1/3 737/1/3
f 743/1/3 741/1/3 740/1/3
f 744/1/3 741/1/3 743/1/3
f 746/2/3 744/2/3 743/2/3
f 746/2/3 745/2/3 744/2/3
f 748/2/3 746/2/3 743/2/3
f 748/2/3 747/2/3 746/2/3
f 749/2/3 747/2/3 748/2/3
f 750/3/3 737/3/3 736/3/3
f 751/1/3 743/1/3 737/1/3
f 751/3/3 737/3/3 750/3/3
f 752/2/3 748/2/3 743/2/3
f 752/1/3 743/1/3 751/1/3
f 753/2/3 748/2/3 752/2/3
f 756/2/3 755/2/3 754/2/3
f 757/2/3 755/2/3 756/2/3
f 760/2/3 759/2/3 758/2/3
f 761/2/3 759/2/3 760/2/3
f 764/2/3 763/2/3 762/2/3
f 765/2/3 763/2/3 764/2/3
f 768/2/3 767/2/3 766/2/3
f 769/2/3 767/2/3 768/2/3
f 772/2/3 771/2/3 770/2/3
f 773/2/3 771/2/3 772/2/3
f 776/2/3 775/2/3 774/2/3
f 777/2/3 775/2/3 776/2/3
f 780/2/3 779/2/3 778/2/3
f 781/2/3 779/2/3 780/2/3
f 784/2/3 783/2/3 782/2/3
f 785/2/3 783/2/3 784/2/3
f 788/2/3 787/2/3 786/2/3
f 790/2/3 788/2/3 786/2/3
f 790/2/3 789/2/3 788/2/3
f 791/2/3 789/2/3 790/2/3
f 792/2/3 790/2/3 786/2/3
f 793/2/3 790/2/3 792/2/3
f 796/2/3 795/2/3 794/2/3
f 797/2/3 795/2/3 796/2/3
f 800/2/3 799/2/3 798/2/3
f 801/2/3 799/2/3 800/2/3
f 804/2/3 803/2/3 802/2/3
f 805/2/3 803/2/3 804/2/3
f 808/2/3 807/2/3 806/2/3
f 809/2/3 807/2/3 808/2/3
f 812/2/3 811/2/3 810/2/3
f 813/2/3 811/2/3 812/2/3
f 816/2/3 815/2/3 814/2/3
f 817/2/3 815/2/3 816/2/3
f 821/2/3 819/2/3 818/2/3
f 822/2/3 819/2/3 821/2/3
f 823/2/3 821/2/3 820/2/3
f 824/2/3 821/2/3 823/2/3
f 827/1/3 826/1/3 825/1/3
f 828/1/3 826/1/3 827/1/3
f 831/1/3 830/1/3 829/1/3
f 832/1/3 830/1/3 831/1/3
f 835/2/3 834/2/3 833/2/3
f 836/2/3 834/2/3 835/2/3
f 839/2/3 838/2/3 837/2/3
f 840/2/3 838/2/3 839/2/3
f 843/2/3 842/2/3 841/2/3
f 844/2/3 842/2/3 843/2/3
f 847/1/3 846/1/3 845/1/3
f 848/1/3 846/1/3 847/1/3
f 851/2/3 850/2/3 849/2/3
f 852/2/3 850/2/3 851/2/3
f 855/2/3 854/2/3 853/2/3
f 856/2/3 854/2/3 855/2/3
f 859/2/3 858/2/3 857/2/3
f 860/2/3 858/2/3 859/2/3
f 863/2/3 862/2/3 861/2/3
f 864/2/3 862/2/3 863/2/3
f 867/2/3 866/2/3 865/2/3
f 868/2/3 866/2/3 867/2/3
f 871/1/3 870/1/3 869/1/3
f 872/1/3 870/1/3 871/1/3
f 875/1/3 874/1/3 873/1/3
f 876/1/3 874/1/3 875/1/3
f 879/1/3 878/1/3 877/1/3
f 880/1/3 878/1/3 879/1/3
f 883/1/3 882/1/3 881/1/3
f 884/1/3 882/1/3 883/1/3
f 887/1/3 886/1/3 885/1/3
f 888/1/3 886/1/3 887/1/3
f 891/1/3 890/1/3 889/1/3
f 892/1/3 890/1/3 891/1/3
f 895/1/3 894/1/3 893/1/3
f 896/1/3 894/1/3 895/1/3
f 899/1/3 898/1/3 897/1/3
f 900/1/3 898/1/3 899/1/3
f 903/1/3 902/1/3 901/1/3
f 904/1/3 902/1/3 903/1/3
f 907/1/3 906/1/3 905/1/3
f 908/1/3 906/1/3 907/1/3
f 911/1/3 910/1/3 909/1/3
f 912/1/3 910/1/3 911/1/3
f 915/1/3 914/1/3 913/1/3
f 916/1/3 914/1/3 915/1/3
f 919/1/3 918/1/3 917/1/3
f 920/1/3 918/1/3 919/1/3
f 923/1/3 922/1/3 921/1/3
f 924/1/3 922/1/3 923/1/3
f 927/1/3 926/1/3 925/1/3
f 928/1/3 926/1/3 927/1/3
f 931/1/3 930/1/3 929/1/3
f 932/1/3 930/1/3 931/1/3
f 935/1/3 934/1/3 933/1/3
f 936/1/3 934/1/3 935/1/3
f 939/1/3 938/1/3 937/1/3
f 940/1/3 938/1/3 939/1/3
f 943/1/3 942/1/3 941/1/3
f 944/1/3 942/1/3 943/1/3
f 947/1/3 946/1/3 945/1/3
f 948/1/3 946/1/3 947/1/3
f 951/1/3 950/1/3 949/1/3
f 952/1/3 950/1/3 951/1/3
f 955/2/3 954/2/3 953/2/3
f 956/2/3 954/2/3 955/2/3
f 959/1/3 958/1/3 957/1/3
f 960/1/3 958/1/3 959/1/3
f 963/1/3 962/1/3 961/1/3
f 964/1/3 962/1/3 963/1/3
f 967/2/3 966/2/3 965/2/3
f 968/2/3 966/2/3 967/2/3
f 971/2/3 970/2/3 969/2/3
f 972/2/3 970/2/3 971/2/3
f 975/2/3 974/2/3 973/2/3
f 976/2/3 974/2/3 975/2/3
f 979/2/3 978/2/3 977/2/3
f 980/2/3 978/2/3 979/2/3
f 983/2/3 982/2/3 981/2/3
f 984/2/3 982/2/3 983/2/3
f 987/2/3 986/2/3 985/2/3
f 988/2/3 986/2/3 987/2/3
f 991/2/3 990/2/3 989/2/3
f 992/2/3 990/2/3 991/2/3
f 995/2/3 993/2/3 992/2/3
f 996/2/3 995/2/3 994/2/3
f 997/2/3 993/2/3 995/2/3
f 997/2/3 995/2/3 996/2/3
f 999/2/3 993/2/3 997/2/3
f 1000/2/3 993/2/3 999/2/3
f 1001/2/3 999/2/3 998/2/3
f 1002/2/3 999/2/3 1001/2/3
f 1005/2/3 1004/2/3 1003/2/3
f 1006/2/3 1004/2/3 1005/2/3
f 1009/2/3 1008/2/3 1007/2/3
f 1010/2/3 1008/2/3 1009/2/3
f 1013/1/3 1012/1/3 1011/1/3
f 1014/1/3 1012/1/3 1013/1/3
f 1017/2/3 1016/2/3 1015/2/3
f 1018/2/3 1016/2/3 1017/2/3
f 1021/2/3 1020/2/3 1019/2/3
f 1022/2/3 1020/2/3 1021/2/3
f 1025/2/3 1024/2/3 1023/2/3
f 1026/2/3 1024/2/3 1025/2/3
f 1029/2/3 1028/2/3 1027/2/3
f 1030/2/3 1028/2/3 1029/2/3
f 1033/2/3 1032/2/3 1031/2/3
f 1034/2/3 1032/2/3 1033/2/3
f 1037/2/3 1036/2/3 1035/2/3
f 1038/2/3 1036/2/3 1037/2/3
f 1041/2/3 1040/2/3 1039/2/3
f 1042/2/3 1040/2/3 1041/2/3
f 1045/2/3 1044/2/3 1043/2/3
f 1046/2/3 1044/2/3 1045/2/3
f 1049/1/3 1048/1/3 1047/1/3
f 1050/1/3 1048/1/3 1049/1/3
f 1053/2/3 1052/2/3 1051/2/3
f 1054/2/3 1052/2/3 1053/2/3
f 1057/2/3 1056/2/3 1055/2/3
f 1058/2/3 1056/2/3 1057/2/3
f 1061/2/3 1060/2/3 1059/2/3
f 1062/2/3 1060/2/3 1061/2/3
f 1065/2/3 1064/2/3 1063/2/3
f 1066/2/3 1064/2/3 1065/2/3
f 1069/2/3 1068/2/3 1067/2/3
f 1070/2/3 1068/2/3 1069/2/3
f 1073/1/3 1072/1/3 1071/1/3
f 1074/1/3 1072/1/3 1073/1/3
f 1077/2/3 1076/2/3 1075/2/3
f 1078/2/3 1076/2/3 1077/2/3
f 1081/2/3 1080/2/3 1079/2/3
f 1082/2/3 1080/2/3 1081/2/3
f 1085/1/3 1084/1/3 1083/1/3
f 1086/1/3 1084/1/3 1085/1/3
f 1089/2/3 1088/2/3 1087/2/3
f 1090/2/3 1088/2/3 1089/2/3
f 1093/1/3 1092/1/3 1091/1/3
f 1094/1/3 1092/1/3 1093/1/3
f 1097/2/3 1096/2/3 1095/2/3
f 1098/2/3 1096/2/3 1097/2/3
f 1101/2/3 1100/2/3 1099/2/3
f 1102/2/3 1100/2/3 1101/2/3
f 1103/2/4 1104/2/4 1105/2/4
f 1105/2/4 1104/2/4 1106/2/4
f 1107/2/4 1108/2/4 1109/2/4
f 1109/2/4 1108/2/4 1110/2/4
f 1111/2/4 1112/2/4 1113/2/4
f 1113/2/4 1112/2/4 1114/2/4
f 1115/2/4 1116/2/4 1117/2/4
f 1117/2/4 1116/2/4 1118/2/4
f 1119/2/4 1120/2/4 1121/2/4
f 1121/2/4 1120/2/4 1122/2/4
f 1123/2/4 1124/2/4 1125/2/4
f 1125/2/4 1124/2/4 1126/2/4
f 1127/2/4 1128/2/4 1129/2/4
f 1129/2/4 1128/2/4 1130/2/4
f 1131/2/4 1132/2/4 1133/2/4
f 1133/2/4 1132/2/4 1134/2/4
f 1135/2/4 1136/2/4 1137/2/4
f 1137/2/4 1136/2/4 1138/2/4
f 1139/1/4 1140/1/4 1141/1/4
f 1141/1/4 1140/1/4 1142/1/4
f 1143/2/4 1144/2/4 1145/2/4
f 1145/2/4 1144/2/4 1146/2/4
f 1147/2/4 1148/2/4 1149/2/4
f 1149/2/4 1148/2/4 1150/2/4
f 1151/2/4 1152/2/4 1153/2/4
f 1153/2/4 1152/2/4 1154/2/4
f 1155/1/4 1156/1/4 1157/1/4
f 1157/1/4 1156/1/4 1158/1/4
f 1159/2/4 1160/2/4 1161/2/4
f 1161/2/4 1160/2/4 1162/2/4
f 1163/2/4 1164/2/4 1165/2/4
f 1165/2/4 1164/2/4 1166/2/4
f 1167/1/4 1168/1/4 1169/1/4
f 1169/1/4 1168/1/4 1170/1/4
f 1171/2/4 1172/2/4 1173/2/4
f 1173/2/4 1172/2/4 1174/2/4
f 1175/2/4 1176/2/4 1178/2/4
f 1178/2/4 1176/2/4 1179/2/4
f 1177/2/4 1178/2/4 1180/2/4
f 1180/2/4 1178/2/4 1181/2/4
f 1182/2/4 1183/2/4 1184/2/4
f 1184/2/4 1183/2/4 1185/2/4
f 1186/2/4 1187/2/4 1188/2/4
f 1188/2/4 1187/2/4 1189/2/4
f 1190/2/4 1191/2/4 1192/2/4
f 1192/2/4 1191/2/4 1193/2/4
f 1194/2/4 1195/2/4 1196/2/4
f 1196/2/4 1195/2/4 1197/2/4
f 1198/2/4 1199/2/4 1200/2/4
f 1200/2/4 1199/2/4 1201/2/4
f 1202/2/4 1203/2/4 1204/2/4
f 1204/2/4 1203/2/4 1205/2/4
f 1206/2/4 1207/2/4 1208/2/4
f 1208/2/4 1207/2/4 1209/2/4
f 1210/2/4 1211/2/4 1212/2/4
f 1212/2/4 1211/2/4 1213/2/4
f 1214/2/4 1215/2/4 1216/2/4
f 1216/2/4 1215/2/4 1217/2/4
f 1218/2/4 1219/2/4 1220/2/4
f 1220/2/4 1219/2/4 1221/2/4
f 1222/2/4 1223/2/4 1224/2/4
f 1224/2/4 1223/2/4 1225/2/4
f 1226/2/4 1227/2/4 1228/2/4
f 1228/2/4 1227/2/4 1229/2/4
f 1230/2/4 1231/2/4 1232/2/4
f 1232/2/4 1231/2/4 1233/2/4
f 1234/1/4 1235/1/4 1236/1/4
f 1236/1/4 1235/1/4 1237/1/4
f 1238/2/4 1239/2/4 1240/2/4
f 1240/2/4 1239/2/4 1241/2/4
f 1242/2/4 1243/2/4 1244/2/4
f 1244/2/4 1243/2/4 1245/2/4
f 1246/2/4 1247/2/4 1248/2/4
f 1248/2/4 1247/2/4 1249/2/4
f 1250/2/4 1251/2/4 1252/2/4
f 1252/2/4 1251/2/4 1253/2/4
f 1254/2/4 1255/2/4 1256/2/4
f 1256/2/4 1255/2/4 1257/2/4
f 1258/2/4 1259/2/4 1260/2/4
f 1260/2/4 1259/2/4 1261/2/4
f 1262/2/4 1263/2/4 1264/2/4
f 1264/2/4 1263/2/4 1265/2/4
f 1266/2/4 1267/2/4 1268/2/4
f 1268/2/4 1267/2/4 1269/2/4
f 1270/2/4 1271/2/4 1272/2/4
f 1272/2/4 1271/2/4 1273/2/4
f 1274/2/4 1275/2/4 1276/2/4
f 1276/2/4 1275/2/4 1277/2/4
f 1278/2/4 1279/2/4 1280/2/4
f 1280/2/4 1279/2/4 1281/2/4
f 1282/2/4 1283/2/4 1284/2/4
f 1284/2/4 1283/2/4 1285/2/4
f 1286/2/4 1287/2/4 1288/2/4
f 1288/2/4 1287/2/4 1289/2/4
f 1290/1/4 1291/1/4 1292/1/4
f 1292/1/4 1291/1/4 1293/1/4
f 1294/1/4 1295/1/4 1296/1/4
f 1296/1/4 1295/1/4 1297/1/4
f 1298/1/4 1299/1/4 1300/1/4
f 1300/1/4 1299/1/4 1301/1/4
f 1302/1/4 1303/1/4 1304/1/4
f 1304/1/4 1303/1/4 1305/1/4
f 1306/1/4 1307/1/4 1308/1/4
f 1308/1/4 1307/1/4 1309/1/4
f 1310/1/4 1311/1/4 1312/1/4
f 1312/1/4 1311/1/4 1313/1/4
f 1314/1/4 1315/1/4 1316/1/4
f 1316/1/4 1315/1/4 1317/1/4
f 1318/1/4 1319/1/4 1320/1/4
f 1320/1/4 1319/1/4 1321/1/4
f 1322/1/4 1323/1/4 1324/1/4
f 1324/1/4 1323/1/4 1325/1/4
f 1326/1/4 1327/1/4 1328/1/4
f 1328/1/4 1327/1/4 1329/1/4
f 1330/1/4 1331/1/4 1332/1/4
f 1332/1/4 1331/1/4 1333/1/4
f 1334/1/4 1335/1/4 1336/1/4
f 1336/1/4 1335/1/4 1337/1/4
f 1338/1/4 1339/1/4 1340/1/4
f 1340/1/4 1339/1/4 1341/1/4
f 1342/1/4 1343/1/4 1344/1/4
f 1344/1/4 1343/1/4 1345/1/4
f 1346/1/4 1347/1/4 1348/1/4
f 1348/1/4 1347/1/4 1349/1/4
f 1350/1/4 1351/1/4 1352/1/4
f 1352/1/4 1351/1/4 1353/1/4
f 1354/1/4 1355/1/4 1356/1/4
f 1356/1/4 1355/1/4 1357/1/4
f 1358/1/4 1359/1/4 1360/1/4
f 1360/1/4 1359/1/4 1361/1/4
f 1362/1/4 1363/1/4 1364/1/4
f 1364/1/4 1363/1/4 1365/1/4
f 1366/1/4 1367/1/4 1368/1/4
f 1368/1/4 1367/1/4 1369/1/4
f 1370/1/4 1371/1/4 1372/1/4
f 1372/1/4 1371/1/4 1373/1/4
f 1374/2/4 1375/2/4 1376/2/4
f 1376/2/4 1375/2/4 1377/2/4
f 1378/2/4 1379/2/4 1380/2/4
f 1380/2/4 1379/2/4 1381/2/4
f 1382/2/4 1383/2/4 1384/2/4
f 1384/2/4 1383/2/4 1385/2/4
f 1386/1/4 1387/1/4 1388/1/4
f 1388/1/4 1387/1/4 1389/1/4
f 1390/2/4 1391/2/4 1392/2/4
f 1392/2/4 1391/2/4 1393/2/4
f 1394/1/4 1395/1/4 1396/1/4
f 1396/1/4 1395/1/4 1397/1/4
f 1398/2/4 1399/2/4 1400/2/4
f 1400/2/4 1399/2/4 1401/2/4
f 1402/2/4 1403/2/4 1404/2/4
f 1404/2/4 1403/2/4 1405/2/4
f 1406/2/4 1407/2/4 1408/2/4
f 1408/2/4 1407/2/4 1409/2/4
f 1410/1/4 1411/1/4 1412/1/4
f 1412/1/4 1411/1/4 1413/1/4
f 1414/1/4 1415/1/4 1416/1/4
f 1416/1/4 1415/1/4 1417/1/4
f 1418/2/4 1419/2/4 1420/2/4
f 1420/2/4 1419/2/4 1421/2/4
f 1422/2/4 1423/2/4 1424/2/4
f 1424/2/4 1423/2/4 1425/2/4
f 1426/2/4 1427/2/4 1428/2/4
f 1428/2/4 1427/2/4 1429/2/4
f 1430/2/4 1431/2/4 1432/2/4
f 1432/2/4 1431/2/4 1433/2/4
f 1434/2/4 1435/2/4 1436/2/4
f 1436/2/4 1435/2/4 1437/2/4
f 1438/2/4 1439/2/4 1440/2/4
f 1440/2/4 1439/2/4 1441/2/4
f 1442/2/4 1443/2/4 1444/2/4
f 1444/2/4 1443/2/4 1445/2/4
f 1446/2/4 1447/2/4 1448/2/4
f 1448/2/4 1447/2/4 1449/2/4
f 1450/2/4 1451/2/4 1452/2/4
f 1452/2/4 1451/2/4 1453/2/4
f 1454/2/4 1455/2/4 1456/2/4
f 1456/2/4 1455/2/4 1457/2/4
f 1459/1/4 1460/1/4 1462/1/4
f 1460/2/4 1461/2/4 1462/2/4
f 1462/2/4 1461/2/4 1463/2/4
f 1463/2/4 1461/2/4 1464/2/4
f 1459/1/4 1462/1/4 1465/1/4
f 1462/1/4 1463/1/4 1465/1/4
f 1465/1/4 1463/1/4 1466/1/4
f 1458/3/4 1459/3/4 1468/3/4
f 1459/1/4 1465/1/4 1469/1/4
f 1468/3/4 1459/3/4 1469/3/4
f 1466/2/4 1467/2/4 1470/2/4
f 1469/1/4 1465/1/4 1470/1/4
f 1465/2/4 1466/2/4 1470/2/4
f 1470/2/4 1467/2/4 1471/2/4
f 1474/3/5 1473/3/5 1472/3/5
f 1475/3/5 1473/3/5 1474/3/5
f 1478/4/6 1479/4/6 1481/4/6
f 1481/4/6 1479/4/6 1482/4/6
f 1476/4/6 1477/4/6 1483/4/6
f 1483/4/6 1477/4/6 1484/4/6
f 1480/4/6 1481/4/6 1485/4/6
f 1485/4/6 1481/4/6 1486/4/6
f 1487/4/6 1488/4/6 1489/4/6
f 1489/4/6 1488/4/6 1490/4/6
f 1491/4/6 1492/4/6 1495/4/6
f 1495/4/6 1492/4/6 1496/4/6
f 1496/4/6 1492/4/6 1497/4/6
f 1493/4/6 1494/4/6 1499/4/6
f 1496/4/6 1497/4/6 1501/4/6
f 1497/4/6 1498/4/6 1501/4/6
f 1501/4/6 1498/4/6 1502/4/6
f 1499/4/6 1500/4/6 1505/4/6
f 1493/4/6 1499/4/6 1505/4/6
f 1505/4/6 1500/4/6 1506/4/6
f 1502/4/6 1498/4/6 1507/4/6
f 1507/4/6 1498/4/6 1508/4/6
f 1503/4/6 1504/4/6 1513/4/6
f 1513/4/6 1504/4/6 1514/4/6
f 1509/4/6 1510/4/6 1515/4/6
f 1515/4/6 1510/4/6 1516/4/6
f 1509/4/6 1515/4/6 1517/4/6
f 1517/4/6 1515/4/6 1518/4/6
f 1519/4/6 1520/4/6 1524/4/6
f 1524/4/6 1520/4/6 1525/4/6
f 1521/4/6 1522/4/6 1529/4/6
f 1529/4/6 1522/4/6 1530/4/6
f 1511/4/6 1512/4/6 1531/4/6
f 1531/4/6 1512/4/6 1532/4/6
f 1523/4/6 1524/4/6 1535/4/6
f 1535/4/6 1524/4/6 1536/4/6
f 1526/4/6 1527/4/6 1539/4/6
f 1539/4/6 1527/4/6 1540/4/6
f 1528/4/6 1529/4/6 1541/4/6
f 1541/4/6 1529/4/6 1542/4/6
f 1533/4/6 1534/4/6 1543/4/6
f 1543/4/6 1534/4/6 1544/4/6
f 1537/4/6 1538/4/6 1547/4/6
f 1547/4/6 1538/4/6 1548/4/6
f 1528/4/6 1541/4/6 1552/4/6
f 1552/4/6 1541/4/6 1553/4/6
f 1551/4/6 1552/4/6 1554/4/6
f 1554/4/6 1552/4/6 1555/4/6
f 1545/4/6 1546/4/6 1556/4/6
f 1556/4/6 1546/4/6 1557/4/6
f 1549/4/6 1550/4/6 1559/4/6
f 1559/4/6 1550/4/6 1560/4/6
f 1557/4/6 1558/4/6 1561/4/6
f 1561/4/6 1558/4/6 1562/4/6
f 1562/4/6 1563/4/6 1566/4/6
f 1566/4/6 1563/4/6 1567/4/6
f 1564/4/6 1565/4/6 1568/4/6
f 1568/4/6 1565/4/6 1569/4/6
f 1570/4/6 1571/4/6 1572/4/6
f 1572/4/6 1571/4/6 1573/4/6
f 1574/4/6 1575/4/6 1578/4/6
f 1578/4/6 1575/4/6 1579/4/6
f 1576/4/6 1577/4/6 1580/4/6
f 1576/4/6 1580/4/6 1584/4/6
f 1580/4/6 1581/4/6 1584/4/6
f 1584/4/6 1581/4/6 1585/4/6
f 1585/4/6 1581/4/6 1586/4/6
f 1586/4/6 1581/4/6 1587/4/6
f 1582/4/6 1583/4/6 1588/4/6
f 1588/4/6 1583/4/6 1589/4/6
f 1590/1/6 1591/1/6 1592/1/6
f 1590/1/6 1592/1/6 1596/1/6
f 1592/1/6 1593/1/6 1596/1/6
f 1596/1/6 1593/1/6 1597/1/6
f 1597/1/6 1593/1/6 1598/1/6
f 1598/1/6 1593/1/6 1599/1/6
f 1594/1/6 1595/1/6 1600/1/6
f 1600/1/6 1595/1/6 1601/1/6
f 1597/1/6 1598/1/6 1602/1/6
f 1602/1/6 1603/1/6 1606/1/6
f 1597/1/6 1602/1/6 1606/1/6
f 1606/1/6 1603/1/6 1607/1/6
f 1607/1/6 1603/1/6 1608/1/6
f 1608/1/6 1603/1/6 1609/1/6
f 1604/1/6 1605/1/6 1610/1/6
f 1610/1/6 1605/1/6 1611/1/6
f 1597/1/6 1606/1/6 1613/1/6
f 1613/1/6 1606/1/6 1614/1/6
f 1614/1/6 1606/1/6 1615/1/6
f 1607/1/6 1608/1/6 1616/1/6
f 1616/1/6 1608/1/6 1617/1/6
f 1612/1/6 1613/1/6 1618/1/6
f 1613/1/6 1614/1/6 1618/1/6
f 1618/1/6 1614/1/6 1619/1/6
f 1619/1/6 1614/1/6 1620/1/6
f 1620/1/6 1614/1/6 1621/1/6
f 1615/1/6 1606/1/6 1622/1/6
f 1622/1/6 1606/1/6 1623/1/6
f 1607/1/6 1616/1/6 1624/1/6
f 1616/2/6 1617/2/6 1625/2/6
f 1624/1/6 1616/1/6 1625/1/6
f 1617/1/6 1608/1/6 1626/1/6
f 1625/2/6 1617/2/6 1626/2/6
f 1626/1/6 1608/1/6 1627/1/6
f 1619/1/6 1620/1/6 1631/1/6
f 1631/1/6 1620/1/6 1632/1/6
f 1624/1/6 1625/1/6 1633/1/6
f 1623/1/6 1624/1/6 1633/1/6
f 1622/1/6 1623/1/6 1633/1/6
f 1625/1/6 1626/1/6 1633/1/6
f 1621/1/6 1622/1/6 1633/1/6
f 1633/1/6 1626/1/6 1634/1/6
f 1628/1/6 1629/1/6 1638/1/6
f 1638/1/6 1629/1/6 1639/1/6
f 1631/1/6 1632/1/6 1640/1/6
f 1630/1/6 1631/1/6 1640/1/6
f 1632/1/6 1633/1/6 1640/1/6
f 1634/1/6 1635/1/6 1640/1/6
f 1633/1/6 1634/1/6 1640/1/6
f 1640/1/6 1635/1/6 1641/1/6
f 1641/1/6 1635/1/6 1642/1/6
f 1636/1/6 1637/1/6 1643/1/6
f 1643/1/6 1637/1/6 1644/1/6
f 1640/1/6 1641/1/6 1645/1/6
f 1639/1/6 1640/1/6 1645/1/6
f 1645/1/6 1641/1/6 1646/1/6
f 1646/1/6 1641/1/6 1647/1/6
f 1647/1/6 1648/1/6 1656/1/6
f 1646/1/6 1647/1/6 1656/1/6
f 1656/1/6 1648/1/6 1657/1/6
f 1657/1/6 1648/1/6 1658/1/6
f 1658/1/6 1648/1/6 1659/1/6
f 1651/1/6 1652/1/6 1670/1/6
f 1670/1/6 1652/1/6 1671/1/6
f 1671/1/6 1652/1/6 1672/1/6
f 1653/1/6 1654/1/6 1673/1/6
f 1673/1/6 1654/1/6 1674/1/6
f 1674/1/6 1654/1/6 1675/1/6
f 1655/1/6 1656/1/6 1676/1/6
f 1656/1/6 1657/1/6 1676/1/6
f 1676/1/6 1657/1/6 1677/1/6
f 1658/1/6 1659/1/6 1678/1/6
f 1659/1/6 1660/1/6 1678/1/6
f 1678/1/6 1660/1/6 1679/1/6
f 1679/1/6 1660/1/6 1680/1/6
f 1661/1/6 1662/1/6 1681/1/6
f 1681/1/6 1662/1/6 1682/1/6
f 1663/1/6 1664/1/6 1683/1/6
f 1683/1/6 1664/1/6 1684/1/6
f 1665/1/6 1666/1/6 1685/1/6
f 1685/1/6 1666/1/6 1686/1/6
f 1667/1/6 1668/1/6 1687/1/6
f 1649/1/6 1650/1/6 1688/1/6
f 1669/1/6 1670/1/6 1689/1/6
f 1670/1/6 1671/1/6 1689/1/6
f 1671/2/6 1672/2/6 1690/2/6
f 1689/1/6 1671/1/6 1690/1/6
f 1673/1/6 1674/1/6 1691/1/6
f 1690/2/6 1672/2/6 1691/2/6
f 1672/1/6 1673/1/6 1691/1/6
f 1691/1/6 1674/1/6 1692/1/6
f 1692/1/6 1674/1/6 1693/1/6
f 1674/2/6 1675/2/6 1694/2/6
f 1693/1/6 1674/1/6 1694/1/6
f 1676/1/6 1677/1/6 1695/1/6
f 1694/2/6 1675/2/6 1695/2/6
f 1675/1/6 1676/1/6 1695/1/6
f 1677/1/6 1678/1/6 1695/1/6
f 1678/1/6 1679/1/6 1695/1/6
f 1679/2/6 1680/2/6 1696/2/6
f 1695/1/6 1679/1/6 1696/1/6
f 1680/1/6 1681/1/6 1697/1/6
f 1696/2/6 1680/2/6 1697/2/6
f 1683/2/6 1684/2/6 1698/2/6
f 1682/1/6 1683/1/6 1698/1/6
f 1684/1/6 1685/1/6 1699/1/6
f 1698/2/6 1684/2/6 1699/2/6
f 1685/2/6 1686/2/6 1700/2/6
f 1699/1/6 1685/1/6 1700/1/6
f 1686/1/6 1687/1/6 1701/1/6
f 1700/2/6 1686/2/6 1701/2/6
f 1687/1/6 1668/1/6 1702/1/6
f 1701/1/6 1687/1/6 1702/1/6
f 1688/1/6 1689/1/6 1703/1/6
f 1689/1/6 1690/1/6 1703/1/6
f 1691/1/6 1692/1/6 1703/1/6
f 1690/1/6 1691/1/6 1703/1/6
f 1703/1/6 1692/1/6 1704/1/6
f 1692/2/6 1693/2/6 1705/2/6
f 1704/1/6 1692/1/6 1705/1/6
f 1694/1/6 1695/1/6 1706/1/6
f 1705/2/6 1693/2/6 1706/2/6
f 1693/1/6 1694/1/6 1706/1/6
f 1695/1/6 1696/1/6 1706/1/6
f 1696/1/6 1697/1/6 1706/1/6
f 1706/1/6 1697/1/6 1707/1/6
f 1707/1/6 1697/1/6 1708/1/6
f 1708/1/6 1697/1/6 1709/1/6
f 1709/1/6 1697/1/6 1710/1/6
f 1697/1/6 1681/1/6 1711/1/6
f 1710/1/6 1697/1/6 1711/1/6
f 1681/2/6 1682/2/6 1711/2/6
f 1698/1/6 1699/1/6 1712/1/6
f 1711/2/6 1682/2/6 1712/2/6
f 1699/1/6 1700/1/6 1712/1/6
f 1682/1/6 1698/1/6 1712/1/6
f 1700/1/6 1701/1/6 1712/1/6
f 1712/1/6 1701/1/6 1713/1/6
f 1713/1/6 1701/1/6 1714/1/6
f 1701/2/6 1702/2/6 1715/2/6
f 1714/1/6 1701/1/6 1715/1/6
f 1702/1/6 1668/1/6 1716/1/6
f 1715/2/6 1702/2/6 1716/2/6
f 1688/1/6 1703/1/6 1717/1/6
f 1703/2/6 1704/2/6 1717/2/6
f 1704/1/6 1705/1/6 1718/1/6
f 1717/2/6 1704/2/6 1718/2/6
f 1706/1/6 1707/1/6 1718/1/6
f 1705/1/6 1706/1/6 1718/1/6
f 1718/1/6 1707/1/6 1719/1/6
f 1719/1/6 1707/1/6 1720/1/6
f 1707/2/6 1708/2/6 1721/2/6
f 1720/1/6 1707/1/6 1721/1/6
f 1708/1/6 1709/1/6 1722/1/6
f 1721/2/6 1708/2/6 1722/2/6
f 1722/1/6 1709/1/6 1723/1/6
f 1723/1/6 1709/1/6 1724/1/6
f 1724/1/6 1709/1/6 1725/1/6
f 1710/1/6 1711/1/6 1727/1/6
f 1712/1/6 1713/1/6 1727/1/6
f 1711/1/6 1712/1/6 1727/1/6
f 1727/1/6 1713/1/6 1728/1/6
f 1728/1/6 1713/1/6 1729/1/6
f 1729/1/6 1713/1/6 1730/1/6
f 1713/2/6 1714/2/6 1731/2/6
f 1730/1/6 1713/1/6 1731/1/6
f 1714/1/6 1715/1/6 1732/1/6
f 1731/2/6 1714/2/6 1732/2/6
f 1715/1/6 1716/1/6 1732/1/6
f 1719/2/6 1720/2/6 1733/2/6
f 1717/1/6 1718/1/6 1733/1/6
f 1718/1/6 1719/1/6 1733/1/6
f 1720/1/6 1721/1/6 1734/1/6
f 1733/2/6 1720/2/6 1734/2/6
f 1722/1/6 1723/1/6 1734/1/6
f 1721/1/6 1722/1/6 1734/1/6
f 1725/1/6 1726/1/6 1735/1/6
f 1724/1/6 1725/1/6 1735/1/6
f 1735/1/6 1726/1/6 1736/1/6
f 1736/1/6 1726/1/6 1737/1/6
f 1728/1/6 1729/1/6 1739/1/6
f 1729/2/6 1730/2/6 1739/2/6
f 1730/1/6 1731/1/6 1740/1/6
f 1739/2/6 1730/2/6 1740/2/6
f 1731/1/6 1732/1/6 1740/1/6
f 1740/1/6 1732/1/6 1741/1/6
f 1741/1/6 1732/1/6 1742/1/6
f 1688/1/6 1717/1/6 1743/1/6
f 1733/1/6 1734/1/6 1743/1/6
f 1717/1/6 1733/1/6 1743/1/6
f 1743/1/6 1734/1/6 1744/1/6
f 1734/1/6 1723/1/6 1745/1/6
f 1744/1/6 1734/1/6 1745/1/6
f 1737/1/6 1738/1/6 1746/1/6
f 1736/1/6 1737/1/6 1746/1/6
f 1746/1/6 1738/1/6 1747/1/6
f 1728/1/6 1739/1/6 1748/1/6
f 1740/1/6 1741/1/6 1748/1/6
f 1739/1/6 1740/1/6 1748/1/6
f 1741/2/6 1742/2/6 1749/2/6
f 1748/1/6 1741/1/6 1749/1/6
f 1742/1/6 1732/1/6 1750/1/6
f 1749/2/6 1742/2/6 1750/2/6
f 1748/1/6 1749/1/6 1751/1/6
f 1749/1/6 1750/1/6 1751/1/6
f 1746/1/6 1747/1/6 1751/1/6
f 1744/1/6 1745/1/6 1751/1/6
f 1747/1/6 1748/1/6 1751/1/6
f 1745/1/6 1746/1/6 1751/1/6
f 1751/1/6 1750/1/6 1752/1/6
f 1750/1/6 1732/1/6 1753/1/6
f 1752/1/6 1750/1/6 1753/1/6
f 1732/1/6 1716/1/6 1753/1/6
f 1716/1/6 1668/1/6 1754/1/6
f 1753/1/6 1716/1/6 1754/1/6
f 1688/1/6 1743/1/6 1755/1/6
f 1744/1/6 1751/1/6 1756/1/6
f 1752/1/6 1753/1/6 1758/1/6
f 1755/1/6 1756/1/6 1759/1/6
f 1756/1/6 1751/1/6 1759/1/6
f 1757/1/6 1758/1/6 1760/1/6
f 1758/1/6 1753/1/6 1761/1/6
f 1759/1/6 1760/1/6 1761/1/6
f 1760/1/6 1758/1/6 1761/1/6
f 1761/1/6 1753/1/6 1762/1/6
f 1762/1/6 1753/1/6 1763/1/6
f 1763/1/6 1753/1/6 1764/1/6
f 1759/1/6 1761/1/6 1765/1/6
f 1765/1/6 1761/1/6 1766/1/6
f 1762/1/6 1763/1/6 1767/1/6
f 1767/1/6 1763/1/6 1768/1/6
f 1768/1/6 1763/1/6 1769/1/6
f 1769/1/6 1763/1/6 1770/1/6
f 1770/1/6 1763/1/6 1771/1/6
f 1764/1/6 1753/1/6 1772/1/6
f 1772/1/6 1753/1/6 1773/1/6
f 1754/1/6 1668/1/6 1774/1/6
f 1755/1/6 1759/1/6 1775/1/6
f 1759/1/6 1765/1/6 1775/1/6
f 1775/1/6 1765/1/6 1776/1/6
f 1776/1/6 1765/1/6 1777/1/6
f 1766/1/6 1767/1/6 1778/1/6
f 1767/1/6 1768/1/6 1778/1/6
f 1778/1/6 1768/1/6 1779/1/6
f 1779/1/6 1768/1/6 1780/1/6
f 1780/1/6 1768/1/6 1781/1/6
f 1769/1/6 1770/1/6 1782/1/6
f 1772/1/6 1773/1/6 1784/1/6
f 1773/1/6 1774/1/6 1784/1/6
f 1771/1/6 1772/1/6 1784/1/6
f 1755/1/6 1775/1/6 1785/1/6
f 1776/1/6 1777/1/6 1786/1/6
f 1777/1/6 1778/1/6 1786/1/6
f 1778/1/6 1779/1/6 1786/1/6
f 1786/1/6 1779/1/6 1787/1/6
f 1787/1/6 1779/1/6 1788/1/6
f 1788/1/6 1779/1/6 1789/1/6
f 1781/1/6 1782/1/6 1790/1/6
f 1780/1/6 1781/1/6 1790/1/6
f 1790/1/6 1782/1/6 1791/1/6
f 1791/1/6 1782/1/6 1792/1/6
f 1782/1/6 1770/1/6 1793/1/6
f 1792/1/6 1782/1/6 1793/1/6
f 1793/1/6 1770/1/6 1794/1/6
f 1783/1/6 1784/1/6 1795/1/6
f 1792/1/6 1793/1/6 1796/1/6
f 1794/1/6 1795/1/6 1797/1/6
f 1785/1/6 1786/1/6 1798/1/6
f 1786/1/6 1787/1/6 1798/1/6
f 1788/1/6 1789/1/6 1799/1/6
f 1789/1/6 1790/1/6 1799/1/6
f 1790/1/6 1791/1/6 1799/1/6
f 1799/1/6 1791/1/6 1800/1/6
f 1800/1/6 1791/1/6 1801/1/6
f 1792/1/6 1796/1/6 1802/1/6
f 1796/1/6 1797/1/6 1802/1/6
f 1785/1/6 1798/1/6 1803/1/6
f 1755/1/6 1785/1/6 1803/1/6
f 1798/1/6 1799/1/6 1803/1/6
f 1803/1/6 1799/1/6 1804/1/6
f 1804/1/6 1799/1/6 1805/1/6
f 1805/1/6 1799/1/6 1806/1/6
f 1806/1/6 1799/1/6 1807/1/6
f 1807/1/6 1799/1/6 1808/1/6
f 1808/1/6 1799/1/6 1809/1/6
f 1801/1/6 1802/1/6 1810/1/6
f 1800/1/6 1801/1/6 1810/1/6
f 1810/1/6 1802/1/6 1811/1/6
f 1802/1/6 1797/1/6 1812/1/6
f 1811/1/6 1802/1/6 1812/1/6
f 1812/1/6 1797/1/6 1813/1/6
f 1795/1/6 1784/1/6 1814/1/6
f 1813/1/6 1797/1/6 1814/1/6
f 1784/1/6 1774/1/6 1814/1/6
f 1797/1/6 1795/1/6 1814/1/6
f 1814/1/6 1774/1/6 1815/1/6
f 1815/1/6 1774/1/6 1816/1/6
f 1816/1/6 1774/1/6 1817/1/6
f 1817/1/6 1774/1/6 1818/1/6
f 1774/1/6 1668/1/6 1819/1/6
f 1818/1/6 1774/1/6 1819/1/6
f 1688/1/6 1755/1/6 1820/1/6
f 1649/1/6 1688/1/6 1820/1/6
f 1755/1/6 1803/1/6 1820/1/6
f 1820/1/6 1803/1/6 1821/1/6
f 1803/2/6 1804/2/6 1822/2/6
f 1821/1/6 1803/1/6 1822/1/6
f 1804/1/6 1805/1/6 1823/1/6
f 1822/2/6 1804/2/6 1823/2/6
f 1805/2/6 1806/2/6 1824/2/6
f 1823/1/6 1805/1/6 1824/1/6
f 1806/1/6 1807/1/6 1825/1/6
f 1824/2/6 1806/2/6 1825/2/6
f 1825/1/6 1807/1/6 1826/1/6
f 1807/2/6 1808/2/6 1827/2/6
f 1826/1/6 1807/1/6 1827/1/6
f 1808/1/6 1809/1/6 1828/1/6
f 1827/2/6 1808/2/6 1828/2/6
f 1809/1/6 1810/1/6 1828/1/6
f 1828/1/6 1810/1/6 1829/1/6
f 1811/1/6 1812/1/6 1830/1/6
f 1830/1/6 1812/1/6 1831/1/6
f 1813/1/6 1814/1/6 1832/1/6
f 1832/1/6 1814/1/6 1833/1/6
f 1833/1/6 1814/1/6 1834/1/6
f 1814/2/6 1815/2/6 1835/2/6
f 1834/1/6 1814/1/6 1835/1/6
f 1815/1/6 1816/1/6 1836/1/6
f 1835/2/6 1815/2/6 1836/2/6
f 1816/2/6 1817/2/6 1837/2/6
f 1836/1/6 1816/1/6 1837/1/6
f 1817/1/6 1818/1/6 1838/1/6
f 1837/2/6 1817/2/6 1838/2/6
f 1838/1/6 1818/1/6 1839/1/6
f 1818/2/6 1819/2/6 1840/2/6
f 1839/1/6 1818/1/6 1840/1/6
f 1819/1/6 1668/1/6 1841/1/6
f 1840/2/6 1819/2/6 1841/2/6
f 1820/2/6 1821/2/6 1842/2/6
f 1649/1/6 1820/1/6 1842/1/6
f 1824/1/6 1825/1/6 1843/1/6
f 1842/2/6 1821/2/6 1843/2/6
f 1821/1/6 1822/1/6 1843/1/6
f 1822/1/6 1823/1/6 1843/1/6
f 1823/1/6 1824/1/6 1843/1/6
f 1843/1/6 1825/1/6 1844/1/6
f 1844/1/6 1825/1/6 1845/1/6
f 1845/1/6 1825/1/6 1846/1/6
f 1826/1/6 1827/1/6 1847/1/6
f 1828/1/6 1829/1/6 1847/1/6
f 1831/1/6 1832/1/6 1847/1/6
f 1829/1/6 1830/1/6 1847/1/6
f 1830/1/6 1831/1/6 1847/1/6
f 1832/1/6 1833/1/6 1847/1/6
f 1827/1/6 1828/1/6 1847/1/6
f 1847/1/6 1833/1/6 1848/1/6
f 1848/1/6 1833/1/6 1849/1/6
f 1849/1/6 1833/1/6 1850/1/6
f 1850/1/6 1833/1/6 1851/1/6
f 1833/2/6 1834/2/6 1852/2/6
f 1851/1/6 1833/1/6 1852/1/6
f 1836/1/6 1837/1/6 1853/1/6
f 1852/2/6 1834/2/6 1853/2/6
f 1835/1/6 1836/1/6 1853/1/6
f 1834/1/6 1835/1/6 1853/1/6
f 1837/1/6 1838/1/6 1853/1/6
f 1853/1/6 1838/1/6 1854/1/6
f 1854/1/6 1838/1/6 1855/1/6
f 1839/1/6 1840/1/6 1856/1/6
f 1840/1/6 1841/1/6 1856/1/6
f 1856/1/6 1841/1/6 1857/1/6
f 1649/1/6 1842/1/6 1858/1/6
f 1842/1/6 1843/1/6 1858/1/6
f 1858/1/6 1843/1/6 1859/1/6
f 1844/1/6 1845/1/6 1860/1/6
f 1860/1/6 1845/1/6 1861/1/6
f 1846/1/6 1825/1/6 1862/1/6
f 1862/1/6 1825/1/6 1863/1/6
f 1826/1/6 1847/1/6 1864/1/6
f 1864/1/6 1847/1/6 1865/1/6
f 1848/1/6 1849/1/6 1866/1/6
f 1866/1/6 1849/1/6 1867/1/6
f 1867/1/6 1849/1/6 1868/1/6
f 1850/1/6 1851/1/6 1869/1/6
f 1869/1/6 1851/1/6 1870/1/6
f 1851/2/6 1852/2/6 1871/2/6
f 1870/1/6 1851/1/6 1871/1/6
f 1853/1/6 1854/1/6 1872/1/6
f 1871/2/6 1852/2/6 1872/2/6
f 1852/1/6 1853/1/6 1872/1/6
f 1872/1/6 1854/1/6 1873/1/6
f 1855/1/6 1838/1/6 1874/1/6
f 1874/1/6 1838/1/6 1875/1/6
f 1857/1/6 1841/1/6 1876/1/6
f 1841/1/6 1668/1/6 1877/1/6
f 1876/1/6 1841/1/6 1877/1/6
f 1869/1/6 1870/1/6 1879/1/6
f 1868/1/6 1869/1/6 1879/1/6
f 1867/1/6 1868/1/6 1879/1/6
f 1879/1/6 1870/1/6 1880/1/6
f 1880/1/6 1870/1/6 1881/1/6
f 1881/1/6 1870/1/6 1882/1/6
f 1882/1/6 1870/1/6 1883/1/6
f 1870/2/6 1871/2/6 1884/2/6
f 1883/1/6 1870/1/6 1884/1/6
f 1871/1/6 1872/1/6 1885/1/6
f 1884/2/6 1871/2/6 1885/2/6
f 1885/1/6 1872/1/6 1886/1/6
f 1878/1/6 1879/1/6 1888/1/6
f 1879/1/6 1880/1/6 1888/1/6
f 1888/1/6 1880/1/6 1889/1/6
f 1880/2/6 1881/2/6 1890/2/6
f 1889/1/6 1880/1/6 1890/1/6
f 1881/1/6 1882/1/6 1891/1/6
f 1890/2/6 1881/2/6 1891/2/6
f 1891/1/6 1882/1/6 1892/1/6
f 1892/1/6 1882/1/6 1893/1/6
f 1882/2/6 1883/2/6 1894/2/6
f 1893/1/6 1882/1/6 1894/1/6
f 1883/1/6 1884/1/6 1895/1/6
f 1894/2/6 1883/2/6 1895/2/6
f 1886/1/6 1887/1/6 1895/1/6
f 1885/1/6 1886/1/6 1895/1/6
f 1884/1/6 1885/1/6 1895/1/6
f 1895/1/6 1887/1/6 1896/1/6
f 1896/1/6 1887/1/6 1897/1/6
f 1891/1/6 1892/1/6 1898/1/6
f 1890/1/6 1891/1/6 1898/1/6
f 1889/1/6 1890/1/6 1898/1/6
f 1898/1/6 1892/1/6 1899/1/6
f 1899/1/6 1892/1/6 1900/1/6
f 1893/1/6 1894/1/6 1901/1/6
f 1895/1/6 1896/1/6 1901/1/6
f 1894/1/6 1895/1/6 1901/1/6
f 1889/1/6 1898/1/6 1902/1/6
f 1902/1/6 1898/1/6 1903/1/6
f 1899/1/6 1900/1/6 1904/1/6
f 1900/1/6 1901/1/6 1904/1/6
f 1901/1/6 1896/1/6 1904/1/6
f 1904/1/6 1896/1/6 1905/1/6
f 1905/1/6 1896/1/6 1906/1/6
f 1889/1/6 1902/1/6 1909/1/6
f 1902/2/6 1903/2/6 1910/2/6
f 1909/1/6 1902/1/6 1910/1/6
f 1903/1/6 1898/1/6 1911/1/6
f 1910/2/6 1903/2/6 1911/2/6
f 1899/1/6 1904/1/6 1912/1/6
f 1912/1/6 1904/1/6 1913/1/6
f 1913/1/6 1904/1/6 1914/1/6
f 1914/1/6 1904/1/6 1915/1/6
f 1904/2/6 1905/2/6 1916/2/6
f 1915/1/6 1904/1/6 1916/1/6
f 1906/1/6 1907/1/6 1917/1/6
f 1916/2/6 1905/2/6 1917/2/6
f 1905/1/6 1906/1/6 1917/1/6
f 1917/1/6 1907/1/6 1918/1/6
f 1918/1/6 1907/1/6 1919/1/6
f 1909/1/6 1910/1/6 1920/1/6
f 1908/1/6 1909/1/6 1920/1/6
f 1910/1/6 1911/1/6 1920/1/6
f 1911/1/6 1898/1/6 1921/1/6
f 1920/1/6 1911/1/6 1921/1/6
f 1921/1/6 1898/1/6 1922/1/6
f 1908/1/6 1920/1/6 1924/1/6
f 1924/1/6 1920/1/6 1925/1/6
f 1920/2/6 1921/2/6 1926/2/6
f 1925/1/6 1920/1/6 1926/1/6
f 1922/1/6 1923/1/6 1927/1/6
f 1926/2/6 1921/2/6 1927/2/6
f 1921/1/6 1922/1/6 1927/1/6
f 1927/1/6 1923/1/6 1928/1/6
f 1913/1/6 1914/1/6 1929/1/6
f 1917/1/6 1918/1/6 1930/1/6
f 1915/1/6 1916/1/6 1930/1/6
f 1916/1/6 1917/1/6 1930/1/6
f 1930/1/6 1918/1/6 1931/1/6
f 1928/1/6 1929/1/6 1933/1/6
f 1925/1/6 1926/1/6 1933/1/6
f 1927/1/6 1928/1/6 1933/1/6
f 1926/1/6 1927/1/6 1933/1/6
f 1933/1/6 1929/1/6 1934/1/6
f 1929/1/6 1914/1/6 1935/1/6
f 1934/1/6 1929/1/6 1935/1/6
f 1915/1/6 1930/1/6 1936/1/6
f 1930/2/6 1931/2/6 1937/2/6
f 1936/1/6 1930/1/6 1937/1/6
f 1931/1/6 1932/1/6 1938/1/6
f 1937/2/6 1931/2/6 1938/2/6
f 1938/1/6 1932/1/6 1939/1/6
f 1925/1/6 1933/1/6 1943/1/6
f 1933/2/6 1934/2/6 1944/2/6
f 1943/1/6 1933/1/6 1944/1/6
f 1937/1/6 1938/1/6 1945/1/6
f 1944/2/6 1934/2/6 1945/2/6
f 1936/1/6 1937/1/6 1945/1/6
f 1935/1/6 1936/1/6 1945/1/6
f 1934/1/6 1935/1/6 1945/1/6
f 1945/1/6 1938/1/6 1946/1/6
f 1940/1/6 1941/1/6 1948/1/6
f 1948/1/6 1941/1/6 1949/1/6
f 1946/1/6 1947/1/6 1950/1/6
f 1943/1/6 1944/1/6 1950/1/6
f 1942/1/6 1943/1/6 1950/1/6
f 1945/1/6 1946/1/6 1950/1/6
f 1944/1/6 1945/1/6 1950/1/6
f 1950/1/6 1947/1/6 1951/1/6
f 1952/2/6 1953/2/6 1958/2/6
f 1958/2/6 1953/2/6 1959/2/6
f 1959/2/6 1953/2/6 1960/2/6
f 1960/2/6 1953/2/6 1961/2/6
f 1954/2/6 1955/2/6 1962/2/6
f 1962/2/6 1955/2/6 1963/2/6
f 1963/2/6 1955/2/6 1964/2/6
f 1964/2/6 1955/2/6 1965/2/6
f 1965/2/6 1955/2/6 1966/2/6
f 1956/2/6 1957/2/6 1967/2/6
f 1959/2/6 1960/2/6 1969/2/6
f 1961/2/6 1953/2/6 1970/2/6
f 1970/2/6 1953/2/6 1971/2/6
f 1971/2/6 1953/2/6 1972/2/6
f 1963/2/6 1964/2/6 1975/2/6
f 1975/2/6 1964/2/6 1976/2/6
f 1965/2/6 1966/2/6 1977/2/6
f 1966/2/6 1967/2/6 1977/2/6
f 1977/2/6 1967/2/6 1978/2/6
f 1978/2/6 1967/2/6 1979/2/6
f 1952/2/6 1958/2/6 1980/2/6
f 1968/2/6 1969/2/6 1981/2/6
f 1969/2/6 1960/2/6 1982/2/6
f 1981/2/6 1969/2/6 1982/2/6
f 1972/2/6 1973/2/6 1984/2/6
f 1971/2/6 1972/2/6 1984/2/6
f 1975/2/6 1976/2/6 1985/2/6
f 1974/2/6 1975/2/6 1985/2/6
f 1977/2/6 1978/2/6 1985/2/6
f 1976/2/6 1977/2/6 1985/2/6
f 1985/2/6 1978/2/6 1986/2/6
f 1986/2/6 1978/2/6 1987/2/6
f 1987/2/6 1978/2/6 1988/2/6
f 1979/2/6 1967/2/6 1989/2/6
f 1967/2/6 1957/2/6 1989/2/6
f 1989/2/6 1957/2/6 1990/2/6
f 1983/2/6 1984/2/6 1991/2/6
f 1952/2/6 1980/2/6 1991/2/6
f 1982/2/6 1983/2/6 1991/2/6
f 1980/2/6 1981/2/6 1991/2/6
f 1981/2/6 1982/2/6 1991/2/6
f 1991/2/6 1984/2/6 1992/2/6
f 1992/2/6 1984/2/6 1993/2/6
f 1993/2/6 1984/2/6 1994/2/6
f 1986/2/6 1987/2/6 1996/2/6
f 1996/2/6 1987/2/6 1997/2/6
f 1988/2/6 1978/2/6 1998/2/6
f 1979/2/6 1989/2/6 1999/2/6
f 1990/2/6 1957/2/6 2000/2/6
f 1992/2/6 1993/2/6 2001/2/6
f 1994/2/6 1984/2/6 2002/2/6
f 1984/2/6 1973/2/6 2003/2/6
f 2002/2/6 1984/2/6 2003/2/6
f 2003/2/6 1973/2/6 2004/2/6
f 1997/2/6 1998/2/6 2005/2/6
f 1996/2/6 1997/2/6 2005/2/6
f 1995/2/6 1996/2/6 2005/2/6
f 1998/2/6 1978/2/6 2005/2/6
f 2005/2/6 1978/2/6 2006/2/6
f 1979/2/6 1999/2/6 2007/2/6
f 1999/2/6 2000/2/6 2007/2/6
f 2002/2/6 2003/2/6 2008/2/6
f 2001/2/6 2002/2/6 2008/2/6
f 2008/2/6 2003/2/6 2009/2/6
f 1995/2/6 2005/2/6 2012/2/6
f 2012/2/6 2005/2/6 2013/2/6
f 2013/2/6 2005/2/6 2014/2/6
f 2006/2/6 2007/2/6 2015/2/6
f 2007/2/6 2000/2/6 2015/2/6
f 2000/2/6 1957/2/6 2016/2/6
f 2015/2/6 2000/2/6 2016/2/6
f 2001/2/6 2008/2/6 2017/2/6
f 2009/2/6 2010/2/6 2018/2/6
f 2018/2/6 2010/2/6 2019/2/6
f 2019/2/6 2010/2/6 2020/2/6
f 2020/2/6 2010/2/6 2021/2/6
f 2012/2/6 2013/2/6 2022/2/6
f 2011/2/6 2012/2/6 2022/2/6
f 2022/2/6 2013/2/6 2023/2/6
f 1952/2/6 1991/2/6 2024/2/6
f 1992/2/6 2001/2/6 2025/2/6
f 2001/2/6 2017/2/6 2025/2/6
f 2017/2/6 2018/2/6 2025/2/6
f 2025/2/6 2018/2/6 2026/2/6
f 2026/2/6 2018/2/6 2027/2/6
f 2027/2/6 2018/2/6 2028/2/6
f 2019/2/6 2020/2/6 2029/2/6
f 2029/2/6 2020/2/6 2030/2/6
f 2023/2/6 2013/2/6 2032/2/6
f 2032/2/6 2013/2/6 2033/2/6
f 2006/2/6 2015/2/6 2034/2/6
f 2034/2/6 2015/2/6 2035/2/6
f 2035/2/6 2015/2/6 2036/2/6
f 2016/2/6 1957/2/6 2037/2/6
f 2024/2/6 2025/2/6 2038/2/6
f 2025/2/6 2026/2/6 2038/2/6
f 2027/2/6 2028/2/6 2039/2/6
f 2028/2/6 2029/2/6 2039/2/6
f 2039/2/6 2029/2/6 2040/2/6
f 2032/2/6 2033/2/6 2042/2/6
f 2033/2/6 2034/2/6 2042/2/6
f 2031/2/6 2032/2/6 2042/2/6
f 2042/2/6 2034/2/6 2043/2/6
f 2043/2/6 2034/2/6 2044/2/6
f 2035/2/6 2036/2/6 2045/2/6
f 2036/2/6 2037/2/6 2045/2/6
f 1952/2/6 2024/2/6 2046/2/6
f 2040/2/6 2041/2/6 2046/2/6
f 2024/2/6 2038/2/6 2046/2/6
f 2039/2/6 2040/2/6 2046/2/6
f 2038/2/6 2039/2/6 2046/2/6
f 2046/2/6 2041/2/6 2047/2/6
f 2047/2/6 2041/2/6 2048/2/6
f 2048/2/6 2041/2/6 2049/2/6
f 2049/2/6 2041/2/6 2050/2/6
f 2050/2/6 2041/2/6 2051/2/6
f 2051/2/6 2041/2/6 2052/2/6
f 2052/2/6 2041/2/6 2053/2/6
f 2043/2/6 2044/2/6 2054/2/6
f 2044/2/6 2045/2/6 2054/2/6
f 2054/2/6 2045/2/6 2055/2/6
f 2055/2/6 2045/2/6 2056/2/6
f 2056/2/6 2045/2/6 2057/2/6
f 2057/2/6 2045/2/6 2058/2/6
f 2045/2/6 2037/2/6 2059/2/6
f 2058/2/6 2045/2/6 2059/2/6
f 2059/2/6 2037/2/6 2060/2/6
f 2060/2/6 2037/2/6 2061/2/6
f 2037/2/6 1957/2/6 2062/2/6
f 2061/2/6 2037/2/6 2062/2/6
f 2062/2/6 1957/2/6 2063/2/6
f 2047/2/6 2048/2/6 2064/2/6
f 2064/2/6 2048/2/6 2065/2/6
f 2049/2/6 2050/2/6 2066/2/6
f 2066/2/6 2050/2/6 2067/2/6
f 2051/2/6 2052/2/6 2068/2/6
f 2068/2/6 2052/2/6 2069/2/6
f 2055/2/6 2056/2/6 2070/2/6
f 2070/2/6 2056/2/6 2071/2/6
f 2057/2/6 2058/2/6 2072/2/6
f 2072/2/6 2058/2/6 2073/2/6
f 2059/2/6 2060/2/6 2074/2/6
f 2074/2/6 2060/2/6 2075/2/6
f 2061/2/6 2062/2/6 2076/2/6
f 2076/2/6 2062/2/6 2077/2/6
f 2047/2/6 2064/2/6 2078/2/6
f 2078/2/6 2064/2/6 2079/2/6
f 2082/2/6 2083/2/6 2092/2/6
f 2084/2/6 2085/2/6 2095/2/6
f 2095/2/6 2085/2/6 2096/2/6
f 2086/2/6 2087/2/6 2097/2/6
f 2097/2/6 2087/2/6 2098/2/6
f 2080/2/6 2081/2/6 2099/2/6
f 2099/2/6 2081/2/6 2100/2/6
f 2088/2/6 2089/2/6 2101/2/6
f 2101/2/6 2089/2/6 2102/2/6
f 2090/2/6 2091/2/6 2105/2/6
f 2105/2/6 2091/2/6 2106/2/6
f 2092/2/6 2093/2/6 2107/2/6
f 2082/2/6 2092/2/6 2107/2/6
f 2107/2/6 2093/2/6 2108/2/6
f 2102/2/6 2103/2/6 2110/2/6
f 2099/2/6 2100/2/6 2110/2/6
f 2098/2/6 2099/2/6 2110/2/6
f 2101/2/6 2102/2/6 2110/2/6
f 2100/2/6 2101/2/6 2110/2/6
f 2110/2/6 2103/2/6 2111/2/6
f 2107/2/6 2108/2/6 2112/2/6
f 2108/2/6 2109/2/6 2112/2/6
f 2106/2/6 2107/2/6 2112/2/6
f 2105/2/6 2106/2/6 2112/2/6
f 2104/2/6 2105/2/6 2112/2/6
f 2112/2/6 2109/2/6 2113/2/6
f 2113/2/6 2109/2/6 2114/2/6
f 2114/2/6 2109/2/6 2115/2/6
f 2115/2/6 2109/2/6 2116/2/6
f 2116/2/6 2109/2/6 2117/2/6
f 2094/2/6 2095/2/6 2118/2/6
f 2098/2/6 2110/2/6 2119/2/6
f 2119/2/6 2110/2/6 2120/2/6
f 2113/2/6 2114/2/6 2123/2/6
f 2123/2/6 2114/2/6 2124/2/6
f 2115/2/6 2116/2/6 2125/2/6
f 2120/2/6 2121/2/6 2126/2/6
f 2118/2/6 2119/2/6 2126/2/6
f 2119/2/6 2120/2/6 2126/2/6
f 2126/2/6 2121/2/6 2127/2/6
f 2123/2/6 2124/2/6 2128/2/6
f 2124/2/6 2125/2/6 2128/2/6
f 2122/2/6 2123/2/6 2128/2/6
f 2125/2/6 2116/2/6 2129/2/6
f 2128/2/6 2125/2/6 2129/2/6
f 2129/2/6 2116/2/6 2130/2/6
f 2117/2/6 2109/2/6 2131/2/6
f 2094/2/6 2118/2/6 2132/2/6
f 2118/2/6 2126/2/6 2132/2/6
f 2132/2/6 2126/2/6 2133/2/6
f 2122/2/6 2128/2/6 2134/2/6
f 2134/2/6 2128/2/6 2135/2/6
f 2127/2/6 2121/2/6 2136/2/6
f 2136/2/6 2121/2/6 2137/2/6
f 2135/2/6 2128/2/6 2139/2/6
f 2129/2/6 2130/2/6 2140/2/6
f 2130/2/6 2131/2/6 2140/2/6
f 2131/2/6 2109/2/6 2141/2/6
f 2140/2/6 2131/2/6 2141/2/6
f 2094/2/6 2132/2/6 2142/2/6
f 2094/2/6 2142/2/6 2144/2/6
f 2142/2/6 2143/2/6 2144/2/6
f 2144/2/6 2143/2/6 2145/2/6
f 2127/2/6 2136/2/6 2146/2/6
f 2138/2/6 2139/2/6 2148/2/6
f 2139/2/6 2128/2/6 2149/2/6
f 2148/2/6 2139/2/6 2149/2/6
f 2149/2/6 2128/2/6 2150/2/6
f 2129/2/6 2140/2/6 2151/2/6
f 2094/2/6 2144/2/6 2152/2/6
f 2146/2/6 2147/2/6 2153/2/6
f 2127/2/6 2146/2/6 2153/2/6
f 2149/2/6 2150/2/6 2155/2/6
f 2150/2/6 2151/2/6 2155/2/6
f 2155/2/6 2151/2/6 2156/2/6
f 2156/2/6 2151/2/6 2157/2/6
f 2152/2/6 2153/2/6 2158/2/6
f 2153/2/6 2147/2/6 2158/2/6
f 2158/2/6 2147/2/6 2159/2/6
f 2155/2/6 2156/2/6 2160/2/6
f 2154/2/6 2155/2/6 2160/2/6
f 2160/2/6 2156/2/6 2161/2/6
f 2161/2/6 2156/2/6 2162/2/6
f 2157/2/6 2151/2/6 2163/2/6
f 2151/2/6 2140/2/6 2164/2/6
f 2163/2/6 2151/2/6 2164/2/6
f 2141/2/6 2109/2/6 2165/2/6
f 2094/2/6 2152/2/6 2166/2/6
f 2152/2/6 2158/2/6 2166/2/6
f 2166/2/6 2158/2/6 2167/2/6
f 2164/2/6 2165/2/6 2168/2/6
f 2163/2/6 2164/2/6 2168/2/6
f 2161/2/6 2162/2/6 2168/2/6
f 2162/2/6 2163/2/6 2168/2/6
f 2165/2/6 2109/2/6 2169/2/6
f 2168/2/6 2165/2/6 2169/2/6
f 2170/2/6 2171/2/6 2178/2/6
f 2178/2/6 2171/2/6 2179/2/6
f 2172/2/6 2173/2/6 2180/2/6
f 2180/2/6 2173/2/6 2181/2/6
f 2176/2/6 2177/2/6 2182/2/6
f 2182/2/6 2177/2/6 2183/2/6
f 2172/2/6 2180/2/6 2186/2/6
f 2186/2/6 2180/2/6 2187/2/6
f 2174/2/6 2175/2/6 2188/2/6
f 2188/2/6 2175/2/6 2189/2/6
f 2190/2/6 2191/2/6 2198/2/6
f 2198/2/6 2191/2/6 2199/2/6
f 2192/2/6 2193/2/6 2200/2/6
f 2200/2/6 2193/2/6 2201/2/6
f 2194/2/6 2195/2/6 2202/2/6
f 2202/2/6 2195/2/6 2203/2/6
f 2196/2/6 2197/2/6 2204/2/6
f 2204/2/6 2197/2/6 2205/2/6
f 2184/2/6 2185/2/6 2207/2/6
f 2207/2/6 2185/2/6 2208/2/6
f 2201/2/6 2193/2/6 2210/2/6
f 2206/2/6 2207/2/6 2214/2/6
f 2210/2/6 2193/2/6 2217/2/6
f 2209/2/6 2210/2/6 2217/2/6
f 2203/2/6 2195/2/6 2218/2/6
f 2211/2/6 2212/2/6 2219/2/6
f 2219/2/6 2212/2/6 2220/2/6
f 2209/2/6 2217/2/6 2221/2/6
f 2217/2/6 2218/2/6 2221/2/6
f 2218/2/6 2195/2/6 2222/2/6
f 2221/2/6 2218/2/6 2222/2/6
f 2213/2/6 2214/2/6 2223/2/6
f 2214/2/6 2207/2/6 2224/2/6
f 2223/2/6 2214/2/6 2224/2/6
f 2215/2/6 2216/2/6 2226/2/6
f 2226/2/6 2216/2/6 2227/2/6
f 2224/2/6 2225/2/6 2228/2/6
f 2228/2/6 2225/2/6 2229/2/6
f 2230/2/6 2231/2/6 2236/2/6
f 2236/2/6 2231/2/6 2237/2/6
f 2232/2/6 2233/2/6 2238/2/6
f 2238/2/6 2233/2/6 2239/2/6
f 2234/2/6 2235/2/6 2244/2/6
f 2244/2/6 2235/2/6 2245/2/6
f 2240/2/6 2241/2/6 2247/2/6
f 2242/2/6 2243/2/6 2248/2/6
f 2248/2/6 2243/2/6 2249/2/6
f 2246/2/6 2247/2/6 2252/2/6
f 2252/2/6 2247/2/6 2253/2/6
f 2242/2/6 2248/2/6 2254/2/6
f 2249/2/6 2243/2/6 2255/2/6
f 2253/2/6 2247/2/6 2257/2/6
f 2242/2/6 2254/2/6 2258/2/6
f 2254/2/6 2255/2/6 2258/2/6
f 2255/2/6 2243/2/6 2259/2/6
f 2258/2/6 2255/2/6 2259/2/6
f 2250/2/6 2251/2/6 2260/2/6
f 2260/2/6 2251/2/6 2261/2/6
f 2256/2/6 2257/2/6 2262/2/6
f 2247/2/6 2241/2/6 2263/2/6
f 2262/2/6 2257/2/6 2263/2/6
f 2257/2/6 2247/2/6 2263/2/6
f 2264/2/6 2265/2/6 2266/2/6
f 2266/2/6 2265/2/6 2267/2/6
f 2268/2/6 2269/2/6 2272/2/6
f 2270/2/6 2271/2/6 2274/2/6
f 2274/2/6 2271/2/6 2275/2/6
f 2272/2/6 2273/2/6 2276/2/6
f 2268/2/6 2272/2/6 2276/2/6
f 2276/2/6 2273/2/6 2277/2/6
f 2278/2/6 2279/2/6 2280/2/6
f 2280/2/6 2279/2/6 2281/2/6
f 2282/2/6 2283/2/6 2284/2/6
f 2284/2/6 2283/2/6 2285/2/6
