# MagicaVoxel @ Ephtracy

# group
o 

# material
mtllib Grass_Plain2.mtl
usemtl palette

# normals
vn -1 0 0
vn 1 0 0
vn 0 0 1
vn 0 0 -1
vn 0 -1 0
vn 0 1 0

# texcoords
vt 0.537109 0.5
vt 0.900391 0.5
vt 0.904297 0.5
vt 0.978516 0.5

# verts
v -2 0 2
v -2 0 -2
v -2 0.3 2
v -2 0.3 -2
v -2 0.5 2
v -2 0.5 -2
v -2 0.6 2
v -2 0.6 -2
v -1.4 0.6 0.2
v -1.4 0.6 -0.2
v -1.4 0.7 0.2
v -1.4 0.7 -0.2
v -1.3 0.6 0.4
v -1.3 0.6 0.2
v -1.3 0.7 0.4
v -1.3 0.7 0.2
v -1.2 0.6 0.6
v -1.2 0.6 0.4
v -1.2 0.6 -0.2
v -1.2 0.6 -0.3
v -1.2 0.7 0.6
v -1.2 0.7 0.4
v -1.2 0.7 -0.2
v -1.2 0.7 -0.3
v -1.1 0.6 0.7
v -1.1 0.6 0.6
v -1.1 0.6 -0.3
v -1.1 0.6 -0.4
v -1.1 0.7 0.7
v -1.1 0.7 0.6
v -1.1 0.7 -0.3
v -1.1 0.7 -0.4
v -1 0.6 0.9
v -1 0.6 0.7
v -1 0.6 -0.4
v -1 0.6 -0.9
v -1 0.7 0.9
v -1 0.7 0.7
v -1 0.7 -0.4
v -1 0.7 -0.9
v -0.9 0.6 1
v -0.9 0.6 0.9
v -0.9 0.7 1
v -0.9 0.7 0.9
v -0.8 0.6 1.1
v -0.8 0.6 1
v -0.8 0.7 1.1
v -0.8 0.7 1
v -0.8 0.7 -0.3
v -0.8 0.7 -0.6
v -0.8 0.8 -0.3
v -0.8 0.8 -0.6
v -0.7 0.6 1.2
v -0.7 0.6 1.1
v -0.7 0.7 1.2
v -0.7 0.7 1.1
v -0.7 0.7 -0.2
v -0.7 0.7 -0.3
v -0.7 0.8 -0.2
v -0.7 0.8 -0.3
v -0.6 0.7 -0.1
v -0.6 0.7 -0.2
v -0.6 0.8 -0.1
v -0.6 0.8 -0.2
v -0.5 0.6 1.3
v -0.5 0.6 1.2
v -0.5 0.7 1.3
v -0.5 0.7 1.2
v -0.5 0.7 -2.38419e-07
v -0.5 0.7 -0.1
v -0.5 0.8 -2.38419e-07
v -0.5 0.8 -0.1
v -0.4 0.6 1.4
v -0.4 0.6 1.3
v -0.4 0.7 1.4
v -0.4 0.7 1.3
v -0.4 0.7 0.4
v -0.4 0.7 -2.38419e-07
v -0.4 0.8 0.4
v -0.4 0.8 -2.38419e-07
v -0.0999999 0.7 0.5
v -0.0999999 0.7 0.4
v -0.0999999 0.8 0.5
v -0.0999999 0.8 0.4
v 2.38419e-07 0.7 0.6
v 2.38419e-07 0.7 0.5
v 2.38419e-07 0.8 0.6
v 2.38419e-07 0.8 0.5
v 0.1 0.6 -0.8
v 0.1 0.6 -0.9
v 0.1 0.7 0.7
v 0.1 0.7 0.6
v 0.1 0.7 -0.8
v 0.1 0.7 -0.9
v 0.1 0.8 0.7
v 0.1 0.8 0.6
v 0.2 0.7 0.8
v 0.2 0.7 0.7
v 0.2 0.8 0.8
v 0.2 0.8 0.7
v -0.7 0.6 -0.8
v -0.7 0.6 -0.9
v -0.7 0.7 -0.8
v -0.7 0.7 -0.9
v -0.3 0.7 -0.5
v -0.3 0.7 -0.6
v -0.3 0.8 -0.5
v -0.3 0.8 -0.6
v 0.2 0.7 -0.4
v 0.2 0.7 -0.5
v 0.2 0.8 -0.4
v 0.2 0.8 -0.5
v 0.3 0.7 -0.3
v 0.3 0.7 -0.4
v 0.3 0.8 -0.3
v 0.3 0.8 -0.4
v 0.4 0.6 -0.8
v 0.4 0.6 -0.9
v 0.4 0.7 -0.1
v 0.4 0.7 -0.3
v 0.4 0.7 -0.8
v 0.4 0.7 -0.9
v 0.4 0.8 -0.1
v 0.4 0.8 -0.3
v 0.5 0.6 1.4
v 0.5 0.6 1.3
v 0.5 0.7 1.4
v 0.5 0.7 1.3
v 0.5 0.7 0.8
v 0.5 0.7 0.6
v 0.5 0.7 0.0999999
v 0.5 0.7 -0.1
v 0.5 0.8 0.8
v 0.5 0.8 0.6
v 0.5 0.8 0.0999999
v 0.5 0.8 -0.1
v 0.6 0.6 1.3
v 0.6 0.6 1.2
v 0.6 0.6 -0.7
v 0.6 0.6 -0.8
v 0.6 0.7 1.3
v 0.6 0.7 1.2
v 0.6 0.7 0.6
v 0.6 0.7 0.5
v 0.6 0.7 0.3
v 0.6 0.7 0.0999999
v 0.6 0.7 -0.7
v 0.6 0.7 -0.8
v 0.6 0.8 0.6
v 0.6 0.8 0.5
v 0.6 0.8 0.3
v 0.6 0.8 0.0999999
v 0.7 0.6 1.2
v 0.7 0.6 1
v 0.7 0.6 -0.6
v 0.7 0.6 -0.7
v 0.7 0.7 1.2
v 0.7 0.7 1
v 0.7 0.7 0.5
v 0.7 0.7 0.3
v 0.7 0.7 -0.6
v 0.7 0.7 -0.7
v 0.7 0.8 0.5
v 0.7 0.8 0.3
v 0.8 0.6 1
v 0.8 0.6 0.7
v 0.8 0.6 -0.4
v 0.8 0.6 -0.6
v 0.8 0.7 1
v 0.8 0.7 0.7
v 0.8 0.7 -0.4
v 0.8 0.7 -0.6
v 0.9 0.6 0.7
v 0.9 0.6 0.4
v 0.9 0.6 -0.2
v 0.9 0.6 -0.4
v 0.9 0.7 0.7
v 0.9 0.7 0.4
v 0.9 0.7 -0.2
v 0.9 0.7 -0.4
v 1 0.6 0.4
v 1 0.6 -0.2
v 1 0.7 0.4
v 1 0.7 -0.2
v 2 0 2
v 2 0 -2
v 2 0.3 2
v 2 0.3 -2
v 2 0.5 2
v 2 0.5 1.2
v 2 0.5 0.8
v 2 0.5 -0.4
v 2 0.5 -0.5
v 2 0.5 -0.6
v 2 0.5 -0.9
v 2 0.5 -1
v 2 0.5 -1.2
v 2 0.5 -2
v 2 0.6 2
v 2 0.6 1.2
v 2 0.6 0.8
v 2 0.6 -0.4
v 2 0.6 -0.5
v 2 0.6 -0.6
v 2 0.6 -0.9
v 2 0.6 -1
v 2 0.6 -1.2
v 2 0.6 -2
v -2 0 2
v -2 0.3 2
v -2 0.5 2
v -2 0.6 2
v -0.2 0.5 2
v -0.2 0.6 2
v -0.0999999 0.5 2
v -0.0999999 0.6 2
v 0.1 0.5 2
v 0.1 0.6 2
v 0.3 0.5 2
v 0.3 0.6 2
v 0.8 0.5 2
v 0.8 0.6 2
v 0.9 0.5 2
v 0.9 0.6 2
v 2 0 2
v 2 0.3 2
v 2 0.5 2
v 2 0.6 2
v -0.4 0.6 1.4
v -0.4 0.7 1.4
v 2.38419e-07 0.6 1.4
v 0.1 0.6 1.4
v 0.5 0.6 1.4
v 0.5 0.7 1.4
v -0.5 0.6 1.3
v -0.5 0.7 1.3
v -0.4 0.6 1.3
v -0.4 0.7 1.3
v 0.5 0.6 1.3
v 0.5 0.7 1.3
v 0.6 0.6 1.3
v 0.6 0.7 1.3
v -0.7 0.6 1.2
v -0.7 0.7 1.2
v -0.5 0.6 1.2
v -0.5 0.7 1.2
v 0.6 0.6 1.2
v 0.6 0.7 1.2
v 0.7 0.6 1.2
v 0.7 0.7 1.2
v -0.8 0.6 1.1
v -0.8 0.7 1.1
v -0.7 0.6 1.1
v -0.7 0.7 1.1
v -0.9 0.6 1
v -0.9 0.7 1
v -0.8 0.6 1
v -0.8 0.7 1
v 0.7 0.6 1
v 0.7 0.7 1
v 0.8 0.6 1
v 0.8 0.7 1
v -1 0.6 0.9
v -1 0.7 0.9
v -0.9 0.6 0.9
v -0.9 0.7 0.9
v 0.2 0.7 0.8
v 0.2 0.8 0.8
v 0.5 0.7 0.8
v 0.5 0.8 0.8
v -1.1 0.6 0.7
v -1.1 0.7 0.7
v -1 0.6 0.7
v -1 0.7 0.7
v 0.1 0.7 0.7
v 0.1 0.8 0.7
v 0.2 0.7 0.7
v 0.2 0.8 0.7
v 0.8 0.6 0.7
v 0.8 0.7 0.7
v 0.9 0.6 0.7
v 0.9 0.7 0.7
v -1.2 0.6 0.6
v -1.2 0.7 0.6
v -1.1 0.6 0.6
v -1.1 0.7 0.6
v 2.38419e-07 0.7 0.6
v 2.38419e-07 0.8 0.6
v 0.1 0.7 0.6
v 0.1 0.8 0.6
v 0.5 0.7 0.6
v 0.5 0.8 0.6
v 0.6 0.7 0.6
v 0.6 0.8 0.6
v -0.0999999 0.7 0.5
v -0.0999999 0.8 0.5
v 2.38419e-07 0.7 0.5
v 2.38419e-07 0.8 0.5
v 0.6 0.7 0.5
v 0.6 0.8 0.5
v 0.7 0.7 0.5
v 0.7 0.8 0.5
v -1.3 0.6 0.4
v -1.3 0.7 0.4
v -1.2 0.6 0.4
v -1.2 0.7 0.4
v -0.4 0.7 0.4
v -0.4 0.8 0.4
v -0.0999999 0.7 0.4
v -0.0999999 0.8 0.4
v 0.9 0.6 0.4
v 0.9 0.7 0.4
v 1 0.6 0.4
v 1 0.7 0.4
v -1.4 0.6 0.2
v -1.4 0.7 0.2
v -1.3 0.6 0.2
v -1.3 0.7 0.2
v -0.5 0.7 -2.38419e-07
v -0.5 0.8 -2.38419e-07
v -0.4 0.7 -2.38419e-07
v -0.4 0.8 -2.38419e-07
v -0.6 0.7 -0.1
v -0.6 0.8 -0.1
v -0.5 0.7 -0.1
v -0.5 0.8 -0.1
v -0.7 0.7 -0.2
v -0.7 0.8 -0.2
v -0.6 0.7 -0.2
v -0.6 0.8 -0.2
v -0.8 0.7 -0.3
v -0.8 0.8 -0.3
v -0.7 0.7 -0.3
v -0.7 0.8 -0.3
v 0.6 0.7 0.3
v 0.6 0.8 0.3
v 0.7 0.7 0.3
v 0.7 0.8 0.3
v 0.5 0.7 0.0999999
v 0.5 0.8 0.0999999
v 0.6 0.7 0.0999999
v 0.6 0.8 0.0999999
v 0.4 0.7 -0.1
v 0.4 0.8 -0.1
v 0.5 0.7 -0.1
v 0.5 0.8 -0.1
v -1.4 0.6 -0.2
v -1.4 0.7 -0.2
v -1.2 0.6 -0.2
v -1.2 0.7 -0.2
v 0.9 0.6 -0.2
v 0.9 0.7 -0.2
v 1 0.6 -0.2
v 1 0.7 -0.2
v -1.2 0.6 -0.3
v -1.2 0.7 -0.3
v -1.1 0.6 -0.3
v -1.1 0.7 -0.3
v 0.3 0.7 -0.3
v 0.3 0.8 -0.3
v 0.4 0.7 -0.3
v 0.4 0.8 -0.3
v -1.1 0.6 -0.4
v -1.1 0.7 -0.4
v -1 0.6 -0.4
v -1 0.7 -0.4
v 0.2 0.7 -0.4
v 0.2 0.8 -0.4
v 0.3 0.7 -0.4
v 0.3 0.8 -0.4
v 0.8 0.6 -0.4
v 0.8 0.7 -0.4
v 0.9 0.6 -0.4
v 0.9 0.7 -0.4
v -0.3 0.7 -0.5
v -0.3 0.8 -0.5
v 0.2 0.7 -0.5
v 0.2 0.8 -0.5
v -0.8 0.7 -0.6
v -0.8 0.8 -0.6
v -0.3 0.7 -0.6
v -0.3 0.8 -0.6
v 0.7 0.6 -0.6
v 0.7 0.7 -0.6
v 0.8 0.6 -0.6
v 0.8 0.7 -0.6
v 0.6 0.6 -0.7
v 0.6 0.7 -0.7
v 0.7 0.6 -0.7
v 0.7 0.7 -0.7
v -0.7 0.6 -0.8
v -0.7 0.7 -0.8
v 0.1 0.6 -0.8
v 0.1 0.7 -0.8
v 0.4 0.6 -0.8
v 0.4 0.7 -0.8
v 0.6 0.6 -0.8
v 0.6 0.7 -0.8
v -1 0.6 -0.9
v -1 0.7 -0.9
v -0.7 0.6 -0.9
v -0.7 0.7 -0.9
v 0.1 0.6 -0.9
v 0.1 0.7 -0.9
v 0.4 0.6 -0.9
v 0.4 0.7 -0.9
v -2 0 -2
v -2 0.3 -2
v -2 0.5 -2
v -2 0.6 -2
v -1.4 0.5 -2
v -1.4 0.6 -2
v -1.3 0.5 -2
v -1.3 0.6 -2
v -0.9 0.5 -2
v -0.9 0.6 -2
v -0.8 0.5 -2
v -0.8 0.6 -2
v 0.3 0.5 -2
v 0.3 0.6 -2
v 0.4 0.5 -2
v 0.4 0.6 -2
v 2 0 -2
v 2 0.3 -2
v 2 0.5 -2
v 2 0.6 -2
v -2 0 2
v 2 0 2
v -2 0 -2
v 2 0 -2
v -2 0.6 2
v -0.2 0.6 2
v -0.0999999 0.6 2
v 0.1 0.6 2
v 0.3 0.6 2
v 0.8 0.6 2
v 0.9 0.6 2
v 2 0.6 2
v -0.5 0.6 1.9
v -0.2 0.6 1.9
v -0.0999999 0.6 1.9
v 0.1 0.6 1.9
v 0.4 0.6 1.9
v 0.5 0.6 1.9
v 0.9 0.6 1.9
v 1 0.6 1.9
v -1.6 0.6 1.8
v -1.5 0.6 1.8
v -1.3 0.6 1.8
v -1.2 0.6 1.8
v -0.9 0.6 1.8
v -0.7 0.6 1.8
v -0.5 0.6 1.8
v -0.4 0.6 1.8
v 0.3 0.6 1.8
v 0.4 0.6 1.8
v 0.5 0.6 1.8
v 0.7 0.6 1.8
v 0.8 0.6 1.8
v 1 0.6 1.8
v 1.2 0.6 1.8
v -1.7 0.6 1.7
v -1.6 0.6 1.7
v -1.5 0.6 1.7
v -1.3 0.6 1.7
v -0.9 0.6 1.7
v -0.7 0.6 1.7
v -0.5 0.6 1.7
v -0.4 0.6 1.7
v 0.6 0.6 1.7
v 0.7 0.6 1.7
v 1.1 0.6 1.7
v 1.2 0.6 1.7
v -1.7 0.6 1.6
v -1.6 0.6 1.6
v -1.2 0.6 1.6
v -1.1 0.6 1.6
v -0.5 0.6 1.6
v -0.3 0.6 1.6
v -0.0999999 0.6 1.6
v 0.1 0.6 1.6
v 0.2 0.6 1.6
v 0.3 0.6 1.6
v 0.4 0.6 1.6
v 0.5 0.6 1.6
v 0.6 0.6 1.6
v 0.8 0.6 1.6
v 1 0.6 1.6
v 1.1 0.6 1.6
v 1.6 0.6 1.6
v 1.7 0.6 1.6
v 1.8 0.6 1.6
v 1.9 0.6 1.6
v -1.7 0.6 1.5
v -1.6 0.6 1.5
v -1.4 0.6 1.5
v -1.3 0.6 1.5
v -1.1 0.6 1.5
v -0.3 0.6 1.5
v -0.0999999 0.6 1.5
v 2.38419e-07 0.6 1.5
v 0.1 0.6 1.5
v 0.2 0.6 1.5
v 0.3 0.6 1.5
v 0.5 0.6 1.5
v 0.7 0.6 1.5
v 0.8 0.6 1.5
v 1 0.6 1.5
v 1.1 0.6 1.5
v 1.3 0.6 1.5
v 1.4 0.6 1.5
v 1.5 0.6 1.5
v 1.6 0.6 1.5
v 1.7 0.6 1.5
v 1.8 0.6 1.5
v 1.9 0.6 1.5
v -1.7 0.6 1.4
v -1.6 0.6 1.4
v -1.5 0.6 1.4
v -1.4 0.6 1.4
v -1.3 0.6 1.4
v -0.4 0.6 1.4
v 2.38419e-07 0.6 1.4
v 0.1 0.6 1.4
v 0.5 0.6 1.4
v 0.7 0.6 1.4
v 0.8 0.6 1.4
v 0.9 0.6 1.4
v 1.1 0.6 1.4
v 1.3 0.6 1.4
v 1.4 0.6 1.4
v 1.5 0.6 1.4
v 1.8 0.6 1.4
v 1.9 0.6 1.4
v -0.5 0.6 1.3
v -0.4 0.6 1.3
v 0.5 0.6 1.3
v 0.6 0.6 1.3
v 0.8 0.6 1.3
v 0.9 0.6 1.3
v 1.2 0.6 1.3
v 1.4 0.6 1.3
v -1.5 0.6 1.2
v -1.4 0.6 1.2
v -0.7 0.6 1.2
v -0.5 0.6 1.2
v 0.6 0.6 1.2
v 0.7 0.6 1.2
v 1.3 0.6 1.2
v 1.4 0.6 1.2
v 1.9 0.6 1.2
v 2 0.6 1.2
v -1.5 0.6 1.1
v -1.4 0.6 1.1
v -0.8 0.6 1.1
v -0.7 0.6 1.1
v 1.2 0.6 1.1
v 1.3 0.6 1.1
v 1.4 0.6 1.1
v -1.7 0.6 1
v -1.5 0.6 1
v -1.4 0.6 1
v -1.3 0.6 1
v -0.9 0.6 1
v -0.8 0.6 1
v 0.7 0.6 1
v 0.8 0.6 1
v 1.2 0.6 1
v 1.3 0.6 1
v -1.7 0.6 0.9
v -1.6 0.6 0.9
v -1.4 0.6 0.9
v -1.3 0.6 0.9
v -1 0.6 0.9
v -0.9 0.6 0.9
v -1.7 0.6 0.8
v -1.6 0.6 0.8
v 1.2 0.6 0.8
v 1.3 0.6 0.8
v 1.9 0.6 0.8
v 2 0.6 0.8
v -1.1 0.6 0.7
v -1 0.6 0.7
v 0.8 0.6 0.7
v 0.9 0.6 0.7
v 1.3 0.6 0.7
v 1.4 0.6 0.7
v -1.7 0.6 0.6
v -1.4 0.6 0.6
v -1.2 0.6 0.6
v -1.1 0.6 0.6
v 1.4 0.6 0.6
v 1.5 0.6 0.6
v 1.6 0.6 0.6
v 1.7 0.6 0.6
v 1.8 0.6 0.6
v 1.9 0.6 0.6
v -1.7 0.6 0.5
v -1.5 0.6 0.5
v 1.5 0.6 0.5
v 1.6 0.6 0.5
v 1.7 0.6 0.5
v 1.8 0.6 0.5
v -1.9 0.6 0.4
v -1.8 0.6 0.4
v -1.3 0.6 0.4
v -1.2 0.6 0.4
v 0.9 0.6 0.4
v 1 0.6 0.4
v 1.7 0.6 0.4
v 1.8 0.6 0.4
v -1.9 0.6 0.3
v -1.8 0.6 0.3
v -1.7 0.6 0.3
v -1.5 0.6 0.3
v 1.7 0.6 0.3
v 1.8 0.6 0.3
v -1.7 0.6 0.2
v -1.6 0.6 0.2
v -1.4 0.6 0.2
v -1.3 0.6 0.2
v -1.7 0.6 0.0999999
v -1.6 0.6 0.0999999
v -1.8 0.6 -0.2
v -1.7 0.6 -0.2
v -1.6 0.6 -0.2
v -1.5 0.6 -0.2
v -1.4 0.6 -0.2
v -1.2 0.6 -0.2
v 0.9 0.6 -0.2
v 1 0.6 -0.2
v 1.4 0.6 -0.2
v 1.5 0.6 -0.2
v 1.6 0.6 -0.2
v 1.7 0.6 -0.2
v 1.8 0.6 -0.2
v 1.9 0.6 -0.2
v -1.9 0.6 -0.3
v -1.8 0.6 -0.3
v -1.7 0.6 -0.3
v -1.6 0.6 -0.3
v -1.3 0.6 -0.3
v -1.2 0.6 -0.3
v -1.1 0.6 -0.3
v 1.7 0.6 -0.3
v 1.8 0.6 -0.3
v -1.9 0.6 -0.4
v -1.8 0.6 -0.4
v -1.7 0.6 -0.4
v -1.6 0.6 -0.4
v -1.5 0.6 -0.4
v -1.3 0.6 -0.4
v -1.1 0.6 -0.4
v -1 0.6 -0.4
v 0.8 0.6 -0.4
v 0.9 0.6 -0.4
v 1.4 0.6 -0.4
v 1.5 0.6 -0.4
v 1.9 0.6 -0.4
v 2 0.6 -0.4
v -1.9 0.6 -0.5
v -1.8 0.6 -0.5
v -1.3 0.6 -0.5
v -1.2 0.6 -0.5
v 1.4 0.6 -0.5
v 1.6 0.6 -0.5
v 1.9 0.6 -0.5
v 2 0.6 -0.5
v -1.9 0.6 -0.6
v -1.7 0.6 -0.6
v -1.6 0.6 -0.6
v -1.4 0.6 -0.6
v -1.3 0.6 -0.6
v -1.2 0.6 -0.6
v 0.7 0.6 -0.6
v 0.8 0.6 -0.6
v 1.3 0.6 -0.6
v 1.4 0.6 -0.6
v 1.9 0.6 -0.6
v 2 0.6 -0.6
v -1.7 0.6 -0.7
v -1.6 0.6 -0.7
v -1.3 0.6 -0.7
v -1.2 0.6 -0.7
v 0.6 0.6 -0.7
v 0.7 0.6 -0.7
v 1.3 0.6 -0.7
v 1.4 0.6 -0.7
v -1.7 0.6 -0.8
v -1.6 0.6 -0.8
v -1.4 0.6 -0.8
v -1.3 0.6 -0.8
v -0.7 0.6 -0.8
v 0.1 0.6 -0.8
v 0.4 0.6 -0.8
v 0.6 0.6 -0.8
v 1.3 0.6 -0.8
v 1.4 0.6 -0.8
v -1.7 0.6 -0.9
v -1.3 0.6 -0.9
v -1 0.6 -0.9
v -0.7 0.6 -0.9
v -0.6 0.6 -0.9
v -0.4 0.6 -0.9
v 0.1 0.6 -0.9
v 0.4 0.6 -0.9
v 1.9 0.6 -0.9
v 2 0.6 -0.9
v -1.1 0.6 -1
v -0.9 0.6 -1
v -0.7 0.6 -1
v -0.6 0.6 -1
v 1.9 0.6 -1
v 2 0.6 -1
v -1.2 0.6 -1.1
v -1.1 0.6 -1.1
v -0.9 0.6 -1.1
v -0.8 0.6 -1.1
v -0.7 0.6 -1.1
v -0.6 0.6 -1.1
v -0.4 0.6 -1.1
v -0.3 0.6 -1.1
v 1.3 0.6 -1.1
v 1.4 0.6 -1.1
v -1.5 0.6 -1.2
v -1.4 0.6 -1.2
v -1.3 0.6 -1.2
v -1.2 0.6 -1.2
v -0.8 0.6 -1.2
v -0.6 0.6 -1.2
v -0.3 0.6 -1.2
v -0.2 0.6 -1.2
v 0.4 0.6 -1.2
v 0.5 0.6 -1.2
v 1.3 0.6 -1.2
v 1.4 0.6 -1.2
v 1.7 0.6 -1.2
v 1.8 0.6 -1.2
v 1.9 0.6 -1.2
v 2 0.6 -1.2
v -1.6 0.6 -1.3
v -1.5 0.6 -1.3
v -1.4 0.6 -1.3
v -1.3 0.6 -1.3
v -0.7 0.6 -1.3
v -0.6 0.6 -1.3
v -0.3 0.6 -1.3
v -0.2 0.6 -1.3
v -0.0999999 0.6 -1.3
v 0.1 0.6 -1.3
v 0.2 0.6 -1.3
v 1.3 0.6 -1.3
v 1.5 0.6 -1.3
v -1.6 0.6 -1.4
v -1.5 0.6 -1.4
v -0.7 0.6 -1.4
v -0.6 0.6 -1.4
v -0.5 0.6 -1.4
v -0.4 0.6 -1.4
v -0.2 0.6 -1.4
v -0.0999999 0.6 -1.4
v 0.1 0.6 -1.4
v 0.2 0.6 -1.4
v 0.4 0.6 -1.4
v 0.6 0.6 -1.4
v 0.8 0.6 -1.4
v 1.4 0.6 -1.4
v 1.5 0.6 -1.4
v 1.6 0.6 -1.4
v 1.8 0.6 -1.4
v 1.9 0.6 -1.4
v -1.7 0.6 -1.5
v -1.5 0.6 -1.5
v -0.5 0.6 -1.5
v -0.4 0.6 -1.5
v -0.3 0.6 -1.5
v -0.2 0.6 -1.5
v 2.38419e-07 0.6 -1.5
v 0.2 0.6 -1.5
v 0.5 0.6 -1.5
v 0.6 0.6 -1.5
v 0.7 0.6 -1.5
v 0.8 0.6 -1.5
v 1.4 0.6 -1.5
v 1.5 0.6 -1.5
v 1.6 0.6 -1.5
v 1.7 0.6 -1.5
v -1.7 0.6 -1.6
v -1.6 0.6 -1.6
v -0.5 0.6 -1.6
v -0.4 0.6 -1.6
v -0.0999999 0.6 -1.6
v 2.38419e-07 0.6 -1.6
v 0.7 0.6 -1.6
v 0.8 0.6 -1.6
v -0.7 0.6 -1.7
v -0.6 0.6 -1.7
v -0.4 0.6 -1.7
v -0.3 0.6 -1.7
v -0.0999999 0.6 -1.7
v 2.38419e-07 0.6 -1.7
v 0.6 0.6 -1.7
v 0.8 0.6 -1.7
v -1.6 0.6 -1.8
v -1.4 0.6 -1.8
v -1.1 0.6 -1.8
v -1 0.6 -1.8
v -0.8 0.6 -1.8
v -0.7 0.6 -1.8
v -0.6 0.6 -1.8
v -0.5 0.6 -1.8
v -0.3 0.6 -1.8
v -0.2 0.6 -1.8
v 2.38419e-07 0.6 -1.8
v 0.1 0.6 -1.8
v 0.6 0.6 -1.8
v 0.7 0.6 -1.8
v -1.3 0.6 -1.9
v -1.1 0.6 -1.9
v -1 0.6 -1.9
v -0.9 0.6 -1.9
v 0.1 0.6 -1.9
v 0.3 0.6 -1.9
v 0.4 0.6 -1.9
v 0.7 0.6 -1.9
v -2 0.6 -2
v -1.4 0.6 -2
v -1.3 0.6 -2
v -0.9 0.6 -2
v -0.8 0.6 -2
v 0.3 0.6 -2
v 0.4 0.6 -2
v 2 0.6 -2
v -0.4 0.7 1.4
v 0.5 0.7 1.4
v -0.5 0.7 1.3
v -0.4 0.7 1.3
v 0.5 0.7 1.3
v 0.6 0.7 1.3
v -0.7 0.7 1.2
v -0.5 0.7 1.2
v 0.6 0.7 1.2
v 0.7 0.7 1.2
v -0.8 0.7 1.1
v -0.7 0.7 1.1
v -0.9 0.7 1
v -0.8 0.7 1
v 0.7 0.7 1
v 0.8 0.7 1
v -1 0.7 0.9
v -0.9 0.7 0.9
v 0.2 0.7 0.8
v 0.5 0.7 0.8
v -1.1 0.7 0.7
v -1 0.7 0.7
v 0.1 0.7 0.7
v 0.2 0.7 0.7
v 0.8 0.7 0.7
v 0.9 0.7 0.7
v -1.2 0.7 0.6
v -1.1 0.7 0.6
v 2.38419e-07 0.7 0.6
v 0.1 0.7 0.6
v 0.5 0.7 0.6
v 0.6 0.7 0.6
v -0.0999999 0.7 0.5
v 2.38419e-07 0.7 0.5
v 0.6 0.7 0.5
v 0.7 0.7 0.5
v -1.3 0.7 0.4
v -1.2 0.7 0.4
v -0.4 0.7 0.4
v -0.0999999 0.7 0.4
v 0.9 0.7 0.4
v 1 0.7 0.4
v 0.6 0.7 0.3
v 0.7 0.7 0.3
v -1.4 0.7 0.2
v -1.3 0.7 0.2
v 0.5 0.7 0.0999999
v 0.6 0.7 0.0999999
v -0.5 0.7 -2.38419e-07
v -0.4 0.7 -2.38419e-07
v -0.6 0.7 -0.1
v -0.5 0.7 -0.1
v 0.4 0.7 -0.1
v 0.5 0.7 -0.1
v -1.4 0.7 -0.2
v -1.2 0.7 -0.2
v -0.7 0.7 -0.2
v -0.6 0.7 -0.2
v 0.9 0.7 -0.2
v 1 0.7 -0.2
v -1.2 0.7 -0.3
v -1.1 0.7 -0.3
v -0.8 0.7 -0.3
v -0.7 0.7 -0.3
v 0.3 0.7 -0.3
v 0.4 0.7 -0.3
v -1.1 0.7 -0.4
v -1 0.7 -0.4
v 0.2 0.7 -0.4
v 0.3 0.7 -0.4
v 0.8 0.7 -0.4
v 0.9 0.7 -0.4
v -0.3 0.7 -0.5
v 0.2 0.7 -0.5
v -0.8 0.7 -0.6
v -0.3 0.7 -0.6
v 0.7 0.7 -0.6
v 0.8 0.7 -0.6
v 0.6 0.7 -0.7
v 0.7 0.7 -0.7
v -0.7 0.7 -0.8
v 0.1 0.7 -0.8
v 0.4 0.7 -0.8
v 0.6 0.7 -0.8
v -1 0.7 -0.9
v -0.7 0.7 -0.9
v 0.1 0.7 -0.9
v 0.4 0.7 -0.9
v 0.2 0.8 0.8
v 0.5 0.8 0.8
v 0.1 0.8 0.7
v 0.2 0.8 0.7
v 2.38419e-07 0.8 0.6
v 0.1 0.8 0.6
v 0.5 0.8 0.6
v 0.6 0.8 0.6
v -0.0999999 0.8 0.5
v 2.38419e-07 0.8 0.5
v 0.6 0.8 0.5
v 0.7 0.8 0.5
v -0.4 0.8 0.4
v -0.0999999 0.8 0.4
v 0.6 0.8 0.3
v 0.7 0.8 0.3
v 0.5 0.8 0.0999999
v 0.6 0.8 0.0999999
v -0.5 0.8 -2.38419e-07
v -0.4 0.8 -2.38419e-07
v -0.6 0.8 -0.1
v -0.5 0.8 -0.1
v 0.4 0.8 -0.1
v 0.5 0.8 -0.1
v -0.7 0.8 -0.2
v -0.6 0.8 -0.2
v -0.8 0.8 -0.3
v -0.7 0.8 -0.3
v 0.3 0.8 -0.3
v 0.4 0.8 -0.3
v 0.2 0.8 -0.4
v 0.3 0.8 -0.4
v -0.3 0.8 -0.5
v 0.2 0.8 -0.5
v -0.8 0.8 -0.6
v -0.3 0.8 -0.6

# faces
f 3/4/1 2/4/1 1/4/1
f 4/4/1 2/4/1 3/4/1
f 5/1/1 4/1/1 3/1/1
f 6/1/1 4/1/1 5/1/1
f 7/3/1 6/3/1 5/3/1
f 8/3/1 6/3/1 7/3/1
f 11/2/1 10/2/1 9/2/1
f 12/2/1 10/2/1 11/2/1
f 15/2/1 14/2/1 13/2/1
f 16/2/1 14/2/1 15/2/1
f 21/2/1 18/2/1 17/2/1
f 22/2/1 18/2/1 21/2/1
f 23/2/1 20/2/1 19/2/1
f 24/2/1 20/2/1 23/2/1
f 29/2/1 26/2/1 25/2/1
f 30/2/1 26/2/1 29/2/1
f 31/2/1 28/2/1 27/2/1
f 32/2/1 28/2/1 31/2/1
f 37/2/1 34/2/1 33/2/1
f 38/2/1 34/2/1 37/2/1
f 39/2/1 36/2/1 35/2/1
f 40/2/1 36/2/1 39/2/1
f 43/2/1 42/2/1 41/2/1
f 44/2/1 42/2/1 43/2/1
f 47/2/1 46/2/1 45/2/1
f 48/2/1 46/2/1 47/2/1
f 51/3/1 50/3/1 49/3/1
f 52/3/1 50/3/1 51/3/1
f 55/2/1 54/2/1 53/2/1
f 56/2/1 54/2/1 55/2/1
f 59/3/1 58/3/1 57/3/1
f 60/3/1 58/3/1 59/3/1
f 63/3/1 62/3/1 61/3/1
f 64/3/1 62/3/1 63/3/1
f 67/2/1 66/2/1 65/2/1
f 68/2/1 66/2/1 67/2/1
f 71/3/1 70/3/1 69/3/1
f 72/3/1 70/3/1 71/3/1
f 75/2/1 74/2/1 73/2/1
f 76/2/1 74/2/1 75/2/1
f 79/3/1 78/3/1 77/3/1
f 80/3/1 78/3/1 79/3/1
f 83/3/1 82/3/1 81/3/1
f 84/3/1 82/3/1 83/3/1
f 87/3/1 86/3/1 85/3/1
f 88/3/1 86/3/1 87/3/1
f 93/2/1 90/2/1 89/2/1
f 94/2/1 90/2/1 93/2/1
f 95/3/1 92/3/1 91/3/1
f 96/3/1 92/3/1 95/3/1
f 99/3/1 98/3/1 97/3/1
f 100/3/1 98/3/1 99/3/1
f 101/2/2 102/2/2 103/2/2
f 103/2/2 102/2/2 104/2/2
f 105/3/2 106/3/2 107/3/2
f 107/3/2 106/3/2 108/3/2
f 109/3/2 110/3/2 111/3/2
f 111/3/2 110/3/2 112/3/2
f 113/3/2 114/3/2 115/3/2
f 115/3/2 114/3/2 116/3/2
f 117/2/2 118/2/2 121/2/2
f 121/2/2 118/2/2 122/2/2
f 119/3/2 120/3/2 123/3/2
f 123/3/2 120/3/2 124/3/2
f 125/2/2 126/2/2 127/2/2
f 127/2/2 126/2/2 128/2/2
f 129/3/2 130/3/2 133/3/2
f 133/3/2 130/3/2 134/3/2
f 131/3/2 132/3/2 135/3/2
f 135/3/2 132/3/2 136/3/2
f 137/2/2 138/2/2 141/2/2
f 141/2/2 138/2/2 142/2/2
f 139/2/2 140/2/2 147/2/2
f 147/2/2 140/2/2 148/2/2
f 143/3/2 144/3/2 149/3/2
f 149/3/2 144/3/2 150/3/2
f 145/3/2 146/3/2 151/3/2
f 151/3/2 146/3/2 152/3/2
f 153/2/2 154/2/2 157/2/2
f 157/2/2 154/2/2 158/2/2
f 155/2/2 156/2/2 161/2/2
f 161/2/2 156/2/2 162/2/2
f 159/3/2 160/3/2 163/3/2
f 163/3/2 160/3/2 164/3/2
f 165/2/2 166/2/2 169/2/2
f 169/2/2 166/2/2 170/2/2
f 167/2/2 168/2/2 171/2/2
f 171/2/2 168/2/2 172/2/2
f 173/2/2 174/2/2 177/2/2
f 177/2/2 174/2/2 178/2/2
f 175/2/2 176/2/2 179/2/2
f 179/2/2 176/2/2 180/2/2
f 181/2/2 182/2/2 183/2/2
f 183/2/2 182/2/2 184/2/2
f 185/4/2 186/4/2 187/4/2
f 187/4/2 186/4/2 188/4/2
f 187/1/2 188/1/2 189/1/2
f 189/1/2 188/1/2 190/1/2
f 190/1/2 188/1/2 191/1/2
f 191/1/2 188/1/2 192/1/2
f 192/1/2 188/1/2 193/1/2
f 193/1/2 188/1/2 194/1/2
f 194/1/2 188/1/2 195/1/2
f 195/1/2 188/1/2 196/1/2
f 196/1/2 188/1/2 197/1/2
f 197/1/2 188/1/2 198/1/2
f 189/3/2 190/3/2 199/3/2
f 190/1/2 191/1/2 200/1/2
f 199/3/2 190/3/2 200/3/2
f 191/3/2 192/3/2 201/3/2
f 200/1/2 191/1/2 201/1/2
f 192/1/2 193/1/2 202/1/2
f 201/3/2 192/3/2 202/3/2
f 193/3/2 194/3/2 203/3/2
f 202/1/2 193/1/2 203/1/2
f 194/1/2 195/1/2 204/1/2
f 203/3/2 194/3/2 204/3/2
f 195/3/2 196/3/2 205/3/2
f 204/1/2 195/1/2 205/1/2
f 196/1/2 197/1/2 206/1/2
f 205/3/2 196/3/2 206/3/2
f 197/3/2 198/3/2 207/3/2
f 206/1/2 197/1/2 207/1/2
f 207/3/2 198/3/2 208/3/2
f 213/1/3 211/1/3 210/1/3
f 213/3/3 212/3/3 211/3/3
f 214/3/3 212/3/3 213/3/3
f 215/1/3 213/1/3 210/1/3
f 215/1/3 214/1/3 213/1/3
f 216/1/3 214/1/3 215/1/3
f 217/1/3 215/1/3 210/1/3
f 217/3/3 216/3/3 215/3/3
f 218/3/3 216/3/3 217/3/3
f 219/1/3 217/1/3 210/1/3
f 219/1/3 218/1/3 217/1/3
f 220/1/3 218/1/3 219/1/3
f 221/1/3 219/1/3 210/1/3
f 221/3/3 220/3/3 219/3/3
f 222/3/3 220/3/3 221/3/3
f 223/1/3 221/1/3 210/1/3
f 223/1/3 222/1/3 221/1/3
f 224/1/3 222/1/3 223/1/3
f 225/4/3 210/4/3 209/4/3
f 226/1/3 223/1/3 210/1/3
f 226/4/3 210/4/3 225/4/3
f 227/3/3 224/3/3 223/3/3
f 227/1/3 223/1/3 226/1/3
f 228/3/3 224/3/3 227/3/3
f 231/2/3 230/2/3 229/2/3
f 232/2/3 230/2/3 231/2/3
f 233/2/3 230/2/3 232/2/3
f 234/2/3 230/2/3 233/2/3
f 237/2/3 236/2/3 235/2/3
f 238/2/3 236/2/3 237/2/3
f 241/2/3 240/2/3 239/2/3
f 242/2/3 240/2/3 241/2/3
f 245/2/3 244/2/3 243/2/3
f 246/2/3 244/2/3 245/2/3
f 249/2/3 248/2/3 247/2/3
f 250/2/3 248/2/3 249/2/3
f 253/2/3 252/2/3 251/2/3
f 254/2/3 252/2/3 253/2/3
f 257/2/3 256/2/3 255/2/3
f 258/2/3 256/2/3 257/2/3
f 261/2/3 260/2/3 259/2/3
f 262/2/3 260/2/3 261/2/3
f 265/2/3 264/2/3 263/2/3
f 266/2/3 264/2/3 265/2/3
f 269/3/3 268/3/3 267/3/3
f 270/3/3 268/3/3 269/3/3
f 273/2/3 272/2/3 271/2/3
f 274/2/3 272/2/3 273/2/3
f 277/3/3 276/3/3 275/3/3
f 278/3/3 276/3/3 277/3/3
f 281/2/3 280/2/3 279/2/3
f 282/2/3 280/2/3 281/2/3
f 285/2/3 284/2/3 283/2/3
f 286/2/3 284/2/3 285/2/3
f 289/3/3 288/3/3 287/3/3
f 290/3/3 288/3/3 289/3/3
f 293/3/3 292/3/3 291/3/3
f 294/3/3 292/3/3 293/3/3
f 297/3/3 296/3/3 295/3/3
f 298/3/3 296/3/3 297/3/3
f 301/3/3 300/3/3 299/3/3
f 302/3/3 300/3/3 301/3/3
f 305/2/3 304/2/3 303/2/3
f 306/2/3 304/2/3 305/2/3
f 309/3/3 308/3/3 307/3/3
f 310/3/3 308/3/3 309/3/3
f 313/2/3 312/2/3 311/2/3
f 314/2/3 312/2/3 313/2/3
f 317/2/3 316/2/3 315/2/3
f 318/2/3 316/2/3 317/2/3
f 321/3/3 320/3/3 319/3/3
f 322/3/3 320/3/3 321/3/3
f 325/3/3 324/3/3 323/3/3
f 326/3/3 324/3/3 325/3/3
f 329/3/3 328/3/3 327/3/3
f 330/3/3 328/3/3 329/3/3
f 333/3/3 332/3/3 331/3/3
f 334/3/3 332/3/3 333/3/3
f 335/3/4 336/3/4 337/3/4
f 337/3/4 336/3/4 338/3/4
f 339/3/4 340/3/4 341/3/4
f 341/3/4 340/3/4 342/3/4
f 343/3/4 344/3/4 345/3/4
f 345/3/4 344/3/4 346/3/4
f 347/2/4 348/2/4 349/2/4
f 349/2/4 348/2/4 350/2/4
f 351/2/4 352/2/4 353/2/4
f 353/2/4 352/2/4 354/2/4
f 355/2/4 356/2/4 357/2/4
f 357/2/4 356/2/4 358/2/4
f 359/3/4 360/3/4 361/3/4
f 361/3/4 360/3/4 362/3/4
f 363/2/4 364/2/4 365/2/4
f 365/2/4 364/2/4 366/2/4
f 367/3/4 368/3/4 369/3/4
f 369/3/4 368/3/4 370/3/4
f 371/2/4 372/2/4 373/2/4
f 373/2/4 372/2/4 374/2/4
f 375/3/4 376/3/4 377/3/4
f 377/3/4 376/3/4 378/3/4
f 379/3/4 380/3/4 381/3/4
f 381/3/4 380/3/4 382/3/4
f 383/2/4 384/2/4 385/2/4
f 385/2/4 384/2/4 386/2/4
f 387/2/4 388/2/4 389/2/4
f 389/2/4 388/2/4 390/2/4
f 391/2/4 392/2/4 393/2/4
f 393/2/4 392/2/4 394/2/4
f 395/2/4 396/2/4 397/2/4
f 397/2/4 396/2/4 398/2/4
f 399/2/4 400/2/4 401/2/4
f 401/2/4 400/2/4 402/2/4
f 403/2/4 404/2/4 405/2/4
f 405/2/4 404/2/4 406/2/4
f 408/1/4 409/1/4 411/1/4
f 409/3/4 410/3/4 411/3/4
f 411/3/4 410/3/4 412/3/4
f 408/1/4 411/1/4 413/1/4
f 411/1/4 412/1/4 413/1/4
f 413/1/4 412/1/4 414/1/4
f 408/1/4 413/1/4 415/1/4
f 413/3/4 414/3/4 415/3/4
f 415/3/4 414/3/4 416/3/4
f 408/1/4 415/1/4 417/1/4
f 415/1/4 416/1/4 417/1/4
f 417/1/4 416/1/4 418/1/4
f 408/1/4 417/1/4 419/1/4
f 417/3/4 418/3/4 419/3/4
f 419/3/4 418/3/4 420/3/4
f 408/1/4 419/1/4 421/1/4
f 419/1/4 420/1/4 421/1/4
f 421/1/4 420/1/4 422/1/4
f 407/4/4 408/4/4 423/4/4
f 408/1/4 421/1/4 424/1/4
f 423/4/4 408/4/4 424/4/4
f 421/3/4 422/3/4 425/3/4
f 424/1/4 421/1/4 425/1/4
f 425/3/4 422/3/4 426/3/4
f 429/4/5 428/4/5 427/4/5
f 430/4/5 428/4/5 429/4/5
f 431/3/6 432/3/6 439/3/6
f 432/1/6 433/1/6 440/1/6
f 439/3/6 432/3/6 440/3/6
f 433/3/6 434/3/6 441/3/6
f 440/1/6 433/1/6 441/1/6
f 434/1/6 435/1/6 442/1/6
f 441/3/6 434/3/6 442/3/6
f 435/3/6 436/3/6 443/3/6
f 443/3/6 436/3/6 444/3/6
f 437/3/6 438/3/6 445/3/6
f 436/1/6 437/1/6 445/1/6
f 445/3/6 438/3/6 446/3/6
f 431/3/6 439/3/6 447/3/6
f 447/3/6 439/3/6 448/3/6
f 448/3/6 439/3/6 449/3/6
f 449/3/6 439/3/6 450/3/6
f 450/3/6 439/3/6 451/3/6
f 451/3/6 439/3/6 452/3/6
f 439/1/6 440/1/6 453/1/6
f 452/3/6 439/3/6 453/3/6
f 440/1/6 441/1/6 453/1/6
f 441/1/6 442/1/6 453/1/6
f 453/1/6 442/1/6 454/1/6
f 442/1/6 435/1/6 455/1/6
f 454/1/6 442/1/6 455/1/6
f 435/3/6 443/3/6 455/3/6
f 443/1/6 444/1/6 456/1/6
f 455/3/6 443/3/6 456/3/6
f 444/3/6 436/3/6 457/3/6
f 456/1/6 444/1/6 457/1/6
f 457/3/6 436/3/6 458/3/6
f 436/1/6 445/1/6 459/1/6
f 458/3/6 436/3/6 459/3/6
f 445/1/6 446/1/6 459/1/6
f 446/3/6 438/3/6 460/3/6
f 459/1/6 446/1/6 460/1/6
f 460/3/6 438/3/6 461/3/6
f 431/3/6 447/3/6 462/3/6
f 447/1/6 448/1/6 463/1/6
f 462/3/6 447/3/6 463/3/6
f 448/3/6 449/3/6 464/3/6
f 463/1/6 448/1/6 464/1/6
f 449/1/6 450/1/6 465/1/6
f 464/3/6 449/3/6 465/3/6
f 451/1/6 452/1/6 466/1/6
f 450/3/6 451/3/6 466/3/6
f 453/3/6 454/3/6 467/3/6
f 466/1/6 452/1/6 467/1/6
f 452/3/6 453/3/6 467/3/6
f 467/3/6 454/3/6 468/3/6
f 455/1/6 456/1/6 469/1/6
f 468/3/6 454/3/6 469/3/6
f 454/1/6 455/1/6 469/1/6
f 457/3/6 458/3/6 470/3/6
f 456/3/6 457/3/6 470/3/6
f 458/1/6 459/1/6 471/1/6
f 470/3/6 458/3/6 471/3/6
f 460/1/6 461/1/6 471/1/6
f 459/1/6 460/1/6 471/1/6
f 471/1/6 461/1/6 472/1/6
f 461/3/6 438/3/6 473/3/6
f 472/1/6 461/1/6 473/1/6
f 464/1/6 465/1/6 474/1/6
f 463/1/6 464/1/6 474/1/6
f 462/1/6 463/1/6 474/1/6
f 431/3/6 462/3/6 474/3/6
f 474/1/6 465/1/6 475/1/6
f 467/3/6 468/3/6 476/3/6
f 475/1/6 465/1/6 476/1/6
f 465/1/6 450/1/6 476/1/6
f 450/3/6 466/3/6 476/3/6
f 466/3/6 467/3/6 476/3/6
f 476/3/6 468/3/6 477/3/6
f 468/1/6 469/1/6 478/1/6
f 477/3/6 468/3/6 478/3/6
f 469/1/6 456/1/6 479/1/6
f 478/1/6 469/1/6 479/1/6
f 479/1/6 456/1/6 480/1/6
f 480/1/6 456/1/6 481/1/6
f 481/1/6 456/1/6 482/1/6
f 482/1/6 456/1/6 483/1/6
f 456/3/6 470/3/6 484/3/6
f 483/1/6 456/1/6 484/1/6
f 484/3/6 470/3/6 485/3/6
f 471/1/6 472/1/6 486/1/6
f 485/3/6 470/3/6 486/3/6
f 470/1/6 471/1/6 486/1/6
f 486/1/6 472/1/6 487/1/6
f 487/1/6 472/1/6 488/1/6
f 472/3/6 473/3/6 489/3/6
f 488/1/6 472/1/6 489/1/6
f 473/3/6 438/3/6 490/3/6
f 489/3/6 473/3/6 490/3/6
f 490/3/6 438/3/6 491/3/6
f 491/3/6 438/3/6 492/3/6
f 492/3/6 438/3/6 493/3/6
f 474/3/6 475/3/6 494/3/6
f 431/3/6 474/3/6 494/3/6
f 476/1/6 477/1/6 495/1/6
f 494/3/6 475/3/6 495/3/6
f 475/1/6 476/1/6 495/1/6
f 495/1/6 477/1/6 496/1/6
f 496/1/6 477/1/6 497/1/6
f 477/3/6 478/3/6 498/3/6
f 497/1/6 477/1/6 498/1/6
f 478/3/6 479/3/6 498/3/6
f 479/1/6 480/1/6 499/1/6
f 498/3/6 479/3/6 499/3/6
f 480/3/6 481/3/6 500/3/6
f 499/1/6 480/1/6 500/1/6
f 500/3/6 481/3/6 501/3/6
f 481/1/6 482/1/6 502/1/6
f 501/3/6 481/3/6 502/3/6
f 482/3/6 483/3/6 503/3/6
f 502/1/6 482/1/6 503/1/6
f 484/1/6 485/1/6 504/1/6
f 503/3/6 483/3/6 504/3/6
f 483/1/6 484/1/6 504/1/6
f 485/3/6 486/3/6 505/3/6
f 504/1/6 485/1/6 505/1/6
f 486/3/6 487/3/6 505/3/6
f 505/3/6 487/3/6 506/3/6
f 487/1/6 488/1/6 507/1/6
f 506/3/6 487/3/6 507/3/6
f 488/3/6 489/3/6 508/3/6
f 507/1/6 488/1/6 508/1/6
f 489/3/6 490/3/6 508/3/6
f 508/3/6 490/3/6 509/3/6
f 509/3/6 490/3/6 510/3/6
f 510/3/6 490/3/6 511/3/6
f 511/3/6 490/3/6 512/3/6
f 490/1/6 491/1/6 513/1/6
f 512/3/6 490/3/6 513/3/6
f 491/3/6 492/3/6 514/3/6
f 513/1/6 491/1/6 514/1/6
f 492/1/6 493/1/6 515/1/6
f 514/3/6 492/3/6 515/3/6
f 493/3/6 438/3/6 516/3/6
f 515/1/6 493/1/6 516/1/6
f 431/3/6 494/3/6 517/3/6
f 494/1/6 495/1/6 517/1/6
f 495/3/6 496/3/6 518/3/6
f 517/1/6 495/1/6 518/1/6
f 518/3/6 496/3/6 519/3/6
f 496/1/6 497/1/6 520/1/6
f 519/3/6 496/3/6 520/3/6
f 499/3/6 500/3/6 521/3/6
f 520/1/6 497/1/6 521/1/6
f 497/3/6 498/3/6 521/3/6
f 498/3/6 499/3/6 521/3/6
f 500/3/6 501/3/6 521/3/6
f 521/3/6 501/3/6 522/3/6
f 501/1/6 502/1/6 523/1/6
f 522/3/6 501/3/6 523/3/6
f 502/3/6 503/3/6 524/3/6
f 523/1/6 502/1/6 524/1/6
f 505/3/6 506/3/6 524/3/6
f 503/3/6 504/3/6 524/3/6
f 504/3/6 505/3/6 524/3/6
f 524/3/6 506/3/6 525/3/6
f 506/1/6 507/1/6 526/1/6
f 525/3/6 506/3/6 526/3/6
f 508/1/6 509/1/6 526/1/6
f 507/1/6 508/1/6 526/1/6
f 526/1/6 509/1/6 527/1/6
f 527/1/6 509/1/6 528/1/6
f 509/3/6 510/3/6 529/3/6
f 528/1/6 509/1/6 529/1/6
f 510/1/6 511/1/6 530/1/6
f 529/3/6 510/3/6 530/3/6
f 511/3/6 512/3/6 531/3/6
f 530/1/6 511/1/6 531/1/6
f 514/1/6 515/1/6 532/1/6
f 531/3/6 512/3/6 532/3/6
f 513/1/6 514/1/6 532/1/6
f 512/1/6 513/1/6 532/1/6
f 515/3/6 516/3/6 533/3/6
f 532/1/6 515/1/6 533/1/6
f 516/3/6 438/3/6 534/3/6
f 533/3/6 516/3/6 534/3/6
f 521/3/6 522/3/6 535/3/6
f 520/3/6 521/3/6 535/3/6
f 535/3/6 522/3/6 536/3/6
f 526/3/6 527/3/6 537/3/6
f 525/3/6 526/3/6 537/3/6
f 537/3/6 527/3/6 538/3/6
f 527/1/6 528/1/6 539/1/6
f 538/3/6 527/3/6 539/3/6
f 530/3/6 531/3/6 540/3/6
f 539/1/6 528/1/6 540/1/6
f 529/3/6 530/3/6 540/3/6
f 528/3/6 529/3/6 540/3/6
f 540/3/6 531/3/6 541/3/6
f 533/1/6 534/1/6 542/1/6
f 541/3/6 531/3/6 542/3/6
f 532/1/6 533/1/6 542/1/6
f 531/1/6 532/1/6 542/1/6
f 519/1/6 520/1/6 543/1/6
f 517/3/6 518/3/6 543/3/6
f 518/3/6 519/3/6 543/3/6
f 520/3/6 535/3/6 544/3/6
f 543/1/6 520/1/6 544/1/6
f 544/3/6 535/3/6 545/3/6
f 545/3/6 535/3/6 546/3/6
f 538/3/6 539/3/6 547/3/6
f 540/3/6 541/3/6 547/3/6
f 539/3/6 540/3/6 547/3/6
f 547/3/6 541/3/6 548/3/6
f 541/1/6 542/1/6 549/1/6
f 542/1/6 534/1/6 550/1/6
f 549/1/6 542/1/6 550/1/6
f 534/3/6 438/3/6 551/3/6
f 550/1/6 534/1/6 551/1/6
f 551/3/6 438/3/6 552/3/6
f 544/3/6 545/3/6 553/3/6
f 543/3/6 544/3/6 553/3/6
f 517/3/6 543/3/6 553/3/6
f 553/3/6 545/3/6 554/3/6
f 554/3/6 545/3/6 555/3/6
f 555/3/6 545/3/6 556/3/6
f 541/1/6 549/1/6 557/1/6
f 548/3/6 541/3/6 557/3/6
f 549/3/6 550/3/6 558/3/6
f 557/1/6 549/1/6 558/1/6
f 551/1/6 552/1/6 559/1/6
f 558/3/6 550/3/6 559/3/6
f 550/1/6 551/1/6 559/1/6
f 431/3/6 517/3/6 560/3/6
f 517/3/6 553/3/6 560/3/6
f 553/1/6 554/1/6 561/1/6
f 560/3/6 553/3/6 561/3/6
f 554/3/6 555/3/6 562/3/6
f 561/1/6 554/1/6 562/1/6
f 562/3/6 555/3/6 563/3/6
f 563/3/6 555/3/6 564/3/6
f 564/3/6 555/3/6 565/3/6
f 548/3/6 557/3/6 566/3/6
f 557/3/6 558/3/6 566/3/6
f 566/3/6 558/3/6 567/3/6
f 567/3/6 558/3/6 568/3/6
f 558/1/6 559/1/6 569/1/6
f 568/3/6 558/3/6 569/3/6
f 431/3/6 560/3/6 570/3/6
f 560/1/6 561/1/6 570/1/6
f 561/1/6 562/1/6 570/1/6
f 562/1/6 563/1/6 570/1/6
f 570/1/6 563/1/6 571/1/6
f 571/1/6 563/1/6 572/1/6
f 563/3/6 564/3/6 573/3/6
f 572/1/6 563/1/6 573/1/6
f 573/3/6 564/3/6 574/3/6
f 574/3/6 564/3/6 575/3/6
f 431/3/6 570/3/6 576/3/6
f 570/3/6 571/3/6 576/3/6
f 571/1/6 572/1/6 577/1/6
f 576/3/6 571/3/6 577/3/6
f 568/1/6 569/1/6 578/1/6
f 567/3/6 568/3/6 578/3/6
f 569/1/6 559/1/6 579/1/6
f 578/1/6 569/1/6 579/1/6
f 559/1/6 552/1/6 580/1/6
f 579/1/6 559/1/6 580/1/6
f 580/1/6 552/1/6 581/1/6
f 572/3/6 573/3/6 582/3/6
f 573/3/6 574/3/6 582/3/6
f 582/3/6 574/3/6 583/3/6
f 567/3/6 578/3/6 584/3/6
f 578/3/6 579/3/6 584/3/6
f 584/3/6 579/3/6 585/3/6
f 579/1/6 580/1/6 586/1/6
f 585/3/6 579/3/6 586/3/6
f 586/1/6 580/1/6 587/1/6
f 431/3/6 576/3/6 588/3/6
f 576/1/6 577/1/6 588/1/6
f 572/3/6 582/3/6 589/3/6
f 588/1/6 577/1/6 589/1/6
f 577/1/6 572/1/6 589/1/6
f 589/3/6 582/3/6 590/3/6
f 590/3/6 582/3/6 591/3/6
f 587/1/6 580/1/6 592/1/6
f 586/3/6 587/3/6 592/3/6
f 585/3/6 586/3/6 592/3/6
f 592/1/6 580/1/6 593/1/6
f 593/1/6 580/1/6 594/1/6
f 594/1/6 580/1/6 595/1/6
f 595/1/6 580/1/6 596/1/6
f 580/3/6 581/3/6 597/3/6
f 596/1/6 580/1/6 597/1/6
f 431/3/6 588/3/6 598/3/6
f 589/3/6 590/3/6 598/3/6
f 588/3/6 589/3/6 598/3/6
f 598/3/6 590/3/6 599/3/6
f 593/1/6 594/1/6 600/1/6
f 592/3/6 593/3/6 600/3/6
f 594/3/6 595/3/6 601/3/6
f 600/1/6 594/1/6 601/1/6
f 595/1/6 596/1/6 602/1/6
f 601/3/6 595/3/6 602/3/6
f 596/3/6 597/3/6 603/3/6
f 602/1/6 596/1/6 603/1/6
f 431/3/6 598/3/6 604/3/6
f 604/3/6 598/3/6 605/3/6
f 599/3/6 590/3/6 606/3/6
f 606/3/6 590/3/6 607/3/6
f 601/3/6 602/3/6 608/3/6
f 592/3/6 600/3/6 608/3/6
f 600/3/6 601/3/6 608/3/6
f 585/3/6 592/3/6 608/3/6
f 602/3/6 603/3/6 608/3/6
f 608/3/6 603/3/6 609/3/6
f 609/3/6 603/3/6 610/3/6
f 603/3/6 597/3/6 611/3/6
f 610/3/6 603/3/6 611/3/6
f 604/1/6 605/1/6 612/1/6
f 431/3/6 604/3/6 612/3/6
f 605/3/6 598/3/6 613/3/6
f 612/1/6 605/1/6 613/1/6
f 598/1/6 599/1/6 614/1/6
f 613/3/6 598/3/6 614/3/6
f 599/3/6 606/3/6 615/3/6
f 614/1/6 599/1/6 615/1/6
f 610/1/6 611/1/6 616/1/6
f 609/3/6 610/3/6 616/3/6
f 611/3/6 597/3/6 617/3/6
f 616/1/6 611/1/6 617/1/6
f 613/3/6 614/3/6 618/3/6
f 612/3/6 613/3/6 618/3/6
f 614/3/6 615/3/6 618/3/6
f 618/3/6 615/3/6 619/3/6
f 615/3/6 606/3/6 620/3/6
f 619/3/6 615/3/6 620/3/6
f 620/3/6 606/3/6 621/3/6
f 618/1/6 619/1/6 622/1/6
f 612/3/6 618/3/6 622/3/6
f 619/3/6 620/3/6 623/3/6
f 622/1/6 619/1/6 623/1/6
f 612/3/6 622/3/6 624/3/6
f 622/3/6 623/3/6 624/3/6
f 624/3/6 623/3/6 625/3/6
f 623/3/6 620/3/6 626/3/6
f 625/3/6 623/3/6 626/3/6
f 626/3/6 620/3/6 627/3/6
f 627/3/6 620/3/6 628/3/6
f 609/3/6 616/3/6 631/3/6
f 616/3/6 617/3/6 631/3/6
f 631/3/6 617/3/6 632/3/6
f 632/3/6 617/3/6 633/3/6
f 633/3/6 617/3/6 634/3/6
f 634/3/6 617/3/6 635/3/6
f 617/3/6 597/3/6 636/3/6
f 635/3/6 617/3/6 636/3/6
f 597/3/6 581/3/6 637/3/6
f 636/3/6 597/3/6 637/3/6
f 431/3/6 612/3/6 638/3/6
f 612/3/6 624/3/6 638/3/6
f 624/1/6 625/1/6 639/1/6
f 638/3/6 624/3/6 639/3/6
f 625/3/6 626/3/6 640/3/6
f 639/1/6 625/1/6 640/1/6
f 626/1/6 627/1/6 641/1/6
f 640/3/6 626/3/6 641/3/6
f 628/3/6 629/3/6 642/3/6
f 627/3/6 628/3/6 642/3/6
f 642/3/6 629/3/6 643/3/6
f 635/3/6 636/3/6 645/3/6
f 634/1/6 635/1/6 645/1/6
f 636/1/6 637/1/6 646/1/6
f 645/3/6 636/3/6 646/3/6
f 640/1/6 641/1/6 647/1/6
f 639/1/6 640/1/6 647/1/6
f 431/3/6 638/3/6 647/3/6
f 638/1/6 639/1/6 647/1/6
f 647/1/6 641/1/6 648/1/6
f 648/1/6 641/1/6 649/1/6
f 641/1/6 627/1/6 650/1/6
f 649/1/6 641/1/6 650/1/6
f 627/3/6 642/3/6 651/3/6
f 650/1/6 627/1/6 651/1/6
f 642/1/6 643/1/6 652/1/6
f 651/3/6 642/3/6 652/3/6
f 643/3/6 644/3/6 653/3/6
f 630/3/6 631/3/6 656/3/6
f 631/3/6 632/3/6 656/3/6
f 632/1/6 633/1/6 657/1/6
f 656/3/6 632/3/6 657/3/6
f 633/3/6 634/3/6 658/3/6
f 657/1/6 633/1/6 658/1/6
f 637/3/6 581/3/6 659/3/6
f 646/1/6 637/1/6 659/1/6
f 645/1/6 646/1/6 659/1/6
f 659/3/6 581/3/6 660/3/6
f 431/3/6 647/3/6 661/3/6
f 647/3/6 648/3/6 661/3/6
f 648/1/6 649/1/6 662/1/6
f 661/3/6 648/3/6 662/3/6
f 652/1/6 643/1/6 663/1/6
f 650/1/6 651/1/6 663/1/6
f 651/1/6 652/1/6 663/1/6
f 653/3/6 654/3/6 664/3/6
f 663/1/6 643/1/6 664/1/6
f 643/3/6 653/3/6 664/3/6
f 657/3/6 658/3/6 665/3/6
f 656/3/6 657/3/6 665/3/6
f 655/3/6 656/3/6 665/3/6
f 658/3/6 634/3/6 666/3/6
f 665/3/6 658/3/6 666/3/6
f 634/1/6 645/1/6 666/1/6
f 645/1/6 659/1/6 666/1/6
f 659/1/6 660/1/6 666/1/6
f 666/1/6 660/1/6 667/1/6
f 667/1/6 660/1/6 668/1/6
f 431/3/6 661/3/6 669/3/6
f 661/1/6 662/1/6 669/1/6
f 662/1/6 649/1/6 670/1/6
f 669/1/6 662/1/6 670/1/6
f 649/3/6 650/3/6 670/3/6
f 650/1/6 663/1/6 671/1/6
f 670/3/6 650/3/6 671/3/6
f 671/1/6 663/1/6 672/1/6
f 663/3/6 664/3/6 673/3/6
f 672/1/6 663/1/6 673/1/6
f 664/3/6 654/3/6 674/3/6
f 673/3/6 664/3/6 674/3/6
f 655/3/6 665/3/6 676/3/6
f 676/3/6 665/3/6 677/3/6
f 666/1/6 667/1/6 678/1/6
f 677/3/6 665/3/6 678/3/6
f 665/1/6 666/1/6 678/1/6
f 667/3/6 668/3/6 679/3/6
f 678/1/6 667/1/6 679/1/6
f 679/3/6 668/3/6 680/3/6
f 671/1/6 672/1/6 681/1/6
f 669/3/6 670/3/6 681/3/6
f 670/1/6 671/1/6 681/1/6
f 681/1/6 672/1/6 682/1/6
f 672/3/6 673/3/6 683/3/6
f 673/1/6 674/1/6 683/1/6
f 674/3/6 654/3/6 684/3/6
f 683/1/6 674/1/6 684/1/6
f 676/3/6 677/3/6 686/3/6
f 675/3/6 676/3/6 686/3/6
f 677/1/6 678/1/6 687/1/6
f 679/1/6 680/1/6 687/1/6
f 686/3/6 677/3/6 687/3/6
f 678/1/6 679/1/6 687/1/6
f 687/1/6 680/1/6 688/1/6
f 669/3/6 681/3/6 689/3/6
f 681/3/6 682/3/6 689/3/6
f 682/1/6 672/1/6 690/1/6
f 689/3/6 682/3/6 690/3/6
f 672/3/6 683/3/6 691/3/6
f 690/1/6 672/1/6 691/1/6
f 683/3/6 684/3/6 691/3/6
f 691/3/6 684/3/6 692/3/6
f 685/3/6 686/3/6 696/3/6
f 686/3/6 687/3/6 696/3/6
f 687/3/6 688/3/6 696/3/6
f 696/3/6 688/3/6 697/3/6
f 688/1/6 680/1/6 698/1/6
f 697/3/6 688/3/6 698/3/6
f 689/1/6 690/1/6 699/1/6
f 669/3/6 689/3/6 699/3/6
f 691/1/6 692/1/6 699/1/6
f 690/1/6 691/1/6 699/1/6
f 692/3/6 684/3/6 700/3/6
f 699/1/6 692/1/6 700/1/6
f 684/3/6 654/3/6 701/3/6
f 700/3/6 684/3/6 701/3/6
f 693/3/6 694/3/6 702/3/6
f 702/3/6 694/3/6 703/3/6
f 703/3/6 694/3/6 704/3/6
f 704/3/6 694/3/6 705/3/6
f 696/3/6 697/3/6 706/3/6
f 695/3/6 696/3/6 706/3/6
f 698/1/6 680/1/6 707/1/6
f 697/1/6 698/1/6 707/1/6
f 707/1/6 680/1/6 708/1/6
f 700/3/6 701/3/6 709/3/6
f 699/3/6 700/3/6 709/3/6
f 701/3/6 702/3/6 709/3/6
f 702/3/6 703/3/6 709/3/6
f 709/3/6 703/3/6 710/3/6
f 710/3/6 703/3/6 711/3/6
f 703/1/6 704/1/6 712/1/6
f 711/3/6 703/3/6 712/3/6
f 707/3/6 708/3/6 713/3/6
f 697/1/6 707/1/6 713/1/6
f 713/3/6 708/3/6 714/3/6
f 699/3/6 709/3/6 715/3/6
f 709/1/6 710/1/6 716/1/6
f 715/3/6 709/3/6 716/3/6
f 710/3/6 711/3/6 717/3/6
f 716/1/6 710/1/6 717/1/6
f 717/3/6 711/3/6 718/3/6
f 711/1/6 712/1/6 719/1/6
f 718/3/6 711/3/6 719/3/6
f 712/1/6 704/1/6 720/1/6
f 719/1/6 712/1/6 720/1/6
f 705/3/6 706/3/6 721/3/6
f 720/1/6 704/1/6 721/1/6
f 704/3/6 705/3/6 721/3/6
f 721/3/6 706/3/6 722/3/6
f 706/3/6 697/3/6 723/3/6
f 722/3/6 706/3/6 723/3/6
f 697/1/6 713/1/6 723/1/6
f 713/1/6 714/1/6 723/1/6
f 723/1/6 714/1/6 724/1/6
f 699/3/6 715/3/6 725/3/6
f 725/3/6 715/3/6 726/3/6
f 726/3/6 715/3/6 727/3/6
f 716/1/6 717/1/6 728/1/6
f 727/3/6 715/3/6 728/3/6
f 715/1/6 716/1/6 728/1/6
f 717/1/6 718/1/6 728/1/6
f 719/3/6 720/3/6 729/3/6
f 728/1/6 718/1/6 729/1/6
f 718/3/6 719/3/6 729/3/6
f 721/1/6 722/1/6 730/1/6
f 729/3/6 720/3/6 730/3/6
f 720/1/6 721/1/6 730/1/6
f 723/3/6 724/3/6 731/3/6
f 730/1/6 722/1/6 731/1/6
f 722/3/6 723/3/6 731/3/6
f 731/3/6 724/3/6 732/3/6
f 732/3/6 724/3/6 733/3/6
f 733/3/6 724/3/6 734/3/6
f 734/3/6 724/3/6 735/3/6
f 724/1/6 714/1/6 736/1/6
f 735/3/6 724/3/6 736/3/6
f 736/1/6 714/1/6 737/1/6
f 737/1/6 714/1/6 738/1/6
f 738/1/6 714/1/6 739/1/6
f 739/1/6 714/1/6 740/1/6
f 699/3/6 725/3/6 741/3/6
f 725/1/6 726/1/6 742/1/6
f 741/3/6 725/3/6 742/3/6
f 726/3/6 727/3/6 743/3/6
f 742/1/6 726/1/6 743/1/6
f 727/1/6 728/1/6 744/1/6
f 743/3/6 727/3/6 744/3/6
f 728/1/6 729/1/6 744/1/6
f 729/1/6 730/1/6 744/1/6
f 730/1/6 731/1/6 744/1/6
f 731/1/6 732/1/6 744/1/6
f 744/1/6 732/1/6 745/1/6
f 745/1/6 732/1/6 746/1/6
f 746/1/6 732/1/6 747/1/6
f 732/3/6 733/3/6 748/3/6
f 747/1/6 732/1/6 748/1/6
f 748/3/6 733/3/6 749/3/6
f 749/3/6 733/3/6 750/3/6
f 750/3/6 733/3/6 751/3/6
f 734/3/6 735/3/6 752/3/6
f 736/1/6 737/1/6 752/1/6
f 735/1/6 736/1/6 752/1/6
f 752/1/6 737/1/6 753/1/6
f 742/1/6 743/1/6 754/1/6
f 741/1/6 742/1/6 754/1/6
f 699/3/6 741/3/6 754/3/6
f 743/1/6 744/1/6 754/1/6
f 744/1/6 745/1/6 754/1/6
f 754/1/6 745/1/6 755/1/6
f 745/3/6 746/3/6 756/3/6
f 755/1/6 745/1/6 756/1/6
f 746/1/6 747/1/6 757/1/6
f 756/3/6 746/3/6 757/3/6
f 757/1/6 747/1/6 758/1/6
f 758/1/6 747/1/6 759/1/6
f 748/1/6 749/1/6 760/1/6
f 747/3/6 748/3/6 760/3/6
f 749/3/6 750/3/6 761/3/6
f 760/1/6 749/1/6 761/1/6
f 750/1/6 751/1/6 762/1/6
f 761/3/6 750/3/6 762/3/6
f 751/3/6 733/3/6 763/3/6
f 762/1/6 751/1/6 763/1/6
f 733/1/6 734/1/6 764/1/6
f 763/3/6 733/3/6 764/3/6
f 752/3/6 753/3/6 765/3/6
f 734/3/6 752/3/6 765/3/6
f 765/3/6 753/3/6 766/3/6
f 766/3/6 753/3/6 767/3/6
f 753/1/6 737/1/6 768/1/6
f 767/3/6 753/3/6 768/3/6
f 768/1/6 737/1/6 769/1/6
f 738/1/6 739/1/6 770/1/6
f 737/3/6 738/3/6 770/3/6
f 739/3/6 740/3/6 771/3/6
f 770/1/6 739/1/6 771/1/6
f 669/3/6 699/3/6 772/3/6
f 754/3/6 755/3/6 772/3/6
f 699/3/6 754/3/6 772/3/6
f 755/1/6 756/1/6 773/1/6
f 772/3/6 755/3/6 773/3/6
f 756/1/6 757/1/6 773/1/6
f 757/1/6 758/1/6 773/1/6
f 758/3/6 759/3/6 774/3/6
f 773/1/6 758/1/6 774/1/6
f 759/1/6 747/1/6 775/1/6
f 774/3/6 759/3/6 775/3/6
f 761/3/6 762/3/6 776/3/6
f 775/1/6 747/1/6 776/1/6
f 760/3/6 761/3/6 776/3/6
f 762/3/6 763/3/6 776/3/6
f 747/3/6 760/3/6 776/3/6
f 776/3/6 763/3/6 777/3/6
f 777/3/6 763/3/6 778/3/6
f 763/1/6 764/1/6 779/1/6
f 778/3/6 763/3/6 779/3/6
f 764/1/6 734/1/6 780/1/6
f 779/1/6 764/1/6 780/1/6
f 734/3/6 765/3/6 780/3/6
f 765/1/6 766/1/6 781/1/6
f 780/3/6 765/3/6 781/3/6
f 781/1/6 766/1/6 782/1/6
f 766/3/6 767/3/6 783/3/6
f 782/1/6 766/1/6 783/1/6
f 767/1/6 768/1/6 784/1/6
f 783/3/6 767/3/6 784/3/6
f 768/3/6 769/3/6 785/3/6
f 784/1/6 768/1/6 785/1/6
f 769/1/6 737/1/6 786/1/6
f 785/3/6 769/3/6 786/3/6
f 737/3/6 770/3/6 787/3/6
f 786/1/6 737/1/6 787/1/6
f 770/3/6 771/3/6 787/3/6
f 774/1/6 775/1/6 788/1/6
f 776/1/6 777/1/6 788/1/6
f 669/3/6 772/3/6 788/3/6
f 775/1/6 776/1/6 788/1/6
f 773/1/6 774/1/6 788/1/6
f 772/1/6 773/1/6 788/1/6
f 788/1/6 777/1/6 789/1/6
f 789/1/6 777/1/6 790/1/6
f 790/1/6 777/1/6 791/1/6
f 777/3/6 778/3/6 792/3/6
f 781/1/6 782/1/6 793/1/6
f 792/3/6 778/3/6 793/3/6
f 778/1/6 779/1/6 793/1/6
f 780/1/6 781/1/6 793/1/6
f 779/1/6 780/1/6 793/1/6
f 785/3/6 786/3/6 794/3/6
f 793/1/6 782/1/6 794/1/6
f 784/3/6 785/3/6 794/3/6
f 783/3/6 784/3/6 794/3/6
f 782/3/6 783/3/6 794/3/6
f 786/3/6 787/3/6 794/3/6
f 794/3/6 787/3/6 795/3/6
f 789/1/6 790/1/6 796/1/6
f 796/1/6 790/1/6 797/1/6
f 790/3/6 791/3/6 798/3/6
f 791/1/6 777/1/6 798/1/6
f 798/1/6 777/1/6 799/1/6
f 777/3/6 792/3/6 800/3/6
f 792/1/6 793/1/6 800/1/6
f 793/1/6 794/1/6 800/1/6
f 794/1/6 795/1/6 800/1/6
f 800/1/6 795/1/6 801/1/6
f 801/1/6 795/1/6 802/1/6
f 795/3/6 787/3/6 803/3/6
f 802/1/6 795/1/6 803/1/6
f 788/3/6 789/3/6 804/3/6
f 789/1/6 796/1/6 804/1/6
f 804/1/6 796/1/6 805/1/6
f 805/1/6 796/1/6 806/1/6
f 806/1/6 796/1/6 807/1/6
f 807/1/6 796/1/6 808/1/6
f 796/3/6 797/3/6 809/3/6
f 808/1/6 796/1/6 809/1/6
f 797/1/6 790/1/6 810/1/6
f 809/3/6 797/3/6 810/3/6
f 798/3/6 799/3/6 811/3/6
f 810/1/6 790/1/6 811/1/6
f 790/3/6 798/3/6 811/3/6
f 799/1/6 777/1/6 812/1/6
f 811/3/6 799/3/6 812/3/6
f 777/3/6 800/3/6 813/3/6
f 812/1/6 777/1/6 813/1/6
f 800/3/6 801/3/6 813/3/6
f 801/1/6 802/1/6 814/1/6
f 813/3/6 801/3/6 814/3/6
f 814/1/6 802/1/6 815/1/6
f 802/3/6 803/3/6 816/3/6
f 815/1/6 802/1/6 816/1/6
f 816/3/6 803/3/6 817/3/6
f 805/1/6 806/1/6 818/1/6
f 806/3/6 807/3/6 819/3/6
f 818/1/6 806/1/6 819/1/6
f 807/1/6 808/1/6 820/1/6
f 819/3/6 807/3/6 820/3/6
f 820/1/6 808/1/6 821/1/6
f 810/3/6 811/3/6 822/3/6
f 809/3/6 810/3/6 822/3/6
f 808/3/6 809/3/6 822/3/6
f 812/3/6 813/3/6 822/3/6
f 816/1/6 817/1/6 822/1/6
f 815/1/6 816/1/6 822/1/6
f 813/3/6 814/3/6 822/3/6
f 814/3/6 815/3/6 822/3/6
f 811/3/6 812/3/6 822/3/6
f 822/1/6 817/1/6 823/1/6
f 823/1/6 817/1/6 824/1/6
f 817/3/6 803/3/6 825/3/6
f 824/1/6 817/1/6 825/1/6
f 431/3/6 669/3/6 826/3/6
f 669/3/6 788/3/6 826/3/6
f 804/3/6 805/3/6 826/3/6
f 788/3/6 804/3/6 826/3/6
f 805/1/6 818/1/6 827/1/6
f 826/3/6 805/3/6 827/3/6
f 820/3/6 821/3/6 828/3/6
f 827/1/6 818/1/6 828/1/6
f 819/3/6 820/3/6 828/3/6
f 818/3/6 819/3/6 828/3/6
f 821/1/6 808/1/6 829/1/6
f 828/3/6 821/3/6 829/3/6
f 808/3/6 822/3/6 830/3/6
f 829/1/6 808/1/6 830/1/6
f 822/3/6 823/3/6 830/3/6
f 823/1/6 824/1/6 831/1/6
f 830/3/6 823/3/6 831/3/6
f 824/3/6 825/3/6 832/3/6
f 831/1/6 824/1/6 832/1/6
f 825/3/6 803/3/6 833/3/6
f 832/3/6 825/3/6 833/3/6
f 771/3/6 740/3/6 833/3/6
f 787/3/6 771/3/6 833/3/6
f 803/3/6 787/3/6 833/3/6
f 834/2/6 835/2/6 837/2/6
f 837/2/6 835/2/6 838/2/6
f 836/2/6 837/2/6 841/2/6
f 838/2/6 839/2/6 841/2/6
f 837/2/6 838/2/6 841/2/6
f 841/2/6 839/2/6 842/2/6
f 840/2/6 841/2/6 845/2/6
f 842/2/6 843/2/6 845/2/6
f 841/2/6 842/2/6 845/2/6
f 844/2/6 845/2/6 847/2/6
f 845/2/6 843/2/6 848/2/6
f 847/2/6 845/2/6 848/2/6
f 846/2/6 847/2/6 851/2/6
f 848/2/6 849/2/6 851/2/6
f 847/2/6 848/2/6 851/2/6
f 851/2/6 849/2/6 852/2/6
f 850/2/6 851/2/6 852/2/6
f 852/2/6 849/2/6 853/2/6
f 850/2/6 852/2/6 855/2/6
f 855/2/6 852/2/6 856/2/6
f 856/2/6 852/2/6 857/2/6
f 853/2/6 849/2/6 858/2/6
f 854/2/6 855/2/6 861/2/6
f 855/2/6 856/2/6 861/2/6
f 861/2/6 856/2/6 862/2/6
f 862/2/6 856/2/6 863/2/6
f 858/2/6 859/2/6 864/2/6
f 853/2/6 858/2/6 864/2/6
f 864/2/6 859/2/6 865/2/6
f 861/2/6 862/2/6 866/2/6
f 860/2/6 861/2/6 866/2/6
f 866/2/6 862/2/6 867/2/6
f 865/2/6 859/2/6 868/2/6
f 868/2/6 859/2/6 869/2/6
f 860/2/6 866/2/6 871/2/6
f 871/2/6 866/2/6 872/2/6
f 872/2/6 866/2/6 873/2/6
f 869/2/6 859/2/6 874/2/6
f 874/2/6 875/2/6 877/2/6
f 869/2/6 874/2/6 877/2/6
f 871/2/6 872/2/6 879/2/6
f 870/2/6 871/2/6 879/2/6
f 876/2/6 877/2/6 881/2/6
f 878/2/6 879/2/6 882/2/6
f 879/2/6 872/2/6 882/2/6
f 882/2/6 872/2/6 883/2/6
f 878/2/6 882/2/6 884/2/6
f 884/2/6 882/2/6 885/2/6
f 880/2/6 881/2/6 887/2/6
f 878/2/6 884/2/6 888/2/6
f 888/2/6 884/2/6 889/2/6
f 889/2/6 884/2/6 890/2/6
f 890/2/6 884/2/6 891/2/6
f 886/2/6 887/2/6 892/2/6
f 877/2/6 875/2/6 892/2/6
f 881/2/6 877/2/6 892/2/6
f 887/2/6 881/2/6 892/2/6
f 892/2/6 875/2/6 893/2/6
f 889/2/6 890/2/6 894/2/6
f 894/2/6 890/2/6 895/2/6
f 895/2/6 890/2/6 896/2/6
f 896/2/6 890/2/6 897/2/6
f 886/2/6 892/2/6 899/2/6
f 895/2/6 896/2/6 900/2/6
f 900/2/6 896/2/6 901/2/6
f 898/2/6 899/2/6 903/2/6
f 899/2/6 892/2/6 904/2/6
f 903/2/6 899/2/6 904/2/6
f 904/2/6 892/2/6 905/2/6
f 902/2/6 903/2/6 907/2/6
f 903/2/6 904/2/6 907/2/6
f 901/2/6 896/2/6 908/2/6
f 906/2/6 907/2/6 909/2/6
f 907/2/6 904/2/6 910/2/6
f 909/2/6 907/2/6 910/2/6
f 910/2/6 904/2/6 911/2/6
f 908/2/6 909/2/6 912/2/6
f 909/2/6 910/2/6 912/2/6
f 912/2/6 910/2/6 913/2/6
f 908/2/6 912/2/6 914/2/6
f 914/2/6 912/2/6 915/2/6
f 915/2/6 912/2/6 916/2/6
f 916/2/6 912/2/6 917/2/6
f 901/2/6 908/2/6 918/2/6
f 908/2/6 914/2/6 918/2/6
f 918/2/6 914/2/6 919/2/6
f 915/2/6 916/2/6 920/2/6
f 920/2/6 916/2/6 921/2/6
f 922/3/6 923/3/6 925/3/6
f 924/3/6 925/3/6 927/3/6
f 925/3/6 923/3/6 928/3/6
f 927/3/6 925/3/6 928/3/6
f 926/3/6 927/3/6 931/3/6
f 928/3/6 929/3/6 931/3/6
f 927/3/6 928/3/6 931/3/6
f 931/3/6 929/3/6 932/3/6
f 930/3/6 931/3/6 935/3/6
f 932/3/6 933/3/6 935/3/6
f 931/3/6 932/3/6 935/3/6
f 935/3/6 933/3/6 936/3/6
f 934/3/6 935/3/6 936/3/6
f 936/3/6 933/3/6 937/3/6
f 934/3/6 936/3/6 938/3/6
f 938/3/6 936/3/6 939/3/6
f 934/3/6 938/3/6 941/3/6
f 940/3/6 941/3/6 943/3/6
f 941/3/6 938/3/6 944/3/6
f 943/3/6 941/3/6 944/3/6
f 944/3/6 938/3/6 945/3/6
f 942/3/6 943/3/6 947/3/6
f 943/3/6 944/3/6 947/3/6
f 946/3/6 947/3/6 949/3/6
f 947/3/6 944/3/6 950/3/6
f 949/3/6 947/3/6 950/3/6
f 950/3/6 944/3/6 951/3/6
f 948/3/6 949/3/6 952/3/6
f 949/3/6 950/3/6 952/3/6
f 952/3/6 950/3/6 953/3/6
f 948/3/6 952/3/6 954/3/6
f 954/3/6 952/3/6 955/3/6
f 948/3/6 954/3/6 956/3/6
f 956/3/6 954/3/6 957/3/6
