# MagicaVoxel @ Ephtracy

# group
o 

# material
mtllib Grass_Plain1.mtl
usemtl palette

# normals
vn -1 0 0
vn 1 0 0
vn 0 0 1
vn 0 0 -1
vn 0 -1 0
vn 0 1 0

# texcoords
vt 0.396484 0.5
vt 0.537109 0.5
vt 0.630859 0.5
vt 0.841797 0.5
vt 0.900391 0.5
vt 0.904297 0.5
vt 0.908203 0.5
vt 0.978516 0.5
vt 0.994141 0.5

# verts
v -2 0 2
v -2 0 -2
v -2 0.3 2
v -2 0.3 -2
v -2 0.5 2
v -2 0.5 -2
v -2 0.6 2
v -2 0.6 -2
v -1.7 0.6 -1.2
v -1.7 0.6 -1.4
v -1.7 0.7 -1.2
v -1.7 0.7 -1.3
v -1.7 0.8 -1.3
v -1.7 0.8 -1.4
v -1.6 0.6 -1.1
v -1.6 0.6 -1.2
v -1.6 0.7 -1.1
v -1.6 0.7 -1.2
v -1.6 0.7 -1.3
v -1.6 0.8 -1.2
v -1.6 0.8 -1.3
v -1.5 0.7 -1.1
v -1.5 0.7 -1.2
v -1.5 0.8 -1.1
v -1.5 0.8 -1.2
v -1.4 0.6 0.8
v -1.4 0.6 0.6
v -1.4 0.7 0.8
v -1.4 0.7 0.6
v -1.1 0.6 1.7
v -1.1 0.6 1.5
v -1.1 0.6 0.8
v -1.1 0.6 0.7
v -1.1 0.7 1.7
v -1.1 0.7 1.5
v -1.1 0.7 0.8
v -1.1 0.7 0.7
v -1.1 0.9 -1.2
v -1.1 0.9 -1.3
v -1.1 1 -1.2
v -1.1 1 -1.3
v -1 0.6 -1.3
v -1 0.6 -1.4
v -1 0.7 -1.3
v -1 0.7 -1.4
v -1 0.8 -1.2
v -1 0.8 -1.3
v -1 0.9 -1.2
v -1 0.9 -1.3
v -1 0.9 -1.4
v -1 1 -1.2
v -1 1 -1.3
v -1 1 -1.4
v -1 1.1 -1.2
v -1 1.1 -1.3
v -0.6 0.6 -0.4
v -0.6 0.6 -0.5
v -0.6 0.7 -0.4
v -0.6 0.7 -0.5
v -0.5 0.6 -0.3
v -0.5 0.6 -0.4
v -0.5 0.7 -0.3
v -0.5 0.7 -0.4
v -0.4 0.6 -0.2
v -0.4 0.6 -0.3
v -0.4 0.7 -0.2
v -0.4 0.7 -0.3
v -0.3 0.6 0.0999999
v -0.3 0.6 -0.2
v -0.3 0.7 0.0999999
v -0.3 0.7 -0.2
v 0.1 0.6 1
v 0.1 0.6 -0.2
v 0.1 0.6 -1.2
v 0.1 0.6 -1.4
v 0.1 0.7 1
v 0.1 0.7 -0.2
v 0.1 0.7 -1.2
v 0.1 0.7 -1.4
v 0.2 0.6 1.3
v 0.2 0.6 1
v 0.2 0.6 -0.2
v 0.2 0.6 -0.4
v 0.2 0.6 -1.4
v 0.2 0.6 -1.6
v 0.2 0.7 1.3
v 0.2 0.7 1
v 0.2 0.7 -0.2
v 0.2 0.7 -0.4
v 0.2 0.7 -1.4
v 0.2 0.7 -1.6
v 0.3 0.6 1.8
v 0.3 0.6 1.7
v 0.3 0.6 1.4
v 0.3 0.6 1.3
v 0.3 0.6 -0.4
v 0.3 0.6 -0.6
v 0.3 0.6 -1.6
v 0.3 0.6 -1.8
v 0.3 0.7 1.8
v 0.3 0.7 1.7
v 0.3 0.7 1.4
v 0.3 0.7 1.3
v 0.3 0.7 -0.4
v 0.3 0.7 -0.6
v 0.3 0.7 -1.6
v 0.3 0.7 -1.8
v 0.4 0.6 1.7
v 0.4 0.6 1.6
v 0.4 0.6 -0.6
v 0.4 0.6 -0.9
v 0.4 0.7 1.7
v 0.4 0.7 1.6
v 0.4 0.7 -0.6
v 0.4 0.7 -0.9
v 0.5 0.6 -0.9
v 0.5 0.6 -1.1
v 0.5 0.7 0.4
v 0.5 0.7 0.2
v 0.5 0.7 -0.9
v 0.5 0.7 -1.1
v 0.5 0.8 0.4
v 0.5 0.8 0.2
v 0.6 0.6 -1.1
v 0.6 0.6 -1.4
v 0.6 0.7 0.2
v 0.6 0.7 -0.1
v 0.6 0.7 -1.1
v 0.6 0.7 -1.4
v 0.6 0.8 0.2
v 0.6 0.8 -0.1
v 0.7 0.6 1.5
v 0.7 0.6 1.4
v 0.7 0.6 -1.4
v 0.7 0.6 -1.6
v 0.7 0.7 1.5
v 0.7 0.7 1.4
v 0.7 0.7 -1.4
v 0.7 0.7 -1.6
v 0.8 0.6 -1.6
v 0.8 0.6 -1.8
v 0.8 0.7 -1.6
v 0.8 0.7 -1.8
v 0.9 0.6 1.6
v 0.9 0.6 1.5
v 0.9 0.6 -1.8
v 0.9 0.6 -2
v 0.9 0.7 1.6
v 0.9 0.7 1.5
v 0.9 0.7 0.6
v 0.9 0.7 0.4
v 0.9 0.7 -0.1
v 0.9 0.7 -0.2
v 0.9 0.7 -1.8
v 0.9 0.7 -2
v 0.9 0.8 0.6
v 0.9 0.8 0.4
v 0.9 0.8 -0.1
v 0.9 0.8 -0.2
v 1.1 0.7 -1.2
v 1.1 0.7 -1.3
v 1.1 0.8 -1.2
v 1.1 0.8 -1.3
v 1.2 0.7 -1
v 1.2 0.7 -1.2
v 1.2 0.7 -1.3
v 1.2 0.7 -1.5
v 1.2 0.8 -1
v 1.2 0.8 -1.2
v 1.2 0.8 -1.3
v 1.2 0.8 -1.5
v 1.3 0.6 1.7
v 1.3 0.6 1.6
v 1.3 0.7 1.7
v 1.3 0.7 1.6
v 1.3 0.7 1.3
v 1.3 0.7 1.1
v 1.3 0.7 -1.5
v 1.3 0.7 -1.6
v 1.3 0.8 1.3
v 1.3 0.8 1.1
v 1.3 0.8 -1.5
v 1.3 0.8 -1.6
v 1.4 0.6 1.8
v 1.4 0.6 1.7
v 1.4 0.7 1.8
v 1.4 0.7 1.7
v 1.4 0.7 1.5
v 1.4 0.7 1.4
v 1.4 0.8 1.5
v 1.4 0.8 1.4
v 1.5 0.6 2
v 1.5 0.6 1.8
v 1.5 0.7 2
v 1.5 0.7 1.8
v 1.5 0.7 1.6
v 1.5 0.7 1.5
v 1.5 0.7 1.4
v 1.5 0.7 1.3
v 1.5 0.7 1.1
v 1.5 0.7 1
v 1.5 0.8 1.6
v 1.5 0.8 1.5
v 1.5 0.8 1.4
v 1.5 0.8 1.3
v 1.5 0.8 1.1
v 1.5 0.8 1
v -1.6 0.7 -1.3
v -1.6 0.7 -1.4
v -1.6 0.8 -1.3
v -1.6 0.8 -1.4
v -1.5 0.7 -1.2
v -1.5 0.7 -1.3
v -1.5 0.8 -1.2
v -1.5 0.8 -1.3
v -1.4 0.6 -1.1
v -1.4 0.6 -1.4
v -1.4 0.7 -1.2
v -1.4 0.7 -1.4
v -1.4 0.8 -1.1
v -1.4 0.8 -1.2
v -1.3 0.6 0.8
v -1.3 0.6 0.7
v -1.3 0.7 0.8
v -1.3 0.7 0.7
v -1.1 0.6 0.7
v -1.1 0.6 0.6
v -1.1 0.7 0.7
v -1.1 0.7 0.6
v -1 0.6 1.6
v -1 0.6 1.5
v -1 0.6 0.8
v -1 0.6 0.7
v -1 0.7 1.6
v -1 0.7 1.5
v -1 0.7 0.8
v -1 0.7 0.7
v -0.9 0.6 -1.3
v -0.9 0.6 -1.4
v -0.9 0.7 -1.3
v -0.9 0.7 -1.4
v -0.9 0.8 -1.2
v -0.9 0.8 -1.3
v -0.9 0.9 -1.2
v -0.9 0.9 -1.3
v -0.9 0.9 -1.4
v -0.9 1 -1.2
v -0.9 1 -1.3
v -0.9 1 -1.4
v -0.9 1.1 -1.2
v -0.9 1.1 -1.3
v -0.8 0.9 -1.2
v -0.8 0.9 -1.3
v -0.8 1 -1.2
v -0.8 1 -1.3
v -0.7 0.6 1.7
v -0.7 0.6 1.6
v -0.7 0.7 1.7
v -0.7 0.7 1.6
v -0.4 0.6 -0.4
v -0.4 0.6 -0.5
v -0.4 0.7 -0.4
v -0.4 0.7 -0.5
v -0.3 0.6 -0.3
v -0.3 0.6 -0.4
v -0.3 0.7 -0.3
v -0.3 0.7 -0.4
v -0.2 0.6 0.0999999
v -0.2 0.6 -0.3
v -0.2 0.7 0.0999999
v -0.2 0.7 -0.3
v 0.2 0.6 -1.2
v 0.2 0.6 -1.3
v 0.2 0.7 -1.2
v 0.2 0.7 -1.3
v 0.3 0.6 -1.3
v 0.3 0.6 -1.5
v 0.3 0.7 -1.3
v 0.3 0.7 -1.5
v 0.4 0.6 -1.5
v 0.4 0.6 -1.8
v 0.4 0.7 -1.5
v 0.4 0.7 -1.8
v 0.5 0.6 1.8
v 0.5 0.6 1.6
v 0.5 0.7 1.8
v 0.5 0.7 1.6
v 0.9 0.7 0.2
v 0.9 0.7 -2.38419e-07
v 0.9 0.8 0.2
v 0.9 0.8 -2.38419e-07
v 1.1 0.7 0.6
v 1.1 0.7 0.4
v 1.1 0.7 -2.38419e-07
v 1.1 0.7 -0.2
v 1.1 0.8 0.6
v 1.1 0.8 0.4
v 1.1 0.8 -2.38419e-07
v 1.1 0.8 -0.2
v 1.2 0.7 0.4
v 1.2 0.7 0.2
v 1.2 0.8 0.4
v 1.2 0.8 0.2
v 1.4 0.7 -1
v 1.4 0.7 -1.1
v 1.4 0.8 -1
v 1.4 0.8 -1.1
v 1.5 0.7 -1.5
v 1.5 0.7 -1.6
v 1.5 0.8 -1.5
v 1.5 0.8 -1.6
v 1.6 0.7 -1.1
v 1.6 0.7 -1.2
v 1.6 0.7 -1.4
v 1.6 0.7 -1.5
v 1.6 0.8 -1.1
v 1.6 0.8 -1.2
v 1.6 0.8 -1.4
v 1.6 0.8 -1.5
v 1.7 0.7 1.2
v 1.7 0.7 1
v 1.7 0.8 1.2
v 1.7 0.8 1
v 1.8 0.7 1.6
v 1.8 0.7 1.2
v 1.8 0.7 -1.2
v 1.8 0.7 -1.4
v 1.8 0.8 1.6
v 1.8 0.8 1.2
v 1.8 0.8 -1.2
v 1.8 0.8 -1.4
v 2 0 2
v 2 0 -2
v 2 0.3 2
v 2 0.3 -2
v 2 0.5 2
v 2 0.5 -2
v 2 0.6 2
v 2 0.6 -2
v 2 0.7 2
v 2 0.7 -2
v -2 0 2
v -2 0.3 2
v -2 0.5 2
v -2 0.6 2
v 1.5 0.6 2
v 1.5 0.7 2
v 2 0 2
v 2 0.3 2
v 2 0.5 2
v 2 0.6 2
v 2 0.7 2
v 0.3 0.6 1.8
v 0.3 0.7 1.8
v 0.5 0.6 1.8
v 0.5 0.7 1.8
v 1.4 0.6 1.8
v 1.4 0.7 1.8
v 1.5 0.6 1.8
v 1.5 0.7 1.8
v -1.1 0.6 1.7
v -1.1 0.7 1.7
v -0.7 0.6 1.7
v -0.7 0.7 1.7
v 1.3 0.6 1.7
v 1.3 0.7 1.7
v 1.4 0.6 1.7
v 1.4 0.7 1.7
v 0.9 0.6 1.6
v 0.9 0.7 1.6
v 1.3 0.6 1.6
v 1.3 0.7 1.6
v 1.5 0.7 1.6
v 1.5 0.8 1.6
v 1.8 0.7 1.6
v 1.8 0.8 1.6
v 0.7 0.6 1.5
v 0.7 0.7 1.5
v 0.9 0.6 1.5
v 0.9 0.7 1.5
v 1.4 0.7 1.5
v 1.4 0.8 1.5
v 1.5 0.7 1.5
v 1.5 0.8 1.5
v 0.3 0.6 1.4
v 0.3 0.7 1.4
v 0.7 0.6 1.4
v 0.7 0.7 1.4
v 0.2 0.6 1.3
v 0.2 0.7 1.3
v 0.3 0.6 1.3
v 0.3 0.7 1.3
v 1.3 0.7 1.3
v 1.3 0.8 1.3
v 1.5 0.7 1.3
v 1.5 0.8 1.3
v 0.1 0.6 1
v 0.1 0.7 1
v 0.2 0.6 1
v 0.2 0.7 1
v -1.4 0.6 0.8
v -1.4 0.7 0.8
v -1.3 0.6 0.8
v -1.3 0.7 0.8
v -1.1 0.6 0.8
v -1.1 0.7 0.8
v -1 0.6 0.8
v -1 0.7 0.8
v -1.3 0.6 0.7
v -1.3 0.7 0.7
v -1.1 0.6 0.7
v -1.1 0.7 0.7
v 0.9 0.7 0.6
v 0.9 0.8 0.6
v 1.1 0.7 0.6
v 1.1 0.8 0.6
v 0.5 0.7 0.4
v 0.5 0.8 0.4
v 0.9 0.7 0.4
v 0.9 0.8 0.4
v 1.1 0.7 0.4
v 1.1 0.8 0.4
v 1.2 0.7 0.4
v 1.2 0.8 0.4
v -0.3 0.6 0.0999999
v -0.3 0.7 0.0999999
v -0.2 0.6 0.0999999
v -0.2 0.7 0.0999999
v 0.9 0.7 -2.38419e-07
v 0.9 0.8 -2.38419e-07
v 1.1 0.7 -2.38419e-07
v 1.1 0.8 -2.38419e-07
v -0.4 0.6 -0.2
v -0.4 0.7 -0.2
v -0.3 0.6 -0.2
v -0.3 0.7 -0.2
v -0.5 0.6 -0.3
v -0.5 0.7 -0.3
v -0.4 0.6 -0.3
v -0.4 0.7 -0.3
v -0.6 0.6 -0.4
v -0.6 0.7 -0.4
v -0.5 0.6 -0.4
v -0.5 0.7 -0.4
v 1.2 0.7 -1
v 1.2 0.8 -1
v 1.4 0.7 -1
v 1.4 0.8 -1
v -1.6 0.6 -1.1
v -1.6 0.7 -1.1
v -1.5 0.7 -1.1
v -1.5 0.8 -1.1
v -1.4 0.6 -1.1
v -1.4 0.8 -1.1
v 1.4 0.7 -1.1
v 1.4 0.8 -1.1
v 1.6 0.7 -1.1
v 1.6 0.8 -1.1
v -1.7 0.6 -1.2
v -1.7 0.7 -1.2
v -1.6 0.6 -1.2
v -1.6 0.7 -1.2
v -1.6 0.8 -1.2
v -1.5 0.7 -1.2
v -1.5 0.8 -1.2
v -1.1 0.9 -1.2
v -1.1 1 -1.2
v -1 0.8 -1.2
v -1 0.9 -1.2
v -1 1 -1.2
v -1 1.1 -1.2
v -0.9 0.8 -1.2
v -0.9 0.9 -1.2
v -0.9 1 -1.2
v -0.9 1.1 -1.2
v -0.8 0.9 -1.2
v -0.8 1 -1.2
v 0.1 0.6 -1.2
v 0.1 0.7 -1.2
v 0.2 0.6 -1.2
v 0.2 0.7 -1.2
v 1.1 0.7 -1.2
v 1.1 0.8 -1.2
v 1.2 0.7 -1.2
v 1.2 0.8 -1.2
v 1.6 0.7 -1.2
v 1.6 0.8 -1.2
v 1.8 0.7 -1.2
v 1.8 0.8 -1.2
v -1.7 0.7 -1.3
v -1.7 0.8 -1.3
v -1.6 0.7 -1.3
v -1.6 0.8 -1.3
v -1 0.6 -1.3
v -1 0.7 -1.3
v -1 0.8 -1.3
v -0.9 0.6 -1.3
v -0.9 0.7 -1.3
v -0.9 0.8 -1.3
v 0.2 0.6 -1.3
v 0.2 0.7 -1.3
v 0.3 0.6 -1.3
v 0.3 0.7 -1.3
v 0.3 0.6 -1.5
v 0.3 0.7 -1.5
v 0.4 0.6 -1.5
v 0.4 0.7 -1.5
v 0.3 0.6 1.7
v 0.3 0.7 1.7
v 0.4 0.6 1.7
v 0.4 0.7 1.7
v -1 0.6 1.6
v -1 0.7 1.6
v -0.7 0.6 1.6
v -0.7 0.7 1.6
v 0.4 0.6 1.6
v 0.4 0.7 1.6
v 0.5 0.6 1.6
v 0.5 0.7 1.6
v -1.1 0.6 1.5
v -1.1 0.7 1.5
v -1 0.6 1.5
v -1 0.7 1.5
v 1.4 0.7 1.4
v 1.4 0.8 1.4
v 1.5 0.7 1.4
v 1.5 0.8 1.4
v 1.7 0.7 1.2
v 1.7 0.8 1.2
v 1.8 0.7 1.2
v 1.8 0.8 1.2
v 1.3 0.7 1.1
v 1.3 0.8 1.1
v 1.5 0.7 1.1
v 1.5 0.8 1.1
v 1.5 0.7 1
v 1.5 0.8 1
v 1.7 0.7 1
v 1.7 0.8 1
v -1.1 0.6 0.7
v -1.1 0.7 0.7
v -1 0.6 0.7
v -1 0.7 0.7
v -1.4 0.6 0.6
v -1.4 0.7 0.6
v -1.1 0.6 0.6
v -1.1 0.7 0.6
v 0.5 0.7 0.2
v 0.5 0.8 0.2
v 0.6 0.7 0.2
v 0.6 0.8 0.2
v 0.9 0.7 0.2
v 0.9 0.8 0.2
v 1.2 0.7 0.2
v 1.2 0.8 0.2
v 0.6 0.7 -0.1
v 0.6 0.8 -0.1
v 0.9 0.7 -0.1
v 0.9 0.8 -0.1
v 0.1 0.6 -0.2
v 0.1 0.7 -0.2
v 0.2 0.6 -0.2
v 0.2 0.7 -0.2
v 0.9 0.7 -0.2
v 0.9 0.8 -0.2
v 1.1 0.7 -0.2
v 1.1 0.8 -0.2
v -0.3 0.6 -0.3
v -0.3 0.7 -0.3
v -0.2 0.6 -0.3
v -0.2 0.7 -0.3
v -0.4 0.6 -0.4
v -0.4 0.7 -0.4
v -0.3 0.6 -0.4
v -0.3 0.7 -0.4
v 0.2 0.6 -0.4
v 0.2 0.7 -0.4
v 0.3 0.6 -0.4
v 0.3 0.7 -0.4
v -0.6 0.6 -0.5
v -0.6 0.7 -0.5
v -0.4 0.6 -0.5
v -0.4 0.7 -0.5
v 0.3 0.6 -0.6
v 0.3 0.7 -0.6
v 0.4 0.6 -0.6
v 0.4 0.7 -0.6
v 0.4 0.6 -0.9
v 0.4 0.7 -0.9
v 0.5 0.6 -0.9
v 0.5 0.7 -0.9
v 0.5 0.6 -1.1
v 0.5 0.7 -1.1
v 0.6 0.6 -1.1
v 0.6 0.7 -1.1
v -1.5 0.7 -1.2
v -1.5 0.8 -1.2
v -1.4 0.7 -1.2
v -1.4 0.8 -1.2
v -1.6 0.7 -1.3
v -1.6 0.8 -1.3
v -1.5 0.7 -1.3
v -1.5 0.8 -1.3
v -1.1 0.9 -1.3
v -1.1 1 -1.3
v -1 0.9 -1.3
v -1 1 -1.3
v -1 1.1 -1.3
v -0.9 0.9 -1.3
v -0.9 1 -1.3
v -0.9 1.1 -1.3
v -0.8 0.9 -1.3
v -0.8 1 -1.3
v 1.1 0.7 -1.3
v 1.1 0.8 -1.3
v 1.2 0.7 -1.3
v 1.2 0.8 -1.3
v -1.7 0.6 -1.4
v -1.7 0.8 -1.4
v -1.6 0.7 -1.4
v -1.6 0.8 -1.4
v -1.4 0.6 -1.4
v -1.4 0.7 -1.4
v -1 0.6 -1.4
v -1 0.7 -1.4
v -1 0.9 -1.4
v -1 1 -1.4
v -0.9 0.6 -1.4
v -0.9 0.7 -1.4
v -0.9 0.9 -1.4
v -0.9 1 -1.4
v 0.1 0.6 -1.4
v 0.1 0.7 -1.4
v 0.2 0.6 -1.4
v 0.2 0.7 -1.4
v 0.6 0.6 -1.4
v 0.6 0.7 -1.4
v 0.7 0.6 -1.4
v 0.7 0.7 -1.4
v 1.6 0.7 -1.4
v 1.6 0.8 -1.4
v 1.8 0.7 -1.4
v 1.8 0.8 -1.4
v 1.2 0.7 -1.5
v 1.2 0.8 -1.5
v 1.3 0.7 -1.5
v 1.3 0.8 -1.5
v 1.5 0.7 -1.5
v 1.5 0.8 -1.5
v 1.6 0.7 -1.5
v 1.6 0.8 -1.5
v 0.2 0.6 -1.6
v 0.2 0.7 -1.6
v 0.3 0.6 -1.6
v 0.3 0.7 -1.6
v 0.7 0.6 -1.6
v 0.7 0.7 -1.6
v 0.8 0.6 -1.6
v 0.8 0.7 -1.6
v 1.3 0.7 -1.6
v 1.3 0.8 -1.6
v 1.5 0.7 -1.6
v 1.5 0.8 -1.6
v 0.3 0.6 -1.8
v 0.3 0.7 -1.8
v 0.4 0.6 -1.8
v 0.4 0.7 -1.8
v 0.8 0.6 -1.8
v 0.8 0.7 -1.8
v 0.9 0.6 -1.8
v 0.9 0.7 -1.8
v -2 0 -2
v -2 0.3 -2
v -2 0.5 -2
v -2 0.6 -2
v 0.9 0.6 -2
v 0.9 0.7 -2
v 2 0 -2
v 2 0.3 -2
v 2 0.5 -2
v 2 0.6 -2
v 2 0.7 -2
v -2 0 2
v 2 0 2
v -2 0 -2
v 2 0 -2
v -1 0.8 -1.2
v -0.9 0.8 -1.2
v -1 0.8 -1.3
v -0.9 0.8 -1.3
v -1.1 0.9 -1.2
v -1 0.9 -1.2
v -0.9 0.9 -1.2
v -0.8 0.9 -1.2
v -1.1 0.9 -1.3
v -1 0.9 -1.3
v -0.9 0.9 -1.3
v -0.8 0.9 -1.3
v -2 0.6 2
v 1.5 0.6 2
v 0.3 0.6 1.8
v 0.5 0.6 1.8
v 1.4 0.6 1.8
v 1.5 0.6 1.8
v -1.1 0.6 1.7
v -0.7 0.6 1.7
v 0.3 0.6 1.7
v 0.4 0.6 1.7
v 1.3 0.6 1.7
v 1.4 0.6 1.7
v -1 0.6 1.6
v -0.7 0.6 1.6
v -0.6 0.6 1.6
v -0.5 0.6 1.6
v -0.4 0.6 1.6
v -0.2 0.6 1.6
v 0.4 0.6 1.6
v 0.5 0.6 1.6
v 0.9 0.6 1.6
v 1.3 0.6 1.6
v -1.5 0.6 1.5
v -1.4 0.6 1.5
v -1.1 0.6 1.5
v -1 0.6 1.5
v -0.6 0.6 1.5
v -0.5 0.6 1.5
v -0.4 0.6 1.5
v -0.3 0.6 1.5
v -0.2 0.6 1.5
v -0.0999999 0.6 1.5
v 0.7 0.6 1.5
v 0.9 0.6 1.5
v -1.7 0.6 1.4
v -1.6 0.6 1.4
v -1.5 0.6 1.4
v -1.4 0.6 1.4
v -0.6 0.6 1.4
v -0.5 0.6 1.4
v -0.4 0.6 1.4
v -0.3 0.6 1.4
v -0.2 0.6 1.4
v 0.3 0.6 1.4
v 0.7 0.6 1.4
v -1.5 0.6 1.3
v -1.4 0.6 1.3
v -1.3 0.6 1.3
v -0.7 0.6 1.3
v -0.6 0.6 1.3
v -0.5 0.6 1.3
v -0.4 0.6 1.3
v -0.2 0.6 1.3
v -0.0999999 0.6 1.3
v 0.2 0.6 1.3
v 0.3 0.6 1.3
v -1.7 0.6 1.2
v -1.6 0.6 1.2
v -1.5 0.6 1.2
v -1.3 0.6 1.2
v -0.7 0.6 1.2
v -0.5 0.6 1.2
v -0.4 0.6 1.2
v -0.2 0.6 1.2
v -0.0999999 0.6 1.2
v -0.5 0.6 1.1
v -0.0999999 0.6 1.1
v -1.6 0.6 1
v -1.5 0.6 1
v 0.1 0.6 1
v 0.2 0.6 1
v -1.4 0.6 0.8
v -1.3 0.6 0.8
v -1.1 0.6 0.8
v -1 0.6 0.8
v -1.3 0.6 0.7
v -1.1 0.6 0.7
v -1 0.6 0.7
v -1.4 0.6 0.6
v -1.1 0.6 0.6
v -1.2 0.6 0.3
v -1 0.6 0.3
v -0.9 0.6 0.3
v -0.8 0.6 0.3
v -1.3 0.6 0.2
v -1.2 0.6 0.2
v -1.1 0.6 0.2
v -1 0.6 0.2
v -0.9 0.6 0.2
v -0.8 0.6 0.2
v -1.2 0.6 0.0999999
v -1.1 0.6 0.0999999
v -1 0.6 0.0999999
v -0.9 0.6 0.0999999
v -0.8 0.6 0.0999999
v -0.6 0.6 0.0999999
v -0.3 0.6 0.0999999
v -0.2 0.6 0.0999999
v -1.4 0.6 -2.38419e-07
v -1.3 0.6 -2.38419e-07
v -1.2 0.6 -2.38419e-07
v -1.1 0.6 -2.38419e-07
v -0.9 0.6 -2.38419e-07
v -0.8 0.6 -2.38419e-07
v -1.3 0.6 -0.1
v -1.2 0.6 -0.1
v -1.1 0.6 -0.1
v -0.9 0.6 -0.1
v -0.8 0.6 -0.1
v -0.7 0.6 -0.1
v -1.4 0.6 -0.2
v -1.3 0.6 -0.2
v -1.1 0.6 -0.2
v -0.9 0.6 -0.2
v -0.8 0.6 -0.2
v -0.7 0.6 -0.2
v -0.6 0.6 -0.2
v -0.4 0.6 -0.2
v -0.3 0.6 -0.2
v 0.1 0.6 -0.2
v 0.2 0.6 -0.2
v -1.3 0.6 -0.3
v -1.2 0.6 -0.3
v -1.1 0.6 -0.3
v -1 0.6 -0.3
v -0.5 0.6 -0.3
v -0.4 0.6 -0.3
v -0.3 0.6 -0.3
v -0.2 0.6 -0.3
v -0.9 0.6 -0.4
v -0.8 0.6 -0.4
v -0.6 0.6 -0.4
v -0.5 0.6 -0.4
v -0.4 0.6 -0.4
v -0.3 0.6 -0.4
v 0.2 0.6 -0.4
v 0.3 0.6 -0.4
v -1.2 0.6 -0.5
v -1.1 0.6 -0.5
v -1 0.6 -0.5
v -0.8 0.6 -0.5
v -0.6 0.6 -0.5
v -0.4 0.6 -0.5
v 0.3 0.6 -0.6
v 0.4 0.6 -0.6
v -0.3 0.6 -0.8
v -0.0999999 0.6 -0.8
v -0.2 0.6 -0.9
v -0.0999999 0.6 -0.9
v 0.4 0.6 -0.9
v 0.5 0.6 -0.9
v -0.5 0.6 -1
v -0.4 0.6 -1
v -0.3 0.6 -1
v -0.2 0.6 -1
v -0.0999999 0.6 -1
v -1.6 0.6 -1.1
v -1.4 0.6 -1.1
v -0.5 0.6 -1.1
v -0.4 0.6 -1.1
v 0.5 0.6 -1.1
v 0.6 0.6 -1.1
v -1.7 0.6 -1.2
v -1.6 0.6 -1.2
v -0.6 0.6 -1.2
v -0.5 0.6 -1.2
v -0.3 0.6 -1.2
v -0.2 0.6 -1.2
v -0.0999999 0.6 -1.2
v 0.1 0.6 -1.2
v 0.2 0.6 -1.2
v -1 0.6 -1.3
v -0.9 0.6 -1.3
v -0.5 0.6 -1.3
v -0.4 0.6 -1.3
v -0.3 0.6 -1.3
v -0.0999999 0.6 -1.3
v 0.2 0.6 -1.3
v 0.3 0.6 -1.3
v -1.7 0.6 -1.4
v -1.4 0.6 -1.4
v -1 0.6 -1.4
v -0.9 0.6 -1.4
v -0.6 0.6 -1.4
v -0.4 0.6 -1.4
v -0.3 0.6 -1.4
v -0.2 0.6 -1.4
v -0.0999999 0.6 -1.4
v 0.1 0.6 -1.4
v 0.2 0.6 -1.4
v 0.6 0.6 -1.4
v 0.7 0.6 -1.4
v -0.3 0.6 -1.5
v -0.2 0.6 -1.5
v 0.3 0.6 -1.5
v 0.4 0.6 -1.5
v -0.4 0.6 -1.6
v -0.2 0.6 -1.6
v 0.2 0.6 -1.6
v 0.3 0.6 -1.6
v 0.7 0.6 -1.6
v 0.8 0.6 -1.6
v 0.3 0.6 -1.8
v 0.4 0.6 -1.8
v 0.8 0.6 -1.8
v 0.9 0.6 -1.8
v -2 0.6 -2
v 0.9 0.6 -2
v 1.5 0.7 2
v 2 0.7 2
v 0.3 0.7 1.8
v 0.5 0.7 1.8
v 1.4 0.7 1.8
v 1.5 0.7 1.8
v -1.1 0.7 1.7
v -0.7 0.7 1.7
v 0.3 0.7 1.7
v 0.4 0.7 1.7
v 1.3 0.7 1.7
v 1.4 0.7 1.7
v -1 0.7 1.6
v -0.7 0.7 1.6
v 0.4 0.7 1.6
v 0.5 0.7 1.6
v 0.9 0.7 1.6
v 1.3 0.7 1.6
v 1.5 0.7 1.6
v 1.8 0.7 1.6
v -1.1 0.7 1.5
v -1 0.7 1.5
v 0.7 0.7 1.5
v 0.9 0.7 1.5
v 1.4 0.7 1.5
v 1.5 0.7 1.5
v 0.3 0.7 1.4
v 0.7 0.7 1.4
v 1.4 0.7 1.4
v 1.5 0.7 1.4
v 0.2 0.7 1.3
v 0.3 0.7 1.3
v 1.3 0.7 1.3
v 1.5 0.7 1.3
v 1.7 0.7 1.2
v 1.8 0.7 1.2
v 0.5 0.7 1.1
v 0.7 0.7 1.1
v 0.9 0.7 1.1
v 1 0.7 1.1
v 1.1 0.7 1.1
v 1.2 0.7 1.1
v 1.3 0.7 1.1
v 1.5 0.7 1.1
v 0.1 0.7 1
v 0.2 0.7 1
v 0.6 0.7 1
v 0.7 0.7 1
v 0.9 0.7 1
v 1 0.7 1
v 1.1 0.7 1
v 1.2 0.7 1
v 1.5 0.7 1
v 1.7 0.7 1
v 0.5 0.7 0.9
v 0.6 0.7 0.9
v 0.7 0.7 0.9
v 0.8 0.7 0.9
v 0.9 0.7 0.9
v 1 0.7 0.9
v -1.4 0.7 0.8
v -1.3 0.7 0.8
v -1.1 0.7 0.8
v -1 0.7 0.8
v 0.7 0.7 0.8
v 0.8 0.7 0.8
v 0.9 0.7 0.8
v 1 0.7 0.8
v -1.3 0.7 0.7
v -1.1 0.7 0.7
v -1 0.7 0.7
v 0.6 0.7 0.7
v 0.9 0.7 0.7
v -1.4 0.7 0.6
v -1.1 0.7 0.6
v 0.9 0.7 0.6
v 1.1 0.7 0.6
v 0.5 0.7 0.4
v 0.9 0.7 0.4
v 1.1 0.7 0.4
v 1.2 0.7 0.4
v 0.5 0.7 0.2
v 0.6 0.7 0.2
v 0.9 0.7 0.2
v 1.2 0.7 0.2
v -0.3 0.7 0.0999999
v -0.2 0.7 0.0999999
v 0.9 0.7 -2.38419e-07
v 1.1 0.7 -2.38419e-07
v 0.6 0.7 -0.1
v 0.9 0.7 -0.1
v 1.5 0.7 -0.1
v 1.8 0.7 -0.1
v -0.4 0.7 -0.2
v -0.3 0.7 -0.2
v 0.1 0.7 -0.2
v 0.2 0.7 -0.2
v 0.9 0.7 -0.2
v 1.1 0.7 -0.2
v 1.5 0.7 -0.2
v 1.7 0.7 -0.2
v -0.5 0.7 -0.3
v -0.4 0.7 -0.3
v -0.3 0.7 -0.3
v -0.2 0.7 -0.3
v 1.5 0.7 -0.3
v 1.6 0.7 -0.3
v 1.7 0.7 -0.3
v 1.8 0.7 -0.3
v -0.6 0.7 -0.4
v -0.5 0.7 -0.4
v -0.4 0.7 -0.4
v -0.3 0.7 -0.4
v 0.2 0.7 -0.4
v 0.3 0.7 -0.4
v 1.6 0.7 -0.4
v 1.7 0.7 -0.4
v 1.8 0.7 -0.4
v -0.6 0.7 -0.5
v -0.4 0.7 -0.5
v 0.6 0.7 -0.5
v 1 0.7 -0.5
v 1.5 0.7 -0.5
v 1.8 0.7 -0.5
v 0.3 0.7 -0.6
v 0.4 0.7 -0.6
v 0.6 0.7 -0.6
v 0.8 0.7 -0.6
v 0.9 0.7 -0.6
v 1 0.7 -0.6
v 0.7 0.7 -0.7
v 0.8 0.7 -0.7
v 0.9 0.7 -0.7
v 1 0.7 -0.7
v 0.8 0.7 -0.8
v 0.9 0.7 -0.8
v 1 0.7 -0.8
v 0.4 0.7 -0.9
v 0.5 0.7 -0.9
v 0.7 0.7 -0.9
v 0.9 0.7 -0.9
v 1.2 0.7 -1
v 1.4 0.7 -1
v -1.6 0.7 -1.1
v -1.5 0.7 -1.1
v 0.5 0.7 -1.1
v 0.6 0.7 -1.1
v 1.4 0.7 -1.1
v 1.6 0.7 -1.1
v -1.7 0.7 -1.2
v -1.6 0.7 -1.2
v -1.5 0.7 -1.2
v -1.4 0.7 -1.2
v 0.1 0.7 -1.2
v 0.2 0.7 -1.2
v 1.1 0.7 -1.2
v 1.2 0.7 -1.2
v 1.6 0.7 -1.2
v 1.8 0.7 -1.2
v -1.7 0.7 -1.3
v -1.6 0.7 -1.3
v -1.5 0.7 -1.3
v 0.2 0.7 -1.3
v 0.3 0.7 -1.3
v 1.1 0.7 -1.3
v 1.2 0.7 -1.3
v -1.6 0.7 -1.4
v -1.4 0.7 -1.4
v 0.1 0.7 -1.4
v 0.2 0.7 -1.4
v 0.6 0.7 -1.4
v 0.7 0.7 -1.4
v 1.6 0.7 -1.4
v 1.8 0.7 -1.4
v 0.3 0.7 -1.5
v 0.4 0.7 -1.5
v 1.2 0.7 -1.5
v 1.3 0.7 -1.5
v 1.5 0.7 -1.5
v 1.6 0.7 -1.5
v 0.2 0.7 -1.6
v 0.3 0.7 -1.6
v 0.7 0.7 -1.6
v 0.8 0.7 -1.6
v 1.3 0.7 -1.6
v 1.5 0.7 -1.6
v 0.3 0.7 -1.8
v 0.4 0.7 -1.8
v 0.8 0.7 -1.8
v 0.9 0.7 -1.8
v 0.9 0.7 -2
v 2 0.7 -2
v 1.5 0.8 1.6
v 1.8 0.8 1.6
v 1.4 0.8 1.5
v 1.5 0.8 1.5
v 1.4 0.8 1.4
v 1.5 0.8 1.4
v 1.3 0.8 1.3
v 1.5 0.8 1.3
v 1.7 0.8 1.2
v 1.8 0.8 1.2
v 1.3 0.8 1.1
v 1.5 0.8 1.1
v 1.5 0.8 1
v 1.7 0.8 1
v 0.9 0.8 0.6
v 1.1 0.8 0.6
v 0.5 0.8 0.4
v 0.9 0.8 0.4
v 1.1 0.8 0.4
v 1.2 0.8 0.4
v 0.5 0.8 0.2
v 0.6 0.8 0.2
v 0.9 0.8 0.2
v 1.2 0.8 0.2
v 0.9 0.8 -2.38419e-07
v 1.1 0.8 -2.38419e-07
v 0.6 0.8 -0.1
v 0.9 0.8 -0.1
v 0.9 0.8 -0.2
v 1.1 0.8 -0.2
v 1.2 0.8 -1
v 1.4 0.8 -1
v -1.5 0.8 -1.1
v -1.4 0.8 -1.1
v 1.4 0.8 -1.1
v 1.6 0.8 -1.1
v -1.6 0.8 -1.2
v -1.5 0.8 -1.2
v -1.4 0.8 -1.2
v 1.1 0.8 -1.2
v 1.2 0.8 -1.2
v 1.6 0.8 -1.2
v 1.8 0.8 -1.2
v -1.7 0.8 -1.3
v -1.6 0.8 -1.3
v -1.5 0.8 -1.3
v 1.1 0.8 -1.3
v 1.2 0.8 -1.3
v -1.7 0.8 -1.4
v -1.6 0.8 -1.4
v 1.6 0.8 -1.4
v 1.8 0.8 -1.4
v 1.2 0.8 -1.5
v 1.3 0.8 -1.5
v 1.5 0.8 -1.5
v 1.6 0.8 -1.5
v 1.3 0.8 -1.6
v 1.5 0.8 -1.6
v -1.1 1 -1.2
v -1 1 -1.2
v -0.9 1 -1.2
v -0.8 1 -1.2
v -1.1 1 -1.3
v -1 1 -1.3
v -0.9 1 -1.3
v -0.8 1 -1.3
v -1 1 -1.4
v -0.9 1 -1.4
v -1 1.1 -1.2
v -0.9 1.1 -1.2
v -1 1.1 -1.3
v -0.9 1.1 -1.3

# faces
f 3/8/1 2/8/1 1/8/1
f 4/8/1 2/8/1 3/8/1
f 5/2/1 4/2/1 3/2/1
f 6/2/1 4/2/1 5/2/1
f 7/6/1 6/6/1 5/6/1
f 8/6/1 6/6/1 7/6/1
f 11/3/1 10/3/1 9/3/1
f 12/3/1 10/3/1 11/3/1
f 13/3/1 10/3/1 12/3/1
f 14/3/1 10/3/1 13/3/1
f 17/3/1 16/3/1 15/3/1
f 18/3/1 16/3/1 17/3/1
f 20/3/1 19/3/1 18/3/1
f 21/3/1 19/3/1 20/3/1
f 24/3/1 23/3/1 22/3/1
f 25/3/1 23/3/1 24/3/1
f 28/3/1 27/3/1 26/3/1
f 29/3/1 27/3/1 28/3/1
f 34/3/1 31/3/1 30/3/1
f 35/3/1 31/3/1 34/3/1
f 36/3/1 33/3/1 32/3/1
f 37/3/1 33/3/1 36/3/1
f 40/4/1 39/4/1 38/4/1
f 41/4/1 39/4/1 40/4/1
f 44/6/1 43/6/1 42/6/1
f 45/6/1 43/6/1 44/6/1
f 47/5/1 45/5/1 44/5/1
f 48/4/1 47/4/1 46/4/1
f 49/5/1 45/5/1 47/5/1
f 49/4/1 47/4/1 48/4/1
f 50/5/1 45/5/1 49/5/1
f 52/6/1 50/6/1 49/6/1
f 53/6/1 50/6/1 52/6/1
f 54/4/1 52/4/1 51/4/1
f 55/4/1 52/4/1 54/4/1
f 58/3/1 57/3/1 56/3/1
f 59/3/1 57/3/1 58/3/1
f 62/3/1 61/3/1 60/3/1
f 63/3/1 61/3/1 62/3/1
f 66/3/1 65/3/1 64/3/1
f 67/3/1 65/3/1 66/3/1
f 70/3/1 69/3/1 68/3/1
f 71/3/1 69/3/1 70/3/1
f 76/5/1 73/5/1 72/5/1
f 77/5/1 73/5/1 76/5/1
f 78/3/1 75/3/1 74/3/1
f 79/3/1 75/3/1 78/3/1
f 86/5/1 81/5/1 80/5/1
f 87/5/1 81/5/1 86/5/1
f 88/5/1 83/5/1 82/5/1
f 89/5/1 83/5/1 88/5/1
f 90/3/1 85/3/1 84/3/1
f 91/3/1 85/3/1 90/3/1
f 100/3/1 93/3/1 92/3/1
f 101/3/1 93/3/1 100/3/1
f 102/5/1 95/5/1 94/5/1
f 103/5/1 95/5/1 102/5/1
f 104/5/1 97/5/1 96/5/1
f 105/5/1 97/5/1 104/5/1
f 106/3/1 99/3/1 98/3/1
f 107/3/1 99/3/1 106/3/1
f 112/3/1 109/3/1 108/3/1
f 113/3/1 109/3/1 112/3/1
f 114/5/1 111/5/1 110/5/1
f 115/5/1 111/5/1 114/5/1
f 120/5/1 117/5/1 116/5/1
f 121/5/1 117/5/1 120/5/1
f 122/7/1 119/7/1 118/7/1
f 123/7/1 119/7/1 122/7/1
f 128/5/1 125/5/1 124/5/1
f 129/5/1 125/5/1 128/5/1
f 130/7/1 127/7/1 126/7/1
f 131/7/1 127/7/1 130/7/1
f 136/5/1 133/5/1 132/5/1
f 137/5/1 133/5/1 136/5/1
f 138/5/1 135/5/1 134/5/1
f 139/5/1 135/5/1 138/5/1
f 142/5/1 141/5/1 140/5/1
f 143/5/1 141/5/1 142/5/1
f 148/5/1 145/5/1 144/5/1
f 149/5/1 145/5/1 148/5/1
f 154/5/1 147/5/1 146/5/1
f 155/5/1 147/5/1 154/5/1
f 156/7/1 151/7/1 150/7/1
f 157/7/1 151/7/1 156/7/1
f 158/7/1 153/7/1 152/7/1
f 159/7/1 153/7/1 158/7/1
f 162/7/1 161/7/1 160/7/1
f 163/7/1 161/7/1 162/7/1
f 168/7/1 165/7/1 164/7/1
f 169/7/1 165/7/1 168/7/1
f 170/7/1 167/7/1 166/7/1
f 171/7/1 167/7/1 170/7/1
f 174/5/1 173/5/1 172/5/1
f 175/5/1 173/5/1 174/5/1
f 180/7/1 177/7/1 176/7/1
f 181/7/1 177/7/1 180/7/1
f 182/7/1 179/7/1 178/7/1
f 183/7/1 179/7/1 182/7/1
f 186/5/1 185/5/1 184/5/1
f 187/5/1 185/5/1 186/5/1
f 190/7/1 189/7/1 188/7/1
f 191/7/1 189/7/1 190/7/1
f 194/5/1 193/5/1 192/5/1
f 195/5/1 193/5/1 194/5/1
f 202/7/1 197/7/1 196/7/1
f 203/7/1 197/7/1 202/7/1
f 204/7/1 199/7/1 198/7/1
f 205/7/1 199/7/1 204/7/1
f 206/7/1 201/7/1 200/7/1
f 207/7/1 201/7/1 206/7/1
f 208/3/2 209/3/2 210/3/2
f 210/3/2 209/3/2 211/3/2
f 212/3/2 213/3/2 214/3/2
f 214/3/2 213/3/2 215/3/2
f 216/3/2 217/3/2 218/3/2
f 218/3/2 217/3/2 219/3/2
f 216/3/2 218/3/2 220/3/2
f 220/3/2 218/3/2 221/3/2
f 222/3/2 223/3/2 224/3/2
f 224/3/2 223/3/2 225/3/2
f 226/3/2 227/3/2 228/3/2
f 228/3/2 227/3/2 229/3/2
f 230/3/2 231/3/2 234/3/2
f 234/3/2 231/3/2 235/3/2
f 232/3/2 233/3/2 236/3/2
f 236/3/2 233/3/2 237/3/2
f 238/6/2 239/6/2 240/6/2
f 240/6/2 239/6/2 241/6/2
f 240/5/2 241/5/2 243/5/2
f 242/4/2 243/4/2 244/4/2
f 243/5/2 241/5/2 245/5/2
f 244/4/2 243/4/2 245/4/2
f 245/5/2 241/5/2 246/5/2
f 245/6/2 246/6/2 248/6/2
f 248/6/2 246/6/2 249/6/2
f 247/4/2 248/4/2 250/4/2
f 250/4/2 248/4/2 251/4/2
f 252/4/2 253/4/2 254/4/2
f 254/4/2 253/4/2 255/4/2
f 256/3/2 257/3/2 258/3/2
f 258/3/2 257/3/2 259/3/2
f 260/3/2 261/3/2 262/3/2
f 262/3/2 261/3/2 263/3/2
f 264/3/2 265/3/2 266/3/2
f 266/3/2 265/3/2 267/3/2
f 268/3/2 269/3/2 270/3/2
f 270/3/2 269/3/2 271/3/2
f 272/3/2 273/3/2 274/3/2
f 274/3/2 273/3/2 275/3/2
f 276/3/2 277/3/2 278/3/2
f 278/3/2 277/3/2 279/3/2
f 280/3/2 281/3/2 282/3/2
f 282/3/2 281/3/2 283/3/2
f 284/3/2 285/3/2 286/3/2
f 286/3/2 285/3/2 287/3/2
f 288/7/2 289/7/2 290/7/2
f 290/7/2 289/7/2 291/7/2
f 292/7/2 293/7/2 296/7/2
f 296/7/2 293/7/2 297/7/2
f 294/7/2 295/7/2 298/7/2
f 298/7/2 295/7/2 299/7/2
f 300/7/2 301/7/2 302/7/2
f 302/7/2 301/7/2 303/7/2
f 304/7/2 305/7/2 306/7/2
f 306/7/2 305/7/2 307/7/2
f 308/7/2 309/7/2 310/7/2
f 310/7/2 309/7/2 311/7/2
f 312/7/2 313/7/2 316/7/2
f 316/7/2 313/7/2 317/7/2
f 314/7/2 315/7/2 318/7/2
f 318/7/2 315/7/2 319/7/2
f 320/7/2 321/7/2 322/7/2
f 322/7/2 321/7/2 323/7/2
f 324/7/2 325/7/2 328/7/2
f 328/7/2 325/7/2 329/7/2
f 326/7/2 327/7/2 330/7/2
f 330/7/2 327/7/2 331/7/2
f 332/8/2 333/8/2 334/8/2
f 334/8/2 333/8/2 335/8/2
f 334/2/2 335/2/2 336/2/2
f 336/2/2 335/2/2 337/2/2
f 336/6/2 337/6/2 338/6/2
f 338/6/2 337/6/2 339/6/2
f 338/5/2 339/5/2 340/5/2
f 340/5/2 339/5/2 341/5/2
f 346/6/3 345/6/3 344/6/3
f 348/8/3 343/8/3 342/8/3
f 349/2/3 344/2/3 343/2/3
f 349/8/3 343/8/3 348/8/3
f 350/6/3 346/6/3 344/6/3
f 350/2/3 344/2/3 349/2/3
f 351/5/3 347/5/3 346/5/3
f 351/6/3 346/6/3 350/6/3
f 352/5/3 347/5/3 351/5/3
f 355/3/3 354/3/3 353/3/3
f 356/3/3 354/3/3 355/3/3
f 359/5/3 358/5/3 357/5/3
f 360/5/3 358/5/3 359/5/3
f 363/3/3 362/3/3 361/3/3
f 364/3/3 362/3/3 363/3/3
f 367/5/3 366/5/3 365/5/3
f 368/5/3 366/5/3 367/5/3
f 371/5/3 370/5/3 369/5/3
f 372/5/3 370/5/3 371/5/3
f 375/7/3 374/7/3 373/7/3
f 376/7/3 374/7/3 375/7/3
f 379/5/3 378/5/3 377/5/3
f 380/5/3 378/5/3 379/5/3
f 383/7/3 382/7/3 381/7/3
f 384/7/3 382/7/3 383/7/3
f 387/5/3 386/5/3 385/5/3
f 388/5/3 386/5/3 387/5/3
f 391/5/3 390/5/3 389/5/3
f 392/5/3 390/5/3 391/5/3
f 395/7/3 394/7/3 393/7/3
f 396/7/3 394/7/3 395/7/3
f 399/5/3 398/5/3 397/5/3
f 400/5/3 398/5/3 399/5/3
f 403/3/3 402/3/3 401/3/3
f 404/3/3 402/3/3 403/3/3
f 407/3/3 406/3/3 405/3/3
f 408/3/3 406/3/3 407/3/3
f 411/3/3 410/3/3 409/3/3
f 412/3/3 410/3/3 411/3/3
f 415/7/3 414/7/3 413/7/3
f 416/7/3 414/7/3 415/7/3
f 419/7/3 418/7/3 417/7/3
f 420/7/3 418/7/3 419/7/3
f 423/7/3 422/7/3 421/7/3
f 424/7/3 422/7/3 423/7/3
f 427/3/3 426/3/3 425/3/3
f 428/3/3 426/3/3 427/3/3
f 431/7/3 430/7/3 429/7/3
f 432/7/3 430/7/3 431/7/3
f 435/3/3 434/3/3 433/3/3
f 436/3/3 434/3/3 435/3/3
f 439/3/3 438/3/3 437/3/3
f 440/3/3 438/3/3 439/3/3
f 443/3/3 442/3/3 441/3/3
f 444/3/3 442/3/3 443/3/3
f 447/7/3 446/7/3 445/7/3
f 448/7/3 446/7/3 447/7/3
f 451/3/3 450/3/3 449/3/3
f 453/3/3 451/3/3 449/3/3
f 453/3/3 452/3/3 451/3/3
f 454/3/3 452/3/3 453/3/3
f 457/7/3 456/7/3 455/7/3
f 458/7/3 456/7/3 457/7/3
f 461/3/3 460/3/3 459/3/3
f 462/3/3 460/3/3 461/3/3
f 464/3/3 463/3/3 462/3/3
f 465/3/3 463/3/3 464/3/3
f 469/4/3 467/4/3 466/4/3
f 470/4/3 467/4/3 469/4/3
f 472/4/3 469/4/3 468/4/3
f 473/9/3 470/9/3 469/9/3
f 473/4/3 469/4/3 472/4/3
f 474/4/3 471/4/3 470/4/3
f 474/9/3 470/9/3 473/9/3
f 475/4/3 471/4/3 474/4/3
f 476/4/3 474/4/3 473/4/3
f 477/4/3 474/4/3 476/4/3
f 480/3/3 479/3/3 478/3/3
f 481/3/3 479/3/3 480/3/3
f 484/7/3 483/7/3 482/7/3
f 485/7/3 483/7/3 484/7/3
f 488/7/3 487/7/3 486/7/3
f 489/7/3 487/7/3 488/7/3
f 492/3/3 491/3/3 490/3/3
f 493/3/3 491/3/3 492/3/3
f 497/6/3 495/6/3 494/6/3
f 498/5/3 496/5/3 495/5/3
f 498/6/3 495/6/3 497/6/3
f 499/5/3 496/5/3 498/5/3
f 502/3/3 501/3/3 500/3/3
f 503/3/3 501/3/3 502/3/3
f 506/3/3 505/3/3 504/3/3
f 507/3/3 505/3/3 506/3/3
f 508/3/4 509/3/4 510/3/4
f 510/3/4 509/3/4 511/3/4
f 512/3/4 513/3/4 514/3/4
f 514/3/4 513/3/4 515/3/4
f 516/3/4 517/3/4 518/3/4
f 518/3/4 517/3/4 519/3/4
f 520/3/4 521/3/4 522/3/4
f 522/3/4 521/3/4 523/3/4
f 524/7/4 525/7/4 526/7/4
f 526/7/4 525/7/4 527/7/4
f 528/7/4 529/7/4 530/7/4
f 530/7/4 529/7/4 531/7/4
f 532/7/4 533/7/4 534/7/4
f 534/7/4 533/7/4 535/7/4
f 536/7/4 537/7/4 538/7/4
f 538/7/4 537/7/4 539/7/4
f 540/3/4 541/3/4 542/3/4
f 542/3/4 541/3/4 543/3/4
f 544/3/4 545/3/4 546/3/4
f 546/3/4 545/3/4 547/3/4
f 548/7/4 549/7/4 550/7/4
f 550/7/4 549/7/4 551/7/4
f 552/7/4 553/7/4 554/7/4
f 554/7/4 553/7/4 555/7/4
f 556/7/4 557/7/4 558/7/4
f 558/7/4 557/7/4 559/7/4
f 560/5/4 561/5/4 562/5/4
f 562/5/4 561/5/4 563/5/4
f 564/7/4 565/7/4 566/7/4
f 566/7/4 565/7/4 567/7/4
f 568/3/4 569/3/4 570/3/4
f 570/3/4 569/3/4 571/3/4
f 572/3/4 573/3/4 574/3/4
f 574/3/4 573/3/4 575/3/4
f 576/5/4 577/5/4 578/5/4
f 578/5/4 577/5/4 579/5/4
f 580/3/4 581/3/4 582/3/4
f 582/3/4 581/3/4 583/3/4
f 584/5/4 585/5/4 586/5/4
f 586/5/4 585/5/4 587/5/4
f 588/5/4 589/5/4 590/5/4
f 590/5/4 589/5/4 591/5/4
f 592/5/4 593/5/4 594/5/4
f 594/5/4 593/5/4 595/5/4
f 596/3/4 597/3/4 598/3/4
f 598/3/4 597/3/4 599/3/4
f 600/3/4 601/3/4 602/3/4
f 602/3/4 601/3/4 603/3/4
f 604/4/4 605/4/4 606/4/4
f 606/4/4 605/4/4 607/4/4
f 607/4/4 608/4/4 610/4/4
f 610/4/4 608/4/4 611/4/4
f 609/4/4 610/4/4 612/4/4
f 612/4/4 610/4/4 613/4/4
f 614/7/4 615/7/4 616/7/4
f 616/7/4 615/7/4 617/7/4
f 618/3/4 619/3/4 620/3/4
f 620/3/4 619/3/4 621/3/4
f 618/3/4 620/3/4 622/3/4
f 622/3/4 620/3/4 623/3/4
f 624/6/4 625/6/4 628/6/4
f 625/5/4 626/5/4 629/5/4
f 628/6/4 625/6/4 629/6/4
f 626/6/4 627/6/4 630/6/4
f 629/5/4 626/5/4 630/5/4
f 630/6/4 627/6/4 631/6/4
f 632/3/4 633/3/4 634/3/4
f 634/3/4 633/3/4 635/3/4
f 636/5/4 637/5/4 638/5/4
f 638/5/4 637/5/4 639/5/4
f 640/7/4 641/7/4 642/7/4
f 642/7/4 641/7/4 643/7/4
f 644/7/4 645/7/4 646/7/4
f 646/7/4 645/7/4 647/7/4
f 648/7/4 649/7/4 650/7/4
f 650/7/4 649/7/4 651/7/4
f 652/3/4 653/3/4 654/3/4
f 654/3/4 653/3/4 655/3/4
f 656/5/4 657/5/4 658/5/4
f 658/5/4 657/5/4 659/5/4
f 660/7/4 661/7/4 662/7/4
f 662/7/4 661/7/4 663/7/4
f 664/3/4 665/3/4 666/3/4
f 666/3/4 665/3/4 667/3/4
f 668/5/4 669/5/4 670/5/4
f 670/5/4 669/5/4 671/5/4
f 674/6/4 675/6/4 676/6/4
f 672/8/4 673/8/4 678/8/4
f 673/2/4 674/2/4 679/2/4
f 678/8/4 673/8/4 679/8/4
f 674/6/4 676/6/4 680/6/4
f 679/2/4 674/2/4 680/2/4
f 676/5/4 677/5/4 681/5/4
f 680/6/4 676/6/4 681/6/4
f 681/5/4 677/5/4 682/5/4
f 685/8/5 684/8/5 683/8/5
f 686/8/5 684/8/5 685/8/5
f 689/4/5 688/4/5 687/4/5
f 690/4/5 688/4/5 689/4/5
f 695/4/5 692/4/5 691/4/5
f 696/4/5 692/4/5 695/4/5
f 697/4/5 694/4/5 693/4/5
f 698/4/5 694/4/5 697/4/5
f 699/6/6 700/6/6 701/6/6
f 701/6/6 700/6/6 702/6/6
f 702/6/6 700/6/6 703/6/6
f 703/6/6 700/6/6 704/6/6
f 699/6/6 701/6/6 705/6/6
f 705/6/6 701/6/6 706/6/6
f 706/6/6 701/6/6 707/6/6
f 702/6/6 703/6/6 709/6/6
f 709/6/6 703/6/6 710/6/6
f 707/6/6 708/6/6 712/6/6
f 706/6/6 707/6/6 712/6/6
f 712/6/6 708/6/6 713/6/6
f 713/6/6 708/6/6 714/6/6
f 714/6/6 708/6/6 715/6/6
f 715/6/6 708/6/6 716/6/6
f 716/6/6 708/6/6 717/6/6
f 702/6/6 709/6/6 718/6/6
f 718/6/6 709/6/6 719/6/6
f 719/6/6 709/6/6 720/6/6
f 699/6/6 705/6/6 721/6/6
f 721/6/6 705/6/6 722/6/6
f 722/6/6 705/6/6 723/6/6
f 711/6/6 712/6/6 724/6/6
f 712/6/6 713/6/6 724/6/6
f 713/2/6 714/2/6 725/2/6
f 724/6/6 713/6/6 725/6/6
f 714/6/6 715/6/6 726/6/6
f 725/2/6 714/2/6 726/2/6
f 715/2/6 716/2/6 727/2/6
f 726/6/6 715/6/6 727/6/6
f 727/2/6 716/2/6 728/2/6
f 716/6/6 717/6/6 729/6/6
f 728/2/6 716/2/6 729/2/6
f 717/6/6 718/6/6 729/6/6
f 718/6/6 719/6/6 729/6/6
f 729/6/6 719/6/6 730/6/6
f 730/6/6 719/6/6 731/6/6
f 731/6/6 719/6/6 732/6/6
f 699/6/6 721/6/6 733/6/6
f 733/6/6 721/6/6 734/6/6
f 721/2/6 722/2/6 735/2/6
f 734/6/6 721/6/6 735/6/6
f 722/6/6 723/6/6 736/6/6
f 735/2/6 722/2/6 736/2/6
f 723/6/6 724/6/6 736/6/6
f 724/6/6 725/6/6 736/6/6
f 725/6/6 726/6/6 736/6/6
f 736/6/6 726/6/6 737/6/6
f 726/2/6 727/2/6 738/2/6
f 737/6/6 726/6/6 738/6/6
f 727/1/6 728/1/6 739/1/6
f 738/2/6 727/2/6 739/2/6
f 729/2/6 730/2/6 740/2/6
f 739/1/6 728/1/6 740/1/6
f 728/2/6 729/2/6 740/2/6
f 740/2/6 730/2/6 741/2/6
f 730/6/6 731/6/6 742/6/6
f 742/6/6 731/6/6 743/6/6
f 734/1/6 735/1/6 744/1/6
f 735/1/6 736/1/6 744/1/6
f 736/6/6 737/6/6 745/6/6
f 744/1/6 736/1/6 745/1/6
f 745/6/6 737/6/6 746/6/6
f 746/6/6 737/6/6 747/6/6
f 737/2/6 738/2/6 748/2/6
f 747/6/6 737/6/6 748/6/6
f 738/1/6 739/1/6 749/1/6
f 748/2/6 738/2/6 749/2/6
f 739/1/6 740/1/6 749/1/6
f 740/1/6 741/1/6 749/1/6
f 749/1/6 741/1/6 750/1/6
f 741/2/6 730/2/6 751/2/6
f 750/1/6 741/1/6 751/1/6
f 730/6/6 742/6/6 752/6/6
f 751/2/6 730/2/6 752/2/6
f 752/6/6 742/6/6 753/6/6
f 753/6/6 742/6/6 754/6/6
f 733/2/6 734/2/6 755/2/6
f 699/6/6 733/6/6 755/6/6
f 734/1/6 744/1/6 756/1/6
f 755/2/6 734/2/6 756/2/6
f 745/2/6 746/2/6 757/2/6
f 756/1/6 744/1/6 757/1/6
f 744/2/6 745/2/6 757/2/6
f 746/6/6 747/6/6 758/6/6
f 757/2/6 746/2/6 758/2/6
f 749/2/6 750/2/6 759/2/6
f 758/6/6 747/6/6 759/6/6
f 747/2/6 748/2/6 759/2/6
f 748/2/6 749/2/6 759/2/6
f 759/2/6 750/2/6 760/2/6
f 750/1/6 751/1/6 761/1/6
f 760/2/6 750/2/6 761/2/6
f 752/6/6 753/6/6 762/6/6
f 761/1/6 751/1/6 762/1/6
f 751/6/6 752/6/6 762/6/6
f 762/6/6 753/6/6 763/6/6
f 760/2/6 761/2/6 764/2/6
f 757/6/6 758/6/6 764/6/6
f 762/2/6 763/2/6 764/2/6
f 761/2/6 762/2/6 764/2/6
f 758/6/6 759/6/6 764/6/6
f 759/6/6 760/6/6 764/6/6
f 763/6/6 753/6/6 765/6/6
f 764/2/6 763/2/6 765/2/6
f 756/2/6 757/2/6 766/2/6
f 755/6/6 756/6/6 766/6/6
f 757/6/6 764/6/6 767/6/6
f 766/2/6 757/2/6 767/2/6
f 764/6/6 765/6/6 767/6/6
f 765/6/6 753/6/6 768/6/6
f 767/6/6 765/6/6 768/6/6
f 768/6/6 753/6/6 769/6/6
f 766/6/6 767/6/6 770/6/6
f 767/6/6 768/6/6 770/6/6
f 770/6/6 768/6/6 771/6/6
f 771/6/6 768/6/6 772/6/6
f 772/6/6 768/6/6 773/6/6
f 771/6/6 772/6/6 774/6/6
f 774/6/6 772/6/6 775/6/6
f 773/6/6 768/6/6 776/6/6
f 766/6/6 770/6/6 777/6/6
f 775/6/6 776/6/6 778/6/6
f 777/6/6 778/6/6 779/6/6
f 776/6/6 768/6/6 780/6/6
f 779/6/6 778/6/6 780/6/6
f 778/6/6 776/6/6 780/6/6
f 780/6/6 768/6/6 781/6/6
f 781/6/6 768/6/6 782/6/6
f 777/6/6 779/6/6 783/6/6
f 779/2/6 780/2/6 784/2/6
f 783/6/6 779/6/6 784/6/6
f 784/2/6 780/2/6 785/2/6
f 780/6/6 781/6/6 786/6/6
f 785/2/6 780/2/6 786/2/6
f 781/2/6 782/2/6 787/2/6
f 786/6/6 781/6/6 787/6/6
f 782/6/6 768/6/6 788/6/6
f 787/2/6 782/2/6 788/2/6
f 784/2/6 785/2/6 789/2/6
f 783/2/6 784/2/6 789/2/6
f 785/1/6 786/1/6 790/1/6
f 789/2/6 785/2/6 790/2/6
f 786/2/6 787/2/6 791/2/6
f 790/1/6 786/1/6 791/1/6
f 787/1/6 788/1/6 792/1/6
f 791/2/6 787/2/6 792/2/6
f 788/6/6 768/6/6 793/6/6
f 792/1/6 788/1/6 793/1/6
f 793/6/6 768/6/6 794/6/6
f 794/6/6 768/6/6 795/6/6
f 795/6/6 768/6/6 796/6/6
f 766/6/6 777/6/6 797/6/6
f 777/6/6 783/6/6 797/6/6
f 783/2/6 789/2/6 798/2/6
f 797/6/6 783/6/6 798/6/6
f 789/1/6 790/1/6 799/1/6
f 798/2/6 789/2/6 799/2/6
f 791/1/6 792/1/6 799/1/6
f 790/1/6 791/1/6 799/1/6
f 799/1/6 792/1/6 800/1/6
f 793/2/6 794/2/6 801/2/6
f 800/1/6 792/1/6 801/1/6
f 792/2/6 793/2/6 801/2/6
f 801/2/6 794/2/6 802/2/6
f 797/2/6 798/2/6 803/2/6
f 798/1/6 799/1/6 803/1/6
f 799/2/6 800/2/6 804/2/6
f 803/1/6 799/1/6 804/1/6
f 801/1/6 802/1/6 805/1/6
f 804/2/6 800/2/6 805/2/6
f 800/1/6 801/1/6 805/1/6
f 805/1/6 802/1/6 806/1/6
f 802/2/6 794/2/6 807/2/6
f 806/1/6 802/1/6 807/1/6
f 807/2/6 794/2/6 808/2/6
f 797/2/6 803/2/6 809/2/6
f 766/6/6 797/6/6 809/6/6
f 803/2/6 804/2/6 809/2/6
f 809/2/6 804/2/6 810/2/6
f 805/1/6 806/1/6 811/1/6
f 804/1/6 805/1/6 811/1/6
f 806/2/6 807/2/6 812/2/6
f 811/1/6 806/1/6 812/1/6
f 807/1/6 808/1/6 813/1/6
f 812/2/6 807/2/6 813/2/6
f 808/2/6 794/2/6 814/2/6
f 813/1/6 808/1/6 814/1/6
f 794/6/6 795/6/6 815/6/6
f 814/2/6 794/2/6 815/2/6
f 815/6/6 795/6/6 816/6/6
f 816/6/6 795/6/6 817/6/6
f 796/6/6 768/6/6 818/6/6
f 810/2/6 804/2/6 820/2/6
f 809/6/6 810/6/6 820/6/6
f 804/1/6 811/1/6 821/1/6
f 820/2/6 804/2/6 821/2/6
f 811/2/6 812/2/6 822/2/6
f 821/1/6 811/1/6 822/1/6
f 822/2/6 812/2/6 823/2/6
f 813/6/6 814/6/6 824/6/6
f 815/6/6 816/6/6 824/6/6
f 814/6/6 815/6/6 824/6/6
f 824/6/6 816/6/6 825/6/6
f 818/6/6 819/6/6 827/6/6
f 796/6/6 818/6/6 827/6/6
f 823/2/6 812/2/6 828/2/6
f 812/1/6 813/1/6 828/1/6
f 813/6/6 824/6/6 829/6/6
f 828/1/6 813/1/6 829/1/6
f 829/6/6 824/6/6 830/6/6
f 830/6/6 824/6/6 831/6/6
f 826/6/6 827/6/6 833/6/6
f 827/6/6 819/6/6 834/6/6
f 833/6/6 827/6/6 834/6/6
f 820/6/6 821/6/6 836/6/6
f 821/2/6 822/2/6 836/2/6
f 822/6/6 823/6/6 837/6/6
f 836/2/6 822/2/6 837/2/6
f 823/2/6 828/2/6 838/2/6
f 837/6/6 823/6/6 838/6/6
f 828/2/6 829/2/6 838/2/6
f 829/6/6 830/6/6 839/6/6
f 838/2/6 829/2/6 839/2/6
f 839/6/6 830/6/6 840/6/6
f 833/6/6 834/6/6 841/6/6
f 834/6/6 835/6/6 841/6/6
f 832/6/6 833/6/6 841/6/6
f 839/6/6 840/6/6 842/6/6
f 840/6/6 841/6/6 842/6/6
f 841/6/6 835/6/6 842/6/6
f 838/6/6 839/6/6 842/6/6
f 836/6/6 837/6/6 842/6/6
f 837/6/6 838/6/6 842/6/6
f 836/6/6 842/6/6 844/6/6
f 842/6/6 843/6/6 844/6/6
f 844/6/6 843/6/6 845/6/6
f 844/2/6 845/2/6 846/2/6
f 845/6/6 843/6/6 847/6/6
f 846/2/6 845/2/6 847/2/6
f 847/6/6 843/6/6 848/6/6
f 836/6/6 844/6/6 850/6/6
f 850/6/6 844/6/6 851/6/6
f 844/2/6 846/2/6 852/2/6
f 851/6/6 844/6/6 852/6/6
f 846/1/6 847/1/6 853/1/6
f 852/2/6 846/2/6 853/2/6
f 848/6/6 849/6/6 854/6/6
f 853/1/6 847/1/6 854/1/6
f 847/6/6 848/6/6 854/6/6
f 755/6/6 766/6/6 855/6/6
f 766/6/6 809/6/6 855/6/6
f 820/6/6 836/6/6 855/6/6
f 836/6/6 850/6/6 855/6/6
f 809/6/6 820/6/6 855/6/6
f 855/6/6 850/6/6 856/6/6
f 850/1/6 851/1/6 857/1/6
f 856/6/6 850/6/6 857/6/6
f 851/2/6 852/2/6 858/2/6
f 857/1/6 851/1/6 858/1/6
f 854/6/6 849/6/6 859/6/6
f 699/6/6 755/6/6 861/6/6
f 755/6/6 855/6/6 861/6/6
f 861/6/6 855/6/6 862/6/6
f 856/6/6 857/6/6 863/6/6
f 857/2/6 858/2/6 864/2/6
f 863/6/6 857/6/6 864/6/6
f 858/2/6 852/2/6 865/2/6
f 864/2/6 858/2/6 865/2/6
f 852/1/6 853/1/6 865/1/6
f 853/2/6 854/2/6 866/2/6
f 865/1/6 853/1/6 866/1/6
f 859/6/6 860/6/6 867/6/6
f 866/2/6 854/2/6 867/2/6
f 854/6/6 859/6/6 867/6/6
f 867/6/6 860/6/6 868/6/6
f 868/6/6 860/6/6 869/6/6
f 856/6/6 863/6/6 870/6/6
f 870/6/6 863/6/6 871/6/6
f 863/2/6 864/2/6 872/2/6
f 865/1/6 866/1/6 872/1/6
f 864/1/6 865/1/6 872/1/6
f 866/1/6 867/1/6 872/1/6
f 872/1/6 867/1/6 873/1/6
f 873/1/6 867/1/6 874/1/6
f 867/6/6 868/6/6 875/6/6
f 874/1/6 867/1/6 875/1/6
f 869/6/6 860/6/6 876/6/6
f 876/6/6 860/6/6 877/6/6
f 699/6/6 861/6/6 878/6/6
f 856/6/6 870/6/6 879/6/6
f 879/6/6 870/6/6 880/6/6
f 871/6/6 863/6/6 881/6/6
f 863/2/6 872/2/6 882/2/6
f 872/2/6 873/2/6 882/2/6
f 881/6/6 863/6/6 882/6/6
f 873/1/6 874/1/6 883/1/6
f 882/2/6 873/2/6 883/2/6
f 874/2/6 875/2/6 884/2/6
f 883/1/6 874/1/6 884/1/6
f 884/2/6 875/2/6 885/2/6
f 875/6/6 868/6/6 886/6/6
f 885/2/6 875/2/6 886/2/6
f 886/6/6 868/6/6 887/6/6
f 877/6/6 860/6/6 889/6/6
f 884/1/6 885/1/6 891/1/6
f 883/2/6 884/2/6 891/2/6
f 887/6/6 888/6/6 892/6/6
f 891/1/6 885/1/6 892/1/6
f 885/6/6 886/6/6 892/6/6
f 886/6/6 887/6/6 892/6/6
f 889/6/6 890/6/6 893/6/6
f 877/6/6 889/6/6 893/6/6
f 893/6/6 890/6/6 894/6/6
f 879/6/6 880/6/6 895/6/6
f 883/2/6 891/2/6 895/2/6
f 881/6/6 882/6/6 895/6/6
f 891/2/6 892/2/6 895/2/6
f 878/6/6 879/6/6 895/6/6
f 880/6/6 881/6/6 895/6/6
f 882/6/6 883/6/6 895/6/6
f 892/6/6 888/6/6 896/6/6
f 895/2/6 892/2/6 896/2/6
f 896/6/6 888/6/6 897/6/6
f 894/6/6 890/6/6 899/6/6
f 897/6/6 898/6/6 901/6/6
f 895/6/6 896/6/6 901/6/6
f 896/6/6 897/6/6 901/6/6
f 894/6/6 899/6/6 902/6/6
f 899/6/6 900/6/6 902/6/6
f 902/6/6 900/6/6 903/6/6
f 895/6/6 901/6/6 905/6/6
f 903/6/6 904/6/6 905/6/6
f 902/6/6 903/6/6 905/6/6
f 901/6/6 902/6/6 905/6/6
f 699/6/6 878/6/6 905/6/6
f 878/6/6 895/6/6 905/6/6
f 905/6/6 904/6/6 906/6/6
f 907/5/6 908/5/6 912/5/6
f 909/3/6 910/3/6 915/3/6
f 915/3/6 910/3/6 916/3/6
f 911/5/6 912/5/6 918/5/6
f 913/3/6 914/3/6 919/3/6
f 919/3/6 914/3/6 920/3/6
f 916/3/6 910/3/6 921/3/6
f 921/3/6 910/3/6 922/3/6
f 917/5/6 918/5/6 924/5/6
f 912/5/6 908/5/6 925/5/6
f 918/5/6 912/5/6 925/5/6
f 924/5/6 918/5/6 925/5/6
f 925/5/6 908/5/6 926/5/6
f 913/3/6 919/3/6 927/3/6
f 927/3/6 919/3/6 928/3/6
f 923/5/6 924/5/6 930/5/6
f 924/5/6 925/5/6 930/5/6
f 930/5/6 925/5/6 931/5/6
f 931/5/6 925/5/6 932/5/6
f 929/5/6 930/5/6 934/5/6
f 930/5/6 931/5/6 934/5/6
f 934/5/6 931/5/6 935/5/6
f 933/5/6 934/5/6 938/5/6
f 935/5/6 936/5/6 938/5/6
f 934/5/6 935/5/6 938/5/6
f 938/5/6 936/5/6 939/5/6
f 939/5/6 936/5/6 940/5/6
f 926/5/6 908/5/6 942/5/6
f 937/5/6 938/5/6 943/5/6
f 938/5/6 939/5/6 943/5/6
f 943/5/6 939/5/6 944/5/6
f 944/5/6 939/5/6 945/5/6
f 945/5/6 939/5/6 946/5/6
f 946/5/6 939/5/6 947/5/6
f 947/5/6 939/5/6 948/5/6
f 948/5/6 939/5/6 949/5/6
f 937/5/6 943/5/6 952/5/6
f 943/2/6 944/2/6 953/2/6
f 944/5/6 945/5/6 954/5/6
f 953/2/6 944/2/6 954/2/6
f 945/2/6 946/2/6 955/2/6
f 954/5/6 945/5/6 955/5/6
f 946/5/6 947/5/6 956/5/6
f 955/2/6 946/2/6 956/2/6
f 947/2/6 948/2/6 957/2/6
f 956/5/6 947/5/6 957/5/6
f 949/5/6 950/5/6 958/5/6
f 957/2/6 948/2/6 958/2/6
f 948/5/6 949/5/6 958/5/6
f 958/5/6 950/5/6 959/5/6
f 941/5/6 942/5/6 960/5/6
f 951/5/6 952/5/6 961/5/6
f 943/2/6 953/2/6 961/2/6
f 952/5/6 943/5/6 961/5/6
f 953/1/6 954/1/6 962/1/6
f 961/2/6 953/2/6 962/2/6
f 954/2/6 955/2/6 963/2/6
f 962/1/6 954/1/6 963/1/6
f 963/2/6 955/2/6 964/2/6
f 958/5/6 959/5/6 965/5/6
f 964/2/6 955/2/6 965/2/6
f 956/5/6 957/5/6 965/5/6
f 959/5/6 960/5/6 965/5/6
f 957/5/6 958/5/6 965/5/6
f 955/5/6 956/5/6 965/5/6
f 965/5/6 960/5/6 966/5/6
f 963/1/6 964/1/6 971/1/6
f 962/2/6 963/2/6 971/2/6
f 964/2/6 965/2/6 972/2/6
f 971/1/6 964/1/6 972/1/6
f 965/2/6 966/2/6 972/2/6
f 972/2/6 966/2/6 973/2/6
f 966/5/6 960/5/6 974/5/6
f 973/2/6 966/2/6 974/2/6
f 967/3/6 968/3/6 975/3/6
f 969/3/6 970/3/6 976/3/6
f 976/3/6 970/3/6 977/3/6
f 961/5/6 962/5/6 978/5/6
f 962/2/6 971/2/6 978/2/6
f 972/2/6 973/2/6 978/2/6
f 971/2/6 972/2/6 978/2/6
f 973/5/6 974/5/6 979/5/6
f 978/2/6 973/2/6 979/2/6
f 967/3/6 975/3/6 980/3/6
f 975/3/6 976/3/6 980/3/6
f 980/3/6 976/3/6 981/3/6
f 979/5/6 974/5/6 982/5/6
f 978/5/6 979/5/6 982/5/6
f 974/5/6 960/5/6 983/5/6
f 982/5/6 974/5/6 983/5/6
f 978/5/6 982/5/6 984/5/6
f 951/5/6 961/5/6 984/5/6
f 961/5/6 978/5/6 984/5/6
f 984/5/6 982/5/6 985/5/6
f 983/5/6 960/5/6 986/5/6
f 986/5/6 960/5/6 987/5/6
f 951/5/6 984/5/6 988/5/6
f 987/5/6 960/5/6 991/5/6
f 990/5/6 991/5/6 994/5/6
f 994/5/6 991/5/6 995/5/6
f 988/5/6 989/5/6 996/5/6
f 995/5/6 991/5/6 998/5/6
f 991/5/6 960/5/6 998/5/6
f 942/5/6 908/5/6 999/5/6
f 998/5/6 960/5/6 999/5/6
f 960/5/6 942/5/6 999/5/6
f 992/3/6 993/3/6 1001/3/6
f 996/5/6 997/5/6 1002/5/6
f 951/5/6 988/5/6 1002/5/6
f 988/5/6 996/5/6 1002/5/6
f 1002/5/6 997/5/6 1003/5/6
f 1003/5/6 997/5/6 1004/5/6
f 995/5/6 998/5/6 1005/5/6
f 998/2/6 999/2/6 1006/2/6
f 1005/5/6 998/5/6 1006/5/6
f 1006/2/6 999/2/6 1007/2/6
f 1000/3/6 1001/3/6 1009/3/6
f 1001/3/6 993/3/6 1010/3/6
f 1009/3/6 1001/3/6 1010/3/6
f 1010/3/6 993/3/6 1011/3/6
f 1006/1/6 1007/1/6 1012/1/6
f 1003/5/6 1004/5/6 1012/5/6
f 1004/5/6 1005/5/6 1012/5/6
f 1005/5/6 1006/5/6 1012/5/6
f 1012/1/6 1007/1/6 1013/1/6
f 1007/2/6 999/2/6 1014/2/6
f 1013/1/6 1007/1/6 1014/1/6
f 999/5/6 908/5/6 1015/5/6
f 1014/2/6 999/2/6 1015/2/6
f 1009/3/6 1010/3/6 1017/3/6
f 1008/3/6 1009/3/6 1017/3/6
f 1017/3/6 1010/3/6 1018/3/6
f 1018/3/6 1010/3/6 1019/3/6
f 1003/5/6 1012/5/6 1020/5/6
f 1020/5/6 1012/5/6 1021/5/6
f 1013/1/6 1014/1/6 1022/1/6
f 1012/2/6 1013/2/6 1022/2/6
f 1014/5/6 1015/5/6 1023/5/6
f 1022/1/6 1014/1/6 1023/1/6
f 1015/5/6 908/5/6 1024/5/6
f 1023/5/6 1015/5/6 1024/5/6
f 1016/3/6 1017/3/6 1025/3/6
f 1017/3/6 1018/3/6 1025/3/6
f 1025/3/6 1018/3/6 1026/3/6
f 1021/5/6 1012/5/6 1027/5/6
f 1027/5/6 1012/5/6 1028/5/6
f 1022/2/6 1023/2/6 1029/2/6
f 1028/5/6 1012/5/6 1029/5/6
f 1012/2/6 1022/2/6 1029/2/6
f 1023/2/6 1024/2/6 1029/2/6
f 1024/5/6 908/5/6 1030/5/6
f 1029/2/6 1024/2/6 1030/2/6
f 1021/5/6 1027/5/6 1031/5/6
f 1031/5/6 1027/5/6 1032/5/6
f 1027/2/6 1028/2/6 1033/2/6
f 1032/5/6 1027/5/6 1033/5/6
f 1033/2/6 1028/2/6 1034/2/6
f 1034/2/6 1028/2/6 1035/2/6
f 1028/5/6 1029/5/6 1036/5/6
f 1035/2/6 1028/2/6 1036/2/6
f 1029/5/6 1030/5/6 1036/5/6
f 1033/5/6 1034/5/6 1037/5/6
f 1032/5/6 1033/5/6 1037/5/6
f 1034/1/6 1035/1/6 1038/1/6
f 1037/5/6 1034/5/6 1038/5/6
f 1035/5/6 1036/5/6 1039/5/6
f 1038/1/6 1035/1/6 1039/1/6
f 1036/5/6 1030/5/6 1040/5/6
f 1039/5/6 1036/5/6 1040/5/6
f 1038/1/6 1039/1/6 1041/1/6
f 1037/2/6 1038/2/6 1041/2/6
f 1039/2/6 1040/2/6 1042/2/6
f 1041/1/6 1039/1/6 1042/1/6
f 1040/5/6 1030/5/6 1043/5/6
f 1042/2/6 1040/2/6 1043/2/6
f 1032/5/6 1037/5/6 1044/5/6
f 1044/5/6 1037/5/6 1045/5/6
f 1041/2/6 1042/2/6 1046/2/6
f 1045/5/6 1037/5/6 1046/5/6
f 1037/2/6 1041/2/6 1046/2/6
f 1042/5/6 1043/5/6 1047/5/6
f 1046/2/6 1042/2/6 1047/2/6
f 1047/5/6 1043/5/6 1048/5/6
f 1046/5/6 1047/5/6 1048/5/6
f 1045/5/6 1046/5/6 1048/5/6
f 1043/5/6 1030/5/6 1048/5/6
f 1048/5/6 1030/5/6 1049/5/6
f 1045/5/6 1048/5/6 1052/5/6
f 1052/5/6 1048/5/6 1053/5/6
f 1049/5/6 1030/5/6 1054/5/6
f 1054/5/6 1030/5/6 1055/5/6
f 1050/3/6 1051/3/6 1057/3/6
f 1057/3/6 1051/3/6 1058/3/6
f 1053/5/6 1048/5/6 1062/5/6
f 1062/5/6 1048/5/6 1063/5/6
f 1055/5/6 1030/5/6 1064/5/6
f 1030/5/6 908/5/6 1065/5/6
f 1064/5/6 1030/5/6 1065/5/6
f 1056/3/6 1057/3/6 1066/3/6
f 1066/3/6 1057/3/6 1067/3/6
f 1058/3/6 1059/3/6 1068/3/6
f 1060/3/6 1061/3/6 1069/3/6
f 1053/5/6 1062/5/6 1071/5/6
f 1067/3/6 1068/3/6 1073/3/6
f 1068/3/6 1059/3/6 1074/3/6
f 1073/3/6 1068/3/6 1074/3/6
f 1069/3/6 1070/3/6 1075/3/6
f 1060/3/6 1069/3/6 1075/3/6
f 1075/3/6 1070/3/6 1076/3/6
f 1071/5/6 1072/5/6 1077/5/6
f 1053/5/6 1071/5/6 1077/5/6
f 1077/5/6 1072/5/6 1078/5/6
f 1065/5/6 908/5/6 1080/5/6
f 1076/3/6 1070/3/6 1081/3/6
f 1078/5/6 1072/5/6 1083/5/6
f 1079/5/6 1080/5/6 1086/5/6
f 1081/3/6 1082/3/6 1087/3/6
f 1076/3/6 1081/3/6 1087/3/6
f 1087/3/6 1082/3/6 1088/3/6
f 1083/5/6 1084/5/6 1089/5/6
f 1078/5/6 1083/5/6 1089/5/6
f 1089/5/6 1084/5/6 1090/5/6
f 1090/5/6 1084/5/6 1091/5/6
f 1085/5/6 1086/5/6 1092/5/6
f 1088/3/6 1082/3/6 1093/3/6
f 1093/3/6 1082/3/6 1094/3/6
f 1091/5/6 1092/5/6 1095/5/6
f 1090/5/6 1091/5/6 1095/5/6
f 1095/5/6 1092/5/6 1096/5/6
f 1096/5/6 1092/5/6 1097/5/6
f 1080/5/6 908/5/6 1098/5/6
f 1097/5/6 1092/5/6 1098/5/6
f 1086/5/6 1080/5/6 1098/5/6
f 1092/5/6 1086/5/6 1098/5/6
f 1099/7/6 1100/7/6 1102/7/6
f 1101/7/6 1102/7/6 1103/7/6
f 1102/7/6 1100/7/6 1104/7/6
f 1103/7/6 1102/7/6 1104/7/6
f 1104/7/6 1100/7/6 1106/7/6
f 1106/7/6 1100/7/6 1107/7/6
f 1105/7/6 1106/7/6 1107/7/6
f 1107/7/6 1100/7/6 1108/7/6
f 1105/7/6 1107/7/6 1109/7/6
f 1109/7/6 1107/7/6 1110/7/6
f 1110/7/6 1107/7/6 1111/7/6
f 1111/7/6 1107/7/6 1112/7/6
f 1113/7/6 1114/7/6 1116/7/6
f 1116/7/6 1114/7/6 1117/7/6
f 1115/7/6 1116/7/6 1119/7/6
f 1117/7/6 1118/7/6 1119/7/6
f 1116/7/6 1117/7/6 1119/7/6
f 1119/7/6 1118/7/6 1120/7/6
f 1120/7/6 1118/7/6 1121/7/6
f 1121/7/6 1118/7/6 1122/7/6
f 1120/7/6 1121/7/6 1123/7/6
f 1120/7/6 1123/7/6 1125/7/6
f 1123/7/6 1124/7/6 1125/7/6
f 1125/7/6 1124/7/6 1126/7/6
f 1126/7/6 1124/7/6 1127/7/6
f 1127/7/6 1124/7/6 1128/7/6
f 1129/7/6 1130/7/6 1133/7/6
f 1131/3/6 1132/3/6 1136/3/6
f 1136/3/6 1132/3/6 1137/3/6
f 1133/7/6 1134/7/6 1139/7/6
f 1129/7/6 1133/7/6 1139/7/6
f 1139/7/6 1134/7/6 1140/7/6
f 1135/3/6 1136/3/6 1143/3/6
f 1143/3/6 1136/3/6 1144/3/6
f 1139/7/6 1140/7/6 1145/7/6
f 1140/7/6 1141/7/6 1145/7/6
f 1138/7/6 1139/7/6 1145/7/6
f 1145/7/6 1141/7/6 1146/7/6
f 1142/3/6 1143/3/6 1147/3/6
f 1147/3/6 1143/3/6 1148/3/6
f 1146/7/6 1141/7/6 1149/7/6
f 1149/7/6 1141/7/6 1150/7/6
f 1146/7/6 1149/7/6 1151/7/6
f 1151/7/6 1149/7/6 1152/7/6
f 1152/7/6 1149/7/6 1153/7/6
f 1153/7/6 1149/7/6 1154/7/6
f 1152/7/6 1153/7/6 1155/7/6
f 1155/7/6 1153/7/6 1156/7/6
f 1157/4/6 1158/4/6 1161/4/6
f 1161/4/6 1158/4/6 1162/4/6
f 1159/4/6 1160/4/6 1163/4/6
f 1163/4/6 1160/4/6 1164/4/6
f 1162/6/6 1163/6/6 1165/6/6
f 1165/6/6 1163/6/6 1166/6/6
f 1167/4/6 1168/4/6 1169/4/6
f 1169/4/6 1168/4/6 1170/4/6
