# MagicaVoxel @ Ephtracy

# group
o 

# material
mtllib Hills_Lake_IslandPlatform_1.mtl
usemtl palette

# normals
vn -1 0 0
vn 1 0 0
vn 0 0 1
vn 0 0 -1
vn 0 -1 0
vn 0 1 0

# texcoords
vt 0.537109 0.5
vt 0.701172 0.5
vt 0.837891 0.5
vt 0.904297 0.5
vt 0.908203 0.5
vt 0.912109 0.5
vt 0.916016 0.5
vt 0.982422 0.5
vt 0.986328 0.5
vt 0.990234 0.5

# verts
v -2 0 2
v -2 0 -2
v -2 0.3 2
v -2 0.3 -2
v -2 0.5 2
v -2 0.5 -1
v -2 0.5 -2
v -2 0.6 2
v -2 0.6 1.2
v -2 0.6 1.1
v -2 0.6 -1
v -2 0.6 -2
v -2 0.7 2
v -2 0.7 1.3
v -2 0.7 1.2
v -2 0.7 1.1
v -2 0.7 0.9
v -2 0.7 -1
v -2 0.8 2
v -2 0.8 1.6
v -2 0.8 1.3
v -2 0.8 0.9
v -2 0.8 -0.3
v -2 0.8 -1
v -2 0.9 1.6
v -2 0.9 1.5
v -2 0.9 1.3
v -2 0.9 0.9
v -2 0.9 0.0999999
v -2 0.9 -0.3
v -2 1 1.5
v -2 1 1.3
v -2 1 0.9
v -2 1 0.5
v -2 1 0.0999999
v -2 1.1 0.9
v -2 1.1 0.5
v -1.9 0.8 1.8
v -1.9 0.8 1.6
v -1.9 0.9 1.8
v -1.9 0.9 1.6
v -1.8 0.8 1.9
v -1.8 0.8 1.8
v -1.8 0.9 1.9
v -1.8 0.9 1.8
v -1.3 0.7 1
v -1.3 0.7 0.9
v -1.3 0.8 1.3
v -1.3 0.8 1.2
v -1.3 0.8 1
v -1.3 0.8 0.9
v -1.3 0.9 1.3
v -1.3 0.9 1.2
v -1.3 0.9 1
v -1.3 0.9 0.9
v -0.8 0.6 1.3
v -0.8 0.6 0.9
v -0.8 0.7 1.3
v -0.8 0.7 0.9
v -0.8 0.8 1.3
v -0.8 0.8 1.2
v -0.8 0.8 1
v -0.8 0.8 0.9
v -0.8 0.9 1.3
v -0.8 0.9 1.2
v -0.8 0.9 1
v -0.8 0.9 0.9
v -0.7 0.6 1.6
v -0.7 0.6 1.3
v -0.7 0.6 0.9
v -0.7 0.6 0.7
v -0.7 0.6 -1.7
v -0.7 0.6 -2
v -0.7 0.7 1.6
v -0.7 0.7 1.5
v -0.7 0.7 1.3
v -0.7 0.7 0.9
v -0.7 0.7 0.8
v -0.7 0.7 0.7
v -0.7 0.7 -1.7
v -0.7 0.7 -1.8
v -0.7 0.7 -2
v -0.7 0.8 1.5
v -0.7 0.8 1.3
v -0.7 0.8 0.9
v -0.7 0.8 0.8
v -0.7 0.8 -1.8
v -0.7 0.8 -2
v -0.6 0.6 1.8
v -0.6 0.6 1.6
v -0.6 0.6 0.7
v -0.6 0.6 0.4
v -0.6 0.6 -1.6
v -0.6 0.6 -1.7
v -0.6 0.7 1.8
v -0.6 0.7 1.6
v -0.6 0.7 0.7
v -0.6 0.7 0.5
v -0.6 0.7 0.4
v -0.6 0.7 -1.6
v -0.6 0.7 -1.7
v -0.6 0.8 0.7
v -0.6 0.8 0.5
v -0.6 0.8 -1.9
v -0.6 0.8 -2
v -0.6 0.9 -1.9
v -0.6 0.9 -2
v -0.5 0.6 1.9
v -0.5 0.6 1.8
v -0.5 0.6 0.4
v -0.5 0.6 0.2
v -0.5 0.7 1.9
v -0.5 0.7 1.8
v -0.5 0.7 1.7
v -0.5 0.7 1.5
v -0.5 0.7 0.8
v -0.5 0.7 0.7
v -0.5 0.7 0.4
v -0.5 0.7 0.2
v -0.5 0.7 -1.7
v -0.5 0.7 -1.8
v -0.5 0.8 1.7
v -0.5 0.8 1.5
v -0.5 0.8 0.8
v -0.5 0.8 0.7
v -0.5 0.8 -1.7
v -0.5 0.8 -1.8
v -0.4 0.6 2
v -0.4 0.6 1.9
v -0.4 0.6 -1.5
v -0.4 0.6 -1.6
v -0.4 0.7 2
v -0.4 0.7 1.9
v -0.4 0.7 1.8
v -0.4 0.7 1.7
v -0.4 0.7 0.5
v -0.4 0.7 0.3
v -0.4 0.7 -1.5
v -0.4 0.7 -1.6
v -0.4 0.8 1.8
v -0.4 0.8 1.7
v -0.4 0.8 0.5
v -0.4 0.8 0.3
v -0.4 0.8 -1.8
v -0.4 0.8 -1.9
v -0.4 0.9 -1.8
v -0.4 0.9 -1.9
v -0.3 0.6 0.2
v -0.3 0.6 0.0999999
v -0.3 0.6 -1.4
v -0.3 0.6 -1.5
v -0.3 0.7 2
v -0.3 0.7 1.8
v -0.3 0.7 0.2
v -0.3 0.7 0.0999999
v -0.3 0.7 -1.4
v -0.3 0.7 -1.5
v -0.3 0.7 -1.6
v -0.3 0.7 -1.7
v -0.3 0.8 2
v -0.3 0.8 1.8
v -0.3 0.8 -1.6
v -0.3 0.8 -1.7
v -0.2 0.6 -1.2
v -0.2 0.6 -1.4
v -0.2 0.7 0.3
v -0.2 0.7 0.0999999
v -0.2 0.7 -1.2
v -0.2 0.7 -1.4
v -0.2 0.7 -1.5
v -0.2 0.7 -1.6
v -0.2 0.8 0.3
v -0.2 0.8 0.0999999
v -0.2 0.8 -1.5
v -0.2 0.8 -1.6
v -0.2 0.8 -1.7
v -0.2 0.8 -1.8
v -0.2 0.9 -1.7
v -0.2 0.9 -1.8
v -0.0999999 0.6 0.0999999
v -0.0999999 0.6 -2.38419e-07
v -0.0999999 0.6 -1.1
v -0.0999999 0.6 -1.2
v -0.0999999 0.7 2
v -0.0999999 0.7 1.9
v -0.0999999 0.7 0.0999999
v -0.0999999 0.7 -2.38419e-07
v -0.0999999 0.7 -1.1
v -0.0999999 0.7 -1.2
v -0.0999999 0.7 -1.4
v -0.0999999 0.7 -1.5
v -0.0999999 0.8 2
v -0.0999999 0.8 1.9
v -0.0999999 0.8 -1.4
v -0.0999999 0.8 -1.5
v -0.0999999 0.8 -1.6
v -0.0999999 0.8 -1.7
v -0.0999999 0.9 -1.6
v -0.0999999 0.9 -1.7
v 2.38419e-07 0.6 -0.8
v 2.38419e-07 0.6 -1.1
v 2.38419e-07 0.7 -0.8
v 2.38419e-07 0.7 -1.1
v 2.38419e-07 0.7 -1.2
v 2.38419e-07 0.7 -1.4
v 2.38419e-07 0.8 -1.2
v 2.38419e-07 0.8 -1.4
v 0.1 0.6 -0.5
v 0.1 0.6 -0.8
v 0.1 0.7 -0.5
v 0.1 0.7 -0.8
v 0.1 0.7 -0.9
v 0.1 0.7 -1.2
v 0.1 0.8 -0.9
v 0.1 0.8 -1.2
v 0.1 0.8 -1.3
v 0.1 0.8 -1.6
v 0.1 0.9 -1.3
v 0.1 0.9 -1.6
v 0.2 0.6 -0.4
v 0.2 0.6 -0.5
v 0.2 0.7 -0.4
v 0.2 0.7 -0.5
v 0.2 0.7 -0.7
v 0.2 0.7 -0.9
v 0.2 0.8 -0.7
v 0.2 0.8 -0.9
v 0.2 0.8 -1.1
v 0.2 0.8 -1.3
v 0.2 0.9 -1.1
v 0.2 0.9 -1.3
v 0.2 0.9 -1.7
v 0.2 0.9 -2
v 0.2 1 -1.7
v 0.2 1 -2
v 0.3 0.7 0.2
v 0.3 0.7 0.0999999
v 0.3 0.7 -0.6
v 0.3 0.7 -0.7
v 0.3 0.8 0.2
v 0.3 0.8 0.0999999
v 0.3 0.8 -0.6
v 0.3 0.8 -0.7
v 0.3 0.8 -0.9
v 0.3 0.8 -1.1
v 0.3 0.9 -0.9
v 0.3 0.9 -1.1
v 0.3 0.9 -1.5
v 0.3 0.9 -1.7
v 0.3 1 -1.5
v 0.3 1 -1.7
v 0.4 0.8 -0.8
v 0.4 0.8 -0.9
v 0.4 0.9 -0.8
v 0.4 0.9 -0.9
v 0.4 0.9 -1.4
v 0.4 0.9 -1.5
v 0.4 1 -1.4
v 0.4 1 -1.5
v 0.5 0.7 -0.5
v 0.5 0.7 -0.6
v 0.5 0.8 -0.5
v 0.5 0.8 -0.6
v 0.5 0.9 -1.2
v 0.5 0.9 -1.4
v 0.5 1 -1.2
v 0.5 1 -1.4
v 0.5 1 -1.5
v 0.5 1 -2
v 0.5 1.1 -1.5
v 0.5 1.1 -2
v 0.6 0.8 -0.7
v 0.6 0.8 -0.8
v 0.6 0.9 -0.7
v 0.6 0.9 -0.8
v 0.6 0.9 -1.1
v 0.6 0.9 -1.2
v 0.6 1 -1.1
v 0.6 1 -1.2
v 0.6 1 -1.4
v 0.6 1 -1.5
v 0.6 1.1 -1.4
v 0.6 1.1 -1.5
v 0.6 1.1 -1.7
v 0.6 1.1 -1.8
v 0.6 1.1 -2
v 0.6 1.2 -1.5
v 0.6 1.2 -1.7
v 0.6 1.2 -1.8
v 0.6 1.2 -2
v 0.7 0.7 -0.5
v 0.7 0.7 -0.6
v 0.7 0.8 -0.5
v 0.7 0.8 -0.6
v 0.7 0.9 -1
v 0.7 0.9 -1.1
v 0.7 1 -1
v 0.7 1 -1.1
v 0.7 1 -1.3
v 0.7 1 -1.4
v 0.7 1.1 -1.3
v 0.7 1.1 -1.4
v 0.7 1.1 -1.5
v 0.7 1.1 -1.7
v 0.7 1.1 -1.8
v 0.7 1.2 -1.4
v 0.7 1.2 -1.5
v 0.7 1.2 -1.7
v 0.7 1.2 -1.8
v 0.8 1 -1.1
v 0.8 1 -1.3
v 0.8 1.1 -1.1
v 0.8 1.1 -1.3
v 0.9 0.7 -0.5
v 0.9 0.7 -0.6
v 0.9 0.8 -0.5
v 0.9 0.8 -0.6
v 0.9 1.1 -1.3
v 0.9 1.1 -1.4
v 0.9 1.2 -1.3
v 0.9 1.2 -1.4
v 0.9 1.2 -1.5
v 0.9 1.2 -2
v 0.9 1.3 -1.5
v 0.9 1.3 -2
v 1 0.6 -0.3
v 1 0.6 -0.4
v 1 0.7 -0.3
v 1 0.7 -0.4
v 1 0.8 -0.6
v 1 0.8 -0.7
v 1 0.9 -0.6
v 1 0.9 -0.7
v 1 0.9 -0.9
v 1 0.9 -1
v 1 1 -0.9
v 1 1 -1
v 1 1.1 -1.2
v 1 1.1 -1.3
v 1 1.2 -1.2
v 1 1.2 -1.3
v 1 1.3 -1.8
v 1 1.3 -2
v 1 1.4 -1.8
v 1 1.4 -2
v 1.1 0.6 -0.1
v 1.1 0.6 -0.3
v 1.1 0.7 -0.1
v 1.1 0.7 -0.3
v 1.1 0.7 -0.4
v 1.1 0.7 -0.5
v 1.1 0.8 -0.4
v 1.1 0.8 -0.5
v 1.1 0.9 -0.8
v 1.1 0.9 -0.9
v 1.1 1 -0.8
v 1.1 1 -0.9
v 1.1 1 -1
v 1.1 1 -1.1
v 1.1 1.1 -1
v 1.1 1.1 -1.1
v 1.1 1.3 -1.6
v 1.1 1.3 -1.8
v 1.1 1.4 -1.6
v 1.1 1.4 -1.8
v 1.2 0.7 -0.3
v 1.2 0.7 -0.4
v 1.2 0.8 -0.3
v 1.2 0.8 -0.4
v 1.2 0.8 -0.6
v 1.2 0.9 -0.4
v 1.2 0.9 -0.6
v 1.2 0.9 -0.7
v 1.2 0.9 -0.8
v 1.2 1 -0.7
v 1.2 1 -0.8
v 1.2 1 -1
v 1.2 1.1 -0.8
v 1.2 1.1 -1
v 1.3 0.6 2
v 1.3 0.6 1.9
v 1.3 0.6 -2.38419e-07
v 1.3 0.6 -0.1
v 1.3 0.7 2
v 1.3 0.7 1.9
v 1.3 0.7 -2.38419e-07
v 1.3 0.7 -0.1
v 1.3 1.2 -1.4
v 1.3 1.2 -1.5
v 1.3 1.3 -1.4
v 1.3 1.3 -1.5
v 1.3 1.4 -1.8
v 1.3 1.4 -2
v 1.3 1.5 -1.8
v 1.3 1.5 -2
v 1.4 0.6 1.9
v 1.4 0.6 1.7
v 1.4 0.6 0.7
v 1.4 0.6 -2.38419e-07
v 1.4 0.7 1.9
v 1.4 0.7 1.7
v 1.4 0.7 0.7
v 1.4 0.7 -2.38419e-07
v 1.4 0.7 -0.2
v 1.4 0.7 -0.3
v 1.4 0.8 -0.2
v 1.4 0.8 -0.3
v 1.4 0.8 -0.4
v 1.4 0.9 -0.3
v 1.4 0.9 -0.4
v 1.4 0.9 -0.6
v 1.4 0.9 -0.7
v 1.4 1 -0.6
v 1.4 1 -0.7
v 1.4 1.2 -1.3
v 1.4 1.2 -1.4
v 1.4 1.3 -1.3
v 1.4 1.3 -1.4
v 1.4 1.3 -1.5
v 1.4 1.3 -1.6
v 1.4 1.4 -1.5
v 1.4 1.4 -1.6
v 1.4 1.4 -1.7
v 1.4 1.4 -1.8
v 1.4 1.5 -1.7
v 1.4 1.5 -1.8
v 1.5 0.6 1.7
v 1.5 0.6 1
v 1.5 0.7 2
v 1.5 0.7 1.8
v 1.5 0.7 1.7
v 1.5 0.7 1
v 1.5 0.7 0.6
v 1.5 0.7 0.5
v 1.5 0.7 0.4
v 1.5 0.7 0.2
v 1.5 0.7 -2.38419e-07
v 1.5 0.7 -0.1
v 1.5 0.8 2
v 1.5 0.8 1.8
v 1.5 0.8 0.6
v 1.5 0.8 0.5
v 1.5 0.8 0.4
v 1.5 0.8 0.2
v 1.5 0.8 -2.38419e-07
v 1.5 0.8 -0.1
v 1.5 0.9 -0.5
v 1.5 0.9 -0.6
v 1.5 1 -0.5
v 1.5 1 -0.6
v 1.5 1.1 -1.1
v 1.5 1.1 -1.2
v 1.5 1.2 -1.1
v 1.5 1.2 -1.2
v 1.6 0.6 1
v 1.6 0.6 0.7
v 1.6 0.7 1.7
v 1.6 0.7 1.5
v 1.6 0.7 1.4
v 1.6 0.7 1.1
v 1.6 0.7 1
v 1.6 0.7 0.7
v 1.6 0.7 0.5
v 1.6 0.7 0.4
v 1.6 0.7 0.2
v 1.6 0.7 -2.38419e-07
v 1.6 0.7 -0.1
v 1.6 0.7 -0.2
v 1.6 0.8 1.7
v 1.6 0.8 1.5
v 1.6 0.8 1.4
v 1.6 0.8 1.1
v 1.6 0.8 0.5
v 1.6 0.8 0.4
v 1.6 0.8 0.2
v 1.6 0.8 -2.38419e-07
v 1.6 0.8 -0.1
v 1.6 0.8 -0.2
v 1.6 0.8 -0.3
v 1.6 0.9 -0.2
v 1.6 0.9 -0.3
v 1.7 0.7 1.8
v 1.7 0.7 1.7
v 1.7 0.7 1.5
v 1.7 0.7 1.4
v 1.7 0.7 1.1
v 1.7 0.7 1
v 1.7 0.7 0.9
v 1.7 0.7 0.6
v 1.7 0.8 1.8
v 1.7 0.8 1.7
v 1.7 0.8 1.6
v 1.7 0.8 1.5
v 1.7 0.8 1.4
v 1.7 0.8 1.1
v 1.7 0.8 1
v 1.7 0.8 0.9
v 1.7 0.8 0.6
v 1.7 0.8 0.3
v 1.7 0.8 -0.2
v 1.7 0.9 1.7
v 1.7 0.9 1.6
v 1.7 0.9 0.3
v 1.7 0.9 -0.2
v 1.8 0.7 1
v 1.8 0.7 0.9
v 1.8 0.8 1.9
v 1.8 0.8 1.7
v 1.8 0.8 1.6
v 1.8 0.8 1.1
v 1.8 0.8 1
v 1.8 0.8 0.9
v 1.8 0.8 0.7
v 1.8 0.8 0.5
v 1.8 0.8 0.3
v 1.8 0.9 1.9
v 1.8 0.9 1.7
v 1.8 0.9 1.6
v 1.8 0.9 1.1
v 1.8 0.9 0.9
v 1.8 0.9 0.7
v 1.8 0.9 0.5
v 1.8 0.9 0.3
v 1.9 0.8 1.1
v 1.9 0.8 0.9
v 1.9 0.8 0.6
v 1.9 0.8 0.5
v 1.9 0.9 1.1
v 1.9 0.9 0.9
v 1.9 0.9 0.6
v 1.9 0.9 0.5
v -1.9 0.9 1.5
v -1.9 0.9 1.4
v -1.9 0.9 0.2
v -1.9 0.9 0.0999999
v -1.9 1 1.5
v -1.9 1 1.4
v -1.9 1 0.2
v -1.9 1 0.0999999
v -1.8 0.7 -0.6
v -1.8 0.7 -1
v -1.8 0.8 -0.2
v -1.8 0.8 -0.3
v -1.8 0.8 -0.6
v -1.8 0.8 -1
v -1.8 0.9 1.4
v -1.8 0.9 1.3
v -1.8 0.9 0.3
v -1.8 0.9 0.2
v -1.8 0.9 -0.2
v -1.8 0.9 -0.3
v -1.8 1 1.4
v -1.8 1 1.3
v -1.8 1 0.8
v -1.8 1 0.5
v -1.8 1 0.3
v -1.8 1 0.2
v -1.8 1.1 0.8
v -1.8 1.1 0.5
v -1.7 0.6 -0.8
v -1.7 0.6 -1
v -1.7 0.7 -0.5
v -1.7 0.7 -0.6
v -1.7 0.7 -0.8
v -1.7 0.7 -1
v -1.7 0.8 -0.1
v -1.7 0.8 -0.2
v -1.7 0.8 -0.5
v -1.7 0.8 -0.6
v -1.7 0.9 0.9
v -1.7 0.9 0.8
v -1.7 0.9 0.7
v -1.7 0.9 0.3
v -1.7 0.9 -0.1
v -1.7 0.9 -0.2
v -1.7 1 0.9
v -1.7 1 0.8
v -1.7 1 0.7
v -1.7 1 0.3
v -1.7 1.1 0.9
v -1.7 1.1 0.8
v -1.6 0.6 -0.6
v -1.6 0.6 -0.8
v -1.6 0.7 -0.4
v -1.6 0.7 -0.5
v -1.6 0.7 -0.6
v -1.6 0.7 -0.8
v -1.6 0.8 1.9
v -1.6 0.8 1.8
v -1.6 0.8 -0.4
v -1.6 0.8 -0.5
v -1.6 0.9 1.9
v -1.6 0.9 1.8
v -1.6 0.9 0.8
v -1.6 0.9 0.7
v -1.6 1 0.8
v -1.6 1 0.7
v -1.5 0.6 -0.5
v -1.5 0.6 -0.6
v -1.5 0.7 -0.5
v -1.5 0.7 -0.6
v -1.5 0.8 1.8
v -1.5 0.8 1.3
v -1.5 0.8 0.9
v -1.5 0.8 0.3
v -1.5 0.8 0.0999999
v -1.5 0.8 -0.1
v -1.5 0.9 1.8
v -1.5 0.9 1.3
v -1.5 0.9 0.9
v -1.5 0.9 0.3
v -1.5 0.9 0.0999999
v -1.5 0.9 -0.1
v -1.4 0.7 2
v -1.4 0.7 1.9
v -1.4 0.7 1
v -1.4 0.7 0.9
v -1.4 0.7 0.4
v -1.4 0.8 2
v -1.4 0.8 1.9
v -1.4 0.8 1
v -1.4 0.8 0.9
v -1.4 0.8 0.4
v -1.4 0.8 0.3
v -1.4 0.8 0.0999999
v -1.4 0.9 0.3
v -1.4 0.9 0.0999999
v -1.3 0.6 0.9
v -1.3 0.6 0.4
v -1.3 0.7 1.9
v -1.3 0.7 1.3
v -1.3 0.7 0.9
v -1.3 0.7 0.4
v -1.3 0.7 0.2
v -1.3 0.7 -0.3
v -1.3 0.7 -0.4
v -1.3 0.8 1.9
v -1.3 0.8 1.3
v -1.3 0.8 0.4
v -1.3 0.8 0.2
v -1.3 0.8 -0.3
v -1.3 0.8 -0.4
v -1.2 0.6 1.8
v -1.2 0.6 1.3
v -1.2 0.6 0.9
v -1.2 0.6 0.4
v -1.2 0.6 0.3
v -1.2 0.7 1.8
v -1.2 0.7 1.3
v -1.2 0.7 0.4
v -1.2 0.7 0.3
v -1.2 0.7 0.2
v -1.2 0.7 0.0999999
v -1.2 0.8 1.3
v -1.2 0.8 1.2
v -1.2 0.8 1
v -1.2 0.8 0.9
v -1.2 0.8 0.2
v -1.2 0.8 0.0999999
v -1.2 0.9 1.3
v -1.2 0.9 1.2
v -1.2 0.9 1
v -1.2 0.9 0.9
v -1.1 0.6 1.9
v -1.1 0.6 1.8
v -1.1 0.6 0.3
v -1.1 0.6 0.2
v -1.1 0.6 -0.4
v -1.1 0.6 -0.5
v -1.1 0.7 1.9
v -1.1 0.7 1.8
v -1.1 0.7 0.3
v -1.1 0.7 0.2
v -1.1 0.7 0.0999999
v -1.1 0.7 -0.1
v -1.1 0.7 -0.4
v -1.1 0.7 -0.5
v -1.1 0.8 0.0999999
v -1.1 0.8 -0.1
v -1 0.6 2
v -1 0.6 1.9
v -1 0.6 0.2
v -1 0.6 0.0999999
v -1 0.7 2
v -1 0.7 1.9
v -1 0.7 0.2
v -1 0.7 0.0999999
v -1 0.7 -0.1
v -1 0.7 -0.2
v -1 0.8 -0.1
v -1 0.8 -0.2
v -0.9 0.6 0.0999999
v -0.9 0.6 -0.1
v -0.9 0.6 -0.3
v -0.9 0.6 -0.4
v -0.9 0.7 0.0999999
v -0.9 0.7 -0.1
v -0.9 0.7 -0.2
v -0.9 0.7 -0.3
v -0.9 0.7 -0.4
v -0.9 0.8 -0.2
v -0.9 0.8 -0.3
v -0.8 0.6 -0.1
v -0.8 0.6 -0.3
v -0.8 0.7 -0.1
v -0.8 0.7 -0.3
v -0.7 0.8 1.3
v -0.7 0.8 1.2
v -0.7 0.8 1
v -0.7 0.8 0.9
v -0.7 0.9 1.3
v -0.7 0.9 1.2
v -0.7 0.9 1
v -0.7 0.9 0.9
v -0.2 0.7 2
v -0.2 0.7 1.9
v -0.2 0.8 2
v -0.2 0.8 1.9
v 0.2 0.6 0.0999999
v 0.2 0.6 -2.38419e-07
v 0.2 0.7 0.2
v 0.2 0.7 0.0999999
v 0.2 0.7 -2.38419e-07
v 0.2 0.8 0.2
v 0.2 0.8 0.0999999
v 0.5 0.7 0.2
v 0.5 0.7 0.0999999
v 0.5 0.8 0.2
v 0.5 0.8 0.0999999
v 0.6 0.7 0.5
v 0.6 0.7 0.4
v 0.6 0.7 -0.5
v 0.6 0.7 -0.6
v 0.6 0.8 0.5
v 0.6 0.8 0.4
v 0.6 0.8 -0.5
v 0.6 0.8 -0.6
v 0.7 0.6 0.4
v 0.7 0.6 0.0999999
v 0.7 0.7 2
v 0.7 0.7 1.9
v 0.7 0.7 0.4
v 0.7 0.7 0.2
v 0.7 0.7 0.0999999
v 0.7 0.8 2
v 0.7 0.8 1.9
v 0.7 0.8 0.4
v 0.7 0.8 0.2
v 0.8 0.6 0.5
v 0.8 0.6 0.4
v 0.8 0.7 1.9
v 0.8 0.7 1.8
v 0.8 0.7 0.7
v 0.8 0.7 0.6
v 0.8 0.7 0.5
v 0.8 0.7 0.4
v 0.8 0.7 -0.5
v 0.8 0.7 -0.6
v 0.8 0.8 1.9
v 0.8 0.8 1.8
v 0.8 0.8 0.7
v 0.8 0.8 0.6
v 0.8 0.8 -0.5
v 0.8 0.8 -0.6
v 0.9 0.6 2
v 0.9 0.6 1.8
v 0.9 0.6 0.7
v 0.9 0.6 0.5
v 0.9 0.7 2
v 0.9 0.7 1.8
v 0.9 0.7 1.7
v 0.9 0.7 0.9
v 0.9 0.7 0.8
v 0.9 0.7 0.7
v 0.9 0.7 0.6
v 0.9 0.7 0.5
v 0.9 0.8 1.8
v 0.9 0.8 1.7
v 0.9 0.8 0.9
v 0.9 0.8 0.8
v 0.9 0.8 0.6
v 0.9 0.8 0.5
v 1 0.6 0.8
v 1 0.6 0.7
v 1 0.7 1.6
v 1 0.7 1.5
v 1 0.7 1
v 1 0.7 0.9
v 1 0.7 0.8
v 1 0.7 0.7
v 1 0.8 1.6
v 1 0.8 1.5
v 1 0.8 1
v 1 0.8 0.9
v 1 0.8 0.8
v 1 0.8 0.7
v 1.1 0.6 1.8
v 1.1 0.6 1.6
v 1.1 0.6 1
v 1.1 0.6 0.8
v 1.1 0.7 1.8
v 1.1 0.7 1.7
v 1.1 0.7 1.6
v 1.1 0.7 1.4
v 1.1 0.7 1.3
v 1.1 0.7 1.1
v 1.1 0.7 1
v 1.1 0.7 0.8
v 1.1 0.8 1.7
v 1.1 0.8 1.6
v 1.1 0.8 1.4
v 1.1 0.8 1.3
v 1.1 0.8 1.1
v 1.1 0.8 1
v 1.2 0.6 1.6
v 1.2 0.6 1
v 1.2 0.7 1.6
v 1.2 0.7 1.5
v 1.2 0.7 1.4
v 1.2 0.7 1.3
v 1.2 0.7 1.1
v 1.2 0.7 1
v 1.2 0.8 1.5
v 1.2 0.8 1.4
v 1.2 0.8 1.3
v 1.2 0.8 1.1
v 1.5 1.2 -1.3
v 1.5 1.2 -1.4
v 1.5 1.3 -1.3
v 1.5 1.3 -1.4
v 1.9 0.9 -0.5
v 1.9 0.9 -0.7
v 1.9 1 -0.5
v 1.9 1 -0.7
v 1.9 1.1 -1.1
v 1.9 1.1 -1.2
v 1.9 1.2 -1.1
v 1.9 1.2 -1.2
v 2 0 2
v 2 0 -2
v 2 0.3 2
v 2 0.3 -2
v 2 0.5 2
v 2 0.5 -2
v 2 0.6 2
v 2 0.6 -2
v 2 0.7 2
v 2 0.7 0.6
v 2 0.8 2
v 2 0.8 1.9
v 2 0.8 0.7
v 2 0.8 0.6
v 2 0.9 1.9
v 2 0.9 0.7
v 2 0.9 0.6
v 2 0.9 -0.7
v 2 0.9 -2
v 2 1 -0.7
v 2 1 -0.8
v 2 1 -2
v 2 1.1 -0.8
v 2 1.1 -1.2
v 2 1.2 -1.2
v 2 1.2 -1.4
v 2 1.2 -2
v 2 1.3 -1.4
v 2 1.3 -1.5
v 2 1.4 -1.5
v 2 1.4 -1.7
v 2 1.5 -1.7
v 2 1.5 -2
v -2 0 2
v -2 0.3 2
v -2 0.5 2
v -2 0.6 2
v -2 0.7 2
v -2 0.8 2
v -1.4 0.7 2
v -1.4 0.8 2
v -1 0.5 2
v -1 0.6 2
v -1 0.7 2
v -0.4 0.5 2
v -0.4 0.6 2
v -0.4 0.7 2
v -0.3 0.7 2
v -0.3 0.8 2
v -0.2 0.7 2
v -0.2 0.8 2
v -0.0999999 0.7 2
v -0.0999999 0.8 2
v 0.7 0.7 2
v 0.7 0.8 2
v 0.9 0.5 2
v 0.9 0.6 2
v 0.9 0.7 2
v 1.3 0.5 2
v 1.3 0.6 2
v 1.3 0.7 2
v 1.5 0.7 2
v 1.5 0.8 2
v 2 0 2
v 2 0.3 2
v 2 0.5 2
v 2 0.6 2
v 2 0.7 2
v 2 0.8 2
v -1.8 0.8 1.9
v -1.8 0.9 1.9
v -1.6 0.8 1.9
v -1.6 0.9 1.9
v -1.4 0.7 1.9
v -1.4 0.8 1.9
v -1.3 0.7 1.9
v -1.3 0.8 1.9
v -0.5 0.6 1.9
v -0.5 0.7 1.9
v -0.4 0.6 1.9
v -0.4 0.7 1.9
v -0.2 0.7 1.9
v -0.2 0.8 1.9
v -0.0999999 0.7 1.9
v -0.0999999 0.8 1.9
v 0.7 0.7 1.9
v 0.7 0.8 1.9
v 0.8 0.7 1.9
v 0.8 0.8 1.9
v 1.8 0.8 1.9
v 1.8 0.9 1.9
v 2 0.8 1.9
v 2 0.9 1.9
v -1.9 0.8 1.8
v -1.9 0.9 1.8
v -1.8 0.8 1.8
v -1.8 0.9 1.8
v -1.6 0.8 1.8
v -1.6 0.9 1.8
v -1.5 0.8 1.8
v -1.5 0.9 1.8
v -0.6 0.6 1.8
v -0.6 0.7 1.8
v -0.5 0.6 1.8
v -0.5 0.7 1.8
v -0.4 0.7 1.8
v -0.4 0.8 1.8
v -0.3 0.7 1.8
v -0.3 0.8 1.8
v 0.8 0.7 1.8
v 0.8 0.8 1.8
v 0.9 0.6 1.8
v 0.9 0.7 1.8
v 0.9 0.8 1.8
v 1.1 0.6 1.8
v 1.1 0.7 1.8
v -0.5 0.7 1.7
v -0.5 0.8 1.7
v -0.4 0.7 1.7
v -0.4 0.8 1.7
v 0.9 0.7 1.7
v 0.9 0.8 1.7
v 1.1 0.7 1.7
v 1.1 0.8 1.7
v 1.6 0.7 1.7
v 1.6 0.8 1.7
v 1.7 0.7 1.7
v 1.7 0.8 1.7
v 1.7 0.9 1.7
v 1.8 0.8 1.7
v 1.8 0.9 1.7
v -2 0.8 1.6
v -2 0.9 1.6
v -1.9 0.8 1.6
v -1.9 0.9 1.6
v -0.7 0.6 1.6
v -0.7 0.7 1.6
v -0.6 0.6 1.6
v -0.6 0.7 1.6
v 1.1 0.6 1.6
v 1.1 0.7 1.6
v 1.2 0.6 1.6
v 1.2 0.7 1.6
v -2 0.9 1.5
v -2 1 1.5
v -1.9 0.9 1.5
v -1.9 1 1.5
v -0.7 0.7 1.5
v -0.7 0.8 1.5
v -0.5 0.7 1.5
v -0.5 0.8 1.5
v 1 0.7 1.5
v 1 0.8 1.5
v 1.2 0.7 1.5
v 1.2 0.8 1.5
v -1.9 0.9 1.4
v -1.9 1 1.4
v -1.8 0.9 1.4
v -1.8 1 1.4
v 1.6 0.7 1.4
v 1.6 0.8 1.4
v 1.7 0.7 1.4
v 1.7 0.8 1.4
v -1.3 0.7 1.3
v -1.3 0.8 1.3
v -1.3 0.9 1.3
v -1.2 0.7 1.3
v -1.2 0.8 1.3
v -1.2 0.9 1.3
v -0.8 0.6 1.3
v -0.8 0.7 1.3
v -0.8 0.8 1.3
v -0.8 0.9 1.3
v -0.7 0.6 1.3
v -0.7 0.7 1.3
v -0.7 0.8 1.3
v -0.7 0.9 1.3
v 1.1 0.7 1.3
v 1.1 0.8 1.3
v 1.2 0.7 1.3
v 1.2 0.8 1.3
v -1.3 0.8 1
v -1.3 0.9 1
v -1.2 0.8 1
v -1.2 0.9 1
v -0.8 0.8 1
v -0.8 0.9 1
v -0.7 0.8 1
v -0.7 0.9 1
v -2 0.8 0.9
v -2 0.9 0.9
v -2 1 0.9
v -2 1.1 0.9
v -1.7 0.9 0.9
v -1.7 1 0.9
v -1.7 1.1 0.9
v -1.5 0.8 0.9
v -1.5 0.9 0.9
v 1.7 0.7 0.9
v 1.7 0.8 0.9
v 1.8 0.7 0.9
v 1.8 0.8 0.9
v 1.8 0.9 0.9
v 1.9 0.8 0.9
v 1.9 0.9 0.9
v -1.7 0.9 0.8
v -1.7 1 0.8
v -1.6 0.9 0.8
v -1.6 1 0.8
v 0.9 0.7 0.8
v 0.9 0.8 0.8
v 1 0.7 0.8
v 1 0.8 0.8
v -0.6 0.7 0.7
v -0.6 0.8 0.7
v -0.5 0.7 0.7
v -0.5 0.8 0.7
v 1.4 0.6 0.7
v 1.4 0.7 0.7
v 1.6 0.6 0.7
v 1.6 0.7 0.7
v 0.8 0.7 0.6
v 0.8 0.8 0.6
v 0.9 0.7 0.6
v 0.9 0.8 0.6
v 1.5 0.7 0.6
v 1.5 0.8 0.6
v 1.7 0.7 0.6
v 1.7 0.8 0.6
v 1.9 0.8 0.6
v 1.9 0.9 0.6
v 2 0.8 0.6
v 2 0.9 0.6
v 1.8 0.8 0.5
v 1.8 0.9 0.5
v 1.9 0.8 0.5
v 1.9 0.9 0.5
v -1.4 0.7 0.4
v -1.4 0.8 0.4
v -1.3 0.6 0.4
v -1.3 0.7 0.4
v -1.3 0.8 0.4
v -1.2 0.6 0.4
v -1.2 0.7 0.4
v 0.6 0.7 0.4
v 0.6 0.8 0.4
v 0.7 0.7 0.4
v 0.7 0.8 0.4
v 1.5 0.7 0.4
v 1.5 0.8 0.4
v 1.6 0.7 0.4
v 1.6 0.8 0.4
v -1.5 0.8 0.3
v -1.5 0.9 0.3
v -1.4 0.8 0.3
v -1.4 0.9 0.3
v -1.2 0.6 0.3
v -1.2 0.7 0.3
v -1.1 0.6 0.3
v -1.1 0.7 0.3
v 1.7 0.8 0.3
v 1.7 0.9 0.3
v 1.8 0.8 0.3
v 1.8 0.9 0.3
v -1.3 0.7 0.2
v -1.3 0.8 0.2
v -1.2 0.7 0.2
v -1.2 0.8 0.2
v -1.1 0.6 0.2
v -1.1 0.7 0.2
v -1 0.6 0.2
v -1 0.7 0.2
v -1.2 0.7 0.0999999
v -1.2 0.8 0.0999999
v -1.1 0.7 0.0999999
v -1.1 0.8 0.0999999
v -1 0.6 0.0999999
v -1 0.7 0.0999999
v -0.9 0.6 0.0999999
v -0.9 0.7 0.0999999
v 1.3 0.6 -2.38419e-07
v 1.3 0.7 -2.38419e-07
v 1.4 0.6 -2.38419e-07
v 1.4 0.7 -2.38419e-07
v 1.5 0.7 -2.38419e-07
v 1.5 0.8 -2.38419e-07
v 1.6 0.7 -2.38419e-07
v 1.6 0.8 -2.38419e-07
v -1.1 0.7 -0.1
v -1.1 0.8 -0.1
v -1 0.7 -0.1
v -1 0.8 -0.1
v -0.9 0.6 -0.1
v -0.9 0.7 -0.1
v -0.8 0.6 -0.1
v -0.8 0.7 -0.1
v 1.1 0.6 -0.1
v 1.1 0.7 -0.1
v 1.3 0.6 -0.1
v 1.3 0.7 -0.1
v -1 0.7 -0.2
v -1 0.8 -0.2
v -0.9 0.7 -0.2
v -0.9 0.8 -0.2
v 1.4 0.7 -0.2
v 1.4 0.8 -0.2
v 1.6 0.7 -0.2
v 1.6 0.8 -0.2
v 1.6 0.9 -0.2
v 1.7 0.8 -0.2
v 1.7 0.9 -0.2
v 1 0.6 -0.3
v 1 0.7 -0.3
v 1.1 0.6 -0.3
v 1.1 0.7 -0.3
v 1.2 0.7 -0.3
v 1.2 0.8 -0.3
v 1.4 0.7 -0.3
v 1.4 0.8 -0.3
v 1.4 0.9 -0.3
v 1.6 0.8 -0.3
v 1.6 0.9 -0.3
v 0.2 0.6 -0.4
v 0.2 0.7 -0.4
v 1 0.6 -0.4
v 1 0.7 -0.4
v 1.1 0.7 -0.4
v 1.1 0.8 -0.4
v 1.2 0.7 -0.4
v 1.2 0.8 -0.4
v 1.2 0.9 -0.4
v 1.4 0.8 -0.4
v 1.4 0.9 -0.4
v 0.1 0.6 -0.5
v 0.1 0.7 -0.5
v 0.2 0.6 -0.5
v 0.2 0.7 -0.5
v 0.5 0.7 -0.5
v 0.5 0.8 -0.5
v 0.6 0.7 -0.5
v 0.6 0.8 -0.5
v 0.7 0.7 -0.5
v 0.7 0.8 -0.5
v 0.8 0.7 -0.5
v 0.8 0.8 -0.5
v 0.9 0.7 -0.5
v 0.9 0.8 -0.5
v 1.1 0.7 -0.5
v 1.1 0.8 -0.5
v 1.5 0.9 -0.5
v 1.5 1 -0.5
v 1.9 0.9 -0.5
v 1.9 1 -0.5
v 0.3 0.7 -0.6
v 0.3 0.8 -0.6
v 0.5 0.7 -0.6
v 0.5 0.8 -0.6
v 0.6 0.7 -0.6
v 0.6 0.8 -0.6
v 0.7 0.7 -0.6
v 0.7 0.8 -0.6
v 0.8 0.7 -0.6
v 0.8 0.8 -0.6
v 0.9 0.7 -0.6
v 0.9 0.8 -0.6
v 1 0.8 -0.6
v 1 0.9 -0.6
v 1.2 0.8 -0.6
v 1.2 0.9 -0.6
v 1.4 0.9 -0.6
v 1.4 1 -0.6
v 1.5 0.9 -0.6
v 1.5 1 -0.6
v 0.2 0.7 -0.7
v 0.2 0.8 -0.7
v 0.3 0.7 -0.7
v 0.3 0.8 -0.7
v 0.6 0.8 -0.7
v 0.6 0.9 -0.7
v 1 0.8 -0.7
v 1 0.9 -0.7
v 1.2 0.9 -0.7
v 1.2 1 -0.7
v 1.4 0.9 -0.7
v 1.4 1 -0.7
v 1.9 0.9 -0.7
v 1.9 1 -0.7
v 2 0.9 -0.7
v 2 1 -0.7
v 2.38419e-07 0.6 -0.8
v 2.38419e-07 0.7 -0.8
v 0.1 0.6 -0.8
v 0.1 0.7 -0.8
v 0.4 0.8 -0.8
v 0.4 0.9 -0.8
v 0.6 0.8 -0.8
v 0.6 0.9 -0.8
v 1.1 0.9 -0.8
v 1.1 1 -0.8
v 1.2 0.9 -0.8
v 1.2 1 -0.8
v 1.2 1.1 -0.8
v 2 1 -0.8
v 2 1.1 -0.8
v 0.1 0.7 -0.9
v 0.1 0.8 -0.9
v 0.2 0.7 -0.9
v 0.2 0.8 -0.9
v 0.3 0.8 -0.9
v 0.3 0.9 -0.9
v 0.4 0.8 -0.9
v 0.4 0.9 -0.9
v 1 0.9 -0.9
v 1 1 -0.9
v 1.1 0.9 -0.9
v 1.1 1 -0.9
v 0.7 0.9 -1
v 0.7 1 -1
v 1 0.9 -1
v 1 1 -1
v 1.1 1 -1
v 1.1 1.1 -1
v 1.2 1 -1
v 1.2 1.1 -1
v -0.0999999 0.6 -1.1
v -0.0999999 0.7 -1.1
v 2.38419e-07 0.6 -1.1
v 2.38419e-07 0.7 -1.1
v 0.2 0.8 -1.1
v 0.2 0.9 -1.1
v 0.3 0.8 -1.1
v 0.3 0.9 -1.1
v 0.6 0.9 -1.1
v 0.6 1 -1.1
v 0.7 0.9 -1.1
v 0.7 1 -1.1
v 0.8 1 -1.1
v 0.8 1.1 -1.1
v 1.1 1 -1.1
v 1.1 1.1 -1.1
v 1.5 1.1 -1.1
v 1.5 1.2 -1.1
v 1.9 1.1 -1.1
v 1.9 1.2 -1.1
v -0.2 0.6 -1.2
v -0.2 0.7 -1.2
v -0.0999999 0.6 -1.2
v -0.0999999 0.7 -1.2
v 2.38419e-07 0.7 -1.2
v 2.38419e-07 0.8 -1.2
v 0.1 0.7 -1.2
v 0.1 0.8 -1.2
v 0.5 0.9 -1.2
v 0.5 1 -1.2
v 0.6 0.9 -1.2
v 0.6 1 -1.2
v 1 1.1 -1.2
v 1 1.2 -1.2
v 1.5 1.1 -1.2
v 1.5 1.2 -1.2
v 1.9 1.1 -1.2
v 1.9 1.2 -1.2
v 2 1.1 -1.2
v 2 1.2 -1.2
v 0.1 0.8 -1.3
v 0.1 0.9 -1.3
v 0.2 0.8 -1.3
v 0.2 0.9 -1.3
v 0.7 1 -1.3
v 0.7 1.1 -1.3
v 0.8 1 -1.3
v 0.8 1.1 -1.3
v 0.9 1.1 -1.3
v 0.9 1.2 -1.3
v 1 1.1 -1.3
v 1 1.2 -1.3
v 1.4 1.2 -1.3
v 1.4 1.3 -1.3
v 1.5 1.2 -1.3
v 1.5 1.3 -1.3
v -0.3 0.6 -1.4
v -0.3 0.7 -1.4
v -0.2 0.6 -1.4
v -0.2 0.7 -1.4
v -0.0999999 0.7 -1.4
v -0.0999999 0.8 -1.4
v 2.38419e-07 0.7 -1.4
v 2.38419e-07 0.8 -1.4
v 0.4 0.9 -1.4
v 0.4 1 -1.4
v 0.5 0.9 -1.4
v 0.5 1 -1.4
v 0.6 1 -1.4
v 0.6 1.1 -1.4
v 0.7 1 -1.4
v 0.7 1.1 -1.4
v 0.7 1.2 -1.4
v 0.9 1.1 -1.4
v 0.9 1.2 -1.4
v 1.3 1.2 -1.4
v 1.3 1.3 -1.4
v 1.4 1.2 -1.4
v 1.4 1.3 -1.4
v 1.5 1.2 -1.4
v 1.5 1.3 -1.4
v 2 1.2 -1.4
v 2 1.3 -1.4
v -0.4 0.6 -1.5
v -0.4 0.7 -1.5
v -0.3 0.6 -1.5
v -0.3 0.7 -1.5
v -0.2 0.7 -1.5
v -0.2 0.8 -1.5
v -0.0999999 0.7 -1.5
v -0.0999999 0.8 -1.5
v 0.3 0.9 -1.5
v 0.3 1 -1.5
v 0.4 0.9 -1.5
v 0.4 1 -1.5
v 0.5 1 -1.5
v 0.5 1.1 -1.5
v 0.6 1 -1.5
v 0.6 1.1 -1.5
v 0.6 1.2 -1.5
v 0.7 1.1 -1.5
v 0.7 1.2 -1.5
v 0.9 1.2 -1.5
v 0.9 1.3 -1.5
v 1.3 1.2 -1.5
v 1.3 1.3 -1.5
v 1.4 1.3 -1.5
v 1.4 1.4 -1.5
v 2 1.3 -1.5
v 2 1.4 -1.5
v -0.6 0.6 -1.6
v -0.6 0.7 -1.6
v -0.4 0.6 -1.6
v -0.4 0.7 -1.6
v -0.3 0.7 -1.6
v -0.3 0.8 -1.6
v -0.2 0.7 -1.6
v -0.2 0.8 -1.6
v -0.0999999 0.8 -1.6
v -0.0999999 0.9 -1.6
v 0.1 0.8 -1.6
v 0.1 0.9 -1.6
v 1.1 1.3 -1.6
v 1.1 1.4 -1.6
v 1.4 1.3 -1.6
v 1.4 1.4 -1.6
v -0.7 0.6 -1.7
v -0.7 0.7 -1.7
v -0.6 0.6 -1.7
v -0.6 0.7 -1.7
v -0.5 0.7 -1.7
v -0.5 0.8 -1.7
v -0.3 0.7 -1.7
v -0.3 0.8 -1.7
v -0.2 0.8 -1.7
v -0.2 0.9 -1.7
v -0.0999999 0.8 -1.7
v -0.0999999 0.9 -1.7
v 0.2 0.9 -1.7
v 0.2 1 -1.7
v 0.3 0.9 -1.7
v 0.3 1 -1.7
v 1.4 1.4 -1.7
v 1.4 1.5 -1.7
v 2 1.4 -1.7
v 2 1.5 -1.7
v -0.7 0.7 -1.8
v -0.7 0.8 -1.8
v -0.5 0.7 -1.8
v -0.5 0.8 -1.8
v -0.4 0.8 -1.8
v -0.4 0.9 -1.8
v -0.2 0.8 -1.8
v -0.2 0.9 -1.8
v 0.6 1.1 -1.8
v 0.6 1.2 -1.8
v 0.7 1.1 -1.8
v 0.7 1.2 -1.8
v 1 1.3 -1.8
v 1 1.4 -1.8
v 1.1 1.3 -1.8
v 1.1 1.4 -1.8
v 1.3 1.4 -1.8
v 1.3 1.5 -1.8
v 1.4 1.4 -1.8
v 1.4 1.5 -1.8
v -0.6 0.8 -1.9
v -0.6 0.9 -1.9
v -0.4 0.8 -1.9
v -0.4 0.9 -1.9
v -1.1 0.6 1.9
v -1.1 0.7 1.9
v -1 0.6 1.9
v -1 0.7 1.9
v 1.3 0.6 1.9
v 1.3 0.7 1.9
v 1.4 0.6 1.9
v 1.4 0.7 1.9
v -1.2 0.6 1.8
v -1.2 0.7 1.8
v -1.1 0.6 1.8
v -1.1 0.7 1.8
v 1.5 0.7 1.8
v 1.5 0.8 1.8
v 1.7 0.7 1.8
v 1.7 0.8 1.8
v 1.4 0.6 1.7
v 1.4 0.7 1.7
v 1.5 0.6 1.7
v 1.5 0.7 1.7
v 1 0.7 1.6
v 1 0.8 1.6
v 1.1 0.7 1.6
v 1.1 0.8 1.6
v 1.7 0.8 1.6
v 1.7 0.9 1.6
v 1.8 0.8 1.6
v 1.8 0.9 1.6
v 1.6 0.7 1.5
v 1.6 0.8 1.5
v 1.7 0.7 1.5
v 1.7 0.8 1.5
v 1.1 0.7 1.4
v 1.1 0.8 1.4
v 1.2 0.7 1.4
v 1.2 0.8 1.4
v -2 0.8 1.3
v -2 0.9 1.3
v -2 1 1.3
v -1.8 0.9 1.3
v -1.8 1 1.3
v -1.5 0.8 1.3
v -1.5 0.9 1.3
v -1.3 0.8 1.2
v -1.3 0.9 1.2
v -1.2 0.8 1.2
v -1.2 0.9 1.2
v -0.8 0.8 1.2
v -0.8 0.9 1.2
v -0.7 0.8 1.2
v -0.7 0.9 1.2
v 1.1 0.7 1.1
v 1.1 0.8 1.1
v 1.2 0.7 1.1
v 1.2 0.8 1.1
v 1.6 0.7 1.1
v 1.6 0.8 1.1
v 1.7 0.7 1.1
v 1.7 0.8 1.1
v 1.8 0.8 1.1
v 1.8 0.9 1.1
v 1.9 0.8 1.1
v 1.9 0.9 1.1
v -1.4 0.7 1
v -1.4 0.8 1
v -1.3 0.7 1
v -1.3 0.8 1
v 1 0.7 1
v 1 0.8 1
v 1.1 0.6 1
v 1.1 0.7 1
v 1.1 0.8 1
v 1.2 0.6 1
v 1.2 0.7 1
v 1.5 0.6 1
v 1.5 0.7 1
v 1.6 0.6 1
v 1.6 0.7 1
v 1.7 0.7 1
v 1.7 0.8 1
v 1.8 0.7 1
v 1.8 0.8 1
v -1.3 0.6 0.9
v -1.3 0.7 0.9
v -1.3 0.8 0.9
v -1.3 0.9 0.9
v -1.2 0.6 0.9
v -1.2 0.8 0.9
v -1.2 0.9 0.9
v -0.8 0.6 0.9
v -0.8 0.7 0.9
v -0.8 0.8 0.9
v -0.8 0.9 0.9
v -0.7 0.6 0.9
v -0.7 0.7 0.9
v -0.7 0.8 0.9
v -0.7 0.9 0.9
v 0.9 0.7 0.9
v 0.9 0.8 0.9
v 1 0.7 0.9
v 1 0.8 0.9
v -1.8 1 0.8
v -1.8 1.1 0.8
v -1.7 1 0.8
v -1.7 1.1 0.8
v -0.7 0.7 0.8
v -0.7 0.8 0.8
v -0.5 0.7 0.8
v -0.5 0.8 0.8
v 1 0.6 0.8
v 1 0.7 0.8
v 1.1 0.6 0.8
v 1.1 0.7 0.8
v -1.7 0.9 0.7
v -1.7 1 0.7
v -1.6 0.9 0.7
v -1.6 1 0.7
v -0.7 0.6 0.7
v -0.7 0.7 0.7
v -0.6 0.6 0.7
v -0.6 0.7 0.7
v 0.8 0.7 0.7
v 0.8 0.8 0.7
v 0.9 0.6 0.7
v 0.9 0.7 0.7
v 1 0.6 0.7
v 1 0.7 0.7
v 1 0.8 0.7
v 1.8 0.8 0.7
v 1.8 0.9 0.7
v 2 0.8 0.7
v 2 0.9 0.7
v -2 1 0.5
v -2 1.1 0.5
v -1.8 1 0.5
v -1.8 1.1 0.5
v -0.6 0.7 0.5
v -0.6 0.8 0.5
v -0.4 0.7 0.5
v -0.4 0.8 0.5
v 0.6 0.7 0.5
v 0.6 0.8 0.5
v 0.8 0.6 0.5
v 0.8 0.7 0.5
v 0.9 0.6 0.5
v 0.9 0.7 0.5
v 0.9 0.8 0.5
v 1.5 0.7 0.5
v 1.5 0.8 0.5
v 1.6 0.7 0.5
v 1.6 0.8 0.5
v -0.6 0.6 0.4
v -0.6 0.7 0.4
v -0.5 0.6 0.4
v -0.5 0.7 0.4
v 0.7 0.6 0.4
v 0.7 0.7 0.4
v 0.8 0.6 0.4
v 0.8 0.7 0.4
v -1.8 0.9 0.3
v -1.8 1 0.3
v -1.7 0.9 0.3
v -1.7 1 0.3
v -0.4 0.7 0.3
v -0.4 0.8 0.3
v -0.2 0.7 0.3
v -0.2 0.8 0.3
v -1.9 0.9 0.2
v -1.9 1 0.2
v -1.8 0.9 0.2
v -1.8 1 0.2
v -0.5 0.6 0.2
v -0.5 0.7 0.2
v -0.3 0.6 0.2
v -0.3 0.7 0.2
v 0.2 0.7 0.2
v 0.2 0.8 0.2
v 0.3 0.7 0.2
v 0.3 0.8 0.2
v 0.5 0.7 0.2
v 0.5 0.8 0.2
v 0.7 0.7 0.2
v 0.7 0.8 0.2
v 1.5 0.7 0.2
v 1.5 0.8 0.2
v 1.6 0.7 0.2
v 1.6 0.8 0.2
v -2 0.9 0.0999999
v -2 1 0.0999999
v -1.9 0.9 0.0999999
v -1.9 1 0.0999999
v -1.5 0.8 0.0999999
v -1.5 0.9 0.0999999
v -1.4 0.8 0.0999999
v -1.4 0.9 0.0999999
v -0.3 0.6 0.0999999
v -0.3 0.7 0.0999999
v -0.2 0.7 0.0999999
v -0.2 0.8 0.0999999
v -0.0999999 0.6 0.0999999
v -0.0999999 0.7 0.0999999
v 0.2 0.6 0.0999999
v 0.2 0.7 0.0999999
v 0.2 0.8 0.0999999
v 0.3 0.7 0.0999999
v 0.3 0.8 0.0999999
v 0.5 0.7 0.0999999
v 0.5 0.8 0.0999999
v 0.7 0.6 0.0999999
v 0.7 0.7 0.0999999
v -0.0999999 0.6 -2.38419e-07
v -0.0999999 0.7 -2.38419e-07
v 0.2 0.6 -2.38419e-07
v 0.2 0.7 -2.38419e-07
v -1.7 0.8 -0.1
v -1.7 0.9 -0.1
v -1.5 0.8 -0.1
v -1.5 0.9 -0.1
v 1.5 0.7 -0.1
v 1.5 0.8 -0.1
v 1.6 0.7 -0.1
v 1.6 0.8 -0.1
v -1.8 0.8 -0.2
v -1.8 0.9 -0.2
v -1.7 0.8 -0.2
v -1.7 0.9 -0.2
v -2 0.8 -0.3
v -2 0.9 -0.3
v -1.8 0.8 -0.3
v -1.8 0.9 -0.3
v -1.3 0.7 -0.3
v -1.3 0.8 -0.3
v -0.9 0.6 -0.3
v -0.9 0.7 -0.3
v -0.9 0.8 -0.3
v -0.8 0.6 -0.3
v -0.8 0.7 -0.3
v -1.6 0.7 -0.4
v -1.6 0.8 -0.4
v -1.3 0.7 -0.4
v -1.3 0.8 -0.4
v -1.1 0.6 -0.4
v -1.1 0.7 -0.4
v -0.9 0.6 -0.4
v -0.9 0.7 -0.4
v -1.7 0.7 -0.5
v -1.7 0.8 -0.5
v -1.6 0.7 -0.5
v -1.6 0.8 -0.5
v -1.5 0.6 -0.5
v -1.5 0.7 -0.5
v -1.1 0.6 -0.5
v -1.1 0.7 -0.5
v -1.8 0.7 -0.6
v -1.8 0.8 -0.6
v -1.7 0.7 -0.6
v -1.7 0.8 -0.6
v -1.6 0.6 -0.6
v -1.6 0.7 -0.6
v -1.5 0.6 -0.6
v -1.5 0.7 -0.6
v -1.7 0.6 -0.8
v -1.7 0.7 -0.8
v -1.6 0.6 -0.8
v -1.6 0.7 -0.8
v -2 0.6 -1
v -2 0.7 -1
v -2 0.8 -1
v -1.8 0.7 -1
v -1.8 0.8 -1
v -1.7 0.6 -1
v -1.7 0.7 -1
v 0.6 1.1 -1.7
v 0.6 1.2 -1.7
v 0.7 1.1 -1.7
v 0.7 1.2 -1.7
v -2 0 -2
v -2 0.3 -2
v -2 0.5 -2
v -2 0.6 -2
v -0.7 0.5 -2
v -0.7 0.6 -2
v -0.7 0.7 -2
v -0.7 0.8 -2
v -0.6 0.7 -2
v -0.6 0.8 -2
v -0.6 0.9 -2
v 0.2 0.9 -2
v 0.2 1 -2
v 0.5 1 -2
v 0.5 1.1 -2
v 0.6 1.1 -2
v 0.6 1.2 -2
v 0.9 1.2 -2
v 0.9 1.3 -2
v 1 1.3 -2
v 1 1.4 -2
v 1.3 1.4 -2
v 1.3 1.5 -2
v 2 0 -2
v 2 0.3 -2
v 2 0.5 -2
v 2 0.6 -2
v 2 0.9 -2
v 2 1 -2
v 2 1.2 -2
v 2 1.5 -2
v -2 0 2
v 2 0 2
v -2 0 -2
v 2 0 -2
v -1 0.6 2
v -0.4 0.6 2
v 0.9 0.6 2
v 1.3 0.6 2
v -1.1 0.6 1.9
v -1 0.6 1.9
v -0.5 0.6 1.9
v -0.4 0.6 1.9
v 1.3 0.6 1.9
v 1.4 0.6 1.9
v -1.2 0.6 1.8
v -1.1 0.6 1.8
v -0.6 0.6 1.8
v -0.5 0.6 1.8
v 0.9 0.6 1.8
v 1.1 0.6 1.8
v 1.4 0.6 1.7
v 1.5 0.6 1.7
v -0.7 0.6 1.6
v -0.6 0.6 1.6
v 1.1 0.6 1.6
v 1.2 0.6 1.6
v -1.2 0.6 1.3
v -0.8 0.6 1.3
v -0.7 0.6 1.3
v 1.1 0.6 1
v 1.2 0.6 1
v 1.5 0.6 1
v 1.6 0.6 1
v -1.3 0.6 0.9
v -1.2 0.6 0.9
v -0.8 0.6 0.9
v -0.7 0.6 0.9
v 1 0.6 0.8
v 1.1 0.6 0.8
v -0.7 0.6 0.7
v -0.6 0.6 0.7
v 0.9 0.6 0.7
v 1 0.6 0.7
v 1.4 0.6 0.7
v 1.6 0.6 0.7
v 0.8 0.6 0.5
v 0.9 0.6 0.5
v -1.3 0.6 0.4
v -1.2 0.6 0.4
v -0.6 0.6 0.4
v -0.5 0.6 0.4
v 0.7 0.6 0.4
v 0.8 0.6 0.4
v -1.2 0.6 0.3
v -1.1 0.6 0.3
v -1.1 0.6 0.2
v -1 0.6 0.2
v -0.5 0.6 0.2
v -0.3 0.6 0.2
v -1 0.6 0.0999999
v -0.9 0.6 0.0999999
v -0.3 0.6 0.0999999
v -0.0999999 0.6 0.0999999
v 0.2 0.6 0.0999999
v 0.7 0.6 0.0999999
v -0.0999999 0.6 -2.38419e-07
v 0.2 0.6 -2.38419e-07
v 1.3 0.6 -2.38419e-07
v 1.4 0.6 -2.38419e-07
v -0.9 0.6 -0.1
v -0.8 0.6 -0.1
v 1.1 0.6 -0.1
v 1.3 0.6 -0.1
v -0.9 0.6 -0.3
v -0.8 0.6 -0.3
v 1 0.6 -0.3
v 1.1 0.6 -0.3
v -1.1 0.6 -0.4
v -0.9 0.6 -0.4
v 0.2 0.6 -0.4
v 1 0.6 -0.4
v -1.5 0.6 -0.5
v -1.1 0.6 -0.5
v 0.1 0.6 -0.5
v 0.2 0.6 -0.5
v -1.6 0.6 -0.6
v -1.5 0.6 -0.6
v -1.7 0.6 -0.8
v -1.6 0.6 -0.8
v 2.38419e-07 0.6 -0.8
v 0.1 0.6 -0.8
v -2 0.6 -1
v -1.7 0.6 -1
v -0.0999999 0.6 -1.1
v 2.38419e-07 0.6 -1.1
v -0.2 0.6 -1.2
v -0.0999999 0.6 -1.2
v -0.3 0.6 -1.4
v -0.2 0.6 -1.4
v -0.4 0.6 -1.5
v -0.3 0.6 -1.5
v -0.6 0.6 -1.6
v -0.4 0.6 -1.6
v -0.7 0.6 -1.7
v -0.6 0.6 -1.7
v -2 0.6 -2
v -0.7 0.6 -2
v -1.4 0.7 2
v -1 0.7 2
v -0.4 0.7 2
v -0.3 0.7 2
v -0.2 0.7 2
v -0.0999999 0.7 2
v 0.7 0.7 2
v 0.9 0.7 2
v 1.3 0.7 2
v 1.5 0.7 2
v -1.4 0.7 1.9
v -1.3 0.7 1.9
v -1.1 0.7 1.9
v -1 0.7 1.9
v -0.5 0.7 1.9
v -0.4 0.7 1.9
v -0.2 0.7 1.9
v -0.0999999 0.7 1.9
v 0.7 0.7 1.9
v 0.8 0.7 1.9
v 1.3 0.7 1.9
v 1.4 0.7 1.9
v -1.2 0.7 1.8
v -1.1 0.7 1.8
v -0.6 0.7 1.8
v -0.5 0.7 1.8
v -0.4 0.7 1.8
v -0.3 0.7 1.8
v 0.8 0.7 1.8
v 0.9 0.7 1.8
v 1.1 0.7 1.8
v 1.5 0.7 1.8
v 1.7 0.7 1.8
v -0.5 0.7 1.7
v -0.4 0.7 1.7
v 0.9 0.7 1.7
v 1.1 0.7 1.7
v 1.4 0.7 1.7
v 1.5 0.7 1.7
v 1.6 0.7 1.7
v 1.7 0.7 1.7
v -0.7 0.7 1.6
v -0.6 0.7 1.6
v 1 0.7 1.6
v 1.1 0.7 1.6
v 1.2 0.7 1.6
v -0.7 0.7 1.5
v -0.5 0.7 1.5
v 1 0.7 1.5
v 1.2 0.7 1.5
v 1.6 0.7 1.5
v 1.7 0.7 1.5
v 1.1 0.7 1.4
v 1.2 0.7 1.4
v 1.6 0.7 1.4
v 1.7 0.7 1.4
v -1.3 0.7 1.3
v -1.2 0.7 1.3
v 1.1 0.7 1.3
v 1.2 0.7 1.3
v 1.1 0.7 1.1
v 1.2 0.7 1.1
v 1.6 0.7 1.1
v 1.7 0.7 1.1
v -1.4 0.7 1
v -1.3 0.7 1
v 1 0.7 1
v 1.1 0.7 1
v 1.2 0.7 1
v 1.5 0.7 1
v 1.6 0.7 1
v 1.7 0.7 1
v 1.8 0.7 1
v -1.4 0.7 0.9
v -1.3 0.7 0.9
v 0.9 0.7 0.9
v 1 0.7 0.9
v 1.7 0.7 0.9
v 1.8 0.7 0.9
v -0.7 0.7 0.8
v -0.5 0.7 0.8
v 0.9 0.7 0.8
v 1 0.7 0.8
v 1.1 0.7 0.8
v -0.7 0.7 0.7
v -0.6 0.7 0.7
v -0.5 0.7 0.7
v 0.8 0.7 0.7
v 0.9 0.7 0.7
v 1.4 0.7 0.7
v 1.6 0.7 0.7
v 0.8 0.7 0.6
v 0.9 0.7 0.6
v 1.5 0.7 0.6
v 1.7 0.7 0.6
v -0.6 0.7 0.5
v -0.4 0.7 0.5
v 0.6 0.7 0.5
v 0.8 0.7 0.5
v 1.5 0.7 0.5
v 1.6 0.7 0.5
v -1.4 0.7 0.4
v -1.3 0.7 0.4
v -1.2 0.7 0.4
v -0.6 0.7 0.4
v -0.5 0.7 0.4
v 0.6 0.7 0.4
v 0.7 0.7 0.4
v 0.8 0.7 0.4
v 1.5 0.7 0.4
v 1.6 0.7 0.4
v -1.2 0.7 0.3
v -1.1 0.7 0.3
v -0.4 0.7 0.3
v -0.2 0.7 0.3
v -1.3 0.7 0.2
v -1.2 0.7 0.2
v -1.1 0.7 0.2
v -1 0.7 0.2
v -0.5 0.7 0.2
v -0.3 0.7 0.2
v 0.2 0.7 0.2
v 0.3 0.7 0.2
v 0.5 0.7 0.2
v 0.7 0.7 0.2
v 1.5 0.7 0.2
v 1.6 0.7 0.2
v -1.2 0.7 0.0999999
v -1.1 0.7 0.0999999
v -1 0.7 0.0999999
v -0.9 0.7 0.0999999
v -0.3 0.7 0.0999999
v -0.2 0.7 0.0999999
v -0.0999999 0.7 0.0999999
v 0.2 0.7 0.0999999
v 0.3 0.7 0.0999999
v 0.5 0.7 0.0999999
v 0.7 0.7 0.0999999
v -0.0999999 0.7 -2.38419e-07
v 0.2 0.7 -2.38419e-07
v 1.3 0.7 -2.38419e-07
v 1.4 0.7 -2.38419e-07
v 1.5 0.7 -2.38419e-07
v 1.6 0.7 -2.38419e-07
v -1.1 0.7 -0.1
v -1 0.7 -0.1
v -0.9 0.7 -0.1
v -0.8 0.7 -0.1
v 1.1 0.7 -0.1
v 1.3 0.7 -0.1
v 1.5 0.7 -0.1
v 1.6 0.7 -0.1
v -1 0.7 -0.2
v -0.9 0.7 -0.2
v 1.4 0.7 -0.2
v 1.6 0.7 -0.2
v -1.3 0.7 -0.3
v -0.9 0.7 -0.3
v -0.8 0.7 -0.3
v 1 0.7 -0.3
v 1.1 0.7 -0.3
v 1.2 0.7 -0.3
v 1.4 0.7 -0.3
v -1.6 0.7 -0.4
v -1.3 0.7 -0.4
v -1.1 0.7 -0.4
v -0.9 0.7 -0.4
v 0.2 0.7 -0.4
v 1 0.7 -0.4
v 1.1 0.7 -0.4
v 1.2 0.7 -0.4
v -1.7 0.7 -0.5
v -1.6 0.7 -0.5
v -1.5 0.7 -0.5
v -1.1 0.7 -0.5
v 0.1 0.7 -0.5
v 0.2 0.7 -0.5
v 0.5 0.7 -0.5
v 0.6 0.7 -0.5
v 0.7 0.7 -0.5
v 0.8 0.7 -0.5
v 0.9 0.7 -0.5
v 1.1 0.7 -0.5
v -1.8 0.7 -0.6
v -1.7 0.7 -0.6
v -1.6 0.7 -0.6
v -1.5 0.7 -0.6
v 0.3 0.7 -0.6
v 0.5 0.7 -0.6
v 0.6 0.7 -0.6
v 0.7 0.7 -0.6
v 0.8 0.7 -0.6
v 0.9 0.7 -0.6
v 0.2 0.7 -0.7
v 0.3 0.7 -0.7
v -1.7 0.7 -0.8
v -1.6 0.7 -0.8
v 2.38419e-07 0.7 -0.8
v 0.1 0.7 -0.8
v 0.1 0.7 -0.9
v 0.2 0.7 -0.9
v -1.8 0.7 -1
v -1.7 0.7 -1
v -0.0999999 0.7 -1.1
v 2.38419e-07 0.7 -1.1
v -0.2 0.7 -1.2
v -0.0999999 0.7 -1.2
v 2.38419e-07 0.7 -1.2
v 0.1 0.7 -1.2
v -0.3 0.7 -1.4
v -0.2 0.7 -1.4
v -0.0999999 0.7 -1.4
v 2.38419e-07 0.7 -1.4
v -0.4 0.7 -1.5
v -0.3 0.7 -1.5
v -0.2 0.7 -1.5
v -0.0999999 0.7 -1.5
v -0.6 0.7 -1.6
v -0.4 0.7 -1.6
v -0.3 0.7 -1.6
v -0.2 0.7 -1.6
v -0.7 0.7 -1.7
v -0.6 0.7 -1.7
v -0.5 0.7 -1.7
v -0.3 0.7 -1.7
v -0.7 0.7 -1.8
v -0.5 0.7 -1.8
v -2 0.8 2
v -1.4 0.8 2
v -0.3 0.8 2
v -0.2 0.8 2
v -0.0999999 0.8 2
v 0.7 0.8 2
v 1.5 0.8 2
v 2 0.8 2
v -1.8 0.8 1.9
v -1.6 0.8 1.9
v -1.4 0.8 1.9
v -1.3 0.8 1.9
v -0.2 0.8 1.9
v -0.0999999 0.8 1.9
v 0.7 0.8 1.9
v 0.8 0.8 1.9
v 1.8 0.8 1.9
v 2 0.8 1.9
v -1.9 0.8 1.8
v -1.8 0.8 1.8
v -1.6 0.8 1.8
v -1.5 0.8 1.8
v -0.4 0.8 1.8
v -0.3 0.8 1.8
v 0.8 0.8 1.8
v 0.9 0.8 1.8
v 1.5 0.8 1.8
v 1.7 0.8 1.8
v -0.5 0.8 1.7
v -0.4 0.8 1.7
v 0.9 0.8 1.7
v 1.1 0.8 1.7
v 1.6 0.8 1.7
v 1.7 0.8 1.7
v 1.8 0.8 1.7
v -2 0.8 1.6
v -1.9 0.8 1.6
v 1 0.8 1.6
v 1.1 0.8 1.6
v 1.7 0.8 1.6
v 1.8 0.8 1.6
v -0.7 0.8 1.5
v -0.5 0.8 1.5
v 1 0.8 1.5
v 1.2 0.8 1.5
v 1.6 0.8 1.5
v 1.7 0.8 1.5
v 1.1 0.8 1.4
v 1.2 0.8 1.4
v 1.6 0.8 1.4
v 1.7 0.8 1.4
v -2 0.8 1.3
v -1.5 0.8 1.3
v -1.3 0.8 1.3
v -0.7 0.8 1.3
v 1.1 0.8 1.3
v 1.2 0.8 1.3
v -1.3 0.8 1.2
v -1.2 0.8 1.2
v -0.8 0.8 1.2
v -0.7 0.8 1.2
v 1.1 0.8 1.1
v 1.2 0.8 1.1
v 1.6 0.8 1.1
v 1.7 0.8 1.1
v 1.8 0.8 1.1
v 1.9 0.8 1.1
v -1.4 0.8 1
v -1.3 0.8 1
v -1.2 0.8 1
v -0.8 0.8 1
v -0.7 0.8 1
v 1 0.8 1
v 1.1 0.8 1
v 1.7 0.8 1
v 1.8 0.8 1
v -2 0.8 0.9
v -1.5 0.8 0.9
v -1.4 0.8 0.9
v -0.7 0.8 0.9
v 0.9 0.8 0.9
v 1 0.8 0.9
v 1.7 0.8 0.9
v 1.8 0.8 0.9
v 1.9 0.8 0.9
v -0.7 0.8 0.8
v -0.5 0.8 0.8
v 0.9 0.8 0.8
v 1 0.8 0.8
v -0.6 0.8 0.7
v -0.5 0.8 0.7
v 0.8 0.8 0.7
v 1 0.8 0.7
v 1.8 0.8 0.7
v 2 0.8 0.7
v 0.8 0.8 0.6
v 0.9 0.8 0.6
v 1.5 0.8 0.6
v 1.7 0.8 0.6
v 1.9 0.8 0.6
v 2 0.8 0.6
v -0.6 0.8 0.5
v -0.4 0.8 0.5
v 0.6 0.8 0.5
v 0.9 0.8 0.5
v 1.5 0.8 0.5
v 1.6 0.8 0.5
v 1.8 0.8 0.5
v 1.9 0.8 0.5
v -1.4 0.8 0.4
v -1.3 0.8 0.4
v 0.6 0.8 0.4
v 0.7 0.8 0.4
v 1.5 0.8 0.4
v 1.6 0.8 0.4
v -1.5 0.8 0.3
v -1.4 0.8 0.3
v -0.4 0.8 0.3
v -0.2 0.8 0.3
v 1.7 0.8 0.3
v 1.8 0.8 0.3
v -1.3 0.8 0.2
v -1.2 0.8 0.2
v 0.2 0.8 0.2
v 0.3 0.8 0.2
v 0.5 0.8 0.2
v 0.7 0.8 0.2
v 1.5 0.8 0.2
v 1.6 0.8 0.2
v -1.5 0.8 0.0999999
v -1.4 0.8 0.0999999
v -1.2 0.8 0.0999999
v -1.1 0.8 0.0999999
v -0.2 0.8 0.0999999
v 0.2 0.8 0.0999999
v 0.3 0.8 0.0999999
v 0.5 0.8 0.0999999
v 1.5 0.8 -2.38419e-07
v 1.6 0.8 -2.38419e-07
v -1.7 0.8 -0.1
v -1.5 0.8 -0.1
v -1.1 0.8 -0.1
v -1 0.8 -0.1
v 1.5 0.8 -0.1
v 1.6 0.8 -0.1
v -1.8 0.8 -0.2
v -1.7 0.8 -0.2
v -1 0.8 -0.2
v -0.9 0.8 -0.2
v 1.4 0.8 -0.2
v 1.6 0.8 -0.2
v 1.7 0.8 -0.2
v -2 0.8 -0.3
v -1.8 0.8 -0.3
v -1.3 0.8 -0.3
v -0.9 0.8 -0.3
v 1.2 0.8 -0.3
v 1.4 0.8 -0.3
v 1.6 0.8 -0.3
v -1.6 0.8 -0.4
v -1.3 0.8 -0.4
v 1.1 0.8 -0.4
v 1.2 0.8 -0.4
v 1.4 0.8 -0.4
v -1.7 0.8 -0.5
v -1.6 0.8 -0.5
v 0.5 0.8 -0.5
v 0.6 0.8 -0.5
v 0.7 0.8 -0.5
v 0.8 0.8 -0.5
v 0.9 0.8 -0.5
v 1.1 0.8 -0.5
v -1.8 0.8 -0.6
v -1.7 0.8 -0.6
v 0.3 0.8 -0.6
v 0.5 0.8 -0.6
v 0.6 0.8 -0.6
v 0.7 0.8 -0.6
v 0.8 0.8 -0.6
v 0.9 0.8 -0.6
v 1 0.8 -0.6
v 1.2 0.8 -0.6
v 0.2 0.8 -0.7
v 0.3 0.8 -0.7
v 0.6 0.8 -0.7
v 1 0.8 -0.7
v 0.4 0.8 -0.8
v 0.6 0.8 -0.8
v 0.1 0.8 -0.9
v 0.2 0.8 -0.9
v 0.3 0.8 -0.9
v 0.4 0.8 -0.9
v -2 0.8 -1
v -1.8 0.8 -1
v 0.2 0.8 -1.1
v 0.3 0.8 -1.1
v 2.38419e-07 0.8 -1.2
v 0.1 0.8 -1.2
v 0.1 0.8 -1.3
v 0.2 0.8 -1.3
v -0.0999999 0.8 -1.4
v 2.38419e-07 0.8 -1.4
v -0.2 0.8 -1.5
v -0.0999999 0.8 -1.5
v -0.3 0.8 -1.6
v -0.2 0.8 -1.6
v -0.0999999 0.8 -1.6
v 0.1 0.8 -1.6
v -0.5 0.8 -1.7
v -0.3 0.8 -1.7
v -0.2 0.8 -1.7
v -0.0999999 0.8 -1.7
v -0.7 0.8 -1.8
v -0.5 0.8 -1.8
v -0.4 0.8 -1.8
v -0.2 0.8 -1.8
v -0.6 0.8 -1.9
v -0.4 0.8 -1.9
v -0.7 0.8 -2
v -0.6 0.8 -2
v -1.8 0.9 1.9
v -1.6 0.9 1.9
v 1.8 0.9 1.9
v 2 0.9 1.9
v -1.9 0.9 1.8
v -1.8 0.9 1.8
v -1.6 0.9 1.8
v -1.5 0.9 1.8
v 1.7 0.9 1.7
v 1.8 0.9 1.7
v -2 0.9 1.6
v -1.9 0.9 1.6
v 1.7 0.9 1.6
v 1.8 0.9 1.6
v -2 0.9 1.5
v -1.9 0.9 1.5
v -1.9 0.9 1.4
v -1.8 0.9 1.4
v -1.8 0.9 1.3
v -1.5 0.9 1.3
v -1.3 0.9 1.3
v -1.2 0.9 1.3
v -0.8 0.9 1.3
v -0.7 0.9 1.3
v -1.3 0.9 1.2
v -1.2 0.9 1.2
v -0.8 0.9 1.2
v -0.7 0.9 1.2
v 1.8 0.9 1.1
v 1.9 0.9 1.1
v -1.3 0.9 1
v -1.2 0.9 1
v -0.8 0.9 1
v -0.7 0.9 1
v -1.7 0.9 0.9
v -1.5 0.9 0.9
v -1.3 0.9 0.9
v -1.2 0.9 0.9
v -0.8 0.9 0.9
v -0.7 0.9 0.9
v 1.8 0.9 0.9
v 1.9 0.9 0.9
v -1.7 0.9 0.8
v -1.6 0.9 0.8
v -1.7 0.9 0.7
v -1.6 0.9 0.7
v 1.8 0.9 0.7
v 2 0.9 0.7
v 1.9 0.9 0.6
v 2 0.9 0.6
v 1.8 0.9 0.5
v 1.9 0.9 0.5
v -1.8 0.9 0.3
v -1.7 0.9 0.3
v -1.5 0.9 0.3
v -1.4 0.9 0.3
v 1.7 0.9 0.3
v 1.8 0.9 0.3
v -1.9 0.9 0.2
v -1.8 0.9 0.2
v -2 0.9 0.0999999
v -1.9 0.9 0.0999999
v -1.5 0.9 0.0999999
v -1.4 0.9 0.0999999
v -1.7 0.9 -0.1
v -1.5 0.9 -0.1
v -1.8 0.9 -0.2
v -1.7 0.9 -0.2
v 1.6 0.9 -0.2
v 1.7 0.9 -0.2
v -2 0.9 -0.3
v -1.8 0.9 -0.3
v 1.4 0.9 -0.3
v 1.6 0.9 -0.3
v 1.2 0.9 -0.4
v 1.4 0.9 -0.4
v 1.5 0.9 -0.5
v 1.9 0.9 -0.5
v 1 0.9 -0.6
v 1.2 0.9 -0.6
v 1.4 0.9 -0.6
v 1.5 0.9 -0.6
v 0.6 0.9 -0.7
v 1 0.9 -0.7
v 1.2 0.9 -0.7
v 1.4 0.9 -0.7
v 1.9 0.9 -0.7
v 2 0.9 -0.7
v 0.4 0.9 -0.8
v 0.6 0.9 -0.8
v 1.1 0.9 -0.8
v 1.2 0.9 -0.8
v 0.3 0.9 -0.9
v 0.4 0.9 -0.9
v 1 0.9 -0.9
v 1.1 0.9 -0.9
v 0.7 0.9 -1
v 1 0.9 -1
v 0.2 0.9 -1.1
v 0.3 0.9 -1.1
v 0.6 0.9 -1.1
v 0.7 0.9 -1.1
v 0.5 0.9 -1.2
v 0.6 0.9 -1.2
v 0.1 0.9 -1.3
v 0.2 0.9 -1.3
v 0.4 0.9 -1.4
v 0.5 0.9 -1.4
v 0.3 0.9 -1.5
v 0.4 0.9 -1.5
v -0.0999999 0.9 -1.6
v 0.1 0.9 -1.6
v -0.2 0.9 -1.7
v -0.0999999 0.9 -1.7
v 0.2 0.9 -1.7
v 0.3 0.9 -1.7
v -0.4 0.9 -1.8
v -0.2 0.9 -1.8
v -0.6 0.9 -1.9
v -0.4 0.9 -1.9
v -0.6 0.9 -2
v 0.2 0.9 -2
v -2 1 1.5
v -1.9 1 1.5
v -1.9 1 1.4
v -1.8 1 1.4
v -2 1 1.3
v -1.8 1 1.3
v -1.8 1 0.8
v -1.7 1 0.8
v -1.6 1 0.8
v -1.7 1 0.7
v -1.6 1 0.7
v -2 1 0.5
v -1.8 1 0.5
v -1.8 1 0.3
v -1.7 1 0.3
v -1.9 1 0.2
v -1.8 1 0.2
v -2 1 0.0999999
v -1.9 1 0.0999999
v 1.5 1 -0.5
v 1.9 1 -0.5
v 1.4 1 -0.6
v 1.5 1 -0.6
v 1.2 1 -0.7
v 1.4 1 -0.7
v 1.9 1 -0.7
v 2 1 -0.7
v 1.1 1 -0.8
v 1.2 1 -0.8
v 2 1 -0.8
v 1 1 -0.9
v 1.1 1 -0.9
v 0.7 1 -1
v 1 1 -1
v 1.1 1 -1
v 1.2 1 -1
v 0.6 1 -1.1
v 0.7 1 -1.1
v 0.8 1 -1.1
v 1.1 1 -1.1
v 0.5 1 -1.2
v 0.6 1 -1.2
v 0.7 1 -1.3
v 0.8 1 -1.3
v 0.4 1 -1.4
v 0.5 1 -1.4
v 0.6 1 -1.4
v 0.7 1 -1.4
v 0.3 1 -1.5
v 0.4 1 -1.5
v 0.5 1 -1.5
v 0.6 1 -1.5
v 0.2 1 -1.7
v 0.3 1 -1.7
v 0.2 1 -2
v 0.5 1 -2
v -2 1.1 0.9
v -1.7 1.1 0.9
v -1.8 1.1 0.8
v -1.7 1.1 0.8
v -2 1.1 0.5
v -1.8 1.1 0.5
v 1.2 1.1 -0.8
v 2 1.1 -0.8
v 1.1 1.1 -1
v 1.2 1.1 -1
v 0.8 1.1 -1.1
v 1.1 1.1 -1.1
v 1.5 1.1 -1.1
v 1.9 1.1 -1.1
v 1 1.1 -1.2
v 1.5 1.1 -1.2
v 1.9 1.1 -1.2
v 2 1.1 -1.2
v 0.7 1.1 -1.3
v 0.8 1.1 -1.3
v 0.9 1.1 -1.3
v 1 1.1 -1.3
v 0.6 1.1 -1.4
v 0.7 1.1 -1.4
v 0.9 1.1 -1.4
v 0.5 1.1 -1.5
v 0.6 1.1 -1.5
v 0.7 1.1 -1.5
v 0.6 1.1 -1.7
v 0.7 1.1 -1.7
v 0.6 1.1 -1.8
v 0.7 1.1 -1.8
v 0.5 1.1 -2
v 0.6 1.1 -2
v 1.5 1.2 -1.1
v 1.9 1.2 -1.1
v 1 1.2 -1.2
v 1.5 1.2 -1.2
v 1.9 1.2 -1.2
v 2 1.2 -1.2
v 0.9 1.2 -1.3
v 1 1.2 -1.3
v 1.4 1.2 -1.3
v 1.5 1.2 -1.3
v 0.7 1.2 -1.4
v 0.9 1.2 -1.4
v 1.3 1.2 -1.4
v 1.4 1.2 -1.4
v 1.5 1.2 -1.4
v 2 1.2 -1.4
v 0.6 1.2 -1.5
v 0.7 1.2 -1.5
v 0.9 1.2 -1.5
v 1.3 1.2 -1.5
v 0.6 1.2 -1.7
v 0.7 1.2 -1.7
v 0.6 1.2 -1.8
v 0.7 1.2 -1.8
v 0.6 1.2 -2
v 0.9 1.2 -2
v 1.4 1.3 -1.3
v 1.5 1.3 -1.3
v 1.3 1.3 -1.4
v 1.4 1.3 -1.4
v 1.5 1.3 -1.4
v 2 1.3 -1.4
v 0.9 1.3 -1.5
v 1.3 1.3 -1.5
v 1.4 1.3 -1.5
v 2 1.3 -1.5
v 1.1 1.3 -1.6
v 1.4 1.3 -1.6
v 1 1.3 -1.8
v 1.1 1.3 -1.8
v 0.9 1.3 -2
v 1 1.3 -2
v 1.4 1.4 -1.5
v 2 1.4 -1.5
v 1.1 1.4 -1.6
v 1.4 1.4 -1.6
v 1.4 1.4 -1.7
v 2 1.4 -1.7
v 1 1.4 -1.8
v 1.1 1.4 -1.8
v 1.3 1.4 -1.8
v 1.4 1.4 -1.8
v 1 1.4 -2
v 1.3 1.4 -2
v 1.4 1.5 -1.7
v 2 1.5 -1.7
v 1.3 1.5 -1.8
v 1.4 1.5 -1.8
v 1.3 1.5 -2
v 2 1.5 -2

# faces
f 3/8/1 2/8/1 1/8/1
f 4/8/1 2/8/1 3/8/1
f 5/1/1 4/1/1 3/1/1
f 6/1/1 4/1/1 5/1/1
f 7/1/1 4/1/1 6/1/1
f 8/7/1 6/7/1 5/7/1
f 9/7/1 6/7/1 8/7/1
f 10/7/1 6/7/1 9/7/1
f 11/3/1 7/3/1 6/3/1
f 11/7/1 6/7/1 10/7/1
f 12/3/1 7/3/1 11/3/1
f 13/5/1 9/5/1 8/5/1
f 14/5/1 9/5/1 13/5/1
f 15/1/1 10/1/1 9/1/1
f 15/5/1 9/5/1 14/5/1
f 16/5/1 11/5/1 10/5/1
f 16/1/1 10/1/1 15/1/1
f 17/5/1 11/5/1 16/5/1
f 18/5/1 11/5/1 17/5/1
f 19/4/1 14/4/1 13/4/1
f 20/4/1 14/4/1 19/4/1
f 21/10/1 15/10/1 14/10/1
f 21/4/1 14/4/1 20/4/1
f 21/10/1 16/10/1 15/10/1
f 21/10/1 17/10/1 16/10/1
f 22/4/1 18/4/1 17/4/1
f 22/10/1 17/10/1 21/10/1
f 23/4/1 18/4/1 22/4/1
f 24/4/1 18/4/1 23/4/1
f 25/4/1 21/4/1 20/4/1
f 26/4/1 21/4/1 25/4/1
f 27/4/1 21/4/1 26/4/1
f 28/4/1 23/4/1 22/4/1
f 29/4/1 23/4/1 28/4/1
f 30/4/1 23/4/1 29/4/1
f 31/5/1 27/5/1 26/5/1
f 32/5/1 27/5/1 31/5/1
f 33/5/1 29/5/1 28/5/1
f 34/5/1 29/5/1 33/5/1
f 35/5/1 29/5/1 34/5/1
f 36/6/1 34/6/1 33/6/1
f 37/6/1 34/6/1 36/6/1
f 40/4/1 39/4/1 38/4/1
f 41/4/1 39/4/1 40/4/1
f 44/4/1 43/4/1 42/4/1
f 45/4/1 43/4/1 44/4/1
f 50/10/1 47/10/1 46/10/1
f 51/10/1 47/10/1 50/10/1
f 52/2/1 49/2/1 48/2/1
f 53/2/1 49/2/1 52/2/1
f 54/2/1 51/2/1 50/2/1
f 55/2/1 51/2/1 54/2/1
f 58/9/1 57/9/1 56/9/1
f 59/9/1 57/9/1 58/9/1
f 60/10/1 59/10/1 58/10/1
f 61/10/1 59/10/1 60/10/1
f 62/10/1 59/10/1 61/10/1
f 63/10/1 59/10/1 62/10/1
f 64/2/1 61/2/1 60/2/1
f 65/2/1 61/2/1 64/2/1
f 66/2/1 63/2/1 62/2/1
f 67/2/1 63/2/1 66/2/1
f 74/9/1 69/9/1 68/9/1
f 75/9/1 69/9/1 74/9/1
f 76/9/1 69/9/1 75/9/1
f 77/9/1 71/9/1 70/9/1
f 78/9/1 71/9/1 77/9/1
f 79/9/1 71/9/1 78/9/1
f 80/5/1 73/5/1 72/5/1
f 81/5/1 73/5/1 80/5/1
f 82/5/1 73/5/1 81/5/1
f 83/10/1 76/10/1 75/10/1
f 84/10/1 76/10/1 83/10/1
f 85/10/1 78/10/1 77/10/1
f 86/10/1 78/10/1 85/10/1
f 87/4/1 82/4/1 81/4/1
f 88/4/1 82/4/1 87/4/1
f 95/9/1 90/9/1 89/9/1
f 96/9/1 90/9/1 95/9/1
f 97/9/1 92/9/1 91/9/1
f 98/9/1 92/9/1 97/9/1
f 99/9/1 92/9/1 98/9/1
f 100/5/1 94/5/1 93/5/1
f 101/5/1 94/5/1 100/5/1
f 102/10/1 98/10/1 97/10/1
f 103/10/1 98/10/1 102/10/1
f 106/5/1 105/5/1 104/5/1
f 107/5/1 105/5/1 106/5/1
f 112/9/1 109/9/1 108/9/1
f 113/9/1 109/9/1 112/9/1
f 118/9/1 111/9/1 110/9/1
f 119/9/1 111/9/1 118/9/1
f 122/10/1 115/10/1 114/10/1
f 123/10/1 115/10/1 122/10/1
f 124/10/1 117/10/1 116/10/1
f 125/10/1 117/10/1 124/10/1
f 126/4/1 121/4/1 120/4/1
f 127/4/1 121/4/1 126/4/1
f 132/9/1 129/9/1 128/9/1
f 133/9/1 129/9/1 132/9/1
f 138/5/1 131/5/1 130/5/1
f 139/5/1 131/5/1 138/5/1
f 140/10/1 135/10/1 134/10/1
f 141/10/1 135/10/1 140/10/1
f 142/10/1 137/10/1 136/10/1
f 143/10/1 137/10/1 142/10/1
f 146/5/1 145/5/1 144/5/1
f 147/5/1 145/5/1 146/5/1
f 154/9/1 149/9/1 148/9/1
f 155/9/1 149/9/1 154/9/1
f 156/5/1 151/5/1 150/5/1
f 157/5/1 151/5/1 156/5/1
f 160/10/1 153/10/1 152/10/1
f 161/10/1 153/10/1 160/10/1
f 162/4/1 159/4/1 158/4/1
f 163/4/1 159/4/1 162/4/1
f 168/5/1 165/5/1 164/5/1
f 169/5/1 165/5/1 168/5/1
f 172/10/1 167/10/1 166/10/1
f 173/10/1 167/10/1 172/10/1
f 174/4/1 171/4/1 170/4/1
f 175/4/1 171/4/1 174/4/1
f 178/5/1 177/5/1 176/5/1
f 179/5/1 177/5/1 178/5/1
f 186/9/1 181/9/1 180/9/1
f 187/9/1 181/9/1 186/9/1
f 188/5/1 183/5/1 182/5/1
f 189/5/1 183/5/1 188/5/1
f 192/10/1 185/10/1 184/10/1
f 193/10/1 185/10/1 192/10/1
f 194/4/1 191/4/1 190/4/1
f 195/4/1 191/4/1 194/4/1
f 198/5/1 197/5/1 196/5/1
f 199/5/1 197/5/1 198/5/1
f 202/5/1 201/5/1 200/5/1
f 203/5/1 201/5/1 202/5/1
f 206/4/1 205/4/1 204/4/1
f 207/4/1 205/4/1 206/4/1
f 210/5/1 209/5/1 208/5/1
f 211/5/1 209/5/1 210/5/1
f 214/4/1 213/4/1 212/4/1
f 215/4/1 213/4/1 214/4/1
f 218/5/1 217/5/1 216/5/1
f 219/5/1 217/5/1 218/5/1
f 222/5/1 221/5/1 220/5/1
f 223/5/1 221/5/1 222/5/1
f 226/4/1 225/4/1 224/4/1
f 227/4/1 225/4/1 226/4/1
f 230/5/1 229/5/1 228/5/1
f 231/5/1 229/5/1 230/5/1
f 234/4/1 233/4/1 232/4/1
f 235/4/1 233/4/1 234/4/1
f 240/10/1 237/10/1 236/10/1
f 241/10/1 237/10/1 240/10/1
f 242/4/1 239/4/1 238/4/1
f 243/4/1 239/4/1 242/4/1
f 246/5/1 245/5/1 244/5/1
f 247/5/1 245/5/1 246/5/1
f 250/4/1 249/4/1 248/4/1
f 251/4/1 249/4/1 250/4/1
f 254/5/1 253/5/1 252/5/1
f 255/5/1 253/5/1 254/5/1
f 258/4/1 257/4/1 256/4/1
f 259/4/1 257/4/1 258/4/1
f 262/4/1 261/4/1 260/4/1
f 263/4/1 261/4/1 262/4/1
f 266/4/1 265/4/1 264/4/1
f 267/4/1 265/4/1 266/4/1
f 270/5/1 269/5/1 268/5/1
f 271/5/1 269/5/1 270/5/1
f 274/5/1 273/5/1 272/5/1
f 275/5/1 273/5/1 274/5/1
f 278/4/1 277/4/1 276/4/1
f 279/4/1 277/4/1 278/4/1
f 282/5/1 281/5/1 280/5/1
f 283/5/1 281/5/1 282/5/1
f 287/5/1 284/5/1 283/5/1
f 288/5/1 284/5/1 287/5/1
f 289/5/1 286/5/1 285/5/1
f 290/5/1 286/5/1 289/5/1
f 293/4/1 292/4/1 291/4/1
f 294/4/1 292/4/1 293/4/1
f 297/4/1 296/4/1 295/4/1
f 298/4/1 296/4/1 297/4/1
f 301/5/1 300/5/1 299/5/1
f 302/5/1 300/5/1 301/5/1
f 306/5/1 303/5/1 302/5/1
f 307/5/1 303/5/1 306/5/1
f 308/5/1 305/5/1 304/5/1
f 309/5/1 305/5/1 308/5/1
f 312/5/1 311/5/1 310/5/1
f 313/5/1 311/5/1 312/5/1
f 316/4/1 315/4/1 314/4/1
f 317/4/1 315/4/1 316/4/1
f 320/5/1 319/5/1 318/5/1
f 321/5/1 319/5/1 320/5/1
f 324/6/1 323/6/1 322/6/1
f 325/6/1 323/6/1 324/6/1
f 328/5/1 327/5/1 326/5/1
f 329/5/1 327/5/1 328/5/1
f 332/5/1 331/5/1 330/5/1
f 333/5/1 331/5/1 332/5/1
f 336/4/1 335/4/1 334/4/1
f 337/4/1 335/4/1 336/4/1
f 340/5/1 339/5/1 338/5/1
f 341/5/1 339/5/1 340/5/1
f 344/6/1 343/6/1 342/6/1
f 345/6/1 343/6/1 344/6/1
f 348/5/1 347/5/1 346/5/1
f 349/5/1 347/5/1 348/5/1
f 352/4/1 351/4/1 350/4/1
f 353/4/1 351/4/1 352/4/1
f 356/4/1 355/4/1 354/4/1
f 357/4/1 355/4/1 356/4/1
f 360/5/1 359/5/1 358/5/1
f 361/5/1 359/5/1 360/5/1
f 364/6/1 363/6/1 362/6/1
f 365/6/1 363/6/1 364/6/1
f 368/4/1 367/4/1 366/4/1
f 369/4/1 367/4/1 368/4/1
f 371/5/1 370/5/1 369/5/1
f 372/5/1 370/5/1 371/5/1
f 375/4/1 374/4/1 373/4/1
f 376/4/1 374/4/1 375/4/1
f 378/5/1 377/5/1 376/5/1
f 379/5/1 377/5/1 378/5/1
f 384/5/1 381/5/1 380/5/1
f 385/5/1 381/5/1 384/5/1
f 386/5/1 383/5/1 382/5/1
f 387/5/1 383/5/1 386/5/1
f 390/6/1 389/6/1 388/6/1
f 391/6/1 389/6/1 390/6/1
f 394/6/1 393/6/1 392/6/1
f 395/6/1 393/6/1 394/6/1
f 400/5/1 397/5/1 396/5/1
f 401/5/1 397/5/1 400/5/1
f 402/5/1 399/5/1 398/5/1
f 403/5/1 399/5/1 402/5/1
f 406/4/1 405/4/1 404/4/1
f 407/4/1 405/4/1 406/4/1
f 409/5/1 408/5/1 407/5/1
f 410/5/1 408/5/1 409/5/1
f 413/4/1 412/4/1 411/4/1
f 414/4/1 412/4/1 413/4/1
f 417/6/1 416/6/1 415/6/1
f 418/6/1 416/6/1 417/6/1
f 421/6/1 420/6/1 419/6/1
f 422/6/1 420/6/1 421/6/1
f 425/6/1 424/6/1 423/6/1
f 426/6/1 424/6/1 425/6/1
f 431/5/1 428/5/1 427/5/1
f 432/5/1 428/5/1 431/5/1
f 439/4/1 430/4/1 429/4/1
f 440/4/1 430/4/1 439/4/1
f 441/4/1 434/4/1 433/4/1
f 442/4/1 434/4/1 441/4/1
f 443/4/1 436/4/1 435/4/1
f 444/4/1 436/4/1 443/4/1
f 445/4/1 438/4/1 437/4/1
f 446/4/1 438/4/1 445/4/1
f 449/4/1 448/4/1 447/4/1
f 450/4/1 448/4/1 449/4/1
f 453/5/1 452/5/1 451/5/1
f 454/5/1 452/5/1 453/5/1
f 461/5/1 456/5/1 455/5/1
f 462/5/1 456/5/1 461/5/1
f 469/4/1 458/4/1 457/4/1
f 470/4/1 458/4/1 469/4/1
f 471/4/1 460/4/1 459/4/1
f 472/4/1 460/4/1 471/4/1
f 473/4/1 464/4/1 463/4/1
f 474/4/1 464/4/1 473/4/1
f 475/4/1 466/4/1 465/4/1
f 476/4/1 466/4/1 475/4/1
f 477/4/1 468/4/1 467/4/1
f 478/4/1 468/4/1 477/4/1
f 480/5/1 479/5/1 478/5/1
f 481/5/1 479/5/1 480/5/1
f 490/4/1 483/4/1 482/4/1
f 491/4/1 483/4/1 490/4/1
f 493/4/1 485/4/1 484/4/1
f 494/4/1 485/4/1 493/4/1
f 495/4/1 487/4/1 486/4/1
f 496/4/1 487/4/1 495/4/1
f 497/4/1 489/4/1 488/4/1
f 498/4/1 489/4/1 497/4/1
f 501/6/1 492/6/1 491/6/1
f 502/6/1 492/6/1 501/6/1
f 503/5/1 500/5/1 499/5/1
f 504/5/1 500/5/1 503/5/1
f 511/4/1 506/4/1 505/4/1
f 512/4/1 506/4/1 511/4/1
f 516/6/1 508/6/1 507/6/1
f 517/6/1 508/6/1 516/6/1
f 518/6/1 510/6/1 509/6/1
f 519/6/1 510/6/1 518/6/1
f 520/6/1 513/6/1 512/6/1
f 521/6/1 513/6/1 520/6/1
f 522/5/1 515/5/1 514/5/1
f 523/5/1 515/5/1 522/5/1
f 528/6/1 525/6/1 524/6/1
f 529/6/1 525/6/1 528/6/1
f 530/5/1 527/5/1 526/5/1
f 531/5/1 527/5/1 530/5/1
f 532/5/2 533/5/2 536/5/2
f 536/5/2 533/5/2 537/5/2
f 534/5/2 535/5/2 538/5/2
f 538/5/2 535/5/2 539/5/2
f 540/4/2 541/4/2 544/4/2
f 544/4/2 541/4/2 545/4/2
f 542/4/2 543/4/2 550/4/2
f 550/4/2 543/4/2 551/4/2
f 546/5/2 547/5/2 552/5/2
f 552/5/2 547/5/2 553/5/2
f 548/5/2 549/5/2 556/5/2
f 556/5/2 549/5/2 557/5/2
f 554/6/2 555/6/2 558/6/2
f 558/6/2 555/6/2 559/6/2
f 560/5/2 561/5/2 564/5/2
f 564/5/2 561/5/2 565/5/2
f 562/4/2 563/4/2 568/4/2
f 568/4/2 563/4/2 569/4/2
f 566/4/2 567/4/2 574/4/2
f 574/4/2 567/4/2 575/4/2
f 570/5/2 571/5/2 576/5/2
f 576/5/2 571/5/2 577/5/2
f 572/5/2 573/5/2 578/5/2
f 578/5/2 573/5/2 579/5/2
f 576/6/2 577/6/2 580/6/2
f 580/6/2 577/6/2 581/6/2
f 582/5/2 583/5/2 586/5/2
f 586/5/2 583/5/2 587/5/2
f 584/4/2 585/4/2 590/4/2
f 590/4/2 585/4/2 591/4/2
f 588/4/2 589/4/2 592/4/2
f 592/4/2 589/4/2 593/4/2
f 594/5/2 595/5/2 596/5/2
f 596/5/2 595/5/2 597/5/2
f 598/5/2 599/5/2 600/5/2
f 600/5/2 599/5/2 601/5/2
f 602/4/2 603/4/2 608/4/2
f 608/4/2 603/4/2 609/4/2
f 604/4/2 605/4/2 610/4/2
f 610/4/2 605/4/2 611/4/2
f 606/4/2 607/4/2 612/4/2
f 612/4/2 607/4/2 613/4/2
f 614/4/2 615/4/2 619/4/2
f 619/4/2 615/4/2 620/4/2
f 616/10/2 617/10/2 621/10/2
f 617/4/2 618/4/2 622/4/2
f 621/10/2 617/10/2 622/10/2
f 622/4/2 618/4/2 623/4/2
f 624/4/2 625/4/2 626/4/2
f 626/4/2 625/4/2 627/4/2
f 628/5/2 629/5/2 632/5/2
f 632/5/2 629/5/2 633/5/2
f 630/4/2 631/4/2 637/4/2
f 637/4/2 631/4/2 638/4/2
f 633/4/2 634/4/2 639/4/2
f 639/4/2 634/4/2 640/4/2
f 635/4/2 636/4/2 641/4/2
f 641/4/2 636/4/2 642/4/2
f 643/5/2 644/5/2 648/5/2
f 644/10/2 645/10/2 649/10/2
f 648/5/2 644/5/2 649/5/2
f 646/5/2 647/5/2 650/5/2
f 650/5/2 647/5/2 651/5/2
f 649/10/2 645/10/2 654/10/2
f 654/10/2 645/10/2 655/10/2
f 655/10/2 645/10/2 656/10/2
f 656/10/2 645/10/2 657/10/2
f 652/4/2 653/4/2 658/4/2
f 658/4/2 653/4/2 659/4/2
f 654/2/2 655/2/2 660/2/2
f 660/2/2 655/2/2 661/2/2
f 656/2/2 657/2/2 662/2/2
f 662/2/2 657/2/2 663/2/2
f 664/5/2 665/5/2 670/5/2
f 670/5/2 665/5/2 671/5/2
f 666/5/2 667/5/2 672/5/2
f 672/5/2 667/5/2 673/5/2
f 668/5/2 669/5/2 676/5/2
f 676/5/2 669/5/2 677/5/2
f 674/4/2 675/4/2 678/4/2
f 678/4/2 675/4/2 679/4/2
f 680/5/2 681/5/2 684/5/2
f 684/5/2 681/5/2 685/5/2
f 682/5/2 683/5/2 686/5/2
f 686/5/2 683/5/2 687/5/2
f 688/4/2 689/4/2 690/4/2
f 690/4/2 689/4/2 691/4/2
f 692/5/2 693/5/2 696/5/2
f 696/5/2 693/5/2 697/5/2
f 694/5/2 695/5/2 699/5/2
f 699/5/2 695/5/2 700/5/2
f 698/4/2 699/4/2 701/4/2
f 701/4/2 699/4/2 702/4/2
f 703/5/2 704/5/2 705/5/2
f 705/5/2 704/5/2 706/5/2
f 707/2/2 708/2/2 711/2/2
f 711/2/2 708/2/2 712/2/2
f 709/2/2 710/2/2 713/2/2
f 713/2/2 710/2/2 714/2/2
f 715/10/2 716/10/2 717/10/2
f 717/10/2 716/10/2 718/10/2
f 719/9/2 720/9/2 722/9/2
f 722/9/2 720/9/2 723/9/2
f 721/10/2 722/10/2 724/10/2
f 724/10/2 722/10/2 725/10/2
f 726/10/2 727/10/2 728/10/2
f 728/10/2 727/10/2 729/10/2
f 730/10/2 731/10/2 734/10/2
f 734/10/2 731/10/2 735/10/2
f 732/4/2 733/4/2 736/4/2
f 736/4/2 733/4/2 737/4/2
f 738/9/2 739/9/2 742/9/2
f 742/9/2 739/9/2 743/9/2
f 743/9/2 739/9/2 744/9/2
f 740/10/2 741/10/2 745/10/2
f 745/10/2 741/10/2 746/10/2
f 742/10/2 743/10/2 747/10/2
f 747/10/2 743/10/2 748/10/2
f 749/9/2 750/9/2 755/9/2
f 755/9/2 750/9/2 756/9/2
f 751/10/2 752/10/2 759/10/2
f 759/10/2 752/10/2 760/10/2
f 753/10/2 754/10/2 761/10/2
f 761/10/2 754/10/2 762/10/2
f 757/4/2 758/4/2 763/4/2
f 763/4/2 758/4/2 764/4/2
f 765/9/2 766/9/2 769/9/2
f 769/9/2 766/9/2 770/9/2
f 767/9/2 768/9/2 774/9/2
f 774/9/2 768/9/2 775/9/2
f 775/9/2 768/9/2 776/9/2
f 770/10/2 771/10/2 777/10/2
f 777/10/2 771/10/2 778/10/2
f 772/10/2 773/10/2 779/10/2
f 779/10/2 773/10/2 780/10/2
f 775/10/2 776/10/2 781/10/2
f 781/10/2 776/10/2 782/10/2
f 783/9/2 784/9/2 789/9/2
f 789/9/2 784/9/2 790/9/2
f 785/10/2 786/10/2 791/10/2
f 791/10/2 786/10/2 792/10/2
f 787/10/2 788/10/2 793/10/2
f 793/10/2 788/10/2 794/10/2
f 789/10/2 790/10/2 795/10/2
f 795/10/2 790/10/2 796/10/2
f 797/9/2 798/9/2 801/9/2
f 801/9/2 798/9/2 802/9/2
f 802/9/2 798/9/2 803/9/2
f 799/9/2 800/9/2 807/9/2
f 807/9/2 800/9/2 808/9/2
f 802/10/2 803/10/2 809/10/2
f 809/10/2 803/10/2 810/10/2
f 804/10/2 805/10/2 811/10/2
f 811/10/2 805/10/2 812/10/2
f 806/10/2 807/10/2 813/10/2
f 813/10/2 807/10/2 814/10/2
f 815/9/2 816/9/2 817/9/2
f 817/9/2 816/9/2 818/9/2
f 818/9/2 816/9/2 819/9/2
f 819/9/2 816/9/2 820/9/2
f 820/9/2 816/9/2 821/9/2
f 821/9/2 816/9/2 822/9/2
f 818/10/2 819/10/2 823/10/2
f 823/10/2 819/10/2 824/10/2
f 820/10/2 821/10/2 825/10/2
f 825/10/2 821/10/2 826/10/2
f 827/6/2 828/6/2 829/6/2
f 829/6/2 828/6/2 830/6/2
f 831/4/2 832/4/2 833/4/2
f 833/4/2 832/4/2 834/4/2
f 835/5/2 836/5/2 837/5/2
f 837/5/2 836/5/2 838/5/2
f 839/8/2 840/8/2 841/8/2
f 841/8/2 840/8/2 842/8/2
f 841/1/2 842/1/2 843/1/2
f 843/1/2 842/1/2 844/1/2
f 843/7/2 844/7/2 845/7/2
f 845/7/2 844/7/2 846/7/2
f 845/5/2 846/5/2 847/5/2
f 847/5/2 846/5/2 848/5/2
f 847/4/2 848/4/2 849/4/2
f 849/4/2 848/4/2 850/4/2
f 850/4/2 848/4/2 851/4/2
f 848/5/2 846/5/2 852/5/2
f 851/4/2 848/4/2 852/4/2
f 850/6/2 851/6/2 853/6/2
f 853/6/2 851/6/2 854/6/2
f 852/5/2 846/5/2 855/5/2
f 855/5/2 846/5/2 856/5/2
f 856/5/2 846/5/2 857/5/2
f 856/4/2 857/4/2 858/4/2
f 858/4/2 857/4/2 859/4/2
f 859/4/2 857/4/2 860/4/2
f 859/5/2 860/5/2 861/5/2
f 861/5/2 860/5/2 862/5/2
f 862/5/2 860/5/2 863/5/2
f 863/5/2 860/5/2 864/5/2
f 864/5/2 860/5/2 865/5/2
f 864/6/2 865/6/2 866/6/2
f 866/6/2 865/6/2 867/6/2
f 867/6/2 865/6/2 868/6/2
f 868/6/2 865/6/2 869/6/2
f 869/6/2 865/6/2 870/6/2
f 870/6/2 865/6/2 871/6/2
f 878/5/3 876/5/3 875/5/3
f 878/4/3 877/4/3 876/4/3
f 879/4/3 877/4/3 878/4/3
f 880/1/3 874/1/3 873/1/3
f 880/7/3 875/7/3 874/7/3
f 881/5/3 878/5/3 875/5/3
f 881/7/3 875/7/3 880/7/3
f 882/5/3 878/5/3 881/5/3
f 883/1/3 880/1/3 873/1/3
f 883/3/3 881/3/3 880/3/3
f 884/3/3 881/3/3 883/3/3
f 886/9/3 885/9/3 884/9/3
f 888/9/3 886/9/3 884/9/3
f 888/10/3 887/10/3 886/10/3
f 889/10/3 887/10/3 888/10/3
f 890/9/3 888/9/3 884/9/3
f 892/9/3 890/9/3 884/9/3
f 892/10/3 891/10/3 890/10/3
f 893/10/3 891/10/3 892/10/3
f 894/6/3 884/6/3 883/6/3
f 894/1/3 883/1/3 873/1/3
f 895/9/3 892/9/3 884/9/3
f 895/6/3 884/6/3 894/6/3
f 896/9/3 892/9/3 895/9/3
f 897/1/3 894/1/3 873/1/3
f 897/3/3 895/3/3 894/3/3
f 898/3/3 895/3/3 897/3/3
f 900/5/3 899/5/3 898/5/3
f 902/8/3 873/8/3 872/8/3
f 903/1/3 897/1/3 873/1/3
f 903/8/3 873/8/3 902/8/3
f 904/7/3 898/7/3 897/7/3
f 904/1/3 897/1/3 903/1/3
f 905/5/3 900/5/3 898/5/3
f 905/7/3 898/7/3 904/7/3
f 906/4/3 901/4/3 900/4/3
f 906/5/3 900/5/3 905/5/3
f 907/4/3 901/4/3 906/4/3
f 910/4/3 909/4/3 908/4/3
f 911/4/3 909/4/3 910/4/3
f 914/4/3 913/4/3 912/4/3
f 915/4/3 913/4/3 914/4/3
f 918/9/3 917/9/3 916/9/3
f 919/9/3 917/9/3 918/9/3
f 922/10/3 921/10/3 920/10/3
f 923/10/3 921/10/3 922/10/3
f 926/10/3 925/10/3 924/10/3
f 927/10/3 925/10/3 926/10/3
f 930/6/3 929/6/3 928/6/3
f 931/6/3 929/6/3 930/6/3
f 934/4/3 933/4/3 932/4/3
f 935/4/3 933/4/3 934/4/3
f 938/4/3 937/4/3 936/4/3
f 939/4/3 937/4/3 938/4/3
f 942/9/3 941/9/3 940/9/3
f 943/9/3 941/9/3 942/9/3
f 946/10/3 945/10/3 944/10/3
f 947/10/3 945/10/3 946/10/3
f 951/10/3 949/10/3 948/10/3
f 952/10/3 949/10/3 951/10/3
f 953/9/3 951/9/3 950/9/3
f 954/9/3 951/9/3 953/9/3
f 957/10/3 956/10/3 955/10/3
f 958/10/3 956/10/3 957/10/3
f 961/10/3 960/10/3 959/10/3
f 962/10/3 960/10/3 961/10/3
f 965/4/3 964/4/3 963/4/3
f 966/4/3 964/4/3 965/4/3
f 968/6/3 967/6/3 966/6/3
f 969/6/3 967/6/3 968/6/3
f 972/4/3 971/4/3 970/4/3
f 973/4/3 971/4/3 972/4/3
f 976/9/3 975/9/3 974/9/3
f 977/9/3 975/9/3 976/9/3
f 980/9/3 979/9/3 978/9/3
f 981/9/3 979/9/3 980/9/3
f 984/5/3 983/5/3 982/5/3
f 985/5/3 983/5/3 984/5/3
f 988/10/3 987/10/3 986/10/3
f 989/10/3 987/10/3 988/10/3
f 992/10/3 991/10/3 990/10/3
f 993/10/3 991/10/3 992/10/3
f 996/5/3 995/5/3 994/5/3
f 997/5/3 995/5/3 996/5/3
f 1000/4/3 999/4/3 998/4/3
f 1001/4/3 999/4/3 1000/4/3
f 1005/10/3 1003/10/3 1002/10/3
f 1006/2/3 1004/2/3 1003/2/3
f 1006/10/3 1003/10/3 1005/10/3
f 1007/2/3 1004/2/3 1006/2/3
f 1012/9/3 1009/9/3 1008/9/3
f 1013/10/3 1010/10/3 1009/10/3
f 1013/9/3 1009/9/3 1012/9/3
f 1014/2/3 1011/2/3 1010/2/3
f 1014/10/3 1010/10/3 1013/10/3
f 1015/2/3 1011/2/3 1014/2/3
f 1018/10/3 1017/10/3 1016/10/3
f 1019/10/3 1017/10/3 1018/10/3
f 1022/2/3 1021/2/3 1020/2/3
f 1023/2/3 1021/2/3 1022/2/3
f 1026/2/3 1025/2/3 1024/2/3
f 1027/2/3 1025/2/3 1026/2/3
f 1032/4/3 1029/4/3 1028/4/3
f 1032/5/3 1030/5/3 1029/5/3
f 1033/6/3 1031/6/3 1030/6/3
f 1033/5/3 1030/5/3 1032/5/3
f 1034/6/3 1031/6/3 1033/6/3
f 1035/4/3 1032/4/3 1028/4/3
f 1036/4/3 1032/4/3 1035/4/3
f 1039/4/3 1038/4/3 1037/4/3
f 1040/4/3 1038/4/3 1039/4/3
f 1042/6/3 1041/6/3 1040/6/3
f 1043/6/3 1041/6/3 1042/6/3
f 1046/5/3 1045/5/3 1044/5/3
f 1047/5/3 1045/5/3 1046/5/3
f 1050/10/3 1049/10/3 1048/10/3
f 1051/10/3 1049/10/3 1050/10/3
f 1054/10/3 1053/10/3 1052/10/3
f 1055/10/3 1053/10/3 1054/10/3
f 1058/5/3 1057/5/3 1056/5/3
f 1059/5/3 1057/5/3 1058/5/3
f 1062/10/3 1061/10/3 1060/10/3
f 1063/10/3 1061/10/3 1062/10/3
f 1066/4/3 1065/4/3 1064/4/3
f 1067/4/3 1065/4/3 1066/4/3
f 1070/5/3 1069/5/3 1068/5/3
f 1071/5/3 1069/5/3 1070/5/3
f 1074/5/3 1073/5/3 1072/5/3
f 1075/5/3 1073/5/3 1074/5/3
f 1079/4/3 1077/4/3 1076/4/3
f 1080/4/3 1077/4/3 1079/4/3
f 1081/5/3 1079/5/3 1078/5/3
f 1082/5/3 1079/5/3 1081/5/3
f 1085/10/3 1084/10/3 1083/10/3
f 1086/10/3 1084/10/3 1085/10/3
f 1089/4/3 1088/4/3 1087/4/3
f 1090/4/3 1088/4/3 1089/4/3
f 1093/4/3 1092/4/3 1091/4/3
f 1094/4/3 1092/4/3 1093/4/3
f 1097/5/3 1096/5/3 1095/5/3
f 1098/5/3 1096/5/3 1097/5/3
f 1101/5/3 1100/5/3 1099/5/3
f 1102/5/3 1100/5/3 1101/5/3
f 1105/4/3 1104/4/3 1103/4/3
f 1106/4/3 1104/4/3 1105/4/3
f 1109/5/3 1108/5/3 1107/5/3
f 1110/5/3 1108/5/3 1109/5/3
f 1113/4/3 1112/4/3 1111/4/3
f 1114/4/3 1112/4/3 1113/4/3
f 1117/5/3 1116/5/3 1115/5/3
f 1118/5/3 1116/5/3 1117/5/3
f 1121/5/3 1120/5/3 1119/5/3
f 1122/5/3 1120/5/3 1121/5/3
f 1125/4/3 1124/4/3 1123/4/3
f 1126/4/3 1124/4/3 1125/4/3
f 1129/4/3 1128/4/3 1127/4/3
f 1130/4/3 1128/4/3 1129/4/3
f 1133/5/3 1132/5/3 1131/5/3
f 1134/5/3 1132/5/3 1133/5/3
f 1137/5/3 1136/5/3 1135/5/3
f 1138/5/3 1136/5/3 1137/5/3
f 1141/4/3 1140/4/3 1139/4/3
f 1142/4/3 1140/4/3 1141/4/3
f 1145/4/3 1144/4/3 1143/4/3
f 1146/4/3 1144/4/3 1145/4/3
f 1148/5/3 1147/5/3 1146/5/3
f 1149/5/3 1147/5/3 1148/5/3
f 1152/5/3 1151/5/3 1150/5/3
f 1153/5/3 1151/5/3 1152/5/3
f 1156/4/3 1155/4/3 1154/4/3
f 1157/4/3 1155/4/3 1156/4/3
f 1159/5/3 1158/5/3 1157/5/3
f 1160/5/3 1158/5/3 1159/5/3
f 1163/5/3 1162/5/3 1161/5/3
f 1164/5/3 1162/5/3 1163/5/3
f 1167/4/3 1166/4/3 1165/4/3
f 1168/4/3 1166/4/3 1167/4/3
f 1170/5/3 1169/5/3 1168/5/3
f 1171/5/3 1169/5/3 1170/5/3
f 1174/5/3 1173/5/3 1172/5/3
f 1175/5/3 1173/5/3 1174/5/3
f 1178/4/3 1177/4/3 1176/4/3
f 1179/4/3 1177/4/3 1178/4/3
f 1182/4/3 1181/4/3 1180/4/3
f 1183/4/3 1181/4/3 1182/4/3
f 1186/4/3 1185/4/3 1184/4/3
f 1187/4/3 1185/4/3 1186/4/3
f 1190/4/3 1189/4/3 1188/4/3
f 1191/4/3 1189/4/3 1190/4/3
f 1194/4/3 1193/4/3 1192/4/3
f 1195/4/3 1193/4/3 1194/4/3
f 1198/4/3 1197/4/3 1196/4/3
f 1199/4/3 1197/4/3 1198/4/3
f 1202/4/3 1201/4/3 1200/4/3
f 1203/4/3 1201/4/3 1202/4/3
f 1206/5/3 1205/5/3 1204/5/3
f 1207/5/3 1205/5/3 1206/5/3
f 1210/4/3 1209/4/3 1208/4/3
f 1211/4/3 1209/4/3 1210/4/3
f 1214/4/3 1213/4/3 1212/4/3
f 1215/4/3 1213/4/3 1214/4/3
f 1218/5/3 1217/5/3 1216/5/3
f 1219/5/3 1217/5/3 1218/5/3
f 1222/4/3 1221/4/3 1220/4/3
f 1223/4/3 1221/4/3 1222/4/3
f 1226/4/3 1225/4/3 1224/4/3
f 1227/4/3 1225/4/3 1226/4/3
f 1230/5/3 1229/5/3 1228/5/3
f 1231/5/3 1229/5/3 1230/5/3
f 1234/5/3 1233/5/3 1232/5/3
f 1235/5/3 1233/5/3 1234/5/3
f 1238/4/3 1237/4/3 1236/4/3
f 1239/4/3 1237/4/3 1238/4/3
f 1241/5/3 1240/5/3 1239/5/3
f 1242/5/3 1240/5/3 1241/5/3
f 1245/4/3 1244/4/3 1243/4/3
f 1246/4/3 1244/4/3 1245/4/3
f 1249/5/3 1248/5/3 1247/5/3
f 1250/5/3 1248/5/3 1249/5/3
f 1253/4/3 1252/4/3 1251/4/3
f 1254/4/3 1252/4/3 1253/4/3
f 1257/4/3 1256/4/3 1255/4/3
f 1258/4/3 1256/4/3 1257/4/3
f 1261/5/3 1260/5/3 1259/5/3
f 1262/5/3 1260/5/3 1261/5/3
f 1265/5/3 1264/5/3 1263/5/3
f 1266/5/3 1264/5/3 1265/5/3
f 1269/5/3 1268/5/3 1267/5/3
f 1270/5/3 1268/5/3 1269/5/3
f 1273/4/3 1272/4/3 1271/4/3
f 1274/4/3 1272/4/3 1273/4/3
f 1277/5/3 1276/5/3 1275/5/3
f 1278/5/3 1276/5/3 1277/5/3
f 1281/5/3 1280/5/3 1279/5/3
f 1282/5/3 1280/5/3 1281/5/3
f 1285/5/3 1284/5/3 1283/5/3
f 1286/5/3 1284/5/3 1285/5/3
f 1289/4/3 1288/4/3 1287/4/3
f 1290/4/3 1288/4/3 1289/4/3
f 1293/4/3 1292/4/3 1291/4/3
f 1294/4/3 1292/4/3 1293/4/3
f 1297/5/3 1296/5/3 1295/5/3
f 1298/5/3 1296/5/3 1297/5/3
f 1301/5/3 1300/5/3 1299/5/3
f 1302/5/3 1300/5/3 1301/5/3
f 1305/5/3 1304/5/3 1303/5/3
f 1306/5/3 1304/5/3 1305/5/3
f 1309/5/3 1308/5/3 1307/5/3
f 1310/5/3 1308/5/3 1309/5/3
f 1313/5/3 1312/5/3 1311/5/3
f 1314/5/3 1312/5/3 1313/5/3
f 1317/6/3 1316/6/3 1315/6/3
f 1318/6/3 1316/6/3 1317/6/3
f 1321/5/3 1320/5/3 1319/5/3
f 1322/5/3 1320/5/3 1321/5/3
f 1325/4/3 1324/4/3 1323/4/3
f 1326/4/3 1324/4/3 1325/4/3
f 1329/4/3 1328/4/3 1327/4/3
f 1330/4/3 1328/4/3 1329/4/3
f 1333/5/3 1332/5/3 1331/5/3
f 1334/5/3 1332/5/3 1333/5/3
f 1336/5/3 1335/5/3 1334/5/3
f 1337/5/3 1335/5/3 1336/5/3
f 1340/6/3 1339/6/3 1338/6/3
f 1341/6/3 1339/6/3 1340/6/3
f 1344/6/3 1343/6/3 1342/6/3
f 1345/6/3 1343/6/3 1344/6/3
f 1348/5/3 1347/5/3 1346/5/3
f 1349/5/3 1347/5/3 1348/5/3
f 1352/4/3 1351/4/3 1350/4/3
f 1353/4/3 1351/4/3 1352/4/3
f 1356/4/3 1355/4/3 1354/4/3
f 1357/4/3 1355/4/3 1356/4/3
f 1360/5/3 1359/5/3 1358/5/3
f 1361/5/3 1359/5/3 1360/5/3
f 1363/5/3 1362/5/3 1361/5/3
f 1364/5/3 1362/5/3 1363/5/3
f 1367/6/3 1366/6/3 1365/6/3
f 1368/6/3 1366/6/3 1367/6/3
f 1371/6/3 1370/6/3 1369/6/3
f 1372/6/3 1370/6/3 1371/6/3
f 1375/5/3 1374/5/3 1373/5/3
f 1376/5/3 1374/5/3 1375/5/3
f 1379/4/3 1378/4/3 1377/4/3
f 1380/4/3 1378/4/3 1379/4/3
f 1383/5/3 1382/5/3 1381/5/3
f 1384/5/3 1382/5/3 1383/5/3
f 1387/6/3 1386/6/3 1385/6/3
f 1388/6/3 1386/6/3 1387/6/3
f 1391/5/3 1390/5/3 1389/5/3
f 1392/5/3 1390/5/3 1391/5/3
f 1395/4/3 1394/4/3 1393/4/3
f 1396/4/3 1394/4/3 1395/4/3
f 1399/5/3 1398/5/3 1397/5/3
f 1400/5/3 1398/5/3 1399/5/3
f 1403/4/3 1402/4/3 1401/4/3
f 1404/4/3 1402/4/3 1403/4/3
f 1407/6/3 1406/6/3 1405/6/3
f 1408/6/3 1406/6/3 1407/6/3
f 1411/4/3 1410/4/3 1409/4/3
f 1412/4/3 1410/4/3 1411/4/3
f 1415/5/3 1414/5/3 1413/5/3
f 1416/5/3 1414/5/3 1415/5/3
f 1419/5/3 1418/5/3 1417/5/3
f 1420/5/3 1418/5/3 1419/5/3
f 1423/6/3 1422/6/3 1421/6/3
f 1424/6/3 1422/6/3 1423/6/3
f 1427/6/3 1426/6/3 1425/6/3
f 1428/6/3 1426/6/3 1427/6/3
f 1431/5/3 1430/5/3 1429/5/3
f 1432/5/3 1430/5/3 1431/5/3
f 1433/5/4 1434/5/4 1435/5/4
f 1435/5/4 1434/5/4 1436/5/4
f 1437/5/4 1438/5/4 1439/5/4
f 1439/5/4 1438/5/4 1440/5/4
f 1441/5/4 1442/5/4 1443/5/4
f 1443/5/4 1442/5/4 1444/5/4
f 1445/4/4 1446/4/4 1447/4/4
f 1447/4/4 1446/4/4 1448/4/4
f 1449/5/4 1450/5/4 1451/5/4
f 1451/5/4 1450/5/4 1452/5/4
f 1453/10/4 1454/10/4 1455/10/4
f 1455/10/4 1454/10/4 1456/10/4
f 1457/6/4 1458/6/4 1459/6/4
f 1459/6/4 1458/6/4 1460/6/4
f 1461/4/4 1462/4/4 1463/4/4
f 1463/4/4 1462/4/4 1464/4/4
f 1465/10/4 1466/10/4 1467/10/4
f 1467/10/4 1466/10/4 1468/10/4
f 1469/4/4 1470/4/4 1472/4/4
f 1470/5/4 1471/5/4 1472/5/4
f 1472/5/4 1471/5/4 1473/5/4
f 1469/4/4 1472/4/4 1474/4/4
f 1474/4/4 1472/4/4 1475/4/4
f 1476/2/4 1477/2/4 1478/2/4
f 1478/2/4 1477/2/4 1479/2/4
f 1480/2/4 1481/2/4 1482/2/4
f 1482/2/4 1481/2/4 1483/2/4
f 1484/10/4 1485/10/4 1486/10/4
f 1486/10/4 1485/10/4 1487/10/4
f 1488/4/4 1489/4/4 1490/4/4
f 1490/4/4 1489/4/4 1491/4/4
f 1492/6/4 1493/6/4 1494/6/4
f 1494/6/4 1493/6/4 1495/6/4
f 1496/10/4 1497/10/4 1498/10/4
f 1498/10/4 1497/10/4 1499/10/4
f 1500/10/4 1501/10/4 1503/10/4
f 1503/10/4 1501/10/4 1504/10/4
f 1502/9/4 1503/9/4 1505/9/4
f 1505/9/4 1503/9/4 1506/9/4
f 1507/5/4 1508/5/4 1509/5/4
f 1509/5/4 1508/5/4 1510/5/4
f 1511/4/4 1512/4/4 1513/4/4
f 1513/4/4 1512/4/4 1514/4/4
f 1515/10/4 1516/10/4 1519/10/4
f 1516/10/4 1517/10/4 1519/10/4
f 1517/2/4 1518/2/4 1520/2/4
f 1519/10/4 1517/10/4 1520/10/4
f 1520/2/4 1518/2/4 1521/2/4
f 1522/9/4 1523/9/4 1526/9/4
f 1523/10/4 1524/10/4 1527/10/4
f 1526/9/4 1523/9/4 1527/9/4
f 1524/2/4 1525/2/4 1528/2/4
f 1527/10/4 1524/10/4 1528/10/4
f 1528/2/4 1525/2/4 1529/2/4
f 1530/10/4 1531/10/4 1532/10/4
f 1532/10/4 1531/10/4 1533/10/4
f 1534/6/4 1535/6/4 1536/6/4
f 1536/6/4 1535/6/4 1537/6/4
f 1538/10/4 1539/10/4 1540/10/4
f 1540/10/4 1539/10/4 1541/10/4
f 1542/9/4 1543/9/4 1544/9/4
f 1544/9/4 1543/9/4 1545/9/4
f 1546/5/4 1547/5/4 1548/5/4
f 1548/5/4 1547/5/4 1549/5/4
f 1550/9/4 1551/9/4 1552/9/4
f 1552/9/4 1551/9/4 1553/9/4
f 1554/10/4 1555/10/4 1557/10/4
f 1556/9/4 1557/9/4 1558/9/4
f 1557/10/4 1555/10/4 1559/10/4
f 1558/9/4 1557/9/4 1559/9/4
f 1559/10/4 1555/10/4 1560/10/4
f 1561/6/4 1562/6/4 1563/6/4
f 1563/6/4 1562/6/4 1564/6/4
f 1565/6/4 1566/6/4 1567/6/4
f 1567/6/4 1566/6/4 1568/6/4
f 1569/10/4 1570/10/4 1571/10/4
f 1571/10/4 1570/10/4 1572/10/4
f 1573/10/4 1574/10/4 1576/10/4
f 1575/9/4 1576/9/4 1577/9/4
f 1576/10/4 1574/10/4 1578/10/4
f 1577/9/4 1576/9/4 1578/9/4
f 1578/10/4 1574/10/4 1579/10/4
f 1580/4/4 1581/4/4 1582/4/4
f 1582/4/4 1581/4/4 1583/4/4
f 1584/9/4 1585/9/4 1586/9/4
f 1586/9/4 1585/9/4 1587/9/4
f 1588/9/4 1589/9/4 1590/9/4
f 1590/9/4 1589/9/4 1591/9/4
f 1592/5/4 1593/5/4 1594/5/4
f 1594/5/4 1593/5/4 1595/5/4
f 1596/10/4 1597/10/4 1598/10/4
f 1598/10/4 1597/10/4 1599/10/4
f 1600/5/4 1601/5/4 1602/5/4
f 1602/5/4 1601/5/4 1603/5/4
f 1604/9/4 1605/9/4 1606/9/4
f 1606/9/4 1605/9/4 1607/9/4
f 1608/10/4 1609/10/4 1610/10/4
f 1610/10/4 1609/10/4 1611/10/4
f 1612/10/4 1613/10/4 1614/10/4
f 1614/10/4 1613/10/4 1615/10/4
f 1616/4/4 1617/4/4 1618/4/4
f 1618/4/4 1617/4/4 1619/4/4
f 1620/5/4 1621/5/4 1622/5/4
f 1622/5/4 1621/5/4 1623/5/4
f 1624/4/4 1625/4/4 1626/4/4
f 1626/4/4 1625/4/4 1627/4/4
f 1628/9/4 1629/9/4 1630/9/4
f 1628/9/4 1630/9/4 1632/9/4
f 1630/10/4 1631/10/4 1633/10/4
f 1632/9/4 1630/9/4 1633/9/4
f 1633/10/4 1631/10/4 1635/10/4
f 1635/10/4 1631/10/4 1636/10/4
f 1634/9/4 1635/9/4 1637/9/4
f 1634/9/4 1637/9/4 1639/9/4
f 1637/10/4 1638/10/4 1639/10/4
f 1639/10/4 1638/10/4 1640/10/4
f 1634/9/4 1639/9/4 1641/9/4
f 1641/9/4 1639/9/4 1642/9/4
f 1643/9/4 1644/9/4 1645/9/4
f 1645/9/4 1644/9/4 1646/9/4
f 1647/4/4 1648/4/4 1649/4/4
f 1649/4/4 1648/4/4 1650/4/4
f 1651/4/4 1652/4/4 1653/4/4
f 1653/4/4 1652/4/4 1654/4/4
f 1655/4/4 1656/4/4 1657/4/4
f 1657/4/4 1656/4/4 1658/4/4
f 1659/4/4 1660/4/4 1661/4/4
f 1661/4/4 1660/4/4 1662/4/4
f 1663/4/4 1664/4/4 1666/4/4
f 1666/4/4 1664/4/4 1667/4/4
f 1665/5/4 1666/5/4 1668/5/4
f 1668/5/4 1666/5/4 1669/5/4
f 1670/4/4 1671/4/4 1672/4/4
f 1672/4/4 1671/4/4 1673/4/4
f 1674/5/4 1675/5/4 1676/5/4
f 1676/5/4 1675/5/4 1677/5/4
f 1678/4/4 1679/4/4 1680/4/4
f 1680/4/4 1679/4/4 1681/4/4
f 1682/5/4 1683/5/4 1684/5/4
f 1684/5/4 1683/5/4 1685/5/4
f 1686/4/4 1687/4/4 1688/4/4
f 1688/4/4 1687/4/4 1689/4/4
f 1690/5/4 1691/5/4 1692/5/4
f 1692/5/4 1691/5/4 1693/5/4
f 1694/5/4 1695/5/4 1696/5/4
f 1696/5/4 1695/5/4 1697/5/4
f 1698/5/4 1699/5/4 1701/5/4
f 1699/4/4 1700/4/4 1701/4/4
f 1701/4/4 1700/4/4 1702/4/4
f 1698/5/4 1701/5/4 1703/5/4
f 1703/5/4 1701/5/4 1704/5/4
f 1705/5/4 1706/5/4 1707/5/4
f 1707/5/4 1706/5/4 1708/5/4
f 1710/1/4 1711/1/4 1713/1/4
f 1711/3/4 1712/3/4 1713/3/4
f 1713/3/4 1712/3/4 1714/3/4
f 1714/5/4 1715/5/4 1717/5/4
f 1715/4/4 1716/4/4 1717/4/4
f 1717/4/4 1716/4/4 1718/4/4
f 1717/5/4 1718/5/4 1720/5/4
f 1718/5/4 1719/5/4 1720/5/4
f 1720/4/4 1721/4/4 1722/4/4
f 1722/5/4 1723/5/4 1724/5/4
f 1724/5/4 1725/5/4 1726/5/4
f 1726/6/4 1727/6/4 1728/6/4
f 1728/6/4 1729/6/4 1730/6/4
f 1709/8/4 1710/8/4 1732/8/4
f 1710/1/4 1713/1/4 1733/1/4
f 1732/8/4 1710/8/4 1733/8/4
f 1713/7/4 1714/7/4 1734/7/4
f 1733/1/4 1713/1/4 1734/1/4
f 1714/5/4 1717/5/4 1735/5/4
f 1734/7/4 1714/7/4 1735/7/4
f 1717/5/4 1720/5/4 1735/5/4
f 1720/4/4 1722/4/4 1736/4/4
f 1735/5/4 1720/5/4 1736/5/4
f 1722/5/4 1724/5/4 1737/5/4
f 1736/4/4 1722/4/4 1737/4/4
f 1724/5/4 1726/5/4 1737/5/4
f 1730/6/4 1731/6/4 1738/6/4
f 1737/5/4 1726/5/4 1738/5/4
f 1728/6/4 1730/6/4 1738/6/4
f 1726/6/4 1728/6/4 1738/6/4
f 1738/6/4 1731/6/4 1739/6/4
f 1742/8/5 1741/8/5 1740/8/5
f 1743/8/5 1741/8/5 1742/8/5
f 1744/3/6 1745/3/6 1749/3/6
f 1749/3/6 1745/3/6 1750/3/6
f 1750/3/6 1745/3/6 1751/3/6
f 1746/3/6 1747/3/6 1752/3/6
f 1748/3/6 1749/3/6 1755/3/6
f 1749/3/6 1750/3/6 1755/3/6
f 1755/3/6 1750/3/6 1756/3/6
f 1756/3/6 1750/3/6 1757/3/6
f 1752/3/6 1753/3/6 1758/3/6
f 1746/3/6 1752/3/6 1758/3/6
f 1758/3/6 1753/3/6 1759/3/6
f 1759/3/6 1753/3/6 1760/3/6
f 1755/3/6 1756/3/6 1762/3/6
f 1754/3/6 1755/3/6 1762/3/6
f 1762/3/6 1756/3/6 1763/3/6
f 1760/3/6 1761/3/6 1764/3/6
f 1759/3/6 1760/3/6 1764/3/6
f 1764/3/6 1761/3/6 1765/3/6
f 1754/3/6 1762/3/6 1766/3/6
f 1766/3/6 1762/3/6 1767/3/6
f 1767/3/6 1762/3/6 1768/3/6
f 1765/3/6 1761/3/6 1770/3/6
f 1770/3/6 1761/3/6 1771/3/6
f 1766/3/6 1767/3/6 1774/3/6
f 1774/3/6 1767/3/6 1775/3/6
f 1771/3/6 1772/3/6 1778/3/6
f 1769/3/6 1770/3/6 1778/3/6
f 1770/3/6 1771/3/6 1778/3/6
f 1775/3/6 1776/3/6 1779/3/6
f 1774/3/6 1775/3/6 1779/3/6
f 1773/3/6 1774/3/6 1779/3/6
f 1777/3/6 1778/3/6 1782/3/6
f 1778/3/6 1772/3/6 1783/3/6
f 1782/3/6 1778/3/6 1783/3/6
f 1783/3/6 1772/3/6 1784/3/6
f 1781/3/6 1782/3/6 1786/3/6
f 1782/3/6 1783/3/6 1786/3/6
f 1779/3/6 1780/3/6 1787/3/6
f 1773/3/6 1779/3/6 1787/3/6
f 1787/3/6 1780/3/6 1788/3/6
f 1788/3/6 1780/3/6 1789/3/6
f 1785/3/6 1786/3/6 1792/3/6
f 1789/3/6 1790/3/6 1793/3/6
f 1788/3/6 1789/3/6 1793/3/6
f 1793/3/6 1790/3/6 1794/3/6
f 1794/3/6 1790/3/6 1795/3/6
f 1795/3/6 1790/3/6 1796/3/6
f 1796/3/6 1790/3/6 1797/3/6
f 1797/3/6 1798/3/6 1799/3/6
f 1796/3/6 1797/3/6 1799/3/6
f 1799/3/6 1798/3/6 1800/3/6
f 1800/3/6 1798/3/6 1801/3/6
f 1791/3/6 1792/3/6 1804/3/6
f 1801/3/6 1802/3/6 1805/3/6
f 1800/3/6 1801/3/6 1805/3/6
f 1803/3/6 1804/3/6 1806/3/6
f 1786/3/6 1783/3/6 1807/3/6
f 1792/3/6 1786/3/6 1807/3/6
f 1806/3/6 1804/3/6 1807/3/6
f 1804/3/6 1792/3/6 1807/3/6
f 1807/3/6 1783/3/6 1808/3/6
f 1800/3/6 1805/3/6 1809/3/6
f 1805/3/6 1806/3/6 1809/3/6
f 1806/3/6 1807/3/6 1809/3/6
f 1809/3/6 1807/3/6 1810/3/6
f 1810/3/6 1807/3/6 1811/3/6
f 1811/3/6 1807/3/6 1812/3/6
f 1810/3/6 1811/3/6 1814/3/6
f 1814/3/6 1811/3/6 1815/3/6
f 1815/3/6 1811/3/6 1816/3/6
f 1813/3/6 1814/3/6 1818/3/6
f 1814/3/6 1815/3/6 1818/3/6
f 1818/3/6 1815/3/6 1819/3/6
f 1819/3/6 1815/3/6 1820/3/6
f 1817/3/6 1818/3/6 1822/3/6
f 1818/3/6 1819/3/6 1822/3/6
f 1822/3/6 1819/3/6 1823/3/6
f 1823/3/6 1819/3/6 1824/3/6
f 1821/3/6 1822/3/6 1826/3/6
f 1822/3/6 1823/3/6 1826/3/6
f 1825/3/6 1826/3/6 1828/3/6
f 1826/3/6 1823/3/6 1829/3/6
f 1828/3/6 1826/3/6 1829/3/6
f 1829/3/6 1823/3/6 1830/3/6
f 1827/3/6 1828/3/6 1832/3/6
f 1828/3/6 1829/3/6 1832/3/6
f 1832/3/6 1829/3/6 1833/3/6
f 1831/3/6 1832/3/6 1833/3/6
f 1833/3/6 1829/3/6 1834/3/6
f 1831/3/6 1833/3/6 1835/3/6
f 1835/3/6 1833/3/6 1836/3/6
f 1831/3/6 1835/3/6 1837/3/6
f 1837/3/6 1835/3/6 1838/3/6
f 1831/3/6 1837/3/6 1839/3/6
f 1839/3/6 1837/3/6 1840/3/6
f 1831/3/6 1839/3/6 1841/3/6
f 1841/3/6 1839/3/6 1842/3/6
f 1831/3/6 1841/3/6 1843/3/6
f 1843/3/6 1841/3/6 1844/3/6
f 1831/3/6 1843/3/6 1845/3/6
f 1845/3/6 1843/3/6 1846/3/6
f 1847/5/6 1848/5/6 1857/5/6
f 1857/5/6 1848/5/6 1858/5/6
f 1858/5/6 1848/5/6 1859/5/6
f 1859/5/6 1848/5/6 1860/5/6
f 1849/9/6 1850/9/6 1862/9/6
f 1851/9/6 1852/9/6 1863/9/6
f 1863/9/6 1852/9/6 1864/9/6
f 1853/9/6 1854/9/6 1865/9/6
f 1865/9/6 1854/9/6 1866/9/6
f 1855/5/6 1856/5/6 1867/5/6
f 1867/5/6 1856/5/6 1868/5/6
f 1858/5/6 1859/5/6 1869/5/6
f 1869/5/6 1859/5/6 1870/5/6
f 1861/9/6 1862/9/6 1872/9/6
f 1862/9/6 1850/9/6 1873/9/6
f 1872/9/6 1862/9/6 1873/9/6
f 1873/9/6 1850/9/6 1874/9/6
f 1866/9/6 1854/9/6 1875/9/6
f 1875/9/6 1854/9/6 1876/9/6
f 1868/5/6 1856/5/6 1878/5/6
f 1871/9/6 1872/9/6 1880/9/6
f 1872/9/6 1873/9/6 1880/9/6
f 1880/9/6 1873/9/6 1881/9/6
f 1876/9/6 1877/9/6 1882/9/6
f 1882/9/6 1877/9/6 1883/9/6
f 1878/5/6 1879/5/6 1884/5/6
f 1868/5/6 1878/5/6 1884/5/6
f 1884/5/6 1879/5/6 1885/5/6
f 1885/5/6 1879/5/6 1886/5/6
f 1886/5/6 1879/5/6 1887/5/6
f 1871/9/6 1880/9/6 1889/9/6
f 1888/9/6 1889/9/6 1893/9/6
f 1889/9/6 1880/9/6 1894/9/6
f 1893/9/6 1889/9/6 1894/9/6
f 1891/9/6 1892/9/6 1895/9/6
f 1890/9/6 1891/9/6 1895/9/6
f 1895/9/6 1892/9/6 1896/9/6
f 1885/5/6 1886/5/6 1897/5/6
f 1897/5/6 1898/5/6 1901/5/6
f 1885/5/6 1897/5/6 1901/5/6
f 1901/5/6 1898/5/6 1902/5/6
f 1858/5/6 1869/5/6 1903/5/6
f 1903/5/6 1869/5/6 1904/5/6
f 1899/9/6 1900/9/6 1905/9/6
f 1905/9/6 1900/9/6 1906/9/6
f 1885/5/6 1901/5/6 1909/5/6
f 1907/9/6 1908/9/6 1914/9/6
f 1914/9/6 1908/9/6 1915/9/6
f 1885/5/6 1909/5/6 1916/5/6
f 1909/5/6 1910/5/6 1916/5/6
f 1916/5/6 1910/5/6 1917/5/6
f 1917/5/6 1910/5/6 1918/5/6
f 1911/5/6 1912/5/6 1920/5/6
f 1920/5/6 1912/5/6 1921/5/6
f 1913/9/6 1914/9/6 1923/9/6
f 1917/5/6 1918/5/6 1924/5/6
f 1918/5/6 1919/5/6 1924/5/6
f 1924/5/6 1919/5/6 1925/5/6
f 1922/9/6 1923/9/6 1928/9/6
f 1923/9/6 1914/9/6 1929/9/6
f 1928/9/6 1923/9/6 1929/9/6
f 1929/9/6 1914/9/6 1930/9/6
f 1926/9/6 1927/9/6 1931/9/6
f 1931/9/6 1927/9/6 1932/9/6
f 1932/9/6 1927/9/6 1933/9/6
f 1917/5/6 1924/5/6 1937/5/6
f 1934/9/6 1935/9/6 1938/9/6
f 1938/9/6 1935/9/6 1939/9/6
f 1936/5/6 1937/5/6 1940/5/6
f 1937/5/6 1924/5/6 1941/5/6
f 1940/5/6 1937/5/6 1941/5/6
f 1936/5/6 1940/5/6 1946/5/6
f 1920/5/6 1921/5/6 1948/5/6
f 1948/5/6 1921/5/6 1949/5/6
f 1942/9/6 1943/9/6 1951/9/6
f 1951/9/6 1943/9/6 1952/9/6
f 1944/9/6 1945/9/6 1953/9/6
f 1953/9/6 1945/9/6 1954/9/6
f 1954/9/6 1945/9/6 1955/9/6
f 1946/5/6 1947/5/6 1956/5/6
f 1936/5/6 1946/5/6 1956/5/6
f 1956/5/6 1947/5/6 1957/5/6
f 1949/5/6 1950/5/6 1958/5/6
f 1952/9/6 1943/9/6 1960/9/6
f 1958/5/6 1959/5/6 1962/5/6
f 1949/5/6 1958/5/6 1962/5/6
f 1962/5/6 1959/5/6 1963/5/6
f 1963/5/6 1959/5/6 1964/5/6
f 1960/9/6 1961/9/6 1966/9/6
f 1952/9/6 1960/9/6 1966/9/6
f 1966/9/6 1961/9/6 1967/9/6
f 1936/5/6 1956/5/6 1972/5/6
f 1964/5/6 1965/5/6 1974/5/6
f 1963/5/6 1964/5/6 1974/5/6
f 1974/5/6 1965/5/6 1975/5/6
f 1975/5/6 1965/5/6 1976/5/6
f 1967/9/6 1961/9/6 1978/9/6
f 1978/9/6 1961/9/6 1979/9/6
f 1968/9/6 1969/9/6 1981/9/6
f 1981/9/6 1969/9/6 1982/9/6
f 1970/9/6 1971/9/6 1983/9/6
f 1983/9/6 1971/9/6 1984/9/6
f 1980/9/6 1981/9/6 1985/9/6
f 1985/9/6 1981/9/6 1986/9/6
f 1972/5/6 1973/5/6 1988/5/6
f 1936/5/6 1972/5/6 1988/5/6
f 1988/5/6 1973/5/6 1989/5/6
f 1989/5/6 1973/5/6 1990/5/6
f 1976/5/6 1977/5/6 1991/5/6
f 1975/5/6 1976/5/6 1991/5/6
f 1991/5/6 1977/5/6 1992/5/6
f 1992/5/6 1977/5/6 1993/5/6
f 1988/5/6 1989/5/6 1996/5/6
f 1987/5/6 1988/5/6 1996/5/6
f 1996/5/6 1989/5/6 1997/5/6
f 1993/5/6 1994/5/6 1999/5/6
f 1992/5/6 1993/5/6 1999/5/6
f 1999/5/6 1994/5/6 2000/5/6
f 1997/5/6 1998/5/6 2001/5/6
f 1996/5/6 1997/5/6 2001/5/6
f 1995/5/6 1996/5/6 2001/5/6
f 2001/5/6 1998/5/6 2002/5/6
f 2000/5/6 1994/5/6 2004/5/6
f 2004/5/6 1994/5/6 2005/5/6
f 1995/5/6 2001/5/6 2007/5/6
f 2007/5/6 2001/5/6 2008/5/6
f 2008/5/6 2001/5/6 2009/5/6
f 2003/5/6 2004/5/6 2011/5/6
f 2011/5/6 2004/5/6 2012/5/6
f 2012/5/6 2004/5/6 2013/5/6
f 2007/5/6 2008/5/6 2015/5/6
f 2006/5/6 2007/5/6 2015/5/6
f 2015/5/6 2008/5/6 2016/5/6
f 2016/5/6 2008/5/6 2017/5/6
f 2011/5/6 2012/5/6 2019/5/6
f 2010/5/6 2011/5/6 2019/5/6
f 2019/5/6 2012/5/6 2020/5/6
f 2020/5/6 2012/5/6 2021/5/6
f 2015/5/6 2016/5/6 2023/5/6
f 2014/5/6 2015/5/6 2023/5/6
f 2023/5/6 2016/5/6 2024/5/6
f 2024/5/6 2016/5/6 2025/5/6
f 2025/5/6 2016/5/6 2026/5/6
f 2026/5/6 2016/5/6 2027/5/6
f 2027/5/6 2016/5/6 2028/5/6
f 2028/5/6 2016/5/6 2029/5/6
f 2019/5/6 2020/5/6 2031/5/6
f 2018/5/6 2019/5/6 2031/5/6
f 2031/5/6 2020/5/6 2032/5/6
f 2032/5/6 2020/5/6 2033/5/6
f 2022/5/6 2023/5/6 2034/5/6
f 2023/5/6 2024/5/6 2034/5/6
f 2034/5/6 2024/5/6 2035/5/6
f 2025/5/6 2026/5/6 2036/5/6
f 2036/5/6 2026/5/6 2037/5/6
f 2027/5/6 2028/5/6 2038/5/6
f 2038/5/6 2028/5/6 2039/5/6
f 2022/5/6 2034/5/6 2040/5/6
f 2040/5/6 2034/5/6 2041/5/6
f 2031/5/6 2032/5/6 2042/5/6
f 2030/5/6 2031/5/6 2042/5/6
f 2042/5/6 2032/5/6 2043/5/6
f 2022/5/6 2040/5/6 2045/5/6
f 2044/5/6 2045/5/6 2046/5/6
f 2045/5/6 2040/5/6 2046/5/6
f 2046/5/6 2040/5/6 2047/5/6
f 2030/5/6 2042/5/6 2048/5/6
f 2048/5/6 2042/5/6 2049/5/6
f 2044/5/6 2046/5/6 2051/5/6
f 2050/5/6 2051/5/6 2053/5/6
f 2051/5/6 2046/5/6 2054/5/6
f 2053/5/6 2051/5/6 2054/5/6
f 2054/5/6 2046/5/6 2055/5/6
f 2052/5/6 2053/5/6 2057/5/6
f 2053/5/6 2054/5/6 2057/5/6
f 2057/5/6 2054/5/6 2058/5/6
f 2058/5/6 2054/5/6 2059/5/6
f 2056/5/6 2057/5/6 2061/5/6
f 2057/5/6 2058/5/6 2061/5/6
f 2061/5/6 2058/5/6 2062/5/6
f 2062/5/6 2058/5/6 2063/5/6
f 2060/5/6 2061/5/6 2065/5/6
f 2061/5/6 2062/5/6 2065/5/6
f 2065/5/6 2062/5/6 2066/5/6
f 2066/5/6 2062/5/6 2067/5/6
f 2064/5/6 2065/5/6 2069/5/6
f 2065/5/6 2066/5/6 2069/5/6
f 2069/5/6 2066/5/6 2070/5/6
f 2070/5/6 2066/5/6 2071/5/6
f 2068/5/6 2069/5/6 2072/5/6
f 2069/5/6 2070/5/6 2072/5/6
f 2072/5/6 2070/5/6 2073/5/6
f 2074/4/6 2075/4/6 2082/4/6
f 2082/4/6 2075/4/6 2083/4/6
f 2083/4/6 2075/4/6 2084/4/6
f 2076/10/6 2077/10/6 2086/10/6
f 2078/10/6 2079/10/6 2087/10/6
f 2087/10/6 2079/10/6 2088/10/6
f 2080/4/6 2081/4/6 2090/4/6
f 2090/4/6 2081/4/6 2091/4/6
f 2074/4/6 2082/4/6 2092/4/6
f 2092/4/6 2082/4/6 2093/4/6
f 2084/4/6 2085/4/6 2094/4/6
f 2083/4/6 2084/4/6 2094/4/6
f 2094/4/6 2085/4/6 2095/4/6
f 2088/10/6 2089/10/6 2097/10/6
f 2076/10/6 2086/10/6 2097/10/6
f 2086/10/6 2087/10/6 2097/10/6
f 2087/10/6 2088/10/6 2097/10/6
f 2097/10/6 2089/10/6 2098/10/6
f 2080/4/6 2090/4/6 2100/4/6
f 2100/4/6 2090/4/6 2101/4/6
f 2098/10/6 2099/10/6 2103/10/6
f 2097/10/6 2098/10/6 2103/10/6
f 2096/10/6 2097/10/6 2103/10/6
f 2103/10/6 2099/10/6 2104/10/6
f 2101/4/6 2090/4/6 2107/4/6
f 2107/4/6 2090/4/6 2108/4/6
f 2074/4/6 2092/4/6 2109/4/6
f 2109/4/6 2092/4/6 2110/4/6
f 2104/10/6 2105/10/6 2111/10/6
f 2102/10/6 2103/10/6 2111/10/6
f 2103/10/6 2104/10/6 2111/10/6
f 2111/10/6 2105/10/6 2112/10/6
f 2106/4/6 2107/4/6 2113/4/6
f 2102/10/6 2111/10/6 2116/10/6
f 2116/10/6 2111/10/6 2117/10/6
f 2113/4/6 2114/4/6 2119/4/6
f 2106/4/6 2113/4/6 2119/4/6
f 2119/4/6 2114/4/6 2120/4/6
f 2117/10/6 2118/10/6 2121/10/6
f 2116/10/6 2117/10/6 2121/10/6
f 2115/10/6 2116/10/6 2121/10/6
f 2121/10/6 2118/10/6 2122/10/6
f 2120/4/6 2114/4/6 2124/4/6
f 2095/4/6 2085/4/6 2126/4/6
f 2126/4/6 2085/4/6 2127/4/6
f 2115/10/6 2121/10/6 2128/10/6
f 2128/10/6 2121/10/6 2129/10/6
f 2126/10/6 2127/10/6 2131/10/6
f 2125/10/6 2126/10/6 2131/10/6
f 2129/10/6 2130/10/6 2134/10/6
f 2128/10/6 2129/10/6 2134/10/6
f 2134/10/6 2130/10/6 2135/10/6
f 2133/10/6 2134/10/6 2135/10/6
f 2135/10/6 2130/10/6 2136/10/6
f 2123/4/6 2124/4/6 2137/4/6
f 2124/4/6 2114/4/6 2138/4/6
f 2137/4/6 2124/4/6 2138/4/6
f 2138/4/6 2114/4/6 2139/4/6
f 2131/10/6 2132/10/6 2141/10/6
f 2125/10/6 2131/10/6 2141/10/6
f 2141/10/6 2132/10/6 2142/10/6
f 2142/10/6 2132/10/6 2143/10/6
f 2133/10/6 2135/10/6 2144/10/6
f 2144/10/6 2135/10/6 2145/10/6
f 2145/10/6 2135/10/6 2146/10/6
f 2146/10/6 2135/10/6 2147/10/6
f 2139/4/6 2140/4/6 2148/4/6
f 2138/4/6 2139/4/6 2148/4/6
f 2148/4/6 2140/4/6 2149/4/6
f 2125/10/6 2141/10/6 2150/10/6
f 2150/10/6 2141/10/6 2151/10/6
f 2151/10/6 2141/10/6 2152/10/6
f 2145/10/6 2146/10/6 2153/10/6
f 2153/10/6 2146/10/6 2154/10/6
f 2154/10/6 2146/10/6 2155/10/6
f 2149/4/6 2140/4/6 2157/4/6
f 2157/4/6 2140/4/6 2158/4/6
f 2153/10/6 2154/10/6 2159/10/6
f 2159/10/6 2154/10/6 2160/10/6
f 2160/10/6 2154/10/6 2161/10/6
f 2161/10/6 2162/10/6 2164/10/6
f 2160/10/6 2161/10/6 2164/10/6
f 2164/10/6 2162/10/6 2165/10/6
f 2165/10/6 2162/10/6 2166/10/6
f 2156/4/6 2157/4/6 2167/4/6
f 2163/10/6 2164/10/6 2169/10/6
f 2164/10/6 2165/10/6 2169/10/6
f 2156/4/6 2167/4/6 2172/4/6
f 2167/4/6 2168/4/6 2172/4/6
f 2172/4/6 2168/4/6 2173/4/6
f 2173/4/6 2168/4/6 2174/4/6
f 2169/10/6 2170/10/6 2175/10/6
f 2163/10/6 2169/10/6 2175/10/6
f 2175/10/6 2170/10/6 2176/10/6
f 2176/10/6 2170/10/6 2177/10/6
f 2177/10/6 2170/10/6 2178/10/6
f 2172/4/6 2173/4/6 2179/4/6
f 2171/4/6 2172/4/6 2179/4/6
f 2179/4/6 2173/4/6 2180/4/6
f 2180/4/6 2173/4/6 2181/4/6
f 2181/4/6 2173/4/6 2182/4/6
f 2151/4/6 2152/4/6 2183/4/6
f 2176/10/6 2177/10/6 2185/10/6
f 2180/4/6 2181/4/6 2188/4/6
f 2183/4/6 2184/4/6 2189/4/6
f 2151/4/6 2183/4/6 2189/4/6
f 2189/4/6 2184/4/6 2190/4/6
f 2185/10/6 2186/10/6 2191/10/6
f 2176/10/6 2185/10/6 2191/10/6
f 2191/10/6 2186/10/6 2192/10/6
f 2187/4/6 2188/4/6 2193/4/6
f 2188/4/6 2181/4/6 2193/4/6
f 2193/4/6 2181/4/6 2194/4/6
f 2190/4/6 2184/4/6 2195/4/6
f 2192/10/6 2186/10/6 2197/10/6
f 2197/10/6 2186/10/6 2198/10/6
f 2198/10/6 2186/10/6 2199/10/6
f 2199/10/6 2186/10/6 2200/10/6
f 2187/4/6 2193/4/6 2201/4/6
f 2201/4/6 2193/4/6 2202/4/6
f 2195/4/6 2196/4/6 2204/4/6
f 2190/4/6 2195/4/6 2204/4/6
f 2204/4/6 2196/4/6 2205/4/6
f 2192/10/6 2197/10/6 2207/10/6
f 2207/10/6 2197/10/6 2208/10/6
f 2198/10/6 2199/10/6 2209/10/6
f 2209/10/6 2199/10/6 2210/10/6
f 2202/4/6 2193/4/6 2212/4/6
f 2205/4/6 2206/4/6 2214/4/6
f 2203/4/6 2204/4/6 2214/4/6
f 2204/4/6 2205/4/6 2214/4/6
f 2214/4/6 2206/4/6 2215/4/6
f 2211/4/6 2212/4/6 2217/4/6
f 2212/4/6 2193/4/6 2218/4/6
f 2217/4/6 2212/4/6 2218/4/6
f 2215/4/6 2216/4/6 2220/4/6
f 2213/4/6 2214/4/6 2220/4/6
f 2214/4/6 2215/4/6 2220/4/6
f 2220/4/6 2216/4/6 2221/4/6
f 2218/4/6 2193/4/6 2224/4/6
f 2224/4/6 2193/4/6 2225/4/6
f 2221/4/6 2222/4/6 2227/4/6
f 2219/4/6 2220/4/6 2227/4/6
f 2220/4/6 2221/4/6 2227/4/6
f 2227/4/6 2222/4/6 2228/4/6
f 2228/4/6 2222/4/6 2229/4/6
f 2223/4/6 2224/4/6 2231/4/6
f 2231/4/6 2224/4/6 2232/4/6
f 2226/4/6 2227/4/6 2233/4/6
f 2227/4/6 2228/4/6 2233/4/6
f 2233/4/6 2228/4/6 2234/4/6
f 2230/4/6 2231/4/6 2236/4/6
f 2236/4/6 2231/4/6 2237/4/6
f 2226/4/6 2233/4/6 2238/4/6
f 2238/4/6 2233/4/6 2239/4/6
f 2235/4/6 2236/4/6 2245/4/6
f 2226/4/6 2238/4/6 2246/4/6
f 2246/4/6 2238/4/6 2247/4/6
f 2240/4/6 2241/4/6 2249/4/6
f 2249/4/6 2241/4/6 2250/4/6
f 2242/4/6 2243/4/6 2251/4/6
f 2251/4/6 2243/4/6 2252/4/6
f 2244/4/6 2245/4/6 2253/4/6
f 2253/4/6 2245/4/6 2254/4/6
f 2245/4/6 2236/4/6 2255/4/6
f 2254/4/6 2245/4/6 2255/4/6
f 2249/4/6 2250/4/6 2257/4/6
f 2252/4/6 2253/4/6 2257/4/6
f 2251/4/6 2252/4/6 2257/4/6
f 2250/4/6 2251/4/6 2257/4/6
f 2253/4/6 2254/4/6 2257/4/6
f 2248/4/6 2249/4/6 2257/4/6
f 2257/4/6 2254/4/6 2258/4/6
f 2258/4/6 2254/4/6 2259/4/6
f 2256/4/6 2257/4/6 2260/4/6
f 2257/4/6 2258/4/6 2260/4/6
f 2260/4/6 2258/4/6 2261/4/6
f 2256/4/6 2260/4/6 2263/4/6
f 2263/4/6 2260/4/6 2264/4/6
f 2264/4/6 2260/4/6 2265/4/6
f 2226/4/6 2246/4/6 2266/4/6
f 2266/4/6 2246/4/6 2267/4/6
f 2262/4/6 2263/4/6 2268/4/6
f 2263/4/6 2264/4/6 2268/4/6
f 2268/4/6 2264/4/6 2269/4/6
f 2262/4/6 2268/4/6 2271/4/6
f 2271/4/6 2268/4/6 2272/4/6
f 2270/4/6 2271/4/6 2272/4/6
f 2272/4/6 2268/4/6 2273/4/6
f 2270/4/6 2272/4/6 2275/4/6
f 2274/4/6 2275/4/6 2277/4/6
f 2276/4/6 2277/4/6 2279/4/6
f 2277/4/6 2275/4/6 2280/4/6
f 2279/4/6 2277/4/6 2280/4/6
f 2275/4/6 2272/4/6 2281/4/6
f 2280/4/6 2275/4/6 2281/4/6
f 2279/4/6 2280/4/6 2283/4/6
f 2278/4/6 2279/4/6 2283/4/6
f 2283/4/6 2280/4/6 2284/4/6
f 2284/4/6 2280/4/6 2285/4/6
f 2282/4/6 2283/4/6 2287/4/6
f 2283/4/6 2284/4/6 2287/4/6
f 2287/4/6 2284/4/6 2288/4/6
f 2288/4/6 2284/4/6 2289/4/6
f 2286/4/6 2287/4/6 2290/4/6
f 2287/4/6 2288/4/6 2290/4/6
f 2290/4/6 2288/4/6 2291/4/6
f 2286/4/6 2290/4/6 2292/4/6
f 2292/4/6 2290/4/6 2293/4/6
f 2294/4/6 2295/4/6 2299/4/6
f 2299/4/6 2295/4/6 2300/4/6
f 2296/6/6 2297/6/6 2303/6/6
f 2300/4/6 2301/4/6 2305/4/6
f 2298/4/6 2299/4/6 2305/4/6
f 2299/4/6 2300/4/6 2305/4/6
f 2302/6/6 2303/6/6 2306/6/6
f 2303/6/6 2297/6/6 2307/6/6
f 2306/6/6 2303/6/6 2307/6/6
f 2304/4/6 2305/4/6 2308/4/6
f 2305/4/6 2301/4/6 2309/4/6
f 2308/4/6 2305/4/6 2309/4/6
f 2309/4/6 2301/4/6 2310/4/6
f 2310/4/6 2301/4/6 2311/4/6
f 2311/4/6 2301/4/6 2312/4/6
f 2312/4/6 2301/4/6 2313/4/6
f 2314/2/6 2315/2/6 2318/2/6
f 2318/2/6 2315/2/6 2319/2/6
f 2316/2/6 2317/2/6 2320/2/6
f 2320/2/6 2317/2/6 2321/2/6
f 2307/6/6 2297/6/6 2322/6/6
f 2322/6/6 2297/6/6 2323/6/6
f 2324/2/6 2325/2/6 2330/2/6
f 2330/2/6 2325/2/6 2331/2/6
f 2326/2/6 2327/2/6 2332/2/6
f 2332/2/6 2327/2/6 2333/2/6
f 2323/6/6 2297/6/6 2335/6/6
f 2328/4/6 2329/4/6 2336/4/6
f 2336/4/6 2329/4/6 2337/4/6
f 2337/4/6 2329/4/6 2339/4/6
f 2334/6/6 2335/6/6 2340/6/6
f 2335/6/6 2297/6/6 2341/6/6
f 2340/6/6 2335/6/6 2341/6/6
f 2342/5/6 2343/5/6 2345/5/6
f 2338/4/6 2339/4/6 2347/4/6
f 2339/4/6 2329/4/6 2348/4/6
f 2347/4/6 2339/4/6 2348/4/6
f 2344/5/6 2345/5/6 2351/5/6
f 2348/4/6 2349/4/6 2353/4/6
f 2346/4/6 2347/4/6 2353/4/6
f 2347/4/6 2348/4/6 2353/4/6
f 2352/4/6 2353/4/6 2355/4/6
f 2353/4/6 2349/4/6 2356/4/6
f 2355/4/6 2353/4/6 2356/4/6
f 2356/4/6 2349/4/6 2357/4/6
f 2354/4/6 2355/4/6 2358/4/6
f 2355/4/6 2356/4/6 2358/4/6
f 2358/4/6 2356/4/6 2359/4/6
f 2354/4/6 2358/4/6 2360/4/6
f 2360/4/6 2358/4/6 2361/4/6
f 2350/5/6 2351/5/6 2363/5/6
f 2354/4/6 2360/4/6 2364/4/6
f 2364/4/6 2360/4/6 2365/4/6
f 2362/5/6 2363/5/6 2367/5/6
f 2366/5/6 2367/5/6 2369/5/6
f 2369/5/6 2367/5/6 2370/5/6
f 2368/5/6 2369/5/6 2370/5/6
f 2367/5/6 2363/5/6 2371/5/6
f 2370/5/6 2367/5/6 2371/5/6
f 2351/5/6 2345/5/6 2371/5/6
f 2345/5/6 2343/5/6 2371/5/6
f 2363/5/6 2351/5/6 2371/5/6
f 2368/5/6 2370/5/6 2373/5/6
f 2373/5/6 2370/5/6 2374/5/6
f 2374/5/6 2370/5/6 2375/5/6
f 2372/5/6 2373/5/6 2377/5/6
f 2373/5/6 2374/5/6 2377/5/6
f 2377/5/6 2374/5/6 2378/5/6
f 2378/5/6 2374/5/6 2379/5/6
f 2371/5/6 2343/5/6 2380/5/6
f 2380/5/6 2343/5/6 2381/5/6
f 2377/5/6 2378/5/6 2383/5/6
f 2376/5/6 2377/5/6 2383/5/6
f 2383/5/6 2378/5/6 2384/5/6
f 2384/5/6 2378/5/6 2385/5/6
f 2382/5/6 2383/5/6 2387/5/6
f 2383/5/6 2384/5/6 2387/5/6
f 2387/5/6 2384/5/6 2388/5/6
f 2388/5/6 2384/5/6 2389/5/6
f 2386/5/6 2387/5/6 2390/5/6
f 2387/5/6 2388/5/6 2390/5/6
f 2390/5/6 2388/5/6 2391/5/6
f 2386/5/6 2390/5/6 2393/5/6
f 2393/5/6 2390/5/6 2394/5/6
f 2394/5/6 2390/5/6 2395/5/6
f 2392/5/6 2393/5/6 2396/5/6
f 2393/5/6 2394/5/6 2396/5/6
f 2396/5/6 2394/5/6 2397/5/6
f 2392/5/6 2396/5/6 2399/5/6
f 2399/5/6 2396/5/6 2400/5/6
f 2398/5/6 2399/5/6 2400/5/6
f 2400/5/6 2396/5/6 2401/5/6
f 2398/5/6 2400/5/6 2402/5/6
f 2402/5/6 2400/5/6 2403/5/6
f 2398/5/6 2402/5/6 2405/5/6
f 2404/5/6 2405/5/6 2407/5/6
f 2405/5/6 2402/5/6 2408/5/6
f 2407/5/6 2405/5/6 2408/5/6
f 2408/5/6 2402/5/6 2409/5/6
f 2406/5/6 2407/5/6 2411/5/6
f 2407/5/6 2408/5/6 2411/5/6
f 2410/5/6 2411/5/6 2413/5/6
f 2412/5/6 2413/5/6 2414/5/6
f 2411/5/6 2408/5/6 2415/5/6
f 2414/5/6 2413/5/6 2415/5/6
f 2413/5/6 2411/5/6 2415/5/6
f 2416/5/6 2417/5/6 2418/5/6
f 2416/5/6 2418/5/6 2420/5/6
f 2418/5/6 2419/5/6 2420/5/6
f 2420/5/6 2419/5/6 2421/5/6
f 2422/5/6 2423/5/6 2425/5/6
f 2423/5/6 2424/5/6 2425/5/6
f 2425/5/6 2424/5/6 2426/5/6
f 2422/5/6 2425/5/6 2428/5/6
f 2428/5/6 2425/5/6 2429/5/6
f 2427/5/6 2428/5/6 2429/5/6
f 2429/5/6 2425/5/6 2430/5/6
f 2427/5/6 2429/5/6 2431/5/6
f 2431/5/6 2429/5/6 2432/5/6
f 2427/5/6 2431/5/6 2433/5/6
f 2433/5/6 2431/5/6 2434/5/6
f 2435/4/6 2436/4/6 2438/4/6
f 2437/4/6 2438/4/6 2440/4/6
f 2438/4/6 2436/4/6 2441/4/6
f 2440/4/6 2438/4/6 2441/4/6
f 2439/4/6 2440/4/6 2444/4/6
f 2441/4/6 2442/4/6 2444/4/6
f 2440/4/6 2441/4/6 2444/4/6
f 2444/4/6 2442/4/6 2445/4/6
f 2443/4/6 2444/4/6 2447/4/6
f 2446/4/6 2447/4/6 2449/4/6
f 2447/4/6 2444/4/6 2450/4/6
f 2449/4/6 2447/4/6 2450/4/6
f 2450/4/6 2444/4/6 2451/4/6
f 2448/4/6 2449/4/6 2453/4/6
f 2449/4/6 2450/4/6 2453/4/6
f 2453/4/6 2450/4/6 2454/4/6
f 2454/4/6 2450/4/6 2455/4/6
f 2452/4/6 2453/4/6 2457/4/6
f 2453/4/6 2454/4/6 2457/4/6
f 2457/4/6 2454/4/6 2458/4/6
f 2456/4/6 2457/4/6 2458/4/6
f 2458/4/6 2454/4/6 2459/4/6
f 2456/4/6 2458/4/6 2461/4/6
f 2461/4/6 2458/4/6 2462/4/6
f 2462/4/6 2458/4/6 2463/4/6
f 2460/4/6 2461/4/6 2465/4/6
f 2461/4/6 2462/4/6 2465/4/6
f 2465/4/6 2462/4/6 2466/4/6
f 2466/4/6 2462/4/6 2467/4/6
f 2464/4/6 2465/4/6 2469/4/6
f 2465/4/6 2466/4/6 2469/4/6
f 2468/4/6 2469/4/6 2470/4/6
f 2469/4/6 2466/4/6 2471/4/6
f 2470/4/6 2469/4/6 2471/4/6
f 2472/6/6 2473/6/6 2474/6/6
f 2474/6/6 2473/6/6 2475/6/6
f 2472/6/6 2474/6/6 2476/6/6
f 2476/6/6 2474/6/6 2477/6/6
f 2478/5/6 2479/5/6 2481/5/6
f 2480/5/6 2481/5/6 2483/5/6
f 2481/5/6 2479/5/6 2484/5/6
f 2483/5/6 2481/5/6 2484/5/6
f 2484/5/6 2479/5/6 2485/5/6
f 2482/5/6 2483/5/6 2486/5/6
f 2483/5/6 2484/5/6 2486/5/6
f 2486/5/6 2484/5/6 2487/5/6
f 2485/5/6 2479/5/6 2488/5/6
f 2488/5/6 2479/5/6 2489/5/6
f 2482/5/6 2486/5/6 2491/5/6
f 2491/5/6 2486/5/6 2492/5/6
f 2492/5/6 2486/5/6 2493/5/6
f 2490/5/6 2491/5/6 2495/5/6
f 2491/5/6 2492/5/6 2495/5/6
f 2495/5/6 2492/5/6 2496/5/6
f 2494/5/6 2495/5/6 2498/5/6
f 2498/5/6 2495/5/6 2499/5/6
f 2497/5/6 2498/5/6 2500/5/6
f 2497/5/6 2500/5/6 2502/5/6
f 2500/5/6 2501/5/6 2502/5/6
f 2502/5/6 2501/5/6 2503/5/6
f 2497/5/6 2502/5/6 2504/5/6
f 2504/5/6 2502/5/6 2505/5/6
f 2506/5/6 2507/5/6 2509/5/6
f 2509/5/6 2507/5/6 2510/5/6
f 2508/5/6 2509/5/6 2513/5/6
f 2510/5/6 2511/5/6 2513/5/6
f 2509/5/6 2510/5/6 2513/5/6
f 2513/5/6 2511/5/6 2514/5/6
f 2514/5/6 2511/5/6 2515/5/6
f 2512/5/6 2513/5/6 2517/5/6
f 2513/5/6 2514/5/6 2517/5/6
f 2517/5/6 2514/5/6 2518/5/6
f 2518/5/6 2514/5/6 2519/5/6
f 2515/5/6 2511/5/6 2520/5/6
f 2520/5/6 2511/5/6 2521/5/6
f 2516/5/6 2517/5/6 2523/5/6
f 2517/5/6 2518/5/6 2523/5/6
f 2523/5/6 2518/5/6 2524/5/6
f 2524/5/6 2518/5/6 2525/5/6
f 2522/5/6 2523/5/6 2526/5/6
f 2523/5/6 2524/5/6 2526/5/6
f 2526/5/6 2524/5/6 2527/5/6
f 2527/5/6 2524/5/6 2529/5/6
f 2528/5/6 2529/5/6 2530/5/6
f 2529/5/6 2524/5/6 2531/5/6
f 2530/5/6 2529/5/6 2531/5/6
f 2532/6/6 2533/6/6 2535/6/6
f 2535/6/6 2533/6/6 2536/6/6
f 2534/6/6 2535/6/6 2539/6/6
f 2536/6/6 2537/6/6 2539/6/6
f 2535/6/6 2536/6/6 2539/6/6
f 2539/6/6 2537/6/6 2540/6/6
f 2540/6/6 2537/6/6 2541/6/6
f 2538/6/6 2539/6/6 2542/6/6
f 2539/6/6 2540/6/6 2542/6/6
f 2542/6/6 2540/6/6 2543/6/6
f 2538/6/6 2542/6/6 2544/6/6
f 2544/6/6 2542/6/6 2545/6/6
f 2538/6/6 2544/6/6 2546/6/6
f 2546/6/6 2544/6/6 2547/6/6
f 2548/6/6 2549/6/6 2551/6/6
f 2551/6/6 2549/6/6 2552/6/6
f 2550/6/6 2551/6/6 2552/6/6
f 2552/6/6 2549/6/6 2553/6/6
f 2550/6/6 2552/6/6 2555/6/6
f 2555/6/6 2552/6/6 2556/6/6
f 2556/6/6 2552/6/6 2557/6/6
f 2554/6/6 2555/6/6 2558/6/6
f 2555/6/6 2556/6/6 2558/6/6
f 2558/6/6 2556/6/6 2559/6/6
f 2560/6/6 2561/6/6 2563/6/6
f 2562/6/6 2563/6/6 2564/6/6
f 2563/6/6 2561/6/6 2565/6/6
f 2564/6/6 2563/6/6 2565/6/6
