# MagicaVoxel @ Ephtracy

# group
o 

# material
mtllib Hills_Lake_IslandPlatform_1.mtl
usemtl palette

# normals
vn -1 0 0
vn 1 0 0
vn 0 0 1
vn 0 0 -1
vn 0 -1 0
vn 0 1 0

# texcoords
vt 0.537109 0.5
vt 0.837891 0.5
vt 0.904297 0.5
vt 0.908203 0.5
vt 0.912109 0.5
vt 0.916016 0.5
vt 0.955078 0.5
vt 0.982422 0.5
vt 0.986328 0.5
vt 0.990234 0.5

# verts
v -2 0 2
v -2 0 -2
v -2 0.3 2
v -2 0.3 -2
v -2 0.5 2
v -2 0.5 -2
v -2 0.6 2
v -2 0.6 -1.1
v -2 0.6 -1.8
v -2 0.6 -2
v -2 0.7 2
v -2 0.7 -1.1
v -2 0.7 -1.8
v -2 0.7 -2
v -2 0.8 2
v -2 0.8 1.6
v -2 0.8 -0.3
v -2 0.8 -2
v -2 0.9 1.6
v -2 0.9 1.5
v -2 0.9 0.0999999
v -2 0.9 -0.3
v -2 1 1.5
v -2 1 1.2
v -2 1 0.5
v -2 1 0.0999999
v -2 1.1 1.2
v -2 1.1 0.5
v -1.9 0.8 1.8
v -1.9 0.8 1.6
v -1.9 0.9 1.8
v -1.9 0.9 1.6
v -1.8 0.8 1.9
v -1.8 0.8 1.8
v -1.8 0.9 1.9
v -1.8 0.9 1.8
v -0.8 0.6 1.3
v -0.8 0.6 0.9
v -0.8 0.6 -1.8
v -0.8 0.6 -1.9
v -0.8 0.7 1.3
v -0.8 0.7 0.9
v -0.8 0.7 -1.8
v -0.8 0.7 -1.9
v -0.7 0.6 1.6
v -0.7 0.6 1.3
v -0.7 0.6 0.9
v -0.7 0.6 0.7
v -0.7 0.6 -1.7
v -0.7 0.6 -1.8
v -0.7 0.7 1.6
v -0.7 0.7 1.3
v -0.7 0.7 0.9
v -0.7 0.7 0.7
v -0.7 0.7 -1.7
v -0.7 0.7 -1.8
v -0.7 0.7 -1.9
v -0.7 0.8 -1.8
v -0.7 0.8 -1.9
v -0.6 0.6 1.8
v -0.6 0.6 1.6
v -0.6 0.6 0.7
v -0.6 0.6 0.4
v -0.6 0.6 -1.6
v -0.6 0.6 -1.7
v -0.6 0.7 1.8
v -0.6 0.7 1.6
v -0.6 0.7 1.3
v -0.6 0.7 0.8
v -0.6 0.7 0.7
v -0.6 0.7 0.4
v -0.6 0.7 -1.6
v -0.6 0.7 -1.7
v -0.6 0.8 1.3
v -0.6 0.8 0.8
v -0.6 0.8 -1.9
v -0.6 0.8 -2
v -0.6 0.9 -1.9
v -0.6 0.9 -2
v -0.5 0.6 1.9
v -0.5 0.6 1.8
v -0.5 0.6 0.4
v -0.5 0.6 0.2
v -0.5 0.7 1.9
v -0.5 0.7 1.8
v -0.5 0.7 1.5
v -0.5 0.7 1.3
v -0.5 0.7 0.8
v -0.5 0.7 0.5
v -0.5 0.7 0.4
v -0.5 0.7 0.2
v -0.5 0.7 -1.7
v -0.5 0.7 -1.8
v -0.5 0.8 1.5
v -0.5 0.8 1.3
v -0.5 0.8 0.8
v -0.5 0.8 0.5
v -0.5 0.8 -1.7
v -0.5 0.8 -1.8
v -0.4 0.6 2
v -0.4 0.6 1.9
v -0.4 0.6 -1.5
v -0.4 0.6 -1.6
v -0.4 0.7 2
v -0.4 0.7 1.9
v -0.4 0.7 1.7
v -0.4 0.7 1.5
v -0.4 0.7 0.5
v -0.4 0.7 0.3
v -0.4 0.7 -1.5
v -0.4 0.7 -1.6
v -0.4 0.8 1.7
v -0.4 0.8 1.5
v -0.4 0.8 0.5
v -0.4 0.8 0.3
v -0.4 0.8 -1.8
v -0.4 0.8 -1.9
v -0.4 0.9 -1.8
v -0.4 0.9 -1.9
v -0.3 0.6 0.2
v -0.3 0.6 0.0999999
v -0.3 0.6 -1.4
v -0.3 0.6 -1.5
v -0.3 0.7 1.9
v -0.3 0.7 1.7
v -0.3 0.7 0.2
v -0.3 0.7 0.0999999
v -0.3 0.7 -1.4
v -0.3 0.7 -1.5
v -0.3 0.7 -1.6
v -0.3 0.7 -1.7
v -0.3 0.8 1.9
v -0.3 0.8 1.7
v -0.3 0.8 -1.6
v -0.3 0.8 -1.7
v -0.2 0.6 -1.2
v -0.2 0.6 -1.4
v -0.2 0.7 -1.2
v -0.2 0.7 -1.4
v -0.2 0.7 -1.5
v -0.2 0.7 -1.6
v -0.2 0.8 -1.5
v -0.2 0.8 -1.6
v -0.2 0.8 -1.7
v -0.2 0.8 -1.8
v -0.2 0.9 -1.7
v -0.2 0.9 -1.8
v -0.0999999 0.6 0.0999999
v -0.0999999 0.6 -2.38419e-07
v -0.0999999 0.6 -1.1
v -0.0999999 0.6 -1.2
v -0.0999999 0.7 2
v -0.0999999 0.7 1.9
v -0.0999999 0.7 0.0999999
v -0.0999999 0.7 -2.38419e-07
v -0.0999999 0.7 -1.1
v -0.0999999 0.7 -1.2
v -0.0999999 0.7 -1.4
v -0.0999999 0.7 -1.5
v -0.0999999 0.8 2
v -0.0999999 0.8 1.9
v -0.0999999 0.8 -1.4
v -0.0999999 0.8 -1.5
v -0.0999999 0.8 -1.6
v -0.0999999 0.8 -1.7
v -0.0999999 0.9 -1.6
v -0.0999999 0.9 -1.7
v 2.38419e-07 0.6 -0.8
v 2.38419e-07 0.6 -1.1
v 2.38419e-07 0.7 -0.8
v 2.38419e-07 0.7 -1.1
v 2.38419e-07 0.7 -1.2
v 2.38419e-07 0.7 -1.4
v 2.38419e-07 0.8 -1.2
v 2.38419e-07 0.8 -1.4
v 0.1 0.6 -0.5
v 0.1 0.6 -0.8
v 0.1 0.7 -0.5
v 0.1 0.7 -0.8
v 0.1 0.7 -0.9
v 0.1 0.7 -1.2
v 0.1 0.8 -0.9
v 0.1 0.8 -1.2
v 0.1 0.8 -1.3
v 0.1 0.8 -1.6
v 0.1 0.9 -1.3
v 0.1 0.9 -1.6
v 0.2 0.6 -0.4
v 0.2 0.6 -0.5
v 0.2 0.7 -0.4
v 0.2 0.7 -0.5
v 0.2 0.7 -0.7
v 0.2 0.7 -0.9
v 0.2 0.8 -0.7
v 0.2 0.8 -0.9
v 0.2 0.8 -1.1
v 0.2 0.8 -1.3
v 0.2 0.9 -1.1
v 0.2 0.9 -1.3
v 0.2 0.9 -1.7
v 0.2 0.9 -2
v 0.2 1 -1.7
v 0.2 1 -2
v 0.3 0.7 -0.6
v 0.3 0.7 -0.7
v 0.3 0.8 -0.6
v 0.3 0.8 -0.7
v 0.3 0.8 -0.9
v 0.3 0.8 -1.1
v 0.3 0.9 -0.9
v 0.3 0.9 -1.1
v 0.3 0.9 -1.5
v 0.3 0.9 -1.7
v 0.3 1 -1.5
v 0.3 1 -1.7
v 0.4 0.8 -0.8
v 0.4 0.8 -0.9
v 0.4 0.9 -0.8
v 0.4 0.9 -0.9
v 0.4 0.9 -1.4
v 0.4 0.9 -1.5
v 0.4 1 -1.4
v 0.4 1 -1.5
v 0.5 0.7 -0.5
v 0.5 0.7 -0.6
v 0.5 0.8 -0.5
v 0.5 0.8 -0.6
v 0.5 0.9 -1.2
v 0.5 0.9 -1.4
v 0.5 1 -1.2
v 0.5 1 -1.4
v 0.5 1 -1.5
v 0.5 1 -2
v 0.5 1.1 -1.5
v 0.5 1.1 -2
v 0.6 0.8 -0.7
v 0.6 0.8 -0.8
v 0.6 0.9 -0.7
v 0.6 0.9 -0.8
v 0.6 0.9 -1.1
v 0.6 0.9 -1.2
v 0.6 1 -1.1
v 0.6 1 -1.2
v 0.6 1 -1.4
v 0.6 1 -1.5
v 0.6 1.1 -1.4
v 0.6 1.1 -1.5
v 0.6 1.1 -1.7
v 0.6 1.1 -1.8
v 0.6 1.1 -2
v 0.6 1.2 -1.5
v 0.6 1.2 -1.7
v 0.6 1.2 -1.8
v 0.6 1.2 -2
v 0.7 0.7 -0.5
v 0.7 0.7 -0.6
v 0.7 0.8 -0.5
v 0.7 0.8 -0.6
v 0.7 0.9 -1
v 0.7 0.9 -1.1
v 0.7 1 -1
v 0.7 1 -1.1
v 0.7 1 -1.3
v 0.7 1 -1.4
v 0.7 1.1 -1.3
v 0.7 1.1 -1.4
v 0.7 1.1 -1.5
v 0.7 1.1 -1.7
v 0.7 1.1 -1.8
v 0.7 1.2 -1.4
v 0.7 1.2 -1.5
v 0.7 1.2 -1.7
v 0.7 1.2 -1.8
v 0.8 1 -1.1
v 0.8 1 -1.3
v 0.8 1.1 -1.1
v 0.8 1.1 -1.3
v 0.9 0.7 -0.5
v 0.9 0.7 -0.6
v 0.9 0.8 -0.5
v 0.9 0.8 -0.6
v 0.9 1.1 -1.3
v 0.9 1.1 -1.4
v 0.9 1.2 -1.3
v 0.9 1.2 -1.4
v 0.9 1.2 -1.5
v 0.9 1.2 -2
v 0.9 1.3 -1.5
v 0.9 1.3 -2
v 1 0.6 -0.3
v 1 0.6 -0.4
v 1 0.7 -0.3
v 1 0.7 -0.4
v 1 0.8 -0.6
v 1 0.8 -0.7
v 1 0.9 -0.6
v 1 0.9 -0.7
v 1 0.9 -0.9
v 1 0.9 -1
v 1 1 -0.9
v 1 1 -1
v 1 1.1 -1.2
v 1 1.1 -1.3
v 1 1.2 -1.2
v 1 1.2 -1.3
v 1 1.3 -1.8
v 1 1.3 -2
v 1 1.4 -1.8
v 1 1.4 -2
v 1.1 0.6 -0.1
v 1.1 0.6 -0.3
v 1.1 0.7 -0.1
v 1.1 0.7 -0.3
v 1.1 0.7 -0.4
v 1.1 0.7 -0.5
v 1.1 0.8 -0.4
v 1.1 0.8 -0.5
v 1.1 0.9 -0.8
v 1.1 0.9 -0.9
v 1.1 1 -0.8
v 1.1 1 -0.9
v 1.1 1 -1
v 1.1 1 -1.1
v 1.1 1.1 -1
v 1.1 1.1 -1.1
v 1.1 1.3 -1.6
v 1.1 1.3 -1.8
v 1.1 1.4 -1.6
v 1.1 1.4 -1.8
v 1.2 0.7 -0.3
v 1.2 0.7 -0.4
v 1.2 0.8 -0.3
v 1.2 0.8 -0.4
v 1.2 0.8 -0.6
v 1.2 0.9 -0.4
v 1.2 0.9 -0.6
v 1.2 0.9 -0.7
v 1.2 0.9 -0.8
v 1.2 1 -0.7
v 1.2 1 -0.8
v 1.2 1 -1
v 1.2 1.1 -0.8
v 1.2 1.1 -1
v 1.3 0.6 2
v 1.3 0.6 1.9
v 1.3 0.6 -2.38419e-07
v 1.3 0.6 -0.1
v 1.3 0.7 2
v 1.3 0.7 1.9
v 1.3 0.7 -2.38419e-07
v 1.3 0.7 -0.1
v 1.3 1.2 -1.4
v 1.3 1.2 -1.5
v 1.3 1.3 -1.4
v 1.3 1.3 -1.5
v 1.3 1.4 -1.8
v 1.3 1.4 -2
v 1.3 1.5 -1.8
v 1.3 1.5 -2
v 1.4 0.6 1.9
v 1.4 0.6 1.7
v 1.4 0.6 0.7
v 1.4 0.6 -2.38419e-07
v 1.4 0.7 1.9
v 1.4 0.7 1.7
v 1.4 0.7 0.7
v 1.4 0.7 -2.38419e-07
v 1.4 0.7 -0.2
v 1.4 0.7 -0.3
v 1.4 0.8 -0.2
v 1.4 0.8 -0.3
v 1.4 0.8 -0.4
v 1.4 0.9 -0.3
v 1.4 0.9 -0.4
v 1.4 0.9 -0.6
v 1.4 0.9 -0.7
v 1.4 1 -0.6
v 1.4 1 -0.7
v 1.4 1.2 -1.3
v 1.4 1.2 -1.4
v 1.4 1.3 -1.3
v 1.4 1.3 -1.4
v 1.4 1.3 -1.5
v 1.4 1.3 -1.6
v 1.4 1.4 -1.5
v 1.4 1.4 -1.6
v 1.4 1.4 -1.7
v 1.4 1.4 -1.8
v 1.4 1.5 -1.7
v 1.4 1.5 -1.8
v 1.5 0.6 1.7
v 1.5 0.6 1
v 1.5 0.7 2
v 1.5 0.7 1.8
v 1.5 0.7 1.7
v 1.5 0.7 1
v 1.5 0.7 0.6
v 1.5 0.7 0.5
v 1.5 0.7 0.4
v 1.5 0.7 0.2
v 1.5 0.7 -2.38419e-07
v 1.5 0.7 -0.1
v 1.5 0.8 2
v 1.5 0.8 1.8
v 1.5 0.8 0.6
v 1.5 0.8 0.5
v 1.5 0.8 0.4
v 1.5 0.8 0.2
v 1.5 0.8 -2.38419e-07
v 1.5 0.8 -0.1
v 1.5 0.9 -0.5
v 1.5 0.9 -0.6
v 1.5 1 -0.5
v 1.5 1 -0.6
v 1.5 1.1 -1.1
v 1.5 1.1 -1.2
v 1.5 1.2 -1.1
v 1.5 1.2 -1.2
v 1.6 0.6 1
v 1.6 0.6 0.7
v 1.6 0.7 1.7
v 1.6 0.7 1.5
v 1.6 0.7 1.4
v 1.6 0.7 1.1
v 1.6 0.7 1
v 1.6 0.7 0.7
v 1.6 0.7 0.5
v 1.6 0.7 0.4
v 1.6 0.7 0.2
v 1.6 0.7 -2.38419e-07
v 1.6 0.7 -0.1
v 1.6 0.7 -0.2
v 1.6 0.8 1.7
v 1.6 0.8 1.5
v 1.6 0.8 1.4
v 1.6 0.8 1.1
v 1.6 0.8 0.5
v 1.6 0.8 0.4
v 1.6 0.8 0.2
v 1.6 0.8 -2.38419e-07
v 1.6 0.8 -0.1
v 1.6 0.8 -0.2
v 1.6 0.8 -0.3
v 1.6 0.9 -0.2
v 1.6 0.9 -0.3
v 1.7 0.7 1.8
v 1.7 0.7 1.7
v 1.7 0.7 1.5
v 1.7 0.7 1.4
v 1.7 0.7 1.1
v 1.7 0.7 1
v 1.7 0.7 0.9
v 1.7 0.7 0.6
v 1.7 0.8 1.8
v 1.7 0.8 1.7
v 1.7 0.8 1.6
v 1.7 0.8 1.5
v 1.7 0.8 1.4
v 1.7 0.8 1.1
v 1.7 0.8 1
v 1.7 0.8 0.9
v 1.7 0.8 0.6
v 1.7 0.8 0.3
v 1.7 0.8 -0.2
v 1.7 0.9 1.7
v 1.7 0.9 1.6
v 1.7 0.9 0.3
v 1.7 0.9 -0.2
v 1.8 0.7 1
v 1.8 0.7 0.9
v 1.8 0.8 1.9
v 1.8 0.8 1.7
v 1.8 0.8 1.6
v 1.8 0.8 1.1
v 1.8 0.8 1
v 1.8 0.8 0.9
v 1.8 0.8 0.7
v 1.8 0.8 0.5
v 1.8 0.8 0.3
v 1.8 0.9 1.9
v 1.8 0.9 1.7
v 1.8 0.9 1.6
v 1.8 0.9 1.1
v 1.8 0.9 0.9
v 1.8 0.9 0.7
v 1.8 0.9 0.5
v 1.8 0.9 0.3
v 1.9 0.8 1.1
v 1.9 0.8 0.9
v 1.9 0.8 0.6
v 1.9 0.8 0.5
v 1.9 0.9 1.1
v 1.9 0.9 0.9
v 1.9 0.9 0.6
v 1.9 0.9 0.5
v -1.9 0.6 -1.1
v -1.9 0.6 -1.8
v -1.9 0.7 -1
v -1.9 0.7 -1.1
v -1.9 0.7 -1.8
v -1.9 0.8 -1
v -1.9 0.8 -1.8
v -1.9 0.9 1.5
v -1.9 0.9 1.4
v -1.9 0.9 0.2
v -1.9 0.9 0.0999999
v -1.9 1 1.5
v -1.9 1 1.4
v -1.9 1 0.2
v -1.9 1 0.0999999
v -1.8 0.6 -1
v -1.8 0.6 -1.1
v -1.8 0.7 -0.6
v -1.8 0.7 -1
v -1.8 0.7 -1.1
v -1.8 0.8 -0.2
v -1.8 0.8 -0.3
v -1.8 0.8 -0.6
v -1.8 0.8 -1
v -1.8 0.9 1.4
v -1.8 0.9 1.3
v -1.8 0.9 0.3
v -1.8 0.9 0.2
v -1.8 0.9 -0.2
v -1.8 0.9 -0.3
v -1.8 1 1.4
v -1.8 1 1.3
v -1.8 1 0.8
v -1.8 1 0.5
v -1.8 1 0.3
v -1.8 1 0.2
v -1.8 1.1 0.8
v -1.8 1.1 0.5
v -1.7 0.6 -0.8
v -1.7 0.6 -1
v -1.7 0.7 -0.5
v -1.7 0.7 -0.6
v -1.7 0.7 -0.8
v -1.7 0.7 -1
v -1.7 0.7 -1.8
v -1.7 0.7 -1.9
v -1.7 0.8 -0.1
v -1.7 0.8 -0.2
v -1.7 0.8 -0.5
v -1.7 0.8 -0.6
v -1.7 0.8 -1.8
v -1.7 0.8 -1.9
v -1.7 0.9 0.7
v -1.7 0.9 0.3
v -1.7 0.9 -0.1
v -1.7 0.9 -0.2
v -1.7 1 1.2
v -1.7 1 0.8
v -1.7 1 0.7
v -1.7 1 0.3
v -1.7 1.1 1.2
v -1.7 1.1 0.8
v -1.6 0.6 -0.6
v -1.6 0.6 -0.8
v -1.6 0.6 -1.8
v -1.6 0.6 -1.9
v -1.6 0.7 -0.4
v -1.6 0.7 -0.5
v -1.6 0.7 -0.6
v -1.6 0.7 -0.8
v -1.6 0.7 -1.8
v -1.6 0.7 -1.9
v -1.6 0.8 1.9
v -1.6 0.8 1.8
v -1.6 0.8 -0.4
v -1.6 0.8 -0.5
v -1.6 0.9 1.9
v -1.6 0.9 1.8
v -1.6 0.9 1.3
v -1.6 0.9 0.7
v -1.6 1 1.3
v -1.6 1 0.7
v -1.5 0.6 -0.5
v -1.5 0.6 -0.6
v -1.5 0.7 -0.5
v -1.5 0.7 -0.6
v -1.5 0.8 1.8
v -1.5 0.8 0.3
v -1.5 0.8 0.0999999
v -1.5 0.8 -0.1
v -1.5 0.9 1.8
v -1.5 0.9 0.3
v -1.5 0.9 0.0999999
v -1.5 0.9 -0.1
v -1.4 0.7 2
v -1.4 0.7 1.9
v -1.4 0.7 1.1
v -1.4 0.7 0.4
v -1.4 0.8 2
v -1.4 0.8 1.9
v -1.4 0.8 1.1
v -1.4 0.8 0.4
v -1.4 0.8 0.3
v -1.4 0.8 0.0999999
v -1.4 0.9 0.3
v -1.4 0.9 0.0999999
v -1.3 0.6 0.9
v -1.3 0.6 0.4
v -1.3 0.7 1.9
v -1.3 0.7 1.1
v -1.3 0.7 0.9
v -1.3 0.7 0.4
v -1.3 0.7 0.2
v -1.3 0.7 -0.3
v -1.3 0.7 -0.4
v -1.3 0.8 1.9
v -1.3 0.8 1.1
v -1.3 0.8 0.4
v -1.3 0.8 0.2
v -1.3 0.8 -0.3
v -1.3 0.8 -0.4
v -1.2 0.6 1.8
v -1.2 0.6 0.9
v -1.2 0.6 0.4
v -1.2 0.6 0.3
v -1.2 0.7 1.8
v -1.2 0.7 0.9
v -1.2 0.7 0.4
v -1.2 0.7 0.3
v -1.2 0.7 0.2
v -1.2 0.7 0.0999999
v -1.2 0.8 0.2
v -1.2 0.8 0.0999999
v -1.1 0.6 1.9
v -1.1 0.6 1.8
v -1.1 0.6 0.3
v -1.1 0.6 0.2
v -1.1 0.6 -0.4
v -1.1 0.6 -0.5
v -1.1 0.7 1.9
v -1.1 0.7 1.8
v -1.1 0.7 0.3
v -1.1 0.7 0.2
v -1.1 0.7 0.0999999
v -1.1 0.7 -0.1
v -1.1 0.7 -0.4
v -1.1 0.7 -0.5
v -1.1 0.8 0.0999999
v -1.1 0.8 -0.1
v -1 0.6 2
v -1 0.6 1.9
v -1 0.6 0.2
v -1 0.6 0.0999999
v -1 0.7 2
v -1 0.7 1.9
v -1 0.7 0.2
v -1 0.7 0.0999999
v -1 0.7 -0.1
v -1 0.7 -0.2
v -1 0.8 -0.1
v -1 0.8 -0.2
v -0.9 0.6 0.0999999
v -0.9 0.6 -0.1
v -0.9 0.6 -0.3
v -0.9 0.6 -0.4
v -0.9 0.7 0.0999999
v -0.9 0.7 -0.1
v -0.9 0.7 -0.2
v -0.9 0.7 -0.3
v -0.9 0.7 -0.4
v -0.9 0.8 -0.2
v -0.9 0.8 -0.3
v -0.8 0.6 -0.1
v -0.8 0.6 -0.3
v -0.8 0.7 -0.1
v -0.8 0.7 -0.3
v 0.2 0.6 0.0999999
v 0.2 0.6 -2.38419e-07
v 0.2 0.7 0.0999999
v 0.2 0.7 -2.38419e-07
v 0.6 0.7 0.5
v 0.6 0.7 0.3
v 0.6 0.7 -0.5
v 0.6 0.7 -0.6
v 0.6 0.8 0.5
v 0.6 0.8 0.3
v 0.6 0.8 -0.5
v 0.6 0.8 -0.6
v 0.7 0.6 0.4
v 0.7 0.6 0.0999999
v 0.7 0.7 2
v 0.7 0.7 1.9
v 0.7 0.7 0.7
v 0.7 0.7 0.5
v 0.7 0.7 0.4
v 0.7 0.7 0.0999999
v 0.7 0.8 2
v 0.7 0.8 1.9
v 0.7 0.8 0.7
v 0.7 0.8 0.5
v 0.8 0.6 0.5
v 0.8 0.6 0.4
v 0.8 0.7 1.9
v 0.8 0.7 1.8
v 0.8 0.7 0.8
v 0.8 0.7 0.7
v 0.8 0.7 0.5
v 0.8 0.7 0.4
v 0.8 0.7 -0.5
v 0.8 0.7 -0.6
v 0.8 0.8 1.9
v 0.8 0.8 1.8
v 0.8 0.8 0.8
v 0.8 0.8 0.7
v 0.8 0.8 -0.5
v 0.8 0.8 -0.6
v 0.9 0.6 2
v 0.9 0.6 1.8
v 0.9 0.6 0.7
v 0.9 0.6 0.5
v 0.9 0.7 2
v 0.9 0.7 1.8
v 0.9 0.7 1.7
v 0.9 0.7 0.9
v 0.9 0.7 0.8
v 0.9 0.7 0.7
v 0.9 0.7 0.5
v 0.9 0.8 1.8
v 0.9 0.8 1.7
v 0.9 0.8 0.9
v 0.9 0.8 0.8
v 1 0.6 0.8
v 1 0.6 0.7
v 1 0.7 1.7
v 1 0.7 1.3
v 1 0.7 1
v 1 0.7 0.9
v 1 0.7 0.8
v 1 0.7 0.7
v 1 0.8 1.7
v 1 0.8 1.3
v 1 0.8 1
v 1 0.8 0.9
v 1.1 0.6 1.8
v 1.1 0.6 1.6
v 1.1 0.6 1
v 1.1 0.6 0.8
v 1.1 0.7 1.8
v 1.1 0.7 1.6
v 1.1 0.7 1.3
v 1.1 0.7 1
v 1.1 0.7 0.8
v 1.1 0.8 1.3
v 1.1 0.8 1
v 1.2 0.6 1.6
v 1.2 0.6 1
v 1.2 0.7 1.6
v 1.2 0.7 1
v 1.5 1.2 -1.3
v 1.5 1.2 -1.4
v 1.5 1.3 -1.3
v 1.5 1.3 -1.4
v 1.9 0.9 -0.5
v 1.9 0.9 -0.7
v 1.9 1 -0.5
v 1.9 1 -0.7
v 1.9 1.1 -1.1
v 1.9 1.1 -1.2
v 1.9 1.2 -1.1
v 1.9 1.2 -1.2
v 2 0 2
v 2 0 -2
v 2 0.3 2
v 2 0.3 -2
v 2 0.5 2
v 2 0.5 -2
v 2 0.6 2
v 2 0.6 -2
v 2 0.7 2
v 2 0.7 0.6
v 2 0.8 2
v 2 0.8 1.9
v 2 0.8 0.7
v 2 0.8 0.6
v 2 0.9 1.9
v 2 0.9 0.7
v 2 0.9 0.6
v 2 0.9 -0.7
v 2 0.9 -2
v 2 1 -0.7
v 2 1 -0.8
v 2 1 -2
v 2 1.1 -0.8
v 2 1.1 -1.2
v 2 1.2 -1.2
v 2 1.2 -1.4
v 2 1.2 -2
v 2 1.3 -1.4
v 2 1.3 -1.5
v 2 1.4 -1.5
v 2 1.4 -1.7
v 2 1.5 -1.7
v 2 1.5 -2
v -2 0 2
v -2 0.3 2
v -2 0.5 2
v -2 0.6 2
v -2 0.7 2
v -2 0.8 2
v -1.4 0.7 2
v -1.4 0.8 2
v -1 0.5 2
v -1 0.6 2
v -1 0.7 2
v -0.4 0.5 2
v -0.4 0.6 2
v -0.4 0.7 2
v -0.0999999 0.7 2
v -0.0999999 0.8 2
v 0.7 0.7 2
v 0.7 0.8 2
v 0.9 0.5 2
v 0.9 0.6 2
v 0.9 0.7 2
v 1.3 0.5 2
v 1.3 0.6 2
v 1.3 0.7 2
v 1.5 0.7 2
v 1.5 0.8 2
v 2 0 2
v 2 0.3 2
v 2 0.5 2
v 2 0.6 2
v 2 0.7 2
v 2 0.8 2
v -1.8 0.8 1.9
v -1.8 0.9 1.9
v -1.6 0.8 1.9
v -1.6 0.9 1.9
v -1.4 0.7 1.9
v -1.4 0.8 1.9
v -1.3 0.7 1.9
v -1.3 0.8 1.9
v -0.5 0.6 1.9
v -0.5 0.7 1.9
v -0.4 0.6 1.9
v -0.4 0.7 1.9
v -0.3 0.7 1.9
v -0.3 0.8 1.9
v -0.0999999 0.7 1.9
v -0.0999999 0.8 1.9
v 0.7 0.7 1.9
v 0.7 0.8 1.9
v 0.8 0.7 1.9
v 0.8 0.8 1.9
v 1.8 0.8 1.9
v 1.8 0.9 1.9
v 2 0.8 1.9
v 2 0.9 1.9
v -1.9 0.8 1.8
v -1.9 0.9 1.8
v -1.8 0.8 1.8
v -1.8 0.9 1.8
v -1.6 0.8 1.8
v -1.6 0.9 1.8
v -1.5 0.8 1.8
v -1.5 0.9 1.8
v -0.6 0.6 1.8
v -0.6 0.7 1.8
v -0.5 0.6 1.8
v -0.5 0.7 1.8
v 0.8 0.7 1.8
v 0.8 0.8 1.8
v 0.9 0.6 1.8
v 0.9 0.7 1.8
v 0.9 0.8 1.8
v 1.1 0.6 1.8
v 1.1 0.7 1.8
v -0.4 0.7 1.7
v -0.4 0.8 1.7
v -0.3 0.7 1.7
v -0.3 0.8 1.7
v 0.9 0.7 1.7
v 0.9 0.8 1.7
v 1 0.7 1.7
v 1 0.8 1.7
v 1.6 0.7 1.7
v 1.6 0.8 1.7
v 1.7 0.7 1.7
v 1.7 0.8 1.7
v 1.7 0.9 1.7
v 1.8 0.8 1.7
v 1.8 0.9 1.7
v -2 0.8 1.6
v -2 0.9 1.6
v -1.9 0.8 1.6
v -1.9 0.9 1.6
v -0.7 0.6 1.6
v -0.7 0.7 1.6
v -0.6 0.6 1.6
v -0.6 0.7 1.6
v 1.1 0.6 1.6
v 1.1 0.7 1.6
v 1.2 0.6 1.6
v 1.2 0.7 1.6
v -2 0.9 1.5
v -2 1 1.5
v -1.9 0.9 1.5
v -1.9 1 1.5
v -0.5 0.7 1.5
v -0.5 0.8 1.5
v -0.4 0.7 1.5
v -0.4 0.8 1.5
v -1.9 0.9 1.4
v -1.9 1 1.4
v -1.8 0.9 1.4
v -1.8 1 1.4
v 1.6 0.7 1.4
v 1.6 0.8 1.4
v 1.7 0.7 1.4
v 1.7 0.8 1.4
v -1.8 0.9 1.3
v -1.8 1 1.3
v -1.6 0.9 1.3
v -1.6 1 1.3
v -0.8 0.6 1.3
v -0.8 0.7 1.3
v -0.7 0.6 1.3
v -0.7 0.7 1.3
v -0.6 0.7 1.3
v -0.6 0.8 1.3
v -0.5 0.7 1.3
v -0.5 0.8 1.3
v 1 0.7 1.3
v 1 0.8 1.3
v 1.1 0.7 1.3
v 1.1 0.8 1.3
v -2 1 1.2
v -2 1.1 1.2
v -1.7 1 1.2
v -1.7 1.1 1.2
v 1.7 0.7 0.9
v 1.7 0.8 0.9
v 1.8 0.7 0.9
v 1.8 0.8 0.9
v 1.8 0.9 0.9
v 1.9 0.8 0.9
v 1.9 0.9 0.9
v 1.4 0.6 0.7
v 1.4 0.7 0.7
v 1.6 0.6 0.7
v 1.6 0.7 0.7
v 1.5 0.7 0.6
v 1.5 0.8 0.6
v 1.7 0.7 0.6
v 1.7 0.8 0.6
v 1.9 0.8 0.6
v 1.9 0.9 0.6
v 2 0.8 0.6
v 2 0.9 0.6
v 1.8 0.8 0.5
v 1.8 0.9 0.5
v 1.9 0.8 0.5
v 1.9 0.9 0.5
v -1.4 0.7 0.4
v -1.4 0.8 0.4
v -1.3 0.6 0.4
v -1.3 0.7 0.4
v -1.3 0.8 0.4
v -1.2 0.6 0.4
v -1.2 0.7 0.4
v 1.5 0.7 0.4
v 1.5 0.8 0.4
v 1.6 0.7 0.4
v 1.6 0.8 0.4
v -1.5 0.8 0.3
v -1.5 0.9 0.3
v -1.4 0.8 0.3
v -1.4 0.9 0.3
v -1.2 0.6 0.3
v -1.2 0.7 0.3
v -1.1 0.6 0.3
v -1.1 0.7 0.3
v 1.7 0.8 0.3
v 1.7 0.9 0.3
v 1.8 0.8 0.3
v 1.8 0.9 0.3
v -1.3 0.7 0.2
v -1.3 0.8 0.2
v -1.2 0.7 0.2
v -1.2 0.8 0.2
v -1.1 0.6 0.2
v -1.1 0.7 0.2
v -1 0.6 0.2
v -1 0.7 0.2
v -1.2 0.7 0.0999999
v -1.2 0.8 0.0999999
v -1.1 0.7 0.0999999
v -1.1 0.8 0.0999999
v -1 0.6 0.0999999
v -1 0.7 0.0999999
v -0.9 0.6 0.0999999
v -0.9 0.7 0.0999999
v 1.3 0.6 -2.38419e-07
v 1.3 0.7 -2.38419e-07
v 1.4 0.6 -2.38419e-07
v 1.4 0.7 -2.38419e-07
v 1.5 0.7 -2.38419e-07
v 1.5 0.8 -2.38419e-07
v 1.6 0.7 -2.38419e-07
v 1.6 0.8 -2.38419e-07
v -1.1 0.7 -0.1
v -1.1 0.8 -0.1
v -1 0.7 -0.1
v -1 0.8 -0.1
v -0.9 0.6 -0.1
v -0.9 0.7 -0.1
v -0.8 0.6 -0.1
v -0.8 0.7 -0.1
v 1.1 0.6 -0.1
v 1.1 0.7 -0.1
v 1.3 0.6 -0.1
v 1.3 0.7 -0.1
v -1 0.7 -0.2
v -1 0.8 -0.2
v -0.9 0.7 -0.2
v -0.9 0.8 -0.2
v 1.4 0.7 -0.2
v 1.4 0.8 -0.2
v 1.6 0.7 -0.2
v 1.6 0.8 -0.2
v 1.6 0.9 -0.2
v 1.7 0.8 -0.2
v 1.7 0.9 -0.2
v 1 0.6 -0.3
v 1 0.7 -0.3
v 1.1 0.6 -0.3
v 1.1 0.7 -0.3
v 1.2 0.7 -0.3
v 1.2 0.8 -0.3
v 1.4 0.7 -0.3
v 1.4 0.8 -0.3
v 1.4 0.9 -0.3
v 1.6 0.8 -0.3
v 1.6 0.9 -0.3
v 0.2 0.6 -0.4
v 0.2 0.7 -0.4
v 1 0.6 -0.4
v 1 0.7 -0.4
v 1.1 0.7 -0.4
v 1.1 0.8 -0.4
v 1.2 0.7 -0.4
v 1.2 0.8 -0.4
v 1.2 0.9 -0.4
v 1.4 0.8 -0.4
v 1.4 0.9 -0.4
v 0.1 0.6 -0.5
v 0.1 0.7 -0.5
v 0.2 0.6 -0.5
v 0.2 0.7 -0.5
v 0.5 0.7 -0.5
v 0.5 0.8 -0.5
v 0.6 0.7 -0.5
v 0.6 0.8 -0.5
v 0.7 0.7 -0.5
v 0.7 0.8 -0.5
v 0.8 0.7 -0.5
v 0.8 0.8 -0.5
v 0.9 0.7 -0.5
v 0.9 0.8 -0.5
v 1.1 0.7 -0.5
v 1.1 0.8 -0.5
v 1.5 0.9 -0.5
v 1.5 1 -0.5
v 1.9 0.9 -0.5
v 1.9 1 -0.5
v 0.3 0.7 -0.6
v 0.3 0.8 -0.6
v 0.5 0.7 -0.6
v 0.5 0.8 -0.6
v 0.6 0.7 -0.6
v 0.6 0.8 -0.6
v 0.7 0.7 -0.6
v 0.7 0.8 -0.6
v 0.8 0.7 -0.6
v 0.8 0.8 -0.6
v 0.9 0.7 -0.6
v 0.9 0.8 -0.6
v 1 0.8 -0.6
v 1 0.9 -0.6
v 1.2 0.8 -0.6
v 1.2 0.9 -0.6
v 1.4 0.9 -0.6
v 1.4 1 -0.6
v 1.5 0.9 -0.6
v 1.5 1 -0.6
v 0.2 0.7 -0.7
v 0.2 0.8 -0.7
v 0.3 0.7 -0.7
v 0.3 0.8 -0.7
v 0.6 0.8 -0.7
v 0.6 0.9 -0.7
v 1 0.8 -0.7
v 1 0.9 -0.7
v 1.2 0.9 -0.7
v 1.2 1 -0.7
v 1.4 0.9 -0.7
v 1.4 1 -0.7
v 1.9 0.9 -0.7
v 1.9 1 -0.7
v 2 0.9 -0.7
v 2 1 -0.7
v 2.38419e-07 0.6 -0.8
v 2.38419e-07 0.7 -0.8
v 0.1 0.6 -0.8
v 0.1 0.7 -0.8
v 0.4 0.8 -0.8
v 0.4 0.9 -0.8
v 0.6 0.8 -0.8
v 0.6 0.9 -0.8
v 1.1 0.9 -0.8
v 1.1 1 -0.8
v 1.2 0.9 -0.8
v 1.2 1 -0.8
v 1.2 1.1 -0.8
v 2 1 -0.8
v 2 1.1 -0.8
v 0.1 0.7 -0.9
v 0.1 0.8 -0.9
v 0.2 0.7 -0.9
v 0.2 0.8 -0.9
v 0.3 0.8 -0.9
v 0.3 0.9 -0.9
v 0.4 0.8 -0.9
v 0.4 0.9 -0.9
v 1 0.9 -0.9
v 1 1 -0.9
v 1.1 0.9 -0.9
v 1.1 1 -0.9
v 0.7 0.9 -1
v 0.7 1 -1
v 1 0.9 -1
v 1 1 -1
v 1.1 1 -1
v 1.1 1.1 -1
v 1.2 1 -1
v 1.2 1.1 -1
v -0.0999999 0.6 -1.1
v -0.0999999 0.7 -1.1
v 2.38419e-07 0.6 -1.1
v 2.38419e-07 0.7 -1.1
v 0.2 0.8 -1.1
v 0.2 0.9 -1.1
v 0.3 0.8 -1.1
v 0.3 0.9 -1.1
v 0.6 0.9 -1.1
v 0.6 1 -1.1
v 0.7 0.9 -1.1
v 0.7 1 -1.1
v 0.8 1 -1.1
v 0.8 1.1 -1.1
v 1.1 1 -1.1
v 1.1 1.1 -1.1
v 1.5 1.1 -1.1
v 1.5 1.2 -1.1
v 1.9 1.1 -1.1
v 1.9 1.2 -1.1
v -0.2 0.6 -1.2
v -0.2 0.7 -1.2
v -0.0999999 0.6 -1.2
v -0.0999999 0.7 -1.2
v 2.38419e-07 0.7 -1.2
v 2.38419e-07 0.8 -1.2
v 0.1 0.7 -1.2
v 0.1 0.8 -1.2
v 0.5 0.9 -1.2
v 0.5 1 -1.2
v 0.6 0.9 -1.2
v 0.6 1 -1.2
v 1 1.1 -1.2
v 1 1.2 -1.2
v 1.5 1.1 -1.2
v 1.5 1.2 -1.2
v 1.9 1.1 -1.2
v 1.9 1.2 -1.2
v 2 1.1 -1.2
v 2 1.2 -1.2
v 0.1 0.8 -1.3
v 0.1 0.9 -1.3
v 0.2 0.8 -1.3
v 0.2 0.9 -1.3
v 0.7 1 -1.3
v 0.7 1.1 -1.3
v 0.8 1 -1.3
v 0.8 1.1 -1.3
v 0.9 1.1 -1.3
v 0.9 1.2 -1.3
v 1 1.1 -1.3
v 1 1.2 -1.3
v 1.4 1.2 -1.3
v 1.4 1.3 -1.3
v 1.5 1.2 -1.3
v 1.5 1.3 -1.3
v -0.3 0.6 -1.4
v -0.3 0.7 -1.4
v -0.2 0.6 -1.4
v -0.2 0.7 -1.4
v -0.0999999 0.7 -1.4
v -0.0999999 0.8 -1.4
v 2.38419e-07 0.7 -1.4
v 2.38419e-07 0.8 -1.4
v 0.4 0.9 -1.4
v 0.4 1 -1.4
v 0.5 0.9 -1.4
v 0.5 1 -1.4
v 0.6 1 -1.4
v 0.6 1.1 -1.4
v 0.7 1 -1.4
v 0.7 1.1 -1.4
v 0.7 1.2 -1.4
v 0.9 1.1 -1.4
v 0.9 1.2 -1.4
v 1.3 1.2 -1.4
v 1.3 1.3 -1.4
v 1.4 1.2 -1.4
v 1.4 1.3 -1.4
v 1.5 1.2 -1.4
v 1.5 1.3 -1.4
v 2 1.2 -1.4
v 2 1.3 -1.4
v -0.4 0.6 -1.5
v -0.4 0.7 -1.5
v -0.3 0.6 -1.5
v -0.3 0.7 -1.5
v -0.2 0.7 -1.5
v -0.2 0.8 -1.5
v -0.0999999 0.7 -1.5
v -0.0999999 0.8 -1.5
v 0.3 0.9 -1.5
v 0.3 1 -1.5
v 0.4 0.9 -1.5
v 0.4 1 -1.5
v 0.5 1 -1.5
v 0.5 1.1 -1.5
v 0.6 1 -1.5
v 0.6 1.1 -1.5
v 0.6 1.2 -1.5
v 0.7 1.1 -1.5
v 0.7 1.2 -1.5
v 0.9 1.2 -1.5
v 0.9 1.3 -1.5
v 1.3 1.2 -1.5
v 1.3 1.3 -1.5
v 1.4 1.3 -1.5
v 1.4 1.4 -1.5
v 2 1.3 -1.5
v 2 1.4 -1.5
v -0.6 0.6 -1.6
v -0.6 0.7 -1.6
v -0.4 0.6 -1.6
v -0.4 0.7 -1.6
v -0.3 0.7 -1.6
v -0.3 0.8 -1.6
v -0.2 0.7 -1.6
v -0.2 0.8 -1.6
v -0.0999999 0.8 -1.6
v -0.0999999 0.9 -1.6
v 0.1 0.8 -1.6
v 0.1 0.9 -1.6
v 1.1 1.3 -1.6
v 1.1 1.4 -1.6
v 1.4 1.3 -1.6
v 1.4 1.4 -1.6
v -0.7 0.6 -1.7
v -0.7 0.7 -1.7
v -0.6 0.6 -1.7
v -0.6 0.7 -1.7
v -0.5 0.7 -1.7
v -0.5 0.8 -1.7
v -0.3 0.7 -1.7
v -0.3 0.8 -1.7
v -0.2 0.8 -1.7
v -0.2 0.9 -1.7
v -0.0999999 0.8 -1.7
v -0.0999999 0.9 -1.7
v 0.2 0.9 -1.7
v 0.2 1 -1.7
v 0.3 0.9 -1.7
v 0.3 1 -1.7
v 1.4 1.4 -1.7
v 1.4 1.5 -1.7
v 2 1.4 -1.7
v 2 1.5 -1.7
v -1.9 0.6 -1.8
v -1.9 0.7 -1.8
v -1.9 0.8 -1.8
v -1.7 0.7 -1.8
v -1.7 0.8 -1.8
v -1.6 0.6 -1.8
v -1.6 0.7 -1.8
v -0.8 0.6 -1.8
v -0.8 0.7 -1.8
v -0.7 0.6 -1.8
v -0.7 0.7 -1.8
v -0.7 0.8 -1.8
v -0.5 0.7 -1.8
v -0.5 0.8 -1.8
v -0.4 0.8 -1.8
v -0.4 0.9 -1.8
v -0.2 0.8 -1.8
v -0.2 0.9 -1.8
v 0.6 1.1 -1.8
v 0.6 1.2 -1.8
v 0.7 1.1 -1.8
v 0.7 1.2 -1.8
v 1 1.3 -1.8
v 1 1.4 -1.8
v 1.1 1.3 -1.8
v 1.1 1.4 -1.8
v 1.3 1.4 -1.8
v 1.3 1.5 -1.8
v 1.4 1.4 -1.8
v 1.4 1.5 -1.8
v -1.7 0.7 -1.9
v -1.7 0.8 -1.9
v -1.6 0.6 -1.9
v -1.6 0.7 -1.9
v -0.8 0.6 -1.9
v -0.8 0.7 -1.9
v -0.7 0.7 -1.9
v -0.7 0.8 -1.9
v -0.6 0.8 -1.9
v -0.6 0.9 -1.9
v -0.4 0.8 -1.9
v -0.4 0.9 -1.9
v -1.1 0.6 1.9
v -1.1 0.7 1.9
v -1 0.6 1.9
v -1 0.7 1.9
v 1.3 0.6 1.9
v 1.3 0.7 1.9
v 1.4 0.6 1.9
v 1.4 0.7 1.9
v -1.2 0.6 1.8
v -1.2 0.7 1.8
v -1.1 0.6 1.8
v -1.1 0.7 1.8
v 1.5 0.7 1.8
v 1.5 0.8 1.8
v 1.7 0.7 1.8
v 1.7 0.8 1.8
v 1.4 0.6 1.7
v 1.4 0.7 1.7
v 1.5 0.6 1.7
v 1.5 0.7 1.7
v 1.7 0.8 1.6
v 1.7 0.9 1.6
v 1.8 0.8 1.6
v 1.8 0.9 1.6
v 1.6 0.7 1.5
v 1.6 0.8 1.5
v 1.7 0.7 1.5
v 1.7 0.8 1.5
v -1.4 0.7 1.1
v -1.4 0.8 1.1
v -1.3 0.7 1.1
v -1.3 0.8 1.1
v 1.6 0.7 1.1
v 1.6 0.8 1.1
v 1.7 0.7 1.1
v 1.7 0.8 1.1
v 1.8 0.8 1.1
v 1.8 0.9 1.1
v 1.9 0.8 1.1
v 1.9 0.9 1.1
v 1 0.7 1
v 1 0.8 1
v 1.1 0.6 1
v 1.1 0.7 1
v 1.1 0.8 1
v 1.2 0.6 1
v 1.2 0.7 1
v 1.5 0.6 1
v 1.5 0.7 1
v 1.6 0.6 1
v 1.6 0.7 1
v 1.7 0.7 1
v 1.7 0.8 1
v 1.8 0.7 1
v 1.8 0.8 1
v -1.3 0.6 0.9
v -1.3 0.7 0.9
v -1.2 0.6 0.9
v -1.2 0.7 0.9
v -0.8 0.6 0.9
v -0.8 0.7 0.9
v -0.7 0.6 0.9
v -0.7 0.7 0.9
v 0.9 0.7 0.9
v 0.9 0.8 0.9
v 1 0.7 0.9
v 1 0.8 0.9
v -1.8 1 0.8
v -1.8 1.1 0.8
v -1.7 1 0.8
v -1.7 1.1 0.8
v -0.6 0.7 0.8
v -0.6 0.8 0.8
v -0.5 0.7 0.8
v -0.5 0.8 0.8
v 0.8 0.7 0.8
v 0.8 0.8 0.8
v 0.9 0.7 0.8
v 0.9 0.8 0.8
v 1 0.6 0.8
v 1 0.7 0.8
v 1.1 0.6 0.8
v 1.1 0.7 0.8
v -1.7 0.9 0.7
v -1.7 1 0.7
v -1.6 0.9 0.7
v -1.6 1 0.7
v -0.7 0.6 0.7
v -0.7 0.7 0.7
v -0.6 0.6 0.7
v -0.6 0.7 0.7
v 0.7 0.7 0.7
v 0.7 0.8 0.7
v 0.8 0.7 0.7
v 0.8 0.8 0.7
v 0.9 0.6 0.7
v 0.9 0.7 0.7
v 1 0.6 0.7
v 1 0.7 0.7
v 1.8 0.8 0.7
v 1.8 0.9 0.7
v 2 0.8 0.7
v 2 0.9 0.7
v -2 1 0.5
v -2 1.1 0.5
v -1.8 1 0.5
v -1.8 1.1 0.5
v -0.5 0.7 0.5
v -0.5 0.8 0.5
v -0.4 0.7 0.5
v -0.4 0.8 0.5
v 0.6 0.7 0.5
v 0.6 0.8 0.5
v 0.7 0.7 0.5
v 0.7 0.8 0.5
v 0.8 0.6 0.5
v 0.8 0.7 0.5
v 0.9 0.6 0.5
v 0.9 0.7 0.5
v 1.5 0.7 0.5
v 1.5 0.8 0.5
v 1.6 0.7 0.5
v 1.6 0.8 0.5
v -0.6 0.6 0.4
v -0.6 0.7 0.4
v -0.5 0.6 0.4
v -0.5 0.7 0.4
v 0.7 0.6 0.4
v 0.7 0.7 0.4
v 0.8 0.6 0.4
v 0.8 0.7 0.4
v -1.8 0.9 0.3
v -1.8 1 0.3
v -1.7 0.9 0.3
v -1.7 1 0.3
v -0.4 0.7 0.3
v -0.4 0.8 0.3
v 0.6 0.7 0.3
v 0.6 0.8 0.3
v -1.9 0.9 0.2
v -1.9 1 0.2
v -1.8 0.9 0.2
v -1.8 1 0.2
v -0.5 0.6 0.2
v -0.5 0.7 0.2
v -0.3 0.6 0.2
v -0.3 0.7 0.2
v 1.5 0.7 0.2
v 1.5 0.8 0.2
v 1.6 0.7 0.2
v 1.6 0.8 0.2
v -2 0.9 0.0999999
v -2 1 0.0999999
v -1.9 0.9 0.0999999
v -1.9 1 0.0999999
v -1.5 0.8 0.0999999
v -1.5 0.9 0.0999999
v -1.4 0.8 0.0999999
v -1.4 0.9 0.0999999
v -0.3 0.6 0.0999999
v -0.3 0.7 0.0999999
v -0.0999999 0.6 0.0999999
v -0.0999999 0.7 0.0999999
v 0.2 0.6 0.0999999
v 0.2 0.7 0.0999999
v 0.7 0.6 0.0999999
v 0.7 0.7 0.0999999
v -0.0999999 0.6 -2.38419e-07
v -0.0999999 0.7 -2.38419e-07
v 0.2 0.6 -2.38419e-07
v 0.2 0.7 -2.38419e-07
v -1.7 0.8 -0.1
v -1.7 0.9 -0.1
v -1.5 0.8 -0.1
v -1.5 0.9 -0.1
v 1.5 0.7 -0.1
v 1.5 0.8 -0.1
v 1.6 0.7 -0.1
v 1.6 0.8 -0.1
v -1.8 0.8 -0.2
v -1.8 0.9 -0.2
v -1.7 0.8 -0.2
v -1.7 0.9 -0.2
v -2 0.8 -0.3
v -2 0.9 -0.3
v -1.8 0.8 -0.3
v -1.8 0.9 -0.3
v -1.3 0.7 -0.3
v -1.3 0.8 -0.3
v -0.9 0.6 -0.3
v -0.9 0.7 -0.3
v -0.9 0.8 -0.3
v -0.8 0.6 -0.3
v -0.8 0.7 -0.3
v -1.6 0.7 -0.4
v -1.6 0.8 -0.4
v -1.3 0.7 -0.4
v -1.3 0.8 -0.4
v -1.1 0.6 -0.4
v -1.1 0.7 -0.4
v -0.9 0.6 -0.4
v -0.9 0.7 -0.4
v -1.7 0.7 -0.5
v -1.7 0.8 -0.5
v -1.6 0.7 -0.5
v -1.6 0.8 -0.5
v -1.5 0.6 -0.5
v -1.5 0.7 -0.5
v -1.1 0.6 -0.5
v -1.1 0.7 -0.5
v -1.8 0.7 -0.6
v -1.8 0.8 -0.6
v -1.7 0.7 -0.6
v -1.7 0.8 -0.6
v -1.6 0.6 -0.6
v -1.6 0.7 -0.6
v -1.5 0.6 -0.6
v -1.5 0.7 -0.6
v -1.7 0.6 -0.8
v -1.7 0.7 -0.8
v -1.6 0.6 -0.8
v -1.6 0.7 -0.8
v -1.9 0.7 -1
v -1.9 0.8 -1
v -1.8 0.6 -1
v -1.8 0.7 -1
v -1.8 0.8 -1
v -1.7 0.6 -1
v -1.7 0.7 -1
v -1.9 0.6 -1.1
v -1.9 0.7 -1.1
v -1.8 0.6 -1.1
v -1.8 0.7 -1.1
v 0.6 1.1 -1.7
v 0.6 1.2 -1.7
v 0.7 1.1 -1.7
v 0.7 1.2 -1.7
v -2 0 -2
v -2 0.3 -2
v -2 0.5 -2
v -2 0.6 -2
v -2 0.7 -2
v -2 0.8 -2
v -1.6 0.6 -2
v -1.6 0.7 -2
v -0.8 0.6 -2
v -0.8 0.7 -2
v -0.6 0.7 -2
v -0.6 0.8 -2
v -0.6 0.9 -2
v 0.2 0.9 -2
v 0.2 1 -2
v 0.5 1 -2
v 0.5 1.1 -2
v 0.6 1.1 -2
v 0.6 1.2 -2
v 0.9 1.2 -2
v 0.9 1.3 -2
v 1 1.3 -2
v 1 1.4 -2
v 1.3 1.4 -2
v 1.3 1.5 -2
v 2 0 -2
v 2 0.3 -2
v 2 0.5 -2
v 2 0.6 -2
v 2 0.9 -2
v 2 1 -2
v 2 1.2 -2
v 2 1.5 -2
v -2 0 2
v 2 0 2
v -2 0 -2
v 2 0 -2
v -1 0.6 2
v -0.4 0.6 2
v 0.9 0.6 2
v 1.3 0.6 2
v -1.1 0.6 1.9
v -1 0.6 1.9
v -0.5 0.6 1.9
v -0.4 0.6 1.9
v 1.3 0.6 1.9
v 1.4 0.6 1.9
v -1.2 0.6 1.8
v -1.1 0.6 1.8
v -0.6 0.6 1.8
v -0.5 0.6 1.8
v 0.9 0.6 1.8
v 1.1 0.6 1.8
v 1.4 0.6 1.7
v 1.5 0.6 1.7
v -0.7 0.6 1.6
v -0.6 0.6 1.6
v 1.1 0.6 1.6
v 1.2 0.6 1.6
v -0.8 0.6 1.3
v -0.7 0.6 1.3
v 1.1 0.6 1
v 1.2 0.6 1
v 1.5 0.6 1
v 1.6 0.6 1
v -1.3 0.6 0.9
v -1.2 0.6 0.9
v -0.8 0.6 0.9
v -0.7 0.6 0.9
v 1 0.6 0.8
v 1.1 0.6 0.8
v -0.7 0.6 0.7
v -0.6 0.6 0.7
v 0.9 0.6 0.7
v 1 0.6 0.7
v 1.4 0.6 0.7
v 1.6 0.6 0.7
v 0.8 0.6 0.5
v 0.9 0.6 0.5
v -1.3 0.6 0.4
v -1.2 0.6 0.4
v -0.6 0.6 0.4
v -0.5 0.6 0.4
v 0.7 0.6 0.4
v 0.8 0.6 0.4
v -1.2 0.6 0.3
v -1.1 0.6 0.3
v -1.1 0.6 0.2
v -1 0.6 0.2
v -0.5 0.6 0.2
v -0.3 0.6 0.2
v -1 0.6 0.0999999
v -0.9 0.6 0.0999999
v -0.3 0.6 0.0999999
v -0.0999999 0.6 0.0999999
v 0.2 0.6 0.0999999
v 0.7 0.6 0.0999999
v -0.0999999 0.6 -2.38419e-07
v 0.2 0.6 -2.38419e-07
v 1.3 0.6 -2.38419e-07
v 1.4 0.6 -2.38419e-07
v -0.9 0.6 -0.1
v -0.8 0.6 -0.1
v 1.1 0.6 -0.1
v 1.3 0.6 -0.1
v -0.9 0.6 -0.3
v -0.8 0.6 -0.3
v 1 0.6 -0.3
v 1.1 0.6 -0.3
v -1.1 0.6 -0.4
v -0.9 0.6 -0.4
v 0.2 0.6 -0.4
v 1 0.6 -0.4
v -1.5 0.6 -0.5
v -1.1 0.6 -0.5
v 0.1 0.6 -0.5
v 0.2 0.6 -0.5
v -1.6 0.6 -0.6
v -1.5 0.6 -0.6
v -1.7 0.6 -0.8
v -1.6 0.6 -0.8
v 2.38419e-07 0.6 -0.8
v 0.1 0.6 -0.8
v -1.8 0.6 -1
v -1.7 0.6 -1
v -1.9 0.6 -1.1
v -1.8 0.6 -1.1
v -0.0999999 0.6 -1.1
v 2.38419e-07 0.6 -1.1
v -0.2 0.6 -1.2
v -0.0999999 0.6 -1.2
v -0.3 0.6 -1.4
v -0.2 0.6 -1.4
v -0.4 0.6 -1.5
v -0.3 0.6 -1.5
v -0.6 0.6 -1.6
v -0.4 0.6 -1.6
v -0.7 0.6 -1.7
v -0.6 0.6 -1.7
v -1.9 0.6 -1.8
v -1.6 0.6 -1.8
v -0.8 0.6 -1.8
v -0.7 0.6 -1.8
v -1.6 0.6 -1.9
v -0.8 0.6 -1.9
v -1.4 0.7 2
v -1 0.7 2
v -0.4 0.7 2
v -0.0999999 0.7 2
v 0.7 0.7 2
v 0.9 0.7 2
v 1.3 0.7 2
v 1.5 0.7 2
v -1.4 0.7 1.9
v -1.3 0.7 1.9
v -1.1 0.7 1.9
v -1 0.7 1.9
v -0.5 0.7 1.9
v -0.4 0.7 1.9
v -0.3 0.7 1.9
v -0.0999999 0.7 1.9
v 0.7 0.7 1.9
v 0.8 0.7 1.9
v 1.3 0.7 1.9
v 1.4 0.7 1.9
v -1.2 0.7 1.8
v -1.1 0.7 1.8
v -0.6 0.7 1.8
v -0.5 0.7 1.8
v 0.8 0.7 1.8
v 0.9 0.7 1.8
v 1.1 0.7 1.8
v 1.5 0.7 1.8
v 1.7 0.7 1.8
v -0.4 0.7 1.7
v -0.3 0.7 1.7
v 0.9 0.7 1.7
v 1 0.7 1.7
v 1.4 0.7 1.7
v 1.5 0.7 1.7
v 1.6 0.7 1.7
v 1.7 0.7 1.7
v -0.7 0.7 1.6
v -0.6 0.7 1.6
v 1.1 0.7 1.6
v 1.2 0.7 1.6
v -0.5 0.7 1.5
v -0.4 0.7 1.5
v 1.6 0.7 1.5
v 1.7 0.7 1.5
v 1.6 0.7 1.4
v 1.7 0.7 1.4
v -0.8 0.7 1.3
v -0.7 0.7 1.3
v -0.6 0.7 1.3
v -0.5 0.7 1.3
v 1 0.7 1.3
v 1.1 0.7 1.3
v -1.4 0.7 1.1
v -1.3 0.7 1.1
v 1.6 0.7 1.1
v 1.7 0.7 1.1
v 1 0.7 1
v 1.1 0.7 1
v 1.2 0.7 1
v 1.5 0.7 1
v 1.6 0.7 1
v 1.7 0.7 1
v 1.8 0.7 1
v -1.3 0.7 0.9
v -1.2 0.7 0.9
v -0.8 0.7 0.9
v -0.7 0.7 0.9
v 0.9 0.7 0.9
v 1 0.7 0.9
v 1.7 0.7 0.9
v 1.8 0.7 0.9
v -0.6 0.7 0.8
v -0.5 0.7 0.8
v 0.8 0.7 0.8
v 0.9 0.7 0.8
v 1 0.7 0.8
v 1.1 0.7 0.8
v -0.7 0.7 0.7
v -0.6 0.7 0.7
v 0.7 0.7 0.7
v 0.8 0.7 0.7
v 0.9 0.7 0.7
v 1 0.7 0.7
v 1.4 0.7 0.7
v 1.6 0.7 0.7
v 1.5 0.7 0.6
v 1.7 0.7 0.6
v -0.5 0.7 0.5
v -0.4 0.7 0.5
v 0.6 0.7 0.5
v 0.7 0.7 0.5
v 0.8 0.7 0.5
v 0.9 0.7 0.5
v 1.5 0.7 0.5
v 1.6 0.7 0.5
v -1.4 0.7 0.4
v -1.3 0.7 0.4
v -1.2 0.7 0.4
v -0.6 0.7 0.4
v -0.5 0.7 0.4
v 0.7 0.7 0.4
v 0.8 0.7 0.4
v 1.5 0.7 0.4
v 1.6 0.7 0.4
v -1.2 0.7 0.3
v -1.1 0.7 0.3
v -0.4 0.7 0.3
v 0.6 0.7 0.3
v -1.3 0.7 0.2
v -1.2 0.7 0.2
v -1.1 0.7 0.2
v -1 0.7 0.2
v -0.5 0.7 0.2
v -0.3 0.7 0.2
v 1.5 0.7 0.2
v 1.6 0.7 0.2
v -1.2 0.7 0.0999999
v -1.1 0.7 0.0999999
v -1 0.7 0.0999999
v -0.9 0.7 0.0999999
v -0.3 0.7 0.0999999
v -0.0999999 0.7 0.0999999
v 0.2 0.7 0.0999999
v 0.7 0.7 0.0999999
v -0.0999999 0.7 -2.38419e-07
v 0.2 0.7 -2.38419e-07
v 1.3 0.7 -2.38419e-07
v 1.4 0.7 -2.38419e-07
v 1.5 0.7 -2.38419e-07
v 1.6 0.7 -2.38419e-07
v -1.1 0.7 -0.1
v -1 0.7 -0.1
v -0.9 0.7 -0.1
v -0.8 0.7 -0.1
v 1.1 0.7 -0.1
v 1.3 0.7 -0.1
v 1.5 0.7 -0.1
v 1.6 0.7 -0.1
v -1 0.7 -0.2
v -0.9 0.7 -0.2
v 1.4 0.7 -0.2
v 1.6 0.7 -0.2
v -1.3 0.7 -0.3
v -0.9 0.7 -0.3
v -0.8 0.7 -0.3
v 1 0.7 -0.3
v 1.1 0.7 -0.3
v 1.2 0.7 -0.3
v 1.4 0.7 -0.3
v -1.6 0.7 -0.4
v -1.3 0.7 -0.4
v -1.1 0.7 -0.4
v -0.9 0.7 -0.4
v 0.2 0.7 -0.4
v 1 0.7 -0.4
v 1.1 0.7 -0.4
v 1.2 0.7 -0.4
v -1.7 0.7 -0.5
v -1.6 0.7 -0.5
v -1.5 0.7 -0.5
v -1.1 0.7 -0.5
v 0.1 0.7 -0.5
v 0.2 0.7 -0.5
v 0.5 0.7 -0.5
v 0.6 0.7 -0.5
v 0.7 0.7 -0.5
v 0.8 0.7 -0.5
v 0.9 0.7 -0.5
v 1.1 0.7 -0.5
v -1.8 0.7 -0.6
v -1.7 0.7 -0.6
v -1.6 0.7 -0.6
v -1.5 0.7 -0.6
v 0.3 0.7 -0.6
v 0.5 0.7 -0.6
v 0.6 0.7 -0.6
v 0.7 0.7 -0.6
v 0.8 0.7 -0.6
v 0.9 0.7 -0.6
v 0.2 0.7 -0.7
v 0.3 0.7 -0.7
v -1.7 0.7 -0.8
v -1.6 0.7 -0.8
v 2.38419e-07 0.7 -0.8
v 0.1 0.7 -0.8
v 0.1 0.7 -0.9
v 0.2 0.7 -0.9
v -1.9 0.7 -1
v -1.8 0.7 -1
v -1.7 0.7 -1
v -1.9 0.7 -1.1
v -1.8 0.7 -1.1
v -0.0999999 0.7 -1.1
v 2.38419e-07 0.7 -1.1
v -0.2 0.7 -1.2
v -0.0999999 0.7 -1.2
v 2.38419e-07 0.7 -1.2
v 0.1 0.7 -1.2
v -0.3 0.7 -1.4
v -0.2 0.7 -1.4
v -0.0999999 0.7 -1.4
v 2.38419e-07 0.7 -1.4
v -0.4 0.7 -1.5
v -0.3 0.7 -1.5
v -0.2 0.7 -1.5
v -0.0999999 0.7 -1.5
v -0.6 0.7 -1.6
v -0.4 0.7 -1.6
v -0.3 0.7 -1.6
v -0.2 0.7 -1.6
v -0.7 0.7 -1.7
v -0.6 0.7 -1.7
v -0.5 0.7 -1.7
v -0.3 0.7 -1.7
v -1.7 0.7 -1.8
v -1.6 0.7 -1.8
v -0.8 0.7 -1.8
v -0.7 0.7 -1.8
v -0.5 0.7 -1.8
v -1.7 0.7 -1.9
v -1.6 0.7 -1.9
v -0.8 0.7 -1.9
v -0.7 0.7 -1.9
v -2 0.8 2
v -1.4 0.8 2
v -0.0999999 0.8 2
v 0.7 0.8 2
v 1.5 0.8 2
v 2 0.8 2
v -1.8 0.8 1.9
v -1.6 0.8 1.9
v -1.4 0.8 1.9
v -1.3 0.8 1.9
v -0.3 0.8 1.9
v -0.0999999 0.8 1.9
v 0.7 0.8 1.9
v 0.8 0.8 1.9
v 1.8 0.8 1.9
v 2 0.8 1.9
v -1.9 0.8 1.8
v -1.8 0.8 1.8
v -1.6 0.8 1.8
v -1.5 0.8 1.8
v 0.8 0.8 1.8
v 0.9 0.8 1.8
v 1.5 0.8 1.8
v 1.7 0.8 1.8
v -0.4 0.8 1.7
v -0.3 0.8 1.7
v 0.9 0.8 1.7
v 1 0.8 1.7
v 1.6 0.8 1.7
v 1.7 0.8 1.7
v 1.8 0.8 1.7
v -2 0.8 1.6
v -1.9 0.8 1.6
v 1.7 0.8 1.6
v 1.8 0.8 1.6
v -0.5 0.8 1.5
v -0.4 0.8 1.5
v 1.6 0.8 1.5
v 1.7 0.8 1.5
v 1.6 0.8 1.4
v 1.7 0.8 1.4
v -0.6 0.8 1.3
v -0.5 0.8 1.3
v 1 0.8 1.3
v 1.1 0.8 1.3
v -1.4 0.8 1.1
v -1.3 0.8 1.1
v 1.6 0.8 1.1
v 1.7 0.8 1.1
v 1.8 0.8 1.1
v 1.9 0.8 1.1
v 1 0.8 1
v 1.1 0.8 1
v 1.7 0.8 1
v 1.8 0.8 1
v 0.9 0.8 0.9
v 1 0.8 0.9
v 1.7 0.8 0.9
v 1.8 0.8 0.9
v 1.9 0.8 0.9
v -0.6 0.8 0.8
v -0.5 0.8 0.8
v 0.8 0.8 0.8
v 0.9 0.8 0.8
v 0.7 0.8 0.7
v 0.8 0.8 0.7
v 1.8 0.8 0.7
v 2 0.8 0.7
v 1.5 0.8 0.6
v 1.7 0.8 0.6
v 1.9 0.8 0.6
v 2 0.8 0.6
v -0.5 0.8 0.5
v -0.4 0.8 0.5
v 0.6 0.8 0.5
v 0.7 0.8 0.5
v 1.5 0.8 0.5
v 1.6 0.8 0.5
v 1.8 0.8 0.5
v 1.9 0.8 0.5
v -1.4 0.8 0.4
v -1.3 0.8 0.4
v 1.5 0.8 0.4
v 1.6 0.8 0.4
v -1.5 0.8 0.3
v -1.4 0.8 0.3
v -0.4 0.8 0.3
v 0.6 0.8 0.3
v 1.7 0.8 0.3
v 1.8 0.8 0.3
v -1.3 0.8 0.2
v -1.2 0.8 0.2
v 1.5 0.8 0.2
v 1.6 0.8 0.2
v -1.5 0.8 0.0999999
v -1.4 0.8 0.0999999
v -1.2 0.8 0.0999999
v -1.1 0.8 0.0999999
v 1.5 0.8 -2.38419e-07
v 1.6 0.8 -2.38419e-07
v -1.7 0.8 -0.1
v -1.5 0.8 -0.1
v -1.1 0.8 -0.1
v -1 0.8 -0.1
v 1.5 0.8 -0.1
v 1.6 0.8 -0.1
v -1.8 0.8 -0.2
v -1.7 0.8 -0.2
v -1 0.8 -0.2
v -0.9 0.8 -0.2
v 1.4 0.8 -0.2
v 1.6 0.8 -0.2
v 1.7 0.8 -0.2
v -2 0.8 -0.3
v -1.8 0.8 -0.3
v -1.3 0.8 -0.3
v -0.9 0.8 -0.3
v 1.2 0.8 -0.3
v 1.4 0.8 -0.3
v 1.6 0.8 -0.3
v -1.6 0.8 -0.4
v -1.3 0.8 -0.4
v 1.1 0.8 -0.4
v 1.2 0.8 -0.4
v 1.4 0.8 -0.4
v -1.7 0.8 -0.5
v -1.6 0.8 -0.5
v 0.5 0.8 -0.5
v 0.6 0.8 -0.5
v 0.7 0.8 -0.5
v 0.8 0.8 -0.5
v 0.9 0.8 -0.5
v 1.1 0.8 -0.5
v -1.8 0.8 -0.6
v -1.7 0.8 -0.6
v 0.3 0.8 -0.6
v 0.5 0.8 -0.6
v 0.6 0.8 -0.6
v 0.7 0.8 -0.6
v 0.8 0.8 -0.6
v 0.9 0.8 -0.6
v 1 0.8 -0.6
v 1.2 0.8 -0.6
v 0.2 0.8 -0.7
v 0.3 0.8 -0.7
v 0.6 0.8 -0.7
v 1 0.8 -0.7
v 0.4 0.8 -0.8
v 0.6 0.8 -0.8
v 0.1 0.8 -0.9
v 0.2 0.8 -0.9
v 0.3 0.8 -0.9
v 0.4 0.8 -0.9
v -1.9 0.8 -1
v -1.8 0.8 -1
v 0.2 0.8 -1.1
v 0.3 0.8 -1.1
v 2.38419e-07 0.8 -1.2
v 0.1 0.8 -1.2
v 0.1 0.8 -1.3
v 0.2 0.8 -1.3
v -0.0999999 0.8 -1.4
v 2.38419e-07 0.8 -1.4
v -0.2 0.8 -1.5
v -0.0999999 0.8 -1.5
v -0.3 0.8 -1.6
v -0.2 0.8 -1.6
v -0.0999999 0.8 -1.6
v 0.1 0.8 -1.6
v -0.5 0.8 -1.7
v -0.3 0.8 -1.7
v -0.2 0.8 -1.7
v -0.0999999 0.8 -1.7
v -1.9 0.8 -1.8
v -1.7 0.8 -1.8
v -0.7 0.8 -1.8
v -0.5 0.8 -1.8
v -0.4 0.8 -1.8
v -0.2 0.8 -1.8
v -1.7 0.8 -1.9
v -0.7 0.8 -1.9
v -0.6 0.8 -1.9
v -0.4 0.8 -1.9
v -2 0.8 -2
v -0.6 0.8 -2
v -1.8 0.9 1.9
v -1.6 0.9 1.9
v 1.8 0.9 1.9
v 2 0.9 1.9
v -1.9 0.9 1.8
v -1.8 0.9 1.8
v -1.6 0.9 1.8
v -1.5 0.9 1.8
v 1.7 0.9 1.7
v 1.8 0.9 1.7
v -2 0.9 1.6
v -1.9 0.9 1.6
v 1.7 0.9 1.6
v 1.8 0.9 1.6
v -2 0.9 1.5
v -1.9 0.9 1.5
v -1.9 0.9 1.4
v -1.8 0.9 1.4
v -1.8 0.9 1.3
v -1.6 0.9 1.3
v 1.8 0.9 1.1
v 1.9 0.9 1.1
v 1.8 0.9 0.9
v 1.9 0.9 0.9
v -1.7 0.9 0.7
v -1.6 0.9 0.7
v 1.8 0.9 0.7
v 2 0.9 0.7
v 1.9 0.9 0.6
v 2 0.9 0.6
v 1.8 0.9 0.5
v 1.9 0.9 0.5
v -1.8 0.9 0.3
v -1.7 0.9 0.3
v -1.5 0.9 0.3
v -1.4 0.9 0.3
v 1.7 0.9 0.3
v 1.8 0.9 0.3
v -1.9 0.9 0.2
v -1.8 0.9 0.2
v -2 0.9 0.0999999
v -1.9 0.9 0.0999999
v -1.5 0.9 0.0999999
v -1.4 0.9 0.0999999
v -1.7 0.9 -0.1
v -1.5 0.9 -0.1
v -1.8 0.9 -0.2
v -1.7 0.9 -0.2
v 1.6 0.9 -0.2
v 1.7 0.9 -0.2
v -2 0.9 -0.3
v -1.8 0.9 -0.3
v 1.4 0.9 -0.3
v 1.6 0.9 -0.3
v 1.2 0.9 -0.4
v 1.4 0.9 -0.4
v 1.5 0.9 -0.5
v 1.9 0.9 -0.5
v 1 0.9 -0.6
v 1.2 0.9 -0.6
v 1.4 0.9 -0.6
v 1.5 0.9 -0.6
v 0.6 0.9 -0.7
v 1 0.9 -0.7
v 1.2 0.9 -0.7
v 1.4 0.9 -0.7
v 1.9 0.9 -0.7
v 2 0.9 -0.7
v 0.4 0.9 -0.8
v 0.6 0.9 -0.8
v 1.1 0.9 -0.8
v 1.2 0.9 -0.8
v 0.3 0.9 -0.9
v 0.4 0.9 -0.9
v 1 0.9 -0.9
v 1.1 0.9 -0.9
v 0.7 0.9 -1
v 1 0.9 -1
v 0.2 0.9 -1.1
v 0.3 0.9 -1.1
v 0.6 0.9 -1.1
v 0.7 0.9 -1.1
v 0.5 0.9 -1.2
v 0.6 0.9 -1.2
v 0.1 0.9 -1.3
v 0.2 0.9 -1.3
v 0.4 0.9 -1.4
v 0.5 0.9 -1.4
v 0.3 0.9 -1.5
v 0.4 0.9 -1.5
v -0.0999999 0.9 -1.6
v 0.1 0.9 -1.6
v -0.2 0.9 -1.7
v -0.0999999 0.9 -1.7
v 0.2 0.9 -1.7
v 0.3 0.9 -1.7
v -0.4 0.9 -1.8
v -0.2 0.9 -1.8
v -0.6 0.9 -1.9
v -0.4 0.9 -1.9
v -0.6 0.9 -2
v 0.2 0.9 -2
v -2 1 1.5
v -1.9 1 1.5
v -1.9 1 1.4
v -1.8 1 1.4
v -1.8 1 1.3
v -1.6 1 1.3
v -2 1 1.2
v -1.7 1 1.2
v -1.8 1 0.8
v -1.7 1 0.8
v -1.7 1 0.7
v -1.6 1 0.7
v -2 1 0.5
v -1.8 1 0.5
v -1.8 1 0.3
v -1.7 1 0.3
v -1.9 1 0.2
v -1.8 1 0.2
v -2 1 0.0999999
v -1.9 1 0.0999999
v 1.5 1 -0.5
v 1.9 1 -0.5
v 1.4 1 -0.6
v 1.5 1 -0.6
v 1.2 1 -0.7
v 1.4 1 -0.7
v 1.9 1 -0.7
v 2 1 -0.7
v 1.1 1 -0.8
v 1.2 1 -0.8
v 2 1 -0.8
v 1 1 -0.9
v 1.1 1 -0.9
v 0.7 1 -1
v 1 1 -1
v 1.1 1 -1
v 1.2 1 -1
v 0.6 1 -1.1
v 0.7 1 -1.1
v 0.8 1 -1.1
v 1.1 1 -1.1
v 0.5 1 -1.2
v 0.6 1 -1.2
v 0.7 1 -1.3
v 0.8 1 -1.3
v 0.4 1 -1.4
v 0.5 1 -1.4
v 0.6 1 -1.4
v 0.7 1 -1.4
v 0.3 1 -1.5
v 0.4 1 -1.5
v 0.5 1 -1.5
v 0.6 1 -1.5
v 0.2 1 -1.7
v 0.3 1 -1.7
v 0.2 1 -2
v 0.5 1 -2
v -2 1.1 1.2
v -1.7 1.1 1.2
v -1.8 1.1 0.8
v -1.7 1.1 0.8
v -2 1.1 0.5
v -1.8 1.1 0.5
v 1.2 1.1 -0.8
v 2 1.1 -0.8
v 1.1 1.1 -1
v 1.2 1.1 -1
v 0.8 1.1 -1.1
v 1.1 1.1 -1.1
v 1.5 1.1 -1.1
v 1.9 1.1 -1.1
v 1 1.1 -1.2
v 1.5 1.1 -1.2
v 1.9 1.1 -1.2
v 2 1.1 -1.2
v 0.7 1.1 -1.3
v 0.8 1.1 -1.3
v 0.9 1.1 -1.3
v 1 1.1 -1.3
v 0.6 1.1 -1.4
v 0.7 1.1 -1.4
v 0.9 1.1 -1.4
v 0.5 1.1 -1.5
v 0.6 1.1 -1.5
v 0.7 1.1 -1.5
v 0.6 1.1 -1.7
v 0.7 1.1 -1.7
v 0.6 1.1 -1.8
v 0.7 1.1 -1.8
v 0.5 1.1 -2
v 0.6 1.1 -2
v 1.5 1.2 -1.1
v 1.9 1.2 -1.1
v 1 1.2 -1.2
v 1.5 1.2 -1.2
v 1.9 1.2 -1.2
v 2 1.2 -1.2
v 0.9 1.2 -1.3
v 1 1.2 -1.3
v 1.4 1.2 -1.3
v 1.5 1.2 -1.3
v 0.7 1.2 -1.4
v 0.9 1.2 -1.4
v 1.3 1.2 -1.4
v 1.4 1.2 -1.4
v 1.5 1.2 -1.4
v 2 1.2 -1.4
v 0.6 1.2 -1.5
v 0.7 1.2 -1.5
v 0.9 1.2 -1.5
v 1.3 1.2 -1.5
v 0.6 1.2 -1.7
v 0.7 1.2 -1.7
v 0.6 1.2 -1.8
v 0.7 1.2 -1.8
v 0.6 1.2 -2
v 0.9 1.2 -2
v 1.4 1.3 -1.3
v 1.5 1.3 -1.3
v 1.3 1.3 -1.4
v 1.4 1.3 -1.4
v 1.5 1.3 -1.4
v 2 1.3 -1.4
v 0.9 1.3 -1.5
v 1.3 1.3 -1.5
v 1.4 1.3 -1.5
v 2 1.3 -1.5
v 1.1 1.3 -1.6
v 1.4 1.3 -1.6
v 1 1.3 -1.8
v 1.1 1.3 -1.8
v 0.9 1.3 -2
v 1 1.3 -2
v 1.4 1.4 -1.5
v 2 1.4 -1.5
v 1.1 1.4 -1.6
v 1.4 1.4 -1.6
v 1.4 1.4 -1.7
v 2 1.4 -1.7
v 1 1.4 -1.8
v 1.1 1.4 -1.8
v 1.3 1.4 -1.8
v 1.4 1.4 -1.8
v 1 1.4 -2
v 1.3 1.4 -2
v 1.4 1.5 -1.7
v 2 1.5 -1.7
v 1.3 1.5 -1.8
v 1.4 1.5 -1.8
v 1.3 1.5 -2
v 2 1.5 -2

# faces
f 3/8/1 2/8/1 1/8/1
f 4/8/1 2/8/1 3/8/1
f 5/1/1 4/1/1 3/1/1
f 6/1/1 4/1/1 5/1/1
f 7/6/1 6/6/1 5/6/1
f 8/6/1 6/6/1 7/6/1
f 9/6/1 6/6/1 8/6/1
f 10/6/1 6/6/1 9/6/1
f 11/4/1 8/4/1 7/4/1
f 12/7/1 9/7/1 8/7/1
f 12/4/1 8/4/1 11/4/1
f 13/4/1 10/4/1 9/4/1
f 13/7/1 9/7/1 12/7/1
f 14/4/1 10/4/1 13/4/1
f 15/3/1 12/3/1 11/3/1
f 15/3/1 13/3/1 12/3/1
f 15/3/1 14/3/1 13/3/1
f 16/3/1 14/3/1 15/3/1
f 17/3/1 14/3/1 16/3/1
f 18/3/1 14/3/1 17/3/1
f 19/3/1 17/3/1 16/3/1
f 20/3/1 17/3/1 19/3/1
f 21/3/1 17/3/1 20/3/1
f 22/3/1 17/3/1 21/3/1
f 23/4/1 21/4/1 20/4/1
f 24/4/1 21/4/1 23/4/1
f 25/4/1 21/4/1 24/4/1
f 26/4/1 21/4/1 25/4/1
f 27/5/1 25/5/1 24/5/1
f 28/5/1 25/5/1 27/5/1
f 31/3/1 30/3/1 29/3/1
f 32/3/1 30/3/1 31/3/1
f 35/3/1 34/3/1 33/3/1
f 36/3/1 34/3/1 35/3/1
f 41/9/1 38/9/1 37/9/1
f 42/9/1 38/9/1 41/9/1
f 43/7/1 40/7/1 39/7/1
f 44/7/1 40/7/1 43/7/1
f 51/9/1 46/9/1 45/9/1
f 52/9/1 46/9/1 51/9/1
f 53/9/1 48/9/1 47/9/1
f 54/9/1 48/9/1 53/9/1
f 55/4/1 50/4/1 49/4/1
f 56/4/1 50/4/1 55/4/1
f 58/3/1 57/3/1 56/3/1
f 59/3/1 57/3/1 58/3/1
f 66/9/1 61/9/1 60/9/1
f 67/9/1 61/9/1 66/9/1
f 70/9/1 63/9/1 62/9/1
f 71/9/1 63/9/1 70/9/1
f 72/4/1 65/4/1 64/4/1
f 73/4/1 65/4/1 72/4/1
f 74/10/1 69/10/1 68/10/1
f 75/10/1 69/10/1 74/10/1
f 78/4/1 77/4/1 76/4/1
f 79/4/1 77/4/1 78/4/1
f 84/9/1 81/9/1 80/9/1
f 85/9/1 81/9/1 84/9/1
f 90/9/1 83/9/1 82/9/1
f 91/9/1 83/9/1 90/9/1
f 94/10/1 87/10/1 86/10/1
f 95/10/1 87/10/1 94/10/1
f 96/10/1 89/10/1 88/10/1
f 97/10/1 89/10/1 96/10/1
f 98/3/1 93/3/1 92/3/1
f 99/3/1 93/3/1 98/3/1
f 104/9/1 101/9/1 100/9/1
f 105/9/1 101/9/1 104/9/1
f 110/4/1 103/4/1 102/4/1
f 111/4/1 103/4/1 110/4/1
f 112/10/1 107/10/1 106/10/1
f 113/10/1 107/10/1 112/10/1
f 114/10/1 109/10/1 108/10/1
f 115/10/1 109/10/1 114/10/1
f 118/4/1 117/4/1 116/4/1
f 119/4/1 117/4/1 118/4/1
f 126/9/1 121/9/1 120/9/1
f 127/9/1 121/9/1 126/9/1
f 128/4/1 123/4/1 122/4/1
f 129/4/1 123/4/1 128/4/1
f 132/10/1 125/10/1 124/10/1
f 133/10/1 125/10/1 132/10/1
f 134/3/1 131/3/1 130/3/1
f 135/3/1 131/3/1 134/3/1
f 138/4/1 137/4/1 136/4/1
f 139/4/1 137/4/1 138/4/1
f 142/3/1 141/3/1 140/3/1
f 143/3/1 141/3/1 142/3/1
f 146/4/1 145/4/1 144/4/1
f 147/4/1 145/4/1 146/4/1
f 154/9/1 149/9/1 148/9/1
f 155/9/1 149/9/1 154/9/1
f 156/4/1 151/4/1 150/4/1
f 157/4/1 151/4/1 156/4/1
f 160/10/1 153/10/1 152/10/1
f 161/10/1 153/10/1 160/10/1
f 162/3/1 159/3/1 158/3/1
f 163/3/1 159/3/1 162/3/1
f 166/4/1 165/4/1 164/4/1
f 167/4/1 165/4/1 166/4/1
f 170/4/1 169/4/1 168/4/1
f 171/4/1 169/4/1 170/4/1
f 174/3/1 173/3/1 172/3/1
f 175/3/1 173/3/1 174/3/1
f 178/4/1 177/4/1 176/4/1
f 179/4/1 177/4/1 178/4/1
f 182/3/1 181/3/1 180/3/1
f 183/3/1 181/3/1 182/3/1
f 186/4/1 185/4/1 184/4/1
f 187/4/1 185/4/1 186/4/1
f 190/4/1 189/4/1 188/4/1
f 191/4/1 189/4/1 190/4/1
f 194/3/1 193/3/1 192/3/1
f 195/3/1 193/3/1 194/3/1
f 198/4/1 197/4/1 196/4/1
f 199/4/1 197/4/1 198/4/1
f 202/3/1 201/3/1 200/3/1
f 203/3/1 201/3/1 202/3/1
f 206/3/1 205/3/1 204/3/1
f 207/3/1 205/3/1 206/3/1
f 210/4/1 209/4/1 208/4/1
f 211/4/1 209/4/1 210/4/1
f 214/3/1 213/3/1 212/3/1
f 215/3/1 213/3/1 214/3/1
f 218/4/1 217/4/1 216/4/1
f 219/4/1 217/4/1 218/4/1
f 222/3/1 221/3/1 220/3/1
f 223/3/1 221/3/1 222/3/1
f 226/3/1 225/3/1 224/3/1
f 227/3/1 225/3/1 226/3/1
f 230/3/1 229/3/1 228/3/1
f 231/3/1 229/3/1 230/3/1
f 234/4/1 233/4/1 232/4/1
f 235/4/1 233/4/1 234/4/1
f 238/4/1 237/4/1 236/4/1
f 239/4/1 237/4/1 238/4/1
f 242/3/1 241/3/1 240/3/1
f 243/3/1 241/3/1 242/3/1
f 246/4/1 245/4/1 244/4/1
f 247/4/1 245/4/1 246/4/1
f 251/4/1 248/4/1 247/4/1
f 252/4/1 248/4/1 251/4/1
f 253/4/1 250/4/1 249/4/1
f 254/4/1 250/4/1 253/4/1
f 257/3/1 256/3/1 255/3/1
f 258/3/1 256/3/1 257/3/1
f 261/3/1 260/3/1 259/3/1
f 262/3/1 260/3/1 261/3/1
f 265/4/1 264/4/1 263/4/1
f 266/4/1 264/4/1 265/4/1
f 270/4/1 267/4/1 266/4/1
f 271/4/1 267/4/1 270/4/1
f 272/4/1 269/4/1 268/4/1
f 273/4/1 269/4/1 272/4/1
f 276/4/1 275/4/1 274/4/1
f 277/4/1 275/4/1 276/4/1
f 280/3/1 279/3/1 278/3/1
f 281/3/1 279/3/1 280/3/1
f 284/4/1 283/4/1 282/4/1
f 285/4/1 283/4/1 284/4/1
f 288/5/1 287/5/1 286/5/1
f 289/5/1 287/5/1 288/5/1
f 292/4/1 291/4/1 290/4/1
f 293/4/1 291/4/1 292/4/1
f 296/4/1 295/4/1 294/4/1
f 297/4/1 295/4/1 296/4/1
f 300/3/1 299/3/1 298/3/1
f 301/3/1 299/3/1 300/3/1
f 304/4/1 303/4/1 302/4/1
f 305/4/1 303/4/1 304/4/1
f 308/5/1 307/5/1 306/5/1
f 309/5/1 307/5/1 308/5/1
f 312/4/1 311/4/1 310/4/1
f 313/4/1 311/4/1 312/4/1
f 316/3/1 315/3/1 314/3/1
f 317/3/1 315/3/1 316/3/1
f 320/3/1 319/3/1 318/3/1
f 321/3/1 319/3/1 320/3/1
f 324/4/1 323/4/1 322/4/1
f 325/4/1 323/4/1 324/4/1
f 328/5/1 327/5/1 326/5/1
f 329/5/1 327/5/1 328/5/1
f 332/3/1 331/3/1 330/3/1
f 333/3/1 331/3/1 332/3/1
f 335/4/1 334/4/1 333/4/1
f 336/4/1 334/4/1 335/4/1
f 339/3/1 338/3/1 337/3/1
f 340/3/1 338/3/1 339/3/1
f 342/4/1 341/4/1 340/4/1
f 343/4/1 341/4/1 342/4/1
f 348/4/1 345/4/1 344/4/1
f 349/4/1 345/4/1 348/4/1
f 350/4/1 347/4/1 346/4/1
f 351/4/1 347/4/1 350/4/1
f 354/5/1 353/5/1 352/5/1
f 355/5/1 353/5/1 354/5/1
f 358/5/1 357/5/1 356/5/1
f 359/5/1 357/5/1 358/5/1
f 364/4/1 361/4/1 360/4/1
f 365/4/1 361/4/1 364/4/1
f 366/4/1 363/4/1 362/4/1
f 367/4/1 363/4/1 366/4/1
f 370/3/1 369/3/1 368/3/1
f 371/3/1 369/3/1 370/3/1
f 373/4/1 372/4/1 371/4/1
f 374/4/1 372/4/1 373/4/1
f 377/3/1 376/3/1 375/3/1
f 378/3/1 376/3/1 377/3/1
f 381/5/1 380/5/1 379/5/1
f 382/5/1 380/5/1 381/5/1
f 385/5/1 384/5/1 383/5/1
f 386/5/1 384/5/1 385/5/1
f 389/5/1 388/5/1 387/5/1
f 390/5/1 388/5/1 389/5/1
f 395/4/1 392/4/1 391/4/1
f 396/4/1 392/4/1 395/4/1
f 403/3/1 394/3/1 393/3/1
f 404/3/1 394/3/1 403/3/1
f 405/3/1 398/3/1 397/3/1
f 406/3/1 398/3/1 405/3/1
f 407/3/1 400/3/1 399/3/1
f 408/3/1 400/3/1 407/3/1
f 409/3/1 402/3/1 401/3/1
f 410/3/1 402/3/1 409/3/1
f 413/3/1 412/3/1 411/3/1
f 414/3/1 412/3/1 413/3/1
f 417/4/1 416/4/1 415/4/1
f 418/4/1 416/4/1 417/4/1
f 425/4/1 420/4/1 419/4/1
f 426/4/1 420/4/1 425/4/1
f 433/3/1 422/3/1 421/3/1
f 434/3/1 422/3/1 433/3/1
f 435/3/1 424/3/1 423/3/1
f 436/3/1 424/3/1 435/3/1
f 437/3/1 428/3/1 427/3/1
f 438/3/1 428/3/1 437/3/1
f 439/3/1 430/3/1 429/3/1
f 440/3/1 430/3/1 439/3/1
f 441/3/1 432/3/1 431/3/1
f 442/3/1 432/3/1 441/3/1
f 444/4/1 443/4/1 442/4/1
f 445/4/1 443/4/1 444/4/1
f 454/3/1 447/3/1 446/3/1
f 455/3/1 447/3/1 454/3/1
f 457/3/1 449/3/1 448/3/1
f 458/3/1 449/3/1 457/3/1
f 459/3/1 451/3/1 450/3/1
f 460/3/1 451/3/1 459/3/1
f 461/3/1 453/3/1 452/3/1
f 462/3/1 453/3/1 461/3/1
f 465/5/1 456/5/1 455/5/1
f 466/5/1 456/5/1 465/5/1
f 467/4/1 464/4/1 463/4/1
f 468/4/1 464/4/1 467/4/1
f 475/3/1 470/3/1 469/3/1
f 476/3/1 470/3/1 475/3/1
f 480/5/1 472/5/1 471/5/1
f 481/5/1 472/5/1 480/5/1
f 482/5/1 474/5/1 473/5/1
f 483/5/1 474/5/1 482/5/1
f 484/5/1 477/5/1 476/5/1
f 485/5/1 477/5/1 484/5/1
f 486/4/1 479/4/1 478/4/1
f 487/4/1 479/4/1 486/4/1
f 492/5/1 489/5/1 488/5/1
f 493/5/1 489/5/1 492/5/1
f 494/4/1 491/4/1 490/4/1
f 495/4/1 491/4/1 494/4/1
f 496/7/2 497/7/2 499/7/2
f 499/7/2 497/7/2 500/7/2
f 498/3/2 499/3/2 501/3/2
f 499/3/2 500/3/2 501/3/2
f 501/3/2 500/3/2 502/3/2
f 503/4/2 504/4/2 507/4/2
f 507/4/2 504/4/2 508/4/2
f 505/4/2 506/4/2 509/4/2
f 509/4/2 506/4/2 510/4/2
f 511/7/2 512/7/2 514/7/2
f 514/7/2 512/7/2 515/7/2
f 513/3/2 514/3/2 518/3/2
f 518/3/2 514/3/2 519/3/2
f 516/3/2 517/3/2 524/3/2
f 524/3/2 517/3/2 525/3/2
f 520/4/2 521/4/2 526/4/2
f 526/4/2 521/4/2 527/4/2
f 522/4/2 523/4/2 530/4/2
f 530/4/2 523/4/2 531/4/2
f 528/5/2 529/5/2 532/5/2
f 532/5/2 529/5/2 533/5/2
f 534/4/2 535/4/2 538/4/2
f 538/4/2 535/4/2 539/4/2
f 536/3/2 537/3/2 544/3/2
f 544/3/2 537/3/2 545/3/2
f 540/3/2 541/3/2 546/3/2
f 546/3/2 541/3/2 547/3/2
f 542/3/2 543/3/2 550/3/2
f 550/3/2 543/3/2 551/3/2
f 548/4/2 549/4/2 554/4/2
f 554/4/2 549/4/2 555/4/2
f 552/5/2 553/5/2 556/5/2
f 556/5/2 553/5/2 557/5/2
f 558/4/2 559/4/2 564/4/2
f 564/4/2 559/4/2 565/4/2
f 560/7/2 561/7/2 566/7/2
f 566/7/2 561/7/2 567/7/2
f 562/3/2 563/3/2 570/3/2
f 570/3/2 563/3/2 571/3/2
f 568/3/2 569/3/2 572/3/2
f 572/3/2 569/3/2 573/3/2
f 574/4/2 575/4/2 576/4/2
f 576/4/2 575/4/2 577/4/2
f 578/4/2 579/4/2 580/4/2
f 580/4/2 579/4/2 581/4/2
f 582/3/2 583/3/2 586/3/2
f 586/3/2 583/3/2 587/3/2
f 584/3/2 585/3/2 588/3/2
f 588/3/2 585/3/2 589/3/2
f 590/3/2 591/3/2 594/3/2
f 594/3/2 591/3/2 595/3/2
f 592/3/2 593/3/2 596/3/2
f 596/3/2 593/3/2 597/3/2
f 598/3/2 599/3/2 600/3/2
f 600/3/2 599/3/2 601/3/2
f 602/4/2 603/4/2 606/4/2
f 606/4/2 603/4/2 607/4/2
f 604/3/2 605/3/2 611/3/2
f 611/3/2 605/3/2 612/3/2
f 607/3/2 608/3/2 613/3/2
f 613/3/2 608/3/2 614/3/2
f 609/3/2 610/3/2 615/3/2
f 615/3/2 610/3/2 616/3/2
f 617/4/2 618/4/2 621/4/2
f 621/4/2 618/4/2 622/4/2
f 619/4/2 620/4/2 623/4/2
f 623/4/2 620/4/2 624/4/2
f 625/3/2 626/3/2 627/3/2
f 627/3/2 626/3/2 628/3/2
f 629/4/2 630/4/2 635/4/2
f 635/4/2 630/4/2 636/4/2
f 631/4/2 632/4/2 637/4/2
f 637/4/2 632/4/2 638/4/2
f 633/4/2 634/4/2 641/4/2
f 641/4/2 634/4/2 642/4/2
f 639/3/2 640/3/2 643/3/2
f 643/3/2 640/3/2 644/3/2
f 645/4/2 646/4/2 649/4/2
f 649/4/2 646/4/2 650/4/2
f 647/4/2 648/4/2 651/4/2
f 651/4/2 648/4/2 652/4/2
f 653/3/2 654/3/2 655/3/2
f 655/3/2 654/3/2 656/3/2
f 657/4/2 658/4/2 661/4/2
f 661/4/2 658/4/2 662/4/2
f 659/4/2 660/4/2 664/4/2
f 664/4/2 660/4/2 665/4/2
f 663/3/2 664/3/2 666/3/2
f 666/3/2 664/3/2 667/3/2
f 668/4/2 669/4/2 670/4/2
f 670/4/2 669/4/2 671/4/2
f 672/9/2 673/9/2 674/9/2
f 674/9/2 673/9/2 675/9/2
f 676/10/2 677/10/2 680/10/2
f 680/10/2 677/10/2 681/10/2
f 678/3/2 679/3/2 682/3/2
f 682/3/2 679/3/2 683/3/2
f 684/9/2 685/9/2 690/9/2
f 690/9/2 685/9/2 691/9/2
f 686/10/2 687/10/2 692/10/2
f 692/10/2 687/10/2 693/10/2
f 688/10/2 689/10/2 694/10/2
f 694/10/2 689/10/2 695/10/2
f 696/9/2 697/9/2 702/9/2
f 702/9/2 697/9/2 703/9/2
f 698/10/2 699/10/2 706/10/2
f 706/10/2 699/10/2 707/10/2
f 700/10/2 701/10/2 708/10/2
f 708/10/2 701/10/2 709/10/2
f 704/3/2 705/3/2 710/3/2
f 710/3/2 705/3/2 711/3/2
f 712/9/2 713/9/2 716/9/2
f 716/9/2 713/9/2 717/9/2
f 714/9/2 715/9/2 721/9/2
f 721/9/2 715/9/2 722/9/2
f 717/10/2 718/10/2 723/10/2
f 723/10/2 718/10/2 724/10/2
f 719/10/2 720/10/2 725/10/2
f 725/10/2 720/10/2 726/10/2
f 727/9/2 728/9/2 733/9/2
f 733/9/2 728/9/2 734/9/2
f 729/10/2 730/10/2 735/10/2
f 735/10/2 730/10/2 736/10/2
f 731/10/2 732/10/2 737/10/2
f 737/10/2 732/10/2 738/10/2
f 739/9/2 740/9/2 743/9/2
f 743/9/2 740/9/2 744/9/2
f 741/9/2 742/9/2 746/9/2
f 746/9/2 742/9/2 747/9/2
f 745/10/2 746/10/2 748/10/2
f 748/10/2 746/10/2 749/10/2
f 750/9/2 751/9/2 752/9/2
f 752/9/2 751/9/2 753/9/2
f 754/5/2 755/5/2 756/5/2
f 756/5/2 755/5/2 757/5/2
f 758/3/2 759/3/2 760/3/2
f 760/3/2 759/3/2 761/3/2
f 762/4/2 763/4/2 764/4/2
f 764/4/2 763/4/2 765/4/2
f 766/8/2 767/8/2 768/8/2
f 768/8/2 767/8/2 769/8/2
f 768/1/2 769/1/2 770/1/2
f 770/1/2 769/1/2 771/1/2
f 770/6/2 771/6/2 772/6/2
f 772/6/2 771/6/2 773/6/2
f 772/4/2 773/4/2 774/4/2
f 774/4/2 773/4/2 775/4/2
f 774/3/2 775/3/2 776/3/2
f 776/3/2 775/3/2 777/3/2
f 777/3/2 775/3/2 778/3/2
f 775/4/2 773/4/2 779/4/2
f 778/3/2 775/3/2 779/3/2
f 777/5/2 778/5/2 780/5/2
f 780/5/2 778/5/2 781/5/2
f 779/4/2 773/4/2 782/4/2
f 782/4/2 773/4/2 783/4/2
f 783/4/2 773/4/2 784/4/2
f 783/3/2 784/3/2 785/3/2
f 785/3/2 784/3/2 786/3/2
f 786/3/2 784/3/2 787/3/2
f 786/4/2 787/4/2 788/4/2
f 788/4/2 787/4/2 789/4/2
f 789/4/2 787/4/2 790/4/2
f 790/4/2 787/4/2 791/4/2
f 791/4/2 787/4/2 792/4/2
f 791/5/2 792/5/2 793/5/2
f 793/5/2 792/5/2 794/5/2
f 794/5/2 792/5/2 795/5/2
f 795/5/2 792/5/2 796/5/2
f 796/5/2 792/5/2 797/5/2
f 797/5/2 792/5/2 798/5/2
f 805/4/3 803/4/3 802/4/3
f 805/3/3 804/3/3 803/3/3
f 806/3/3 804/3/3 805/3/3
f 807/1/3 801/1/3 800/1/3
f 807/6/3 802/6/3 801/6/3
f 808/4/3 805/4/3 802/4/3
f 808/6/3 802/6/3 807/6/3
f 809/4/3 805/4/3 808/4/3
f 810/1/3 807/1/3 800/1/3
f 810/2/3 808/2/3 807/2/3
f 811/2/3 808/2/3 810/2/3
f 813/9/3 812/9/3 811/9/3
f 815/9/3 813/9/3 811/9/3
f 815/10/3 814/10/3 813/10/3
f 816/10/3 814/10/3 815/10/3
f 817/5/3 811/5/3 810/5/3
f 817/1/3 810/1/3 800/1/3
f 818/9/3 815/9/3 811/9/3
f 818/5/3 811/5/3 817/5/3
f 819/9/3 815/9/3 818/9/3
f 820/1/3 817/1/3 800/1/3
f 820/2/3 818/2/3 817/2/3
f 821/2/3 818/2/3 820/2/3
f 823/4/3 822/4/3 821/4/3
f 825/8/3 800/8/3 799/8/3
f 826/1/3 820/1/3 800/1/3
f 826/8/3 800/8/3 825/8/3
f 827/6/3 821/6/3 820/6/3
f 827/1/3 820/1/3 826/1/3
f 828/4/3 823/4/3 821/4/3
f 828/6/3 821/6/3 827/6/3
f 829/3/3 824/3/3 823/3/3
f 829/4/3 823/4/3 828/4/3
f 830/3/3 824/3/3 829/3/3
f 833/3/3 832/3/3 831/3/3
f 834/3/3 832/3/3 833/3/3
f 837/3/3 836/3/3 835/3/3
f 838/3/3 836/3/3 837/3/3
f 841/9/3 840/9/3 839/9/3
f 842/9/3 840/9/3 841/9/3
f 845/10/3 844/10/3 843/10/3
f 846/10/3 844/10/3 845/10/3
f 849/10/3 848/10/3 847/10/3
f 850/10/3 848/10/3 849/10/3
f 853/5/3 852/5/3 851/5/3
f 854/5/3 852/5/3 853/5/3
f 857/3/3 856/3/3 855/3/3
f 858/3/3 856/3/3 857/3/3
f 861/3/3 860/3/3 859/3/3
f 862/3/3 860/3/3 861/3/3
f 865/9/3 864/9/3 863/9/3
f 866/9/3 864/9/3 865/9/3
f 870/10/3 868/10/3 867/10/3
f 871/10/3 868/10/3 870/10/3
f 872/9/3 870/9/3 869/9/3
f 873/9/3 870/9/3 872/9/3
f 876/10/3 875/10/3 874/10/3
f 877/10/3 875/10/3 876/10/3
f 880/10/3 879/10/3 878/10/3
f 881/10/3 879/10/3 880/10/3
f 884/3/3 883/3/3 882/3/3
f 885/3/3 883/3/3 884/3/3
f 887/5/3 886/5/3 885/5/3
f 888/5/3 886/5/3 887/5/3
f 891/3/3 890/3/3 889/3/3
f 892/3/3 890/3/3 891/3/3
f 895/9/3 894/9/3 893/9/3
f 896/9/3 894/9/3 895/9/3
f 899/9/3 898/9/3 897/9/3
f 900/9/3 898/9/3 899/9/3
f 903/4/3 902/4/3 901/4/3
f 904/4/3 902/4/3 903/4/3
f 907/10/3 906/10/3 905/10/3
f 908/10/3 906/10/3 907/10/3
f 911/4/3 910/4/3 909/4/3
f 912/4/3 910/4/3 911/4/3
f 915/3/3 914/3/3 913/3/3
f 916/3/3 914/3/3 915/3/3
f 919/4/3 918/4/3 917/4/3
f 920/4/3 918/4/3 919/4/3
f 923/9/3 922/9/3 921/9/3
f 924/9/3 922/9/3 923/9/3
f 927/10/3 926/10/3 925/10/3
f 928/10/3 926/10/3 927/10/3
f 931/10/3 930/10/3 929/10/3
f 932/10/3 930/10/3 931/10/3
f 935/5/3 934/5/3 933/5/3
f 936/5/3 934/5/3 935/5/3
f 939/3/3 938/3/3 937/3/3
f 940/3/3 938/3/3 939/3/3
f 942/5/3 941/5/3 940/5/3
f 943/5/3 941/5/3 942/5/3
f 946/4/3 945/4/3 944/4/3
f 947/4/3 945/4/3 946/4/3
f 950/3/3 949/3/3 948/3/3
f 951/3/3 949/3/3 950/3/3
f 954/4/3 953/4/3 952/4/3
f 955/4/3 953/4/3 954/4/3
f 958/4/3 957/4/3 956/4/3
f 959/4/3 957/4/3 958/4/3
f 963/3/3 961/3/3 960/3/3
f 964/3/3 961/3/3 963/3/3
f 965/4/3 963/4/3 962/4/3
f 966/4/3 963/4/3 965/4/3
f 969/3/3 968/3/3 967/3/3
f 970/3/3 968/3/3 969/3/3
f 973/3/3 972/3/3 971/3/3
f 974/3/3 972/3/3 973/3/3
f 977/4/3 976/4/3 975/4/3
f 978/4/3 976/4/3 977/4/3
f 981/4/3 980/4/3 979/4/3
f 982/4/3 980/4/3 981/4/3
f 985/3/3 984/3/3 983/3/3
f 986/3/3 984/3/3 985/3/3
f 989/4/3 988/4/3 987/4/3
f 990/4/3 988/4/3 989/4/3
f 993/3/3 992/3/3 991/3/3
f 994/3/3 992/3/3 993/3/3
f 997/4/3 996/4/3 995/4/3
f 998/4/3 996/4/3 997/4/3
f 1001/4/3 1000/4/3 999/4/3
f 1002/4/3 1000/4/3 1001/4/3
f 1005/3/3 1004/3/3 1003/3/3
f 1006/3/3 1004/3/3 1005/3/3
f 1009/3/3 1008/3/3 1007/3/3
f 1010/3/3 1008/3/3 1009/3/3
f 1013/4/3 1012/4/3 1011/4/3
f 1014/4/3 1012/4/3 1013/4/3
f 1017/4/3 1016/4/3 1015/4/3
f 1018/4/3 1016/4/3 1017/4/3
f 1021/3/3 1020/3/3 1019/3/3
f 1022/3/3 1020/3/3 1021/3/3
f 1025/3/3 1024/3/3 1023/3/3
f 1026/3/3 1024/3/3 1025/3/3
f 1028/4/3 1027/4/3 1026/4/3
f 1029/4/3 1027/4/3 1028/4/3
f 1032/4/3 1031/4/3 1030/4/3
f 1033/4/3 1031/4/3 1032/4/3
f 1036/3/3 1035/3/3 1034/3/3
f 1037/3/3 1035/3/3 1036/3/3
f 1039/4/3 1038/4/3 1037/4/3
f 1040/4/3 1038/4/3 1039/4/3
f 1043/4/3 1042/4/3 1041/4/3
f 1044/4/3 1042/4/3 1043/4/3
f 1047/3/3 1046/3/3 1045/3/3
f 1048/3/3 1046/3/3 1047/3/3
f 1050/4/3 1049/4/3 1048/4/3
f 1051/4/3 1049/4/3 1050/4/3
f 1054/4/3 1053/4/3 1052/4/3
f 1055/4/3 1053/4/3 1054/4/3
f 1058/3/3 1057/3/3 1056/3/3
f 1059/3/3 1057/3/3 1058/3/3
f 1062/3/3 1061/3/3 1060/3/3
f 1063/3/3 1061/3/3 1062/3/3
f 1066/3/3 1065/3/3 1064/3/3
f 1067/3/3 1065/3/3 1066/3/3
f 1070/3/3 1069/3/3 1068/3/3
f 1071/3/3 1069/3/3 1070/3/3
f 1074/3/3 1073/3/3 1072/3/3
f 1075/3/3 1073/3/3 1074/3/3
f 1078/3/3 1077/3/3 1076/3/3
f 1079/3/3 1077/3/3 1078/3/3
f 1082/3/3 1081/3/3 1080/3/3
f 1083/3/3 1081/3/3 1082/3/3
f 1086/4/3 1085/4/3 1084/4/3
f 1087/4/3 1085/4/3 1086/4/3
f 1090/3/3 1089/3/3 1088/3/3
f 1091/3/3 1089/3/3 1090/3/3
f 1094/3/3 1093/3/3 1092/3/3
f 1095/3/3 1093/3/3 1094/3/3
f 1098/4/3 1097/4/3 1096/4/3
f 1099/4/3 1097/4/3 1098/4/3
f 1102/3/3 1101/3/3 1100/3/3
f 1103/3/3 1101/3/3 1102/3/3
f 1106/3/3 1105/3/3 1104/3/3
f 1107/3/3 1105/3/3 1106/3/3
f 1110/4/3 1109/4/3 1108/4/3
f 1111/4/3 1109/4/3 1110/4/3
f 1114/4/3 1113/4/3 1112/4/3
f 1115/4/3 1113/4/3 1114/4/3
f 1118/3/3 1117/3/3 1116/3/3
f 1119/3/3 1117/3/3 1118/3/3
f 1121/4/3 1120/4/3 1119/4/3
f 1122/4/3 1120/4/3 1121/4/3
f 1125/3/3 1124/3/3 1123/3/3
f 1126/3/3 1124/3/3 1125/3/3
f 1129/4/3 1128/4/3 1127/4/3
f 1130/4/3 1128/4/3 1129/4/3
f 1133/3/3 1132/3/3 1131/3/3
f 1134/3/3 1132/3/3 1133/3/3
f 1137/3/3 1136/3/3 1135/3/3
f 1138/3/3 1136/3/3 1137/3/3
f 1141/4/3 1140/4/3 1139/4/3
f 1142/4/3 1140/4/3 1141/4/3
f 1145/4/3 1144/4/3 1143/4/3
f 1146/4/3 1144/4/3 1145/4/3
f 1149/4/3 1148/4/3 1147/4/3
f 1150/4/3 1148/4/3 1149/4/3
f 1153/3/3 1152/3/3 1151/3/3
f 1154/3/3 1152/3/3 1153/3/3
f 1157/4/3 1156/4/3 1155/4/3
f 1158/4/3 1156/4/3 1157/4/3
f 1161/4/3 1160/4/3 1159/4/3
f 1162/4/3 1160/4/3 1161/4/3
f 1165/4/3 1164/4/3 1163/4/3
f 1166/4/3 1164/4/3 1165/4/3
f 1169/3/3 1168/3/3 1167/3/3
f 1170/3/3 1168/3/3 1169/3/3
f 1173/3/3 1172/3/3 1171/3/3
f 1174/3/3 1172/3/3 1173/3/3
f 1177/4/3 1176/4/3 1175/4/3
f 1178/4/3 1176/4/3 1177/4/3
f 1181/4/3 1180/4/3 1179/4/3
f 1182/4/3 1180/4/3 1181/4/3
f 1185/4/3 1184/4/3 1183/4/3
f 1186/4/3 1184/4/3 1185/4/3
f 1189/4/3 1188/4/3 1187/4/3
f 1190/4/3 1188/4/3 1189/4/3
f 1193/4/3 1192/4/3 1191/4/3
f 1194/4/3 1192/4/3 1193/4/3
f 1197/5/3 1196/5/3 1195/5/3
f 1198/5/3 1196/5/3 1197/5/3
f 1201/4/3 1200/4/3 1199/4/3
f 1202/4/3 1200/4/3 1201/4/3
f 1205/3/3 1204/3/3 1203/3/3
f 1206/3/3 1204/3/3 1205/3/3
f 1209/3/3 1208/3/3 1207/3/3
f 1210/3/3 1208/3/3 1209/3/3
f 1213/4/3 1212/4/3 1211/4/3
f 1214/4/3 1212/4/3 1213/4/3
f 1216/4/3 1215/4/3 1214/4/3
f 1217/4/3 1215/4/3 1216/4/3
f 1220/5/3 1219/5/3 1218/5/3
f 1221/5/3 1219/5/3 1220/5/3
f 1224/5/3 1223/5/3 1222/5/3
f 1225/5/3 1223/5/3 1224/5/3
f 1228/4/3 1227/4/3 1226/4/3
f 1229/4/3 1227/4/3 1228/4/3
f 1232/3/3 1231/3/3 1230/3/3
f 1233/3/3 1231/3/3 1232/3/3
f 1236/3/3 1235/3/3 1234/3/3
f 1237/3/3 1235/3/3 1236/3/3
f 1240/4/3 1239/4/3 1238/4/3
f 1241/4/3 1239/4/3 1240/4/3
f 1243/4/3 1242/4/3 1241/4/3
f 1244/4/3 1242/4/3 1243/4/3
f 1247/5/3 1246/5/3 1245/5/3
f 1248/5/3 1246/5/3 1247/5/3
f 1251/5/3 1250/5/3 1249/5/3
f 1252/5/3 1250/5/3 1251/5/3
f 1255/4/3 1254/4/3 1253/4/3
f 1256/4/3 1254/4/3 1255/4/3
f 1259/3/3 1258/3/3 1257/3/3
f 1260/3/3 1258/3/3 1259/3/3
f 1263/4/3 1262/4/3 1261/4/3
f 1264/4/3 1262/4/3 1263/4/3
f 1267/5/3 1266/5/3 1265/5/3
f 1268/5/3 1266/5/3 1267/5/3
f 1271/4/3 1270/4/3 1269/4/3
f 1272/4/3 1270/4/3 1271/4/3
f 1275/3/3 1274/3/3 1273/3/3
f 1276/3/3 1274/3/3 1275/3/3
f 1279/4/3 1278/4/3 1277/4/3
f 1280/4/3 1278/4/3 1279/4/3
f 1283/3/3 1282/3/3 1281/3/3
f 1284/3/3 1282/3/3 1283/3/3
f 1287/5/3 1286/5/3 1285/5/3
f 1288/5/3 1286/5/3 1287/5/3
f 1292/7/3 1290/7/3 1289/7/3
f 1292/3/3 1291/3/3 1290/3/3
f 1293/3/3 1291/3/3 1292/3/3
f 1294/7/3 1292/7/3 1289/7/3
f 1295/7/3 1292/7/3 1294/7/3
f 1298/7/3 1297/7/3 1296/7/3
f 1299/7/3 1297/7/3 1298/7/3
f 1301/3/3 1300/3/3 1299/3/3
f 1302/3/3 1300/3/3 1301/3/3
f 1305/4/3 1304/4/3 1303/4/3
f 1306/4/3 1304/4/3 1305/4/3
f 1309/4/3 1308/4/3 1307/4/3
f 1310/4/3 1308/4/3 1309/4/3
f 1313/5/3 1312/5/3 1311/5/3
f 1314/5/3 1312/5/3 1313/5/3
f 1317/5/3 1316/5/3 1315/5/3
f 1318/5/3 1316/5/3 1317/5/3
f 1322/3/3 1320/3/3 1319/3/3
f 1323/7/3 1322/7/3 1321/7/3
f 1324/3/3 1320/3/3 1322/3/3
f 1324/7/3 1322/7/3 1323/7/3
f 1325/3/3 1320/3/3 1324/3/3
f 1326/3/3 1320/3/3 1325/3/3
f 1329/4/3 1328/4/3 1327/4/3
f 1330/4/3 1328/4/3 1329/4/3
f 1331/4/4 1332/4/4 1333/4/4
f 1333/4/4 1332/4/4 1334/4/4
f 1335/4/4 1336/4/4 1337/4/4
f 1337/4/4 1336/4/4 1338/4/4
f 1339/4/4 1340/4/4 1341/4/4
f 1341/4/4 1340/4/4 1342/4/4
f 1343/3/4 1344/3/4 1345/3/4
f 1345/3/4 1344/3/4 1346/3/4
f 1347/4/4 1348/4/4 1349/4/4
f 1349/4/4 1348/4/4 1350/4/4
f 1351/5/4 1352/5/4 1353/5/4
f 1353/5/4 1352/5/4 1354/5/4
f 1355/3/4 1356/3/4 1357/3/4
f 1357/3/4 1356/3/4 1358/3/4
f 1359/3/4 1360/3/4 1361/3/4
f 1361/3/4 1360/3/4 1362/3/4
f 1363/3/4 1364/3/4 1365/3/4
f 1365/3/4 1364/3/4 1366/3/4
f 1367/5/4 1368/5/4 1369/5/4
f 1369/5/4 1368/5/4 1370/5/4
f 1371/10/4 1372/10/4 1374/10/4
f 1374/10/4 1372/10/4 1375/10/4
f 1373/9/4 1374/9/4 1376/9/4
f 1376/9/4 1374/9/4 1377/9/4
f 1378/4/4 1379/4/4 1380/4/4
f 1380/4/4 1379/4/4 1381/4/4
f 1382/3/4 1383/3/4 1384/3/4
f 1384/3/4 1383/3/4 1385/3/4
f 1386/4/4 1387/4/4 1388/4/4
f 1388/4/4 1387/4/4 1389/4/4
f 1390/9/4 1391/9/4 1392/9/4
f 1392/9/4 1391/9/4 1393/9/4
f 1394/10/4 1395/10/4 1396/10/4
f 1396/10/4 1395/10/4 1397/10/4
f 1398/5/4 1399/5/4 1400/5/4
f 1400/5/4 1399/5/4 1401/5/4
f 1402/10/4 1403/10/4 1404/10/4
f 1404/10/4 1403/10/4 1405/10/4
f 1406/10/4 1407/10/4 1408/10/4
f 1408/10/4 1407/10/4 1409/10/4
f 1410/9/4 1411/9/4 1412/9/4
f 1412/9/4 1411/9/4 1413/9/4
f 1414/4/4 1415/4/4 1416/4/4
f 1416/4/4 1415/4/4 1417/4/4
f 1418/9/4 1419/9/4 1420/9/4
f 1420/9/4 1419/9/4 1421/9/4
f 1422/10/4 1423/10/4 1424/10/4
f 1424/10/4 1423/10/4 1425/10/4
f 1426/9/4 1427/9/4 1428/9/4
f 1428/9/4 1427/9/4 1429/9/4
f 1430/5/4 1431/5/4 1432/5/4
f 1432/5/4 1431/5/4 1433/5/4
f 1434/5/4 1435/5/4 1436/5/4
f 1436/5/4 1435/5/4 1437/5/4
f 1438/10/4 1439/10/4 1440/10/4
f 1440/10/4 1439/10/4 1441/10/4
f 1442/10/4 1443/10/4 1444/10/4
f 1444/10/4 1443/10/4 1445/10/4
f 1446/9/4 1447/9/4 1448/9/4
f 1448/9/4 1447/9/4 1449/9/4
f 1450/3/4 1451/3/4 1452/3/4
f 1452/3/4 1451/3/4 1453/3/4
f 1454/9/4 1455/9/4 1456/9/4
f 1456/9/4 1455/9/4 1457/9/4
f 1458/9/4 1459/9/4 1460/9/4
f 1460/9/4 1459/9/4 1461/9/4
f 1462/4/4 1463/4/4 1464/4/4
f 1464/4/4 1463/4/4 1465/4/4
f 1466/10/4 1467/10/4 1468/10/4
f 1468/10/4 1467/10/4 1469/10/4
f 1470/4/4 1471/4/4 1472/4/4
f 1472/4/4 1471/4/4 1473/4/4
f 1474/9/4 1475/9/4 1476/9/4
f 1476/9/4 1475/9/4 1477/9/4
f 1478/3/4 1479/3/4 1480/3/4
f 1480/3/4 1479/3/4 1481/3/4
f 1482/4/4 1483/4/4 1484/4/4
f 1484/4/4 1483/4/4 1485/4/4
f 1486/3/4 1487/3/4 1488/3/4
f 1488/3/4 1487/3/4 1489/3/4
f 1490/9/4 1491/9/4 1492/9/4
f 1492/9/4 1491/9/4 1493/9/4
f 1494/9/4 1495/9/4 1496/9/4
f 1496/9/4 1495/9/4 1497/9/4
f 1498/9/4 1499/9/4 1500/9/4
f 1500/9/4 1499/9/4 1501/9/4
f 1502/3/4 1503/3/4 1504/3/4
f 1504/3/4 1503/3/4 1505/3/4
f 1506/3/4 1507/3/4 1508/3/4
f 1508/3/4 1507/3/4 1509/3/4
f 1510/3/4 1511/3/4 1512/3/4
f 1512/3/4 1511/3/4 1513/3/4
f 1514/3/4 1515/3/4 1516/3/4
f 1516/3/4 1515/3/4 1517/3/4
f 1518/3/4 1519/3/4 1521/3/4
f 1521/3/4 1519/3/4 1522/3/4
f 1520/4/4 1521/4/4 1523/4/4
f 1523/4/4 1521/4/4 1524/4/4
f 1525/3/4 1526/3/4 1527/3/4
f 1527/3/4 1526/3/4 1528/3/4
f 1529/4/4 1530/4/4 1531/4/4
f 1531/4/4 1530/4/4 1532/4/4
f 1533/3/4 1534/3/4 1535/3/4
f 1535/3/4 1534/3/4 1536/3/4
f 1537/4/4 1538/4/4 1539/4/4
f 1539/4/4 1538/4/4 1540/4/4
f 1541/3/4 1542/3/4 1543/3/4
f 1543/3/4 1542/3/4 1544/3/4
f 1545/4/4 1546/4/4 1547/4/4
f 1547/4/4 1546/4/4 1548/4/4
f 1549/4/4 1550/4/4 1551/4/4
f 1551/4/4 1550/4/4 1552/4/4
f 1553/3/4 1554/3/4 1556/3/4
f 1556/3/4 1554/3/4 1557/3/4
f 1555/4/4 1556/4/4 1558/4/4
f 1558/4/4 1556/4/4 1559/4/4
f 1560/7/4 1561/7/4 1562/7/4
f 1562/7/4 1561/7/4 1563/7/4
f 1564/4/4 1565/4/4 1566/4/4
f 1566/4/4 1565/4/4 1567/4/4
f 1570/6/4 1571/6/4 1574/6/4
f 1571/4/4 1572/4/4 1574/4/4
f 1572/3/4 1573/3/4 1575/3/4
f 1574/4/4 1572/4/4 1575/4/4
f 1570/6/4 1574/6/4 1576/6/4
f 1574/7/4 1575/7/4 1576/7/4
f 1575/3/4 1573/3/4 1577/3/4
f 1576/7/4 1575/7/4 1577/7/4
f 1576/4/4 1577/4/4 1578/4/4
f 1577/3/4 1573/3/4 1578/3/4
f 1578/3/4 1573/3/4 1579/3/4
f 1578/4/4 1579/4/4 1581/4/4
f 1579/4/4 1580/4/4 1581/4/4
f 1581/3/4 1582/3/4 1583/3/4
f 1583/4/4 1584/4/4 1585/4/4
f 1585/4/4 1586/4/4 1587/4/4
f 1587/5/4 1588/5/4 1589/5/4
f 1589/5/4 1590/5/4 1591/5/4
f 1568/8/4 1569/8/4 1593/8/4
f 1569/1/4 1570/1/4 1594/1/4
f 1593/8/4 1569/8/4 1594/8/4
f 1570/6/4 1576/6/4 1595/6/4
f 1594/1/4 1570/1/4 1595/1/4
f 1576/4/4 1578/4/4 1596/4/4
f 1595/6/4 1576/6/4 1596/6/4
f 1578/4/4 1581/4/4 1596/4/4
f 1581/3/4 1583/3/4 1597/3/4
f 1596/4/4 1581/4/4 1597/4/4
f 1583/4/4 1585/4/4 1598/4/4
f 1597/3/4 1583/3/4 1598/3/4
f 1585/4/4 1587/4/4 1598/4/4
f 1591/5/4 1592/5/4 1599/5/4
f 1598/4/4 1587/4/4 1599/4/4
f 1589/5/4 1591/5/4 1599/5/4
f 1587/5/4 1589/5/4 1599/5/4
f 1599/5/4 1592/5/4 1600/5/4
f 1603/8/5 1602/8/5 1601/8/5
f 1604/8/5 1602/8/5 1603/8/5
f 1605/2/6 1606/2/6 1610/2/6
f 1610/2/6 1606/2/6 1611/2/6
f 1611/2/6 1606/2/6 1612/2/6
f 1607/2/6 1608/2/6 1613/2/6
f 1609/2/6 1610/2/6 1616/2/6
f 1610/2/6 1611/2/6 1616/2/6
f 1616/2/6 1611/2/6 1617/2/6
f 1617/2/6 1611/2/6 1618/2/6
f 1613/2/6 1614/2/6 1619/2/6
f 1607/2/6 1613/2/6 1619/2/6
f 1619/2/6 1614/2/6 1620/2/6
f 1620/2/6 1614/2/6 1621/2/6
f 1616/2/6 1617/2/6 1623/2/6
f 1615/2/6 1616/2/6 1623/2/6
f 1623/2/6 1617/2/6 1624/2/6
f 1621/2/6 1622/2/6 1625/2/6
f 1620/2/6 1621/2/6 1625/2/6
f 1625/2/6 1622/2/6 1626/2/6
f 1615/2/6 1623/2/6 1627/2/6
f 1627/2/6 1623/2/6 1628/2/6
f 1626/2/6 1622/2/6 1630/2/6
f 1630/2/6 1622/2/6 1631/2/6
f 1615/2/6 1627/2/6 1634/2/6
f 1634/2/6 1627/2/6 1635/2/6
f 1631/2/6 1632/2/6 1638/2/6
f 1629/2/6 1630/2/6 1638/2/6
f 1630/2/6 1631/2/6 1638/2/6
f 1635/2/6 1636/2/6 1639/2/6
f 1634/2/6 1635/2/6 1639/2/6
f 1633/2/6 1634/2/6 1639/2/6
f 1637/2/6 1638/2/6 1642/2/6
f 1638/2/6 1632/2/6 1643/2/6
f 1642/2/6 1638/2/6 1643/2/6
f 1643/2/6 1632/2/6 1644/2/6
f 1641/2/6 1642/2/6 1646/2/6
f 1642/2/6 1643/2/6 1646/2/6
f 1639/2/6 1640/2/6 1647/2/6
f 1633/2/6 1639/2/6 1647/2/6
f 1647/2/6 1640/2/6 1648/2/6
f 1648/2/6 1640/2/6 1649/2/6
f 1645/2/6 1646/2/6 1652/2/6
f 1649/2/6 1650/2/6 1653/2/6
f 1648/2/6 1649/2/6 1653/2/6
f 1653/2/6 1650/2/6 1654/2/6
f 1654/2/6 1650/2/6 1655/2/6
f 1655/2/6 1650/2/6 1656/2/6
f 1656/2/6 1650/2/6 1657/2/6
f 1657/2/6 1658/2/6 1659/2/6
f 1656/2/6 1657/2/6 1659/2/6
f 1659/2/6 1658/2/6 1660/2/6
f 1660/2/6 1658/2/6 1661/2/6
f 1651/2/6 1652/2/6 1664/2/6
f 1661/2/6 1662/2/6 1665/2/6
f 1660/2/6 1661/2/6 1665/2/6
f 1663/2/6 1664/2/6 1666/2/6
f 1646/2/6 1643/2/6 1667/2/6
f 1652/2/6 1646/2/6 1667/2/6
f 1666/2/6 1664/2/6 1667/2/6
f 1664/2/6 1652/2/6 1667/2/6
f 1667/2/6 1643/2/6 1668/2/6
f 1660/2/6 1665/2/6 1669/2/6
f 1665/2/6 1666/2/6 1669/2/6
f 1666/2/6 1667/2/6 1669/2/6
f 1669/2/6 1667/2/6 1670/2/6
f 1670/2/6 1667/2/6 1671/2/6
f 1671/2/6 1667/2/6 1672/2/6
f 1670/2/6 1671/2/6 1674/2/6
f 1674/2/6 1671/2/6 1675/2/6
f 1675/2/6 1671/2/6 1676/2/6
f 1673/2/6 1674/2/6 1678/2/6
f 1674/2/6 1675/2/6 1678/2/6
f 1678/2/6 1675/2/6 1679/2/6
f 1679/2/6 1675/2/6 1680/2/6
f 1677/2/6 1678/2/6 1682/2/6
f 1678/2/6 1679/2/6 1682/2/6
f 1682/2/6 1679/2/6 1683/2/6
f 1683/2/6 1679/2/6 1684/2/6
f 1681/2/6 1682/2/6 1686/2/6
f 1682/2/6 1683/2/6 1686/2/6
f 1685/2/6 1686/2/6 1688/2/6
f 1686/2/6 1683/2/6 1689/2/6
f 1688/2/6 1686/2/6 1689/2/6
f 1689/2/6 1683/2/6 1690/2/6
f 1687/2/6 1688/2/6 1692/2/6
f 1688/2/6 1689/2/6 1692/2/6
f 1691/2/6 1692/2/6 1694/2/6
f 1692/2/6 1689/2/6 1695/2/6
f 1694/2/6 1692/2/6 1695/2/6
f 1695/2/6 1689/2/6 1696/2/6
f 1693/2/6 1694/2/6 1697/2/6
f 1694/2/6 1695/2/6 1697/2/6
f 1697/2/6 1695/2/6 1698/2/6
f 1693/2/6 1697/2/6 1699/2/6
f 1699/2/6 1697/2/6 1700/2/6
f 1693/2/6 1699/2/6 1701/2/6
f 1701/2/6 1699/2/6 1702/2/6
f 1693/2/6 1701/2/6 1703/2/6
f 1703/2/6 1701/2/6 1704/2/6
f 1693/2/6 1703/2/6 1705/2/6
f 1705/2/6 1703/2/6 1706/2/6
f 1693/2/6 1705/2/6 1707/2/6
f 1707/2/6 1705/2/6 1708/2/6
f 1708/2/6 1705/2/6 1709/2/6
f 1709/2/6 1705/2/6 1710/2/6
f 1708/2/6 1709/2/6 1711/2/6
f 1711/2/6 1709/2/6 1712/2/6
f 1713/4/6 1714/4/6 1721/4/6
f 1721/4/6 1714/4/6 1722/4/6
f 1722/4/6 1714/4/6 1723/4/6
f 1723/4/6 1714/4/6 1724/4/6
f 1715/9/6 1716/9/6 1726/9/6
f 1726/9/6 1716/9/6 1727/9/6
f 1727/9/6 1716/9/6 1728/9/6
f 1717/9/6 1718/9/6 1729/9/6
f 1729/9/6 1718/9/6 1730/9/6
f 1719/4/6 1720/4/6 1731/4/6
f 1731/4/6 1720/4/6 1732/4/6
f 1722/4/6 1723/4/6 1733/4/6
f 1733/4/6 1723/4/6 1734/4/6
f 1726/9/6 1727/9/6 1736/9/6
f 1725/9/6 1726/9/6 1736/9/6
f 1730/9/6 1718/9/6 1737/9/6
f 1737/9/6 1718/9/6 1738/9/6
f 1732/4/6 1720/4/6 1740/4/6
f 1735/9/6 1736/9/6 1742/9/6
f 1736/9/6 1727/9/6 1742/9/6
f 1742/9/6 1727/9/6 1743/9/6
f 1738/9/6 1739/9/6 1744/9/6
f 1744/9/6 1739/9/6 1745/9/6
f 1740/4/6 1741/4/6 1746/4/6
f 1732/4/6 1740/4/6 1746/4/6
f 1746/4/6 1741/4/6 1747/4/6
f 1747/4/6 1741/4/6 1748/4/6
f 1748/4/6 1741/4/6 1749/4/6
f 1735/9/6 1742/9/6 1751/9/6
f 1745/9/6 1739/9/6 1752/9/6
f 1750/9/6 1751/9/6 1754/9/6
f 1751/9/6 1742/9/6 1754/9/6
f 1754/9/6 1742/9/6 1755/9/6
f 1747/4/6 1748/4/6 1756/4/6
f 1756/4/6 1757/4/6 1758/4/6
f 1747/4/6 1756/4/6 1758/4/6
f 1758/4/6 1757/4/6 1759/4/6
f 1750/9/6 1754/9/6 1761/9/6
f 1761/9/6 1754/9/6 1762/9/6
f 1762/9/6 1754/9/6 1763/9/6
f 1752/9/6 1753/9/6 1764/9/6
f 1745/9/6 1752/9/6 1764/9/6
f 1764/9/6 1753/9/6 1765/9/6
f 1722/4/6 1733/4/6 1767/4/6
f 1747/4/6 1758/4/6 1768/4/6
f 1765/9/6 1753/9/6 1771/9/6
f 1771/9/6 1753/9/6 1772/9/6
f 1768/4/6 1769/4/6 1773/4/6
f 1747/4/6 1768/4/6 1773/4/6
f 1773/4/6 1769/4/6 1774/4/6
f 1774/4/6 1769/4/6 1775/4/6
f 1766/4/6 1767/4/6 1777/4/6
f 1767/4/6 1733/4/6 1777/4/6
f 1777/4/6 1733/4/6 1778/4/6
f 1761/9/6 1762/9/6 1779/9/6
f 1760/9/6 1761/9/6 1779/9/6
f 1779/9/6 1762/9/6 1780/9/6
f 1770/9/6 1771/9/6 1782/9/6
f 1775/4/6 1776/4/6 1783/4/6
f 1774/4/6 1775/4/6 1783/4/6
f 1783/4/6 1776/4/6 1784/4/6
f 1780/9/6 1762/9/6 1785/9/6
f 1781/9/6 1782/9/6 1788/9/6
f 1782/9/6 1771/9/6 1789/9/6
f 1788/9/6 1782/9/6 1789/9/6
f 1789/9/6 1771/9/6 1790/9/6
f 1785/9/6 1786/9/6 1791/9/6
f 1780/9/6 1785/9/6 1791/9/6
f 1791/9/6 1786/9/6 1792/9/6
f 1787/9/6 1788/9/6 1794/9/6
f 1788/9/6 1789/9/6 1794/9/6
f 1794/9/6 1789/9/6 1795/9/6
f 1795/9/6 1789/9/6 1796/9/6
f 1774/4/6 1783/4/6 1798/4/6
f 1797/4/6 1798/4/6 1799/4/6
f 1798/4/6 1783/4/6 1800/4/6
f 1799/4/6 1798/4/6 1800/4/6
f 1792/9/6 1786/9/6 1801/9/6
f 1794/9/6 1795/9/6 1804/9/6
f 1793/9/6 1794/9/6 1804/9/6
f 1804/9/6 1795/9/6 1805/9/6
f 1805/9/6 1795/9/6 1806/9/6
f 1797/4/6 1799/4/6 1807/4/6
f 1766/4/6 1777/4/6 1809/4/6
f 1809/4/6 1777/4/6 1810/4/6
f 1801/9/6 1802/9/6 1812/9/6
f 1792/9/6 1801/9/6 1812/9/6
f 1812/9/6 1802/9/6 1813/9/6
f 1803/9/6 1804/9/6 1814/9/6
f 1804/9/6 1805/9/6 1814/9/6
f 1814/9/6 1805/9/6 1815/9/6
f 1807/4/6 1808/4/6 1816/4/6
f 1797/4/6 1807/4/6 1816/4/6
f 1816/4/6 1808/4/6 1817/4/6
f 1810/4/6 1811/4/6 1818/4/6
f 1813/9/6 1802/9/6 1820/9/6
f 1803/9/6 1814/9/6 1821/9/6
f 1818/4/6 1819/4/6 1822/4/6
f 1810/4/6 1818/4/6 1822/4/6
f 1822/4/6 1819/4/6 1823/4/6
f 1823/4/6 1819/4/6 1824/4/6
f 1813/9/6 1820/9/6 1826/9/6
f 1820/9/6 1821/9/6 1826/9/6
f 1826/9/6 1821/9/6 1827/9/6
f 1797/4/6 1816/4/6 1828/4/6
f 1824/4/6 1825/4/6 1830/4/6
f 1823/4/6 1824/4/6 1830/4/6
f 1830/4/6 1825/4/6 1831/4/6
f 1831/4/6 1825/4/6 1832/4/6
f 1827/9/6 1821/9/6 1834/9/6
f 1834/9/6 1821/9/6 1835/9/6
f 1835/9/6 1821/9/6 1836/9/6
f 1821/9/6 1814/9/6 1837/9/6
f 1836/9/6 1821/9/6 1837/9/6
f 1835/9/6 1836/9/6 1838/9/6
f 1838/9/6 1836/9/6 1839/9/6
f 1828/4/6 1829/4/6 1841/4/6
f 1797/4/6 1828/4/6 1841/4/6
f 1841/4/6 1829/4/6 1842/4/6
f 1842/4/6 1829/4/6 1843/4/6
f 1832/4/6 1833/4/6 1844/4/6
f 1831/4/6 1832/4/6 1844/4/6
f 1844/4/6 1833/4/6 1845/4/6
f 1845/4/6 1833/4/6 1846/4/6
f 1841/4/6 1842/4/6 1849/4/6
f 1840/4/6 1841/4/6 1849/4/6
f 1849/4/6 1842/4/6 1850/4/6
f 1846/4/6 1847/4/6 1852/4/6
f 1845/4/6 1846/4/6 1852/4/6
f 1852/4/6 1847/4/6 1853/4/6
f 1850/4/6 1851/4/6 1854/4/6
f 1849/4/6 1850/4/6 1854/4/6
f 1848/4/6 1849/4/6 1854/4/6
f 1854/4/6 1851/4/6 1855/4/6
f 1853/4/6 1847/4/6 1857/4/6
f 1857/4/6 1847/4/6 1858/4/6
f 1848/4/6 1854/4/6 1860/4/6
f 1860/4/6 1854/4/6 1861/4/6
f 1861/4/6 1854/4/6 1862/4/6
f 1856/4/6 1857/4/6 1864/4/6
f 1864/4/6 1857/4/6 1865/4/6
f 1865/4/6 1857/4/6 1866/4/6
f 1860/4/6 1861/4/6 1868/4/6
f 1859/4/6 1860/4/6 1868/4/6
f 1868/4/6 1861/4/6 1869/4/6
f 1869/4/6 1861/4/6 1870/4/6
f 1864/4/6 1865/4/6 1872/4/6
f 1863/4/6 1864/4/6 1872/4/6
f 1872/4/6 1865/4/6 1873/4/6
f 1873/4/6 1865/4/6 1874/4/6
f 1868/4/6 1869/4/6 1876/4/6
f 1867/4/6 1868/4/6 1876/4/6
f 1876/4/6 1869/4/6 1877/4/6
f 1877/4/6 1869/4/6 1878/4/6
f 1878/4/6 1869/4/6 1879/4/6
f 1879/4/6 1869/4/6 1880/4/6
f 1880/4/6 1869/4/6 1881/4/6
f 1881/4/6 1869/4/6 1882/4/6
f 1872/4/6 1873/4/6 1884/4/6
f 1871/4/6 1872/4/6 1884/4/6
f 1884/4/6 1873/4/6 1885/4/6
f 1885/4/6 1873/4/6 1886/4/6
f 1875/4/6 1876/4/6 1887/4/6
f 1876/4/6 1877/4/6 1887/4/6
f 1887/4/6 1877/4/6 1888/4/6
f 1878/4/6 1879/4/6 1889/4/6
f 1889/4/6 1879/4/6 1890/4/6
f 1880/4/6 1881/4/6 1891/4/6
f 1891/4/6 1881/4/6 1892/4/6
f 1875/4/6 1887/4/6 1893/4/6
f 1893/4/6 1887/4/6 1894/4/6
f 1884/4/6 1885/4/6 1895/4/6
f 1883/4/6 1884/4/6 1895/4/6
f 1895/4/6 1885/4/6 1896/4/6
f 1875/4/6 1893/4/6 1898/4/6
f 1897/4/6 1898/4/6 1899/4/6
f 1898/4/6 1893/4/6 1899/4/6
f 1899/4/6 1893/4/6 1900/4/6
f 1883/4/6 1895/4/6 1902/4/6
f 1902/4/6 1895/4/6 1903/4/6
f 1901/7/6 1902/7/6 1904/7/6
f 1904/7/6 1902/7/6 1905/7/6
f 1897/4/6 1899/4/6 1907/4/6
f 1906/4/6 1907/4/6 1909/4/6
f 1907/4/6 1899/4/6 1910/4/6
f 1909/4/6 1907/4/6 1910/4/6
f 1910/4/6 1899/4/6 1911/4/6
f 1908/4/6 1909/4/6 1913/4/6
f 1909/4/6 1910/4/6 1913/4/6
f 1913/4/6 1910/4/6 1914/4/6
f 1914/4/6 1910/4/6 1915/4/6
f 1912/4/6 1913/4/6 1917/4/6
f 1913/4/6 1914/4/6 1917/4/6
f 1917/4/6 1914/4/6 1918/4/6
f 1918/4/6 1914/4/6 1919/4/6
f 1916/4/6 1917/4/6 1921/4/6
f 1917/4/6 1918/4/6 1921/4/6
f 1921/4/6 1918/4/6 1922/4/6
f 1922/4/6 1918/4/6 1923/4/6
f 1920/4/6 1921/4/6 1925/4/6
f 1921/4/6 1922/4/6 1925/4/6
f 1925/4/6 1922/4/6 1926/4/6
f 1926/4/6 1922/4/6 1927/4/6
f 1924/4/6 1925/4/6 1931/4/6
f 1925/4/6 1926/4/6 1931/4/6
f 1931/4/6 1926/4/6 1932/4/6
f 1928/7/6 1929/7/6 1933/7/6
f 1933/7/6 1929/7/6 1934/7/6
f 1930/7/6 1931/7/6 1935/7/6
f 1935/7/6 1931/7/6 1936/7/6
f 1937/3/6 1938/3/6 1943/3/6
f 1943/3/6 1938/3/6 1944/3/6
f 1944/3/6 1938/3/6 1945/3/6
f 1939/10/6 1940/10/6 1948/10/6
f 1948/10/6 1940/10/6 1949/10/6
f 1941/3/6 1942/3/6 1951/3/6
f 1951/3/6 1942/3/6 1952/3/6
f 1937/3/6 1943/3/6 1953/3/6
f 1953/3/6 1943/3/6 1954/3/6
f 1945/3/6 1946/3/6 1955/3/6
f 1944/3/6 1945/3/6 1955/3/6
f 1955/3/6 1946/3/6 1956/3/6
f 1949/10/6 1950/10/6 1957/10/6
f 1947/10/6 1948/10/6 1957/10/6
f 1948/10/6 1949/10/6 1957/10/6
f 1941/3/6 1951/3/6 1959/3/6
f 1959/3/6 1951/3/6 1960/3/6
f 1957/10/6 1958/10/6 1962/10/6
f 1947/10/6 1957/10/6 1962/10/6
f 1962/10/6 1958/10/6 1963/10/6
f 1960/3/6 1951/3/6 1966/3/6
f 1966/3/6 1951/3/6 1967/3/6
f 1937/3/6 1953/3/6 1968/3/6
f 1968/3/6 1953/3/6 1969/3/6
f 1965/3/6 1966/3/6 1970/3/6
f 1963/10/6 1964/10/6 1973/10/6
f 1961/10/6 1962/10/6 1973/10/6
f 1962/10/6 1963/10/6 1973/10/6
f 1965/3/6 1970/3/6 1974/3/6
f 1970/3/6 1971/3/6 1974/3/6
f 1974/3/6 1971/3/6 1975/3/6
f 1975/3/6 1971/3/6 1977/3/6
f 1972/10/6 1973/10/6 1979/10/6
f 1973/10/6 1964/10/6 1980/10/6
f 1979/10/6 1973/10/6 1980/10/6
f 1956/3/6 1946/3/6 1982/3/6
f 1982/3/6 1946/3/6 1983/3/6
f 1976/3/6 1977/3/6 1984/3/6
f 1977/3/6 1971/3/6 1985/3/6
f 1984/3/6 1977/3/6 1985/3/6
f 1985/3/6 1971/3/6 1986/3/6
f 1980/10/6 1981/10/6 1988/10/6
f 1978/10/6 1979/10/6 1988/10/6
f 1979/10/6 1980/10/6 1988/10/6
f 1988/10/6 1981/10/6 1989/10/6
f 1986/3/6 1987/3/6 1990/3/6
f 1985/3/6 1986/3/6 1990/3/6
f 1990/3/6 1987/3/6 1991/3/6
f 1978/10/6 1988/10/6 1992/10/6
f 1992/10/6 1988/10/6 1993/10/6
f 1991/3/6 1987/3/6 1995/3/6
f 1995/3/6 1987/3/6 1996/3/6
f 1978/10/6 1992/10/6 1997/10/6
f 1997/10/6 1992/10/6 1998/10/6
f 1998/10/6 1992/10/6 1999/10/6
f 1999/10/6 1992/10/6 2000/10/6
f 1998/10/6 1999/10/6 2001/10/6
f 2001/10/6 1999/10/6 2002/10/6
f 1994/3/6 1995/3/6 2003/3/6
f 1994/3/6 2003/3/6 2006/3/6
f 2003/3/6 2004/3/6 2006/3/6
f 2006/3/6 2004/3/6 2007/3/6
f 2007/3/6 2004/3/6 2008/3/6
f 1998/10/6 2001/10/6 2009/10/6
f 2009/10/6 2001/10/6 2010/10/6
f 2010/10/6 2001/10/6 2011/10/6
f 2011/10/6 2001/10/6 2012/10/6
f 2005/3/6 2006/3/6 2013/3/6
f 2006/3/6 2007/3/6 2013/3/6
f 2013/3/6 2007/3/6 2014/3/6
f 2014/3/6 2007/3/6 2015/3/6
f 2015/3/6 2007/3/6 2016/3/6
f 1956/3/6 1982/3/6 2017/3/6
f 2014/3/6 2015/3/6 2020/3/6
f 2017/3/6 2018/3/6 2021/3/6
f 1956/3/6 2017/3/6 2021/3/6
f 2021/3/6 2018/3/6 2022/3/6
f 2010/10/6 2011/10/6 2023/10/6
f 2023/10/6 2011/10/6 2024/10/6
f 2019/3/6 2020/3/6 2025/3/6
f 2020/3/6 2015/3/6 2025/3/6
f 2025/3/6 2015/3/6 2026/3/6
f 2022/3/6 2018/3/6 2027/3/6
f 2019/3/6 2025/3/6 2029/3/6
f 2029/3/6 2025/3/6 2030/3/6
f 2027/3/6 2028/3/6 2032/3/6
f 2022/3/6 2027/3/6 2032/3/6
f 2032/3/6 2028/3/6 2033/3/6
f 2030/3/6 2025/3/6 2036/3/6
f 2033/3/6 2034/3/6 2038/3/6
f 2031/3/6 2032/3/6 2038/3/6
f 2032/3/6 2033/3/6 2038/3/6
f 2038/3/6 2034/3/6 2039/3/6
f 2035/3/6 2036/3/6 2041/3/6
f 2036/3/6 2025/3/6 2042/3/6
f 2041/3/6 2036/3/6 2042/3/6
f 2039/3/6 2040/3/6 2044/3/6
f 2037/3/6 2038/3/6 2044/3/6
f 2038/3/6 2039/3/6 2044/3/6
f 2044/3/6 2040/3/6 2045/3/6
f 2042/3/6 2025/3/6 2048/3/6
f 2048/3/6 2025/3/6 2049/3/6
f 2045/3/6 2046/3/6 2051/3/6
f 2043/3/6 2044/3/6 2051/3/6
f 2044/3/6 2045/3/6 2051/3/6
f 2051/3/6 2046/3/6 2052/3/6
f 2052/3/6 2046/3/6 2053/3/6
f 2047/3/6 2048/3/6 2055/3/6
f 2055/3/6 2048/3/6 2056/3/6
f 2050/3/6 2051/3/6 2057/3/6
f 2051/3/6 2052/3/6 2057/3/6
f 2057/3/6 2052/3/6 2058/3/6
f 2054/3/6 2055/3/6 2060/3/6
f 2060/3/6 2055/3/6 2061/3/6
f 2050/3/6 2057/3/6 2062/3/6
f 2062/3/6 2057/3/6 2063/3/6
f 2059/3/6 2060/3/6 2069/3/6
f 2050/3/6 2062/3/6 2070/3/6
f 2070/3/6 2062/3/6 2071/3/6
f 2064/3/6 2065/3/6 2073/3/6
f 2073/3/6 2065/3/6 2074/3/6
f 2066/3/6 2067/3/6 2075/3/6
f 2075/3/6 2067/3/6 2076/3/6
f 2068/3/6 2069/3/6 2077/3/6
f 2077/3/6 2069/3/6 2078/3/6
f 2069/3/6 2060/3/6 2079/3/6
f 2078/3/6 2069/3/6 2079/3/6
f 2073/3/6 2074/3/6 2081/3/6
f 2076/3/6 2077/3/6 2081/3/6
f 2075/3/6 2076/3/6 2081/3/6
f 2074/3/6 2075/3/6 2081/3/6
f 2077/3/6 2078/3/6 2081/3/6
f 2072/3/6 2073/3/6 2081/3/6
f 2081/3/6 2078/3/6 2082/3/6
f 2082/3/6 2078/3/6 2083/3/6
f 2080/3/6 2081/3/6 2084/3/6
f 2081/3/6 2082/3/6 2084/3/6
f 2084/3/6 2082/3/6 2085/3/6
f 2080/3/6 2084/3/6 2087/3/6
f 2087/3/6 2084/3/6 2088/3/6
f 2088/3/6 2084/3/6 2089/3/6
f 2050/3/6 2070/3/6 2090/3/6
f 2090/3/6 2070/3/6 2091/3/6
f 2086/3/6 2087/3/6 2092/3/6
f 2087/3/6 2088/3/6 2092/3/6
f 2092/3/6 2088/3/6 2093/3/6
f 2086/3/6 2092/3/6 2095/3/6
f 2095/3/6 2092/3/6 2096/3/6
f 2094/3/6 2095/3/6 2096/3/6
f 2096/3/6 2092/3/6 2097/3/6
f 2094/3/6 2096/3/6 2099/3/6
f 2098/3/6 2099/3/6 2101/3/6
f 2100/3/6 2101/3/6 2103/3/6
f 2101/3/6 2099/3/6 2104/3/6
f 2103/3/6 2101/3/6 2104/3/6
f 2099/3/6 2096/3/6 2105/3/6
f 2104/3/6 2099/3/6 2105/3/6
f 2103/3/6 2104/3/6 2107/3/6
f 2102/3/6 2103/3/6 2107/3/6
f 2107/3/6 2104/3/6 2108/3/6
f 2108/3/6 2104/3/6 2109/3/6
f 2050/3/6 2090/3/6 2110/3/6
f 2106/3/6 2107/3/6 2113/3/6
f 2107/3/6 2108/3/6 2113/3/6
f 2113/3/6 2108/3/6 2114/3/6
f 2114/3/6 2108/3/6 2115/3/6
f 2110/3/6 2111/3/6 2116/3/6
f 2112/3/6 2113/3/6 2117/3/6
f 2113/3/6 2114/3/6 2117/3/6
f 2117/3/6 2114/3/6 2118/3/6
f 2118/3/6 2114/3/6 2119/3/6
f 2050/3/6 2110/3/6 2120/3/6
f 2110/3/6 2116/3/6 2120/3/6
f 2117/3/6 2118/3/6 2120/3/6
f 2116/3/6 2117/3/6 2120/3/6
f 2120/3/6 2118/3/6 2121/3/6
f 2122/3/6 2123/3/6 2127/3/6
f 2127/3/6 2123/3/6 2128/3/6
f 2124/5/6 2125/5/6 2131/5/6
f 2128/3/6 2129/3/6 2133/3/6
f 2126/3/6 2127/3/6 2133/3/6
f 2127/3/6 2128/3/6 2133/3/6
f 2130/5/6 2131/5/6 2134/5/6
f 2131/5/6 2125/5/6 2135/5/6
f 2134/5/6 2131/5/6 2135/5/6
f 2132/3/6 2133/3/6 2136/3/6
f 2133/3/6 2129/3/6 2137/3/6
f 2136/3/6 2133/3/6 2137/3/6
f 2137/3/6 2129/3/6 2138/3/6
f 2138/3/6 2129/3/6 2139/3/6
f 2139/3/6 2129/3/6 2140/3/6
f 2140/3/6 2129/3/6 2141/3/6
f 2135/5/6 2125/5/6 2142/5/6
f 2142/5/6 2125/5/6 2143/5/6
f 2143/5/6 2125/5/6 2145/5/6
f 2141/3/6 2129/3/6 2147/3/6
f 2144/5/6 2145/5/6 2148/5/6
f 2145/5/6 2125/5/6 2149/5/6
f 2148/5/6 2145/5/6 2149/5/6
f 2150/4/6 2151/4/6 2153/4/6
f 2146/3/6 2147/3/6 2155/3/6
f 2147/3/6 2129/3/6 2156/3/6
f 2155/3/6 2147/3/6 2156/3/6
f 2152/4/6 2153/4/6 2159/4/6
f 2156/3/6 2157/3/6 2161/3/6
f 2154/3/6 2155/3/6 2161/3/6
f 2155/3/6 2156/3/6 2161/3/6
f 2160/3/6 2161/3/6 2163/3/6
f 2161/3/6 2157/3/6 2164/3/6
f 2163/3/6 2161/3/6 2164/3/6
f 2164/3/6 2157/3/6 2165/3/6
f 2162/3/6 2163/3/6 2166/3/6
f 2163/3/6 2164/3/6 2166/3/6
f 2166/3/6 2164/3/6 2167/3/6
f 2162/3/6 2166/3/6 2168/3/6
f 2168/3/6 2166/3/6 2169/3/6
f 2158/4/6 2159/4/6 2171/4/6
f 2162/3/6 2168/3/6 2172/3/6
f 2172/3/6 2168/3/6 2173/3/6
f 2170/4/6 2171/4/6 2175/4/6
f 2174/4/6 2175/4/6 2177/4/6
f 2177/4/6 2175/4/6 2178/4/6
f 2176/4/6 2177/4/6 2178/4/6
f 2175/4/6 2171/4/6 2179/4/6
f 2178/4/6 2175/4/6 2179/4/6
f 2159/4/6 2153/4/6 2179/4/6
f 2153/4/6 2151/4/6 2179/4/6
f 2171/4/6 2159/4/6 2179/4/6
f 2176/4/6 2178/4/6 2181/4/6
f 2181/4/6 2178/4/6 2182/4/6
f 2182/4/6 2178/4/6 2183/4/6
f 2180/4/6 2181/4/6 2185/4/6
f 2181/4/6 2182/4/6 2185/4/6
f 2185/4/6 2182/4/6 2186/4/6
f 2186/4/6 2182/4/6 2187/4/6
f 2179/4/6 2151/4/6 2188/4/6
f 2188/4/6 2151/4/6 2189/4/6
f 2185/4/6 2186/4/6 2191/4/6
f 2184/4/6 2185/4/6 2191/4/6
f 2191/4/6 2186/4/6 2192/4/6
f 2192/4/6 2186/4/6 2193/4/6
f 2190/4/6 2191/4/6 2195/4/6
f 2191/4/6 2192/4/6 2195/4/6
f 2195/4/6 2192/4/6 2196/4/6
f 2196/4/6 2192/4/6 2197/4/6
f 2194/4/6 2195/4/6 2198/4/6
f 2195/4/6 2196/4/6 2198/4/6
f 2198/4/6 2196/4/6 2199/4/6
f 2194/4/6 2198/4/6 2201/4/6
f 2201/4/6 2198/4/6 2202/4/6
f 2202/4/6 2198/4/6 2203/4/6
f 2200/4/6 2201/4/6 2204/4/6
f 2201/4/6 2202/4/6 2204/4/6
f 2204/4/6 2202/4/6 2205/4/6
f 2200/4/6 2204/4/6 2207/4/6
f 2207/4/6 2204/4/6 2208/4/6
f 2206/4/6 2207/4/6 2208/4/6
f 2208/4/6 2204/4/6 2209/4/6
f 2206/4/6 2208/4/6 2210/4/6
f 2210/4/6 2208/4/6 2211/4/6
f 2206/4/6 2210/4/6 2213/4/6
f 2212/4/6 2213/4/6 2215/4/6
f 2213/4/6 2210/4/6 2216/4/6
f 2215/4/6 2213/4/6 2216/4/6
f 2216/4/6 2210/4/6 2217/4/6
f 2214/4/6 2215/4/6 2219/4/6
f 2215/4/6 2216/4/6 2219/4/6
f 2218/4/6 2219/4/6 2221/4/6
f 2220/4/6 2221/4/6 2222/4/6
f 2219/4/6 2216/4/6 2223/4/6
f 2222/4/6 2221/4/6 2223/4/6
f 2221/4/6 2219/4/6 2223/4/6
f 2224/4/6 2225/4/6 2226/4/6
f 2226/4/6 2227/4/6 2228/4/6
f 2224/4/6 2226/4/6 2230/4/6
f 2228/4/6 2229/4/6 2230/4/6
f 2226/4/6 2228/4/6 2230/4/6
f 2230/4/6 2229/4/6 2231/4/6
f 2231/4/6 2229/4/6 2233/4/6
f 2233/4/6 2229/4/6 2234/4/6
f 2232/4/6 2233/4/6 2234/4/6
f 2234/4/6 2229/4/6 2235/4/6
f 2232/4/6 2234/4/6 2237/4/6
f 2237/4/6 2234/4/6 2238/4/6
f 2236/4/6 2237/4/6 2238/4/6
f 2238/4/6 2234/4/6 2239/4/6
f 2236/4/6 2238/4/6 2240/4/6
f 2240/4/6 2238/4/6 2241/4/6
f 2236/4/6 2240/4/6 2242/4/6
f 2242/4/6 2240/4/6 2243/4/6
f 2244/3/6 2245/3/6 2247/3/6
f 2246/3/6 2247/3/6 2249/3/6
f 2247/3/6 2245/3/6 2250/3/6
f 2249/3/6 2247/3/6 2250/3/6
f 2248/3/6 2249/3/6 2253/3/6
f 2250/3/6 2251/3/6 2253/3/6
f 2249/3/6 2250/3/6 2253/3/6
f 2253/3/6 2251/3/6 2254/3/6
f 2252/3/6 2253/3/6 2256/3/6
f 2255/3/6 2256/3/6 2258/3/6
f 2256/3/6 2253/3/6 2259/3/6
f 2258/3/6 2256/3/6 2259/3/6
f 2259/3/6 2253/3/6 2260/3/6
f 2257/3/6 2258/3/6 2262/3/6
f 2258/3/6 2259/3/6 2262/3/6
f 2262/3/6 2259/3/6 2263/3/6
f 2263/3/6 2259/3/6 2264/3/6
f 2261/3/6 2262/3/6 2266/3/6
f 2262/3/6 2263/3/6 2266/3/6
f 2266/3/6 2263/3/6 2267/3/6
f 2265/3/6 2266/3/6 2267/3/6
f 2267/3/6 2263/3/6 2268/3/6
f 2265/3/6 2267/3/6 2270/3/6
f 2270/3/6 2267/3/6 2271/3/6
f 2271/3/6 2267/3/6 2272/3/6
f 2269/3/6 2270/3/6 2274/3/6
f 2270/3/6 2271/3/6 2274/3/6
f 2274/3/6 2271/3/6 2275/3/6
f 2275/3/6 2271/3/6 2276/3/6
f 2273/3/6 2274/3/6 2278/3/6
f 2274/3/6 2275/3/6 2278/3/6
f 2277/3/6 2278/3/6 2279/3/6
f 2278/3/6 2275/3/6 2280/3/6
f 2279/3/6 2278/3/6 2280/3/6
f 2281/5/6 2282/5/6 2283/5/6
f 2283/5/6 2282/5/6 2284/5/6
f 2281/5/6 2283/5/6 2285/5/6
f 2285/5/6 2283/5/6 2286/5/6
f 2287/4/6 2288/4/6 2290/4/6
f 2289/4/6 2290/4/6 2292/4/6
f 2290/4/6 2288/4/6 2293/4/6
f 2292/4/6 2290/4/6 2293/4/6
f 2293/4/6 2288/4/6 2294/4/6
f 2291/4/6 2292/4/6 2295/4/6
f 2292/4/6 2293/4/6 2295/4/6
f 2295/4/6 2293/4/6 2296/4/6
f 2294/4/6 2288/4/6 2297/4/6
f 2297/4/6 2288/4/6 2298/4/6
f 2291/4/6 2295/4/6 2300/4/6
f 2300/4/6 2295/4/6 2301/4/6
f 2301/4/6 2295/4/6 2302/4/6
f 2299/4/6 2300/4/6 2304/4/6
f 2300/4/6 2301/4/6 2304/4/6
f 2304/4/6 2301/4/6 2305/4/6
f 2303/4/6 2304/4/6 2307/4/6
f 2307/4/6 2304/4/6 2308/4/6
f 2306/4/6 2307/4/6 2309/4/6
f 2306/4/6 2309/4/6 2311/4/6
f 2309/4/6 2310/4/6 2311/4/6
f 2311/4/6 2310/4/6 2312/4/6
f 2306/4/6 2311/4/6 2313/4/6
f 2313/4/6 2311/4/6 2314/4/6
f 2315/4/6 2316/4/6 2318/4/6
f 2318/4/6 2316/4/6 2319/4/6
f 2317/4/6 2318/4/6 2322/4/6
f 2319/4/6 2320/4/6 2322/4/6
f 2318/4/6 2319/4/6 2322/4/6
f 2322/4/6 2320/4/6 2323/4/6
f 2323/4/6 2320/4/6 2324/4/6
f 2321/4/6 2322/4/6 2326/4/6
f 2322/4/6 2323/4/6 2326/4/6
f 2326/4/6 2323/4/6 2327/4/6
f 2327/4/6 2323/4/6 2328/4/6
f 2324/4/6 2320/4/6 2329/4/6
f 2329/4/6 2320/4/6 2330/4/6
f 2325/4/6 2326/4/6 2332/4/6
f 2326/4/6 2327/4/6 2332/4/6
f 2332/4/6 2327/4/6 2333/4/6
f 2333/4/6 2327/4/6 2334/4/6
f 2331/4/6 2332/4/6 2335/4/6
f 2332/4/6 2333/4/6 2335/4/6
f 2335/4/6 2333/4/6 2336/4/6
f 2336/4/6 2333/4/6 2338/4/6
f 2337/4/6 2338/4/6 2339/4/6
f 2338/4/6 2333/4/6 2340/4/6
f 2339/4/6 2338/4/6 2340/4/6
f 2341/5/6 2342/5/6 2344/5/6
f 2344/5/6 2342/5/6 2345/5/6
f 2343/5/6 2344/5/6 2348/5/6
f 2345/5/6 2346/5/6 2348/5/6
f 2344/5/6 2345/5/6 2348/5/6
f 2348/5/6 2346/5/6 2349/5/6
f 2349/5/6 2346/5/6 2350/5/6
f 2347/5/6 2348/5/6 2351/5/6
f 2348/5/6 2349/5/6 2351/5/6
f 2351/5/6 2349/5/6 2352/5/6
f 2347/5/6 2351/5/6 2353/5/6
f 2353/5/6 2351/5/6 2354/5/6
f 2347/5/6 2353/5/6 2355/5/6
f 2355/5/6 2353/5/6 2356/5/6
f 2357/5/6 2358/5/6 2360/5/6
f 2360/5/6 2358/5/6 2361/5/6
f 2359/5/6 2360/5/6 2361/5/6
f 2361/5/6 2358/5/6 2362/5/6
f 2359/5/6 2361/5/6 2364/5/6
f 2364/5/6 2361/5/6 2365/5/6
f 2365/5/6 2361/5/6 2366/5/6
f 2363/5/6 2364/5/6 2367/5/6
f 2364/5/6 2365/5/6 2367/5/6
f 2367/5/6 2365/5/6 2368/5/6
f 2369/5/6 2370/5/6 2372/5/6
f 2371/5/6 2372/5/6 2373/5/6
f 2372/5/6 2370/5/6 2374/5/6
f 2373/5/6 2372/5/6 2374/5/6
