# MagicaVoxel @ Ephtracy

# group
o 

# material
mtllib ShrineArea_v3-0.mtl
usemtl palette

# normals
vn -1 0 0
vn 1 0 0
vn 0 0 1
vn 0 0 -1
vn 0 -1 0
vn 0 1 0

# texcoords
vt 0.982422 0.5
vt 0.986328 0.5
vt 0.990234 0.5

# verts
v -17.5 4.1 16.7
v -17.5 4.1 16.6
v -17.5 4.1 16.5
v -17.5 4.1 16.4
v -17.5 4.1 16.3
v -17.5 4.2 16.7
v -17.5 4.2 16.6
v -17.5 4.2 16.5
v -17.5 4.2 16.4
v -17.5 4.2 16.3
v -17.4 4.1 16.8
v -17.4 4.1 16.7
v -17.4 4.1 16.3
v -17.4 4.1 16.2
v -17.4 4.2 16.8
v -17.4 4.2 16.7
v -17.4 4.2 16.3
v -17.4 4.2 16.2
v -17.3 4.1 16.9
v -17.3 4.1 16.8
v -17.3 4.1 16.2
v -17.3 4.1 16.1
v -17.3 4.2 16.9
v -17.3 4.2 16.8
v -17.3 4.2 16.7
v -17.3 4.2 16.6
v -17.3 4.2 16.5
v -17.3 4.2 16.4
v -17.3 4.2 16.3
v -17.3 4.2 16.2
v -17.3 4.2 16.1
v -17.3 4.3 16.7
v -17.3 4.3 16.6
v -17.3 4.3 16.5
v -17.3 4.3 16.4
v -17.3 4.3 16.3
v -17.2 4.1 17
v -17.2 4.1 16.9
v -17.2 4.1 16.1
v -17.2 4.1 16
v -17.2 4.2 17
v -17.2 4.2 16.9
v -17.2 4.2 16.8
v -17.2 4.2 16.7
v -17.2 4.2 16.3
v -17.2 4.2 16.2
v -17.2 4.2 16.1
v -17.2 4.2 16
v -17.2 4.3 16.8
v -17.2 4.3 16.7
v -17.2 4.3 16.6
v -17.2 4.3 16.5
v -17.2 4.3 16.4
v -17.2 4.3 16.3
v -17.2 4.3 16.2
v -17.2 4.4 16.7
v -17.2 4.4 16.6
v -17.2 4.4 16.5
v -17.2 4.4 16.4
v -17.2 4.4 16.3
v -17.1 4.4 16.6
v -17.1 4.4 16.5
v -17.1 4.4 16.4
v -17.1 4.5 16.6
v -17.1 4.5 16.5
v -17.1 4.5 16.4
v -16.9 4.4 16.6
v -16.9 4.4 16.5
v -16.9 4.4 16.4
v -16.9 4.5 16.6
v -16.9 4.5 16.5
v -16.9 4.5 16.4
v -16.8 4.1 17
v -16.8 4.1 16.9
v -16.8 4.1 16.1
v -16.8 4.1 16
v -16.8 4.2 17
v -16.8 4.2 16.9
v -16.8 4.2 16.8
v -16.8 4.2 16.7
v -16.8 4.2 16.3
v -16.8 4.2 16.2
v -16.8 4.2 16.1
v -16.8 4.2 16
v -16.8 4.3 16.8
v -16.8 4.3 16.7
v -16.8 4.3 16.6
v -16.8 4.3 16.5
v -16.8 4.3 16.4
v -16.8 4.3 16.3
v -16.8 4.3 16.2
v -16.8 4.4 16.7
v -16.8 4.4 16.6
v -16.8 4.4 16.5
v -16.8 4.4 16.4
v -16.8 4.4 16.3
v -16.7 4.1 16.9
v -16.7 4.1 16.8
v -16.7 4.1 16.2
v -16.7 4.1 16.1
v -16.7 4.2 16.9
v -16.7 4.2 16.8
v -16.7 4.2 16.7
v -16.7 4.2 16.6
v -16.7 4.2 16.5
v -16.7 4.2 16.4
v -16.7 4.2 16.3
v -16.7 4.2 16.2
v -16.7 4.2 16.1
v -16.7 4.3 16.7
v -16.7 4.3 16.6
v -16.7 4.3 16.5
v -16.7 4.3 16.3
v -16.6 4.1 16.8
v -16.6 4.1 16.7
v -16.6 4.1 16.3
v -16.6 4.1 16.2
v -16.6 4.2 16.8
v -16.6 4.2 16.7
v -16.6 4.2 16.3
v -16.6 4.2 16.2
v -16.5 4.1 16.7
v -16.5 4.1 16.6
v -16.5 4.1 16.5
v -16.5 4.1 16.4
v -16.5 4.1 16.3
v -16.5 4.2 16.7
v -16.5 4.2 16.6
v -16.5 4.2 16.5
v -16.5 4.2 16.4
v -16.5 4.2 16.3
v -17.2 4.1 17
v -17.2 4.2 17
v -17.1 4.1 17
v -17.1 4.2 17
v -17 4.1 17
v -17 4.2 17
v -16.9 4.1 17
v -16.9 4.2 17
v -16.8 4.1 17
v -16.8 4.2 17
v -17.3 4.1 16.9
v -17.3 4.2 16.9
v -17.2 4.1 16.9
v -17.2 4.2 16.9
v -16.8 4.1 16.9
v -16.8 4.2 16.9
v -16.7 4.1 16.9
v -16.7 4.2 16.9
v -17.4 4.1 16.8
v -17.4 4.2 16.8
v -17.3 4.1 16.8
v -17.3 4.2 16.8
v -17.2 4.2 16.8
v -17.2 4.3 16.8
v -17.1 4.2 16.8
v -17.1 4.3 16.8
v -17 4.2 16.8
v -17 4.3 16.8
v -16.9 4.2 16.8
v -16.9 4.3 16.8
v -16.8 4.2 16.8
v -16.8 4.3 16.8
v -16.7 4.1 16.8
v -16.7 4.2 16.8
v -16.6 4.1 16.8
v -16.6 4.2 16.8
v -17.5 4.1 16.7
v -17.5 4.2 16.7
v -17.4 4.1 16.7
v -17.4 4.2 16.7
v -17.3 4.2 16.7
v -17.3 4.3 16.7
v -17.2 4.2 16.7
v -17.2 4.3 16.7
v -17.2 4.4 16.7
v -17.1 4.3 16.7
v -17.1 4.4 16.7
v -17 4.3 16.7
v -17 4.4 16.7
v -16.9 4.3 16.7
v -16.9 4.4 16.7
v -16.8 4.2 16.7
v -16.8 4.3 16.7
v -16.8 4.4 16.7
v -16.7 4.2 16.7
v -16.7 4.3 16.7
v -16.6 4.1 16.7
v -16.6 4.2 16.7
v -16.5 4.1 16.7
v -16.5 4.2 16.7
v -17.1 4.4 16.6
v -17.1 4.5 16.6
v -17 4.4 16.6
v -17 4.5 16.6
v -16.9 4.4 16.6
v -16.9 4.5 16.6
v -17.1 4.4 16.4
v -17.1 4.5 16.4
v -17 4.4 16.4
v -17 4.5 16.4
v -16.9 4.4 16.4
v -16.9 4.5 16.4
v -17.5 4.1 16.3
v -17.5 4.2 16.3
v -17.4 4.1 16.3
v -17.4 4.2 16.3
v -17.3 4.2 16.3
v -17.3 4.3 16.3
v -17.2 4.2 16.3
v -17.2 4.3 16.3
v -17.2 4.4 16.3
v -17.1 4.3 16.3
v -17.1 4.4 16.3
v -17 4.3 16.3
v -17 4.4 16.3
v -16.9 4.3 16.3
v -16.9 4.4 16.3
v -16.8 4.2 16.3
v -16.8 4.3 16.3
v -16.8 4.4 16.3
v -16.7 4.2 16.3
v -16.7 4.3 16.3
v -16.6 4.1 16.3
v -16.6 4.2 16.3
v -16.5 4.1 16.3
v -16.5 4.2 16.3
v -17.4 4.1 16.2
v -17.4 4.2 16.2
v -17.3 4.1 16.2
v -17.3 4.2 16.2
v -17.2 4.2 16.2
v -17.2 4.3 16.2
v -17.1 4.2 16.2
v -17 4.2 16.2
v -17 4.3 16.2
v -16.9 4.2 16.2
v -16.9 4.3 16.2
v -16.8 4.2 16.2
v -16.8 4.3 16.2
v -16.7 4.1 16.2
v -16.7 4.2 16.2
v -16.6 4.1 16.2
v -16.6 4.2 16.2
v -17.3 4.1 16.1
v -17.3 4.2 16.1
v -17.2 4.1 16.1
v -17.2 4.2 16.1
v -16.8 4.1 16.1
v -16.8 4.2 16.1
v -16.7 4.1 16.1
v -16.7 4.2 16.1
v -17.2 4.1 16
v -17.2 4.2 16
v -17.1 4.1 16
v -17.1 4.2 16
v -17 4.1 16
v -17 4.2 16
v -16.9 4.1 16
v -16.9 4.2 16
v -16.8 4.1 16
v -16.8 4.2 16
v -17.2 4.1 17
v -17.1 4.1 17
v -17 4.1 17
v -16.9 4.1 17
v -16.8 4.1 17
v -17.3 4.1 16.9
v -17.2 4.1 16.9
v -17.1 4.1 16.9
v -17 4.1 16.9
v -16.9 4.1 16.9
v -16.8 4.1 16.9
v -16.7 4.1 16.9
v -17.4 4.1 16.8
v -17.3 4.1 16.8
v -17.2 4.1 16.8
v -17.1 4.1 16.8
v -17 4.1 16.8
v -16.8 4.1 16.8
v -16.7 4.1 16.8
v -16.6 4.1 16.8
v -17.5 4.1 16.7
v -17.4 4.1 16.7
v -16.7 4.1 16.7
v -16.6 4.1 16.7
v -16.5 4.1 16.7
v -17.5 4.1 16.6
v -17.4 4.1 16.6
v -17.3 4.1 16.6
v -16.7 4.1 16.6
v -16.6 4.1 16.6
v -16.5 4.1 16.6
v -17.5 4.1 16.5
v -17.4 4.1 16.5
v -17.3 4.1 16.5
v -16.7 4.1 16.5
v -16.6 4.1 16.5
v -16.5 4.1 16.5
v -17.5 4.1 16.4
v -17.4 4.1 16.4
v -16.7 4.1 16.4
v -16.6 4.1 16.4
v -16.5 4.1 16.4
v -17.5 4.1 16.3
v -17.4 4.1 16.3
v -17.3 4.1 16.3
v -16.8 4.1 16.3
v -16.7 4.1 16.3
v -16.6 4.1 16.3
v -16.5 4.1 16.3
v -17.4 4.1 16.2
v -17.3 4.1 16.2
v -17.2 4.1 16.2
v -17.1 4.1 16.2
v -17 4.1 16.2
v -16.9 4.1 16.2
v -16.8 4.1 16.2
v -16.7 4.1 16.2
v -16.6 4.1 16.2
v -17.3 4.1 16.1
v -17.2 4.1 16.1
v -17.1 4.1 16.1
v -17 4.1 16.1
v -16.9 4.1 16.1
v -16.8 4.1 16.1
v -16.7 4.1 16.1
v -17.2 4.1 16
v -17.1 4.1 16
v -17 4.1 16
v -16.9 4.1 16
v -16.8 4.1 16
v -17.2 4.2 17
v -17.1 4.2 17
v -17 4.2 17
v -16.9 4.2 17
v -16.8 4.2 17
v -17.3 4.2 16.9
v -17.2 4.2 16.9
v -17.1 4.2 16.9
v -17 4.2 16.9
v -16.9 4.2 16.9
v -16.8 4.2 16.9
v -16.7 4.2 16.9
v -17.4 4.2 16.8
v -17.3 4.2 16.8
v -17.2 4.2 16.8
v -17.1 4.2 16.8
v -17 4.2 16.8
v -16.9 4.2 16.8
v -16.8 4.2 16.8
v -16.7 4.2 16.8
v -16.6 4.2 16.8
v -17.5 4.2 16.7
v -17.4 4.2 16.7
v -17.3 4.2 16.7
v -17.2 4.2 16.7
v -16.8 4.2 16.7
v -16.7 4.2 16.7
v -16.6 4.2 16.7
v -16.5 4.2 16.7
v -17.5 4.2 16.6
v -17.4 4.2 16.6
v -17.3 4.2 16.6
v -16.7 4.2 16.6
v -16.6 4.2 16.6
v -16.5 4.2 16.6
v -17.5 4.2 16.5
v -17.4 4.2 16.5
v -17.3 4.2 16.5
v -16.7 4.2 16.5
v -16.6 4.2 16.5
v -16.5 4.2 16.5
v -17.5 4.2 16.4
v -17.4 4.2 16.4
v -17.3 4.2 16.4
v -16.7 4.2 16.4
v -16.6 4.2 16.4
v -16.5 4.2 16.4
v -17.5 4.2 16.3
v -17.4 4.2 16.3
v -17.3 4.2 16.3
v -17.2 4.2 16.3
v -16.8 4.2 16.3
v -16.7 4.2 16.3
v -16.6 4.2 16.3
v -16.5 4.2 16.3
v -17.4 4.2 16.2
v -17.3 4.2 16.2
v -17.2 4.2 16.2
v -17.1 4.2 16.2
v -17 4.2 16.2
v -16.9 4.2 16.2
v -16.8 4.2 16.2
v -16.7 4.2 16.2
v -16.6 4.2 16.2
v -17.3 4.2 16.1
v -17.2 4.2 16.1
v -17.1 4.2 16.1
v -17 4.2 16.1
v -16.9 4.2 16.1
v -16.8 4.2 16.1
v -16.7 4.2 16.1
v -17.2 4.2 16
v -17.1 4.2 16
v -17 4.2 16
v -16.9 4.2 16
v -16.8 4.2 16
v -17.2 4.3 16.8
v -17.1 4.3 16.8
v -17 4.3 16.8
v -16.9 4.3 16.8
v -16.8 4.3 16.8
v -17.3 4.3 16.7
v -17.2 4.3 16.7
v -17.1 4.3 16.7
v -17 4.3 16.7
v -16.9 4.3 16.7
v -16.8 4.3 16.7
v -16.7 4.3 16.7
v -17.3 4.3 16.6
v -17.2 4.3 16.6
v -16.8 4.3 16.6
v -16.7 4.3 16.6
v -17.3 4.3 16.5
v -17.2 4.3 16.5
v -16.8 4.3 16.5
v -16.7 4.3 16.5
v -17.3 4.3 16.4
v -17.2 4.3 16.4
v -16.8 4.3 16.4
v -17.3 4.3 16.3
v -17.2 4.3 16.3
v -17.1 4.3 16.3
v -17 4.3 16.3
v -16.9 4.3 16.3
v -16.8 4.3 16.3
v -16.7 4.3 16.3
v -17.2 4.3 16.2
v -17 4.3 16.2
v -16.9 4.3 16.2
v -16.8 4.3 16.2
v -17.2 4.4 16.7
v -17.1 4.4 16.7
v -17 4.4 16.7
v -16.9 4.4 16.7
v -16.8 4.4 16.7
v -17.2 4.4 16.6
v -17.1 4.4 16.6
v -17 4.4 16.6
v -16.9 4.4 16.6
v -16.8 4.4 16.6
v -17.2 4.4 16.5
v -17.1 4.4 16.5
v -16.9 4.4 16.5
v -16.8 4.4 16.5
v -17.2 4.4 16.4
v -17.1 4.4 16.4
v -17 4.4 16.4
v -16.9 4.4 16.4
v -16.8 4.4 16.4
v -17.2 4.4 16.3
v -17.1 4.4 16.3
v -17 4.4 16.3
v -16.9 4.4 16.3
v -16.8 4.4 16.3
v -17.1 4.5 16.6
v -17 4.5 16.6
v -16.9 4.5 16.6
v -17.1 4.5 16.5
v -17 4.5 16.5
v -16.9 4.5 16.5
v -17.1 4.5 16.4
v -17 4.5 16.4
v -16.9 4.5 16.4

# faces
f 6/2/1 2/2/1 1/2/1
f 7/1/1 3/1/1 2/1/1
f 7/2/1 2/2/1 6/2/1
f 8/3/1 4/3/1 3/3/1
f 8/1/1 3/1/1 7/1/1
f 9/2/1 5/2/1 4/2/1
f 9/3/1 4/3/1 8/3/1
f 10/2/1 5/2/1 9/2/1
f 15/1/1 12/1/1 11/1/1
f 16/1/1 12/1/1 15/1/1
f 17/2/1 14/2/1 13/2/1
f 18/2/1 14/2/1 17/2/1
f 23/1/1 20/1/1 19/1/1
f 24/1/1 20/1/1 23/1/1
f 30/1/1 22/1/1 21/1/1
f 31/1/1 22/1/1 30/1/1
f 32/1/1 26/1/1 25/1/1
f 33/3/1 27/3/1 26/3/1
f 33/1/1 26/1/1 32/1/1
f 34/1/1 28/1/1 27/1/1
f 34/3/1 27/3/1 33/3/1
f 35/2/1 29/2/1 28/2/1
f 35/1/1 28/1/1 34/1/1
f 36/2/1 29/2/1 35/2/1
f 41/2/1 38/2/1 37/2/1
f 42/2/1 38/2/1 41/2/1
f 47/3/1 40/3/1 39/3/1
f 48/3/1 40/3/1 47/3/1
f 49/1/1 44/1/1 43/1/1
f 50/1/1 44/1/1 49/1/1
f 54/1/1 46/1/1 45/1/1
f 55/1/1 46/1/1 54/1/1
f 56/2/1 51/2/1 50/2/1
f 57/1/1 52/1/1 51/1/1
f 57/2/1 51/2/1 56/2/1
f 58/2/1 53/2/1 52/2/1
f 58/1/1 52/1/1 57/1/1
f 59/3/1 54/3/1 53/3/1
f 59/2/1 53/2/1 58/2/1
f 60/3/1 54/3/1 59/3/1
f 64/1/1 62/1/1 61/1/1
f 65/2/1 63/2/1 62/2/1
f 65/1/1 62/1/1 64/1/1
f 66/2/1 63/2/1 65/2/1
f 67/2/2 68/2/2 70/2/2
f 68/1/2 69/1/2 71/1/2
f 70/2/2 68/2/2 71/2/2
f 71/1/2 69/1/2 72/1/2
f 73/3/2 74/3/2 77/3/2
f 77/3/2 74/3/2 78/3/2
f 75/2/2 76/2/2 83/2/2
f 83/2/2 76/2/2 84/2/2
f 79/2/2 80/2/2 85/2/2
f 85/2/2 80/2/2 86/2/2
f 81/1/2 82/1/2 90/1/2
f 90/1/2 82/1/2 91/1/2
f 86/2/2 87/2/2 92/2/2
f 87/1/2 88/1/2 93/1/2
f 92/2/2 87/2/2 93/2/2
f 88/3/2 89/3/2 94/3/2
f 93/1/2 88/1/2 94/1/2
f 89/2/2 90/2/2 95/2/2
f 94/3/2 89/3/2 95/3/2
f 95/2/2 90/2/2 96/2/2
f 97/2/2 98/2/2 101/2/2
f 101/2/2 98/2/2 102/2/2
f 99/2/2 100/2/2 108/2/2
f 108/2/2 100/2/2 109/2/2
f 103/1/2 104/1/2 110/1/2
f 104/2/2 105/2/2 111/2/2
f 110/1/2 104/1/2 111/1/2
f 106/1/2 107/1/2 112/1/2
f 111/2/2 105/2/2 112/2/2
f 105/1/2 106/1/2 112/1/2
f 112/1/2 107/1/2 113/1/2
f 114/3/2 115/3/2 118/3/2
f 118/3/2 115/3/2 119/3/2
f 116/1/2 117/1/2 120/1/2
f 120/1/2 117/1/2 121/1/2
f 122/2/2 123/2/2 127/2/2
f 123/1/2 124/1/2 128/1/2
f 127/2/2 123/2/2 128/2/2
f 124/2/2 125/2/2 129/2/2
f 128/1/2 124/1/2 129/1/2
f 125/1/2 126/1/2 130/1/2
f 129/2/2 125/2/2 130/2/2
f 130/1/2 126/1/2 131/1/2
f 134/2/3 133/2/3 132/2/3
f 135/2/3 133/2/3 134/2/3
f 136/1/3 135/1/3 134/1/3
f 137/1/3 135/1/3 136/1/3
f 138/2/3 137/2/3 136/2/3
f 139/2/3 137/2/3 138/2/3
f 140/3/3 139/3/3 138/3/3
f 141/3/3 139/3/3 140/3/3
f 144/1/3 143/1/3 142/1/3
f 145/1/3 143/1/3 144/1/3
f 148/2/3 147/2/3 146/2/3
f 149/2/3 147/2/3 148/2/3
f 152/1/3 151/1/3 150/1/3
f 153/1/3 151/1/3 152/1/3
f 156/1/3 155/1/3 154/1/3
f 157/1/3 155/1/3 156/1/3
f 158/2/3 157/2/3 156/2/3
f 159/2/3 157/2/3 158/2/3
f 160/1/3 159/1/3 158/1/3
f 161/1/3 159/1/3 160/1/3
f 162/2/3 161/2/3 160/2/3
f 163/2/3 161/2/3 162/2/3
f 166/3/3 165/3/3 164/3/3
f 167/3/3 165/3/3 166/3/3
f 170/2/3 169/2/3 168/2/3
f 171/2/3 169/2/3 170/2/3
f 174/1/3 173/1/3 172/1/3
f 175/1/3 173/1/3 174/1/3
f 177/2/3 176/2/3 175/2/3
f 178/2/3 176/2/3 177/2/3
f 179/1/3 178/1/3 177/1/3
f 180/1/3 178/1/3 179/1/3
f 181/3/3 180/3/3 179/3/3
f 182/3/3 180/3/3 181/3/3
f 184/2/3 182/2/3 181/2/3
f 185/2/3 182/2/3 184/2/3
f 186/1/3 184/1/3 183/1/3
f 187/1/3 184/1/3 186/1/3
f 190/2/3 189/2/3 188/2/3
f 191/2/3 189/2/3 190/2/3
f 194/1/3 193/1/3 192/1/3
f 195/1/3 193/1/3 194/1/3
f 196/2/3 195/2/3 194/2/3
f 197/2/3 195/2/3 196/2/3
f 198/2/4 199/2/4 200/2/4
f 200/2/4 199/2/4 201/2/4
f 200/1/4 201/1/4 202/1/4
f 202/1/4 201/1/4 203/1/4
f 204/2/4 205/2/4 206/2/4
f 206/2/4 205/2/4 207/2/4
f 208/2/4 209/2/4 210/2/4
f 210/2/4 209/2/4 211/2/4
f 211/3/4 212/3/4 213/3/4
f 213/3/4 212/3/4 214/3/4
f 213/2/4 214/2/4 215/2/4
f 215/2/4 214/2/4 216/2/4
f 215/1/4 216/1/4 217/1/4
f 217/1/4 216/1/4 218/1/4
f 217/2/4 218/2/4 220/2/4
f 220/2/4 218/2/4 221/2/4
f 219/1/4 220/1/4 222/1/4
f 222/1/4 220/1/4 223/1/4
f 224/1/4 225/1/4 226/1/4
f 226/1/4 225/1/4 227/1/4
f 228/2/4 229/2/4 230/2/4
f 230/2/4 229/2/4 231/2/4
f 232/1/4 233/1/4 234/1/4
f 234/1/4 233/1/4 235/1/4
f 235/1/4 233/1/4 236/1/4
f 235/2/4 236/2/4 237/2/4
f 237/2/4 236/2/4 238/2/4
f 237/1/4 238/1/4 239/1/4
f 239/1/4 238/1/4 240/1/4
f 241/1/4 242/1/4 243/1/4
f 243/1/4 242/1/4 244/1/4
f 245/1/4 246/1/4 247/1/4
f 247/1/4 246/1/4 248/1/4
f 249/2/4 250/2/4 251/2/4
f 251/2/4 250/2/4 252/2/4
f 253/3/4 254/3/4 255/3/4
f 255/3/4 254/3/4 256/3/4
f 255/2/4 256/2/4 257/2/4
f 257/2/4 256/2/4 258/2/4
f 257/1/4 258/1/4 259/1/4
f 259/1/4 258/1/4 260/1/4
f 259/2/4 260/2/4 261/2/4
f 261/2/4 260/2/4 262/2/4
f 269/2/5 264/2/5 263/2/5
f 270/1/5 265/1/5 264/1/5
f 270/2/5 264/2/5 269/2/5
f 271/2/5 266/2/5 265/2/5
f 271/1/5 265/1/5 270/1/5
f 272/3/5 267/3/5 266/3/5
f 272/2/5 266/2/5 271/2/5
f 273/3/5 267/3/5 272/3/5
f 276/1/5 269/1/5 268/1/5
f 277/2/5 270/2/5 269/2/5
f 277/1/5 269/1/5 276/1/5
f 278/3/5 271/3/5 270/3/5
f 278/2/5 270/2/5 277/2/5
f 279/1/5 272/1/5 271/1/5
f 279/3/5 271/3/5 278/3/5
f 279/1/5 273/1/5 272/1/5
f 280/2/5 274/2/5 273/2/5
f 280/1/5 273/1/5 279/1/5
f 281/2/5 274/2/5 280/2/5
f 284/1/5 277/1/5 276/1/5
f 284/1/5 279/1/5 278/1/5
f 284/1/5 281/1/5 280/1/5
f 284/1/5 280/1/5 279/1/5
f 284/1/5 276/1/5 275/1/5
f 284/1/5 278/1/5 277/1/5
f 285/3/5 282/3/5 281/3/5
f 285/1/5 281/1/5 284/1/5
f 286/3/5 282/3/5 285/3/5
f 288/2/5 284/2/5 283/2/5
f 289/1/5 285/1/5 284/1/5
f 289/2/5 284/2/5 288/2/5
f 290/1/5 285/1/5 289/1/5
f 291/2/5 287/2/5 286/2/5
f 291/1/5 285/1/5 290/1/5
f 291/2/5 286/2/5 285/2/5
f 292/2/5 287/2/5 291/2/5
f 293/2/5 287/2/5 292/2/5
f 294/1/5 289/1/5 288/1/5
f 295/2/5 290/2/5 289/2/5
f 295/1/5 289/1/5 294/1/5
f 296/1/5 291/1/5 290/1/5
f 296/2/5 290/2/5 295/2/5
f 297/3/5 292/3/5 291/3/5
f 297/1/5 291/1/5 296/1/5
f 298/1/5 293/1/5 292/1/5
f 298/3/5 292/3/5 297/3/5
f 299/1/5 293/1/5 298/1/5
f 300/3/5 295/3/5 294/3/5
f 301/1/5 296/1/5 295/1/5
f 301/3/5 295/3/5 300/3/5
f 301/1/5 297/1/5 296/1/5
f 301/1/5 298/1/5 297/1/5
f 302/1/5 298/1/5 301/1/5
f 303/2/5 299/2/5 298/2/5
f 303/1/5 298/1/5 302/1/5
f 304/2/5 299/2/5 303/2/5
f 305/2/5 301/2/5 300/2/5
f 306/1/5 302/1/5 301/1/5
f 306/2/5 301/2/5 305/2/5
f 307/1/5 302/1/5 306/1/5
f 308/1/5 302/1/5 307/1/5
f 309/2/5 303/2/5 302/2/5
f 309/1/5 302/1/5 308/1/5
f 310/1/5 304/1/5 303/1/5
f 310/2/5 303/2/5 309/2/5
f 311/1/5 304/1/5 310/1/5
f 312/2/5 307/2/5 306/2/5
f 313/1/5 308/1/5 307/1/5
f 313/2/5 307/2/5 312/2/5
f 314/1/5 308/1/5 313/1/5
f 315/1/5 308/1/5 314/1/5
f 316/1/5 308/1/5 315/1/5
f 317/1/5 308/1/5 316/1/5
f 318/3/5 309/3/5 308/3/5
f 318/1/5 308/1/5 317/1/5
f 319/1/5 310/1/5 309/1/5
f 319/3/5 309/3/5 318/3/5
f 320/1/5 310/1/5 319/1/5
f 321/1/5 314/1/5 313/1/5
f 322/2/5 315/2/5 314/2/5
f 322/1/5 314/1/5 321/1/5
f 323/1/5 316/1/5 315/1/5
f 323/2/5 315/2/5 322/2/5
f 324/3/5 317/3/5 316/3/5
f 324/1/5 316/1/5 323/1/5
f 325/1/5 318/1/5 317/1/5
f 325/3/5 317/3/5 324/3/5
f 326/2/5 319/2/5 318/2/5
f 326/1/5 318/1/5 325/1/5
f 327/2/5 319/2/5 326/2/5
f 328/3/5 323/3/5 322/3/5
f 329/2/5 324/2/5 323/2/5
f 329/3/5 323/3/5 328/3/5
f 330/1/5 325/1/5 324/1/5
f 330/2/5 324/2/5 329/2/5
f 331/2/5 326/2/5 325/2/5
f 331/1/5 325/1/5 330/1/5
f 332/2/5 326/2/5 331/2/5
f 333/2/6 334/2/6 339/2/6
f 334/1/6 335/1/6 340/1/6
f 339/2/6 334/2/6 340/2/6
f 335/2/6 336/2/6 341/2/6
f 340/1/6 335/1/6 341/1/6
f 336/3/6 337/3/6 342/3/6
f 341/2/6 336/2/6 342/2/6
f 342/3/6 337/3/6 343/3/6
f 338/1/6 339/1/6 346/1/6
f 339/2/6 340/2/6 347/2/6
f 346/1/6 339/1/6 347/1/6
f 340/3/6 341/3/6 348/3/6
f 347/2/6 340/2/6 348/2/6
f 341/1/6 342/1/6 349/1/6
f 348/3/6 341/3/6 349/3/6
f 342/1/6 343/1/6 349/1/6
f 349/1/6 343/1/6 350/1/6
f 343/2/6 344/2/6 351/2/6
f 350/1/6 343/1/6 351/1/6
f 351/2/6 344/2/6 352/2/6
f 346/1/6 347/1/6 355/1/6
f 345/1/6 346/1/6 355/1/6
f 355/1/6 347/1/6 356/1/6
f 356/1/6 347/1/6 357/1/6
f 351/1/6 352/1/6 358/1/6
f 352/3/6 353/3/6 359/3/6
f 358/1/6 352/1/6 359/1/6
f 359/3/6 353/3/6 360/3/6
f 354/2/6 355/2/6 362/2/6
f 355/1/6 356/1/6 363/1/6
f 362/2/6 355/2/6 363/2/6
f 363/1/6 356/1/6 364/1/6
f 360/2/6 361/2/6 365/2/6
f 359/2/6 360/2/6 365/2/6
f 365/2/6 361/2/6 366/2/6
f 366/2/6 361/2/6 367/2/6
f 362/1/6 363/1/6 368/1/6
f 363/2/6 364/2/6 369/2/6
f 368/1/6 363/1/6 369/1/6
f 369/2/6 364/2/6 370/2/6
f 365/3/6 366/3/6 371/3/6
f 366/1/6 367/1/6 372/1/6
f 371/3/6 366/3/6 372/3/6
f 372/1/6 367/1/6 373/1/6
f 368/3/6 369/3/6 374/3/6
f 369/1/6 370/1/6 375/1/6
f 374/3/6 369/3/6 375/3/6
f 375/1/6 370/1/6 376/1/6
f 371/1/6 372/1/6 377/1/6
f 372/2/6 373/2/6 378/2/6
f 377/1/6 372/1/6 378/1/6
f 378/2/6 373/2/6 379/2/6
f 374/2/6 375/2/6 380/2/6
f 375/1/6 376/1/6 381/1/6
f 380/2/6 375/2/6 381/2/6
f 381/1/6 376/1/6 382/1/6
f 377/2/6 378/2/6 385/2/6
f 378/1/6 379/1/6 386/1/6
f 385/2/6 378/2/6 386/2/6
f 386/1/6 379/1/6 387/1/6
f 381/2/6 382/2/6 388/2/6
f 382/1/6 383/1/6 389/1/6
f 388/2/6 382/2/6 389/2/6
f 389/1/6 383/1/6 390/1/6
f 384/3/6 385/3/6 394/3/6
f 385/1/6 386/1/6 395/1/6
f 394/3/6 385/3/6 395/3/6
f 395/1/6 386/1/6 396/1/6
f 389/1/6 390/1/6 397/1/6
f 390/2/6 391/2/6 398/2/6
f 397/1/6 390/1/6 398/1/6
f 391/1/6 392/1/6 399/1/6
f 398/2/6 391/2/6 399/2/6
f 392/3/6 393/3/6 400/3/6
f 399/1/6 392/1/6 400/1/6
f 393/1/6 394/1/6 401/1/6
f 400/3/6 393/3/6 401/3/6
f 394/2/6 395/2/6 402/2/6
f 401/1/6 394/1/6 402/1/6
f 402/2/6 395/2/6 403/2/6
f 398/3/6 399/3/6 404/3/6
f 399/2/6 400/2/6 405/2/6
f 404/3/6 399/3/6 405/3/6
f 400/1/6 401/1/6 406/1/6
f 405/2/6 400/2/6 406/2/6
f 401/2/6 402/2/6 407/2/6
f 406/1/6 401/1/6 407/1/6
f 407/2/6 402/2/6 408/2/6
f 409/1/6 410/1/6 415/1/6
f 410/2/6 411/2/6 416/2/6
f 415/1/6 410/1/6 416/1/6
f 411/1/6 412/1/6 417/1/6
f 416/2/6 411/2/6 417/2/6
f 412/2/6 413/2/6 418/2/6
f 417/1/6 412/1/6 418/1/6
f 418/2/6 413/2/6 419/2/6
f 414/1/6 415/1/6 421/1/6
f 421/1/6 415/1/6 422/1/6
f 419/1/6 420/1/6 423/1/6
f 423/1/6 420/1/6 424/1/6
f 421/3/6 422/3/6 425/3/6
f 425/3/6 422/3/6 426/3/6
f 423/2/6 424/2/6 427/2/6
f 427/2/6 424/2/6 428/2/6
f 425/1/6 426/1/6 429/1/6
f 429/1/6 426/1/6 430/1/6
f 427/1/6 428/1/6 431/1/6
f 429/2/6 430/2/6 432/2/6
f 432/2/6 430/2/6 433/2/6
f 431/1/6 428/1/6 437/1/6
f 437/1/6 428/1/6 438/1/6
f 433/1/6 434/1/6 439/1/6
f 434/1/6 435/1/6 439/1/6
f 435/2/6 436/2/6 440/2/6
f 439/1/6 435/1/6 440/1/6
f 436/1/6 437/1/6 441/1/6
f 440/2/6 436/2/6 441/2/6
f 441/1/6 437/1/6 442/1/6
f 443/2/6 444/2/6 448/2/6
f 444/1/6 445/1/6 449/1/6
f 448/2/6 444/2/6 449/2/6
f 445/3/6 446/3/6 450/3/6
f 449/1/6 445/1/6 450/1/6
f 446/2/6 447/2/6 451/2/6
f 450/3/6 446/3/6 451/3/6
f 451/2/6 447/2/6 452/2/6
f 448/1/6 449/1/6 453/1/6
f 453/1/6 449/1/6 454/1/6
f 451/1/6 452/1/6 455/1/6
f 455/1/6 452/1/6 456/1/6
f 453/2/6 454/2/6 457/2/6
f 457/2/6 454/2/6 458/2/6
f 455/3/6 456/3/6 460/3/6
f 460/3/6 456/3/6 461/3/6
f 457/3/6 458/3/6 462/3/6
f 458/2/6 459/2/6 463/2/6
f 462/3/6 458/3/6 463/3/6
f 459/1/6 460/1/6 464/1/6
f 463/2/6 459/2/6 464/2/6
f 460/2/6 461/2/6 465/2/6
f 464/1/6 460/1/6 465/1/6
f 465/2/6 461/2/6 466/2/6
f 467/1/6 468/1/6 470/1/6
f 468/2/6 469/2/6 471/2/6
f 470/1/6 468/1/6 471/1/6
f 471/2/6 469/2/6 472/2/6
f 470/2/6 471/2/6 473/2/6
f 471/1/6 472/1/6 474/1/6
f 473/2/6 471/2/6 474/2/6
f 474/1/6 472/1/6 475/1/6
