# MagicaVoxel @ Ephtracy

# group
o 

# material
mtllib ShrineArea_WithDais-0.mtl
usemtl palette

# normals
vn -1 0 0
vn 1 0 0
vn 0 0 1
vn 0 0 -1
vn 0 -1 0
vn 0 1 0

# texcoords
vt 0.982422 0.5
vt 0.986328 0.5
vt 0.990234 0.5

# verts
v -17.5 4.1 16.7
v -17.5 4.1 16.6
v -17.5 4.1 16.5
v -17.5 4.1 16.4
v -17.5 4.1 16.3
v -17.5 4.2 16.7
v -17.5 4.2 16.6
v -17.5 4.2 16.5
v -17.5 4.2 16.4
v -17.5 4.2 16.3
v -17.4 4.1 16.8
v -17.4 4.1 16.7
v -17.4 4.1 16.3
v -17.4 4.1 16.2
v -17.4 4.2 16.8
v -17.4 4.2 16.7
v -17.4 4.2 16.3
v -17.4 4.2 16.2
v -17.3 4.1 16.9
v -17.3 4.1 16.8
v -17.3 4.1 16.2
v -17.3 4.1 16.1
v -17.3 4.2 16.9
v -17.3 4.2 16.8
v -17.3 4.2 16.7
v -17.3 4.2 16.6
v -17.3 4.2 16.5
v -17.3 4.2 16.4
v -17.3 4.2 16.3
v -17.3 4.2 16.2
v -17.3 4.2 16.1
v -17.3 4.3 16.7
v -17.3 4.3 16.6
v -17.3 4.3 16.5
v -17.3 4.3 16.4
v -17.3 4.3 16.3
v -17.2 4.1 17
v -17.2 4.1 16.9
v -17.2 4.1 16.1
v -17.2 4.1 16
v -17.2 4.2 17
v -17.2 4.2 16.9
v -17.2 4.2 16.8
v -17.2 4.2 16.7
v -17.2 4.2 16.3
v -17.2 4.2 16.2
v -17.2 4.2 16.1
v -17.2 4.2 16
v -17.2 4.3 16.8
v -17.2 4.3 16.7
v -17.2 4.3 16.6
v -17.2 4.3 16.5
v -17.2 4.3 16.4
v -17.2 4.3 16.3
v -17.2 4.3 16.2
v -17.2 4.4 16.7
v -17.2 4.4 16.6
v -17.2 4.4 16.5
v -17.2 4.4 16.4
v -17.2 4.4 16.3
v -16.8 4.1 17
v -16.8 4.1 16.9
v -16.8 4.1 16.1
v -16.8 4.1 16
v -16.8 4.2 17
v -16.8 4.2 16.9
v -16.8 4.2 16.8
v -16.8 4.2 16.7
v -16.8 4.2 16.3
v -16.8 4.2 16.2
v -16.8 4.2 16.1
v -16.8 4.2 16
v -16.8 4.3 16.8
v -16.8 4.3 16.7
v -16.8 4.3 16.6
v -16.8 4.3 16.5
v -16.8 4.3 16.4
v -16.8 4.3 16.3
v -16.8 4.3 16.2
v -16.8 4.4 16.7
v -16.8 4.4 16.6
v -16.8 4.4 16.5
v -16.8 4.4 16.4
v -16.8 4.4 16.3
v -16.7 4.1 16.9
v -16.7 4.1 16.8
v -16.7 4.1 16.2
v -16.7 4.1 16.1
v -16.7 4.2 16.9
v -16.7 4.2 16.8
v -16.7 4.2 16.7
v -16.7 4.2 16.6
v -16.7 4.2 16.5
v -16.7 4.2 16.4
v -16.7 4.2 16.3
v -16.7 4.2 16.2
v -16.7 4.2 16.1
v -16.7 4.3 16.7
v -16.7 4.3 16.6
v -16.7 4.3 16.5
v -16.7 4.3 16.3
v -16.6 4.1 16.8
v -16.6 4.1 16.7
v -16.6 4.1 16.3
v -16.6 4.1 16.2
v -16.6 4.2 16.8
v -16.6 4.2 16.7
v -16.6 4.2 16.3
v -16.6 4.2 16.2
v -16.5 4.1 16.7
v -16.5 4.1 16.6
v -16.5 4.1 16.5
v -16.5 4.1 16.4
v -16.5 4.1 16.3
v -16.5 4.2 16.7
v -16.5 4.2 16.6
v -16.5 4.2 16.5
v -16.5 4.2 16.4
v -16.5 4.2 16.3
v -17.2 4.1 17
v -17.2 4.2 17
v -17.1 4.1 17
v -17.1 4.2 17
v -17 4.1 17
v -17 4.2 17
v -16.9 4.1 17
v -16.9 4.2 17
v -16.8 4.1 17
v -16.8 4.2 17
v -17.3 4.1 16.9
v -17.3 4.2 16.9
v -17.2 4.1 16.9
v -17.2 4.2 16.9
v -16.8 4.1 16.9
v -16.8 4.2 16.9
v -16.7 4.1 16.9
v -16.7 4.2 16.9
v -17.4 4.1 16.8
v -17.4 4.2 16.8
v -17.3 4.1 16.8
v -17.3 4.2 16.8
v -17.2 4.2 16.8
v -17.2 4.3 16.8
v -17.1 4.2 16.8
v -17.1 4.3 16.8
v -17 4.2 16.8
v -17 4.3 16.8
v -16.9 4.2 16.8
v -16.9 4.3 16.8
v -16.8 4.2 16.8
v -16.8 4.3 16.8
v -16.7 4.1 16.8
v -16.7 4.2 16.8
v -16.6 4.1 16.8
v -16.6 4.2 16.8
v -17.5 4.1 16.7
v -17.5 4.2 16.7
v -17.4 4.1 16.7
v -17.4 4.2 16.7
v -17.3 4.2 16.7
v -17.3 4.3 16.7
v -17.2 4.2 16.7
v -17.2 4.3 16.7
v -17.2 4.4 16.7
v -17.1 4.3 16.7
v -17.1 4.4 16.7
v -17 4.3 16.7
v -17 4.4 16.7
v -16.9 4.3 16.7
v -16.9 4.4 16.7
v -16.8 4.2 16.7
v -16.8 4.3 16.7
v -16.8 4.4 16.7
v -16.7 4.2 16.7
v -16.7 4.3 16.7
v -16.6 4.1 16.7
v -16.6 4.2 16.7
v -16.5 4.1 16.7
v -16.5 4.2 16.7
v -17.5 4.1 16.3
v -17.5 4.2 16.3
v -17.4 4.1 16.3
v -17.4 4.2 16.3
v -17.3 4.2 16.3
v -17.3 4.3 16.3
v -17.2 4.2 16.3
v -17.2 4.3 16.3
v -17.2 4.4 16.3
v -17.1 4.3 16.3
v -17.1 4.4 16.3
v -17 4.3 16.3
v -17 4.4 16.3
v -16.9 4.3 16.3
v -16.9 4.4 16.3
v -16.8 4.2 16.3
v -16.8 4.3 16.3
v -16.8 4.4 16.3
v -16.7 4.2 16.3
v -16.7 4.3 16.3
v -16.6 4.1 16.3
v -16.6 4.2 16.3
v -16.5 4.1 16.3
v -16.5 4.2 16.3
v -17.4 4.1 16.2
v -17.4 4.2 16.2
v -17.3 4.1 16.2
v -17.3 4.2 16.2
v -17.2 4.2 16.2
v -17.2 4.3 16.2
v -17.1 4.2 16.2
v -17 4.2 16.2
v -17 4.3 16.2
v -16.9 4.2 16.2
v -16.9 4.3 16.2
v -16.8 4.2 16.2
v -16.8 4.3 16.2
v -16.7 4.1 16.2
v -16.7 4.2 16.2
v -16.6 4.1 16.2
v -16.6 4.2 16.2
v -17.3 4.1 16.1
v -17.3 4.2 16.1
v -17.2 4.1 16.1
v -17.2 4.2 16.1
v -16.8 4.1 16.1
v -16.8 4.2 16.1
v -16.7 4.1 16.1
v -16.7 4.2 16.1
v -17.2 4.1 16
v -17.2 4.2 16
v -17.1 4.1 16
v -17.1 4.2 16
v -17 4.1 16
v -17 4.2 16
v -16.9 4.1 16
v -16.9 4.2 16
v -16.8 4.1 16
v -16.8 4.2 16
v -17.2 4.1 17
v -17.1 4.1 17
v -17 4.1 17
v -16.9 4.1 17
v -16.8 4.1 17
v -17.3 4.1 16.9
v -17.2 4.1 16.9
v -17.1 4.1 16.9
v -17 4.1 16.9
v -16.9 4.1 16.9
v -16.8 4.1 16.9
v -16.7 4.1 16.9
v -17.4 4.1 16.8
v -17.3 4.1 16.8
v -17.2 4.1 16.8
v -17.1 4.1 16.8
v -17 4.1 16.8
v -16.8 4.1 16.8
v -16.7 4.1 16.8
v -16.6 4.1 16.8
v -17.5 4.1 16.7
v -17.4 4.1 16.7
v -16.7 4.1 16.7
v -16.6 4.1 16.7
v -16.5 4.1 16.7
v -17.5 4.1 16.6
v -17.4 4.1 16.6
v -17.3 4.1 16.6
v -16.7 4.1 16.6
v -16.6 4.1 16.6
v -16.5 4.1 16.6
v -17.5 4.1 16.5
v -17.4 4.1 16.5
v -17.3 4.1 16.5
v -16.7 4.1 16.5
v -16.6 4.1 16.5
v -16.5 4.1 16.5
v -17.5 4.1 16.4
v -17.4 4.1 16.4
v -16.7 4.1 16.4
v -16.6 4.1 16.4
v -16.5 4.1 16.4
v -17.5 4.1 16.3
v -17.4 4.1 16.3
v -17.3 4.1 16.3
v -16.8 4.1 16.3
v -16.7 4.1 16.3
v -16.6 4.1 16.3
v -16.5 4.1 16.3
v -17.4 4.1 16.2
v -17.3 4.1 16.2
v -17.2 4.1 16.2
v -17.1 4.1 16.2
v -17 4.1 16.2
v -16.9 4.1 16.2
v -16.8 4.1 16.2
v -16.7 4.1 16.2
v -16.6 4.1 16.2
v -17.3 4.1 16.1
v -17.2 4.1 16.1
v -17.1 4.1 16.1
v -17 4.1 16.1
v -16.9 4.1 16.1
v -16.8 4.1 16.1
v -16.7 4.1 16.1
v -17.2 4.1 16
v -17.1 4.1 16
v -17 4.1 16
v -16.9 4.1 16
v -16.8 4.1 16
v -17.2 4.2 17
v -17.1 4.2 17
v -17 4.2 17
v -16.9 4.2 17
v -16.8 4.2 17
v -17.3 4.2 16.9
v -17.2 4.2 16.9
v -17.1 4.2 16.9
v -17 4.2 16.9
v -16.9 4.2 16.9
v -16.8 4.2 16.9
v -16.7 4.2 16.9
v -17.4 4.2 16.8
v -17.3 4.2 16.8
v -17.2 4.2 16.8
v -17.1 4.2 16.8
v -17 4.2 16.8
v -16.9 4.2 16.8
v -16.8 4.2 16.8
v -16.7 4.2 16.8
v -16.6 4.2 16.8
v -17.5 4.2 16.7
v -17.4 4.2 16.7
v -17.3 4.2 16.7
v -17.2 4.2 16.7
v -16.8 4.2 16.7
v -16.7 4.2 16.7
v -16.6 4.2 16.7
v -16.5 4.2 16.7
v -17.5 4.2 16.6
v -17.4 4.2 16.6
v -17.3 4.2 16.6
v -16.7 4.2 16.6
v -16.6 4.2 16.6
v -16.5 4.2 16.6
v -17.5 4.2 16.5
v -17.4 4.2 16.5
v -17.3 4.2 16.5
v -16.7 4.2 16.5
v -16.6 4.2 16.5
v -16.5 4.2 16.5
v -17.5 4.2 16.4
v -17.4 4.2 16.4
v -17.3 4.2 16.4
v -16.7 4.2 16.4
v -16.6 4.2 16.4
v -16.5 4.2 16.4
v -17.5 4.2 16.3
v -17.4 4.2 16.3
v -17.3 4.2 16.3
v -17.2 4.2 16.3
v -16.8 4.2 16.3
v -16.7 4.2 16.3
v -16.6 4.2 16.3
v -16.5 4.2 16.3
v -17.4 4.2 16.2
v -17.3 4.2 16.2
v -17.2 4.2 16.2
v -17.1 4.2 16.2
v -17 4.2 16.2
v -16.9 4.2 16.2
v -16.8 4.2 16.2
v -16.7 4.2 16.2
v -16.6 4.2 16.2
v -17.3 4.2 16.1
v -17.2 4.2 16.1
v -17.1 4.2 16.1
v -17 4.2 16.1
v -16.9 4.2 16.1
v -16.8 4.2 16.1
v -16.7 4.2 16.1
v -17.2 4.2 16
v -17.1 4.2 16
v -17 4.2 16
v -16.9 4.2 16
v -16.8 4.2 16
v -17.2 4.3 16.8
v -17.1 4.3 16.8
v -17 4.3 16.8
v -16.9 4.3 16.8
v -16.8 4.3 16.8
v -17.3 4.3 16.7
v -17.2 4.3 16.7
v -17.1 4.3 16.7
v -17 4.3 16.7
v -16.9 4.3 16.7
v -16.8 4.3 16.7
v -16.7 4.3 16.7
v -17.3 4.3 16.6
v -17.2 4.3 16.6
v -16.8 4.3 16.6
v -16.7 4.3 16.6
v -17.3 4.3 16.5
v -17.2 4.3 16.5
v -16.8 4.3 16.5
v -16.7 4.3 16.5
v -17.3 4.3 16.4
v -17.2 4.3 16.4
v -16.8 4.3 16.4
v -17.3 4.3 16.3
v -17.2 4.3 16.3
v -17.1 4.3 16.3
v -17 4.3 16.3
v -16.9 4.3 16.3
v -16.8 4.3 16.3
v -16.7 4.3 16.3
v -17.2 4.3 16.2
v -17 4.3 16.2
v -16.9 4.3 16.2
v -16.8 4.3 16.2
v -17.2 4.4 16.7
v -17.1 4.4 16.7
v -17 4.4 16.7
v -16.9 4.4 16.7
v -16.8 4.4 16.7
v -17.2 4.4 16.6
v -17.1 4.4 16.6
v -17 4.4 16.6
v -16.9 4.4 16.6
v -16.8 4.4 16.6
v -17.2 4.4 16.5
v -17.1 4.4 16.5
v -16.9 4.4 16.5
v -16.8 4.4 16.5
v -17.2 4.4 16.4
v -17.1 4.4 16.4
v -17 4.4 16.4
v -16.9 4.4 16.4
v -16.8 4.4 16.4
v -17.2 4.4 16.3
v -17.1 4.4 16.3
v -17 4.4 16.3
v -16.9 4.4 16.3
v -16.8 4.4 16.3

# faces
f 6/2/1 2/2/1 1/2/1
f 7/1/1 3/1/1 2/1/1
f 7/2/1 2/2/1 6/2/1
f 8/3/1 4/3/1 3/3/1
f 8/1/1 3/1/1 7/1/1
f 9/2/1 5/2/1 4/2/1
f 9/3/1 4/3/1 8/3/1
f 10/2/1 5/2/1 9/2/1
f 15/1/1 12/1/1 11/1/1
f 16/1/1 12/1/1 15/1/1
f 17/2/1 14/2/1 13/2/1
f 18/2/1 14/2/1 17/2/1
f 23/1/1 20/1/1 19/1/1
f 24/1/1 20/1/1 23/1/1
f 30/1/1 22/1/1 21/1/1
f 31/1/1 22/1/1 30/1/1
f 32/1/1 26/1/1 25/1/1
f 33/3/1 27/3/1 26/3/1
f 33/1/1 26/1/1 32/1/1
f 34/1/1 28/1/1 27/1/1
f 34/3/1 27/3/1 33/3/1
f 35/2/1 29/2/1 28/2/1
f 35/1/1 28/1/1 34/1/1
f 36/2/1 29/2/1 35/2/1
f 41/2/1 38/2/1 37/2/1
f 42/2/1 38/2/1 41/2/1
f 47/3/1 40/3/1 39/3/1
f 48/3/1 40/3/1 47/3/1
f 49/1/1 44/1/1 43/1/1
f 50/1/1 44/1/1 49/1/1
f 54/1/1 46/1/1 45/1/1
f 55/1/1 46/1/1 54/1/1
f 56/2/1 51/2/1 50/2/1
f 57/1/1 52/1/1 51/1/1
f 57/2/1 51/2/1 56/2/1
f 58/2/1 53/2/1 52/2/1
f 58/1/1 52/1/1 57/1/1
f 59/3/1 54/3/1 53/3/1
f 59/2/1 53/2/1 58/2/1
f 60/3/1 54/3/1 59/3/1
f 61/3/2 62/3/2 65/3/2
f 65/3/2 62/3/2 66/3/2
f 63/2/2 64/2/2 71/2/2
f 71/2/2 64/2/2 72/2/2
f 67/2/2 68/2/2 73/2/2
f 73/2/2 68/2/2 74/2/2
f 69/1/2 70/1/2 78/1/2
f 78/1/2 70/1/2 79/1/2
f 74/2/2 75/2/2 80/2/2
f 75/1/2 76/1/2 81/1/2
f 80/2/2 75/2/2 81/2/2
f 76/3/2 77/3/2 82/3/2
f 81/1/2 76/1/2 82/1/2
f 77/2/2 78/2/2 83/2/2
f 82/3/2 77/3/2 83/3/2
f 83/2/2 78/2/2 84/2/2
f 85/2/2 86/2/2 89/2/2
f 89/2/2 86/2/2 90/2/2
f 87/2/2 88/2/2 96/2/2
f 96/2/2 88/2/2 97/2/2
f 91/1/2 92/1/2 98/1/2
f 92/2/2 93/2/2 99/2/2
f 98/1/2 92/1/2 99/1/2
f 94/1/2 95/1/2 100/1/2
f 99/2/2 93/2/2 100/2/2
f 93/1/2 94/1/2 100/1/2
f 100/1/2 95/1/2 101/1/2
f 102/3/2 103/3/2 106/3/2
f 106/3/2 103/3/2 107/3/2
f 104/1/2 105/1/2 108/1/2
f 108/1/2 105/1/2 109/1/2
f 110/2/2 111/2/2 115/2/2
f 111/1/2 112/1/2 116/1/2
f 115/2/2 111/2/2 116/2/2
f 112/2/2 113/2/2 117/2/2
f 116/1/2 112/1/2 117/1/2
f 113/1/2 114/1/2 118/1/2
f 117/2/2 113/2/2 118/2/2
f 118/1/2 114/1/2 119/1/2
f 122/2/3 121/2/3 120/2/3
f 123/2/3 121/2/3 122/2/3
f 124/1/3 123/1/3 122/1/3
f 125/1/3 123/1/3 124/1/3
f 126/2/3 125/2/3 124/2/3
f 127/2/3 125/2/3 126/2/3
f 128/3/3 127/3/3 126/3/3
f 129/3/3 127/3/3 128/3/3
f 132/1/3 131/1/3 130/1/3
f 133/1/3 131/1/3 132/1/3
f 136/2/3 135/2/3 134/2/3
f 137/2/3 135/2/3 136/2/3
f 140/1/3 139/1/3 138/1/3
f 141/1/3 139/1/3 140/1/3
f 144/1/3 143/1/3 142/1/3
f 145/1/3 143/1/3 144/1/3
f 146/2/3 145/2/3 144/2/3
f 147/2/3 145/2/3 146/2/3
f 148/1/3 147/1/3 146/1/3
f 149/1/3 147/1/3 148/1/3
f 150/2/3 149/2/3 148/2/3
f 151/2/3 149/2/3 150/2/3
f 154/3/3 153/3/3 152/3/3
f 155/3/3 153/3/3 154/3/3
f 158/2/3 157/2/3 156/2/3
f 159/2/3 157/2/3 158/2/3
f 162/1/3 161/1/3 160/1/3
f 163/1/3 161/1/3 162/1/3
f 165/2/3 164/2/3 163/2/3
f 166/2/3 164/2/3 165/2/3
f 167/1/3 166/1/3 165/1/3
f 168/1/3 166/1/3 167/1/3
f 169/3/3 168/3/3 167/3/3
f 170/3/3 168/3/3 169/3/3
f 172/2/3 170/2/3 169/2/3
f 173/2/3 170/2/3 172/2/3
f 174/1/3 172/1/3 171/1/3
f 175/1/3 172/1/3 174/1/3
f 178/2/3 177/2/3 176/2/3
f 179/2/3 177/2/3 178/2/3
f 180/2/4 181/2/4 182/2/4
f 182/2/4 181/2/4 183/2/4
f 184/2/4 185/2/4 186/2/4
f 186/2/4 185/2/4 187/2/4
f 187/3/4 188/3/4 189/3/4
f 189/3/4 188/3/4 190/3/4
f 189/2/4 190/2/4 191/2/4
f 191/2/4 190/2/4 192/2/4
f 191/1/4 192/1/4 193/1/4
f 193/1/4 192/1/4 194/1/4
f 193/2/4 194/2/4 196/2/4
f 196/2/4 194/2/4 197/2/4
f 195/1/4 196/1/4 198/1/4
f 198/1/4 196/1/4 199/1/4
f 200/1/4 201/1/4 202/1/4
f 202/1/4 201/1/4 203/1/4
f 204/2/4 205/2/4 206/2/4
f 206/2/4 205/2/4 207/2/4
f 208/1/4 209/1/4 210/1/4
f 210/1/4 209/1/4 211/1/4
f 211/1/4 209/1/4 212/1/4
f 211/2/4 212/2/4 213/2/4
f 213/2/4 212/2/4 214/2/4
f 213/1/4 214/1/4 215/1/4
f 215/1/4 214/1/4 216/1/4
f 217/1/4 218/1/4 219/1/4
f 219/1/4 218/1/4 220/1/4
f 221/1/4 222/1/4 223/1/4
f 223/1/4 222/1/4 224/1/4
f 225/2/4 226/2/4 227/2/4
f 227/2/4 226/2/4 228/2/4
f 229/3/4 230/3/4 231/3/4
f 231/3/4 230/3/4 232/3/4
f 231/2/4 232/2/4 233/2/4
f 233/2/4 232/2/4 234/2/4
f 233/1/4 234/1/4 235/1/4
f 235/1/4 234/1/4 236/1/4
f 235/2/4 236/2/4 237/2/4
f 237/2/4 236/2/4 238/2/4
f 245/2/5 240/2/5 239/2/5
f 246/1/5 241/1/5 240/1/5
f 246/2/5 240/2/5 245/2/5
f 247/2/5 242/2/5 241/2/5
f 247/1/5 241/1/5 246/1/5
f 248/3/5 243/3/5 242/3/5
f 248/2/5 242/2/5 247/2/5
f 249/3/5 243/3/5 248/3/5
f 252/1/5 245/1/5 244/1/5
f 253/2/5 246/2/5 245/2/5
f 253/1/5 245/1/5 252/1/5
f 254/3/5 247/3/5 246/3/5
f 254/2/5 246/2/5 253/2/5
f 255/1/5 248/1/5 247/1/5
f 255/3/5 247/3/5 254/3/5
f 255/1/5 249/1/5 248/1/5
f 256/2/5 250/2/5 249/2/5
f 256/1/5 249/1/5 255/1/5
f 257/2/5 250/2/5 256/2/5
f 260/1/5 253/1/5 252/1/5
f 260/1/5 255/1/5 254/1/5
f 260/1/5 257/1/5 256/1/5
f 260/1/5 256/1/5 255/1/5
f 260/1/5 252/1/5 251/1/5
f 260/1/5 254/1/5 253/1/5
f 261/3/5 258/3/5 257/3/5
f 261/1/5 257/1/5 260/1/5
f 262/3/5 258/3/5 261/3/5
f 264/2/5 260/2/5 259/2/5
f 265/1/5 261/1/5 260/1/5
f 265/2/5 260/2/5 264/2/5
f 266/1/5 261/1/5 265/1/5
f 267/2/5 263/2/5 262/2/5
f 267/1/5 261/1/5 266/1/5
f 267/2/5 262/2/5 261/2/5
f 268/2/5 263/2/5 267/2/5
f 269/2/5 263/2/5 268/2/5
f 270/1/5 265/1/5 264/1/5
f 271/2/5 266/2/5 265/2/5
f 271/1/5 265/1/5 270/1/5
f 272/1/5 267/1/5 266/1/5
f 272/2/5 266/2/5 271/2/5
f 273/3/5 268/3/5 267/3/5
f 273/1/5 267/1/5 272/1/5
f 274/1/5 269/1/5 268/1/5
f 274/3/5 268/3/5 273/3/5
f 275/1/5 269/1/5 274/1/5
f 276/3/5 271/3/5 270/3/5
f 277/1/5 272/1/5 271/1/5
f 277/3/5 271/3/5 276/3/5
f 277/1/5 273/1/5 272/1/5
f 277/1/5 274/1/5 273/1/5
f 278/1/5 274/1/5 277/1/5
f 279/2/5 275/2/5 274/2/5
f 279/1/5 274/1/5 278/1/5
f 280/2/5 275/2/5 279/2/5
f 281/2/5 277/2/5 276/2/5
f 282/1/5 278/1/5 277/1/5
f 282/2/5 277/2/5 281/2/5
f 283/1/5 278/1/5 282/1/5
f 284/1/5 278/1/5 283/1/5
f 285/2/5 279/2/5 278/2/5
f 285/1/5 278/1/5 284/1/5
f 286/1/5 280/1/5 279/1/5
f 286/2/5 279/2/5 285/2/5
f 287/1/5 280/1/5 286/1/5
f 288/2/5 283/2/5 282/2/5
f 289/1/5 284/1/5 283/1/5
f 289/2/5 283/2/5 288/2/5
f 290/1/5 284/1/5 289/1/5
f 291/1/5 284/1/5 290/1/5
f 292/1/5 284/1/5 291/1/5
f 293/1/5 284/1/5 292/1/5
f 294/3/5 285/3/5 284/3/5
f 294/1/5 284/1/5 293/1/5
f 295/1/5 286/1/5 285/1/5
f 295/3/5 285/3/5 294/3/5
f 296/1/5 286/1/5 295/1/5
f 297/1/5 290/1/5 289/1/5
f 298/2/5 291/2/5 290/2/5
f 298/1/5 290/1/5 297/1/5
f 299/1/5 292/1/5 291/1/5
f 299/2/5 291/2/5 298/2/5
f 300/3/5 293/3/5 292/3/5
f 300/1/5 292/1/5 299/1/5
f 301/1/5 294/1/5 293/1/5
f 301/3/5 293/3/5 300/3/5
f 302/2/5 295/2/5 294/2/5
f 302/1/5 294/1/5 301/1/5
f 303/2/5 295/2/5 302/2/5
f 304/3/5 299/3/5 298/3/5
f 305/2/5 300/2/5 299/2/5
f 305/3/5 299/3/5 304/3/5
f 306/1/5 301/1/5 300/1/5
f 306/2/5 300/2/5 305/2/5
f 307/2/5 302/2/5 301/2/5
f 307/1/5 301/1/5 306/1/5
f 308/2/5 302/2/5 307/2/5
f 309/2/6 310/2/6 315/2/6
f 310/1/6 311/1/6 316/1/6
f 315/2/6 310/2/6 316/2/6
f 311/2/6 312/2/6 317/2/6
f 316/1/6 311/1/6 317/1/6
f 312/3/6 313/3/6 318/3/6
f 317/2/6 312/2/6 318/2/6
f 318/3/6 313/3/6 319/3/6
f 314/1/6 315/1/6 322/1/6
f 315/2/6 316/2/6 323/2/6
f 322/1/6 315/1/6 323/1/6
f 316/3/6 317/3/6 324/3/6
f 323/2/6 316/2/6 324/2/6
f 317/1/6 318/1/6 325/1/6
f 324/3/6 317/3/6 325/3/6
f 318/1/6 319/1/6 325/1/6
f 325/1/6 319/1/6 326/1/6
f 319/2/6 320/2/6 327/2/6
f 326/1/6 319/1/6 327/1/6
f 327/2/6 320/2/6 328/2/6
f 322/1/6 323/1/6 331/1/6
f 321/1/6 322/1/6 331/1/6
f 331/1/6 323/1/6 332/1/6
f 332/1/6 323/1/6 333/1/6
f 327/1/6 328/1/6 334/1/6
f 328/3/6 329/3/6 335/3/6
f 334/1/6 328/1/6 335/1/6
f 335/3/6 329/3/6 336/3/6
f 330/2/6 331/2/6 338/2/6
f 331/1/6 332/1/6 339/1/6
f 338/2/6 331/2/6 339/2/6
f 339/1/6 332/1/6 340/1/6
f 336/2/6 337/2/6 341/2/6
f 335/2/6 336/2/6 341/2/6
f 341/2/6 337/2/6 342/2/6
f 342/2/6 337/2/6 343/2/6
f 338/1/6 339/1/6 344/1/6
f 339/2/6 340/2/6 345/2/6
f 344/1/6 339/1/6 345/1/6
f 345/2/6 340/2/6 346/2/6
f 341/3/6 342/3/6 347/3/6
f 342/1/6 343/1/6 348/1/6
f 347/3/6 342/3/6 348/3/6
f 348/1/6 343/1/6 349/1/6
f 344/3/6 345/3/6 350/3/6
f 345/1/6 346/1/6 351/1/6
f 350/3/6 345/3/6 351/3/6
f 351/1/6 346/1/6 352/1/6
f 347/1/6 348/1/6 353/1/6
f 348/2/6 349/2/6 354/2/6
f 353/1/6 348/1/6 354/1/6
f 354/2/6 349/2/6 355/2/6
f 350/2/6 351/2/6 356/2/6
f 351/1/6 352/1/6 357/1/6
f 356/2/6 351/2/6 357/2/6
f 357/1/6 352/1/6 358/1/6
f 353/2/6 354/2/6 361/2/6
f 354/1/6 355/1/6 362/1/6
f 361/2/6 354/2/6 362/2/6
f 362/1/6 355/1/6 363/1/6
f 357/2/6 358/2/6 364/2/6
f 358/1/6 359/1/6 365/1/6
f 364/2/6 358/2/6 365/2/6
f 365/1/6 359/1/6 366/1/6
f 360/3/6 361/3/6 370/3/6
f 361/1/6 362/1/6 371/1/6
f 370/3/6 361/3/6 371/3/6
f 371/1/6 362/1/6 372/1/6
f 365/1/6 366/1/6 373/1/6
f 366/2/6 367/2/6 374/2/6
f 373/1/6 366/1/6 374/1/6
f 367/1/6 368/1/6 375/1/6
f 374/2/6 367/2/6 375/2/6
f 368/3/6 369/3/6 376/3/6
f 375/1/6 368/1/6 376/1/6
f 369/1/6 370/1/6 377/1/6
f 376/3/6 369/3/6 377/3/6
f 370/2/6 371/2/6 378/2/6
f 377/1/6 370/1/6 378/1/6
f 378/2/6 371/2/6 379/2/6
f 374/3/6 375/3/6 380/3/6
f 375/2/6 376/2/6 381/2/6
f 380/3/6 375/3/6 381/3/6
f 376/1/6 377/1/6 382/1/6
f 381/2/6 376/2/6 382/2/6
f 377/2/6 378/2/6 383/2/6
f 382/1/6 377/1/6 383/1/6
f 383/2/6 378/2/6 384/2/6
f 385/1/6 386/1/6 391/1/6
f 386/2/6 387/2/6 392/2/6
f 391/1/6 386/1/6 392/1/6
f 387/1/6 388/1/6 393/1/6
f 392/2/6 387/2/6 393/2/6
f 388/2/6 389/2/6 394/2/6
f 393/1/6 388/1/6 394/1/6
f 394/2/6 389/2/6 395/2/6
f 390/1/6 391/1/6 397/1/6
f 397/1/6 391/1/6 398/1/6
f 395/1/6 396/1/6 399/1/6
f 399/1/6 396/1/6 400/1/6
f 397/3/6 398/3/6 401/3/6
f 401/3/6 398/3/6 402/3/6
f 399/2/6 400/2/6 403/2/6
f 403/2/6 400/2/6 404/2/6
f 401/1/6 402/1/6 405/1/6
f 405/1/6 402/1/6 406/1/6
f 403/1/6 404/1/6 407/1/6
f 405/2/6 406/2/6 408/2/6
f 408/2/6 406/2/6 409/2/6
f 407/1/6 404/1/6 413/1/6
f 413/1/6 404/1/6 414/1/6
f 409/1/6 410/1/6 415/1/6
f 410/1/6 411/1/6 415/1/6
f 411/2/6 412/2/6 416/2/6
f 415/1/6 411/1/6 416/1/6
f 412/1/6 413/1/6 417/1/6
f 416/2/6 412/2/6 417/2/6
f 417/1/6 413/1/6 418/1/6
f 419/2/6 420/2/6 424/2/6
f 420/1/6 421/1/6 425/1/6
f 424/2/6 420/2/6 425/2/6
f 421/3/6 422/3/6 426/3/6
f 425/1/6 421/1/6 426/1/6
f 422/2/6 423/2/6 427/2/6
f 426/3/6 422/3/6 427/3/6
f 427/2/6 423/2/6 428/2/6
f 425/1/6 426/1/6 429/1/6
f 424/1/6 425/1/6 429/1/6
f 427/1/6 428/1/6 429/1/6
f 426/1/6 427/1/6 429/1/6
f 429/1/6 428/1/6 430/1/6
f 430/1/6 428/1/6 431/1/6
f 431/1/6 428/1/6 432/1/6
f 429/2/6 430/2/6 433/2/6
f 430/1/6 431/1/6 434/1/6
f 433/2/6 430/2/6 434/2/6
f 434/1/6 431/1/6 435/1/6
f 431/3/6 432/3/6 436/3/6
f 435/1/6 431/1/6 436/1/6
f 436/3/6 432/3/6 437/3/6
f 433/3/6 434/3/6 438/3/6
f 434/2/6 435/2/6 439/2/6
f 438/3/6 434/3/6 439/3/6
f 435/1/6 436/1/6 440/1/6
f 439/2/6 435/2/6 440/2/6
f 436/2/6 437/2/6 441/2/6
f 440/1/6 436/1/6 441/1/6
f 441/2/6 437/2/6 442/2/6
