# MagicaVoxel @ Ephtracy

# group
o 

# material
mtllib Straight_Dirt_Path.mtl
usemtl palette

# normals
vn -1 0 0
vn 1 0 0
vn 0 0 1
vn 0 0 -1
vn 0 -1 0
vn 0 1 0

# texcoords
vt 0.537109 0.5
vt 0.904297 0.5
vt 0.978516 0.5

# verts
v -2 0 2
v -2 0 -2
v -2 0.3 2
v -2 0.3 -2
v -2 0.5 2
v -2 0.5 -2
v -2 0.7 2
v -2 0.7 -2
v -1.9 0.7 0.0999999
v -1.9 0.7 -0.1
v -1.9 0.7 -1.3
v -1.9 0.7 -1.5
v -1.9 0.8 0.0999999
v -1.9 0.8 -0.1
v -1.9 0.8 -1.3
v -1.9 0.8 -1.5
v -1.8 0.7 1.7
v -1.8 0.7 1.1
v -1.8 0.7 0.8
v -1.8 0.7 0.6
v -1.8 0.7 -0.3
v -1.8 0.7 -0.8
v -1.8 0.7 -1.2
v -1.8 0.7 -1.3
v -1.8 0.7 -1.5
v -1.8 0.7 -1.6
v -1.8 0.8 1.7
v -1.8 0.8 1.1
v -1.8 0.8 0.8
v -1.8 0.8 0.6
v -1.8 0.8 -0.3
v -1.8 0.8 -0.8
v -1.8 0.8 -1.3
v -1.8 0.8 -1.5
v -1.8 0.8 -1.6
v -1.8 0.9 -1.2
v -1.8 0.9 -1.5
v -1.7 0.7 1
v -1.7 0.7 0.9
v -1.7 0.7 -1.1
v -1.7 0.7 -1.2
v -1.7 0.7 -1.6
v -1.7 0.7 -1.8
v -1.7 0.8 1
v -1.7 0.8 0.9
v -1.7 0.8 -1.1
v -1.7 0.8 -1.2
v -1.7 0.8 -1.6
v -1.7 0.8 -1.8
v -1.7 0.9 -1.3
v -1.7 0.9 -1.5
v -1.7 1 -1.3
v -1.7 1 -1.5
v -1.6 0.7 1.6
v -1.6 0.7 1.5
v -1.6 0.7 0.9
v -1.6 0.7 0.8
v -1.6 0.7 0.6
v -1.6 0.7 0.5
v -1.6 0.7 0.3
v -1.6 0.7 0.0999999
v -1.6 0.7 -0.1
v -1.6 0.7 -0.2
v -1.6 0.8 1.6
v -1.6 0.8 1.5
v -1.6 0.8 0.9
v -1.6 0.8 0.8
v -1.6 0.8 0.6
v -1.6 0.8 0.5
v -1.6 0.8 0.3
v -1.6 0.8 0.0999999
v -1.6 0.8 -0.1
v -1.6 0.8 -0.2
v -1.5 0.7 -0.3
v -1.5 0.7 -0.4
v -1.5 0.7 -0.7
v -1.5 0.7 -0.8
v -1.5 0.8 -0.3
v -1.5 0.8 -0.4
v -1.5 0.8 -0.7
v -1.5 0.8 -0.8
v -1.3 0.7 0.5
v -1.3 0.7 0.2
v -1.3 0.8 0.5
v -1.3 0.8 0.2
v -1.2 0.6 1.2
v -1.2 0.6 1.1
v -1.2 0.6 -0.2
v -1.2 0.6 -0.3
v -1.2 0.7 1.2
v -1.2 0.7 1.1
v -1.2 0.7 -0.2
v -1.2 0.7 -0.3
v -1.1 0.6 1.8
v -1.1 0.6 1.7
v -1.1 0.6 0.9
v -1.1 0.6 0.8
v -1.1 0.6 0.3
v -1.1 0.6 0.2
v -1.1 0.6 -0.5
v -1.1 0.6 -0.6
v -1.1 0.6 -1.2
v -1.1 0.6 -1.3
v -1.1 0.7 1.8
v -1.1 0.7 1.7
v -1.1 0.7 0.9
v -1.1 0.7 0.8
v -1.1 0.7 0.3
v -1.1 0.7 0.2
v -1.1 0.7 -0.5
v -1.1 0.7 -0.6
v -1.1 0.7 -1.2
v -1.1 0.7 -1.3
v -1 0.6 1.5
v -1 0.6 1.4
v -1 0.6 1.3
v -1 0.6 1.2
v -1 0.6 0.6
v -1 0.6 0.5
v -1 0.6 -2.38419e-07
v -1 0.6 -0.2
v -1 0.6 -0.8
v -1 0.6 -0.9
v -1 0.6 -1.5
v -1 0.6 -1.6
v -1 0.7 1.5
v -1 0.7 1.4
v -1 0.7 1.3
v -1 0.7 1.2
v -1 0.7 0.6
v -1 0.7 0.5
v -1 0.7 -2.38419e-07
v -1 0.7 -0.2
v -1 0.7 -0.8
v -1 0.7 -0.9
v -1 0.7 -1.5
v -1 0.7 -1.6
v -0.9 0.6 2
v -0.9 0.6 1.9
v -0.9 0.6 1.1
v -0.9 0.6 1
v -0.9 0.6 0.4
v -0.9 0.6 0.3
v -0.9 0.6 -1.1
v -0.9 0.6 -1.2
v -0.9 0.6 -1.6
v -0.9 0.6 -1.7
v -0.9 0.7 2
v -0.9 0.7 1.9
v -0.9 0.7 1.1
v -0.9 0.7 1
v -0.9 0.7 0.4
v -0.9 0.7 0.3
v -0.9 0.7 -1.1
v -0.9 0.7 -1.2
v -0.9 0.7 -1.6
v -0.9 0.7 -1.7
v -0.8 0.6 0.2
v -0.8 0.6 -2.38419e-07
v -0.8 0.6 -1.3
v -0.8 0.6 -1.4
v -0.8 0.7 0.2
v -0.8 0.7 -2.38419e-07
v -0.8 0.7 -1.3
v -0.8 0.7 -1.4
v 0.7 0.6 -1.4
v 0.7 0.6 -1.6
v 0.7 0.6 -1.9
v 0.7 0.6 -2
v 0.7 0.7 -1.4
v 0.7 0.7 -1.6
v 0.7 0.7 -1.9
v 0.7 0.7 -2
v 0.8 0.6 1.7
v 0.8 0.6 0.9
v 0.8 0.6 0.4
v 0.8 0.6 0.0999999
v 0.8 0.6 -0.8
v 0.8 0.6 -1
v 0.8 0.6 -1.2
v 0.8 0.6 -1.4
v 0.8 0.6 -1.6
v 0.8 0.6 -1.9
v 0.8 0.7 1.7
v 0.8 0.7 0.9
v 0.8 0.7 0.4
v 0.8 0.7 0.0999999
v 0.8 0.7 -0.8
v 0.8 0.7 -1
v 0.8 0.7 -1.2
v 0.8 0.7 -1.4
v 0.8 0.7 -1.6
v 0.8 0.7 -1.9
v 0.9 0.6 1.8
v 0.9 0.6 1.7
v 0.9 0.6 0.9
v 0.9 0.6 0.8
v 0.9 0.6 0.0999999
v 0.9 0.6 -0.2
v 0.9 0.6 -0.6
v 0.9 0.6 -0.8
v 0.9 0.6 -1
v 0.9 0.6 -1.2
v 0.9 0.7 1.8
v 0.9 0.7 1.7
v 0.9 0.7 0.9
v 0.9 0.7 0.8
v 0.9 0.7 0.0999999
v 0.9 0.7 -0.2
v 0.9 0.7 -0.6
v 0.9 0.7 -0.8
v 0.9 0.7 -1
v 0.9 0.7 -1.2
v 1 0.6 2
v 1 0.6 1.9
v 1 0.6 1.4
v 1 0.6 1.3
v 1 0.6 1.2
v 1 0.6 1.1
v 1 0.6 0.8
v 1 0.6 0.4
v 1 0.6 0.3
v 1 0.6 0.2
v 1 0.6 -0.2
v 1 0.6 -0.4
v 1 0.6 -0.5
v 1 0.6 -0.6
v 1 0.6 -1.4
v 1 0.6 -1.5
v 1 0.6 -1.6
v 1 0.6 -1.7
v 1 0.7 2
v 1 0.7 1.9
v 1 0.7 1.4
v 1 0.7 1.3
v 1 0.7 1.2
v 1 0.7 1.1
v 1 0.7 0.8
v 1 0.7 0.4
v 1 0.7 0.3
v 1 0.7 0.2
v 1 0.7 -0.2
v 1 0.7 -0.4
v 1 0.7 -0.5
v 1 0.7 -0.6
v 1 0.7 -1.4
v 1 0.7 -1.5
v 1 0.7 -1.6
v 1 0.7 -1.7
v 1.1 0.6 1.9
v 1.1 0.6 1.8
v 1.1 0.6 1.7
v 1.1 0.6 1.6
v 1.1 0.6 -0.4
v 1.1 0.6 -0.5
v 1.1 0.6 -0.6
v 1.1 0.6 -0.7
v 1.1 0.6 -1.1
v 1.1 0.6 -1.2
v 1.1 0.7 1.9
v 1.1 0.7 1.8
v 1.1 0.7 1.7
v 1.1 0.7 1.6
v 1.1 0.7 -0.4
v 1.1 0.7 -0.5
v 1.1 0.7 -0.6
v 1.1 0.7 -0.7
v 1.1 0.7 -1.1
v 1.1 0.7 -1.2
v 1.2 0.6 1
v 1.2 0.6 0.9
v 1.2 0.6 0.6
v 1.2 0.6 0.5
v 1.2 0.6 0.4
v 1.2 0.6 0.3
v 1.2 0.6 -0.1
v 1.2 0.6 -0.2
v 1.2 0.6 -1.8
v 1.2 0.6 -1.9
v 1.2 0.7 1.2
v 1.2 0.7 1.1
v 1.2 0.7 1
v 1.2 0.7 0.9
v 1.2 0.7 0.6
v 1.2 0.7 0.5
v 1.2 0.7 0.4
v 1.2 0.7 0.3
v 1.2 0.7 -0.1
v 1.2 0.7 -0.2
v 1.2 0.7 -1.8
v 1.2 0.7 -1.9
v 1.2 0.8 1.2
v 1.2 0.8 1.1
v 1.3 0.6 1.7
v 1.3 0.6 1.6
v 1.3 0.6 0.9
v 1.3 0.6 0.8
v 1.3 0.6 -0.8
v 1.3 0.6 -0.9
v 1.3 0.7 1.7
v 1.3 0.7 1.6
v 1.3 0.7 0.9
v 1.3 0.7 0.8
v 1.3 0.7 -0.8
v 1.3 0.7 -0.9
v 1.3 0.7 -1.2
v 1.3 0.7 -1.3
v 1.3 0.8 -1.2
v 1.3 0.8 -1.3
v 1.4 0.6 0.2
v 1.4 0.6 0.0999999
v 1.4 0.7 1.6
v 1.4 0.7 1.5
v 1.4 0.7 0.2
v 1.4 0.7 0.0999999
v 1.4 0.8 1.6
v 1.4 0.8 1.5
v 1.5 0.7 0.8
v 1.5 0.7 0.6
v 1.5 0.7 0.0999999
v 1.5 0.7 -0.1
v 1.5 0.7 -0.7
v 1.5 0.7 -0.8
v 1.5 0.7 -1.5
v 1.5 0.7 -1.6
v 1.5 0.7 -1.7
v 1.5 0.7 -1.9
v 1.5 0.8 0.8
v 1.5 0.8 0.6
v 1.5 0.8 0.0999999
v 1.5 0.8 -0.1
v 1.5 0.8 -0.7
v 1.5 0.8 -0.8
v 1.5 0.8 -1.5
v 1.5 0.8 -1.6
v 1.5 0.8 -1.7
v 1.5 0.8 -1.9
v 1.6 0.7 1.5
v 1.6 0.7 1.3
v 1.6 0.7 0.2
v 1.6 0.7 0.0999999
v 1.6 0.7 -0.3
v 1.6 0.7 -0.6
v 1.6 0.7 -0.8
v 1.6 0.7 -1.1
v 1.6 0.8 1.5
v 1.6 0.8 1.3
v 1.6 0.8 0.2
v 1.6 0.8 0.0999999
v 1.6 0.8 -0.3
v 1.6 0.8 -0.6
v 1.6 0.8 -0.8
v 1.6 0.8 -1.1
v 1.7 0.7 0.8
v 1.7 0.7 0.7
v 1.7 0.7 -1.4
v 1.7 0.7 -1.5
v 1.7 0.8 0.8
v 1.7 0.8 0.7
v 1.7 0.8 -1.4
v 1.7 0.8 -1.5
v -1.7 0.7 1.6
v -1.7 0.7 1.1
v -1.7 0.8 1.6
v -1.7 0.8 1.1
v -1.6 0.7 -0.3
v -1.6 0.7 -0.5
v -1.6 0.7 -0.7
v -1.6 0.7 -0.8
v -1.6 0.8 -0.3
v -1.6 0.8 -0.5
v -1.6 0.8 -0.7
v -1.6 0.8 -0.8
v -1.5 0.7 0.3
v -1.5 0.7 -0.2
v -1.5 0.7 -1.1
v -1.5 0.7 -1.2
v -1.5 0.7 -1.6
v -1.5 0.7 -1.8
v -1.5 0.8 0.3
v -1.5 0.8 -0.2
v -1.5 0.8 -1.1
v -1.5 0.8 -1.2
v -1.5 0.8 -1.6
v -1.5 0.8 -1.8
v -1.5 0.9 -1.3
v -1.5 0.9 -1.5
v -1.5 1 -1.3
v -1.5 1 -1.5
v -1.4 0.7 1.7
v -1.4 0.7 1.5
v -1.4 0.7 1
v -1.4 0.7 0.5
v -1.4 0.7 -0.3
v -1.4 0.7 -0.4
v -1.4 0.7 -0.5
v -1.4 0.7 -0.6
v -1.4 0.7 -1.2
v -1.4 0.7 -1.3
v -1.4 0.7 -1.5
v -1.4 0.7 -1.6
v -1.4 0.8 1.7
v -1.4 0.8 1.5
v -1.4 0.8 1
v -1.4 0.8 0.5
v -1.4 0.8 -0.3
v -1.4 0.8 -0.4
v -1.4 0.8 -0.5
v -1.4 0.8 -0.6
v -1.4 0.8 -1.3
v -1.4 0.8 -1.5
v -1.4 0.8 -1.6
v -1.4 0.9 -1.2
v -1.4 0.9 -1.5
v -1.3 0.6 1.2
v -1.3 0.6 1.1
v -1.3 0.6 -0.2
v -1.3 0.6 -0.3
v -1.3 0.7 1.2
v -1.3 0.7 1.1
v -1.3 0.7 -0.2
v -1.3 0.7 -0.3
v -1.3 0.7 -0.6
v -1.3 0.7 -0.8
v -1.3 0.7 -1.3
v -1.3 0.7 -1.5
v -1.3 0.8 -0.6
v -1.3 0.8 -0.8
v -1.3 0.8 -1.3
v -1.3 0.8 -1.5
v -1.2 0.6 1.8
v -1.2 0.6 1.7
v -1.2 0.6 0.9
v -1.2 0.6 0.8
v -1.2 0.6 0.3
v -1.2 0.6 0.2
v -1.2 0.6 -0.5
v -1.2 0.6 -0.6
v -1.2 0.6 -1.2
v -1.2 0.6 -1.3
v -1.2 0.7 1.8
v -1.2 0.7 1.7
v -1.2 0.7 0.9
v -1.2 0.7 0.8
v -1.2 0.7 0.5
v -1.2 0.7 0.3
v -1.2 0.7 0.2
v -1.2 0.7 -0.5
v -1.2 0.7 -0.6
v -1.2 0.7 -1.2
v -1.2 0.7 -1.3
v -1.2 0.8 0.5
v -1.2 0.8 0.2
v -1.1 0.6 1.5
v -1.1 0.6 1.4
v -1.1 0.6 1.3
v -1.1 0.6 1.2
v -1.1 0.6 0.6
v -1.1 0.6 0.5
v -1.1 0.6 -2.38419e-07
v -1.1 0.6 -0.2
v -1.1 0.6 -0.8
v -1.1 0.6 -0.9
v -1.1 0.6 -1.5
v -1.1 0.6 -1.6
v -1.1 0.7 1.5
v -1.1 0.7 1.4
v -1.1 0.7 1.3
v -1.1 0.7 1.2
v -1.1 0.7 0.6
v -1.1 0.7 0.5
v -1.1 0.7 -2.38419e-07
v -1.1 0.7 -0.2
v -1.1 0.7 -0.8
v -1.1 0.7 -0.9
v -1.1 0.7 -1.5
v -1.1 0.7 -1.6
v -1 0.6 2
v -1 0.6 1.9
v -1 0.6 1.1
v -1 0.6 1
v -1 0.6 0.4
v -1 0.6 0.3
v -1 0.6 -0.3
v -1 0.6 -0.4
v -1 0.6 -1.1
v -1 0.6 -1.2
v -1 0.6 -1.6
v -1 0.6 -1.9
v -1 0.7 2
v -1 0.7 1.9
v -1 0.7 1.1
v -1 0.7 1
v -1 0.7 0.4
v -1 0.7 0.3
v -1 0.7 -0.3
v -1 0.7 -0.4
v -1 0.7 -1.1
v -1 0.7 -1.2
v -1 0.7 -1.6
v -1 0.7 -1.9
v -0.9 0.6 1.8
v -0.9 0.6 1.7
v -0.9 0.6 1.4
v -0.9 0.6 1.2
v -0.9 0.6 1
v -0.9 0.6 0.6
v -0.9 0.6 0.5
v -0.9 0.6 0.4
v -0.9 0.6 0.2
v -0.9 0.6 -0.3
v -0.9 0.6 -0.4
v -0.9 0.6 -0.6
v -0.9 0.6 -0.9
v -0.9 0.6 -1
v -0.9 0.6 -1.3
v -0.9 0.6 -1.4
v -0.9 0.7 1.8
v -0.9 0.7 1.7
v -0.9 0.7 1.4
v -0.9 0.7 1.2
v -0.9 0.7 1
v -0.9 0.7 0.6
v -0.9 0.7 0.5
v -0.9 0.7 0.4
v -0.9 0.7 0.2
v -0.9 0.7 -0.3
v -0.9 0.7 -0.4
v -0.9 0.7 -0.6
v -0.9 0.7 -0.9
v -0.9 0.7 -1
v -0.9 0.7 -1.3
v -0.9 0.7 -1.4
v -0.8 0.6 2
v -0.8 0.6 1.8
v -0.8 0.6 1.7
v -0.8 0.6 1.5
v -0.8 0.6 1.2
v -0.8 0.6 1
v -0.8 0.6 0.4
v -0.8 0.6 0.3
v -0.8 0.6 -0.6
v -0.8 0.6 -0.8
v -0.8 0.6 -1
v -0.8 0.6 -1.3
v -0.8 0.6 -1.5
v -0.8 0.6 -1.7
v -0.8 0.6 -1.9
v -0.8 0.6 -2
v -0.8 0.7 2
v -0.8 0.7 1.8
v -0.8 0.7 1.7
v -0.8 0.7 1.5
v -0.8 0.7 1.2
v -0.8 0.7 1
v -0.8 0.7 0.4
v -0.8 0.7 0.3
v -0.8 0.7 -0.6
v -0.8 0.7 -0.8
v -0.8 0.7 -1
v -0.8 0.7 -1.3
v -0.8 0.7 -1.5
v -0.8 0.7 -1.7
v -0.8 0.7 -1.9
v -0.8 0.7 -2
v -0.7 0.6 1.5
v -0.7 0.6 1.4
v -0.7 0.6 0.6
v -0.7 0.6 0.5
v -0.7 0.6 0.3
v -0.7 0.6 -2.38419e-07
v -0.7 0.6 -0.8
v -0.7 0.6 -0.9
v -0.7 0.6 -1.3
v -0.7 0.6 -1.5
v -0.7 0.7 1.5
v -0.7 0.7 1.4
v -0.7 0.7 0.6
v -0.7 0.7 0.5
v -0.7 0.7 0.3
v -0.7 0.7 -2.38419e-07
v -0.7 0.7 -0.8
v -0.7 0.7 -0.9
v -0.7 0.7 -1.3
v -0.7 0.7 -1.5
v 0.9 0.6 1.4
v 0.9 0.6 1.3
v 0.9 0.6 1.2
v 0.9 0.6 1.1
v 0.9 0.6 0.3
v 0.9 0.6 0.2
v 0.9 0.6 -1.4
v 0.9 0.6 -1.5
v 0.9 0.6 -1.6
v 0.9 0.6 -1.7
v 0.9 0.7 1.4
v 0.9 0.7 1.3
v 0.9 0.7 1.2
v 0.9 0.7 1.1
v 0.9 0.7 0.3
v 0.9 0.7 0.2
v 0.9 0.7 -1.4
v 0.9 0.7 -1.5
v 0.9 0.7 -1.6
v 0.9 0.7 -1.7
v 1 0.6 1.7
v 1 0.6 1.6
v 1 0.6 -0.6
v 1 0.6 -0.7
v 1 0.6 -1.1
v 1 0.6 -1.2
v 1 0.7 1.7
v 1 0.7 1.6
v 1 0.7 -0.6
v 1 0.7 -0.7
v 1 0.7 -1.1
v 1 0.7 -1.2
v 1.1 0.6 1
v 1.1 0.6 0.9
v 1.1 0.6 0.6
v 1.1 0.6 0.5
v 1.1 0.6 0.4
v 1.1 0.6 0.3
v 1.1 0.6 -0.1
v 1.1 0.6 -0.2
v 1.1 0.6 -1.8
v 1.1 0.6 -1.9
v 1.1 0.7 1
v 1.1 0.7 0.9
v 1.1 0.7 0.6
v 1.1 0.7 0.5
v 1.1 0.7 0.4
v 1.1 0.7 0.3
v 1.1 0.7 -0.1
v 1.1 0.7 -0.2
v 1.1 0.7 -1.8
v 1.1 0.7 -1.9
v 1.2 0.6 1.7
v 1.2 0.6 1.6
v 1.2 0.6 0.9
v 1.2 0.6 0.8
v 1.2 0.6 -0.8
v 1.2 0.6 -0.9
v 1.2 0.7 1.7
v 1.2 0.7 1.6
v 1.2 0.7 0.9
v 1.2 0.7 0.8
v 1.2 0.7 -0.8
v 1.2 0.7 -0.9
v 1.3 0.6 0.2
v 1.3 0.6 0.0999999
v 1.3 0.7 1.2
v 1.3 0.7 1.1
v 1.3 0.7 0.2
v 1.3 0.7 0.0999999
v 1.3 0.8 1.2
v 1.3 0.8 1.1
v 1.4 0.7 -1.2
v 1.4 0.7 -1.3
v 1.4 0.8 -1.2
v 1.4 0.8 -1.3
v 1.5 0.7 1.6
v 1.5 0.7 1.5
v 1.5 0.8 1.6
v 1.5 0.8 1.5
v 1.6 0.7 0.8
v 1.6 0.7 0.6
v 1.6 0.7 0.0999999
v 1.6 0.7 -0.1
v 1.6 0.7 -1.5
v 1.6 0.7 -1.6
v 1.6 0.7 -1.7
v 1.6 0.7 -1.9
v 1.6 0.8 0.8
v 1.6 0.8 0.6
v 1.6 0.8 0.0999999
v 1.6 0.8 -0.1
v 1.6 0.8 -1.5
v 1.6 0.8 -1.6
v 1.6 0.8 -1.7
v 1.6 0.8 -1.9
v 1.7 0.7 1.5
v 1.7 0.7 1.3
v 1.7 0.7 0.2
v 1.7 0.7 0.0999999
v 1.7 0.7 -0.7
v 1.7 0.7 -1.1
v 1.7 0.8 1.5
v 1.7 0.8 1.3
v 1.7 0.8 0.2
v 1.7 0.8 0.0999999
v 1.7 0.8 -0.7
v 1.7 0.8 -1.1
v 1.8 0.7 0.8
v 1.8 0.7 0.7
v 1.8 0.7 -0.3
v 1.8 0.7 -0.6
v 1.8 0.7 -1.4
v 1.8 0.7 -1.5
v 1.8 0.8 0.8
v 1.8 0.8 0.7
v 1.8 0.8 -0.3
v 1.8 0.8 -0.6
v 1.8 0.8 -1.4
v 1.8 0.8 -1.5
v 2 0 2
v 2 0 -2
v 2 0.3 2
v 2 0.3 -2
v 2 0.5 2
v 2 0.5 -2
v 2 0.7 2
v 2 0.7 -2
v -2 0 2
v -2 0.3 2
v -2 0.5 2
v -2 0.7 2
v -1 0.5 2
v -1 0.6 2
v -1 0.7 2
v -0.9 0.5 2
v -0.9 0.6 2
v -0.9 0.7 2
v -0.8 0.5 2
v -0.8 0.6 2
v -0.8 0.7 2
v 1 0.5 2
v 1 0.6 2
v 1 0.7 2
v 2 0 2
v 2 0.3 2
v 2 0.5 2
v 2 0.7 2
v -1 0.6 1.9
v -1 0.7 1.9
v -0.9 0.6 1.9
v -0.9 0.7 1.9
v 0.9 0.6 1.8
v 0.9 0.7 1.8
v 1.1 0.6 1.8
v 1.1 0.7 1.8
v -1.8 0.7 1.7
v -1.8 0.8 1.7
v -1.4 0.7 1.7
v -1.4 0.8 1.7
v -1.2 0.6 1.7
v -1.2 0.7 1.7
v -1.1 0.6 1.7
v -1.1 0.7 1.7
v -0.9 0.6 1.7
v -0.9 0.7 1.7
v -0.8 0.6 1.7
v -0.8 0.7 1.7
v 0.8 0.6 1.7
v 0.8 0.7 1.7
v 0.9 0.6 1.7
v 0.9 0.7 1.7
v 1 0.6 1.6
v 1 0.7 1.6
v 1.1 0.6 1.6
v 1.1 0.7 1.6
v 1.2 0.6 1.6
v 1.2 0.7 1.6
v 1.3 0.6 1.6
v 1.3 0.7 1.6
v 1.4 0.7 1.6
v 1.4 0.8 1.6
v 1.5 0.7 1.6
v 1.5 0.8 1.6
v -0.8 0.6 1.5
v -0.8 0.7 1.5
v -0.7 0.6 1.5
v -0.7 0.7 1.5
v 1.6 0.7 1.5
v 1.6 0.8 1.5
v 1.7 0.7 1.5
v 1.7 0.8 1.5
v -1.1 0.6 1.4
v -1.1 0.7 1.4
v -1 0.6 1.4
v -1 0.7 1.4
v 0.9 0.6 1.3
v 0.9 0.7 1.3
v 1 0.6 1.3
v 1 0.7 1.3
v -1.1 0.6 1.2
v -1.1 0.7 1.2
v -1 0.6 1.2
v -1 0.7 1.2
v -0.9 0.6 1.2
v -0.9 0.7 1.2
v -0.8 0.6 1.2
v -0.8 0.7 1.2
v 1.2 0.7 1.2
v 1.2 0.8 1.2
v 1.3 0.7 1.2
v 1.3 0.8 1.2
v -1.3 0.6 1.1
v -1.3 0.7 1.1
v -1.2 0.6 1.1
v -1.2 0.7 1.1
v 0.9 0.6 1.1
v 0.9 0.7 1.1
v 1 0.6 1.1
v 1 0.7 1.1
v -1.7 0.7 1
v -1.7 0.8 1
v -1.4 0.7 1
v -1.4 0.8 1
v -1 0.6 1
v -1 0.7 1
v -0.9 0.6 1
v -0.9 0.7 1
v 1.1 0.6 0.9
v 1.1 0.7 0.9
v 1.2 0.6 0.9
v 1.2 0.7 0.9
v -1.8 0.7 0.8
v -1.8 0.8 0.8
v -1.6 0.7 0.8
v -1.6 0.8 0.8
v -1.2 0.6 0.8
v -1.2 0.7 0.8
v -1.1 0.6 0.8
v -1.1 0.7 0.8
v 1.2 0.6 0.8
v 1.2 0.7 0.8
v 1.3 0.6 0.8
v 1.3 0.7 0.8
v 1.5 0.7 0.8
v 1.5 0.8 0.8
v 1.6 0.7 0.8
v 1.6 0.8 0.8
v 1.7 0.7 0.8
v 1.7 0.8 0.8
v 1.8 0.7 0.8
v 1.8 0.8 0.8
v -0.9 0.6 0.6
v -0.9 0.7 0.6
v -0.7 0.6 0.6
v -0.7 0.7 0.6
v -1.3 0.7 0.5
v -1.3 0.8 0.5
v -1.2 0.7 0.5
v -1.2 0.8 0.5
v -1.1 0.6 0.5
v -1.1 0.7 0.5
v -1 0.6 0.5
v -1 0.7 0.5
v 1.1 0.6 0.5
v 1.1 0.7 0.5
v 1.2 0.6 0.5
v 1.2 0.7 0.5
v -0.9 0.6 0.4
v -0.9 0.7 0.4
v -0.8 0.6 0.4
v -0.8 0.7 0.4
v 0.8 0.6 0.4
v 0.8 0.7 0.4
v 1 0.6 0.4
v 1 0.7 0.4
v -1.6 0.7 0.3
v -1.6 0.8 0.3
v -1.5 0.7 0.3
v -1.5 0.8 0.3
v -1 0.6 0.3
v -1 0.7 0.3
v -0.9 0.6 0.3
v -0.9 0.7 0.3
v -0.8 0.6 0.3
v -0.8 0.7 0.3
v -0.7 0.6 0.3
v -0.7 0.7 0.3
v 1.1 0.6 0.3
v 1.1 0.7 0.3
v 1.2 0.6 0.3
v 1.2 0.7 0.3
v -1.2 0.6 0.2
v -1.2 0.7 0.2
v -1.1 0.6 0.2
v -1.1 0.7 0.2
v 0.9 0.6 0.2
v 0.9 0.7 0.2
v 1 0.6 0.2
v 1 0.7 0.2
v 1.6 0.7 0.2
v 1.6 0.8 0.2
v 1.7 0.7 0.2
v 1.7 0.8 0.2
v -1.9 0.7 0.0999999
v -1.9 0.8 0.0999999
v -1.6 0.7 0.0999999
v -1.6 0.8 0.0999999
v 1.3 0.6 0.0999999
v 1.3 0.7 0.0999999
v 1.4 0.6 0.0999999
v 1.4 0.7 0.0999999
v 1.5 0.7 0.0999999
v 1.5 0.8 0.0999999
v 1.6 0.7 0.0999999
v 1.6 0.8 0.0999999
v -1.1 0.6 -0.2
v -1.1 0.7 -0.2
v -1 0.6 -0.2
v -1 0.7 -0.2
v 1.1 0.6 -0.2
v 1.1 0.7 -0.2
v 1.2 0.6 -0.2
v 1.2 0.7 -0.2
v -1.8 0.7 -0.3
v -1.8 0.8 -0.3
v -1.6 0.7 -0.3
v -1.6 0.8 -0.3
v -1.5 0.7 -0.3
v -1.5 0.8 -0.3
v -1.4 0.7 -0.3
v -1.4 0.8 -0.3
v -1.3 0.6 -0.3
v -1.3 0.7 -0.3
v -1.2 0.6 -0.3
v -1.2 0.7 -0.3
v 1.6 0.7 -0.3
v 1.6 0.8 -0.3
v 1.8 0.7 -0.3
v 1.8 0.8 -0.3
v -1 0.6 -0.4
v -1 0.7 -0.4
v -0.9 0.6 -0.4
v -0.9 0.7 -0.4
v -1.6 0.7 -0.5
v -1.6 0.8 -0.5
v -1.4 0.7 -0.5
v -1.4 0.8 -0.5
v 1 0.6 -0.5
v 1 0.7 -0.5
v 1.1 0.6 -0.5
v 1.1 0.7 -0.5
v -1.4 0.7 -0.6
v -1.4 0.8 -0.6
v -1.3 0.7 -0.6
v -1.3 0.8 -0.6
v -1.2 0.6 -0.6
v -1.2 0.7 -0.6
v -1.1 0.6 -0.6
v -1.1 0.7 -0.6
v -0.9 0.6 -0.6
v -0.9 0.7 -0.6
v -0.8 0.6 -0.6
v -0.8 0.7 -0.6
v 0.9 0.6 -0.6
v 0.9 0.7 -0.6
v 1 0.6 -0.6
v 1 0.7 -0.6
v 1 0.6 -0.7
v 1 0.7 -0.7
v 1.1 0.6 -0.7
v 1.1 0.7 -0.7
v 1.5 0.7 -0.7
v 1.5 0.8 -0.7
v 1.7 0.7 -0.7
v 1.7 0.8 -0.7
v -0.8 0.6 -0.8
v -0.8 0.7 -0.8
v -0.7 0.6 -0.8
v -0.7 0.7 -0.8
v 0.8 0.6 -0.8
v 0.8 0.7 -0.8
v 0.9 0.6 -0.8
v 0.9 0.7 -0.8
v -1.1 0.6 -0.9
v -1.1 0.7 -0.9
v -1 0.6 -0.9
v -1 0.7 -0.9
v 1.2 0.6 -0.9
v 1.2 0.7 -0.9
v 1.3 0.6 -0.9
v 1.3 0.7 -0.9
v -0.9 0.6 -1
v -0.9 0.7 -1
v -0.8 0.6 -1
v -0.8 0.7 -1
v -1.7 0.7 -1.1
v -1.7 0.8 -1.1
v -1.5 0.7 -1.1
v -1.5 0.8 -1.1
v -1.8 0.7 -1.2
v -1.8 0.9 -1.2
v -1.7 0.7 -1.2
v -1.7 0.8 -1.2
v -1.5 0.7 -1.2
v -1.5 0.8 -1.2
v -1.4 0.7 -1.2
v -1.4 0.9 -1.2
v -1 0.6 -1.2
v -1 0.7 -1.2
v -0.9 0.6 -1.2
v -0.9 0.7 -1.2
v 0.8 0.6 -1.2
v 0.8 0.7 -1.2
v 0.9 0.6 -1.2
v 0.9 0.7 -1.2
v 1 0.6 -1.2
v 1 0.7 -1.2
v 1.1 0.6 -1.2
v 1.1 0.7 -1.2
v 1.3 0.7 -1.2
v 1.3 0.8 -1.2
v 1.4 0.7 -1.2
v 1.4 0.8 -1.2
v -1.9 0.7 -1.3
v -1.9 0.8 -1.3
v -1.8 0.7 -1.3
v -1.8 0.8 -1.3
v -1.7 0.9 -1.3
v -1.7 1 -1.3
v -1.5 0.9 -1.3
v -1.5 1 -1.3
v -1.4 0.7 -1.3
v -1.4 0.8 -1.3
v -1.3 0.7 -1.3
v -1.3 0.8 -1.3
v -1.2 0.6 -1.3
v -1.2 0.7 -1.3
v -1.1 0.6 -1.3
v -1.1 0.7 -1.3
v -0.8 0.6 -1.3
v -0.8 0.7 -1.3
v -0.7 0.6 -1.3
v -0.7 0.7 -1.3
v -0.9 0.6 -1.4
v -0.9 0.7 -1.4
v -0.8 0.6 -1.4
v -0.8 0.7 -1.4
v 0.7 0.6 -1.4
v 0.7 0.7 -1.4
v 0.8 0.6 -1.4
v 0.8 0.7 -1.4
v 1.7 0.7 -1.4
v 1.7 0.8 -1.4
v 1.8 0.7 -1.4
v 1.8 0.8 -1.4
v 0.9 0.6 -1.5
v 0.9 0.7 -1.5
v 1 0.6 -1.5
v 1 0.7 -1.5
v 1.5 0.7 -1.5
v 1.5 0.8 -1.5
v 1.6 0.7 -1.5
v 1.6 0.8 -1.5
v -1.1 0.6 -1.6
v -1.1 0.7 -1.6
v -1 0.6 -1.6
v -1 0.7 -1.6
v 0.9 0.6 -1.7
v 0.9 0.7 -1.7
v 1 0.6 -1.7
v 1 0.7 -1.7
v 1.5 0.7 -1.7
v 1.5 0.8 -1.7
v 1.6 0.7 -1.7
v 1.6 0.8 -1.7
v -1 0.6 -1.9
v -1 0.7 -1.9
v -0.8 0.6 -1.9
v -0.8 0.7 -1.9
v 0.7 0.6 -1.9
v 0.7 0.7 -1.9
v 0.8 0.6 -1.9
v 0.8 0.7 -1.9
v 1.1 0.6 -1.9
v 1.1 0.7 -1.9
v 1.2 0.6 -1.9
v 1.2 0.7 -1.9
v 1 0.6 1.9
v 1 0.7 1.9
v 1.1 0.6 1.9
v 1.1 0.7 1.9
v -1.2 0.6 1.8
v -1.2 0.7 1.8
v -1.1 0.6 1.8
v -1.1 0.7 1.8
v -0.9 0.6 1.8
v -0.9 0.7 1.8
v -0.8 0.6 1.8
v -0.8 0.7 1.8
v 1 0.6 1.7
v 1 0.7 1.7
v 1.1 0.6 1.7
v 1.1 0.7 1.7
v 1.2 0.6 1.7
v 1.2 0.7 1.7
v 1.3 0.6 1.7
v 1.3 0.7 1.7
v -1.7 0.7 1.6
v -1.7 0.8 1.6
v -1.6 0.7 1.6
v -1.6 0.8 1.6
v -1.6 0.7 1.5
v -1.6 0.8 1.5
v -1.4 0.7 1.5
v -1.4 0.8 1.5
v -1.1 0.6 1.5
v -1.1 0.7 1.5
v -1 0.6 1.5
v -1 0.7 1.5
v 1.4 0.7 1.5
v 1.4 0.8 1.5
v 1.5 0.7 1.5
v 1.5 0.8 1.5
v -0.9 0.6 1.4
v -0.9 0.7 1.4
v -0.7 0.6 1.4
v -0.7 0.7 1.4
v 0.9 0.6 1.4
v 0.9 0.7 1.4
v 1 0.6 1.4
v 1 0.7 1.4
v -1.1 0.6 1.3
v -1.1 0.7 1.3
v -1 0.6 1.3
v -1 0.7 1.3
v 1.6 0.7 1.3
v 1.6 0.8 1.3
v 1.7 0.7 1.3
v 1.7 0.8 1.3
v -1.3 0.6 1.2
v -1.3 0.7 1.2
v -1.2 0.6 1.2
v -1.2 0.7 1.2
v 0.9 0.6 1.2
v 0.9 0.7 1.2
v 1 0.6 1.2
v 1 0.7 1.2
v -1.8 0.7 1.1
v -1.8 0.8 1.1
v -1.7 0.7 1.1
v -1.7 0.8 1.1
v -1 0.6 1.1
v -1 0.7 1.1
v -0.9 0.6 1.1
v -0.9 0.7 1.1
v 1.2 0.7 1.1
v 1.2 0.8 1.1
v 1.3 0.7 1.1
v 1.3 0.8 1.1
v -0.9 0.6 1
v -0.9 0.7 1
v -0.8 0.6 1
v -0.8 0.7 1
v 1.1 0.6 1
v 1.1 0.7 1
v 1.2 0.6 1
v 1.2 0.7 1
v -1.7 0.7 0.9
v -1.7 0.8 0.9
v -1.6 0.7 0.9
v -1.6 0.8 0.9
v -1.2 0.6 0.9
v -1.2 0.7 0.9
v -1.1 0.6 0.9
v -1.1 0.7 0.9
v 0.8 0.6 0.9
v 0.8 0.7 0.9
v 0.9 0.6 0.9
v 0.9 0.7 0.9
v 1.2 0.6 0.9
v 1.2 0.7 0.9
v 1.3 0.6 0.9
v 1.3 0.7 0.9
v 0.9 0.6 0.8
v 0.9 0.7 0.8
v 1 0.6 0.8
v 1 0.7 0.8
v 1.7 0.7 0.7
v 1.7 0.8 0.7
v 1.8 0.7 0.7
v 1.8 0.8 0.7
v -1.8 0.7 0.6
v -1.8 0.8 0.6
v -1.6 0.7 0.6
v -1.6 0.8 0.6
v -1.1 0.6 0.6
v -1.1 0.7 0.6
v -1 0.6 0.6
v -1 0.7 0.6
v 1.1 0.6 0.6
v 1.1 0.7 0.6
v 1.2 0.6 0.6
v 1.2 0.7 0.6
v 1.5 0.7 0.6
v 1.5 0.8 0.6
v 1.6 0.7 0.6
v 1.6 0.8 0.6
v -1.6 0.7 0.5
v -1.6 0.8 0.5
v -1.4 0.7 0.5
v -1.4 0.8 0.5
v -0.9 0.6 0.5
v -0.9 0.7 0.5
v -0.7 0.6 0.5
v -0.7 0.7 0.5
v -1 0.6 0.4
v -1 0.7 0.4
v -0.9 0.6 0.4
v -0.9 0.7 0.4
v 1.1 0.6 0.4
v 1.1 0.7 0.4
v 1.2 0.6 0.4
v 1.2 0.7 0.4
v -1.2 0.6 0.3
v -1.2 0.7 0.3
v -1.1 0.6 0.3
v -1.1 0.7 0.3
v 0.9 0.6 0.3
v 0.9 0.7 0.3
v 1 0.6 0.3
v 1 0.7 0.3
v -1.3 0.7 0.2
v -1.3 0.8 0.2
v -1.2 0.7 0.2
v -1.2 0.8 0.2
v -0.9 0.6 0.2
v -0.9 0.7 0.2
v -0.8 0.6 0.2
v -0.8 0.7 0.2
v 1.3 0.6 0.2
v 1.3 0.7 0.2
v 1.4 0.6 0.2
v 1.4 0.7 0.2
v 0.8 0.6 0.0999999
v 0.8 0.7 0.0999999
v 0.9 0.6 0.0999999
v 0.9 0.7 0.0999999
v 1.6 0.7 0.0999999
v 1.6 0.8 0.0999999
v 1.7 0.7 0.0999999
v 1.7 0.8 0.0999999
v -1.1 0.6 -2.38419e-07
v -1.1 0.7 -2.38419e-07
v -1 0.6 -2.38419e-07
v -1 0.7 -2.38419e-07
v -0.8 0.6 -2.38419e-07
v -0.8 0.7 -2.38419e-07
v -0.7 0.6 -2.38419e-07
v -0.7 0.7 -2.38419e-07
v -1.9 0.7 -0.1
v -1.9 0.8 -0.1
v -1.6 0.7 -0.1
v -1.6 0.8 -0.1
v 1.1 0.6 -0.1
v 1.1 0.7 -0.1
v 1.2 0.6 -0.1
v 1.2 0.7 -0.1
v 1.5 0.7 -0.1
v 1.5 0.8 -0.1
v 1.6 0.7 -0.1
v 1.6 0.8 -0.1
v -1.6 0.7 -0.2
v -1.6 0.8 -0.2
v -1.5 0.7 -0.2
v -1.5 0.8 -0.2
v -1.3 0.6 -0.2
v -1.3 0.7 -0.2
v -1.2 0.6 -0.2
v -1.2 0.7 -0.2
v 0.9 0.6 -0.2
v 0.9 0.7 -0.2
v 1 0.6 -0.2
v 1 0.7 -0.2
v -1 0.6 -0.3
v -1 0.7 -0.3
v -0.9 0.6 -0.3
v -0.9 0.7 -0.3
v -1.5 0.7 -0.4
v -1.5 0.8 -0.4
v -1.4 0.7 -0.4
v -1.4 0.8 -0.4
v 1 0.6 -0.4
v 1 0.7 -0.4
v 1.1 0.6 -0.4
v 1.1 0.7 -0.4
v -1.2 0.6 -0.5
v -1.2 0.7 -0.5
v -1.1 0.6 -0.5
v -1.1 0.7 -0.5
v 1 0.6 -0.6
v 1 0.7 -0.6
v 1.1 0.6 -0.6
v 1.1 0.7 -0.6
v 1.6 0.7 -0.6
v 1.6 0.8 -0.6
v 1.8 0.7 -0.6
v 1.8 0.8 -0.6
v -1.6 0.7 -0.7
v -1.6 0.8 -0.7
v -1.5 0.7 -0.7
v -1.5 0.8 -0.7
v -1.8 0.7 -0.8
v -1.8 0.8 -0.8
v -1.6 0.7 -0.8
v -1.6 0.8 -0.8
v -1.5 0.7 -0.8
v -1.5 0.8 -0.8
v -1.3 0.7 -0.8
v -1.3 0.8 -0.8
v -1.1 0.6 -0.8
v -1.1 0.7 -0.8
v -1 0.6 -0.8
v -1 0.7 -0.8
v 1.2 0.6 -0.8
v 1.2 0.7 -0.8
v 1.3 0.6 -0.8
v 1.3 0.7 -0.8
v 1.5 0.7 -0.8
v 1.5 0.8 -0.8
v 1.6 0.7 -0.8
v 1.6 0.8 -0.8
v -0.9 0.6 -0.9
v -0.9 0.7 -0.9
v -0.7 0.6 -0.9
v -0.7 0.7 -0.9
v 0.8 0.6 -1
v 0.8 0.7 -1
v 0.9 0.6 -1
v 0.9 0.7 -1
v -1 0.6 -1.1
v -1 0.7 -1.1
v -0.9 0.6 -1.1
v -0.9 0.7 -1.1
v 1 0.6 -1.1
v 1 0.7 -1.1
v 1.1 0.6 -1.1
v 1.1 0.7 -1.1
v 1.6 0.7 -1.1
v 1.6 0.8 -1.1
v 1.7 0.7 -1.1
v 1.7 0.8 -1.1
v -1.2 0.6 -1.2
v -1.2 0.7 -1.2
v -1.1 0.6 -1.2
v -1.1 0.7 -1.2
v -0.9 0.6 -1.3
v -0.9 0.7 -1.3
v -0.8 0.6 -1.3
v -0.8 0.7 -1.3
v 1.3 0.7 -1.3
v 1.3 0.8 -1.3
v 1.4 0.7 -1.3
v 1.4 0.8 -1.3
v 0.9 0.6 -1.4
v 0.9 0.7 -1.4
v 1 0.6 -1.4
v 1 0.7 -1.4
v -1.9 0.7 -1.5
v -1.9 0.8 -1.5
v -1.8 0.7 -1.5
v -1.8 0.8 -1.5
v -1.8 0.9 -1.5
v -1.7 0.9 -1.5
v -1.7 1 -1.5
v -1.5 0.9 -1.5
v -1.5 1 -1.5
v -1.4 0.7 -1.5
v -1.4 0.8 -1.5
v -1.4 0.9 -1.5
v -1.3 0.7 -1.5
v -1.3 0.8 -1.5
v -1.1 0.6 -1.5
v -1.1 0.7 -1.5
v -1 0.6 -1.5
v -1 0.7 -1.5
v -0.8 0.6 -1.5
v -0.8 0.7 -1.5
v -0.7 0.6 -1.5
v -0.7 0.7 -1.5
v 1.7 0.7 -1.5
v 1.7 0.8 -1.5
v 1.8 0.7 -1.5
v 1.8 0.8 -1.5
v -1.8 0.7 -1.6
v -1.8 0.8 -1.6
v -1.7 0.7 -1.6
v -1.7 0.8 -1.6
v -1.5 0.7 -1.6
v -1.5 0.8 -1.6
v -1.4 0.7 -1.6
v -1.4 0.8 -1.6
v -1 0.6 -1.6
v -1 0.7 -1.6
v -0.9 0.6 -1.6
v -0.9 0.7 -1.6
v 0.7 0.6 -1.6
v 0.7 0.7 -1.6
v 0.8 0.6 -1.6
v 0.8 0.7 -1.6
v 0.9 0.6 -1.6
v 0.9 0.7 -1.6
v 1 0.6 -1.6
v 1 0.7 -1.6
v 1.5 0.7 -1.6
v 1.5 0.8 -1.6
v 1.6 0.7 -1.6
v 1.6 0.8 -1.6
v -0.9 0.6 -1.7
v -0.9 0.7 -1.7
v -0.8 0.6 -1.7
v -0.8 0.7 -1.7
v -1.7 0.7 -1.8
v -1.7 0.8 -1.8
v -1.5 0.7 -1.8
v -1.5 0.8 -1.8
v 1.1 0.6 -1.8
v 1.1 0.7 -1.8
v 1.2 0.6 -1.8
v 1.2 0.7 -1.8
v 1.5 0.7 -1.9
v 1.5 0.8 -1.9
v 1.6 0.7 -1.9
v 1.6 0.8 -1.9
v -2 0 -2
v -2 0.3 -2
v -2 0.5 -2
v -2 0.7 -2
v -0.8 0.5 -2
v -0.8 0.6 -2
v -0.8 0.7 -2
v 0.7 0.5 -2
v 0.7 0.6 -2
v 0.7 0.7 -2
v 2 0 -2
v 2 0.3 -2
v 2 0.5 -2
v 2 0.7 -2
v -2 0 2
v 2 0 2
v -2 0 -2
v 2 0 -2
v -1 0.6 2
v -0.9 0.6 2
v -0.8 0.6 2
v 1 0.6 2
v -1 0.6 1.9
v -0.9 0.6 1.9
v 1 0.6 1.9
v 1.1 0.6 1.9
v -1.2 0.6 1.8
v -1.1 0.6 1.8
v -0.9 0.6 1.8
v -0.8 0.6 1.8
v 0.9 0.6 1.8
v 1.1 0.6 1.8
v -1.2 0.6 1.7
v -1.1 0.6 1.7
v -0.9 0.6 1.7
v -0.8 0.6 1.7
v 0.8 0.6 1.7
v 0.9 0.6 1.7
v 1 0.6 1.7
v 1.1 0.6 1.7
v 1.2 0.6 1.7
v 1.3 0.6 1.7
v 1 0.6 1.6
v 1.1 0.6 1.6
v 1.2 0.6 1.6
v 1.3 0.6 1.6
v -1.1 0.6 1.5
v -1 0.6 1.5
v -0.8 0.6 1.5
v -0.7 0.6 1.5
v -1.1 0.6 1.4
v -1 0.6 1.4
v -0.9 0.6 1.4
v -0.7 0.6 1.4
v 0.9 0.6 1.4
v 1 0.6 1.4
v -1.1 0.6 1.3
v -1 0.6 1.3
v 0.9 0.6 1.3
v 1 0.6 1.3
v -1.3 0.6 1.2
v -1.2 0.6 1.2
v -1.1 0.6 1.2
v -1 0.6 1.2
v -0.9 0.6 1.2
v -0.8 0.6 1.2
v 0.9 0.6 1.2
v 1 0.6 1.2
v -1.3 0.6 1.1
v -1.2 0.6 1.1
v -1 0.6 1.1
v -0.9 0.6 1.1
v 0.9 0.6 1.1
v 1 0.6 1.1
v -1 0.6 1
v -0.9 0.6 1
v -0.8 0.6 1
v 1.1 0.6 1
v 1.2 0.6 1
v -1.2 0.6 0.9
v -1.1 0.6 0.9
v -0.8 0.6 0.9
v -0.7 0.6 0.9
v 0.8 0.6 0.9
v 0.9 0.6 0.9
v 1.1 0.6 0.9
v 1.2 0.6 0.9
v 1.3 0.6 0.9
v -1.2 0.6 0.8
v -1.1 0.6 0.8
v -0.8 0.6 0.8
v -0.7 0.6 0.8
v 0.9 0.6 0.8
v 1 0.6 0.8
v 1.2 0.6 0.8
v 1.3 0.6 0.8
v -1.1 0.6 0.6
v -1 0.6 0.6
v -0.9 0.6 0.6
v -0.7 0.6 0.6
v 1.1 0.6 0.6
v 1.2 0.6 0.6
v -1.1 0.6 0.5
v -1 0.6 0.5
v -0.9 0.6 0.5
v -0.7 0.6 0.5
v 1.1 0.6 0.5
v 1.2 0.6 0.5
v -1 0.6 0.4
v -0.9 0.6 0.4
v -0.8 0.6 0.4
v 0.8 0.6 0.4
v 1 0.6 0.4
v 1.1 0.6 0.4
v 1.2 0.6 0.4
v -1.2 0.6 0.3
v -1.1 0.6 0.3
v -1 0.6 0.3
v -0.9 0.6 0.3
v -0.8 0.6 0.3
v -0.7 0.6 0.3
v 0.9 0.6 0.3
v 1 0.6 0.3
v 1.1 0.6 0.3
v 1.2 0.6 0.3
v -1.2 0.6 0.2
v -1.1 0.6 0.2
v -0.9 0.6 0.2
v -0.8 0.6 0.2
v 0.9 0.6 0.2
v 1 0.6 0.2
v 1.3 0.6 0.2
v 1.4 0.6 0.2
v 0.7 0.6 0.0999999
v 0.8 0.6 0.0999999
v 0.9 0.6 0.0999999
v 1.3 0.6 0.0999999
v 1.4 0.6 0.0999999
v -1.1 0.6 -2.38419e-07
v -1 0.6 -2.38419e-07
v -0.8 0.6 -2.38419e-07
v -0.7 0.6 -2.38419e-07
v 0.7 0.6 -0.1
v 0.8 0.6 -0.1
v 1.1 0.6 -0.1
v 1.2 0.6 -0.1
v -1.3 0.6 -0.2
v -1.2 0.6 -0.2
v -1.1 0.6 -0.2
v -1 0.6 -0.2
v 0.9 0.6 -0.2
v 1 0.6 -0.2
v 1.1 0.6 -0.2
v 1.2 0.6 -0.2
v -1.3 0.6 -0.3
v -1.2 0.6 -0.3
v -1 0.6 -0.3
v -0.9 0.6 -0.3
v -1 0.6 -0.4
v -0.9 0.6 -0.4
v 1 0.6 -0.4
v 1.1 0.6 -0.4
v -1.2 0.6 -0.5
v -1.1 0.6 -0.5
v 1 0.6 -0.5
v 1.1 0.6 -0.5
v -1.2 0.6 -0.6
v -1.1 0.6 -0.6
v -0.9 0.6 -0.6
v -0.8 0.6 -0.6
v 0.7 0.6 -0.6
v 0.8 0.6 -0.6
v 0.9 0.6 -0.6
v 1 0.6 -0.6
v 1.1 0.6 -0.6
v 0.7 0.6 -0.7
v 0.8 0.6 -0.7
v 1 0.6 -0.7
v 1.1 0.6 -0.7
v -1.1 0.6 -0.8
v -1 0.6 -0.8
v -0.8 0.6 -0.8
v -0.7 0.6 -0.8
v 0.8 0.6 -0.8
v 0.9 0.6 -0.8
v 1.2 0.6 -0.8
v 1.3 0.6 -0.8
v -1.1 0.6 -0.9
v -1 0.6 -0.9
v -0.9 0.6 -0.9
v -0.7 0.6 -0.9
v 1.2 0.6 -0.9
v 1.3 0.6 -0.9
v -0.9 0.6 -1
v -0.8 0.6 -1
v 0.8 0.6 -1
v 0.9 0.6 -1
v -1 0.6 -1.1
v -0.9 0.6 -1.1
v 1 0.6 -1.1
v 1.1 0.6 -1.1
v -1.2 0.6 -1.2
v -1.1 0.6 -1.2
v -1 0.6 -1.2
v -0.9 0.6 -1.2
v 0.8 0.6 -1.2
v 0.9 0.6 -1.2
v 1 0.6 -1.2
v 1.1 0.6 -1.2
v -1.2 0.6 -1.3
v -1.1 0.6 -1.3
v -0.9 0.6 -1.3
v -0.8 0.6 -1.3
v -0.7 0.6 -1.3
v -0.9 0.6 -1.4
v -0.8 0.6 -1.4
v 0.7 0.6 -1.4
v 0.8 0.6 -1.4
v 0.9 0.6 -1.4
v 1 0.6 -1.4
v -1.1 0.6 -1.5
v -1 0.6 -1.5
v -0.8 0.6 -1.5
v -0.7 0.6 -1.5
v 0.9 0.6 -1.5
v 1 0.6 -1.5
v -1.1 0.6 -1.6
v -1 0.6 -1.6
v -0.9 0.6 -1.6
v 0.7 0.6 -1.6
v 0.8 0.6 -1.6
v 0.9 0.6 -1.6
v 1 0.6 -1.6
v -0.9 0.6 -1.7
v -0.8 0.6 -1.7
v 0.9 0.6 -1.7
v 1 0.6 -1.7
v 1.1 0.6 -1.8
v 1.2 0.6 -1.8
v -1 0.6 -1.9
v -0.8 0.6 -1.9
v 0.7 0.6 -1.9
v 0.8 0.6 -1.9
v 1.1 0.6 -1.9
v 1.2 0.6 -1.9
v -0.8 0.6 -2
v 0.7 0.6 -2
v -2 0.7 2
v -1 0.7 2
v -0.9 0.7 2
v -0.8 0.7 2
v 1 0.7 2
v 2 0.7 2
v -1 0.7 1.9
v -0.9 0.7 1.9
v 1 0.7 1.9
v 1.1 0.7 1.9
v -1.2 0.7 1.8
v -1.1 0.7 1.8
v -0.9 0.7 1.8
v -0.8 0.7 1.8
v 0.9 0.7 1.8
v 1.1 0.7 1.8
v -1.8 0.7 1.7
v -1.4 0.7 1.7
v -1.2 0.7 1.7
v -1.1 0.7 1.7
v -0.9 0.7 1.7
v -0.8 0.7 1.7
v 0.8 0.7 1.7
v 0.9 0.7 1.7
v 1 0.7 1.7
v 1.1 0.7 1.7
v 1.2 0.7 1.7
v 1.3 0.7 1.7
v -1.7 0.7 1.6
v -1.6 0.7 1.6
v 1 0.7 1.6
v 1.1 0.7 1.6
v 1.2 0.7 1.6
v 1.3 0.7 1.6
v 1.4 0.7 1.6
v 1.5 0.7 1.6
v -1.6 0.7 1.5
v -1.4 0.7 1.5
v -1.1 0.7 1.5
v -1 0.7 1.5
v -0.8 0.7 1.5
v -0.7 0.7 1.5
v 1.4 0.7 1.5
v 1.5 0.7 1.5
v 1.6 0.7 1.5
v 1.7 0.7 1.5
v -1.1 0.7 1.4
v -1 0.7 1.4
v -0.9 0.7 1.4
v -0.7 0.7 1.4
v 0.9 0.7 1.4
v 1 0.7 1.4
v -1.1 0.7 1.3
v -1 0.7 1.3
v 0.9 0.7 1.3
v 1 0.7 1.3
v 1.6 0.7 1.3
v 1.7 0.7 1.3
v -1.3 0.7 1.2
v -1.2 0.7 1.2
v -1.1 0.7 1.2
v -1 0.7 1.2
v -0.9 0.7 1.2
v -0.8 0.7 1.2
v 0.9 0.7 1.2
v 1 0.7 1.2
v 1.2 0.7 1.2
v 1.3 0.7 1.2
v -1.8 0.7 1.1
v -1.7 0.7 1.1
v -1.3 0.7 1.1
v -1.2 0.7 1.1
v -1 0.7 1.1
v -0.9 0.7 1.1
v 0.9 0.7 1.1
v 1 0.7 1.1
v 1.2 0.7 1.1
v 1.3 0.7 1.1
v -1.7 0.7 1
v -1.4 0.7 1
v -1 0.7 1
v -0.9 0.7 1
v -0.8 0.7 1
v 1.1 0.7 1
v 1.2 0.7 1
v -1.7 0.7 0.9
v -1.6 0.7 0.9
v -1.2 0.7 0.9
v -1.1 0.7 0.9
v 0.8 0.7 0.9
v 0.9 0.7 0.9
v 1.1 0.7 0.9
v 1.2 0.7 0.9
v 1.3 0.7 0.9
v -1.8 0.7 0.8
v -1.6 0.7 0.8
v -1.2 0.7 0.8
v -1.1 0.7 0.8
v 0.9 0.7 0.8
v 1 0.7 0.8
v 1.2 0.7 0.8
v 1.3 0.7 0.8
v 1.5 0.7 0.8
v 1.6 0.7 0.8
v 1.7 0.7 0.8
v 1.8 0.7 0.8
v 1.7 0.7 0.7
v 1.8 0.7 0.7
v -1.8 0.7 0.6
v -1.6 0.7 0.6
v -1.1 0.7 0.6
v -1 0.7 0.6
v -0.9 0.7 0.6
v -0.7 0.7 0.6
v 1.1 0.7 0.6
v 1.2 0.7 0.6
v 1.5 0.7 0.6
v 1.6 0.7 0.6
v -1.6 0.7 0.5
v -1.4 0.7 0.5
v -1.3 0.7 0.5
v -1.2 0.7 0.5
v -1.1 0.7 0.5
v -1 0.7 0.5
v -0.9 0.7 0.5
v -0.7 0.7 0.5
v 1.1 0.7 0.5
v 1.2 0.7 0.5
v -1 0.7 0.4
v -0.9 0.7 0.4
v -0.8 0.7 0.4
v 0.8 0.7 0.4
v 1 0.7 0.4
v 1.1 0.7 0.4
v 1.2 0.7 0.4
v -1.6 0.7 0.3
v -1.5 0.7 0.3
v -1.2 0.7 0.3
v -1.1 0.7 0.3
v -1 0.7 0.3
v -0.9 0.7 0.3
v -0.8 0.7 0.3
v -0.7 0.7 0.3
v 0.9 0.7 0.3
v 1 0.7 0.3
v 1.1 0.7 0.3
v 1.2 0.7 0.3
v -1.3 0.7 0.2
v -1.2 0.7 0.2
v -1.1 0.7 0.2
v -0.9 0.7 0.2
v -0.8 0.7 0.2
v 0.9 0.7 0.2
v 1 0.7 0.2
v 1.3 0.7 0.2
v 1.4 0.7 0.2
v 1.6 0.7 0.2
v 1.7 0.7 0.2
v -1.9 0.7 0.0999999
v -1.6 0.7 0.0999999
v 0.8 0.7 0.0999999
v 0.9 0.7 0.0999999
v 1.3 0.7 0.0999999
v 1.4 0.7 0.0999999
v 1.5 0.7 0.0999999
v 1.6 0.7 0.0999999
v 1.7 0.7 0.0999999
v -1.1 0.7 -2.38419e-07
v -1 0.7 -2.38419e-07
v -0.8 0.7 -2.38419e-07
v -0.7 0.7 -2.38419e-07
v -1.9 0.7 -0.1
v -1.6 0.7 -0.1
v 1.1 0.7 -0.1
v 1.2 0.7 -0.1
v 1.5 0.7 -0.1
v 1.6 0.7 -0.1
v -1.6 0.7 -0.2
v -1.5 0.7 -0.2
v -1.3 0.7 -0.2
v -1.2 0.7 -0.2
v -1.1 0.7 -0.2
v -1 0.7 -0.2
v 0.9 0.7 -0.2
v 1 0.7 -0.2
v 1.1 0.7 -0.2
v 1.2 0.7 -0.2
v -1.8 0.7 -0.3
v -1.6 0.7 -0.3
v -1.5 0.7 -0.3
v -1.4 0.7 -0.3
v -1.3 0.7 -0.3
v -1.2 0.7 -0.3
v -1 0.7 -0.3
v -0.9 0.7 -0.3
v 1.6 0.7 -0.3
v 1.8 0.7 -0.3
v -1.5 0.7 -0.4
v -1.4 0.7 -0.4
v -1 0.7 -0.4
v -0.9 0.7 -0.4
v 1 0.7 -0.4
v 1.1 0.7 -0.4
v -1.6 0.7 -0.5
v -1.4 0.7 -0.5
v -1.2 0.7 -0.5
v -1.1 0.7 -0.5
v 1 0.7 -0.5
v 1.1 0.7 -0.5
v -1.4 0.7 -0.6
v -1.3 0.7 -0.6
v -1.2 0.7 -0.6
v -1.1 0.7 -0.6
v -0.9 0.7 -0.6
v -0.8 0.7 -0.6
v 0.9 0.7 -0.6
v 1 0.7 -0.6
v 1.1 0.7 -0.6
v 1.6 0.7 -0.6
v 1.8 0.7 -0.6
v -1.6 0.7 -0.7
v -1.5 0.7 -0.7
v 1 0.7 -0.7
v 1.1 0.7 -0.7
v 1.5 0.7 -0.7
v 1.7 0.7 -0.7
v -1.8 0.7 -0.8
v -1.6 0.7 -0.8
v -1.5 0.7 -0.8
v -1.3 0.7 -0.8
v -1.1 0.7 -0.8
v -1 0.7 -0.8
v -0.8 0.7 -0.8
v -0.7 0.7 -0.8
v 0.8 0.7 -0.8
v 0.9 0.7 -0.8
v 1.2 0.7 -0.8
v 1.3 0.7 -0.8
v 1.5 0.7 -0.8
v 1.6 0.7 -0.8
v -1.1 0.7 -0.9
v -1 0.7 -0.9
v -0.9 0.7 -0.9
v -0.7 0.7 -0.9
v 1.2 0.7 -0.9
v 1.3 0.7 -0.9
v -0.9 0.7 -1
v -0.8 0.7 -1
v 0.8 0.7 -1
v 0.9 0.7 -1
v -1.7 0.7 -1.1
v -1.5 0.7 -1.1
v -1 0.7 -1.1
v -0.9 0.7 -1.1
v 1 0.7 -1.1
v 1.1 0.7 -1.1
v 1.6 0.7 -1.1
v 1.7 0.7 -1.1
v -1.8 0.7 -1.2
v -1.7 0.7 -1.2
v -1.5 0.7 -1.2
v -1.4 0.7 -1.2
v -1.2 0.7 -1.2
v -1.1 0.7 -1.2
v -1 0.7 -1.2
v -0.9 0.7 -1.2
v 0.8 0.7 -1.2
v 0.9 0.7 -1.2
v 1 0.7 -1.2
v 1.1 0.7 -1.2
v 1.3 0.7 -1.2
v 1.4 0.7 -1.2
v -1.9 0.7 -1.3
v -1.8 0.7 -1.3
v -1.4 0.7 -1.3
v -1.3 0.7 -1.3
v -1.2 0.7 -1.3
v -1.1 0.7 -1.3
v -0.9 0.7 -1.3
v -0.8 0.7 -1.3
v -0.7 0.7 -1.3
v 1.3 0.7 -1.3
v 1.4 0.7 -1.3
v -0.9 0.7 -1.4
v -0.8 0.7 -1.4
v 0.7 0.7 -1.4
v 0.8 0.7 -1.4
v 0.9 0.7 -1.4
v 1 0.7 -1.4
v 1.7 0.7 -1.4
v 1.8 0.7 -1.4
v -1.9 0.7 -1.5
v -1.8 0.7 -1.5
v -1.4 0.7 -1.5
v -1.3 0.7 -1.5
v -1.1 0.7 -1.5
v -1 0.7 -1.5
v -0.8 0.7 -1.5
v -0.7 0.7 -1.5
v 0.9 0.7 -1.5
v 1 0.7 -1.5
v 1.5 0.7 -1.5
v 1.6 0.7 -1.5
v 1.7 0.7 -1.5
v 1.8 0.7 -1.5
v -1.8 0.7 -1.6
v -1.7 0.7 -1.6
v -1.5 0.7 -1.6
v -1.4 0.7 -1.6
v -1.1 0.7 -1.6
v -1 0.7 -1.6
v -0.9 0.7 -1.6
v 0.7 0.7 -1.6
v 0.8 0.7 -1.6
v 0.9 0.7 -1.6
v 1 0.7 -1.6
v 1.5 0.7 -1.6
v 1.6 0.7 -1.6
v -0.9 0.7 -1.7
v -0.8 0.7 -1.7
v 0.9 0.7 -1.7
v 1 0.7 -1.7
v 1.5 0.7 -1.7
v 1.6 0.7 -1.7
v -1.7 0.7 -1.8
v -1.5 0.7 -1.8
v 1.1 0.7 -1.8
v 1.2 0.7 -1.8
v -1 0.7 -1.9
v -0.8 0.7 -1.9
v 0.7 0.7 -1.9
v 0.8 0.7 -1.9
v 1.1 0.7 -1.9
v 1.2 0.7 -1.9
v 1.5 0.7 -1.9
v 1.6 0.7 -1.9
v -2 0.7 -2
v -0.8 0.7 -2
v 0.7 0.7 -2
v 2 0.7 -2
v -1.8 0.8 1.7
v -1.4 0.8 1.7
v -1.7 0.8 1.6
v -1.6 0.8 1.6
v 1.4 0.8 1.6
v 1.5 0.8 1.6
v -1.6 0.8 1.5
v -1.4 0.8 1.5
v 1.4 0.8 1.5
v 1.5 0.8 1.5
v 1.6 0.8 1.5
v 1.7 0.8 1.5
v 1.6 0.8 1.3
v 1.7 0.8 1.3
v 1.2 0.8 1.2
v 1.3 0.8 1.2
v -1.8 0.8 1.1
v -1.7 0.8 1.1
v 1.2 0.8 1.1
v 1.3 0.8 1.1
v -1.7 0.8 1
v -1.4 0.8 1
v -1.7 0.8 0.9
v -1.6 0.8 0.9
v -1.8 0.8 0.8
v -1.6 0.8 0.8
v 1.5 0.8 0.8
v 1.6 0.8 0.8
v 1.7 0.8 0.8
v 1.8 0.8 0.8
v 1.7 0.8 0.7
v 1.8 0.8 0.7
v -1.8 0.8 0.6
v -1.6 0.8 0.6
v 1.5 0.8 0.6
v 1.6 0.8 0.6
v -1.6 0.8 0.5
v -1.4 0.8 0.5
v -1.3 0.8 0.5
v -1.2 0.8 0.5
v -1.6 0.8 0.3
v -1.5 0.8 0.3
v -1.3 0.8 0.2
v -1.2 0.8 0.2
v 1.6 0.8 0.2
v 1.7 0.8 0.2
v -1.9 0.8 0.0999999
v -1.6 0.8 0.0999999
v 1.5 0.8 0.0999999
v 1.6 0.8 0.0999999
v 1.7 0.8 0.0999999
v -1.9 0.8 -0.1
v -1.6 0.8 -0.1
v 1.5 0.8 -0.1
v 1.6 0.8 -0.1
v -1.6 0.8 -0.2
v -1.5 0.8 -0.2
v -1.8 0.8 -0.3
v -1.6 0.8 -0.3
v -1.5 0.8 -0.3
v -1.4 0.8 -0.3
v 1.6 0.8 -0.3
v 1.8 0.8 -0.3
v -1.5 0.8 -0.4
v -1.4 0.8 -0.4
v -1.6 0.8 -0.5
v -1.4 0.8 -0.5
v -1.4 0.8 -0.6
v -1.3 0.8 -0.6
v 1.6 0.8 -0.6
v 1.8 0.8 -0.6
v -1.6 0.8 -0.7
v -1.5 0.8 -0.7
v 1.5 0.8 -0.7
v 1.7 0.8 -0.7
v -1.8 0.8 -0.8
v -1.6 0.8 -0.8
v -1.5 0.8 -0.8
v -1.3 0.8 -0.8
v 1.5 0.8 -0.8
v 1.6 0.8 -0.8
v -1.7 0.8 -1.1
v -1.5 0.8 -1.1
v 1.6 0.8 -1.1
v 1.7 0.8 -1.1
v -1.7 0.8 -1.2
v -1.5 0.8 -1.2
v 1.3 0.8 -1.2
v 1.4 0.8 -1.2
v -1.9 0.8 -1.3
v -1.8 0.8 -1.3
v -1.4 0.8 -1.3
v -1.3 0.8 -1.3
v 1.3 0.8 -1.3
v 1.4 0.8 -1.3
v 1.7 0.8 -1.4
v 1.8 0.8 -1.4
v -1.9 0.8 -1.5
v -1.8 0.8 -1.5
v -1.4 0.8 -1.5
v -1.3 0.8 -1.5
v 1.5 0.8 -1.5
v 1.6 0.8 -1.5
v 1.7 0.8 -1.5
v 1.8 0.8 -1.5
v -1.8 0.8 -1.6
v -1.7 0.8 -1.6
v -1.5 0.8 -1.6
v -1.4 0.8 -1.6
v 1.5 0.8 -1.6
v 1.6 0.8 -1.6
v 1.5 0.8 -1.7
v 1.6 0.8 -1.7
v -1.7 0.8 -1.8
v -1.5 0.8 -1.8
v 1.5 0.8 -1.9
v 1.6 0.8 -1.9
v -1.8 0.9 -1.2
v -1.4 0.9 -1.2
v -1.7 0.9 -1.3
v -1.5 0.9 -1.3
v -1.8 0.9 -1.5
v -1.7 0.9 -1.5
v -1.5 0.9 -1.5
v -1.4 0.9 -1.5
v -1.7 1 -1.3
v -1.5 1 -1.3
v -1.7 1 -1.5
v -1.5 1 -1.5

# faces
f 3/3/1 2/3/1 1/3/1
f 4/3/1 2/3/1 3/3/1
f 5/1/1 4/1/1 3/1/1
f 6/1/1 4/1/1 5/1/1
f 7/2/1 6/2/1 5/2/1
f 8/2/1 6/2/1 7/2/1
f 13/2/1 10/2/1 9/2/1
f 14/2/1 10/2/1 13/2/1
f 15/2/1 12/2/1 11/2/1
f 16/2/1 12/2/1 15/2/1
f 27/2/1 18/2/1 17/2/1
f 28/2/1 18/2/1 27/2/1
f 29/2/1 20/2/1 19/2/1
f 30/2/1 20/2/1 29/2/1
f 31/2/1 22/2/1 21/2/1
f 32/2/1 22/2/1 31/2/1
f 33/2/1 24/2/1 23/2/1
f 34/2/1 26/2/1 25/2/1
f 35/2/1 26/2/1 34/2/1
f 36/2/1 33/2/1 23/2/1
f 36/2/1 34/2/1 33/2/1
f 37/2/1 34/2/1 36/2/1
f 44/2/1 39/2/1 38/2/1
f 45/2/1 39/2/1 44/2/1
f 46/2/1 41/2/1 40/2/1
f 47/2/1 41/2/1 46/2/1
f 48/2/1 43/2/1 42/2/1
f 49/2/1 43/2/1 48/2/1
f 52/2/1 51/2/1 50/2/1
f 53/2/1 51/2/1 52/2/1
f 64/2/1 55/2/1 54/2/1
f 65/2/1 55/2/1 64/2/1
f 66/2/1 57/2/1 56/2/1
f 67/2/1 57/2/1 66/2/1
f 68/2/1 59/2/1 58/2/1
f 69/2/1 59/2/1 68/2/1
f 70/2/1 61/2/1 60/2/1
f 71/2/1 61/2/1 70/2/1
f 72/2/1 63/2/1 62/2/1
f 73/2/1 63/2/1 72/2/1
f 78/2/1 75/2/1 74/2/1
f 79/2/1 75/2/1 78/2/1
f 80/2/1 77/2/1 76/2/1
f 81/2/1 77/2/1 80/2/1
f 84/2/1 83/2/1 82/2/1
f 85/2/1 83/2/1 84/2/1
f 90/2/1 87/2/1 86/2/1
f 91/2/1 87/2/1 90/2/1
f 92/2/1 89/2/1 88/2/1
f 93/2/1 89/2/1 92/2/1
f 104/2/1 95/2/1 94/2/1
f 105/2/1 95/2/1 104/2/1
f 106/2/1 97/2/1 96/2/1
f 107/2/1 97/2/1 106/2/1
f 108/2/1 99/2/1 98/2/1
f 109/2/1 99/2/1 108/2/1
f 110/2/1 101/2/1 100/2/1
f 111/2/1 101/2/1 110/2/1
f 112/2/1 103/2/1 102/2/1
f 113/2/1 103/2/1 112/2/1
f 126/2/1 115/2/1 114/2/1
f 127/2/1 115/2/1 126/2/1
f 128/2/1 117/2/1 116/2/1
f 129/2/1 117/2/1 128/2/1
f 130/2/1 119/2/1 118/2/1
f 131/2/1 119/2/1 130/2/1
f 132/2/1 121/2/1 120/2/1
f 133/2/1 121/2/1 132/2/1
f 134/2/1 123/2/1 122/2/1
f 135/2/1 123/2/1 134/2/1
f 136/2/1 125/2/1 124/2/1
f 137/2/1 125/2/1 136/2/1
f 148/2/1 139/2/1 138/2/1
f 149/2/1 139/2/1 148/2/1
f 150/2/1 141/2/1 140/2/1
f 151/2/1 141/2/1 150/2/1
f 152/2/1 143/2/1 142/2/1
f 153/2/1 143/2/1 152/2/1
f 154/2/1 145/2/1 144/2/1
f 155/2/1 145/2/1 154/2/1
f 156/2/1 147/2/1 146/2/1
f 157/2/1 147/2/1 156/2/1
f 162/2/1 159/2/1 158/2/1
f 163/2/1 159/2/1 162/2/1
f 164/2/1 161/2/1 160/2/1
f 165/2/1 161/2/1 164/2/1
f 170/2/1 167/2/1 166/2/1
f 171/2/1 167/2/1 170/2/1
f 172/2/1 169/2/1 168/2/1
f 173/2/1 169/2/1 172/2/1
f 184/2/1 175/2/1 174/2/1
f 185/2/1 175/2/1 184/2/1
f 186/2/1 177/2/1 176/2/1
f 187/2/1 177/2/1 186/2/1
f 188/2/1 179/2/1 178/2/1
f 189/2/1 179/2/1 188/2/1
f 190/2/1 181/2/1 180/2/1
f 191/2/1 181/2/1 190/2/1
f 192/2/1 183/2/1 182/2/1
f 193/2/1 183/2/1 192/2/1
f 204/2/1 195/2/1 194/2/1
f 205/2/1 195/2/1 204/2/1
f 206/2/1 197/2/1 196/2/1
f 207/2/1 197/2/1 206/2/1
f 208/2/1 199/2/1 198/2/1
f 209/2/1 199/2/1 208/2/1
f 210/2/1 201/2/1 200/2/1
f 211/2/1 201/2/1 210/2/1
f 212/2/1 203/2/1 202/2/1
f 213/2/1 203/2/1 212/2/1
f 232/2/1 215/2/1 214/2/1
f 233/2/1 215/2/1 232/2/1
f 234/2/1 217/2/1 216/2/1
f 235/2/1 217/2/1 234/2/1
f 236/2/1 219/2/1 218/2/1
f 237/2/1 219/2/1 236/2/1
f 238/2/1 221/2/1 220/2/1
f 239/2/1 221/2/1 238/2/1
f 240/2/1 223/2/1 222/2/1
f 241/2/1 223/2/1 240/2/1
f 242/2/1 225/2/1 224/2/1
f 243/2/1 225/2/1 242/2/1
f 244/2/1 227/2/1 226/2/1
f 245/2/1 227/2/1 244/2/1
f 246/2/1 229/2/1 228/2/1
f 247/2/1 229/2/1 246/2/1
f 248/2/1 231/2/1 230/2/1
f 249/2/1 231/2/1 248/2/1
f 260/2/1 251/2/1 250/2/1
f 261/2/1 251/2/1 260/2/1
f 262/2/1 253/2/1 252/2/1
f 263/2/1 253/2/1 262/2/1
f 264/2/1 255/2/1 254/2/1
f 265/2/1 255/2/1 264/2/1
f 266/2/1 257/2/1 256/2/1
f 267/2/1 257/2/1 266/2/1
f 268/2/1 259/2/1 258/2/1
f 269/2/1 259/2/1 268/2/1
f 282/2/1 271/2/1 270/2/1
f 283/2/1 271/2/1 282/2/1
f 284/2/1 273/2/1 272/2/1
f 285/2/1 273/2/1 284/2/1
f 286/2/1 275/2/1 274/2/1
f 287/2/1 275/2/1 286/2/1
f 288/2/1 277/2/1 276/2/1
f 289/2/1 277/2/1 288/2/1
f 290/2/1 279/2/1 278/2/1
f 291/2/1 279/2/1 290/2/1
f 292/2/1 281/2/1 280/2/1
f 293/2/1 281/2/1 292/2/1
f 300/2/1 295/2/1 294/2/1
f 301/2/1 295/2/1 300/2/1
f 302/2/1 297/2/1 296/2/1
f 303/2/1 297/2/1 302/2/1
f 304/2/1 299/2/1 298/2/1
f 305/2/1 299/2/1 304/2/1
f 308/2/1 307/2/1 306/2/1
f 309/2/1 307/2/1 308/2/1
f 314/2/1 311/2/1 310/2/1
f 315/2/1 311/2/1 314/2/1
f 316/2/1 313/2/1 312/2/1
f 317/2/1 313/2/1 316/2/1
f 328/2/1 319/2/1 318/2/1
f 329/2/1 319/2/1 328/2/1
f 330/2/1 321/2/1 320/2/1
f 331/2/1 321/2/1 330/2/1
f 332/2/1 323/2/1 322/2/1
f 333/2/1 323/2/1 332/2/1
f 334/2/1 325/2/1 324/2/1
f 335/2/1 325/2/1 334/2/1
f 336/2/1 327/2/1 326/2/1
f 337/2/1 327/2/1 336/2/1
f 346/2/1 339/2/1 338/2/1
f 347/2/1 339/2/1 346/2/1
f 348/2/1 341/2/1 340/2/1
f 349/2/1 341/2/1 348/2/1
f 350/2/1 343/2/1 342/2/1
f 351/2/1 343/2/1 350/2/1
f 352/2/1 345/2/1 344/2/1
f 353/2/1 345/2/1 352/2/1
f 358/2/1 355/2/1 354/2/1
f 359/2/1 355/2/1 358/2/1
f 360/2/1 357/2/1 356/2/1
f 361/2/1 357/2/1 360/2/1
f 362/2/2 363/2/2 364/2/2
f 364/2/2 363/2/2 365/2/2
f 366/2/2 367/2/2 370/2/2
f 370/2/2 367/2/2 371/2/2
f 368/2/2 369/2/2 372/2/2
f 372/2/2 369/2/2 373/2/2
f 374/2/2 375/2/2 380/2/2
f 380/2/2 375/2/2 381/2/2
f 376/2/2 377/2/2 382/2/2
f 382/2/2 377/2/2 383/2/2
f 378/2/2 379/2/2 384/2/2
f 384/2/2 379/2/2 385/2/2
f 386/2/2 387/2/2 388/2/2
f 388/2/2 387/2/2 389/2/2
f 390/2/2 391/2/2 402/2/2
f 402/2/2 391/2/2 403/2/2
f 392/2/2 393/2/2 404/2/2
f 404/2/2 393/2/2 405/2/2
f 394/2/2 395/2/2 406/2/2
f 406/2/2 395/2/2 407/2/2
f 396/2/2 397/2/2 408/2/2
f 408/2/2 397/2/2 409/2/2
f 398/2/2 399/2/2 410/2/2
f 400/2/2 401/2/2 411/2/2
f 411/2/2 401/2/2 412/2/2
f 398/2/2 410/2/2 413/2/2
f 410/2/2 411/2/2 413/2/2
f 413/2/2 411/2/2 414/2/2
f 415/2/2 416/2/2 419/2/2
f 419/2/2 416/2/2 420/2/2
f 417/2/2 418/2/2 421/2/2
f 421/2/2 418/2/2 422/2/2
f 423/2/2 424/2/2 427/2/2
f 427/2/2 424/2/2 428/2/2
f 425/2/2 426/2/2 429/2/2
f 429/2/2 426/2/2 430/2/2
f 431/2/2 432/2/2 441/2/2
f 441/2/2 432/2/2 442/2/2
f 433/2/2 434/2/2 443/2/2
f 443/2/2 434/2/2 444/2/2
f 435/2/2 436/2/2 446/2/2
f 446/2/2 436/2/2 447/2/2
f 437/2/2 438/2/2 448/2/2
f 448/2/2 438/2/2 449/2/2
f 439/2/2 440/2/2 450/2/2
f 450/2/2 440/2/2 451/2/2
f 446/2/2 447/2/2 452/2/2
f 445/2/2 446/2/2 452/2/2
f 452/2/2 447/2/2 453/2/2
f 454/2/2 455/2/2 466/2/2
f 466/2/2 455/2/2 467/2/2
f 456/2/2 457/2/2 468/2/2
f 468/2/2 457/2/2 469/2/2
f 458/2/2 459/2/2 470/2/2
f 470/2/2 459/2/2 471/2/2
f 460/2/2 461/2/2 472/2/2
f 472/2/2 461/2/2 473/2/2
f 462/2/2 463/2/2 474/2/2
f 474/2/2 463/2/2 475/2/2
f 464/2/2 465/2/2 476/2/2
f 476/2/2 465/2/2 477/2/2
f 478/2/2 479/2/2 490/2/2
f 490/2/2 479/2/2 491/2/2
f 480/2/2 481/2/2 492/2/2
f 492/2/2 481/2/2 493/2/2
f 482/2/2 483/2/2 494/2/2
f 494/2/2 483/2/2 495/2/2
f 484/2/2 485/2/2 496/2/2
f 496/2/2 485/2/2 497/2/2
f 486/2/2 487/2/2 498/2/2
f 498/2/2 487/2/2 499/2/2
f 488/2/2 489/2/2 500/2/2
f 500/2/2 489/2/2 501/2/2
f 502/2/2 503/2/2 518/2/2
f 518/2/2 503/2/2 519/2/2
f 504/2/2 505/2/2 520/2/2
f 520/2/2 505/2/2 521/2/2
f 506/2/2 507/2/2 522/2/2
f 522/2/2 507/2/2 523/2/2
f 508/2/2 509/2/2 524/2/2
f 524/2/2 509/2/2 525/2/2
f 510/2/2 511/2/2 526/2/2
f 526/2/2 511/2/2 527/2/2
f 512/2/2 513/2/2 528/2/2
f 528/2/2 513/2/2 529/2/2
f 514/2/2 515/2/2 530/2/2
f 530/2/2 515/2/2 531/2/2
f 516/2/2 517/2/2 532/2/2
f 532/2/2 517/2/2 533/2/2
f 534/2/2 535/2/2 550/2/2
f 550/2/2 535/2/2 551/2/2
f 536/2/2 537/2/2 552/2/2
f 552/2/2 537/2/2 553/2/2
f 538/2/2 539/2/2 554/2/2
f 554/2/2 539/2/2 555/2/2
f 540/2/2 541/2/2 556/2/2
f 556/2/2 541/2/2 557/2/2
f 542/2/2 543/2/2 558/2/2
f 558/2/2 543/2/2 559/2/2
f 544/2/2 545/2/2 560/2/2
f 560/2/2 545/2/2 561/2/2
f 546/2/2 547/2/2 562/2/2
f 562/2/2 547/2/2 563/2/2
f 548/2/2 549/2/2 564/2/2
f 564/2/2 549/2/2 565/2/2
f 566/2/2 567/2/2 576/2/2
f 576/2/2 567/2/2 577/2/2
f 568/2/2 569/2/2 578/2/2
f 578/2/2 569/2/2 579/2/2
f 570/2/2 571/2/2 580/2/2
f 580/2/2 571/2/2 581/2/2
f 572/2/2 573/2/2 582/2/2
f 582/2/2 573/2/2 583/2/2
f 574/2/2 575/2/2 584/2/2
f 584/2/2 575/2/2 585/2/2
f 586/2/2 587/2/2 596/2/2
f 596/2/2 587/2/2 597/2/2
f 588/2/2 589/2/2 598/2/2
f 598/2/2 589/2/2 599/2/2
f 590/2/2 591/2/2 600/2/2
f 600/2/2 591/2/2 601/2/2
f 592/2/2 593/2/2 602/2/2
f 602/2/2 593/2/2 603/2/2
f 594/2/2 595/2/2 604/2/2
f 604/2/2 595/2/2 605/2/2
f 606/2/2 607/2/2 612/2/2
f 612/2/2 607/2/2 613/2/2
f 608/2/2 609/2/2 614/2/2
f 614/2/2 609/2/2 615/2/2
f 610/2/2 611/2/2 616/2/2
f 616/2/2 611/2/2 617/2/2
f 618/2/2 619/2/2 628/2/2
f 628/2/2 619/2/2 629/2/2
f 620/2/2 621/2/2 630/2/2
f 630/2/2 621/2/2 631/2/2
f 622/2/2 623/2/2 632/2/2
f 632/2/2 623/2/2 633/2/2
f 624/2/2 625/2/2 634/2/2
f 634/2/2 625/2/2 635/2/2
f 626/2/2 627/2/2 636/2/2
f 636/2/2 627/2/2 637/2/2
f 638/2/2 639/2/2 644/2/2
f 644/2/2 639/2/2 645/2/2
f 640/2/2 641/2/2 646/2/2
f 646/2/2 641/2/2 647/2/2
f 642/2/2 643/2/2 648/2/2
f 648/2/2 643/2/2 649/2/2
f 650/2/2 651/2/2 654/2/2
f 654/2/2 651/2/2 655/2/2
f 652/2/2 653/2/2 656/2/2
f 656/2/2 653/2/2 657/2/2
f 658/2/2 659/2/2 660/2/2
f 660/2/2 659/2/2 661/2/2
f 662/2/2 663/2/2 664/2/2
f 664/2/2 663/2/2 665/2/2
f 666/2/2 667/2/2 674/2/2
f 674/2/2 667/2/2 675/2/2
f 668/2/2 669/2/2 676/2/2
f 676/2/2 669/2/2 677/2/2
f 670/2/2 671/2/2 678/2/2
f 678/2/2 671/2/2 679/2/2
f 672/2/2 673/2/2 680/2/2
f 680/2/2 673/2/2 681/2/2
f 682/2/2 683/2/2 688/2/2
f 688/2/2 683/2/2 689/2/2
f 684/2/2 685/2/2 690/2/2
f 690/2/2 685/2/2 691/2/2
f 686/2/2 687/2/2 692/2/2
f 692/2/2 687/2/2 693/2/2
f 694/2/2 695/2/2 700/2/2
f 700/2/2 695/2/2 701/2/2
f 696/2/2 697/2/2 702/2/2
f 702/2/2 697/2/2 703/2/2
f 698/2/2 699/2/2 704/2/2
f 704/2/2 699/2/2 705/2/2
f 706/3/2 707/3/2 708/3/2
f 708/3/2 707/3/2 709/3/2
f 708/1/2 709/1/2 710/1/2
f 710/1/2 709/1/2 711/1/2
f 710/2/2 711/2/2 712/2/2
f 712/2/2 711/2/2 713/2/2
f 718/1/3 716/1/3 715/1/3
f 718/2/3 717/2/3 716/2/3
f 719/2/3 717/2/3 718/2/3
f 720/2/3 717/2/3 719/2/3
f 721/1/3 718/1/3 715/1/3
f 721/1/3 719/1/3 718/1/3
f 722/1/3 719/1/3 721/1/3
f 724/1/3 721/1/3 715/1/3
f 724/2/3 723/2/3 722/2/3
f 724/2/3 722/2/3 721/2/3
f 725/2/3 723/2/3 724/2/3
f 726/2/3 723/2/3 725/2/3
f 727/1/3 724/1/3 715/1/3
f 727/1/3 725/1/3 724/1/3
f 728/1/3 725/1/3 727/1/3
f 730/3/3 715/3/3 714/3/3
f 731/1/3 727/1/3 715/1/3
f 731/3/3 715/3/3 730/3/3
f 732/2/3 729/2/3 728/2/3
f 732/1/3 727/1/3 731/1/3
f 732/2/3 728/2/3 727/2/3
f 733/2/3 729/2/3 732/2/3
f 736/2/3 735/2/3 734/2/3
f 737/2/3 735/2/3 736/2/3
f 740/2/3 739/2/3 738/2/3
f 741/2/3 739/2/3 740/2/3
f 744/2/3 743/2/3 742/2/3
f 745/2/3 743/2/3 744/2/3
f 748/2/3 747/2/3 746/2/3
f 749/2/3 747/2/3 748/2/3
f 752/2/3 751/2/3 750/2/3
f 753/2/3 751/2/3 752/2/3
f 756/2/3 755/2/3 754/2/3
f 757/2/3 755/2/3 756/2/3
f 760/2/3 759/2/3 758/2/3
f 761/2/3 759/2/3 760/2/3
f 764/2/3 763/2/3 762/2/3
f 765/2/3 763/2/3 764/2/3
f 768/2/3 767/2/3 766/2/3
f 769/2/3 767/2/3 768/2/3
f 772/2/3 771/2/3 770/2/3
f 773/2/3 771/2/3 772/2/3
f 776/2/3 775/2/3 774/2/3
f 777/2/3 775/2/3 776/2/3
f 780/2/3 779/2/3 778/2/3
f 781/2/3 779/2/3 780/2/3
f 784/2/3 783/2/3 782/2/3
f 785/2/3 783/2/3 784/2/3
f 788/2/3 787/2/3 786/2/3
f 789/2/3 787/2/3 788/2/3
f 792/2/3 791/2/3 790/2/3
f 793/2/3 791/2/3 792/2/3
f 796/2/3 795/2/3 794/2/3
f 797/2/3 795/2/3 796/2/3
f 800/2/3 799/2/3 798/2/3
f 801/2/3 799/2/3 800/2/3
f 804/2/3 803/2/3 802/2/3
f 805/2/3 803/2/3 804/2/3
f 808/2/3 807/2/3 806/2/3
f 809/2/3 807/2/3 808/2/3
f 812/2/3 811/2/3 810/2/3
f 813/2/3 811/2/3 812/2/3
f 816/2/3 815/2/3 814/2/3
f 817/2/3 815/2/3 816/2/3
f 820/2/3 819/2/3 818/2/3
f 821/2/3 819/2/3 820/2/3
f 824/2/3 823/2/3 822/2/3
f 825/2/3 823/2/3 824/2/3
f 828/2/3 827/2/3 826/2/3
f 829/2/3 827/2/3 828/2/3
f 832/2/3 831/2/3 830/2/3
f 833/2/3 831/2/3 832/2/3
f 836/2/3 835/2/3 834/2/3
f 837/2/3 835/2/3 836/2/3
f 840/2/3 839/2/3 838/2/3
f 841/2/3 839/2/3 840/2/3
f 844/2/3 843/2/3 842/2/3
f 845/2/3 843/2/3 844/2/3
f 848/2/3 847/2/3 846/2/3
f 849/2/3 847/2/3 848/2/3
f 852/2/3 851/2/3 850/2/3
f 853/2/3 851/2/3 852/2/3
f 856/2/3 855/2/3 854/2/3
f 857/2/3 855/2/3 856/2/3
f 860/2/3 859/2/3 858/2/3
f 861/2/3 859/2/3 860/2/3
f 864/2/3 863/2/3 862/2/3
f 865/2/3 863/2/3 864/2/3
f 868/2/3 867/2/3 866/2/3
f 869/2/3 867/2/3 868/2/3
f 872/2/3 871/2/3 870/2/3
f 873/2/3 871/2/3 872/2/3
f 876/2/3 875/2/3 874/2/3
f 877/2/3 875/2/3 876/2/3
f 880/2/3 879/2/3 878/2/3
f 881/2/3 879/2/3 880/2/3
f 884/2/3 883/2/3 882/2/3
f 885/2/3 883/2/3 884/2/3
f 888/2/3 887/2/3 886/2/3
f 889/2/3 887/2/3 888/2/3
f 892/2/3 891/2/3 890/2/3
f 893/2/3 891/2/3 892/2/3
f 896/2/3 895/2/3 894/2/3
f 897/2/3 895/2/3 896/2/3
f 900/2/3 899/2/3 898/2/3
f 901/2/3 899/2/3 900/2/3
f 904/2/3 903/2/3 902/2/3
f 905/2/3 903/2/3 904/2/3
f 908/2/3 907/2/3 906/2/3
f 909/2/3 907/2/3 908/2/3
f 912/2/3 911/2/3 910/2/3
f 913/2/3 911/2/3 912/2/3
f 916/2/3 915/2/3 914/2/3
f 917/2/3 915/2/3 916/2/3
f 920/2/3 919/2/3 918/2/3
f 921/2/3 919/2/3 920/2/3
f 924/2/3 923/2/3 922/2/3
f 925/2/3 923/2/3 924/2/3
f 928/2/3 927/2/3 926/2/3
f 929/2/3 927/2/3 928/2/3
f 932/2/3 931/2/3 930/2/3
f 933/2/3 931/2/3 932/2/3
f 936/2/3 935/2/3 934/2/3
f 937/2/3 935/2/3 936/2/3
f 940/2/3 939/2/3 938/2/3
f 941/2/3 939/2/3 940/2/3
f 944/2/3 943/2/3 942/2/3
f 945/2/3 943/2/3 944/2/3
f 948/2/3 947/2/3 946/2/3
f 949/2/3 947/2/3 948/2/3
f 952/2/3 951/2/3 950/2/3
f 953/2/3 951/2/3 952/2/3
f 956/2/3 955/2/3 954/2/3
f 957/2/3 955/2/3 956/2/3
f 960/2/3 959/2/3 958/2/3
f 961/2/3 959/2/3 960/2/3
f 964/2/3 963/2/3 962/2/3
f 965/2/3 963/2/3 964/2/3
f 968/2/3 967/2/3 966/2/3
f 969/2/3 967/2/3 968/2/3
f 972/2/3 971/2/3 970/2/3
f 973/2/3 971/2/3 972/2/3
f 976/2/3 975/2/3 974/2/3
f 977/2/3 975/2/3 976/2/3
f 980/2/3 979/2/3 978/2/3
f 981/2/3 979/2/3 980/2/3
f 984/2/3 983/2/3 982/2/3
f 985/2/3 983/2/3 984/2/3
f 988/2/3 987/2/3 986/2/3
f 989/2/3 987/2/3 988/2/3
f 991/2/3 987/2/3 989/2/3
f 992/2/3 991/2/3 990/2/3
f 993/2/3 987/2/3 991/2/3
f 993/2/3 991/2/3 992/2/3
f 996/2/3 995/2/3 994/2/3
f 997/2/3 995/2/3 996/2/3
f 1000/2/3 999/2/3 998/2/3
f 1001/2/3 999/2/3 1000/2/3
f 1004/2/3 1003/2/3 1002/2/3
f 1005/2/3 1003/2/3 1004/2/3
f 1008/2/3 1007/2/3 1006/2/3
f 1009/2/3 1007/2/3 1008/2/3
f 1012/2/3 1011/2/3 1010/2/3
f 1013/2/3 1011/2/3 1012/2/3
f 1016/2/3 1015/2/3 1014/2/3
f 1017/2/3 1015/2/3 1016/2/3
f 1020/2/3 1019/2/3 1018/2/3
f 1021/2/3 1019/2/3 1020/2/3
f 1024/2/3 1023/2/3 1022/2/3
f 1025/2/3 1023/2/3 1024/2/3
f 1028/2/3 1027/2/3 1026/2/3
f 1029/2/3 1027/2/3 1028/2/3
f 1032/2/3 1031/2/3 1030/2/3
f 1033/2/3 1031/2/3 1032/2/3
f 1036/2/3 1035/2/3 1034/2/3
f 1037/2/3 1035/2/3 1036/2/3
f 1040/2/3 1039/2/3 1038/2/3
f 1041/2/3 1039/2/3 1040/2/3
f 1044/2/3 1043/2/3 1042/2/3
f 1045/2/3 1043/2/3 1044/2/3
f 1048/2/3 1047/2/3 1046/2/3
f 1049/2/3 1047/2/3 1048/2/3
f 1052/2/3 1051/2/3 1050/2/3
f 1053/2/3 1051/2/3 1052/2/3
f 1056/2/3 1055/2/3 1054/2/3
f 1057/2/3 1055/2/3 1056/2/3
f 1060/2/3 1059/2/3 1058/2/3
f 1061/2/3 1059/2/3 1060/2/3
f 1064/2/3 1063/2/3 1062/2/3
f 1065/2/3 1063/2/3 1064/2/3
f 1068/2/3 1067/2/3 1066/2/3
f 1069/2/3 1067/2/3 1068/2/3
f 1072/2/3 1071/2/3 1070/2/3
f 1073/2/3 1071/2/3 1072/2/3
f 1074/2/4 1075/2/4 1076/2/4
f 1076/2/4 1075/2/4 1077/2/4
f 1078/2/4 1079/2/4 1080/2/4
f 1080/2/4 1079/2/4 1081/2/4
f 1082/2/4 1083/2/4 1084/2/4
f 1084/2/4 1083/2/4 1085/2/4
f 1086/2/4 1087/2/4 1088/2/4
f 1088/2/4 1087/2/4 1089/2/4
f 1090/2/4 1091/2/4 1092/2/4
f 1092/2/4 1091/2/4 1093/2/4
f 1094/2/4 1095/2/4 1096/2/4
f 1096/2/4 1095/2/4 1097/2/4
f 1098/2/4 1099/2/4 1100/2/4
f 1100/2/4 1099/2/4 1101/2/4
f 1102/2/4 1103/2/4 1104/2/4
f 1104/2/4 1103/2/4 1105/2/4
f 1106/2/4 1107/2/4 1108/2/4
f 1108/2/4 1107/2/4 1109/2/4
f 1110/2/4 1111/2/4 1112/2/4
f 1112/2/4 1111/2/4 1113/2/4
f 1114/2/4 1115/2/4 1116/2/4
f 1116/2/4 1115/2/4 1117/2/4
f 1118/2/4 1119/2/4 1120/2/4
f 1120/2/4 1119/2/4 1121/2/4
f 1122/2/4 1123/2/4 1124/2/4
f 1124/2/4 1123/2/4 1125/2/4
f 1126/2/4 1127/2/4 1128/2/4
f 1128/2/4 1127/2/4 1129/2/4
f 1130/2/4 1131/2/4 1132/2/4
f 1132/2/4 1131/2/4 1133/2/4
f 1134/2/4 1135/2/4 1136/2/4
f 1136/2/4 1135/2/4 1137/2/4
f 1138/2/4 1139/2/4 1140/2/4
f 1140/2/4 1139/2/4 1141/2/4
f 1142/2/4 1143/2/4 1144/2/4
f 1144/2/4 1143/2/4 1145/2/4
f 1146/2/4 1147/2/4 1148/2/4
f 1148/2/4 1147/2/4 1149/2/4
f 1150/2/4 1151/2/4 1152/2/4
f 1152/2/4 1151/2/4 1153/2/4
f 1154/2/4 1155/2/4 1156/2/4
f 1156/2/4 1155/2/4 1157/2/4
f 1158/2/4 1159/2/4 1160/2/4
f 1160/2/4 1159/2/4 1161/2/4
f 1162/2/4 1163/2/4 1164/2/4
f 1164/2/4 1163/2/4 1165/2/4
f 1166/2/4 1167/2/4 1168/2/4
f 1168/2/4 1167/2/4 1169/2/4
f 1170/2/4 1171/2/4 1172/2/4
f 1172/2/4 1171/2/4 1173/2/4
f 1174/2/4 1175/2/4 1176/2/4
f 1176/2/4 1175/2/4 1177/2/4
f 1178/2/4 1179/2/4 1180/2/4
f 1180/2/4 1179/2/4 1181/2/4
f 1182/2/4 1183/2/4 1184/2/4
f 1184/2/4 1183/2/4 1185/2/4
f 1186/2/4 1187/2/4 1188/2/4
f 1188/2/4 1187/2/4 1189/2/4
f 1190/2/4 1191/2/4 1192/2/4
f 1192/2/4 1191/2/4 1193/2/4
f 1194/2/4 1195/2/4 1196/2/4
f 1196/2/4 1195/2/4 1197/2/4
f 1198/2/4 1199/2/4 1200/2/4
f 1200/2/4 1199/2/4 1201/2/4
f 1202/2/4 1203/2/4 1204/2/4
f 1204/2/4 1203/2/4 1205/2/4
f 1206/2/4 1207/2/4 1208/2/4
f 1208/2/4 1207/2/4 1209/2/4
f 1210/2/4 1211/2/4 1212/2/4
f 1212/2/4 1211/2/4 1213/2/4
f 1214/2/4 1215/2/4 1216/2/4
f 1216/2/4 1215/2/4 1217/2/4
f 1218/2/4 1219/2/4 1220/2/4
f 1220/2/4 1219/2/4 1221/2/4
f 1222/2/4 1223/2/4 1224/2/4
f 1224/2/4 1223/2/4 1225/2/4
f 1226/2/4 1227/2/4 1228/2/4
f 1228/2/4 1227/2/4 1229/2/4
f 1230/2/4 1231/2/4 1232/2/4
f 1232/2/4 1231/2/4 1233/2/4
f 1234/2/4 1235/2/4 1236/2/4
f 1236/2/4 1235/2/4 1237/2/4
f 1238/2/4 1239/2/4 1240/2/4
f 1240/2/4 1239/2/4 1241/2/4
f 1242/2/4 1243/2/4 1244/2/4
f 1244/2/4 1243/2/4 1245/2/4
f 1246/2/4 1247/2/4 1248/2/4
f 1248/2/4 1247/2/4 1249/2/4
f 1250/2/4 1251/2/4 1252/2/4
f 1252/2/4 1251/2/4 1253/2/4
f 1254/2/4 1255/2/4 1256/2/4
f 1256/2/4 1255/2/4 1257/2/4
f 1258/2/4 1259/2/4 1260/2/4
f 1260/2/4 1259/2/4 1261/2/4
f 1262/2/4 1263/2/4 1264/2/4
f 1264/2/4 1263/2/4 1265/2/4
f 1266/2/4 1267/2/4 1268/2/4
f 1268/2/4 1267/2/4 1269/2/4
f 1270/2/4 1271/2/4 1272/2/4
f 1272/2/4 1271/2/4 1273/2/4
f 1274/2/4 1275/2/4 1276/2/4
f 1276/2/4 1275/2/4 1277/2/4
f 1278/2/4 1279/2/4 1280/2/4
f 1280/2/4 1279/2/4 1281/2/4
f 1282/2/4 1283/2/4 1284/2/4
f 1284/2/4 1283/2/4 1285/2/4
f 1286/2/4 1287/2/4 1288/2/4
f 1288/2/4 1287/2/4 1289/2/4
f 1290/2/4 1291/2/4 1292/2/4
f 1292/2/4 1291/2/4 1293/2/4
f 1294/2/4 1295/2/4 1296/2/4
f 1296/2/4 1295/2/4 1297/2/4
f 1298/2/4 1299/2/4 1300/2/4
f 1300/2/4 1299/2/4 1301/2/4
f 1302/2/4 1303/2/4 1304/2/4
f 1304/2/4 1303/2/4 1305/2/4
f 1306/2/4 1307/2/4 1308/2/4
f 1308/2/4 1307/2/4 1309/2/4
f 1310/2/4 1311/2/4 1312/2/4
f 1312/2/4 1311/2/4 1313/2/4
f 1314/2/4 1315/2/4 1316/2/4
f 1316/2/4 1315/2/4 1317/2/4
f 1318/2/4 1319/2/4 1320/2/4
f 1320/2/4 1319/2/4 1321/2/4
f 1322/2/4 1323/2/4 1324/2/4
f 1324/2/4 1323/2/4 1325/2/4
f 1326/2/4 1327/2/4 1328/2/4
f 1328/2/4 1327/2/4 1329/2/4
f 1330/2/4 1331/2/4 1332/2/4
f 1332/2/4 1331/2/4 1333/2/4
f 1334/2/4 1335/2/4 1336/2/4
f 1336/2/4 1335/2/4 1337/2/4
f 1338/2/4 1339/2/4 1340/2/4
f 1340/2/4 1339/2/4 1341/2/4
f 1342/2/4 1343/2/4 1344/2/4
f 1344/2/4 1343/2/4 1345/2/4
f 1346/2/4 1347/2/4 1348/2/4
f 1348/2/4 1347/2/4 1349/2/4
f 1350/2/4 1351/2/4 1352/2/4
f 1352/2/4 1351/2/4 1353/2/4
f 1354/2/4 1355/2/4 1356/2/4
f 1356/2/4 1355/2/4 1357/2/4
f 1357/2/4 1358/2/4 1359/2/4
f 1357/2/4 1359/2/4 1361/2/4
f 1359/2/4 1360/2/4 1361/2/4
f 1361/2/4 1360/2/4 1362/2/4
f 1357/2/4 1361/2/4 1364/2/4
f 1364/2/4 1361/2/4 1365/2/4
f 1363/2/4 1364/2/4 1366/2/4
f 1366/2/4 1364/2/4 1367/2/4
f 1368/2/4 1369/2/4 1370/2/4
f 1370/2/4 1369/2/4 1371/2/4
f 1372/2/4 1373/2/4 1374/2/4
f 1374/2/4 1373/2/4 1375/2/4
f 1376/2/4 1377/2/4 1378/2/4
f 1378/2/4 1377/2/4 1379/2/4
f 1380/2/4 1381/2/4 1382/2/4
f 1382/2/4 1381/2/4 1383/2/4
f 1384/2/4 1385/2/4 1386/2/4
f 1386/2/4 1385/2/4 1387/2/4
f 1388/2/4 1389/2/4 1390/2/4
f 1390/2/4 1389/2/4 1391/2/4
f 1392/2/4 1393/2/4 1394/2/4
f 1394/2/4 1393/2/4 1395/2/4
f 1396/2/4 1397/2/4 1398/2/4
f 1398/2/4 1397/2/4 1399/2/4
f 1400/2/4 1401/2/4 1402/2/4
f 1402/2/4 1401/2/4 1403/2/4
f 1404/2/4 1405/2/4 1406/2/4
f 1406/2/4 1405/2/4 1407/2/4
f 1408/2/4 1409/2/4 1410/2/4
f 1410/2/4 1409/2/4 1411/2/4
f 1412/2/4 1413/2/4 1414/2/4
f 1414/2/4 1413/2/4 1415/2/4
f 1416/2/4 1417/2/4 1418/2/4
f 1418/2/4 1417/2/4 1419/2/4
f 1421/1/4 1422/1/4 1424/1/4
f 1422/2/4 1423/2/4 1424/2/4
f 1424/2/4 1423/2/4 1425/2/4
f 1425/2/4 1423/2/4 1426/2/4
f 1421/1/4 1424/1/4 1427/1/4
f 1424/1/4 1425/1/4 1427/1/4
f 1427/1/4 1425/1/4 1428/1/4
f 1420/3/4 1421/3/4 1430/3/4
f 1421/1/4 1427/1/4 1431/1/4
f 1430/3/4 1421/3/4 1431/3/4
f 1428/2/4 1429/2/4 1432/2/4
f 1431/1/4 1427/1/4 1432/1/4
f 1427/2/4 1428/2/4 1432/2/4
f 1432/2/4 1429/2/4 1433/2/4
f 1436/3/5 1435/3/5 1434/3/5
f 1437/3/5 1435/3/5 1436/3/5
f 1438/1/6 1439/1/6 1442/1/6
f 1442/1/6 1439/1/6 1443/1/6
f 1440/1/6 1441/1/6 1444/1/6
f 1444/1/6 1445/1/6 1449/1/6
f 1440/1/6 1444/1/6 1449/1/6
f 1449/1/6 1445/1/6 1450/1/6
f 1450/1/6 1445/1/6 1451/1/6
f 1446/1/6 1447/1/6 1452/1/6
f 1452/1/6 1447/1/6 1453/1/6
f 1448/1/6 1449/1/6 1454/1/6
f 1449/1/6 1450/1/6 1454/1/6
f 1454/1/6 1450/1/6 1455/1/6
f 1455/1/6 1450/1/6 1456/1/6
f 1456/1/6 1450/1/6 1457/1/6
f 1458/1/6 1459/1/6 1462/1/6
f 1462/1/6 1459/1/6 1463/1/6
f 1460/1/6 1461/1/6 1464/1/6
f 1464/1/6 1461/1/6 1465/1/6
f 1455/1/6 1456/1/6 1468/1/6
f 1468/1/6 1456/1/6 1469/1/6
f 1466/1/6 1467/1/6 1470/1/6
f 1470/1/6 1467/1/6 1471/1/6
f 1469/1/6 1456/1/6 1473/1/6
f 1474/1/6 1475/1/6 1478/1/6
f 1478/1/6 1475/1/6 1479/1/6
f 1476/1/6 1477/1/6 1482/1/6
f 1482/1/6 1477/1/6 1483/1/6
f 1472/1/6 1473/1/6 1484/1/6
f 1484/1/6 1473/1/6 1485/1/6
f 1480/1/6 1481/1/6 1488/1/6
f 1488/1/6 1481/1/6 1489/1/6
f 1486/1/6 1487/1/6 1492/1/6
f 1492/1/6 1487/1/6 1493/1/6
f 1490/1/6 1491/1/6 1494/1/6
f 1494/1/6 1491/1/6 1495/1/6
f 1485/1/6 1473/1/6 1496/1/6
f 1495/1/6 1496/1/6 1501/1/6
f 1496/1/6 1473/1/6 1501/1/6
f 1473/1/6 1456/1/6 1502/1/6
f 1501/1/6 1473/1/6 1502/1/6
f 1502/1/6 1456/1/6 1503/1/6
f 1497/1/6 1498/1/6 1505/1/6
f 1505/1/6 1498/1/6 1506/1/6
f 1499/1/6 1500/1/6 1508/1/6
f 1508/1/6 1500/1/6 1509/1/6
f 1495/1/6 1501/1/6 1510/1/6
f 1501/2/6 1502/2/6 1510/2/6
f 1503/1/6 1504/1/6 1511/1/6
f 1510/2/6 1502/2/6 1511/2/6
f 1502/1/6 1503/1/6 1511/1/6
f 1511/1/6 1504/1/6 1512/1/6
f 1506/1/6 1507/1/6 1514/1/6
f 1514/1/6 1507/1/6 1515/1/6
f 1512/1/6 1513/1/6 1518/1/6
f 1495/1/6 1510/1/6 1518/1/6
f 1510/1/6 1511/1/6 1518/1/6
f 1511/1/6 1512/1/6 1518/1/6
f 1518/1/6 1513/1/6 1519/1/6
f 1516/1/6 1517/1/6 1522/1/6
f 1522/1/6 1517/1/6 1523/1/6
f 1519/1/6 1513/1/6 1525/1/6
f 1520/1/6 1521/1/6 1526/1/6
f 1526/1/6 1521/1/6 1527/1/6
f 1524/1/6 1525/1/6 1529/1/6
f 1529/1/6 1525/1/6 1530/1/6
f 1525/1/6 1513/1/6 1531/1/6
f 1530/1/6 1525/1/6 1531/1/6
f 1531/1/6 1513/1/6 1532/1/6
f 1528/1/6 1529/1/6 1537/1/6
f 1537/1/6 1529/1/6 1538/1/6
f 1530/1/6 1531/1/6 1539/1/6
f 1539/1/6 1531/1/6 1540/1/6
f 1533/1/6 1534/1/6 1543/1/6
f 1543/1/6 1534/1/6 1544/1/6
f 1535/1/6 1536/1/6 1545/1/6
f 1545/1/6 1536/1/6 1546/1/6
f 1541/1/6 1542/1/6 1549/1/6
f 1549/1/6 1542/1/6 1550/1/6
f 1540/1/6 1531/1/6 1553/1/6
f 1553/1/6 1531/1/6 1554/1/6
f 1551/1/6 1552/1/6 1556/1/6
f 1556/1/6 1552/1/6 1557/1/6
f 1547/1/6 1548/1/6 1560/1/6
f 1540/1/6 1553/1/6 1561/1/6
f 1553/2/6 1554/2/6 1562/2/6
f 1560/1/6 1561/1/6 1562/1/6
f 1561/1/6 1553/1/6 1562/1/6
f 1554/1/6 1555/1/6 1563/1/6
f 1562/2/6 1554/2/6 1563/2/6
f 1558/1/6 1559/1/6 1568/1/6
f 1568/1/6 1559/1/6 1569/1/6
f 1562/1/6 1563/1/6 1570/1/6
f 1563/1/6 1555/1/6 1570/1/6
f 1564/1/6 1565/1/6 1572/1/6
f 1572/1/6 1565/1/6 1573/1/6
f 1566/1/6 1567/1/6 1574/1/6
f 1574/1/6 1567/1/6 1575/1/6
f 1560/1/6 1562/1/6 1577/1/6
f 1547/1/6 1560/1/6 1577/1/6
f 1570/1/6 1571/1/6 1577/1/6
f 1562/1/6 1570/1/6 1577/1/6
f 1576/1/6 1577/1/6 1578/1/6
f 1577/1/6 1571/1/6 1579/1/6
f 1578/1/6 1577/1/6 1579/1/6
f 1579/1/6 1571/1/6 1580/1/6
f 1580/1/6 1581/1/6 1584/1/6
f 1579/1/6 1580/1/6 1584/1/6
f 1584/1/6 1581/1/6 1585/1/6
f 1582/1/6 1583/1/6 1586/1/6
f 1586/1/6 1583/1/6 1587/1/6
f 1579/1/6 1584/1/6 1588/1/6
f 1588/1/6 1584/1/6 1589/1/6
f 1589/1/6 1584/1/6 1590/1/6
f 1590/1/6 1584/1/6 1591/1/6
f 1591/1/6 1584/1/6 1592/1/6
f 1592/1/6 1584/1/6 1593/1/6
f 1589/1/6 1590/1/6 1595/1/6
f 1590/2/6 1591/2/6 1595/2/6
f 1591/1/6 1592/1/6 1596/1/6
f 1595/2/6 1591/2/6 1596/2/6
f 1593/1/6 1594/1/6 1597/1/6
f 1597/1/6 1594/1/6 1598/1/6
f 1589/1/6 1595/1/6 1601/1/6
f 1595/1/6 1596/1/6 1601/1/6
f 1601/1/6 1596/1/6 1602/1/6
f 1596/1/6 1592/1/6 1603/1/6
f 1602/1/6 1596/1/6 1603/1/6
f 1603/1/6 1592/1/6 1604/1/6
f 1599/1/6 1600/1/6 1607/1/6
f 1607/1/6 1600/1/6 1608/1/6
f 1602/1/6 1603/1/6 1610/1/6
f 1605/1/6 1606/1/6 1611/1/6
f 1611/1/6 1606/1/6 1612/1/6
f 1609/1/6 1610/1/6 1613/1/6
f 1613/1/6 1610/1/6 1614/1/6
f 1610/1/6 1603/1/6 1615/1/6
f 1614/1/6 1610/1/6 1615/1/6
f 1617/1/6 1618/1/6 1623/1/6
f 1623/1/6 1618/1/6 1624/1/6
f 1615/1/6 1616/1/6 1625/1/6
f 1614/1/6 1615/1/6 1625/1/6
f 1625/1/6 1616/1/6 1626/1/6
f 1619/1/6 1620/1/6 1627/1/6
f 1627/1/6 1620/1/6 1628/1/6
f 1621/1/6 1622/1/6 1629/1/6
f 1629/1/6 1622/1/6 1630/1/6
f 1614/1/6 1625/1/6 1632/1/6
f 1632/1/6 1625/1/6 1633/1/6
f 1631/1/6 1632/1/6 1634/1/6
f 1634/1/6 1632/1/6 1635/1/6
f 1633/1/6 1625/1/6 1636/1/6
f 1636/1/6 1625/1/6 1637/1/6
f 1633/1/6 1636/1/6 1643/1/6
f 1638/1/6 1639/1/6 1644/1/6
f 1644/1/6 1639/1/6 1645/1/6
f 1640/1/6 1641/1/6 1646/1/6
f 1646/1/6 1641/1/6 1647/1/6
f 1642/1/6 1643/1/6 1649/1/6
f 1643/1/6 1636/1/6 1649/1/6
f 1647/1/6 1648/1/6 1653/1/6
f 1649/1/6 1650/1/6 1654/1/6
f 1642/1/6 1649/1/6 1654/1/6
f 1651/1/6 1652/1/6 1655/1/6
f 1655/1/6 1652/1/6 1656/1/6
f 1653/1/6 1654/1/6 1659/1/6
f 1647/1/6 1653/1/6 1659/1/6
f 1654/1/6 1650/1/6 1660/1/6
f 1659/1/6 1654/1/6 1660/1/6
f 1660/1/6 1650/1/6 1661/1/6
f 1661/1/6 1650/1/6 1662/1/6
f 1657/1/6 1658/1/6 1663/1/6
f 1663/1/6 1658/1/6 1664/1/6
f 1660/1/6 1661/1/6 1665/1/6
f 1665/1/6 1661/1/6 1666/1/6
f 1667/2/6 1668/2/6 1673/2/6
f 1669/2/6 1670/2/6 1674/2/6
f 1671/2/6 1672/2/6 1675/2/6
f 1675/2/6 1672/2/6 1676/2/6
f 1673/2/6 1674/2/6 1677/2/6
f 1667/2/6 1673/2/6 1677/2/6
f 1677/2/6 1674/2/6 1678/2/6
f 1674/2/6 1670/2/6 1679/2/6
f 1678/2/6 1674/2/6 1679/2/6
f 1679/2/6 1670/2/6 1680/2/6
f 1676/2/6 1672/2/6 1682/2/6
f 1667/2/6 1677/2/6 1683/2/6
f 1683/2/6 1677/2/6 1684/2/6
f 1684/2/6 1677/2/6 1685/2/6
f 1678/2/6 1679/2/6 1686/2/6
f 1686/2/6 1679/2/6 1687/2/6
f 1681/2/6 1682/2/6 1690/2/6
f 1690/2/6 1682/2/6 1691/2/6
f 1682/2/6 1672/2/6 1692/2/6
f 1691/2/6 1682/2/6 1692/2/6
f 1692/2/6 1672/2/6 1693/2/6
f 1693/2/6 1672/2/6 1694/2/6
f 1690/2/6 1691/2/6 1697/2/6
f 1689/2/6 1690/2/6 1697/2/6
f 1692/2/6 1693/2/6 1698/2/6
f 1698/2/6 1693/2/6 1699/2/6
f 1694/2/6 1672/2/6 1700/2/6
f 1700/2/6 1672/2/6 1701/2/6
f 1701/2/6 1672/2/6 1702/2/6
f 1695/2/6 1696/2/6 1703/2/6
f 1687/2/6 1688/2/6 1704/2/6
f 1684/2/6 1685/2/6 1704/2/6
f 1685/2/6 1686/2/6 1704/2/6
f 1686/2/6 1687/2/6 1704/2/6
f 1704/2/6 1688/2/6 1705/2/6
f 1705/2/6 1688/2/6 1706/2/6
f 1706/2/6 1688/2/6 1707/2/6
f 1700/2/6 1701/2/6 1709/2/6
f 1698/2/6 1699/2/6 1709/2/6
f 1699/2/6 1700/2/6 1709/2/6
f 1697/2/6 1698/2/6 1709/2/6
f 1702/2/6 1672/2/6 1710/2/6
f 1710/2/6 1672/2/6 1711/2/6
f 1711/2/6 1672/2/6 1712/2/6
f 1704/2/6 1705/2/6 1713/2/6
f 1703/2/6 1704/2/6 1713/2/6
f 1707/2/6 1708/2/6 1714/2/6
f 1706/2/6 1707/2/6 1714/2/6
f 1714/2/6 1708/2/6 1715/2/6
f 1715/2/6 1708/2/6 1716/2/6
f 1697/2/6 1709/2/6 1717/2/6
f 1689/2/6 1697/2/6 1717/2/6
f 1710/2/6 1711/2/6 1717/2/6
f 1709/2/6 1710/2/6 1717/2/6
f 1717/2/6 1711/2/6 1718/2/6
f 1703/2/6 1713/2/6 1719/2/6
f 1714/2/6 1715/2/6 1719/2/6
f 1713/2/6 1714/2/6 1719/2/6
f 1719/2/6 1715/2/6 1720/2/6
f 1689/2/6 1717/2/6 1721/2/6
f 1718/2/6 1711/2/6 1722/2/6
f 1722/2/6 1711/2/6 1723/2/6
f 1712/2/6 1672/2/6 1724/2/6
f 1703/2/6 1719/2/6 1725/2/6
f 1725/2/6 1719/2/6 1726/2/6
f 1726/2/6 1719/2/6 1727/2/6
f 1720/2/6 1715/2/6 1728/2/6
f 1728/2/6 1715/2/6 1729/2/6
f 1689/2/6 1721/2/6 1731/2/6
f 1722/2/6 1723/2/6 1731/2/6
f 1723/2/6 1724/2/6 1731/2/6
f 1721/2/6 1722/2/6 1731/2/6
f 1731/2/6 1724/2/6 1732/2/6
f 1732/2/6 1724/2/6 1733/2/6
f 1733/2/6 1724/2/6 1734/2/6
f 1667/2/6 1683/2/6 1735/2/6
f 1695/2/6 1703/2/6 1736/2/6
f 1703/2/6 1725/2/6 1736/2/6
f 1736/2/6 1725/2/6 1737/2/6
f 1729/2/6 1730/2/6 1738/2/6
f 1726/2/6 1727/2/6 1738/2/6
f 1728/2/6 1729/2/6 1738/2/6
f 1727/2/6 1728/2/6 1738/2/6
f 1738/2/6 1730/2/6 1739/2/6
f 1739/2/6 1730/2/6 1740/2/6
f 1689/2/6 1731/2/6 1741/2/6
f 1732/2/6 1733/2/6 1742/2/6
f 1742/2/6 1733/2/6 1743/2/6
f 1734/2/6 1724/2/6 1744/2/6
f 1736/2/6 1737/2/6 1745/2/6
f 1735/2/6 1736/2/6 1745/2/6
f 1737/2/6 1738/2/6 1745/2/6
f 1738/2/6 1739/2/6 1745/2/6
f 1745/2/6 1739/2/6 1746/2/6
f 1746/2/6 1739/2/6 1747/2/6
f 1740/2/6 1730/2/6 1748/2/6
f 1748/2/6 1730/2/6 1749/2/6
f 1743/2/6 1744/2/6 1750/2/6
f 1742/2/6 1743/2/6 1750/2/6
f 1741/2/6 1742/2/6 1750/2/6
f 1750/2/6 1744/2/6 1751/2/6
f 1735/2/6 1745/2/6 1752/2/6
f 1747/2/6 1748/2/6 1754/2/6
f 1746/2/6 1747/2/6 1754/2/6
f 1754/2/6 1748/2/6 1755/2/6
f 1689/2/6 1741/2/6 1756/2/6
f 1741/2/6 1750/2/6 1756/2/6
f 1756/2/6 1750/2/6 1757/2/6
f 1757/2/6 1750/2/6 1758/2/6
f 1751/2/6 1744/2/6 1759/2/6
f 1744/2/6 1724/2/6 1760/2/6
f 1759/2/6 1744/2/6 1760/2/6
f 1667/2/6 1735/2/6 1761/2/6
f 1752/2/6 1753/2/6 1761/2/6
f 1735/2/6 1752/2/6 1761/2/6
f 1761/2/6 1753/2/6 1762/2/6
f 1746/2/6 1754/2/6 1763/2/6
f 1755/2/6 1748/2/6 1764/2/6
f 1757/2/6 1758/2/6 1765/2/6
f 1758/2/6 1759/2/6 1765/2/6
f 1765/2/6 1759/2/6 1766/2/6
f 1766/2/6 1759/2/6 1767/2/6
f 1760/2/6 1724/2/6 1768/2/6
f 1768/2/6 1724/2/6 1769/2/6
f 1769/2/6 1724/2/6 1770/2/6
f 1724/2/6 1672/2/6 1771/2/6
f 1770/2/6 1724/2/6 1771/2/6
f 1771/2/6 1672/2/6 1772/2/6
f 1770/2/6 1771/2/6 1773/2/6
f 1772/2/6 1672/2/6 1774/2/6
f 1667/2/6 1761/2/6 1775/2/6
f 1763/2/6 1764/2/6 1777/2/6
f 1764/2/6 1748/2/6 1777/2/6
f 1777/2/6 1748/2/6 1778/2/6
f 1778/2/6 1748/2/6 1779/2/6
f 1766/2/6 1767/2/6 1781/2/6
f 1768/2/6 1769/2/6 1781/2/6
f 1767/2/6 1768/2/6 1781/2/6
f 1781/2/6 1769/2/6 1782/2/6
f 1782/2/6 1769/2/6 1783/2/6
f 1770/2/6 1773/2/6 1784/2/6
f 1773/2/6 1774/2/6 1784/2/6
f 1775/2/6 1776/2/6 1785/2/6
f 1746/2/6 1763/2/6 1786/2/6
f 1763/2/6 1777/2/6 1786/2/6
f 1786/2/6 1777/2/6 1787/2/6
f 1787/2/6 1777/2/6 1788/2/6
f 1788/2/6 1777/2/6 1789/2/6
f 1779/2/6 1780/2/6 1790/2/6
f 1778/2/6 1779/2/6 1790/2/6
f 1790/2/6 1780/2/6 1791/2/6
f 1791/2/6 1780/2/6 1792/2/6
f 1766/2/6 1781/2/6 1793/2/6
f 1783/2/6 1784/2/6 1794/2/6
f 1782/2/6 1783/2/6 1794/2/6
f 1788/2/6 1789/2/6 1795/2/6
f 1790/2/6 1791/2/6 1795/2/6
f 1789/2/6 1790/2/6 1795/2/6
f 1795/2/6 1791/2/6 1796/2/6
f 1793/2/6 1794/2/6 1799/2/6
f 1766/2/6 1793/2/6 1799/2/6
f 1799/2/6 1794/2/6 1800/2/6
f 1794/2/6 1784/2/6 1801/2/6
f 1800/2/6 1794/2/6 1801/2/6
f 1775/2/6 1785/2/6 1802/2/6
f 1785/2/6 1786/2/6 1802/2/6
f 1786/2/6 1787/2/6 1802/2/6
f 1802/2/6 1787/2/6 1803/2/6
f 1788/2/6 1795/2/6 1804/2/6
f 1804/2/6 1795/2/6 1805/2/6
f 1805/2/6 1795/2/6 1806/2/6
f 1796/2/6 1797/2/6 1807/2/6
f 1807/2/6 1797/2/6 1808/2/6
f 1798/2/6 1799/2/6 1810/2/6
f 1799/2/6 1800/2/6 1810/2/6
f 1810/2/6 1800/2/6 1811/2/6
f 1811/2/6 1800/2/6 1812/2/6
f 1801/2/6 1784/2/6 1813/2/6
f 1803/2/6 1787/2/6 1814/2/6
f 1805/2/6 1806/2/6 1816/2/6
f 1808/2/6 1809/2/6 1816/2/6
f 1807/2/6 1808/2/6 1816/2/6
f 1806/2/6 1807/2/6 1816/2/6
f 1816/2/6 1809/2/6 1817/2/6
f 1817/2/6 1809/2/6 1818/2/6
f 1798/2/6 1810/2/6 1819/2/6
f 1811/2/6 1812/2/6 1820/2/6
f 1812/2/6 1813/2/6 1820/2/6
f 1813/2/6 1784/2/6 1821/2/6
f 1820/2/6 1813/2/6 1821/2/6
f 1821/2/6 1784/2/6 1822/2/6
f 1784/2/6 1774/2/6 1823/2/6
f 1822/2/6 1784/2/6 1823/2/6
f 1823/2/6 1774/2/6 1824/2/6
f 1667/2/6 1775/2/6 1825/2/6
f 1775/2/6 1802/2/6 1825/2/6
f 1825/2/6 1802/2/6 1826/2/6
f 1798/2/6 1819/2/6 1827/2/6
f 1820/2/6 1821/2/6 1827/2/6
f 1819/2/6 1820/2/6 1827/2/6
f 1827/2/6 1821/2/6 1828/2/6
f 1828/2/6 1821/2/6 1829/2/6
f 1822/2/6 1823/2/6 1830/2/6
f 1830/2/6 1823/2/6 1831/2/6
f 1831/2/6 1823/2/6 1832/2/6
f 1824/2/6 1774/2/6 1833/2/6
f 1814/2/6 1815/2/6 1834/2/6
f 1816/2/6 1817/2/6 1834/2/6
f 1815/2/6 1816/2/6 1834/2/6
f 1834/2/6 1817/2/6 1835/2/6
f 1818/2/6 1809/2/6 1836/2/6
f 1836/2/6 1809/2/6 1837/2/6
f 1667/2/6 1825/2/6 1838/2/6
f 1828/2/6 1829/2/6 1840/2/6
f 1830/2/6 1831/2/6 1840/2/6
f 1829/2/6 1830/2/6 1840/2/6
f 1840/2/6 1831/2/6 1841/2/6
f 1841/2/6 1831/2/6 1842/2/6
f 1832/2/6 1833/2/6 1843/2/6
f 1838/2/6 1839/2/6 1844/2/6
f 1803/2/6 1814/2/6 1845/2/6
f 1814/2/6 1834/2/6 1845/2/6
f 1845/2/6 1834/2/6 1846/2/6
f 1846/2/6 1834/2/6 1847/2/6
f 1847/2/6 1834/2/6 1848/2/6
f 1835/2/6 1817/2/6 1849/2/6
f 1828/2/6 1840/2/6 1850/2/6
f 1850/2/6 1840/2/6 1851/2/6
f 1851/2/6 1840/2/6 1852/2/6
f 1841/2/6 1842/2/6 1853/2/6
f 1842/2/6 1843/2/6 1853/2/6
f 1838/2/6 1844/2/6 1854/2/6
f 1844/2/6 1845/2/6 1854/2/6
f 1845/2/6 1846/2/6 1854/2/6
f 1854/2/6 1846/2/6 1855/2/6
f 1855/2/6 1846/2/6 1856/2/6
f 1856/2/6 1846/2/6 1857/2/6
f 1857/2/6 1846/2/6 1858/2/6
f 1847/2/6 1848/2/6 1859/2/6
f 1848/2/6 1849/2/6 1859/2/6
f 1849/2/6 1817/2/6 1860/2/6
f 1859/2/6 1849/2/6 1860/2/6
f 1860/2/6 1817/2/6 1861/2/6
f 1851/2/6 1852/2/6 1862/2/6
f 1852/2/6 1853/2/6 1862/2/6
f 1853/2/6 1843/2/6 1862/2/6
f 1843/2/6 1833/2/6 1862/2/6
f 1833/2/6 1774/2/6 1863/2/6
f 1862/2/6 1833/2/6 1863/2/6
f 1774/2/6 1672/2/6 1863/2/6
f 1855/2/6 1856/2/6 1864/2/6
f 1859/2/6 1860/2/6 1865/2/6
f 1857/2/6 1858/2/6 1865/2/6
f 1858/2/6 1859/2/6 1865/2/6
f 1865/2/6 1860/2/6 1866/2/6
f 1851/2/6 1862/2/6 1868/2/6
f 1868/2/6 1862/2/6 1869/2/6
f 1866/2/6 1867/2/6 1870/2/6
f 1855/2/6 1864/2/6 1870/2/6
f 1864/2/6 1865/2/6 1870/2/6
f 1865/2/6 1866/2/6 1870/2/6
f 1870/2/6 1867/2/6 1871/2/6
f 1871/2/6 1867/2/6 1872/2/6
f 1872/2/6 1867/2/6 1873/2/6
f 1869/2/6 1862/2/6 1875/2/6
f 1871/2/6 1872/2/6 1876/2/6
f 1876/2/6 1872/2/6 1877/2/6
f 1877/2/6 1872/2/6 1878/2/6
f 1873/2/6 1867/2/6 1879/2/6
f 1879/2/6 1867/2/6 1880/2/6
f 1874/2/6 1875/2/6 1883/2/6
f 1875/2/6 1862/2/6 1884/2/6
f 1883/2/6 1875/2/6 1884/2/6
f 1884/2/6 1862/2/6 1885/2/6
f 1863/2/6 1672/2/6 1886/2/6
f 1882/2/6 1883/2/6 1889/2/6
f 1884/2/6 1885/2/6 1890/2/6
f 1885/2/6 1886/2/6 1890/2/6
f 1890/2/6 1886/2/6 1891/2/6
f 1891/2/6 1886/2/6 1892/2/6
f 1838/2/6 1854/2/6 1893/2/6
f 1887/2/6 1888/2/6 1894/2/6
f 1894/2/6 1888/2/6 1895/2/6
f 1877/2/6 1878/2/6 1896/2/6
f 1880/2/6 1881/2/6 1896/2/6
f 1878/2/6 1879/2/6 1896/2/6
f 1879/2/6 1880/2/6 1896/2/6
f 1896/2/6 1881/2/6 1897/2/6
f 1897/2/6 1881/2/6 1898/2/6
f 1898/2/6 1881/2/6 1899/2/6
f 1882/2/6 1889/2/6 1902/2/6
f 1890/2/6 1891/2/6 1902/2/6
f 1889/2/6 1890/2/6 1902/2/6
f 1902/2/6 1891/2/6 1903/2/6
f 1903/2/6 1891/2/6 1904/2/6
f 1904/2/6 1891/2/6 1905/2/6
f 1894/2/6 1895/2/6 1907/2/6
f 1893/2/6 1894/2/6 1907/2/6
f 1895/2/6 1896/2/6 1907/2/6
f 1896/2/6 1897/2/6 1907/2/6
f 1899/2/6 1900/2/6 1908/2/6
f 1898/2/6 1899/2/6 1908/2/6
f 1908/2/6 1900/2/6 1909/2/6
f 1909/2/6 1900/2/6 1910/2/6
f 1902/2/6 1903/2/6 1911/2/6
f 1901/2/6 1902/2/6 1911/2/6
f 1905/2/6 1906/2/6 1912/2/6
f 1904/2/6 1905/2/6 1912/2/6
f 1907/2/6 1908/2/6 1913/2/6
f 1908/2/6 1909/2/6 1913/2/6
f 1901/2/6 1911/2/6 1915/2/6
f 1911/2/6 1912/2/6 1915/2/6
f 1915/2/6 1912/2/6 1916/2/6
f 1893/2/6 1907/2/6 1917/2/6
f 1913/2/6 1914/2/6 1917/2/6
f 1907/2/6 1913/2/6 1917/2/6
f 1917/2/6 1914/2/6 1918/2/6
f 1918/2/6 1914/2/6 1919/2/6
f 1919/2/6 1914/2/6 1920/2/6
f 1916/2/6 1912/2/6 1921/2/6
f 1921/2/6 1912/2/6 1922/2/6
f 1912/2/6 1906/2/6 1923/2/6
f 1922/2/6 1912/2/6 1923/2/6
f 1892/2/6 1886/2/6 1924/2/6
f 1838/2/6 1893/2/6 1925/2/6
f 1893/2/6 1917/2/6 1925/2/6
f 1925/2/6 1917/2/6 1926/2/6
f 1918/2/6 1919/2/6 1927/2/6
f 1927/2/6 1919/2/6 1928/2/6
f 1928/2/6 1919/2/6 1929/2/6
f 1929/2/6 1919/2/6 1930/2/6
f 1930/2/6 1919/2/6 1931/2/6
f 1920/2/6 1914/2/6 1932/2/6
f 1916/2/6 1921/2/6 1934/2/6
f 1934/2/6 1921/2/6 1935/2/6
f 1922/2/6 1923/2/6 1936/2/6
f 1923/2/6 1924/2/6 1936/2/6
f 1936/2/6 1924/2/6 1937/2/6
f 1937/2/6 1924/2/6 1938/2/6
f 1667/2/6 1838/2/6 1939/2/6
f 1838/2/6 1925/2/6 1939/2/6
f 1939/2/6 1925/2/6 1940/2/6
f 1928/2/6 1929/2/6 1941/2/6
f 1941/2/6 1929/2/6 1942/2/6
f 1942/2/6 1929/2/6 1943/2/6
f 1930/2/6 1931/2/6 1944/2/6
f 1931/2/6 1932/2/6 1944/2/6
f 1932/2/6 1914/2/6 1945/2/6
f 1944/2/6 1932/2/6 1945/2/6
f 1945/2/6 1914/2/6 1946/2/6
f 1934/2/6 1935/2/6 1948/2/6
f 1933/2/6 1934/2/6 1948/2/6
f 1936/2/6 1937/2/6 1948/2/6
f 1935/2/6 1936/2/6 1948/2/6
f 1938/2/6 1924/2/6 1949/2/6
f 1942/2/6 1943/2/6 1950/2/6
f 1944/2/6 1945/2/6 1950/2/6
f 1943/2/6 1944/2/6 1950/2/6
f 1946/2/6 1947/2/6 1951/2/6
f 1948/2/6 1949/2/6 1953/2/6
f 1933/2/6 1948/2/6 1953/2/6
f 1953/2/6 1949/2/6 1954/2/6
f 1954/2/6 1949/2/6 1955/2/6
f 1949/2/6 1924/2/6 1956/2/6
f 1955/2/6 1949/2/6 1956/2/6
f 1924/2/6 1886/2/6 1956/2/6
f 1886/2/6 1672/2/6 1957/2/6
f 1956/2/6 1886/2/6 1957/2/6
f 1667/2/6 1939/2/6 1958/2/6
f 1950/2/6 1951/2/6 1961/2/6
f 1942/2/6 1950/2/6 1961/2/6
f 1961/2/6 1951/2/6 1962/2/6
f 1962/2/6 1951/2/6 1963/2/6
f 1951/2/6 1947/2/6 1964/2/6
f 1963/2/6 1951/2/6 1964/2/6
f 1964/2/6 1947/2/6 1965/2/6
f 1953/2/6 1954/2/6 1966/2/6
f 1952/2/6 1953/2/6 1966/2/6
f 1955/2/6 1956/2/6 1967/2/6
f 1967/2/6 1956/2/6 1968/2/6
f 1968/2/6 1956/2/6 1969/2/6
f 1969/2/6 1956/2/6 1970/2/6
f 1957/2/6 1672/2/6 1971/2/6
f 1958/2/6 1959/2/6 1972/2/6
f 1960/2/6 1961/2/6 1975/2/6
f 1961/2/6 1962/2/6 1975/2/6
f 1975/2/6 1962/2/6 1976/2/6
f 1963/2/6 1964/2/6 1977/2/6
f 1977/2/6 1964/2/6 1978/2/6
f 1952/2/6 1966/2/6 1979/2/6
f 1966/2/6 1967/2/6 1979/2/6
f 1967/2/6 1968/2/6 1979/2/6
f 1979/2/6 1968/2/6 1980/2/6
f 1980/2/6 1968/2/6 1981/2/6
f 1981/2/6 1968/2/6 1982/2/6
f 1982/2/6 1968/2/6 1983/2/6
f 1970/2/6 1971/2/6 1984/2/6
f 1969/2/6 1970/2/6 1984/2/6
f 1978/2/6 1964/2/6 1985/2/6
f 1985/2/6 1964/2/6 1986/2/6
f 1980/2/6 1981/2/6 1987/2/6
f 1982/2/6 1983/2/6 1988/2/6
f 1983/2/6 1984/2/6 1988/2/6
f 1988/2/6 1984/2/6 1989/2/6
f 1984/2/6 1971/2/6 1990/2/6
f 1989/2/6 1984/2/6 1990/2/6
f 1972/2/6 1973/2/6 1991/2/6
f 1975/2/6 1976/2/6 1992/2/6
f 1976/2/6 1977/2/6 1992/2/6
f 1974/2/6 1975/2/6 1992/2/6
f 1988/2/6 1989/2/6 1993/2/6
f 1987/2/6 1988/2/6 1993/2/6
f 1993/2/6 1989/2/6 1994/2/6
f 1991/2/6 1992/2/6 1995/2/6
f 1992/2/6 1977/2/6 1995/2/6
f 1980/2/6 1987/2/6 1998/2/6
f 1987/2/6 1993/2/6 1998/2/6
f 1998/2/6 1993/2/6 1999/2/6
f 1994/2/6 1989/2/6 2000/2/6
f 2000/2/6 1989/2/6 2001/2/6
f 1990/2/6 1971/2/6 2002/2/6
f 1995/2/6 1996/2/6 2003/2/6
f 1667/2/6 1958/2/6 2003/2/6
f 1972/2/6 1991/2/6 2003/2/6
f 1958/2/6 1972/2/6 2003/2/6
f 1991/2/6 1995/2/6 2003/2/6
f 2003/2/6 1996/2/6 2004/2/6
f 2001/2/6 2002/2/6 2005/2/6
f 1998/2/6 1999/2/6 2005/2/6
f 2000/2/6 2001/2/6 2005/2/6
f 1997/2/6 1998/2/6 2005/2/6
f 1999/2/6 2000/2/6 2005/2/6
f 2002/2/6 1971/2/6 2006/2/6
f 2005/2/6 2002/2/6 2006/2/6
f 1971/2/6 1672/2/6 2006/2/6
f 2007/2/6 2008/2/6 2009/2/6
f 2009/2/6 2008/2/6 2010/2/6
f 2010/2/6 2008/2/6 2013/2/6
f 2013/2/6 2008/2/6 2014/2/6
f 2011/2/6 2012/2/6 2015/2/6
f 2015/2/6 2012/2/6 2016/2/6
f 2017/2/6 2018/2/6 2019/2/6
f 2019/2/6 2018/2/6 2020/2/6
f 2007/2/6 2009/2/6 2023/2/6
f 2023/2/6 2009/2/6 2024/2/6
f 2021/2/6 2022/2/6 2025/2/6
f 2025/2/6 2022/2/6 2026/2/6
f 2027/2/6 2028/2/6 2029/2/6
f 2029/2/6 2028/2/6 2030/2/6
f 2030/2/6 2028/2/6 2032/2/6
f 2035/2/6 2036/2/6 2037/2/6
f 2037/2/6 2036/2/6 2038/2/6
f 2031/2/6 2032/2/6 2039/2/6
f 2032/2/6 2028/2/6 2040/2/6
f 2039/2/6 2032/2/6 2040/2/6
f 2033/2/6 2034/2/6 2041/2/6
f 2041/2/6 2034/2/6 2042/2/6
f 2040/2/6 2028/2/6 2043/2/6
f 2043/2/6 2028/2/6 2044/2/6
f 2045/2/6 2046/2/6 2049/2/6
f 2049/2/6 2046/2/6 2050/2/6
f 2047/2/6 2048/2/6 2054/2/6
f 2051/2/6 2052/2/6 2056/2/6
f 2056/2/6 2052/2/6 2057/2/6
f 2053/2/6 2054/2/6 2058/2/6
f 2054/2/6 2048/2/6 2059/2/6
f 2058/2/6 2054/2/6 2059/2/6
f 2055/2/6 2056/2/6 2060/2/6
f 2060/2/6 2056/2/6 2061/2/6
f 2059/2/6 2048/2/6 2062/2/6
f 2062/2/6 2048/2/6 2063/2/6
f 2066/2/6 2067/2/6 2070/2/6
f 2070/2/6 2067/2/6 2071/2/6
f 2064/2/6 2065/2/6 2072/2/6
f 2072/2/6 2073/2/6 2074/2/6
f 2068/2/6 2069/2/6 2076/2/6
f 2076/2/6 2069/2/6 2077/2/6
f 2074/2/6 2075/2/6 2078/2/6
f 2072/2/6 2074/2/6 2078/2/6
f 2064/2/6 2072/2/6 2078/2/6
f 2078/2/6 2075/2/6 2079/2/6
f 2064/2/6 2078/2/6 2082/2/6
f 2082/2/6 2078/2/6 2083/2/6
f 2079/2/6 2075/2/6 2084/2/6
f 2084/2/6 2075/2/6 2085/2/6
f 2080/2/6 2081/2/6 2086/2/6
f 2086/2/6 2081/2/6 2087/2/6
f 2087/2/6 2081/2/6 2090/2/6
f 2090/2/6 2081/2/6 2091/2/6
f 2088/2/6 2089/2/6 2092/2/6
f 2092/2/6 2089/2/6 2093/2/6
f 2094/2/6 2095/2/6 2100/2/6
f 2100/2/6 2095/2/6 2101/2/6
f 2096/2/6 2097/2/6 2104/2/6
f 2104/2/6 2097/2/6 2105/2/6
f 2098/2/6 2099/2/6 2106/2/6
f 2106/2/6 2099/2/6 2107/2/6
f 2102/2/6 2103/2/6 2110/2/6
f 2110/2/6 2103/2/6 2111/2/6
f 2105/2/6 2106/2/6 2112/2/6
f 2112/2/6 2106/2/6 2113/2/6
f 2113/2/6 2106/2/6 2114/2/6
f 2114/2/6 2106/2/6 2115/2/6
f 2108/2/6 2109/2/6 2116/2/6
f 2116/2/6 2109/2/6 2117/2/6
f 2113/2/6 2114/2/6 2120/2/6
f 2120/2/6 2114/2/6 2121/2/6
f 2118/2/6 2119/2/6 2122/2/6
f 2122/2/6 2119/2/6 2123/2/6
f 2124/2/6 2125/2/6 2126/2/6
f 2126/2/6 2125/2/6 2127/2/6
f 2124/2/6 2126/2/6 2128/2/6
f 2128/2/6 2126/2/6 2129/2/6
f 2127/2/6 2125/2/6 2130/2/6
f 2130/2/6 2125/2/6 2131/2/6
f 2132/2/6 2133/2/6 2134/2/6
f 2134/2/6 2133/2/6 2135/2/6
