# MagicaVoxel @ Ephtracy

# group
o 

# material
mtllib Drawbridge.mtl
usemtl palette

# normals
vn -1 0 0
vn 1 0 0
vn 0 0 1
vn 0 0 -1
vn 0 -1 0
vn 0 1 0

# texcoords
vt 0.537109 0.5
vt 0.876953 0.5
vt 0.978516 0.5
vt 0.982422 0.5
vt 0.986328 0.5
vt 0.994141 0.5

# verts
v -2 0 0.9
v -2 0 -0.9
v -2 0.3 -0.1
v -2 0.3 -0.3
v -2 0.4 0.9
v -2 0.4 0.6
v -2 0.4 -0.1
v -2 0.4 -0.3
v -2 0.4 -0.6
v -2 0.4 -0.9
v -2 0.8 0.9
v -2 0.8 0.6
v -2 0.8 -0.6
v -2 0.8 -0.9
v -2 0.9 0.9
v -2 0.9 0.6
v -2 0.9 -0.6
v -2 0.9 -0.9
v -1.3 0.4 0.9
v -1.3 0.4 0.6
v -1.3 0.4 -0.6
v -1.3 0.4 -0.9
v -1.3 0.7 0.9
v -1.3 0.7 0.6
v -1.3 0.7 -0.6
v -1.3 0.7 -0.9
v -0.3 0.4 0.9
v -0.3 0.4 0.6
v -0.3 0.4 -0.6
v -0.3 0.4 -0.9
v -0.3 0.7 0.9
v -0.3 0.7 0.6
v -0.3 0.7 -0.6
v -0.3 0.7 -0.9
v 0.7 0.4 0.9
v 0.7 0.4 0.6
v 0.7 0.4 -0.6
v 0.7 0.4 -0.9
v 0.7 0.7 0.9
v 0.7 0.7 0.6
v 0.7 0.7 -0.6
v 0.7 0.7 -0.9
v 1.7 0.4 0.9
v 1.7 0.4 0.6
v 1.7 0.4 -0.6
v 1.7 0.4 -0.9
v 1.7 0.7 0.9
v 1.7 0.7 0.6
v 1.7 0.7 -0.6
v 1.7 0.7 -0.9
v -1.7 0.4 0.9
v -1.7 0.4 0.6
v -1.7 0.4 -0.6
v -1.7 0.4 -0.9
v -1.7 0.7 0.9
v -1.7 0.7 0.6
v -1.7 0.7 -0.6
v -1.7 0.7 -0.9
v -0.7 0.4 0.9
v -0.7 0.4 0.6
v -0.7 0.4 -0.6
v -0.7 0.4 -0.9
v -0.7 0.7 0.9
v -0.7 0.7 0.6
v -0.7 0.7 -0.6
v -0.7 0.7 -0.9
v 0.3 0.4 0.9
v 0.3 0.4 0.6
v 0.3 0.4 -0.6
v 0.3 0.4 -0.9
v 0.3 0.7 0.9
v 0.3 0.7 0.6
v 0.3 0.7 -0.6
v 0.3 0.7 -0.9
v 1.3 0.4 0.9
v 1.3 0.4 0.6
v 1.3 0.4 -0.6
v 1.3 0.4 -0.9
v 1.3 0.7 0.9
v 1.3 0.7 0.6
v 1.3 0.7 -0.6
v 1.3 0.7 -0.9
v 2 0 0.9
v 2 0 -0.9
v 2 0.3 0.1
v 2 0.3 0
v 2 0.4 0.9
v 2 0.4 0.6
v 2 0.4 0.1
v 2 0.4 0
v 2 0.4 -0.6
v 2 0.4 -0.9
v 2 0.8 0.9
v 2 0.8 0.6
v 2 0.8 -0.6
v 2 0.8 -0.9
v 2 0.9 0.9
v 2 0.9 0.6
v 2 0.9 -0.6
v 2 0.9 -0.9
v -2 0 0.9
v -2 0.4 0.9
v -2 0.8 0.9
v -2 0.9 0.9
v -1.7 0.4 0.9
v -1.7 0.7 0.9
v -1.3 0.4 0.9
v -1.3 0.7 0.9
v -0.7 0.4 0.9
v -0.7 0.7 0.9
v -0.3 0.4 0.9
v -0.3 0.7 0.9
v 0.3 0.4 0.9
v 0.3 0.7 0.9
v 0.7 0.4 0.9
v 0.7 0.7 0.9
v 1.3 0.4 0.9
v 1.3 0.7 0.9
v 1.7 0.4 0.9
v 1.7 0.7 0.9
v 2 0 0.9
v 2 0.4 0.9
v 2 0.8 0.9
v 2 0.9 0.9
v -2 0.4 -0.6
v -2 0.8 -0.6
v -2 0.9 -0.6
v -1.7 0.4 -0.6
v -1.7 0.7 -0.6
v -1.3 0.4 -0.6
v -1.3 0.7 -0.6
v -0.7 0.4 -0.6
v -0.7 0.7 -0.6
v -0.3 0.4 -0.6
v -0.3 0.7 -0.6
v 0.3 0.4 -0.6
v 0.3 0.7 -0.6
v 0.7 0.4 -0.6
v 0.7 0.7 -0.6
v 1.3 0.4 -0.6
v 1.3 0.7 -0.6
v 1.7 0.4 -0.6
v 1.7 0.7 -0.6
v 2 0.4 -0.6
v 2 0.8 -0.6
v 2 0.9 -0.6
v -2 0.4 0.6
v -2 0.8 0.6
v -2 0.9 0.6
v -1.7 0.4 0.6
v -1.7 0.7 0.6
v -1.3 0.4 0.6
v -1.3 0.7 0.6
v -0.9 0.4 0.6
v -0.8 0.4 0.6
v -0.7 0.4 0.6
v -0.7 0.7 0.6
v -0.3 0.4 0.6
v -0.3 0.7 0.6
v -0.2 0.4 0.6
v 0.3 0.4 0.6
v 0.3 0.7 0.6
v 0.7 0.4 0.6
v 0.7 0.7 0.6
v 1.2 0.4 0.6
v 1.3 0.4 0.6
v 1.3 0.7 0.6
v 1.7 0.4 0.6
v 1.7 0.7 0.6
v 2 0.4 0.6
v 2 0.8 0.6
v 2 0.9 0.6
v -2 0 -0.9
v -2 0.4 -0.9
v -2 0.8 -0.9
v -2 0.9 -0.9
v -1.7 0.4 -0.9
v -1.7 0.7 -0.9
v -1.3 0.4 -0.9
v -1.3 0.7 -0.9
v -0.7 0.4 -0.9
v -0.7 0.7 -0.9
v -0.3 0.4 -0.9
v -0.3 0.7 -0.9
v 0.3 0.4 -0.9
v 0.3 0.7 -0.9
v 0.7 0.4 -0.9
v 0.7 0.7 -0.9
v 1.3 0.4 -0.9
v 1.3 0.7 -0.9
v 1.7 0.4 -0.9
v 1.7 0.7 -0.9
v 2 0 -0.9
v 2 0.4 -0.9
v 2 0.8 -0.9
v 2 0.9 -0.9
v -2 0 0.9
v 2 0 0.9
v -2 0 -0.9
v 2 0 -0.9
v -1.7 0.7 0.9
v -1.3 0.7 0.9
v -0.7 0.7 0.9
v -0.3 0.7 0.9
v 0.3 0.7 0.9
v 0.7 0.7 0.9
v 1.3 0.7 0.9
v 1.7 0.7 0.9
v -1.7 0.7 0.6
v -1.3 0.7 0.6
v -0.7 0.7 0.6
v -0.3 0.7 0.6
v 0.3 0.7 0.6
v 0.7 0.7 0.6
v 1.3 0.7 0.6
v 1.7 0.7 0.6
v -1.7 0.7 -0.6
v -1.3 0.7 -0.6
v -0.7 0.7 -0.6
v -0.3 0.7 -0.6
v 0.3 0.7 -0.6
v 0.7 0.7 -0.6
v 1.3 0.7 -0.6
v 1.7 0.7 -0.6
v -1.7 0.7 -0.9
v -1.3 0.7 -0.9
v -0.7 0.7 -0.9
v -0.3 0.7 -0.9
v 0.3 0.7 -0.9
v 0.7 0.7 -0.9
v 1.3 0.7 -0.9
v 1.7 0.7 -0.9
v -1.7 0.4 0.9
v -1.3 0.4 0.9
v -0.7 0.4 0.9
v -0.3 0.4 0.9
v 0.3 0.4 0.9
v 0.7 0.4 0.9
v 1.3 0.4 0.9
v 1.7 0.4 0.9
v -2 0.4 0.6
v -1.7 0.4 0.6
v -1.3 0.4 0.6
v -0.9 0.4 0.6
v -0.8 0.4 0.6
v -0.7 0.4 0.6
v -0.3 0.4 0.6
v -0.2 0.4 0.6
v 0.3 0.4 0.6
v 0.7 0.4 0.6
v 1.2 0.4 0.6
v 1.3 0.4 0.6
v 1.7 0.4 0.6
v 2 0.4 0.6
v -1.9 0.4 0.5
v -1.8 0.4 0.5
v -1.6 0.4 0.5
v -1.5 0.4 0.5
v -1.4 0.4 0.5
v -1.2 0.4 0.5
v -0.9 0.4 0.5
v -0.8 0.4 0.5
v -0.6 0.4 0.5
v -0.5 0.4 0.5
v -0.3 0.4 0.5
v -0.2 0.4 0.5
v 0.1 0.4 0.5
v 0.3 0.4 0.5
v 0.4 0.4 0.5
v 0.5 0.4 0.5
v 1.2 0.4 0.5
v 1.3 0.4 0.5
v 1.4 0.4 0.5
v 1.8 0.4 0.5
v 1.9 0.4 0.5
v -1.9 0.4 0.4
v -1.8 0.4 0.4
v -1.6 0.4 0.4
v -1.5 0.4 0.4
v -1.4 0.4 0.4
v -1.2 0.4 0.4
v -1.1 0.4 0.4
v -0.9 0.4 0.4
v -0.8 0.4 0.4
v -0.7 0.4 0.4
v -0.6 0.4 0.4
v -0.5 0.4 0.4
v -0.0999999 0.4 0.4
v 2.38419e-07 0.4 0.4
v 0.1 0.4 0.4
v 0.3 0.4 0.4
v 0.4 0.4 0.4
v 0.5 0.4 0.4
v 0.7 0.4 0.4
v 0.9 0.4 0.4
v 1 0.4 0.4
v 1.1 0.4 0.4
v 1.3 0.4 0.4
v 1.4 0.4 0.4
v 1.6 0.4 0.4
v 1.7 0.4 0.4
v 1.8 0.4 0.4
v 1.9 0.4 0.4
v -1.9 0.4 0.3
v -1.8 0.4 0.3
v -1.7 0.4 0.3
v -1.5 0.4 0.3
v -1.3 0.4 0.3
v -1.2 0.4 0.3
v -1.1 0.4 0.3
v -0.8 0.4 0.3
v -0.7 0.4 0.3
v -0.6 0.4 0.3
v -0.5 0.4 0.3
v -0.3 0.4 0.3
v -0.2 0.4 0.3
v -0.0999999 0.4 0.3
v 2.38419e-07 0.4 0.3
v 0.3 0.4 0.3
v 0.4 0.4 0.3
v 0.7 0.4 0.3
v 0.9 0.4 0.3
v 1.4 0.4 0.3
v 1.5 0.4 0.3
v 1.6 0.4 0.3
v 1.7 0.4 0.3
v 1.8 0.4 0.3
v -1.9 0.4 0.2
v -1.8 0.4 0.2
v -1.7 0.4 0.2
v -1.6 0.4 0.2
v -1.5 0.4 0.2
v -1.4 0.4 0.2
v -1.3 0.4 0.2
v -1.2 0.4 0.2
v -1 0.4 0.2
v -0.9 0.4 0.2
v -0.7 0.4 0.2
v -0.6 0.4 0.2
v -0.5 0.4 0.2
v 2.38419e-07 0.4 0.2
v 0.1 0.4 0.2
v 0.2 0.4 0.2
v 0.3 0.4 0.2
v 0.4 0.4 0.2
v 0.5 0.4 0.2
v 0.9 0.4 0.2
v 1 0.4 0.2
v 1.1 0.4 0.2
v 1.2 0.4 0.2
v 1.3 0.4 0.2
v 1.4 0.4 0.2
v 1.5 0.4 0.2
v 1.7 0.4 0.2
v 1.8 0.4 0.2
v -1.6 0.4 0.1
v -1.4 0.4 0.1
v -1 0.4 0.1
v -0.9 0.4 0.1
v -0.5 0.4 0.1
v -0.4 0.4 0.1
v -0.3 0.4 0.1
v -0.2 0.4 0.1
v 2.38419e-07 0.4 0.1
v 0.1 0.4 0.1
v 0.2 0.4 0.1
v 0.3 0.4 0.1
v 0.4 0.4 0.1
v 0.5 0.4 0.1
v 0.6 0.4 0.1
v 0.9 0.4 0.1
v 1.1 0.4 0.1
v 1.2 0.4 0.1
v 1.3 0.4 0.1
v 1.4 0.4 0.1
v 1.6 0.4 0.1
v 1.7 0.4 0.1
v 1.9 0.4 0.1
v 2 0.4 0.1
v -1.9 0.4 0
v -1.8 0.4 0
v -1.7 0.4 0
v -1.4 0.4 0
v -1.3 0.4 0
v -1.2 0.4 0
v -1.1 0.4 0
v -1 0.4 0
v -0.5 0.4 0
v -0.4 0.4 0
v -0.3 0.4 0
v -0.0999999 0.4 0
v 2.38419e-07 0.4 0
v 0.5 0.4 0
v 0.6 0.4 0
v 0.7 0.4 0
v 0.8 0.4 0
v 1.3 0.4 0
v 1.4 0.4 0
v 1.6 0.4 0
v 1.7 0.4 0
v 1.9 0.4 0
v 2 0.4 0
v -2 0.4 -0.1
v -1.9 0.4 -0.1
v -1.8 0.4 -0.1
v -1.7 0.4 -0.1
v -1.5 0.4 -0.1
v -1.4 0.4 -0.1
v -1.1 0.4 -0.1
v -1 0.4 -0.1
v -0.9 0.4 -0.1
v -0.8 0.4 -0.1
v -0.6 0.4 -0.1
v -0.5 0.4 -0.1
v -0.4 0.4 -0.1
v -0.3 0.4 -0.1
v -0.0999999 0.4 -0.1
v 2.38419e-07 0.4 -0.1
v 0.1 0.4 -0.1
v 0.2 0.4 -0.1
v 0.4 0.4 -0.1
v 0.5 0.4 -0.1
v 0.7 0.4 -0.1
v 0.8 0.4 -0.1
v 0.9 0.4 -0.1
v 1.1 0.4 -0.1
v 1.3 0.4 -0.1
v 1.4 0.4 -0.1
v 1.5 0.4 -0.1
v 1.6 0.4 -0.1
v 1.7 0.4 -0.1
v 1.8 0.4 -0.1
v -1.8 0.4 -0.2
v -1.7 0.4 -0.2
v -1.5 0.4 -0.2
v -1.4 0.4 -0.2
v -1.3 0.4 -0.2
v -1.2 0.4 -0.2
v -0.6 0.4 -0.2
v -0.5 0.4 -0.2
v -0.3 0.4 -0.2
v -0.0999999 0.4 -0.2
v 0.1 0.4 -0.2
v 0.2 0.4 -0.2
v 0.5 0.4 -0.2
v 0.7 0.4 -0.2
v 0.9 0.4 -0.2
v 1.1 0.4 -0.2
v 1.3 0.4 -0.2
v 1.4 0.4 -0.2
v 1.5 0.4 -0.2
v 1.6 0.4 -0.2
v 1.7 0.4 -0.2
v 1.8 0.4 -0.2
v -2 0.4 -0.3
v -1.9 0.4 -0.3
v -1.7 0.4 -0.3
v -1.4 0.4 -0.3
v -1.2 0.4 -0.3
v -1 0.4 -0.3
v -0.9 0.4 -0.3
v -0.8 0.4 -0.3
v -0.7 0.4 -0.3
v -0.5 0.4 -0.3
v -0.3 0.4 -0.3
v -0.2 0.4 -0.3
v -0.0999999 0.4 -0.3
v 2.38419e-07 0.4 -0.3
v 0.4 0.4 -0.3
v 0.5 0.4 -0.3
v 0.7 0.4 -0.3
v 1 0.4 -0.3
v 1.1 0.4 -0.3
v 1.2 0.4 -0.3
v 1.3 0.4 -0.3
v 1.7 0.4 -0.3
v 1.8 0.4 -0.3
v -1.8 0.4 -0.4
v -1.7 0.4 -0.4
v -1.6 0.4 -0.4
v -1.5 0.4 -0.4
v -1.4 0.4 -0.4
v -1.2 0.4 -0.4
v -1 0.4 -0.4
v -0.9 0.4 -0.4
v -0.8 0.4 -0.4
v -0.7 0.4 -0.4
v -0.5 0.4 -0.4
v -0.2 0.4 -0.4
v 2.38419e-07 0.4 -0.4
v 0.1 0.4 -0.4
v 0.2 0.4 -0.4
v 0.3 0.4 -0.4
v 0.4 0.4 -0.4
v 0.7 0.4 -0.4
v 0.8 0.4 -0.4
v 1 0.4 -0.4
v 1.1 0.4 -0.4
v 1.2 0.4 -0.4
v 1.3 0.4 -0.4
v 1.4 0.4 -0.4
v 1.5 0.4 -0.4
v 1.8 0.4 -0.4
v 1.9 0.4 -0.4
v -1.8 0.4 -0.5
v -1.7 0.4 -0.5
v -1.6 0.4 -0.5
v -1.5 0.4 -0.5
v -0.9 0.4 -0.5
v -0.8 0.4 -0.5
v 0.1 0.4 -0.5
v 0.2 0.4 -0.5
v 0.3 0.4 -0.5
v 0.4 0.4 -0.5
v 0.7 0.4 -0.5
v 0.8 0.4 -0.5
v 1.4 0.4 -0.5
v 1.5 0.4 -0.5
v 1.7 0.4 -0.5
v 1.9 0.4 -0.5
v -2 0.4 -0.6
v -1.7 0.4 -0.6
v -1.3 0.4 -0.6
v -0.7 0.4 -0.6
v -0.3 0.4 -0.6
v 0.3 0.4 -0.6
v 0.7 0.4 -0.6
v 1.3 0.4 -0.6
v 1.7 0.4 -0.6
v 2 0.4 -0.6
v -1.7 0.4 -0.9
v -1.3 0.4 -0.9
v -0.7 0.4 -0.9
v -0.3 0.4 -0.9
v 0.3 0.4 -0.9
v 0.7 0.4 -0.9
v 1.3 0.4 -0.9
v 1.7 0.4 -0.9
v -2 0.9 0.9
v 2 0.9 0.9
v -2 0.9 0.6
v 2 0.9 0.6
v -2 0.9 -0.6
v 2 0.9 -0.6
v -2 0.9 -0.9
v 2 0.9 -0.9

# faces
f 3/5/1 2/5/1 1/5/1
f 4/5/1 2/5/1 3/5/1
f 5/5/1 3/5/1 1/5/1
f 6/5/1 3/5/1 5/5/1
f 7/4/1 4/4/1 3/4/1
f 7/5/1 3/5/1 6/5/1
f 8/5/1 2/5/1 4/5/1
f 8/4/1 4/4/1 7/4/1
f 9/5/1 2/5/1 8/5/1
f 10/5/1 2/5/1 9/5/1
f 11/1/1 6/1/1 5/1/1
f 12/1/1 6/1/1 11/1/1
f 13/1/1 10/1/1 9/1/1
f 14/1/1 10/1/1 13/1/1
f 15/2/1 12/2/1 11/2/1
f 16/2/1 12/2/1 15/2/1
f 17/2/1 14/2/1 13/2/1
f 18/2/1 14/2/1 17/2/1
f 23/1/1 20/1/1 19/1/1
f 24/1/1 20/1/1 23/1/1
f 25/1/1 22/1/1 21/1/1
f 26/1/1 22/1/1 25/1/1
f 31/1/1 28/1/1 27/1/1
f 32/1/1 28/1/1 31/1/1
f 33/1/1 30/1/1 29/1/1
f 34/1/1 30/1/1 33/1/1
f 39/1/1 36/1/1 35/1/1
f 40/1/1 36/1/1 39/1/1
f 41/1/1 38/1/1 37/1/1
f 42/1/1 38/1/1 41/1/1
f 47/1/1 44/1/1 43/1/1
f 48/1/1 44/1/1 47/1/1
f 49/1/1 46/1/1 45/1/1
f 50/1/1 46/1/1 49/1/1
f 51/1/2 52/1/2 55/1/2
f 55/1/2 52/1/2 56/1/2
f 53/1/2 54/1/2 57/1/2
f 57/1/2 54/1/2 58/1/2
f 59/1/2 60/1/2 63/1/2
f 63/1/2 60/1/2 64/1/2
f 61/1/2 62/1/2 65/1/2
f 65/1/2 62/1/2 66/1/2
f 67/1/2 68/1/2 71/1/2
f 71/1/2 68/1/2 72/1/2
f 69/1/2 70/1/2 73/1/2
f 73/1/2 70/1/2 74/1/2
f 75/1/2 76/1/2 79/1/2
f 79/1/2 76/1/2 80/1/2
f 77/1/2 78/1/2 81/1/2
f 81/1/2 78/1/2 82/1/2
f 83/5/2 84/5/2 85/5/2
f 85/5/2 84/5/2 86/5/2
f 83/5/2 85/5/2 87/5/2
f 87/5/2 85/5/2 88/5/2
f 85/6/2 86/6/2 89/6/2
f 88/5/2 85/5/2 89/5/2
f 86/5/2 84/5/2 90/5/2
f 89/6/2 86/6/2 90/6/2
f 90/5/2 84/5/2 91/5/2
f 91/5/2 84/5/2 92/5/2
f 87/1/2 88/1/2 93/1/2
f 93/1/2 88/1/2 94/1/2
f 91/1/2 92/1/2 95/1/2
f 95/1/2 92/1/2 96/1/2
f 93/2/2 94/2/2 97/2/2
f 97/2/2 94/2/2 98/2/2
f 95/2/2 96/2/2 99/2/2
f 99/2/2 96/2/2 100/2/2
f 105/5/3 102/5/3 101/5/3
f 105/1/3 103/1/3 102/1/3
f 106/1/3 103/1/3 105/1/3
f 107/5/3 105/5/3 101/5/3
f 108/1/3 103/1/3 106/1/3
f 109/5/3 107/5/3 101/5/3
f 109/1/3 108/1/3 107/1/3
f 110/1/3 103/1/3 108/1/3
f 110/1/3 108/1/3 109/1/3
f 111/5/3 109/5/3 101/5/3
f 112/1/3 103/1/3 110/1/3
f 113/5/3 111/5/3 101/5/3
f 113/1/3 112/1/3 111/1/3
f 114/1/3 103/1/3 112/1/3
f 114/1/3 112/1/3 113/1/3
f 115/5/3 113/5/3 101/5/3
f 116/1/3 103/1/3 114/1/3
f 117/5/3 115/5/3 101/5/3
f 117/1/3 116/1/3 115/1/3
f 118/1/3 103/1/3 116/1/3
f 118/1/3 116/1/3 117/1/3
f 119/5/3 117/5/3 101/5/3
f 120/1/3 103/1/3 118/1/3
f 121/5/3 119/5/3 101/5/3
f 122/1/3 120/1/3 119/1/3
f 122/5/3 119/5/3 121/5/3
f 123/2/3 104/2/3 103/2/3
f 123/1/3 120/1/3 122/1/3
f 123/1/3 103/1/3 120/1/3
f 124/2/3 104/2/3 123/2/3
f 128/1/3 126/1/3 125/1/3
f 129/1/3 126/1/3 128/1/3
f 131/1/3 126/1/3 129/1/3
f 132/1/3 131/1/3 130/1/3
f 133/1/3 126/1/3 131/1/3
f 133/1/3 131/1/3 132/1/3
f 135/1/3 126/1/3 133/1/3
f 136/1/3 135/1/3 134/1/3
f 137/1/3 126/1/3 135/1/3
f 137/1/3 135/1/3 136/1/3
f 139/1/3 126/1/3 137/1/3
f 140/1/3 139/1/3 138/1/3
f 141/1/3 126/1/3 139/1/3
f 141/1/3 139/1/3 140/1/3
f 143/1/3 126/1/3 141/1/3
f 144/1/3 143/1/3 142/1/3
f 145/2/3 127/2/3 126/2/3
f 145/1/3 143/1/3 144/1/3
f 145/1/3 126/1/3 143/1/3
f 146/2/3 127/2/3 145/2/3
f 147/1/4 148/1/4 150/1/4
f 150/1/4 148/1/4 151/1/4
f 151/1/4 148/1/4 153/1/4
f 152/1/4 153/1/4 154/1/4
f 154/1/4 153/1/4 155/1/4
f 155/1/4 153/1/4 156/1/4
f 153/1/4 148/1/4 157/1/4
f 156/1/4 153/1/4 157/1/4
f 157/1/4 148/1/4 159/1/4
f 158/1/4 159/1/4 160/1/4
f 160/1/4 159/1/4 161/1/4
f 159/1/4 148/1/4 162/1/4
f 161/1/4 159/1/4 162/1/4
f 162/1/4 148/1/4 164/1/4
f 163/1/4 164/1/4 165/1/4
f 165/1/4 164/1/4 166/1/4
f 164/1/4 148/1/4 167/1/4
f 166/1/4 164/1/4 167/1/4
f 167/1/4 148/1/4 169/1/4
f 168/1/4 169/1/4 170/1/4
f 148/2/4 149/2/4 171/2/4
f 170/1/4 169/1/4 171/1/4
f 169/1/4 148/1/4 171/1/4
f 171/2/4 149/2/4 172/2/4
f 173/5/4 174/5/4 177/5/4
f 174/1/4 175/1/4 177/1/4
f 177/1/4 175/1/4 178/1/4
f 173/5/4 177/5/4 179/5/4
f 178/1/4 175/1/4 180/1/4
f 173/5/4 179/5/4 181/5/4
f 179/1/4 180/1/4 181/1/4
f 180/1/4 175/1/4 182/1/4
f 181/1/4 180/1/4 182/1/4
f 173/5/4 181/5/4 183/5/4
f 182/1/4 175/1/4 184/1/4
f 173/5/4 183/5/4 185/5/4
f 183/1/4 184/1/4 185/1/4
f 184/1/4 175/1/4 186/1/4
f 185/1/4 184/1/4 186/1/4
f 173/5/4 185/5/4 187/5/4
f 186/1/4 175/1/4 188/1/4
f 173/5/4 187/5/4 189/5/4
f 187/1/4 188/1/4 189/1/4
f 188/1/4 175/1/4 190/1/4
f 189/1/4 188/1/4 190/1/4
f 173/5/4 189/5/4 191/5/4
f 190/1/4 175/1/4 192/1/4
f 173/5/4 191/5/4 193/5/4
f 191/1/4 192/1/4 194/1/4
f 193/5/4 191/5/4 194/5/4
f 175/2/4 176/2/4 195/2/4
f 194/1/4 192/1/4 195/1/4
f 192/1/4 175/1/4 195/1/4
f 195/2/4 176/2/4 196/2/4
f 199/5/5 198/5/5 197/5/5
f 200/5/5 198/5/5 199/5/5
f 209/1/5 202/1/5 201/1/5
f 210/1/5 202/1/5 209/1/5
f 211/1/5 204/1/5 203/1/5
f 212/1/5 204/1/5 211/1/5
f 213/1/5 206/1/5 205/1/5
f 214/1/5 206/1/5 213/1/5
f 215/1/5 208/1/5 207/1/5
f 216/1/5 208/1/5 215/1/5
f 225/1/5 218/1/5 217/1/5
f 226/1/5 218/1/5 225/1/5
f 227/1/5 220/1/5 219/1/5
f 228/1/5 220/1/5 227/1/5
f 229/1/5 222/1/5 221/1/5
f 230/1/5 222/1/5 229/1/5
f 231/1/5 224/1/5 223/1/5
f 232/1/5 224/1/5 231/1/5
f 233/5/6 234/5/6 242/5/6
f 242/5/6 234/5/6 243/5/6
f 235/5/6 236/5/6 246/5/6
f 246/5/6 236/5/6 247/5/6
f 237/5/6 238/5/6 249/5/6
f 249/5/6 238/5/6 250/5/6
f 239/5/6 240/5/6 252/5/6
f 252/5/6 240/5/6 253/5/6
f 241/5/6 242/5/6 255/5/6
f 242/5/6 243/5/6 255/5/6
f 243/5/6 244/5/6 255/5/6
f 255/5/6 244/5/6 256/5/6
f 256/5/6 244/5/6 257/5/6
f 257/5/6 244/5/6 258/5/6
f 258/5/6 244/5/6 259/5/6
f 259/5/6 244/5/6 260/5/6
f 244/4/6 245/4/6 261/4/6
f 260/5/6 244/5/6 261/5/6
f 245/5/6 246/5/6 262/5/6
f 261/4/6 245/4/6 262/4/6
f 246/5/6 247/5/6 262/5/6
f 262/5/6 247/5/6 263/5/6
f 263/5/6 247/5/6 264/5/6
f 247/3/6 248/3/6 265/3/6
f 264/5/6 247/5/6 265/5/6
f 250/5/6 251/5/6 266/5/6
f 265/3/6 248/3/6 266/3/6
f 248/5/6 249/5/6 266/5/6
f 249/5/6 250/5/6 266/5/6
f 266/5/6 251/5/6 267/5/6
f 267/5/6 251/5/6 268/5/6
f 268/5/6 251/5/6 269/5/6
f 269/5/6 251/5/6 270/5/6
f 251/3/6 252/3/6 271/3/6
f 270/5/6 251/5/6 271/5/6
f 253/5/6 254/5/6 272/5/6
f 271/3/6 252/3/6 272/3/6
f 252/5/6 253/5/6 272/5/6
f 272/5/6 254/5/6 273/5/6
f 273/5/6 254/5/6 274/5/6
f 274/5/6 254/5/6 275/5/6
f 241/5/6 255/5/6 276/5/6
f 255/4/6 256/4/6 276/4/6
f 256/5/6 257/5/6 277/5/6
f 276/4/6 256/4/6 277/4/6
f 257/4/6 258/4/6 278/4/6
f 277/5/6 257/5/6 278/5/6
f 258/5/6 259/5/6 279/5/6
f 278/4/6 258/4/6 279/4/6
f 259/6/6 260/6/6 280/6/6
f 279/5/6 259/5/6 280/5/6
f 260/5/6 261/5/6 281/5/6
f 280/6/6 260/6/6 281/6/6
f 262/5/6 263/5/6 281/5/6
f 261/5/6 262/5/6 281/5/6
f 281/5/6 263/5/6 282/5/6
f 282/5/6 263/5/6 283/5/6
f 283/5/6 263/5/6 284/5/6
f 284/5/6 263/5/6 285/5/6
f 263/4/6 264/4/6 286/4/6
f 285/5/6 263/5/6 286/5/6
f 264/5/6 265/5/6 287/5/6
f 286/4/6 264/4/6 287/4/6
f 265/5/6 266/5/6 287/5/6
f 266/5/6 267/5/6 287/5/6
f 287/5/6 267/5/6 288/5/6
f 288/5/6 267/5/6 289/5/6
f 267/6/6 268/6/6 290/6/6
f 289/5/6 267/5/6 290/5/6
f 268/5/6 269/5/6 291/5/6
f 290/6/6 268/6/6 291/6/6
f 269/4/6 270/4/6 292/4/6
f 291/5/6 269/5/6 292/5/6
f 270/5/6 271/5/6 293/5/6
f 292/4/6 270/4/6 293/4/6
f 271/5/6 272/5/6 293/5/6
f 293/5/6 272/5/6 294/5/6
f 294/5/6 272/5/6 295/5/6
f 295/5/6 272/5/6 296/5/6
f 296/5/6 272/5/6 297/5/6
f 272/6/6 273/6/6 298/6/6
f 297/5/6 272/5/6 298/5/6
f 273/5/6 274/5/6 299/5/6
f 298/6/6 273/6/6 299/6/6
f 299/5/6 274/5/6 300/5/6
f 300/5/6 274/5/6 301/5/6
f 274/6/6 275/6/6 302/6/6
f 301/5/6 274/5/6 302/5/6
f 275/5/6 254/5/6 303/5/6
f 302/6/6 275/6/6 303/6/6
f 278/5/6 279/5/6 304/5/6
f 279/5/6 280/5/6 304/5/6
f 277/5/6 278/5/6 304/5/6
f 241/5/6 276/5/6 304/5/6
f 276/5/6 277/5/6 304/5/6
f 280/5/6 281/5/6 304/5/6
f 304/5/6 281/5/6 305/5/6
f 305/5/6 281/5/6 306/5/6
f 306/5/6 281/5/6 307/5/6
f 307/5/6 281/5/6 308/5/6
f 281/6/6 282/6/6 309/6/6
f 308/5/6 281/5/6 309/5/6
f 282/5/6 283/5/6 310/5/6
f 309/6/6 282/6/6 310/6/6
f 284/5/6 285/5/6 311/5/6
f 283/6/6 284/6/6 311/6/6
f 285/6/6 286/6/6 312/6/6
f 311/5/6 285/5/6 312/5/6
f 287/5/6 288/5/6 313/5/6
f 312/6/6 286/6/6 313/6/6
f 286/5/6 287/5/6 313/5/6
f 313/5/6 288/5/6 314/5/6
f 314/5/6 288/5/6 315/5/6
f 315/5/6 288/5/6 316/5/6
f 288/4/6 289/4/6 317/4/6
f 316/5/6 288/5/6 317/5/6
f 291/5/6 292/5/6 318/5/6
f 317/4/6 289/4/6 318/4/6
f 289/5/6 290/5/6 318/5/6
f 290/5/6 291/5/6 318/5/6
f 292/5/6 293/5/6 318/5/6
f 293/5/6 294/5/6 318/5/6
f 318/5/6 294/5/6 319/5/6
f 319/5/6 294/5/6 320/5/6
f 294/6/6 295/6/6 321/6/6
f 320/5/6 294/5/6 321/5/6
f 295/5/6 296/5/6 322/5/6
f 321/6/6 295/6/6 322/6/6
f 299/5/6 300/5/6 323/5/6
f 297/5/6 298/5/6 323/5/6
f 298/5/6 299/5/6 323/5/6
f 323/5/6 300/5/6 324/5/6
f 300/4/6 301/4/6 325/4/6
f 324/5/6 300/5/6 325/5/6
f 302/5/6 303/5/6 326/5/6
f 325/4/6 301/4/6 326/4/6
f 301/5/6 302/5/6 326/5/6
f 326/5/6 303/5/6 327/5/6
f 241/5/6 304/5/6 328/5/6
f 304/3/6 305/3/6 328/3/6
f 305/5/6 306/5/6 329/5/6
f 328/3/6 305/3/6 329/3/6
f 306/6/6 307/6/6 330/6/6
f 329/5/6 306/5/6 330/5/6
f 330/6/6 307/6/6 331/6/6
f 307/5/6 308/5/6 332/5/6
f 331/6/6 307/6/6 332/6/6
f 332/5/6 308/5/6 333/5/6
f 308/3/6 309/3/6 334/3/6
f 333/5/6 308/5/6 334/5/6
f 309/5/6 310/5/6 335/5/6
f 334/3/6 309/3/6 335/3/6
f 310/5/6 283/5/6 336/5/6
f 335/5/6 310/5/6 336/5/6
f 283/6/6 311/6/6 337/6/6
f 336/5/6 283/5/6 337/5/6
f 311/6/6 312/6/6 337/6/6
f 312/5/6 313/5/6 338/5/6
f 337/6/6 312/6/6 338/6/6
f 313/4/6 314/4/6 339/4/6
f 338/5/6 313/5/6 339/5/6
f 314/5/6 315/5/6 340/5/6
f 339/4/6 314/4/6 340/4/6
f 316/5/6 317/5/6 341/5/6
f 318/5/6 319/5/6 341/5/6
f 317/5/6 318/5/6 341/5/6
f 341/5/6 319/5/6 342/5/6
f 342/5/6 319/5/6 343/5/6
f 319/6/6 320/6/6 344/6/6
f 343/5/6 319/5/6 344/5/6
f 321/5/6 322/5/6 345/5/6
f 344/6/6 320/6/6 345/6/6
f 320/5/6 321/5/6 345/5/6
f 345/5/6 322/5/6 346/5/6
f 322/5/6 296/5/6 347/5/6
f 346/5/6 322/5/6 347/5/6
f 296/4/6 297/4/6 348/4/6
f 347/5/6 296/5/6 348/5/6
f 297/5/6 323/5/6 349/5/6
f 348/4/6 297/4/6 349/4/6
f 349/5/6 323/5/6 350/5/6
f 350/5/6 323/5/6 351/5/6
f 323/6/6 324/6/6 352/6/6
f 351/5/6 323/5/6 352/5/6
f 324/5/6 325/5/6 353/5/6
f 352/6/6 324/6/6 353/6/6
f 325/5/6 326/5/6 353/5/6
f 326/6/6 327/6/6 354/6/6
f 353/5/6 326/5/6 354/5/6
f 327/5/6 303/5/6 355/5/6
f 354/6/6 327/6/6 355/6/6
f 332/6/6 333/6/6 356/6/6
f 331/6/6 332/6/6 356/6/6
f 330/5/6 331/5/6 356/5/6
f 329/5/6 330/5/6 356/5/6
f 333/4/6 334/4/6 357/4/6
f 356/6/6 333/6/6 357/6/6
f 335/5/6 336/5/6 358/5/6
f 334/5/6 335/5/6 358/5/6
f 336/4/6 337/4/6 358/4/6
f 338/5/6 339/5/6 359/5/6
f 358/4/6 337/4/6 359/4/6
f 337/5/6 338/5/6 359/5/6
f 339/5/6 340/5/6 359/5/6
f 340/5/6 315/5/6 360/5/6
f 359/5/6 340/5/6 360/5/6
f 360/5/6 315/5/6 361/5/6
f 315/6/6 316/6/6 362/6/6
f 361/5/6 315/5/6 362/5/6
f 316/5/6 341/5/6 363/5/6
f 362/6/6 316/6/6 363/6/6
f 341/6/6 342/6/6 364/6/6
f 363/5/6 341/5/6 364/5/6
f 342/5/6 343/5/6 365/5/6
f 364/6/6 342/6/6 365/6/6
f 343/6/6 344/6/6 366/6/6
f 365/5/6 343/5/6 366/5/6
f 344/5/6 345/5/6 367/5/6
f 366/6/6 344/6/6 367/6/6
f 345/4/6 346/4/6 368/4/6
f 367/5/6 345/5/6 368/5/6
f 346/5/6 347/5/6 369/5/6
f 368/4/6 346/4/6 369/4/6
f 369/5/6 347/5/6 370/5/6
f 347/6/6 348/6/6 371/6/6
f 370/5/6 347/5/6 371/5/6
f 348/6/6 349/6/6 371/6/6
f 349/5/6 350/5/6 372/5/6
f 371/6/6 349/6/6 372/6/6
f 350/6/6 351/6/6 373/6/6
f 372/5/6 350/5/6 373/5/6
f 351/5/6 352/5/6 374/5/6
f 373/6/6 351/6/6 374/6/6
f 354/5/6 355/5/6 374/5/6
f 353/5/6 354/5/6 374/5/6
f 352/5/6 353/5/6 374/5/6
f 374/5/6 355/5/6 375/5/6
f 375/5/6 355/5/6 376/5/6
f 376/5/6 355/5/6 377/5/6
f 303/5/6 254/5/6 378/5/6
f 377/5/6 355/5/6 378/5/6
f 355/5/6 303/5/6 378/5/6
f 378/5/6 254/5/6 379/5/6
f 328/4/6 329/4/6 380/4/6
f 241/5/6 328/5/6 380/5/6
f 356/5/6 357/5/6 381/5/6
f 380/4/6 329/4/6 381/4/6
f 329/5/6 356/5/6 381/5/6
f 381/5/6 357/5/6 382/5/6
f 357/4/6 334/4/6 383/4/6
f 382/5/6 357/5/6 383/5/6
f 358/5/6 359/5/6 384/5/6
f 383/4/6 334/4/6 384/4/6
f 334/5/6 358/5/6 384/5/6
f 359/5/6 360/5/6 384/5/6
f 384/5/6 360/5/6 385/5/6
f 385/5/6 360/5/6 386/5/6
f 386/5/6 360/5/6 387/5/6
f 360/6/6 361/6/6 388/6/6
f 387/5/6 360/5/6 388/5/6
f 366/5/6 367/5/6 389/5/6
f 388/6/6 361/6/6 389/6/6
f 364/5/6 365/5/6 389/5/6
f 367/5/6 368/5/6 389/5/6
f 365/5/6 366/5/6 389/5/6
f 362/5/6 363/5/6 389/5/6
f 363/5/6 364/5/6 389/5/6
f 368/5/6 369/5/6 389/5/6
f 361/5/6 362/5/6 389/5/6
f 389/5/6 369/5/6 390/5/6
f 390/5/6 369/5/6 391/5/6
f 391/5/6 369/5/6 392/5/6
f 369/3/6 370/3/6 393/3/6
f 392/5/6 369/5/6 393/5/6
f 370/5/6 371/5/6 394/5/6
f 393/3/6 370/3/6 394/3/6
f 372/5/6 373/5/6 394/5/6
f 371/5/6 372/5/6 394/5/6
f 373/5/6 374/5/6 394/5/6
f 394/5/6 374/5/6 395/5/6
f 395/5/6 374/5/6 396/5/6
f 374/4/6 375/4/6 397/4/6
f 396/5/6 374/5/6 397/5/6
f 375/5/6 376/5/6 398/5/6
f 397/4/6 375/4/6 398/4/6
f 376/4/6 377/4/6 399/4/6
f 398/5/6 376/5/6 399/5/6
f 377/5/6 378/5/6 400/5/6
f 399/4/6 377/4/6 400/4/6
f 378/6/6 379/6/6 401/6/6
f 400/5/6 378/5/6 401/5/6
f 401/6/6 379/6/6 402/6/6
f 241/5/6 380/5/6 403/5/6
f 380/5/6 381/5/6 403/5/6
f 403/5/6 381/5/6 404/5/6
f 381/6/6 382/6/6 405/6/6
f 404/5/6 381/5/6 405/5/6
f 382/5/6 383/5/6 406/5/6
f 405/6/6 382/6/6 406/6/6
f 383/5/6 384/5/6 406/5/6
f 406/5/6 384/5/6 407/5/6
f 407/5/6 384/5/6 408/5/6
f 385/5/6 386/5/6 409/5/6
f 386/6/6 387/6/6 409/6/6
f 387/5/6 388/5/6 410/5/6
f 409/6/6 387/6/6 410/6/6
f 388/5/6 389/5/6 410/5/6
f 410/5/6 389/5/6 411/5/6
f 411/5/6 389/5/6 412/5/6
f 412/5/6 389/5/6 413/5/6
f 413/5/6 389/5/6 414/5/6
f 389/4/6 390/4/6 415/4/6
f 414/5/6 389/5/6 415/5/6
f 390/5/6 391/5/6 416/5/6
f 415/4/6 390/4/6 416/4/6
f 391/4/6 392/4/6 417/4/6
f 416/5/6 391/5/6 417/5/6
f 392/5/6 393/5/6 418/5/6
f 417/4/6 392/4/6 418/4/6
f 393/5/6 394/5/6 418/5/6
f 394/5/6 395/5/6 418/5/6
f 418/5/6 395/5/6 419/5/6
f 419/5/6 395/5/6 420/5/6
f 420/5/6 395/5/6 421/5/6
f 421/5/6 395/5/6 422/5/6
f 395/4/6 396/4/6 423/4/6
f 422/5/6 395/5/6 423/5/6
f 397/5/6 398/5/6 424/5/6
f 423/4/6 396/4/6 424/4/6
f 401/5/6 402/5/6 424/5/6
f 398/5/6 399/5/6 424/5/6
f 396/5/6 397/5/6 424/5/6
f 399/5/6 400/5/6 424/5/6
f 400/5/6 401/5/6 424/5/6
f 424/5/6 402/5/6 425/5/6
f 425/5/6 402/5/6 426/5/6
f 426/5/6 402/5/6 427/5/6
f 427/5/6 402/5/6 428/5/6
f 428/5/6 402/5/6 429/5/6
f 429/5/6 402/5/6 430/5/6
f 430/5/6 402/5/6 431/5/6
f 431/5/6 402/5/6 432/5/6
f 404/6/6 405/6/6 433/6/6
f 406/5/6 407/5/6 433/5/6
f 405/5/6 406/5/6 433/5/6
f 433/5/6 407/5/6 434/5/6
f 407/4/6 408/4/6 435/4/6
f 434/5/6 407/5/6 435/5/6
f 408/5/6 384/5/6 436/5/6
f 435/4/6 408/4/6 436/4/6
f 384/6/6 385/6/6 437/6/6
f 436/5/6 384/5/6 437/5/6
f 385/5/6 409/5/6 438/5/6
f 437/6/6 385/6/6 438/6/6
f 410/5/6 411/5/6 438/5/6
f 409/5/6 410/5/6 438/5/6
f 413/3/6 414/3/6 439/3/6
f 412/5/6 413/5/6 439/5/6
f 416/5/6 417/5/6 440/5/6
f 439/3/6 414/3/6 440/3/6
f 414/5/6 415/5/6 440/5/6
f 415/5/6 416/5/6 440/5/6
f 418/5/6 419/5/6 440/5/6
f 417/5/6 418/5/6 440/5/6
f 440/5/6 419/5/6 441/5/6
f 441/5/6 419/5/6 442/5/6
f 419/6/6 420/6/6 443/6/6
f 442/5/6 419/5/6 443/5/6
f 420/5/6 421/5/6 444/5/6
f 443/6/6 420/6/6 444/6/6
f 422/5/6 423/5/6 445/5/6
f 421/4/6 422/4/6 445/4/6
f 423/5/6 424/5/6 445/5/6
f 424/5/6 425/5/6 445/5/6
f 445/5/6 425/5/6 446/5/6
f 425/6/6 426/6/6 447/6/6
f 446/5/6 425/5/6 447/5/6
f 426/5/6 427/5/6 448/5/6
f 447/6/6 426/6/6 448/6/6
f 427/6/6 428/6/6 449/6/6
f 448/5/6 427/5/6 449/5/6
f 428/5/6 429/5/6 450/5/6
f 449/6/6 428/6/6 450/6/6
f 429/6/6 430/6/6 451/6/6
f 450/5/6 429/5/6 451/5/6
f 430/5/6 431/5/6 452/5/6
f 451/6/6 430/6/6 452/6/6
f 431/3/6 432/3/6 453/3/6
f 452/5/6 431/5/6 453/5/6
f 432/5/6 402/5/6 454/5/6
f 453/3/6 432/3/6 454/3/6
f 403/4/6 404/4/6 455/4/6
f 433/6/6 434/6/6 456/6/6
f 455/4/6 404/4/6 456/4/6
f 404/6/6 433/6/6 456/6/6
f 436/5/6 437/5/6 457/5/6
f 456/6/6 434/6/6 457/6/6
f 434/5/6 435/5/6 457/5/6
f 435/5/6 436/5/6 457/5/6
f 437/5/6 438/5/6 457/5/6
f 457/5/6 438/5/6 458/5/6
f 438/5/6 411/5/6 459/5/6
f 458/5/6 438/5/6 459/5/6
f 459/5/6 411/5/6 460/5/6
f 411/6/6 412/6/6 461/6/6
f 460/5/6 411/5/6 461/5/6
f 412/5/6 439/5/6 462/5/6
f 461/6/6 412/6/6 462/6/6
f 439/5/6 440/5/6 462/5/6
f 440/5/6 441/5/6 462/5/6
f 462/5/6 441/5/6 463/5/6
f 463/5/6 441/5/6 464/5/6
f 441/6/6 442/6/6 465/6/6
f 464/5/6 441/5/6 465/5/6
f 465/6/6 442/6/6 466/6/6
f 442/5/6 443/5/6 467/5/6
f 466/6/6 442/6/6 467/6/6
f 443/5/6 444/5/6 467/5/6
f 467/5/6 444/5/6 468/5/6
f 444/5/6 421/5/6 469/5/6
f 468/5/6 444/5/6 469/5/6
f 421/4/6 445/4/6 469/4/6
f 445/6/6 446/6/6 470/6/6
f 469/4/6 445/4/6 470/4/6
f 452/5/6 453/5/6 471/5/6
f 470/6/6 446/6/6 471/6/6
f 448/5/6 449/5/6 471/5/6
f 447/5/6 448/5/6 471/5/6
f 451/5/6 452/5/6 471/5/6
f 449/5/6 450/5/6 471/5/6
f 450/5/6 451/5/6 471/5/6
f 453/5/6 454/5/6 471/5/6
f 446/5/6 447/5/6 471/5/6
f 471/5/6 454/5/6 472/5/6
f 472/5/6 454/5/6 473/5/6
f 473/5/6 454/5/6 474/5/6
f 474/5/6 454/5/6 475/5/6
f 475/5/6 454/5/6 476/5/6
f 454/5/6 402/5/6 477/5/6
f 476/5/6 454/5/6 477/5/6
f 455/5/6 456/5/6 478/5/6
f 457/5/6 458/5/6 478/5/6
f 456/5/6 457/5/6 478/5/6
f 478/5/6 458/5/6 479/5/6
f 479/5/6 458/5/6 480/5/6
f 480/5/6 458/5/6 481/5/6
f 458/4/6 459/4/6 482/4/6
f 481/5/6 458/5/6 482/5/6
f 459/5/6 460/5/6 483/5/6
f 482/4/6 459/4/6 483/4/6
f 460/4/6 461/4/6 484/4/6
f 483/5/6 460/5/6 484/5/6
f 462/5/6 463/5/6 485/5/6
f 484/4/6 461/4/6 485/4/6
f 461/5/6 462/5/6 485/5/6
f 485/5/6 463/5/6 486/5/6
f 463/6/6 464/6/6 487/6/6
f 486/5/6 463/5/6 487/5/6
f 465/5/6 466/5/6 488/5/6
f 487/6/6 464/6/6 488/6/6
f 464/5/6 465/5/6 488/5/6
f 467/6/6 468/6/6 489/6/6
f 488/5/6 466/5/6 489/5/6
f 466/6/6 467/6/6 489/6/6
f 469/5/6 470/5/6 490/5/6
f 489/6/6 468/6/6 490/6/6
f 468/5/6 469/5/6 490/5/6
f 470/5/6 471/5/6 490/5/6
f 471/5/6 472/5/6 490/5/6
f 490/5/6 472/5/6 491/5/6
f 491/5/6 472/5/6 492/5/6
f 492/5/6 472/5/6 493/5/6
f 493/5/6 472/5/6 494/5/6
f 494/5/6 472/5/6 495/5/6
f 495/5/6 472/5/6 496/5/6
f 472/6/6 473/6/6 497/6/6
f 496/5/6 472/5/6 497/5/6
f 473/5/6 474/5/6 498/5/6
f 497/6/6 473/6/6 498/6/6
f 474/6/6 475/6/6 499/6/6
f 498/5/6 474/5/6 499/5/6
f 475/5/6 476/5/6 500/5/6
f 499/6/6 475/6/6 500/6/6
f 500/5/6 476/5/6 501/5/6
f 501/5/6 476/5/6 502/5/6
f 477/5/6 402/5/6 503/5/6
f 476/6/6 477/6/6 503/6/6
f 503/5/6 402/5/6 504/5/6
f 478/6/6 479/6/6 505/6/6
f 455/5/6 478/5/6 505/5/6
f 479/5/6 480/5/6 506/5/6
f 505/6/6 479/6/6 506/6/6
f 480/3/6 481/3/6 507/3/6
f 506/5/6 480/5/6 507/5/6
f 482/5/6 483/5/6 508/5/6
f 507/3/6 481/3/6 508/3/6
f 483/5/6 484/5/6 508/5/6
f 481/5/6 482/5/6 508/5/6
f 484/5/6 485/5/6 508/5/6
f 485/3/6 486/3/6 509/3/6
f 508/5/6 485/5/6 509/5/6
f 487/5/6 488/5/6 510/5/6
f 509/3/6 486/3/6 510/3/6
f 488/5/6 489/5/6 510/5/6
f 486/5/6 487/5/6 510/5/6
f 489/5/6 490/5/6 510/5/6
f 490/5/6 491/5/6 510/5/6
f 491/6/6 492/6/6 511/6/6
f 510/5/6 491/5/6 511/5/6
f 492/5/6 493/5/6 512/5/6
f 511/6/6 492/6/6 512/6/6
f 493/6/6 494/6/6 513/6/6
f 512/5/6 493/5/6 513/5/6
f 494/5/6 495/5/6 514/5/6
f 513/6/6 494/6/6 514/6/6
f 495/3/6 496/3/6 515/3/6
f 514/5/6 495/5/6 515/5/6
f 498/5/6 499/5/6 516/5/6
f 515/3/6 496/3/6 516/3/6
f 500/5/6 501/5/6 516/5/6
f 497/5/6 498/5/6 516/5/6
f 499/5/6 500/5/6 516/5/6
f 496/5/6 497/5/6 516/5/6
f 501/3/6 502/3/6 517/3/6
f 516/5/6 501/5/6 517/5/6
f 502/5/6 476/5/6 518/5/6
f 517/3/6 502/3/6 518/3/6
f 476/6/6 503/6/6 519/6/6
f 518/5/6 476/5/6 519/5/6
f 503/6/6 504/6/6 519/6/6
f 504/5/6 402/5/6 520/5/6
f 519/6/6 504/6/6 520/6/6
f 514/5/6 515/5/6 521/5/6
f 508/5/6 509/5/6 521/5/6
f 519/5/6 520/5/6 521/5/6
f 512/5/6 513/5/6 521/5/6
f 513/5/6 514/5/6 521/5/6
f 511/5/6 512/5/6 521/5/6
f 510/5/6 511/5/6 521/5/6
f 507/5/6 508/5/6 521/5/6
f 509/5/6 510/5/6 521/5/6
f 506/5/6 507/5/6 521/5/6
f 515/5/6 516/5/6 521/5/6
f 455/5/6 505/5/6 521/5/6
f 517/5/6 518/5/6 521/5/6
f 505/5/6 506/5/6 521/5/6
f 518/5/6 519/5/6 521/5/6
f 516/5/6 517/5/6 521/5/6
f 521/5/6 520/5/6 522/5/6
f 522/5/6 520/5/6 523/5/6
f 523/5/6 520/5/6 524/5/6
f 524/5/6 520/5/6 525/5/6
f 525/5/6 520/5/6 526/5/6
f 526/5/6 520/5/6 527/5/6
f 527/5/6 520/5/6 528/5/6
f 528/5/6 520/5/6 529/5/6
f 520/5/6 402/5/6 530/5/6
f 529/5/6 520/5/6 530/5/6
f 522/5/6 523/5/6 531/5/6
f 531/5/6 523/5/6 532/5/6
f 524/5/6 525/5/6 533/5/6
f 533/5/6 525/5/6 534/5/6
f 526/5/6 527/5/6 535/5/6
f 535/5/6 527/5/6 536/5/6
f 528/5/6 529/5/6 537/5/6
f 537/5/6 529/5/6 538/5/6
f 539/2/6 540/2/6 541/2/6
f 541/2/6 540/2/6 542/2/6
f 543/2/6 544/2/6 545/2/6
f 545/2/6 544/2/6 546/2/6
