# MagicaVoxel @ Ephtracy

# group
o 

# material
mtllib Green_PlayCube.mtl
usemtl palette

# normals
vn -1 0 0
vn 1 0 0
vn 0 0 1
vn 0 0 -1
vn 0 -1 0
vn 0 1 0

# texcoords
vt 0.580078 0.5
vt 0.841797 0.5
vt 0.845703 0.5
vt 0.849609 0.5
vt 0.880859 0.5
vt 0.884766 0.5
vt 0.892578 0.5
vt 0.896484 0.5
vt 0.982422 0.5

# verts
v -1.4 0 1.2
v -1.4 0 -1.1
v -1.4 0.1 1.2
v -1.4 0.1 -1.1
v -1.3 0 1.6
v -1.3 0 1.3
v -1.3 0 -1.2
v -1.3 0 -1.3
v -1.3 0.1 1.6
v -1.3 0.1 1.3
v -1.3 0.1 -1.2
v -1.3 0.1 -1.3
v -1.3 0.2 1.4
v -1.3 0.2 1.3
v -1.3 0.2 1.2
v -1.3 0.2 -1.1
v -1.3 0.2 -1.2
v -1.3 0.2 -1.3
v -1.3 0.6 1.4
v -1.3 0.6 1.3
v -1.3 0.6 1.2
v -1.3 0.6 -1.1
v -1.3 0.6 -1.2
v -1.3 0.6 -1.3
v -1.2 0 1.3
v -1.2 0 1.2
v -1.2 0 -1.1
v -1.2 0 -1.2
v -1.2 0.1 1.3
v -1.2 0.1 1.2
v -1.2 0.1 -1.1
v -1.2 0.1 -1.2
v -1.2 0.2 1.3
v -1.2 0.2 1.2
v -1.2 0.2 -1.1
v -1.2 0.2 -1.2
v -1.2 0.6 1.3
v -1.2 0.6 1.2
v -1.2 0.6 -1.1
v -1.2 0.6 -1.2
v -1.1 0 1.6
v -1.1 0 1.3
v -1.1 0 -1.2
v -1.1 0 -1.4
v -1.1 0.1 1.6
v -1.1 0.1 1.4
v -1.1 0.1 -1.2
v -1.1 0.1 -1.4
v -1.1 0.2 -1.2
v -1.1 0.2 -1.3
v -1.1 0.6 1.4
v -1.1 0.6 1.3
v -1.1 0.6 -1.2
v -1.1 0.6 -1.3
v -1 0.6 1
v -1 0.6 0.8
v -1 0.6 0.7
v -1 0.6 -0.7
v -1 0.6 -0.8
v -1 0.6 -1
v -1 0.8 1
v -1 0.8 0.8
v -1 0.8 0.7
v -1 0.8 -0.7
v -1 0.8 -0.8
v -1 0.8 -1
v -1 0.9 1
v -1 0.9 0.8
v -1 0.9 0.7
v -1 0.9 -0.7
v -1 0.9 -0.8
v -1 0.9 -1
v -1 2.2 1
v -1 2.2 0.8
v -1 2.2 0.7
v -1 2.2 -0.7
v -1 2.2 -0.8
v -1 2.2 -1
v -1 2.3 1
v -1 2.3 0.8
v -1 2.3 0.7
v -1 2.3 -0.7
v -1 2.3 -0.8
v -1 2.3 -1
v -1 2.5 1
v -1 2.5 0.8
v -1 2.5 0.7
v -1 2.5 -0.7
v -1 2.5 -0.8
v -1 2.5 -1
v -0.9 0.6 0.8
v -0.9 0.6 0.7
v -0.9 0.6 -0.7
v -0.9 0.6 -0.8
v -0.9 0.8 0.9
v -0.9 0.8 0.8
v -0.9 0.8 0.7
v -0.9 0.8 -0.7
v -0.9 0.8 -0.8
v -0.9 0.8 -0.9
v -0.9 0.9 0.9
v -0.9 0.9 0.8
v -0.9 0.9 0.7
v -0.9 0.9 -0.7
v -0.9 0.9 -0.8
v -0.9 0.9 -0.9
v -0.9 2.2 0.9
v -0.9 2.2 0.8
v -0.9 2.2 0.7
v -0.9 2.2 -0.7
v -0.9 2.2 -0.8
v -0.9 2.2 -0.9
v -0.9 2.3 0.9
v -0.9 2.3 0.8
v -0.9 2.3 0.7
v -0.9 2.3 -0.7
v -0.9 2.3 -0.8
v -0.9 2.3 -0.9
v -0.9 2.4 0.8
v -0.9 2.4 0.7
v -0.9 2.4 -0.7
v -0.9 2.4 -0.8
v -0.8 0.8 0.8
v -0.8 0.8 0.7
v -0.8 0.8 -0.7
v -0.8 0.8 -0.8
v -0.8 0.9 0.8
v -0.8 0.9 0.7
v -0.8 0.9 -0.7
v -0.8 0.9 -0.8
v -0.8 2.2 0.8
v -0.8 2.2 0.7
v -0.8 2.2 -0.7
v -0.8 2.2 -0.8
v -0.8 2.3 0.8
v -0.8 2.3 0.7
v -0.8 2.3 -0.7
v -0.8 2.3 -0.8
v -0.7 0.6 1
v -0.7 0.6 0.9
v -0.7 0.6 -0.9
v -0.7 0.6 -1
v -0.7 0.8 1
v -0.7 0.8 0.9
v -0.7 0.8 -0.9
v -0.7 0.8 -1
v -0.7 0.9 1
v -0.7 0.9 0.9
v -0.7 0.9 -0.9
v -0.7 0.9 -1
v -0.7 1.1 -0.9
v -0.7 1.1 -1
v -0.7 1.2 -0.9
v -0.7 1.2 -1
v -0.7 2.1 -0.9
v -0.7 2.1 -1
v -0.7 2.2 1
v -0.7 2.2 0.9
v -0.7 2.3 1
v -0.7 2.3 0.9
v -0.7 2.3 -0.9
v -0.7 2.3 -1
v -0.7 2.4 0.9
v -0.7 2.4 0.8
v -0.7 2.4 0.7
v -0.7 2.4 0.1
v -0.7 2.4 -0.7
v -0.7 2.4 -0.8
v -0.7 2.4 -0.9
v -0.7 2.5 1
v -0.7 2.5 0.8
v -0.7 2.5 0.7
v -0.7 2.5 -0.7
v -0.7 2.5 -0.8
v -0.7 2.5 -1
v -0.6 1.1 -0.9
v -0.6 1.1 -1
v -0.6 1.2 -0.9
v -0.6 1.2 -1
v -0.6 2.1 -0.9
v -0.6 2.1 -1
v -0.6 2.2 -0.9
v -0.6 2.2 -1
v -0.4 1.9 -0.9
v -0.4 1.9 -1
v -0.4 2 -0.9
v -0.4 2 -1
v -0.4 2.4 -0.9
v -0.4 2.4 -1
v -0.4 2.5 -0.9
v -0.4 2.5 -1
v -0.3 1 -0.9
v -0.3 1 -1
v -0.3 1.1 -0.9
v -0.3 1.1 -1
v -0.1 0.1 1.5
v -0.1 0.1 1.4
v -0.1 0.6 1.5
v -0.1 0.6 1.4
v 0 1.6 -0.9
v 0 1.6 -1
v 0 1.7 -0.9
v 0 1.7 -1
v 0 2.1 -0.9
v 0 2.1 -1
v 0 2.2 -0.9
v 0 2.2 -1
v 0.2 1.3 -0.9
v 0.2 1.3 -1
v 0.2 1.4 -0.9
v 0.2 1.4 -1
v 0.4 0.9 -0.9
v 0.4 0.9 -1
v 0.4 1 -0.9
v 0.4 1 -1
v 0.4 2.1 -0.9
v 0.4 2.1 -1
v 0.4 2.2 -0.9
v 0.4 2.2 -1
v 0.5 1.2 -0.9
v 0.5 1.2 -1
v 0.5 1.3 -0.9
v 0.5 1.3 -1
v 0.6 1.8 -0.9
v 0.6 1.8 -1
v 0.6 1.9 -0.9
v 0.6 1.9 -1
v 0.8 0.6 1
v 0.8 0.6 0.9
v 0.8 0.6 -0.9
v 0.8 0.6 -1
v 0.8 0.8 1
v 0.8 0.8 0.9
v 0.8 0.8 -0.9
v 0.8 0.8 -1
v 0.8 0.9 1
v 0.8 0.9 0.9
v 0.8 0.9 -0.9
v 0.8 0.9 -1
v 0.8 2.1 -0.9
v 0.8 2.1 -1
v 0.8 2.2 1
v 0.8 2.2 0.9
v 0.8 2.3 1
v 0.8 2.3 0.9
v 0.8 2.3 -0.9
v 0.8 2.3 -1
v 0.8 2.4 0.9
v 0.8 2.4 0.8
v 0.8 2.4 0.7
v 0.8 2.4 0.1
v 0.8 2.4 -0.7
v 0.8 2.4 -0.9
v 0.8 2.5 1
v 0.8 2.5 0.8
v 0.8 2.5 0.7
v 0.8 2.5 -0.7
v 0.8 2.5 -0.9
v 0.8 2.5 -1
v 0.9 2.1 -0.9
v 0.9 2.1 -1
v 0.9 2.2 -0.9
v 0.9 2.2 -1
v 1.2 0 1.6
v 1.2 0 1.3
v 1.2 0 -1.2
v 1.2 0 -1.3
v 1.2 0.1 1.6
v 1.2 0.1 1.3
v 1.2 0.1 -1.2
v 1.2 0.1 -1.3
v 1.2 0.2 1.4
v 1.2 0.2 1.3
v 1.2 0.2 -1.2
v 1.2 0.2 -1.3
v 1.2 0.6 1.4
v 1.2 0.6 1.3
v 1.2 0.6 -1.2
v 1.2 0.6 -1.3
v -1.2 0 1.6
v -1.2 0 1.3
v -1.2 0 -1.2
v -1.2 0 -1.3
v -1.2 0.1 1.6
v -1.2 0.1 1.3
v -1.2 0.1 -1.2
v -1.2 0.1 -1.3
v -1.2 0.2 1.4
v -1.2 0.2 1.3
v -1.2 0.2 -1.2
v -1.2 0.2 -1.3
v -1.2 0.6 1.4
v -1.2 0.6 1.3
v -1.2 0.6 -1.2
v -1.2 0.6 -1.3
v -0.8 0.6 1
v -0.8 0.6 0.9
v -0.8 0.6 -0.9
v -0.8 0.6 -1
v -0.8 0.8 1
v -0.8 0.8 0.9
v -0.8 0.8 -0.9
v -0.8 0.8 -1
v -0.8 0.9 1
v -0.8 0.9 0.9
v -0.8 0.9 -0.9
v -0.8 0.9 -1
v -0.8 2.2 1
v -0.8 2.2 0.9
v -0.8 2.2 -0.9
v -0.8 2.2 -1
v -0.8 2.3 1
v -0.8 2.3 0.9
v -0.8 2.3 -0.9
v -0.8 2.3 -1
v -0.8 2.4 0.9
v -0.8 2.4 0.8
v -0.8 2.4 0.7
v -0.8 2.4 0.1
v -0.8 2.4 -0.7
v -0.8 2.4 -0.8
v -0.8 2.4 -0.9
v -0.8 2.5 1
v -0.8 2.5 0.8
v -0.8 2.5 0.7
v -0.8 2.5 -0.7
v -0.8 2.5 -0.8
v -0.8 2.5 -1
v -0.5 1.9 -0.9
v -0.5 1.9 -1
v -0.5 2 -0.9
v -0.5 2 -1
v -0.5 2.4 -0.9
v -0.5 2.4 -1
v -0.5 2.5 -0.9
v -0.5 2.5 -1
v -0.4 1 -0.9
v -0.4 1 -1
v -0.4 1.1 -0.9
v -0.4 1.1 -1
v -0.1 1.6 -0.9
v -0.1 1.6 -1
v -0.1 1.7 -0.9
v -0.1 1.7 -1
v -0.1 2.1 -0.9
v -0.1 2.1 -1
v -0.1 2.2 -0.9
v -0.1 2.2 -1
v 0.1 0.1 1.5
v 0.1 0.1 1.4
v 0.1 0.2 1.5
v 0.1 0.2 1.4
v 0.1 0.5 1.5
v 0.1 0.5 1.4
v 0.1 0.6 1.5
v 0.1 0.6 1.4
v 0.1 1.3 -0.9
v 0.1 1.3 -1
v 0.1 1.4 -0.9
v 0.1 1.4 -1
v 0.2 0.2 1.5
v 0.2 0.2 1.4
v 0.2 0.3 1.5
v 0.2 0.3 1.4
v 0.2 0.4 1.5
v 0.2 0.4 1.4
v 0.2 0.5 1.5
v 0.2 0.5 1.4
v 0.3 0.3 1.5
v 0.3 0.3 1.4
v 0.3 0.4 1.5
v 0.3 0.4 1.4
v 0.3 0.9 -0.9
v 0.3 0.9 -1
v 0.3 1 -0.9
v 0.3 1 -1
v 0.3 2.1 -0.9
v 0.3 2.1 -1
v 0.3 2.2 -0.9
v 0.3 2.2 -1
v 0.4 1.2 -0.9
v 0.4 1.2 -1
v 0.4 1.3 -0.9
v 0.4 1.3 -1
v 0.5 1.8 -0.9
v 0.5 1.8 -1
v 0.5 1.9 -0.9
v 0.5 1.9 -1
v 0.6 1.5 -0.9
v 0.6 1.5 -1
v 0.6 1.6 -0.9
v 0.6 1.6 -1
v 0.7 0.6 1
v 0.7 0.6 0.9
v 0.7 0.6 -0.9
v 0.7 0.6 -1
v 0.7 0.8 1
v 0.7 0.8 0.9
v 0.7 0.8 -0.9
v 0.7 0.8 -1
v 0.7 0.9 1
v 0.7 0.9 0.9
v 0.7 0.9 -0.9
v 0.7 0.9 -1
v 0.7 1.5 -0.9
v 0.7 1.5 -1
v 0.7 1.6 -0.9
v 0.7 1.6 -1
v 0.7 2.2 1
v 0.7 2.2 0.9
v 0.7 2.2 -0.9
v 0.7 2.2 -1
v 0.7 2.3 1
v 0.7 2.3 0.9
v 0.7 2.3 -0.9
v 0.7 2.3 -1
v 0.7 2.4 0.9
v 0.7 2.4 0.8
v 0.7 2.4 0.7
v 0.7 2.4 0.1
v 0.7 2.4 -0.7
v 0.7 2.4 -0.9
v 0.7 2.5 1
v 0.7 2.5 0.8
v 0.7 2.5 0.7
v 0.7 2.5 -0.7
v 0.7 2.5 -0.9
v 0.7 2.5 -1
v 0.9 0.6 0.8
v 0.9 0.6 0.7
v 0.9 0.6 -0.7
v 0.9 0.6 -0.8
v 0.9 0.8 0.9
v 0.9 0.8 0.8
v 0.9 0.8 0.7
v 0.9 0.8 0.2
v 0.9 0.8 -0.7
v 0.9 0.8 -0.8
v 0.9 0.8 -0.9
v 0.9 0.9 0.9
v 0.9 0.9 0.8
v 0.9 0.9 0.7
v 0.9 0.9 0.2
v 0.9 0.9 -0.7
v 0.9 0.9 -0.8
v 0.9 0.9 -0.9
v 0.9 1.7 -0.9
v 0.9 1.7 -1
v 0.9 1.8 -0.9
v 0.9 1.8 -1
v 0.9 2.2 0.9
v 0.9 2.2 0.8
v 0.9 2.2 0.7
v 0.9 2.2 0.2
v 0.9 2.2 -0.7
v 0.9 2.2 -0.8
v 0.9 2.2 -0.9
v 0.9 2.3 0.9
v 0.9 2.3 0.8
v 0.9 2.3 0.7
v 0.9 2.3 0.1
v 0.9 2.3 -0.7
v 0.9 2.3 -0.8
v 0.9 2.3 -0.9
v 0.9 2.4 0.8
v 0.9 2.4 0.7
v 0.9 2.4 -0.7
v 0.9 2.4 -0.8
v 1 0.6 1
v 1 0.6 0.8
v 1 0.6 0.7
v 1 0.6 0.2
v 1 0.6 -0.7
v 1 0.6 -0.8
v 1 0.6 -0.9
v 1 0.6 -1
v 1 0.8 1
v 1 0.8 0.8
v 1 0.8 0.7
v 1 0.8 0.2
v 1 0.8 -0.7
v 1 0.8 -0.8
v 1 0.8 -0.9
v 1 0.8 -1
v 1 0.9 1
v 1 0.9 0.8
v 1 0.9 0.7
v 1 0.9 0.2
v 1 0.9 -0.7
v 1 0.9 -0.8
v 1 0.9 -0.9
v 1 0.9 -1
v 1 1.7 -0.9
v 1 1.7 -1
v 1 1.8 -0.9
v 1 1.8 -1
v 1 2.2 1
v 1 2.2 0.8
v 1 2.2 0.7
v 1 2.2 0.2
v 1 2.2 -0.7
v 1 2.2 -0.8
v 1 2.2 -0.9
v 1 2.2 -1
v 1 2.3 1
v 1 2.3 0.9
v 1 2.3 0.8
v 1 2.3 0.7
v 1 2.3 0.1
v 1 2.3 -0.7
v 1 2.3 -0.8
v 1 2.3 -0.9
v 1 2.3 -1
v 1 2.4 0.9
v 1 2.4 0.8
v 1 2.4 0.7
v 1 2.4 0.1
v 1 2.4 -0.7
v 1 2.4 -0.8
v 1 2.4 -0.9
v 1 2.5 1
v 1 2.5 0.8
v 1 2.5 0.7
v 1 2.5 -0.7
v 1 2.5 -0.8
v 1 2.5 -1
v 1.1 0 1.6
v 1.1 0 1.3
v 1.1 0 -1.2
v 1.1 0 -1.4
v 1.1 0.1 1.6
v 1.1 0.1 1.4
v 1.1 0.1 -1.2
v 1.1 0.1 -1.4
v 1.1 0.2 -1.2
v 1.1 0.2 -1.3
v 1.1 0.6 1.4
v 1.1 0.6 1.3
v 1.1 0.6 -1.2
v 1.1 0.6 -1.3
v 1.2 0 1.3
v 1.2 0 1.2
v 1.2 0 -1.1
v 1.2 0 -1.2
v 1.2 0.1 1.3
v 1.2 0.1 1.2
v 1.2 0.1 -1.1
v 1.2 0.1 -1.2
v 1.2 0.2 1.3
v 1.2 0.2 1.2
v 1.2 0.2 -1.1
v 1.2 0.2 -1.2
v 1.2 0.6 1.3
v 1.2 0.6 1.2
v 1.2 0.6 -1.1
v 1.2 0.6 -1.2
v 1.3 0 1.6
v 1.3 0 1.3
v 1.3 0 -1.2
v 1.3 0 -1.3
v 1.3 0.1 1.6
v 1.3 0.1 1.3
v 1.3 0.1 -1.2
v 1.3 0.1 -1.3
v 1.3 0.2 1.4
v 1.3 0.2 1.3
v 1.3 0.2 1.2
v 1.3 0.2 -1.1
v 1.3 0.2 -1.2
v 1.3 0.2 -1.3
v 1.3 0.6 1.4
v 1.3 0.6 1.3
v 1.3 0.6 1.2
v 1.3 0.6 -1.1
v 1.3 0.6 -1.2
v 1.3 0.6 -1.3
v 1.4 0 1.2
v 1.4 0 -1.1
v 1.4 0.1 1.2
v 1.4 0.1 -1.1
v -1.3 0 1.6
v -1.3 0.1 1.6
v -1.2 0 1.6
v -1.2 0.1 1.6
v -1.1 0 1.6
v -1.1 0.1 1.6
v 1.1 0 1.6
v 1.1 0.1 1.6
v 1.2 0 1.6
v 1.2 0.1 1.6
v 1.3 0 1.6
v 1.3 0.1 1.6
v -0.1 0.1 1.5
v -0.1 0.6 1.5
v 0.1 0.1 1.5
v 0.1 0.2 1.5
v 0.1 0.5 1.5
v 0.1 0.6 1.5
v 0.2 0.2 1.5
v 0.2 0.3 1.5
v 0.2 0.4 1.5
v 0.2 0.5 1.5
v 0.3 0.3 1.5
v 0.3 0.4 1.5
v -1.3 0.2 1.4
v -1.3 0.6 1.4
v -1.2 0.2 1.4
v -1.2 0.6 1.4
v -1.1 0.1 1.4
v -1.1 0.6 1.4
v -0.1 0.1 1.4
v -0.1 0.6 1.4
v 0.1 0.1 1.4
v 0.1 0.2 1.4
v 0.1 0.5 1.4
v 0.1 0.6 1.4
v 0.2 0.2 1.4
v 0.2 0.3 1.4
v 0.2 0.4 1.4
v 0.2 0.5 1.4
v 0.3 0.3 1.4
v 0.3 0.4 1.4
v 1.1 0.1 1.4
v 1.1 0.6 1.4
v 1.2 0.2 1.4
v 1.2 0.6 1.4
v 1.3 0.2 1.4
v 1.3 0.6 1.4
v -1.2 0 1.3
v -1.2 0.1 1.3
v -1.2 0.2 1.3
v -1.2 0.6 1.3
v -1.1 0 1.3
v -1.1 0.6 1.3
v 1.1 0 1.3
v 1.1 0.6 1.3
v 1.2 0 1.3
v 1.2 0.1 1.3
v 1.2 0.2 1.3
v 1.2 0.6 1.3
v -1.4 0 1.2
v -1.4 0.1 1.2
v -1.3 0.2 1.2
v -1.3 0.6 1.2
v -1.2 0 1.2
v -1.2 0.1 1.2
v -1.2 0.2 1.2
v -1.2 0.6 1.2
v 1.2 0 1.2
v 1.2 0.1 1.2
v 1.2 0.2 1.2
v 1.2 0.6 1.2
v 1.3 0.2 1.2
v 1.3 0.6 1.2
v 1.4 0 1.2
v 1.4 0.1 1.2
v -1 0.6 1
v -1 0.8 1
v -1 0.9 1
v -1 2.2 1
v -1 2.3 1
v -1 2.5 1
v -0.8 0.6 1
v -0.8 0.8 1
v -0.8 0.9 1
v -0.8 2.2 1
v -0.8 2.3 1
v -0.8 2.5 1
v -0.7 0.6 1
v -0.7 0.8 1
v -0.7 0.9 1
v -0.7 2.2 1
v -0.7 2.3 1
v -0.7 2.5 1
v 0.7 0.6 1
v 0.7 0.8 1
v 0.7 0.9 1
v 0.7 2.2 1
v 0.7 2.3 1
v 0.7 2.5 1
v 0.8 0.6 1
v 0.8 0.8 1
v 0.8 0.9 1
v 0.8 2.2 1
v 0.8 2.3 1
v 0.8 2.5 1
v 1 0.6 1
v 1 0.8 1
v 1 0.9 1
v 1 2.2 1
v 1 2.3 1
v 1 2.5 1
v -0.9 0.8 0.9
v -0.9 0.9 0.9
v -0.9 2.2 0.9
v -0.9 2.3 0.9
v -0.8 0.6 0.9
v -0.8 0.8 0.9
v -0.8 0.9 0.9
v -0.8 2.2 0.9
v -0.8 2.3 0.9
v -0.8 2.4 0.9
v -0.7 0.6 0.9
v -0.7 0.8 0.9
v -0.7 0.9 0.9
v -0.7 2.2 0.9
v -0.7 2.3 0.9
v -0.7 2.4 0.9
v 0.7 0.6 0.9
v 0.7 0.8 0.9
v 0.7 0.9 0.9
v 0.7 2.2 0.9
v 0.7 2.3 0.9
v 0.7 2.4 0.9
v 0.8 0.6 0.9
v 0.8 0.8 0.9
v 0.8 0.9 0.9
v 0.8 2.2 0.9
v 0.8 2.3 0.9
v 0.8 2.4 0.9
v 0.9 0.8 0.9
v 0.9 0.9 0.9
v 0.9 2.2 0.9
v 0.9 2.3 0.9
v -1 0.6 0.7
v -1 0.8 0.7
v -1 0.9 0.7
v -1 2.2 0.7
v -1 2.3 0.7
v -1 2.5 0.7
v -0.9 0.6 0.7
v -0.9 0.8 0.7
v -0.9 0.9 0.7
v -0.9 2.2 0.7
v -0.9 2.3 0.7
v -0.9 2.4 0.7
v -0.8 0.8 0.7
v -0.8 0.9 0.7
v -0.8 2.2 0.7
v -0.8 2.3 0.7
v -0.8 2.4 0.7
v -0.8 2.5 0.7
v -0.7 2.4 0.7
v -0.7 2.5 0.7
v 0.7 2.4 0.7
v 0.7 2.5 0.7
v 0.8 2.4 0.7
v 0.8 2.5 0.7
v 0.9 0.6 0.7
v 0.9 0.8 0.7
v 0.9 0.9 0.7
v 0.9 2.2 0.7
v 0.9 2.3 0.7
v 0.9 2.4 0.7
v 1 0.6 0.7
v 1 0.8 0.7
v 1 0.9 0.7
v 1 2.2 0.7
v 1 2.3 0.7
v 1 2.4 0.7
v 1 2.5 0.7
v -1 0.6 -0.8
v -1 0.8 -0.8
v -1 0.9 -0.8
v -1 2.2 -0.8
v -1 2.3 -0.8
v -1 2.5 -0.8
v -0.9 0.6 -0.8
v -0.9 0.8 -0.8
v -0.9 0.9 -0.8
v -0.9 2.2 -0.8
v -0.9 2.3 -0.8
v -0.9 2.4 -0.8
v -0.8 0.8 -0.8
v -0.8 0.9 -0.8
v -0.8 2.2 -0.8
v -0.8 2.3 -0.8
v -0.8 2.4 -0.8
v -0.8 2.5 -0.8
v -0.7 2.4 -0.8
v -0.7 2.5 -0.8
v 0.8 2.4 -0.8
v 0.9 0.6 -0.8
v 0.9 0.8 -0.8
v 0.9 0.9 -0.8
v 0.9 2.2 -0.8
v 0.9 2.3 -0.8
v 0.9 2.4 -0.8
v 1 0.6 -0.8
v 1 0.8 -0.8
v 1 0.9 -0.8
v 1 2.2 -0.8
v 1 2.3 -0.8
v 1 2.4 -0.8
v 1 2.5 -0.8
v -1.3 0 -1.2
v -1.3 0.1 -1.2
v -1.3 0.2 -1.2
v -1.3 0.6 -1.2
v -1.2 0 -1.2
v -1.2 0.1 -1.2
v -1.2 0.2 -1.2
v -1.2 0.6 -1.2
v 1.2 0 -1.2
v 1.2 0.1 -1.2
v 1.2 0.2 -1.2
v 1.2 0.6 -1.2
v 1.3 0 -1.2
v 1.3 0.1 -1.2
v 1.3 0.2 -1.2
v 1.3 0.6 -1.2
v -1.3 0 1.3
v -1.3 0.1 1.3
v -1.3 0.2 1.3
v -1.3 0.6 1.3
v -1.2 0 1.3
v -1.2 0.1 1.3
v -1.2 0.2 1.3
v -1.2 0.6 1.3
v 1.2 0 1.3
v 1.2 0.1 1.3
v 1.2 0.2 1.3
v 1.2 0.6 1.3
v 1.3 0 1.3
v 1.3 0.1 1.3
v 1.3 0.2 1.3
v 1.3 0.6 1.3
v -1 0.6 0.8
v -1 0.8 0.8
v -1 0.9 0.8
v -1 2.2 0.8
v -1 2.3 0.8
v -1 2.5 0.8
v -0.9 0.6 0.8
v -0.9 0.8 0.8
v -0.9 0.9 0.8
v -0.9 2.2 0.8
v -0.9 2.3 0.8
v -0.9 2.4 0.8
v -0.8 0.8 0.8
v -0.8 0.9 0.8
v -0.8 2.2 0.8
v -0.8 2.3 0.8
v -0.8 2.4 0.8
v -0.8 2.5 0.8
v -0.7 2.4 0.8
v -0.7 2.5 0.8
v 0.7 2.4 0.8
v 0.7 2.5 0.8
v 0.8 2.4 0.8
v 0.8 2.5 0.8
v 0.9 0.6 0.8
v 0.9 0.8 0.8
v 0.9 0.9 0.8
v 0.9 2.2 0.8
v 0.9 2.3 0.8
v 0.9 2.4 0.8
v 1 0.6 0.8
v 1 0.8 0.8
v 1 0.9 0.8
v 1 2.2 0.8
v 1 2.3 0.8
v 1 2.4 0.8
v 1 2.5 0.8
v -1 0.6 -0.7
v -1 0.8 -0.7
v -1 0.9 -0.7
v -1 2.2 -0.7
v -1 2.3 -0.7
v -1 2.5 -0.7
v -0.9 0.6 -0.7
v -0.9 0.8 -0.7
v -0.9 0.9 -0.7
v -0.9 2.2 -0.7
v -0.9 2.3 -0.7
v -0.9 2.4 -0.7
v -0.8 0.8 -0.7
v -0.8 0.9 -0.7
v -0.8 2.2 -0.7
v -0.8 2.3 -0.7
v -0.8 2.4 -0.7
v -0.8 2.5 -0.7
v -0.7 2.4 -0.7
v -0.7 2.5 -0.7
v 0.7 2.4 -0.7
v 0.7 2.5 -0.7
v 0.8 2.4 -0.7
v 0.8 2.5 -0.7
v 0.9 0.6 -0.7
v 0.9 0.8 -0.7
v 0.9 0.9 -0.7
v 0.9 2.2 -0.7
v 0.9 2.3 -0.7
v 0.9 2.4 -0.7
v 1 0.6 -0.7
v 1 0.8 -0.7
v 1 0.9 -0.7
v 1 2.2 -0.7
v 1 2.3 -0.7
v 1 2.4 -0.7
v 1 2.5 -0.7
v -0.9 0.8 -0.9
v -0.9 0.9 -0.9
v -0.9 2.2 -0.9
v -0.9 2.3 -0.9
v -0.8 0.6 -0.9
v -0.8 0.8 -0.9
v -0.8 0.9 -0.9
v -0.8 2.2 -0.9
v -0.8 2.3 -0.9
v -0.8 2.4 -0.9
v -0.7 0.6 -0.9
v -0.7 0.8 -0.9
v -0.7 0.9 -0.9
v -0.7 1.1 -0.9
v -0.7 1.2 -0.9
v -0.7 2.1 -0.9
v -0.7 2.3 -0.9
v -0.7 2.4 -0.9
v -0.6 1.1 -0.9
v -0.6 1.2 -0.9
v -0.6 2.1 -0.9
v -0.6 2.2 -0.9
v -0.5 1.9 -0.9
v -0.5 2 -0.9
v -0.5 2.4 -0.9
v -0.5 2.5 -0.9
v -0.4 1 -0.9
v -0.4 1.1 -0.9
v -0.4 1.9 -0.9
v -0.4 2 -0.9
v -0.4 2.4 -0.9
v -0.4 2.5 -0.9
v -0.3 1 -0.9
v -0.3 1.1 -0.9
v -0.1 1.6 -0.9
v -0.1 1.7 -0.9
v -0.1 2.1 -0.9
v -0.1 2.2 -0.9
v 0 1.6 -0.9
v 0 1.7 -0.9
v 0 2.1 -0.9
v 0 2.2 -0.9
v 0.1 1.3 -0.9
v 0.1 1.4 -0.9
v 0.2 1.3 -0.9
v 0.2 1.4 -0.9
v 0.3 0.9 -0.9
v 0.3 1 -0.9
v 0.3 2.1 -0.9
v 0.3 2.2 -0.9
v 0.4 0.9 -0.9
v 0.4 1 -0.9
v 0.4 1.2 -0.9
v 0.4 1.3 -0.9
v 0.4 2.1 -0.9
v 0.4 2.2 -0.9
v 0.5 1.2 -0.9
v 0.5 1.3 -0.9
v 0.5 1.8 -0.9
v 0.5 1.9 -0.9
v 0.6 1.5 -0.9
v 0.6 1.6 -0.9
v 0.6 1.8 -0.9
v 0.6 1.9 -0.9
v 0.7 0.6 -0.9
v 0.7 0.8 -0.9
v 0.7 0.9 -0.9
v 0.7 1.5 -0.9
v 0.7 1.6 -0.9
v 0.7 2.2 -0.9
v 0.7 2.3 -0.9
v 0.7 2.4 -0.9
v 0.7 2.5 -0.9
v 0.8 0.6 -0.9
v 0.8 0.8 -0.9
v 0.8 0.9 -0.9
v 0.8 2.1 -0.9
v 0.8 2.2 -0.9
v 0.8 2.3 -0.9
v 0.8 2.4 -0.9
v 0.8 2.5 -0.9
v 0.9 0.8 -0.9
v 0.9 0.9 -0.9
v 0.9 1.7 -0.9
v 0.9 1.8 -0.9
v 0.9 2.1 -0.9
v 0.9 2.2 -0.9
v 0.9 2.3 -0.9
v 1 1.7 -0.9
v 1 1.8 -0.9
v -1 0.6 -1
v -1 0.8 -1
v -1 0.9 -1
v -1 2.2 -1
v -1 2.3 -1
v -1 2.5 -1
v -0.8 0.6 -1
v -0.8 0.8 -1
v -0.8 0.9 -1
v -0.8 2.2 -1
v -0.8 2.3 -1
v -0.8 2.5 -1
v -0.7 0.6 -1
v -0.7 0.8 -1
v -0.7 0.9 -1
v -0.7 1.1 -1
v -0.7 1.2 -1
v -0.7 2.1 -1
v -0.7 2.3 -1
v -0.7 2.5 -1
v -0.6 1.1 -1
v -0.6 1.2 -1
v -0.6 2.1 -1
v -0.6 2.2 -1
v -0.5 1.9 -1
v -0.5 2 -1
v -0.5 2.4 -1
v -0.5 2.5 -1
v -0.4 1 -1
v -0.4 1.1 -1
v -0.4 1.9 -1
v -0.4 2 -1
v -0.4 2.4 -1
v -0.4 2.5 -1
v -0.3 1 -1
v -0.3 1.1 -1
v -0.1 1.6 -1
v -0.1 1.7 -1
v -0.1 2.1 -1
v -0.1 2.2 -1
v 0 1.6 -1
v 0 1.7 -1
v 0 2.1 -1
v 0 2.2 -1
v 0.1 1.3 -1
v 0.1 1.4 -1
v 0.2 1.3 -1
v 0.2 1.4 -1
v 0.3 0.9 -1
v 0.3 1 -1
v 0.3 2.1 -1
v 0.3 2.2 -1
v 0.4 0.9 -1
v 0.4 1 -1
v 0.4 1.2 -1
v 0.4 1.3 -1
v 0.4 2.1 -1
v 0.4 2.2 -1
v 0.5 1.2 -1
v 0.5 1.3 -1
v 0.5 1.8 -1
v 0.5 1.9 -1
v 0.6 1.5 -1
v 0.6 1.6 -1
v 0.6 1.8 -1
v 0.6 1.9 -1
v 0.7 0.6 -1
v 0.7 0.8 -1
v 0.7 0.9 -1
v 0.7 1.5 -1
v 0.7 1.6 -1
v 0.7 2.2 -1
v 0.7 2.3 -1
v 0.7 2.5 -1
v 0.8 0.6 -1
v 0.8 0.8 -1
v 0.8 0.9 -1
v 0.8 2.1 -1
v 0.8 2.3 -1
v 0.8 2.5 -1
v 0.9 1.7 -1
v 0.9 1.8 -1
v 0.9 2.1 -1
v 0.9 2.2 -1
v 1 0.6 -1
v 1 0.8 -1
v 1 0.9 -1
v 1 1.7 -1
v 1 1.8 -1
v 1 2.2 -1
v 1 2.3 -1
v 1 2.5 -1
v -1.4 0 -1.1
v -1.4 0.1 -1.1
v -1.3 0.2 -1.1
v -1.3 0.6 -1.1
v -1.2 0 -1.1
v -1.2 0.1 -1.1
v -1.2 0.2 -1.1
v -1.2 0.6 -1.1
v 1.2 0 -1.1
v 1.2 0.1 -1.1
v 1.2 0.2 -1.1
v 1.2 0.6 -1.1
v 1.3 0.2 -1.1
v 1.3 0.6 -1.1
v 1.4 0 -1.1
v 1.4 0.1 -1.1
v -1.2 0 -1.2
v -1.2 0.1 -1.2
v -1.2 0.2 -1.2
v -1.2 0.6 -1.2
v -1.1 0 -1.2
v -1.1 0.1 -1.2
v -1.1 0.2 -1.2
v -1.1 0.6 -1.2
v 1.1 0 -1.2
v 1.1 0.1 -1.2
v 1.1 0.2 -1.2
v 1.1 0.6 -1.2
v 1.2 0 -1.2
v 1.2 0.1 -1.2
v 1.2 0.2 -1.2
v 1.2 0.6 -1.2
v -1.3 0 -1.3
v -1.3 0.1 -1.3
v -1.3 0.2 -1.3
v -1.3 0.6 -1.3
v -1.2 0 -1.3
v -1.2 0.1 -1.3
v -1.2 0.2 -1.3
v -1.2 0.6 -1.3
v -1.1 0.2 -1.3
v -1.1 0.6 -1.3
v 1.1 0.2 -1.3
v 1.1 0.6 -1.3
v 1.2 0 -1.3
v 1.2 0.1 -1.3
v 1.2 0.2 -1.3
v 1.2 0.6 -1.3
v 1.3 0 -1.3
v 1.3 0.1 -1.3
v 1.3 0.2 -1.3
v 1.3 0.6 -1.3
v -1.1 0 -1.4
v -1.1 0.1 -1.4
v 1.1 0 -1.4
v 1.1 0.1 -1.4
v -1.3 0 1.6
v -1.2 0 1.6
v -1.1 0 1.6
v 1.1 0 1.6
v 1.2 0 1.6
v 1.3 0 1.6
v -1.3 0 1.3
v -1.2 0 1.3
v -1.1 0 1.3
v 1.1 0 1.3
v 1.2 0 1.3
v 1.3 0 1.3
v -1.4 0 1.2
v -1.2 0 1.2
v 1.2 0 1.2
v 1.4 0 1.2
v -1.4 0 -1.1
v -1.2 0 -1.1
v 1.2 0 -1.1
v 1.4 0 -1.1
v -1.3 0 -1.2
v -1.2 0 -1.2
v -1.1 0 -1.2
v 1.1 0 -1.2
v 1.2 0 -1.2
v 1.3 0 -1.2
v -1.3 0 -1.3
v -1.2 0 -1.3
v 1.2 0 -1.3
v 1.3 0 -1.3
v -1.1 0 -1.4
v 1.1 0 -1.4
v 0.1 0.2 1.5
v 0.2 0.2 1.5
v -1.3 0.2 1.4
v -1.2 0.2 1.4
v 0.1 0.2 1.4
v 0.2 0.2 1.4
v 1.2 0.2 1.4
v 1.3 0.2 1.4
v -1.3 0.2 1.3
v -1.2 0.2 1.3
v 1.2 0.2 1.3
v 1.3 0.2 1.3
v -1.3 0.2 1.2
v -1.2 0.2 1.2
v 1.2 0.2 1.2
v 1.3 0.2 1.2
v -1.3 0.2 -1.1
v -1.2 0.2 -1.1
v 1.2 0.2 -1.1
v 1.3 0.2 -1.1
v -1.3 0.2 -1.2
v -1.2 0.2 -1.2
v -1.1 0.2 -1.2
v 1.1 0.2 -1.2
v 1.2 0.2 -1.2
v 1.3 0.2 -1.2
v -1.3 0.2 -1.3
v -1.2 0.2 -1.3
v -1.1 0.2 -1.3
v 1.1 0.2 -1.3
v 1.2 0.2 -1.3
v 1.3 0.2 -1.3
v 0.2 0.3 1.5
v 0.3 0.3 1.5
v 0.2 0.3 1.4
v 0.3 0.3 1.4
v -1 0.9 1
v -0.8 0.9 1
v -0.7 0.9 1
v 0.7 0.9 1
v 0.8 0.9 1
v 1 0.9 1
v -0.9 0.9 0.9
v -0.8 0.9 0.9
v -0.7 0.9 0.9
v 0.7 0.9 0.9
v 0.8 0.9 0.9
v 0.9 0.9 0.9
v -1 0.9 0.8
v -0.9 0.9 0.8
v -0.8 0.9 0.8
v 0.9 0.9 0.8
v 1 0.9 0.8
v -1 0.9 0.7
v -0.9 0.9 0.7
v -0.8 0.9 0.7
v 0.9 0.9 0.7
v 1 0.9 0.7
v 0.9 0.9 0.2
v 1 0.9 0.2
v -1 0.9 -0.7
v -0.9 0.9 -0.7
v -0.8 0.9 -0.7
v 0.9 0.9 -0.7
v 1 0.9 -0.7
v -1 0.9 -0.8
v -0.9 0.9 -0.8
v -0.8 0.9 -0.8
v 0.9 0.9 -0.8
v 1 0.9 -0.8
v -0.9 0.9 -0.9
v -0.8 0.9 -0.9
v -0.7 0.9 -0.9
v 0.3 0.9 -0.9
v 0.4 0.9 -0.9
v 0.7 0.9 -0.9
v 0.8 0.9 -0.9
v 0.9 0.9 -0.9
v 1 0.9 -0.9
v -1 0.9 -1
v -0.8 0.9 -1
v -0.7 0.9 -1
v 0.3 0.9 -1
v 0.4 0.9 -1
v 0.7 0.9 -1
v 0.8 0.9 -1
v 1 0.9 -1
v 0.3 1 -0.9
v 0.4 1 -0.9
v 0.3 1 -1
v 0.4 1 -1
v -0.4 1.1 -0.9
v -0.3 1.1 -0.9
v -0.4 1.1 -1
v -0.3 1.1 -1
v -0.7 1.2 -0.9
v -0.6 1.2 -0.9
v -0.7 1.2 -1
v -0.6 1.2 -1
v 0.4 1.3 -0.9
v 0.5 1.3 -0.9
v 0.4 1.3 -1
v 0.5 1.3 -1
v 0.1 1.4 -0.9
v 0.2 1.4 -0.9
v 0.1 1.4 -1
v 0.2 1.4 -1
v 0.6 1.6 -0.9
v 0.7 1.6 -0.9
v 0.6 1.6 -1
v 0.7 1.6 -1
v -0.1 1.7 -0.9
v 0 1.7 -0.9
v -0.1 1.7 -1
v 0 1.7 -1
v 0.9 1.8 -0.9
v 1 1.8 -0.9
v 0.9 1.8 -1
v 1 1.8 -1
v 0.5 1.9 -0.9
v 0.6 1.9 -0.9
v 0.5 1.9 -1
v 0.6 1.9 -1
v -0.5 2 -0.9
v -0.4 2 -0.9
v -0.5 2 -1
v -0.4 2 -1
v -1 2.3 1
v -0.8 2.3 1
v -0.7 2.3 1
v 0.7 2.3 1
v 0.8 2.3 1
v 1 2.3 1
v -0.9 2.3 0.9
v -0.8 2.3 0.9
v -0.7 2.3 0.9
v 0.7 2.3 0.9
v 0.8 2.3 0.9
v 0.9 2.3 0.9
v 1 2.3 0.9
v -1 2.3 0.8
v -0.9 2.3 0.8
v -0.8 2.3 0.8
v 0.9 2.3 0.8
v 1 2.3 0.8
v -1 2.3 0.7
v -0.9 2.3 0.7
v -0.8 2.3 0.7
v 0.9 2.3 0.7
v 1 2.3 0.7
v 0.9 2.3 0.1
v 1 2.3 0.1
v -1 2.3 -0.7
v -0.9 2.3 -0.7
v -0.8 2.3 -0.7
v 0.9 2.3 -0.7
v 1 2.3 -0.7
v -1 2.3 -0.8
v -0.9 2.3 -0.8
v -0.8 2.3 -0.8
v 0.9 2.3 -0.8
v 1 2.3 -0.8
v -0.9 2.3 -0.9
v -0.8 2.3 -0.9
v -0.7 2.3 -0.9
v 0.7 2.3 -0.9
v 0.8 2.3 -0.9
v 0.9 2.3 -0.9
v 1 2.3 -0.9
v -1 2.3 -1
v -0.8 2.3 -1
v -0.7 2.3 -1
v 0.7 2.3 -1
v 0.8 2.3 -1
v 1 2.3 -1
v -1.3 0.1 1.6
v -1.2 0.1 1.6
v -1.1 0.1 1.6
v 1.1 0.1 1.6
v 1.2 0.1 1.6
v 1.3 0.1 1.6
v -0.1 0.1 1.5
v 0.1 0.1 1.5
v -1.1 0.1 1.4
v -0.1 0.1 1.4
v 0.1 0.1 1.4
v 1.1 0.1 1.4
v -1.3 0.1 1.3
v -1.2 0.1 1.3
v 1.2 0.1 1.3
v 1.3 0.1 1.3
v -1.4 0.1 1.2
v -1.2 0.1 1.2
v 1.2 0.1 1.2
v 1.4 0.1 1.2
v -1.4 0.1 -1.1
v -1.2 0.1 -1.1
v 1.2 0.1 -1.1
v 1.4 0.1 -1.1
v -1.3 0.1 -1.2
v -1.2 0.1 -1.2
v -1.1 0.1 -1.2
v 1.1 0.1 -1.2
v 1.2 0.1 -1.2
v 1.3 0.1 -1.2
v -1.3 0.1 -1.3
v -1.2 0.1 -1.3
v 1.2 0.1 -1.3
v 1.3 0.1 -1.3
v -1.1 0.1 -1.4
v 1.1 0.1 -1.4
v 0.2 0.4 1.5
v 0.3 0.4 1.5
v 0.2 0.4 1.4
v 0.3 0.4 1.4
v 0.1 0.5 1.5
v 0.2 0.5 1.5
v 0.1 0.5 1.4
v 0.2 0.5 1.4
v -0.1 0.6 1.5
v 0.1 0.6 1.5
v -1.3 0.6 1.4
v -1.2 0.6 1.4
v -1.1 0.6 1.4
v -0.1 0.6 1.4
v 0.1 0.6 1.4
v 1.1 0.6 1.4
v 1.2 0.6 1.4
v 1.3 0.6 1.4
v -1.3 0.6 1.3
v -1.2 0.6 1.3
v -1.1 0.6 1.3
v 1.1 0.6 1.3
v 1.2 0.6 1.3
v 1.3 0.6 1.3
v -1.3 0.6 1.2
v -1.2 0.6 1.2
v 1.2 0.6 1.2
v 1.3 0.6 1.2
v -1 0.6 1
v -0.8 0.6 1
v -0.7 0.6 1
v 0.7 0.6 1
v 0.8 0.6 1
v 1 0.6 1
v -0.8 0.6 0.9
v -0.7 0.6 0.9
v 0.7 0.6 0.9
v 0.8 0.6 0.9
v -1 0.6 0.8
v -0.9 0.6 0.8
v 0.9 0.6 0.8
v 1 0.6 0.8
v -1 0.6 0.7
v -0.9 0.6 0.7
v 0.9 0.6 0.7
v 1 0.6 0.7
v 1 0.6 0.2
v -1 0.6 -0.7
v -0.9 0.6 -0.7
v 0.9 0.6 -0.7
v 1 0.6 -0.7
v -1 0.6 -0.8
v -0.9 0.6 -0.8
v 0.9 0.6 -0.8
v 1 0.6 -0.8
v -0.8 0.6 -0.9
v -0.7 0.6 -0.9
v 0.7 0.6 -0.9
v 0.8 0.6 -0.9
v 1 0.6 -0.9
v -1 0.6 -1
v -0.8 0.6 -1
v -0.7 0.6 -1
v 0.7 0.6 -1
v 0.8 0.6 -1
v 1 0.6 -1
v -1.3 0.6 -1.1
v -1.2 0.6 -1.1
v 1.2 0.6 -1.1
v 1.3 0.6 -1.1
v -1.3 0.6 -1.2
v -1.2 0.6 -1.2
v -1.1 0.6 -1.2
v 1.1 0.6 -1.2
v 1.2 0.6 -1.2
v 1.3 0.6 -1.2
v -1.3 0.6 -1.3
v -1.2 0.6 -1.3
v -1.1 0.6 -1.3
v 1.1 0.6 -1.3
v 1.2 0.6 -1.3
v 1.3 0.6 -1.3
v -1 0.8 1
v -0.8 0.8 1
v -0.7 0.8 1
v 0.7 0.8 1
v 0.8 0.8 1
v 1 0.8 1
v -0.9 0.8 0.9
v -0.8 0.8 0.9
v -0.7 0.8 0.9
v 0.7 0.8 0.9
v 0.8 0.8 0.9
v 0.9 0.8 0.9
v -1 0.8 0.8
v -0.9 0.8 0.8
v -0.8 0.8 0.8
v 0.9 0.8 0.8
v 1 0.8 0.8
v -1 0.8 0.7
v -0.9 0.8 0.7
v -0.8 0.8 0.7
v 0.9 0.8 0.7
v 1 0.8 0.7
v 0.9 0.8 0.2
v 1 0.8 0.2
v -1 0.8 -0.7
v -0.9 0.8 -0.7
v -0.8 0.8 -0.7
v 0.9 0.8 -0.7
v 1 0.8 -0.7
v -1 0.8 -0.8
v -0.9 0.8 -0.8
v -0.8 0.8 -0.8
v 0.9 0.8 -0.8
v 1 0.8 -0.8
v -0.9 0.8 -0.9
v -0.8 0.8 -0.9
v -0.7 0.8 -0.9
v 0.7 0.8 -0.9
v 0.8 0.8 -0.9
v 0.9 0.8 -0.9
v 1 0.8 -0.9
v -1 0.8 -1
v -0.8 0.8 -1
v -0.7 0.8 -1
v 0.7 0.8 -1
v 0.8 0.8 -1
v 1 0.8 -1
v -0.4 1 -0.9
v -0.3 1 -0.9
v -0.4 1 -1
v -0.3 1 -1
v -0.7 1.1 -0.9
v -0.6 1.1 -0.9
v -0.7 1.1 -1
v -0.6 1.1 -1
v 0.4 1.2 -0.9
v 0.5 1.2 -0.9
v 0.4 1.2 -1
v 0.5 1.2 -1
v 0.1 1.3 -0.9
v 0.2 1.3 -0.9
v 0.1 1.3 -1
v 0.2 1.3 -1
v 0.6 1.5 -0.9
v 0.7 1.5 -0.9
v 0.6 1.5 -1
v 0.7 1.5 -1
v -0.1 1.6 -0.9
v 0 1.6 -0.9
v -0.1 1.6 -1
v 0 1.6 -1
v 0.9 1.7 -0.9
v 1 1.7 -0.9
v 0.9 1.7 -1
v 1 1.7 -1
v 0.5 1.8 -0.9
v 0.6 1.8 -0.9
v 0.5 1.8 -1
v 0.6 1.8 -1
v -0.5 1.9 -0.9
v -0.4 1.9 -0.9
v -0.5 1.9 -1
v -0.4 1.9 -1
v -0.7 2.1 -0.9
v -0.6 2.1 -0.9
v -0.1 2.1 -0.9
v 0 2.1 -0.9
v 0.3 2.1 -0.9
v 0.4 2.1 -0.9
v 0.8 2.1 -0.9
v 0.9 2.1 -0.9
v -0.7 2.1 -1
v -0.6 2.1 -1
v -0.1 2.1 -1
v 0 2.1 -1
v 0.3 2.1 -1
v 0.4 2.1 -1
v 0.8 2.1 -1
v 0.9 2.1 -1
v -1 2.2 1
v -0.8 2.2 1
v -0.7 2.2 1
v 0.7 2.2 1
v 0.8 2.2 1
v 1 2.2 1
v -0.9 2.2 0.9
v -0.8 2.2 0.9
v -0.7 2.2 0.9
v 0.7 2.2 0.9
v 0.8 2.2 0.9
v 0.9 2.2 0.9
v -1 2.2 0.8
v -0.9 2.2 0.8
v -0.8 2.2 0.8
v 0.9 2.2 0.8
v 1 2.2 0.8
v -1 2.2 0.7
v -0.9 2.2 0.7
v -0.8 2.2 0.7
v 0.9 2.2 0.7
v 1 2.2 0.7
v 0.9 2.2 0.2
v 1 2.2 0.2
v -1 2.2 -0.7
v -0.9 2.2 -0.7
v -0.8 2.2 -0.7
v 0.9 2.2 -0.7
v 1 2.2 -0.7
v -1 2.2 -0.8
v -0.9 2.2 -0.8
v -0.8 2.2 -0.8
v 0.9 2.2 -0.8
v 1 2.2 -0.8
v -0.9 2.2 -0.9
v -0.8 2.2 -0.9
v -0.6 2.2 -0.9
v -0.1 2.2 -0.9
v 0 2.2 -0.9
v 0.3 2.2 -0.9
v 0.4 2.2 -0.9
v 0.7 2.2 -0.9
v 0.9 2.2 -0.9
v 1 2.2 -0.9
v -1 2.2 -1
v -0.8 2.2 -1
v -0.6 2.2 -1
v -0.1 2.2 -1
v 0 2.2 -1
v 0.3 2.2 -1
v 0.4 2.2 -1
v 0.7 2.2 -1
v 0.9 2.2 -1
v 1 2.2 -1
v -0.8 2.4 0.9
v -0.7 2.4 0.9
v 0.7 2.4 0.9
v 0.8 2.4 0.9
v -0.9 2.4 0.8
v -0.8 2.4 0.8
v -0.7 2.4 0.8
v 0.7 2.4 0.8
v 0.8 2.4 0.8
v 0.9 2.4 0.8
v -0.9 2.4 0.7
v -0.8 2.4 0.7
v -0.7 2.4 0.7
v 0.7 2.4 0.7
v 0.8 2.4 0.7
v 0.9 2.4 0.7
v -0.8 2.4 0.1
v -0.7 2.4 0.1
v 0.7 2.4 0.1
v 0.8 2.4 0.1
v -0.9 2.4 -0.7
v -0.8 2.4 -0.7
v -0.7 2.4 -0.7
v 0.7 2.4 -0.7
v 0.8 2.4 -0.7
v 0.9 2.4 -0.7
v -0.9 2.4 -0.8
v -0.8 2.4 -0.8
v -0.7 2.4 -0.8
v 0.8 2.4 -0.8
v 0.9 2.4 -0.8
v -0.8 2.4 -0.9
v -0.7 2.4 -0.9
v -0.5 2.4 -0.9
v -0.4 2.4 -0.9
v -0.5 2.4 -1
v -0.4 2.4 -1
v -1 2.5 1
v -0.8 2.5 1
v -0.7 2.5 1
v 0.7 2.5 1
v 0.8 2.5 1
v 1 2.5 1
v -1 2.5 0.8
v -0.8 2.5 0.8
v -0.7 2.5 0.8
v 0.7 2.5 0.8
v 0.8 2.5 0.8
v 1 2.5 0.8
v -1 2.5 0.7
v -0.8 2.5 0.7
v -0.7 2.5 0.7
v 0.7 2.5 0.7
v 0.8 2.5 0.7
v 1 2.5 0.7
v -1 2.5 -0.7
v -0.8 2.5 -0.7
v -0.7 2.5 -0.7
v 0.7 2.5 -0.7
v 0.8 2.5 -0.7
v 1 2.5 -0.7
v -1 2.5 -0.8
v -0.8 2.5 -0.8
v -0.7 2.5 -0.8
v 1 2.5 -0.8
v -0.5 2.5 -0.9
v -0.4 2.5 -0.9
v 0.7 2.5 -0.9
v 0.8 2.5 -0.9
v -1 2.5 -1
v -0.8 2.5 -1
v -0.7 2.5 -1
v -0.5 2.5 -1
v -0.4 2.5 -1
v 0.7 2.5 -1
v 0.8 2.5 -1
v 1 2.5 -1

# faces
f 3/9/1 2/9/1 1/9/1
f 4/9/1 2/9/1 3/9/1
f 9/9/1 6/9/1 5/9/1
f 10/9/1 6/9/1 9/9/1
f 11/9/1 8/9/1 7/9/1
f 12/9/1 8/9/1 11/9/1
f 19/9/1 14/9/1 13/9/1
f 20/9/1 14/9/1 19/9/1
f 21/9/1 16/9/1 15/9/1
f 22/9/1 16/9/1 21/9/1
f 23/9/1 18/9/1 17/9/1
f 24/9/1 18/9/1 23/9/1
f 29/9/1 26/9/1 25/9/1
f 30/9/1 26/9/1 29/9/1
f 31/9/1 28/9/1 27/9/1
f 32/9/1 28/9/1 31/9/1
f 33/9/1 30/9/1 29/9/1
f 33/9/1 31/9/1 30/9/1
f 33/9/1 32/9/1 31/9/1
f 34/9/1 32/9/1 33/9/1
f 35/9/1 32/9/1 34/9/1
f 36/9/1 32/9/1 35/9/1
f 37/9/1 34/9/1 33/9/1
f 38/9/1 34/9/1 37/9/1
f 39/9/1 36/9/1 35/9/1
f 40/9/1 36/9/1 39/9/1
f 45/9/1 42/9/1 41/9/1
f 46/9/1 42/9/1 45/9/1
f 47/9/1 44/9/1 43/9/1
f 48/9/1 44/9/1 47/9/1
f 51/9/1 42/9/1 46/9/1
f 52/9/1 42/9/1 51/9/1
f 53/9/1 50/9/1 49/9/1
f 54/9/1 50/9/1 53/9/1
f 61/6/1 56/6/1 55/6/1
f 62/6/1 56/6/1 61/6/1
f 63/6/1 58/6/1 57/6/1
f 64/6/1 58/6/1 63/6/1
f 65/6/1 60/6/1 59/6/1
f 66/6/1 60/6/1 65/6/1
f 73/6/1 68/6/1 67/6/1
f 74/6/1 68/6/1 73/6/1
f 75/6/1 70/6/1 69/6/1
f 76/6/1 70/6/1 75/6/1
f 77/6/1 72/6/1 71/6/1
f 78/6/1 72/6/1 77/6/1
f 85/6/1 80/6/1 79/6/1
f 86/6/1 80/6/1 85/6/1
f 87/6/1 82/6/1 81/6/1
f 88/6/1 82/6/1 87/6/1
f 89/6/1 84/6/1 83/6/1
f 90/6/1 84/6/1 89/6/1
f 96/7/1 92/7/1 91/7/1
f 97/7/1 92/7/1 96/7/1
f 98/7/1 94/7/1 93/7/1
f 99/7/1 94/7/1 98/7/1
f 101/7/1 96/7/1 95/7/1
f 102/7/1 96/7/1 101/7/1
f 103/7/1 98/7/1 97/7/1
f 104/7/1 98/7/1 103/7/1
f 105/7/1 100/7/1 99/7/1
f 106/7/1 100/7/1 105/7/1
f 108/7/1 103/7/1 102/7/1
f 109/7/1 103/7/1 108/7/1
f 110/7/1 105/7/1 104/7/1
f 111/7/1 105/7/1 110/7/1
f 113/7/1 108/7/1 107/7/1
f 114/7/1 108/7/1 113/7/1
f 115/7/1 110/7/1 109/7/1
f 116/7/1 110/7/1 115/7/1
f 117/7/1 112/7/1 111/7/1
f 118/7/1 112/7/1 117/7/1
f 119/7/1 115/7/1 114/7/1
f 120/7/1 115/7/1 119/7/1
f 121/7/1 117/7/1 116/7/1
f 122/7/1 117/7/1 121/7/1
f 127/6/1 124/6/1 123/6/1
f 128/6/1 124/6/1 127/6/1
f 129/8/1 126/8/1 125/8/1
f 130/8/1 126/8/1 129/8/1
f 135/7/1 132/7/1 131/7/1
f 136/7/1 132/7/1 135/7/1
f 137/6/1 134/6/1 133/6/1
f 138/6/1 134/6/1 137/6/1
f 143/6/1 140/6/1 139/6/1
f 144/6/1 140/6/1 143/6/1
f 145/6/1 142/6/1 141/6/1
f 146/6/1 142/6/1 145/6/1
f 151/6/1 150/6/1 149/6/1
f 152/6/1 150/6/1 151/6/1
f 155/6/1 154/6/1 153/6/1
f 156/6/1 154/6/1 155/6/1
f 157/6/1 148/6/1 147/6/1
f 158/6/1 148/6/1 157/6/1
f 163/6/1 160/6/1 159/6/1
f 169/6/1 162/6/1 161/6/1
f 170/6/1 163/6/1 159/6/1
f 170/6/1 164/6/1 163/6/1
f 171/6/1 164/6/1 170/6/1
f 172/6/1 167/6/1 166/6/1
f 172/6/1 166/6/1 165/6/1
f 173/6/1 167/6/1 172/6/1
f 174/6/1 169/6/1 168/6/1
f 175/6/1 162/6/1 169/6/1
f 175/6/1 169/6/1 174/6/1
f 178/6/1 177/6/1 176/6/1
f 179/6/1 177/6/1 178/6/1
f 182/6/1 181/6/1 180/6/1
f 183/6/1 181/6/1 182/6/1
f 186/6/1 185/6/1 184/6/1
f 187/6/1 185/6/1 186/6/1
f 190/6/1 189/6/1 188/6/1
f 191/6/1 189/6/1 190/6/1
f 194/6/1 193/6/1 192/6/1
f 195/6/1 193/6/1 194/6/1
f 198/1/1 197/1/1 196/1/1
f 199/1/1 197/1/1 198/1/1
f 202/6/1 201/6/1 200/6/1
f 203/6/1 201/6/1 202/6/1
f 206/6/1 205/6/1 204/6/1
f 207/6/1 205/6/1 206/6/1
f 210/6/1 209/6/1 208/6/1
f 211/6/1 209/6/1 210/6/1
f 214/6/1 213/6/1 212/6/1
f 215/6/1 213/6/1 214/6/1
f 218/6/1 217/6/1 216/6/1
f 219/6/1 217/6/1 218/6/1
f 222/6/1 221/6/1 220/6/1
f 223/6/1 221/6/1 222/6/1
f 226/6/1 225/6/1 224/6/1
f 227/6/1 225/6/1 226/6/1
f 232/6/1 229/6/1 228/6/1
f 233/6/1 229/6/1 232/6/1
f 234/6/1 231/6/1 230/6/1
f 235/6/1 231/6/1 234/6/1
f 240/6/1 239/6/1 238/6/1
f 241/6/1 239/6/1 240/6/1
f 242/6/1 237/6/1 236/6/1
f 243/6/1 237/6/1 242/6/1
f 248/6/1 245/6/1 244/6/1
f 253/6/1 247/6/1 246/6/1
f 254/6/1 248/6/1 244/6/1
f 254/6/1 249/6/1 248/6/1
f 255/6/1 249/6/1 254/6/1
f 256/6/1 252/6/1 251/6/1
f 256/6/1 251/6/1 250/6/1
f 257/6/1 252/6/1 256/6/1
f 258/6/1 247/6/1 253/6/1
f 259/6/1 247/6/1 258/6/1
f 262/6/1 261/6/1 260/6/1
f 263/6/1 261/6/1 262/6/1
f 268/9/1 265/9/1 264/9/1
f 269/9/1 265/9/1 268/9/1
f 270/9/1 267/9/1 266/9/1
f 271/9/1 267/9/1 270/9/1
f 276/9/1 273/9/1 272/9/1
f 277/9/1 273/9/1 276/9/1
f 278/9/1 275/9/1 274/9/1
f 279/9/1 275/9/1 278/9/1
f 280/9/2 281/9/2 284/9/2
f 284/9/2 281/9/2 285/9/2
f 282/9/2 283/9/2 286/9/2
f 286/9/2 283/9/2 287/9/2
f 288/9/2 289/9/2 292/9/2
f 292/9/2 289/9/2 293/9/2
f 290/9/2 291/9/2 294/9/2
f 294/9/2 291/9/2 295/9/2
f 296/6/2 297/6/2 300/6/2
f 300/6/2 297/6/2 301/6/2
f 298/6/2 299/6/2 302/6/2
f 302/6/2 299/6/2 303/6/2
f 304/6/2 305/6/2 308/6/2
f 308/6/2 305/6/2 309/6/2
f 306/6/2 307/6/2 310/6/2
f 310/6/2 307/6/2 311/6/2
f 312/6/2 313/6/2 316/6/2
f 314/6/2 315/6/2 322/6/2
f 312/6/2 316/6/2 323/6/2
f 316/6/2 317/6/2 323/6/2
f 323/6/2 317/6/2 324/6/2
f 319/6/2 320/6/2 325/6/2
f 318/6/2 319/6/2 325/6/2
f 325/6/2 320/6/2 326/6/2
f 321/6/2 322/6/2 327/6/2
f 322/6/2 315/6/2 328/6/2
f 327/6/2 322/6/2 328/6/2
f 329/6/2 330/6/2 331/6/2
f 331/6/2 330/6/2 332/6/2
f 333/6/2 334/6/2 335/6/2
f 335/6/2 334/6/2 336/6/2
f 337/6/2 338/6/2 339/6/2
f 339/6/2 338/6/2 340/6/2
f 341/6/2 342/6/2 343/6/2
f 343/6/2 342/6/2 344/6/2
f 345/6/2 346/6/2 347/6/2
f 347/6/2 346/6/2 348/6/2
f 349/1/2 350/1/2 351/1/2
f 351/1/2 350/1/2 352/1/2
f 353/1/2 354/1/2 355/1/2
f 355/1/2 354/1/2 356/1/2
f 357/6/2 358/6/2 359/6/2
f 359/6/2 358/6/2 360/6/2
f 361/1/2 362/1/2 363/1/2
f 363/1/2 362/1/2 364/1/2
f 365/1/2 366/1/2 367/1/2
f 367/1/2 366/1/2 368/1/2
f 369/1/2 370/1/2 371/1/2
f 371/1/2 370/1/2 372/1/2
f 373/6/2 374/6/2 375/6/2
f 375/6/2 374/6/2 376/6/2
f 377/6/2 378/6/2 379/6/2
f 379/6/2 378/6/2 380/6/2
f 381/6/2 382/6/2 383/6/2
f 383/6/2 382/6/2 384/6/2
f 385/6/2 386/6/2 387/6/2
f 387/6/2 386/6/2 388/6/2
f 389/6/2 390/6/2 391/6/2
f 391/6/2 390/6/2 392/6/2
f 393/6/2 394/6/2 397/6/2
f 397/6/2 394/6/2 398/6/2
f 395/6/2 396/6/2 399/6/2
f 399/6/2 396/6/2 400/6/2
f 403/6/2 404/6/2 405/6/2
f 405/6/2 404/6/2 406/6/2
f 401/6/2 402/6/2 409/6/2
f 409/6/2 402/6/2 410/6/2
f 407/6/2 408/6/2 411/6/2
f 411/6/2 408/6/2 412/6/2
f 413/6/2 414/6/2 417/6/2
f 415/6/2 416/6/2 422/6/2
f 413/6/2 417/6/2 423/6/2
f 417/6/2 418/6/2 423/6/2
f 423/6/2 418/6/2 424/6/2
f 420/6/2 421/6/2 425/6/2
f 419/6/2 420/6/2 425/6/2
f 425/6/2 421/6/2 426/6/2
f 422/6/2 416/6/2 427/6/2
f 427/6/2 416/6/2 428/6/2
f 429/7/2 430/7/2 434/7/2
f 434/7/2 430/7/2 435/7/2
f 431/7/2 432/7/2 437/7/2
f 437/7/2 432/7/2 438/7/2
f 435/7/2 436/7/2 440/7/2
f 438/7/2 439/7/2 440/7/2
f 437/7/2 438/7/2 440/7/2
f 436/7/2 437/7/2 440/7/2
f 433/7/2 434/7/2 440/7/2
f 434/7/2 435/7/2 440/7/2
f 440/7/2 439/7/2 441/7/2
f 441/7/2 439/7/2 442/7/2
f 442/7/2 439/7/2 443/7/2
f 443/7/2 439/7/2 444/7/2
f 444/7/2 439/7/2 445/7/2
f 445/7/2 439/7/2 446/7/2
f 447/6/2 448/6/2 449/6/2
f 449/6/2 448/6/2 450/6/2
f 441/7/2 442/7/2 452/7/2
f 452/7/2 442/7/2 453/7/2
f 444/7/2 445/7/2 455/7/2
f 455/7/2 445/7/2 456/7/2
f 453/7/2 454/7/2 458/7/2
f 456/7/2 457/7/2 458/7/2
f 455/7/2 456/7/2 458/7/2
f 454/7/2 455/7/2 458/7/2
f 451/7/2 452/7/2 458/7/2
f 452/7/2 453/7/2 458/7/2
f 458/7/2 457/7/2 459/7/2
f 459/7/2 457/7/2 460/7/2
f 460/7/2 457/7/2 461/7/2
f 461/7/2 457/7/2 462/7/2
f 462/7/2 457/7/2 463/7/2
f 463/7/2 457/7/2 464/7/2
f 459/7/2 460/7/2 465/7/2
f 465/7/2 460/7/2 466/7/2
f 462/7/2 463/7/2 467/7/2
f 467/7/2 463/7/2 468/7/2
f 469/6/2 470/6/2 477/6/2
f 477/6/2 470/6/2 478/6/2
f 471/6/2 472/6/2 479/6/2
f 472/5/2 473/5/2 480/5/2
f 479/6/2 472/6/2 480/6/2
f 480/5/2 473/5/2 481/5/2
f 474/5/2 475/5/2 482/5/2
f 475/6/2 476/6/2 483/6/2
f 482/5/2 475/5/2 483/5/2
f 483/6/2 476/6/2 484/6/2
f 490/5/2 491/5/2 493/5/2
f 491/6/2 492/6/2 493/6/2
f 493/6/2 492/6/2 494/6/2
f 490/5/2 493/5/2 495/5/2
f 485/6/2 486/6/2 497/6/2
f 497/6/2 486/6/2 498/6/2
f 487/6/2 488/6/2 499/6/2
f 488/5/2 489/5/2 500/5/2
f 499/6/2 488/6/2 500/6/2
f 500/5/2 489/5/2 501/5/2
f 490/5/2 495/5/2 502/5/2
f 495/6/2 496/6/2 503/6/2
f 502/5/2 495/5/2 503/5/2
f 503/6/2 496/6/2 504/6/2
f 505/6/2 506/6/2 514/6/2
f 506/7/2 507/7/2 514/7/2
f 514/7/2 507/7/2 515/7/2
f 508/7/2 509/7/2 516/7/2
f 509/5/2 510/5/2 517/5/2
f 516/7/2 509/7/2 517/7/2
f 517/5/2 510/5/2 518/5/2
f 511/5/2 512/5/2 519/5/2
f 512/6/2 513/6/2 520/6/2
f 519/5/2 512/5/2 520/5/2
f 514/6/2 515/6/2 521/6/2
f 505/6/2 514/6/2 521/6/2
f 521/6/2 515/6/2 522/6/2
f 517/6/2 518/6/2 523/6/2
f 516/6/2 517/6/2 523/6/2
f 523/6/2 518/6/2 524/6/2
f 519/6/2 520/6/2 525/6/2
f 520/6/2 513/6/2 526/6/2
f 525/6/2 520/6/2 526/6/2
f 527/9/2 528/9/2 531/9/2
f 531/9/2 528/9/2 532/9/2
f 529/9/2 530/9/2 533/9/2
f 533/9/2 530/9/2 534/9/2
f 532/9/2 528/9/2 537/9/2
f 537/9/2 528/9/2 538/9/2
f 535/9/2 536/9/2 539/9/2
f 539/9/2 536/9/2 540/9/2
f 541/9/2 542/9/2 545/9/2
f 545/9/2 542/9/2 546/9/2
f 543/9/2 544/9/2 547/9/2
f 547/9/2 544/9/2 548/9/2
f 545/9/2 546/9/2 549/9/2
f 546/9/2 547/9/2 549/9/2
f 547/9/2 548/9/2 549/9/2
f 549/9/2 548/9/2 550/9/2
f 550/9/2 548/9/2 551/9/2
f 551/9/2 548/9/2 552/9/2
f 549/9/2 550/9/2 553/9/2
f 553/9/2 550/9/2 554/9/2
f 551/9/2 552/9/2 555/9/2
f 555/9/2 552/9/2 556/9/2
f 557/9/2 558/9/2 561/9/2
f 561/9/2 558/9/2 562/9/2
f 559/9/2 560/9/2 563/9/2
f 563/9/2 560/9/2 564/9/2
f 565/9/2 566/9/2 571/9/2
f 571/9/2 566/9/2 572/9/2
f 567/9/2 568/9/2 573/9/2
f 573/9/2 568/9/2 574/9/2
f 569/9/2 570/9/2 575/9/2
f 575/9/2 570/9/2 576/9/2
f 577/9/2 578/9/2 579/9/2
f 579/9/2 578/9/2 580/9/2
f 583/9/3 582/9/3 581/9/3
f 584/9/3 582/9/3 583/9/3
f 587/9/3 586/9/3 585/9/3
f 588/9/3 586/9/3 587/9/3
f 591/9/3 590/9/3 589/9/3
f 592/9/3 590/9/3 591/9/3
f 595/1/3 594/1/3 593/1/3
f 596/1/3 594/1/3 595/1/3
f 597/1/3 594/1/3 596/1/3
f 598/1/3 594/1/3 597/1/3
f 599/1/3 597/1/3 596/1/3
f 600/1/3 597/1/3 599/1/3
f 601/1/3 597/1/3 600/1/3
f 602/1/3 597/1/3 601/1/3
f 603/1/3 601/1/3 600/1/3
f 604/1/3 601/1/3 603/1/3
f 607/9/3 606/9/3 605/9/3
f 608/9/3 606/9/3 607/9/3
f 611/9/3 610/9/3 609/9/3
f 612/9/3 610/9/3 611/9/3
f 617/9/3 614/9/3 613/9/3
f 620/9/3 616/9/3 615/9/3
f 621/9/3 618/9/3 617/9/3
f 622/9/3 620/9/3 619/9/3
f 623/9/3 621/9/3 617/9/3
f 623/9/3 622/9/3 621/9/3
f 623/9/3 617/9/3 613/9/3
f 624/9/3 620/9/3 622/9/3
f 624/9/3 622/9/3 623/9/3
f 624/9/3 616/9/3 620/9/3
f 627/9/3 626/9/3 625/9/3
f 628/9/3 626/9/3 627/9/3
f 633/9/3 630/9/3 629/9/3
f 633/9/3 632/9/3 631/9/3
f 633/9/3 631/9/3 630/9/3
f 634/9/3 632/9/3 633/9/3
f 637/9/3 636/9/3 635/9/3
f 638/9/3 636/9/3 637/9/3
f 639/9/3 636/9/3 638/9/3
f 640/9/3 636/9/3 639/9/3
f 645/9/3 642/9/3 641/9/3
f 646/9/3 642/9/3 645/9/3
f 647/9/3 644/9/3 643/9/3
f 648/9/3 644/9/3 647/9/3
f 653/9/3 652/9/3 651/9/3
f 654/9/3 652/9/3 653/9/3
f 655/9/3 650/9/3 649/9/3
f 656/9/3 650/9/3 655/9/3
f 663/6/3 658/6/3 657/6/3
f 664/6/3 658/6/3 663/6/3
f 665/6/3 660/6/3 659/6/3
f 666/6/3 660/6/3 665/6/3
f 667/6/3 662/6/3 661/6/3
f 668/6/3 662/6/3 667/6/3
f 675/6/3 670/6/3 669/6/3
f 676/6/3 670/6/3 675/6/3
f 677/6/3 672/6/3 671/6/3
f 678/6/3 672/6/3 677/6/3
f 679/6/3 674/6/3 673/6/3
f 680/6/3 674/6/3 679/6/3
f 687/6/3 682/6/3 681/6/3
f 688/6/3 682/6/3 687/6/3
f 689/6/3 684/6/3 683/6/3
f 690/6/3 684/6/3 689/6/3
f 691/6/3 686/6/3 685/6/3
f 692/6/3 686/6/3 691/6/3
f 698/7/3 694/7/3 693/7/3
f 699/7/3 694/7/3 698/7/3
f 700/7/3 696/7/3 695/7/3
f 701/7/3 696/7/3 700/7/3
f 703/7/3 699/7/3 698/7/3
f 703/7/3 702/7/3 701/7/3
f 703/7/3 701/7/3 700/7/3
f 703/7/3 700/7/3 699/7/3
f 703/7/3 698/7/3 697/7/3
f 704/7/3 702/7/3 703/7/3
f 705/7/3 702/7/3 704/7/3
f 706/7/3 702/7/3 705/7/3
f 707/7/3 702/7/3 706/7/3
f 708/7/3 702/7/3 707/7/3
f 710/7/3 705/7/3 704/7/3
f 711/7/3 705/7/3 710/7/3
f 712/7/3 707/7/3 706/7/3
f 713/7/3 707/7/3 712/7/3
f 715/7/3 711/7/3 710/7/3
f 715/7/3 714/7/3 713/7/3
f 715/7/3 713/7/3 712/7/3
f 715/7/3 712/7/3 711/7/3
f 715/7/3 710/7/3 709/7/3
f 716/7/3 714/7/3 715/7/3
f 717/7/3 714/7/3 716/7/3
f 718/7/3 714/7/3 717/7/3
f 719/7/3 714/7/3 718/7/3
f 720/7/3 714/7/3 719/7/3
f 721/7/3 717/7/3 716/7/3
f 722/7/3 717/7/3 721/7/3
f 723/7/3 719/7/3 718/7/3
f 724/7/3 719/7/3 723/7/3
f 731/6/3 726/6/3 725/6/3
f 732/6/3 726/6/3 731/6/3
f 733/6/3 728/6/3 727/6/3
f 734/6/3 728/6/3 733/6/3
f 735/6/3 730/6/3 729/6/3
f 736/6/3 730/6/3 735/6/3
f 737/7/3 733/7/3 732/7/3
f 738/7/3 733/7/3 737/7/3
f 739/7/3 735/7/3 734/7/3
f 740/7/3 735/7/3 739/7/3
f 741/6/3 730/6/3 736/6/3
f 742/6/3 730/6/3 741/6/3
f 745/6/3 744/6/3 743/6/3
f 746/6/3 744/6/3 745/6/3
f 754/6/3 748/6/3 747/6/3
f 755/6/3 750/6/3 749/6/3
f 756/6/3 750/6/3 755/6/3
f 757/6/3 752/6/3 751/6/3
f 758/6/3 752/6/3 757/6/3
f 759/7/3 754/7/3 753/7/3
f 760/6/3 748/6/3 754/6/3
f 760/7/3 754/7/3 759/7/3
f 761/6/3 748/6/3 760/6/3
f 768/6/3 763/6/3 762/6/3
f 769/6/3 763/6/3 768/6/3
f 770/6/3 765/6/3 764/6/3
f 771/6/3 765/6/3 770/6/3
f 772/6/3 767/6/3 766/6/3
f 773/6/3 767/6/3 772/6/3
f 774/7/3 770/7/3 769/7/3
f 775/7/3 770/7/3 774/7/3
f 776/7/3 772/7/3 771/7/3
f 777/7/3 772/7/3 776/7/3
f 778/6/3 767/6/3 773/6/3
f 779/6/3 767/6/3 778/6/3
f 782/6/3 781/6/3 780/6/3
f 788/6/3 781/6/3 782/6/3
f 789/5/3 784/5/3 783/5/3
f 790/5/3 784/5/3 789/5/3
f 791/5/3 786/5/3 785/5/3
f 792/5/3 786/5/3 791/5/3
f 793/5/3 788/5/3 787/5/3
f 794/6/3 781/6/3 788/6/3
f 794/5/3 788/5/3 793/5/3
f 795/6/3 781/6/3 794/6/3
f 800/9/3 797/9/3 796/9/3
f 801/9/3 797/9/3 800/9/3
f 802/9/3 799/9/3 798/9/3
f 803/9/3 799/9/3 802/9/3
f 808/9/3 805/9/3 804/9/3
f 809/9/3 805/9/3 808/9/3
f 810/9/3 807/9/3 806/9/3
f 811/9/3 807/9/3 810/9/3
f 812/9/4 813/9/4 816/9/4
f 816/9/4 813/9/4 817/9/4
f 814/9/4 815/9/4 818/9/4
f 818/9/4 815/9/4 819/9/4
f 820/9/4 821/9/4 824/9/4
f 824/9/4 821/9/4 825/9/4
f 822/9/4 823/9/4 826/9/4
f 826/9/4 823/9/4 827/9/4
f 828/6/4 829/6/4 834/6/4
f 834/6/4 829/6/4 835/6/4
f 830/6/4 831/6/4 836/6/4
f 836/6/4 831/6/4 837/6/4
f 832/6/4 833/6/4 838/6/4
f 838/6/4 833/6/4 839/6/4
f 835/7/4 836/7/4 840/7/4
f 840/7/4 836/7/4 841/7/4
f 837/7/4 838/7/4 842/7/4
f 842/7/4 838/7/4 843/7/4
f 839/6/4 833/6/4 844/6/4
f 844/6/4 833/6/4 845/6/4
f 846/6/4 847/6/4 848/6/4
f 848/6/4 847/6/4 849/6/4
f 850/6/4 851/6/4 857/6/4
f 852/6/4 853/6/4 858/6/4
f 858/6/4 853/6/4 859/6/4
f 854/6/4 855/6/4 860/6/4
f 860/6/4 855/6/4 861/6/4
f 856/7/4 857/7/4 862/7/4
f 857/6/4 851/6/4 863/6/4
f 862/7/4 857/7/4 863/7/4
f 863/6/4 851/6/4 864/6/4
f 865/6/4 866/6/4 871/6/4
f 871/6/4 866/6/4 872/6/4
f 867/6/4 868/6/4 873/6/4
f 873/6/4 868/6/4 874/6/4
f 869/6/4 870/6/4 875/6/4
f 875/6/4 870/6/4 876/6/4
f 872/7/4 873/7/4 877/7/4
f 877/7/4 873/7/4 878/7/4
f 874/7/4 875/7/4 879/7/4
f 879/7/4 875/7/4 880/7/4
f 876/6/4 870/6/4 881/6/4
f 881/6/4 870/6/4 882/6/4
f 883/6/4 884/6/4 885/6/4
f 885/6/4 884/6/4 886/6/4
f 887/6/4 888/6/4 894/6/4
f 889/5/4 890/5/4 895/5/4
f 895/5/4 890/5/4 896/5/4
f 891/5/4 892/5/4 897/5/4
f 897/5/4 892/5/4 898/5/4
f 893/5/4 894/5/4 899/5/4
f 894/6/4 888/6/4 900/6/4
f 899/5/4 894/5/4 900/5/4
f 900/6/4 888/6/4 901/6/4
f 902/7/4 903/7/4 907/7/4
f 907/7/4 903/7/4 908/7/4
f 904/7/4 905/7/4 909/7/4
f 909/7/4 905/7/4 910/7/4
f 907/8/4 908/8/4 912/8/4
f 910/8/4 911/8/4 912/8/4
f 909/8/4 910/8/4 912/8/4
f 908/8/4 909/8/4 912/8/4
f 906/8/4 907/8/4 912/8/4
f 912/8/4 911/8/4 913/8/4
f 913/8/4 911/8/4 914/8/4
f 914/8/4 911/8/4 915/8/4
f 915/8/4 911/8/4 916/8/4
f 916/8/4 911/8/4 917/8/4
f 917/8/4 911/8/4 918/8/4
f 918/8/4 911/8/4 919/8/4
f 915/8/4 916/8/4 920/8/4
f 920/8/4 916/8/4 921/8/4
f 917/8/4 918/8/4 922/8/4
f 922/8/4 918/8/4 923/8/4
f 924/8/4 925/8/4 930/8/4
f 930/8/4 925/8/4 931/8/4
f 926/6/4 927/6/4 932/6/4
f 932/6/4 927/6/4 933/6/4
f 928/8/4 929/8/4 934/8/4
f 934/8/4 929/8/4 935/8/4
f 923/8/4 918/8/4 939/8/4
f 936/8/4 937/8/4 940/8/4
f 940/8/4 937/8/4 941/8/4
f 938/8/4 939/8/4 942/8/4
f 939/8/4 918/8/4 943/8/4
f 942/8/4 939/8/4 943/8/4
f 944/8/4 945/8/4 946/8/4
f 946/8/4 945/8/4 947/8/4
f 913/8/4 914/8/4 948/8/4
f 943/8/4 918/8/4 951/8/4
f 948/8/4 949/8/4 952/8/4
f 913/8/4 948/8/4 952/8/4
f 952/8/4 949/8/4 953/8/4
f 950/8/4 951/8/4 956/8/4
f 951/8/4 918/8/4 957/8/4
f 956/8/4 951/8/4 957/8/4
f 954/8/4 955/8/4 958/8/4
f 958/8/4 955/8/4 959/8/4
f 960/8/4 961/8/4 964/8/4
f 964/8/4 961/8/4 965/8/4
f 913/8/4 952/8/4 967/8/4
f 967/8/4 952/8/4 968/8/4
f 962/8/4 963/8/4 969/8/4
f 969/8/4 963/8/4 970/8/4
f 957/8/4 918/8/4 971/8/4
f 971/8/4 918/8/4 972/8/4
f 969/8/4 970/8/4 975/8/4
f 968/8/4 969/8/4 975/8/4
f 972/8/4 973/8/4 975/8/4
f 971/8/4 972/8/4 975/8/4
f 970/8/4 971/8/4 975/8/4
f 967/8/4 968/8/4 975/8/4
f 966/8/4 967/8/4 975/8/4
f 975/8/4 973/8/4 976/8/4
f 976/8/4 973/8/4 977/8/4
f 977/8/4 973/8/4 978/8/4
f 978/8/4 973/8/4 979/8/4
f 979/8/4 973/8/4 980/8/4
f 973/6/4 974/6/4 981/6/4
f 980/8/4 973/8/4 981/8/4
f 981/6/4 974/6/4 982/6/4
f 976/7/4 977/7/4 983/7/4
f 983/7/4 977/7/4 984/7/4
f 978/8/4 979/8/4 987/8/4
f 979/7/4 980/7/4 988/7/4
f 987/8/4 979/8/4 988/8/4
f 988/7/4 980/7/4 989/7/4
f 985/5/4 986/5/4 990/5/4
f 990/5/4 986/5/4 991/5/4
f 992/6/4 993/6/4 998/6/4
f 998/6/4 993/6/4 999/6/4
f 994/6/4 995/6/4 1000/6/4
f 1000/6/4 995/6/4 1001/6/4
f 996/6/4 997/6/4 1002/6/4
f 1002/6/4 997/6/4 1003/6/4
f 1006/6/4 1007/6/4 1012/6/4
f 1008/6/4 1009/6/4 1013/6/4
f 1013/6/4 1009/6/4 1014/6/4
f 1012/6/4 1013/6/4 1016/6/4
f 1014/6/4 1015/6/4 1016/6/4
f 1013/6/4 1014/6/4 1016/6/4
f 1016/6/4 1015/6/4 1017/6/4
f 1010/6/4 1011/6/4 1018/6/4
f 1018/6/4 1011/6/4 1019/6/4
f 1006/6/4 1012/6/4 1020/6/4
f 1012/6/4 1016/6/4 1020/6/4
f 1020/6/4 1016/6/4 1021/6/4
f 1021/6/4 1016/6/4 1022/6/4
f 1017/6/4 1015/6/4 1023/6/4
f 1010/6/4 1018/6/4 1024/6/4
f 1006/6/4 1020/6/4 1026/6/4
f 1021/6/4 1022/6/4 1027/6/4
f 1022/6/4 1023/6/4 1027/6/4
f 1027/6/4 1023/6/4 1028/6/4
f 1026/6/4 1027/6/4 1028/6/4
f 1028/6/4 1023/6/4 1029/6/4
f 1023/6/4 1015/6/4 1030/6/4
f 1029/6/4 1023/6/4 1030/6/4
f 1030/6/4 1015/6/4 1031/6/4
f 1026/6/4 1028/6/4 1032/6/4
f 1029/6/4 1030/6/4 1033/6/4
f 1033/6/4 1030/6/4 1034/6/4
f 1026/6/4 1032/6/4 1036/6/4
f 1034/6/4 1035/6/4 1036/6/4
f 1033/6/4 1034/6/4 1036/6/4
f 1032/6/4 1033/6/4 1036/6/4
f 1036/6/4 1035/6/4 1037/6/4
f 1026/6/4 1036/6/4 1038/6/4
f 1037/6/4 1035/6/4 1039/6/4
f 1006/6/4 1026/6/4 1040/6/4
f 1038/6/4 1039/6/4 1040/6/4
f 1026/6/4 1038/6/4 1040/6/4
f 1040/6/4 1039/6/4 1041/6/4
f 1039/6/4 1035/6/4 1042/6/4
f 1041/6/4 1039/6/4 1042/6/4
f 1042/6/4 1035/6/4 1043/6/4
f 1041/6/4 1042/6/4 1045/6/4
f 1045/6/4 1042/6/4 1046/6/4
f 1046/6/4 1042/6/4 1047/6/4
f 1047/6/4 1042/6/4 1048/6/4
f 1044/6/4 1045/6/4 1050/6/4
f 1045/6/4 1046/6/4 1050/6/4
f 1048/6/4 1049/6/4 1051/6/4
f 1047/6/4 1048/6/4 1051/6/4
f 1051/6/4 1049/6/4 1052/6/4
f 1052/6/4 1049/6/4 1053/6/4
f 1050/6/4 1051/6/4 1054/6/4
f 1051/6/4 1052/6/4 1054/6/4
f 1054/6/4 1052/6/4 1055/6/4
f 1055/6/4 1052/6/4 1056/6/4
f 1053/6/4 1049/6/4 1057/6/4
f 1004/6/4 1005/6/4 1058/6/4
f 1058/6/4 1005/6/4 1059/6/4
f 1044/6/4 1050/6/4 1060/6/4
f 1050/6/4 1054/6/4 1060/6/4
f 1060/6/4 1054/6/4 1061/6/4
f 1056/6/4 1057/6/4 1062/6/4
f 1055/6/4 1056/6/4 1062/6/4
f 1057/6/4 1049/6/4 1063/6/4
f 1062/6/4 1057/6/4 1063/6/4
f 1024/6/4 1025/6/4 1064/6/4
f 1010/6/4 1024/6/4 1064/6/4
f 1064/6/4 1025/6/4 1065/6/4
f 1068/6/4 1069/6/4 1072/6/4
f 1072/6/4 1069/6/4 1073/6/4
f 1073/6/4 1069/6/4 1074/6/4
f 1066/6/4 1067/6/4 1076/6/4
f 1076/6/4 1067/6/4 1077/6/4
f 1068/6/4 1072/6/4 1078/6/4
f 1078/6/4 1072/6/4 1079/6/4
f 1074/6/4 1075/6/4 1080/6/4
f 1073/6/4 1074/6/4 1080/6/4
f 1080/6/4 1075/6/4 1081/6/4
f 1070/6/4 1071/6/4 1082/6/4
f 1082/6/4 1071/6/4 1083/6/4
f 1084/9/4 1085/9/4 1088/9/4
f 1088/9/4 1085/9/4 1089/9/4
f 1086/9/4 1087/9/4 1090/9/4
f 1090/9/4 1087/9/4 1091/9/4
f 1094/9/4 1095/9/4 1096/9/4
f 1096/9/4 1095/9/4 1097/9/4
f 1092/9/4 1093/9/4 1098/9/4
f 1098/9/4 1093/9/4 1099/9/4
f 1100/9/4 1101/9/4 1104/9/4
f 1102/9/4 1103/9/4 1104/9/4
f 1101/9/4 1102/9/4 1104/9/4
f 1104/9/4 1103/9/4 1105/9/4
f 1105/9/4 1103/9/4 1106/9/4
f 1106/9/4 1103/9/4 1107/9/4
f 1105/9/4 1106/9/4 1109/9/4
f 1109/9/4 1106/9/4 1110/9/4
f 1108/9/4 1109/9/4 1112/9/4
f 1110/9/4 1111/9/4 1112/9/4
f 1109/9/4 1110/9/4 1112/9/4
f 1112/9/4 1111/9/4 1113/9/4
f 1113/9/4 1111/9/4 1114/9/4
f 1114/9/4 1111/9/4 1115/9/4
f 1116/9/4 1117/9/4 1120/9/4
f 1120/9/4 1117/9/4 1121/9/4
f 1118/9/4 1119/9/4 1122/9/4
f 1122/9/4 1119/9/4 1123/9/4
f 1124/9/4 1125/9/4 1126/9/4
f 1126/9/4 1125/9/4 1127/9/4
f 1128/9/4 1129/9/4 1132/9/4
f 1132/9/4 1129/9/4 1133/9/4
f 1130/9/4 1131/9/4 1134/9/4
f 1134/9/4 1131/9/4 1135/9/4
f 1136/9/4 1137/9/4 1138/9/4
f 1138/9/4 1137/9/4 1139/9/4
f 1146/9/5 1141/9/5 1140/9/5
f 1147/9/5 1141/9/5 1146/9/5
f 1148/9/5 1143/9/5 1142/9/5
f 1149/9/5 1143/9/5 1148/9/5
f 1150/9/5 1145/9/5 1144/9/5
f 1151/9/5 1145/9/5 1150/9/5
f 1153/9/5 1149/9/5 1148/9/5
f 1153/9/5 1150/9/5 1149/9/5
f 1153/9/5 1148/9/5 1147/9/5
f 1154/9/5 1150/9/5 1153/9/5
f 1156/9/5 1154/9/5 1153/9/5
f 1156/9/5 1155/9/5 1154/9/5
f 1156/9/5 1153/9/5 1152/9/5
f 1157/9/5 1155/9/5 1156/9/5
f 1158/9/5 1155/9/5 1157/9/5
f 1159/9/5 1155/9/5 1158/9/5
f 1161/9/5 1158/9/5 1157/9/5
f 1162/9/5 1158/9/5 1161/9/5
f 1163/9/5 1158/9/5 1162/9/5
f 1164/9/5 1158/9/5 1163/9/5
f 1166/9/5 1161/9/5 1160/9/5
f 1167/9/5 1161/9/5 1166/9/5
f 1168/9/5 1165/9/5 1164/9/5
f 1169/9/5 1165/9/5 1168/9/5
f 1170/9/5 1163/9/5 1162/9/5
f 1171/9/5 1163/9/5 1170/9/5
f 1176/1/5 1173/1/5 1172/1/5
f 1177/1/5 1173/1/5 1176/1/5
f 1180/9/5 1175/9/5 1174/9/5
f 1181/9/5 1175/9/5 1180/9/5
f 1182/9/5 1179/9/5 1178/9/5
f 1183/9/5 1179/9/5 1182/9/5
f 1188/9/5 1185/9/5 1184/9/5
f 1189/9/5 1185/9/5 1188/9/5
f 1190/9/5 1187/9/5 1186/9/5
f 1191/9/5 1187/9/5 1190/9/5
f 1198/9/5 1193/9/5 1192/9/5
f 1199/9/5 1193/9/5 1198/9/5
f 1200/9/5 1195/9/5 1194/9/5
f 1201/9/5 1195/9/5 1200/9/5
f 1202/9/5 1197/9/5 1196/9/5
f 1203/9/5 1197/9/5 1202/9/5
f 1206/1/5 1205/1/5 1204/1/5
f 1207/1/5 1205/1/5 1206/1/5
f 1214/6/5 1209/6/5 1208/6/5
f 1215/6/5 1209/6/5 1214/6/5
f 1216/6/5 1211/6/5 1210/6/5
f 1217/6/5 1211/6/5 1216/6/5
f 1218/6/5 1213/6/5 1212/6/5
f 1219/6/5 1213/6/5 1218/6/5
f 1220/6/5 1214/6/5 1208/6/5
f 1221/6/5 1214/6/5 1220/6/5
f 1223/6/5 1213/6/5 1219/6/5
f 1224/6/5 1213/6/5 1223/6/5
f 1226/7/5 1222/7/5 1221/7/5
f 1227/7/5 1222/7/5 1226/7/5
f 1230/6/5 1229/6/5 1228/6/5
f 1231/6/5 1229/6/5 1230/6/5
f 1232/6/5 1226/6/5 1225/6/5
f 1233/6/5 1226/6/5 1232/6/5
f 1235/5/5 1231/5/5 1230/5/5
f 1236/5/5 1231/5/5 1235/5/5
f 1238/7/5 1234/7/5 1233/7/5
f 1239/7/5 1234/7/5 1238/7/5
f 1242/6/5 1238/6/5 1237/6/5
f 1249/5/5 1241/5/5 1240/5/5
f 1250/5/5 1241/5/5 1249/5/5
f 1251/6/5 1242/6/5 1237/6/5
f 1251/6/5 1243/6/5 1242/6/5
f 1252/6/5 1243/6/5 1251/6/5
f 1253/6/5 1245/6/5 1244/6/5
f 1254/6/5 1245/6/5 1253/6/5
f 1255/6/5 1247/6/5 1246/6/5
f 1256/6/5 1247/6/5 1255/6/5
f 1257/6/5 1250/6/5 1249/6/5
f 1257/6/5 1249/6/5 1248/6/5
f 1258/6/5 1250/6/5 1257/6/5
f 1261/6/5 1260/6/5 1259/6/5
f 1262/6/5 1260/6/5 1261/6/5
f 1265/6/5 1264/6/5 1263/6/5
f 1266/6/5 1264/6/5 1265/6/5
f 1269/6/5 1268/6/5 1267/6/5
f 1270/6/5 1268/6/5 1269/6/5
f 1273/6/5 1272/6/5 1271/6/5
f 1274/6/5 1272/6/5 1273/6/5
f 1277/6/5 1276/6/5 1275/6/5
f 1278/6/5 1276/6/5 1277/6/5
f 1281/6/5 1280/6/5 1279/6/5
f 1282/6/5 1280/6/5 1281/6/5
f 1285/6/5 1284/6/5 1283/6/5
f 1286/6/5 1284/6/5 1285/6/5
f 1289/6/5 1288/6/5 1287/6/5
f 1290/6/5 1288/6/5 1289/6/5
f 1293/6/5 1292/6/5 1291/6/5
f 1294/6/5 1292/6/5 1293/6/5
f 1297/6/5 1296/6/5 1295/6/5
f 1298/6/5 1296/6/5 1297/6/5
f 1305/6/5 1300/6/5 1299/6/5
f 1306/6/5 1300/6/5 1305/6/5
f 1307/6/5 1302/6/5 1301/6/5
f 1308/6/5 1302/6/5 1307/6/5
f 1309/6/5 1304/6/5 1303/6/5
f 1310/6/5 1304/6/5 1309/6/5
f 1311/6/5 1304/6/5 1310/6/5
f 1312/6/5 1305/6/5 1299/6/5
f 1313/6/5 1305/6/5 1312/6/5
f 1315/7/5 1311/7/5 1310/7/5
f 1316/7/5 1311/7/5 1315/7/5
f 1318/7/5 1314/7/5 1313/7/5
f 1319/7/5 1314/7/5 1318/7/5
f 1322/7/5 1321/7/5 1320/7/5
f 1323/7/5 1321/7/5 1322/7/5
f 1324/6/5 1318/6/5 1317/6/5
f 1325/6/5 1318/6/5 1324/6/5
f 1327/5/5 1323/5/5 1322/5/5
f 1328/5/5 1323/5/5 1327/5/5
f 1330/7/5 1326/7/5 1325/7/5
f 1331/7/5 1326/7/5 1330/7/5
f 1334/6/5 1330/6/5 1329/6/5
f 1339/5/5 1333/5/5 1332/5/5
f 1340/5/5 1333/5/5 1339/5/5
f 1341/6/5 1334/6/5 1329/6/5
f 1341/6/5 1335/6/5 1334/6/5
f 1342/6/5 1335/6/5 1341/6/5
f 1343/6/5 1337/6/5 1336/6/5
f 1344/6/5 1337/6/5 1343/6/5
f 1345/6/5 1340/6/5 1339/6/5
f 1345/6/5 1339/6/5 1338/6/5
f 1346/6/5 1340/6/5 1345/6/5
f 1349/9/6 1350/9/6 1353/9/6
f 1353/9/6 1350/9/6 1354/9/6
f 1349/9/6 1353/9/6 1355/9/6
f 1355/9/6 1353/9/6 1356/9/6
f 1354/9/6 1350/9/6 1357/9/6
f 1357/9/6 1350/9/6 1358/9/6
f 1347/9/6 1348/9/6 1359/9/6
f 1359/9/6 1348/9/6 1360/9/6
f 1351/9/6 1352/9/6 1361/9/6
f 1361/9/6 1352/9/6 1362/9/6
f 1363/9/6 1364/9/6 1367/9/6
f 1367/9/6 1364/9/6 1368/9/6
f 1365/9/6 1366/9/6 1369/9/6
f 1369/9/6 1366/9/6 1370/9/6
f 1371/9/6 1372/9/6 1377/9/6
f 1377/9/6 1372/9/6 1378/9/6
f 1375/9/6 1376/9/6 1379/9/6
f 1379/9/6 1376/9/6 1380/9/6
f 1373/9/6 1374/9/6 1381/9/6
f 1381/9/6 1374/9/6 1382/9/6
f 1383/1/6 1384/1/6 1385/1/6
f 1385/1/6 1384/1/6 1386/1/6
f 1387/1/6 1388/1/6 1389/1/6
f 1389/1/6 1388/1/6 1390/1/6
f 1391/1/6 1392/1/6 1396/1/6
f 1396/1/6 1392/1/6 1397/1/6
f 1393/9/6 1394/9/6 1401/9/6
f 1401/9/6 1394/9/6 1402/9/6
f 1395/9/6 1396/9/6 1403/9/6
f 1396/9/6 1397/9/6 1403/9/6
f 1397/9/6 1398/9/6 1403/9/6
f 1403/9/6 1398/9/6 1404/9/6
f 1399/9/6 1400/9/6 1405/9/6
f 1405/9/6 1400/9/6 1406/9/6
f 1403/9/6 1404/9/6 1408/9/6
f 1404/9/6 1405/9/6 1408/9/6
f 1402/9/6 1403/9/6 1408/9/6
f 1408/9/6 1405/9/6 1409/9/6
f 1407/9/6 1408/9/6 1411/9/6
f 1409/9/6 1410/9/6 1411/9/6
f 1408/9/6 1409/9/6 1411/9/6
f 1411/9/6 1410/9/6 1412/9/6
f 1412/9/6 1410/9/6 1413/9/6
f 1413/9/6 1410/9/6 1414/9/6
f 1414/9/6 1410/9/6 1415/9/6
f 1415/9/6 1410/9/6 1416/9/6
f 1412/9/6 1413/9/6 1417/9/6
f 1417/9/6 1413/9/6 1418/9/6
f 1414/9/6 1415/9/6 1419/9/6
f 1419/9/6 1415/9/6 1420/9/6
f 1407/9/6 1411/9/6 1421/9/6
f 1416/9/6 1410/9/6 1424/9/6
f 1421/9/6 1422/9/6 1425/9/6
f 1407/9/6 1421/9/6 1425/9/6
f 1425/9/6 1422/9/6 1426/9/6
f 1423/9/6 1424/9/6 1427/9/6
f 1424/9/6 1410/9/6 1428/9/6
f 1427/9/6 1424/9/6 1428/9/6
f 1428/9/6 1410/9/6 1429/9/6
f 1407/9/6 1425/9/6 1430/9/6
f 1429/9/6 1410/9/6 1433/9/6
f 1430/9/6 1431/9/6 1434/9/6
f 1407/9/6 1430/9/6 1434/9/6
f 1434/9/6 1431/9/6 1435/9/6
f 1432/9/6 1433/9/6 1436/9/6
f 1433/9/6 1410/9/6 1437/9/6
f 1436/9/6 1433/9/6 1437/9/6
f 1437/9/6 1410/9/6 1442/9/6
f 1407/9/6 1434/9/6 1443/9/6
f 1438/9/6 1439/9/6 1444/9/6
f 1444/9/6 1439/9/6 1445/9/6
f 1440/9/6 1441/9/6 1446/9/6
f 1446/9/6 1441/9/6 1447/9/6
f 1442/9/6 1410/9/6 1448/9/6
f 1444/9/6 1445/9/6 1449/9/6
f 1447/9/6 1448/9/6 1449/9/6
f 1446/9/6 1447/9/6 1449/9/6
f 1407/9/6 1443/9/6 1449/9/6
f 1445/9/6 1446/9/6 1449/9/6
f 1443/9/6 1444/9/6 1449/9/6
f 1449/9/6 1448/9/6 1450/9/6
f 1448/9/6 1410/9/6 1451/9/6
f 1450/9/6 1448/9/6 1451/9/6
f 1451/9/6 1410/9/6 1452/9/6
f 1450/9/6 1451/9/6 1454/9/6
f 1454/9/6 1451/9/6 1455/9/6
f 1455/9/6 1451/9/6 1456/9/6
f 1456/9/6 1451/9/6 1457/9/6
f 1453/9/6 1454/9/6 1459/9/6
f 1459/9/6 1454/9/6 1460/9/6
f 1455/9/6 1456/9/6 1461/9/6
f 1461/9/6 1456/9/6 1462/9/6
f 1457/9/6 1458/9/6 1463/9/6
f 1463/9/6 1458/9/6 1464/9/6
f 1465/6/6 1466/6/6 1471/6/6
f 1471/6/6 1466/6/6 1472/6/6
f 1467/6/6 1468/6/6 1473/6/6
f 1473/6/6 1468/6/6 1474/6/6
f 1469/6/6 1470/6/6 1475/6/6
f 1475/6/6 1470/6/6 1476/6/6
f 1465/6/6 1471/6/6 1477/6/6
f 1477/6/6 1471/6/6 1478/6/6
f 1476/6/6 1470/6/6 1480/6/6
f 1480/6/6 1470/6/6 1481/6/6
f 1478/7/6 1479/7/6 1483/7/6
f 1483/7/6 1479/7/6 1484/7/6
f 1485/6/6 1486/6/6 1487/6/6
f 1487/6/6 1486/6/6 1488/6/6
f 1482/6/6 1483/6/6 1489/6/6
f 1489/6/6 1483/6/6 1490/6/6
f 1487/5/6 1488/5/6 1492/5/6
f 1492/5/6 1488/5/6 1493/5/6
f 1490/7/6 1491/7/6 1495/7/6
f 1495/7/6 1491/7/6 1496/7/6
f 1494/6/6 1495/6/6 1499/6/6
f 1497/5/6 1498/5/6 1504/5/6
f 1504/5/6 1498/5/6 1505/5/6
f 1494/6/6 1499/6/6 1506/6/6
f 1499/6/6 1500/6/6 1506/6/6
f 1506/6/6 1500/6/6 1507/6/6
f 1501/6/6 1502/6/6 1508/6/6
f 1508/6/6 1502/6/6 1509/6/6
f 1504/6/6 1505/6/6 1510/6/6
f 1503/6/6 1504/6/6 1510/6/6
f 1510/6/6 1505/6/6 1511/6/6
f 1512/6/6 1513/6/6 1514/6/6
f 1514/6/6 1513/6/6 1515/6/6
f 1516/6/6 1517/6/6 1518/6/6
f 1518/6/6 1517/6/6 1519/6/6
f 1520/6/6 1521/6/6 1522/6/6
f 1522/6/6 1521/6/6 1523/6/6
f 1524/6/6 1525/6/6 1526/6/6
f 1526/6/6 1525/6/6 1527/6/6
f 1528/6/6 1529/6/6 1530/6/6
f 1530/6/6 1529/6/6 1531/6/6
f 1532/6/6 1533/6/6 1534/6/6
f 1534/6/6 1533/6/6 1535/6/6
f 1536/6/6 1537/6/6 1538/6/6
f 1538/6/6 1537/6/6 1539/6/6
f 1540/6/6 1541/6/6 1542/6/6
f 1542/6/6 1541/6/6 1543/6/6
f 1544/6/6 1545/6/6 1546/6/6
f 1546/6/6 1545/6/6 1547/6/6
f 1548/6/6 1549/6/6 1556/6/6
f 1556/6/6 1549/6/6 1557/6/6
f 1550/6/6 1551/6/6 1558/6/6
f 1558/6/6 1551/6/6 1559/6/6
f 1552/6/6 1553/6/6 1560/6/6
f 1560/6/6 1553/6/6 1561/6/6
f 1554/6/6 1555/6/6 1562/6/6
f 1562/6/6 1555/6/6 1563/6/6
f 1564/6/6 1565/6/6 1570/6/6
f 1570/6/6 1565/6/6 1571/6/6
f 1566/6/6 1567/6/6 1572/6/6
f 1572/6/6 1567/6/6 1573/6/6
f 1568/6/6 1569/6/6 1574/6/6
f 1574/6/6 1569/6/6 1575/6/6
f 1564/6/6 1570/6/6 1576/6/6
f 1576/6/6 1570/6/6 1577/6/6
f 1575/6/6 1569/6/6 1579/6/6
f 1579/6/6 1569/6/6 1580/6/6
f 1577/7/6 1578/7/6 1582/7/6
f 1582/7/6 1578/7/6 1583/7/6
f 1584/6/6 1585/6/6 1586/6/6
f 1586/6/6 1585/6/6 1587/6/6
f 1581/6/6 1582/6/6 1588/6/6
f 1588/6/6 1582/6/6 1589/6/6
f 1586/5/6 1587/5/6 1591/5/6
f 1591/5/6 1587/5/6 1592/5/6
f 1589/7/6 1590/7/6 1594/7/6
f 1594/7/6 1590/7/6 1595/7/6
f 1593/6/6 1594/6/6 1598/6/6
f 1596/5/6 1597/5/6 1606/5/6
f 1606/5/6 1597/5/6 1607/5/6
f 1593/6/6 1598/6/6 1608/6/6
f 1598/6/6 1599/6/6 1608/6/6
f 1608/6/6 1599/6/6 1609/6/6
f 1600/6/6 1601/6/6 1610/6/6
f 1610/6/6 1601/6/6 1611/6/6
f 1602/6/6 1603/6/6 1612/6/6
f 1612/6/6 1603/6/6 1613/6/6
f 1604/6/6 1605/6/6 1614/6/6
f 1614/6/6 1605/6/6 1615/6/6
f 1606/6/6 1607/6/6 1616/6/6
f 1616/6/6 1607/6/6 1617/6/6
f 1618/7/6 1619/7/6 1623/7/6
f 1623/7/6 1619/7/6 1624/7/6
f 1620/7/6 1621/7/6 1625/7/6
f 1625/7/6 1621/7/6 1626/7/6
f 1623/7/6 1624/7/6 1628/7/6
f 1626/7/6 1627/7/6 1628/7/6
f 1625/7/6 1626/7/6 1628/7/6
f 1624/7/6 1625/7/6 1628/7/6
f 1622/7/6 1623/7/6 1628/7/6
f 1628/7/6 1627/7/6 1629/7/6
f 1629/7/6 1627/7/6 1630/7/6
f 1630/7/6 1627/7/6 1631/7/6
f 1631/7/6 1627/7/6 1632/7/6
f 1632/7/6 1627/7/6 1633/7/6
f 1629/7/6 1630/7/6 1634/7/6
f 1634/7/6 1630/7/6 1635/7/6
f 1631/7/6 1632/7/6 1636/7/6
f 1636/7/6 1632/7/6 1637/7/6
f 1634/6/6 1635/6/6 1639/6/6
f 1639/6/6 1635/6/6 1640/6/6
f 1636/6/6 1637/6/6 1641/6/6
f 1641/6/6 1637/6/6 1642/6/6
f 1638/7/6 1639/7/6 1644/7/6
f 1641/6/6 1642/6/6 1645/6/6
f 1644/7/6 1639/7/6 1645/7/6
f 1639/6/6 1640/6/6 1645/6/6
f 1640/6/6 1641/6/6 1645/6/6
f 1645/6/6 1642/6/6 1646/6/6
f 1642/7/6 1643/7/6 1647/7/6
f 1646/6/6 1642/6/6 1647/6/6
f 1647/7/6 1643/7/6 1648/7/6
f 1645/8/6 1646/8/6 1649/8/6
f 1649/8/6 1646/8/6 1650/8/6
f 1651/6/6 1652/6/6 1653/6/6
f 1653/6/6 1652/6/6 1654/6/6
f 1655/6/6 1656/6/6 1661/6/6
f 1661/6/6 1656/6/6 1662/6/6
f 1657/6/6 1658/6/6 1663/6/6
f 1663/6/6 1658/6/6 1664/6/6
f 1659/6/6 1660/6/6 1665/6/6
f 1665/6/6 1660/6/6 1666/6/6
f 1667/6/6 1668/6/6 1673/6/6
f 1673/6/6 1668/6/6 1674/6/6
f 1669/6/6 1670/6/6 1675/6/6
f 1675/6/6 1670/6/6 1676/6/6
f 1671/6/6 1672/6/6 1677/6/6
f 1677/6/6 1672/6/6 1678/6/6
f 1681/6/6 1682/6/6 1683/6/6
f 1683/6/6 1682/6/6 1684/6/6
f 1684/6/6 1682/6/6 1685/6/6
f 1685/6/6 1682/6/6 1686/6/6
f 1679/6/6 1680/6/6 1687/6/6
f 1687/6/6 1680/6/6 1688/6/6
f 1681/6/6 1683/6/6 1689/6/6
f 1689/6/6 1683/6/6 1690/6/6
f 1684/6/6 1685/6/6 1691/6/6
f 1691/6/6 1685/6/6 1692/6/6
f 1686/6/6 1682/6/6 1693/6/6
f 1693/6/6 1682/6/6 1694/6/6
