# MagicaVoxel @ Ephtracy

# group
o 

# material
mtllib Recorder_Stone.mtl
usemtl palette

# normals
vn -1 0 0
vn 1 0 0
vn 0 0 1
vn 0 0 -1
vn 0 -1 0
vn 0 1 0

# texcoords
vt 0.841797 0.5
vt 0.865234 0.5
vt 0.869141 0.5
vt 0.873047 0.5

# verts
v -0.5 0.1 0.6
v -0.5 0.1 -0.6
v -0.5 0.2 0.9
v -0.5 0.2 0.6
v -0.5 0.2 -0.6
v -0.5 0.2 -0.9
v -0.5 0.3 1
v -0.5 0.3 0.9
v -0.5 0.3 -0.9
v -0.5 0.3 -1
v -0.5 0.4 1.2
v -0.5 0.4 1
v -0.5 0.4 -1
v -0.5 0.4 -1.2
v -0.5 0.5 1.3
v -0.5 0.5 1.2
v -0.5 0.5 -1.2
v -0.5 0.5 -1.3
v -0.5 0.6 1.4
v -0.5 0.6 1.3
v -0.5 0.6 -1.3
v -0.5 0.6 -1.4
v -0.5 0.7 1.5
v -0.5 0.7 1.4
v -0.5 0.7 -1.4
v -0.5 0.7 -1.5
v -0.5 0.8 1.6
v -0.5 0.8 1.5
v -0.5 0.8 -1.5
v -0.5 0.8 -1.6
v -0.5 1 1.7
v -0.5 1 1.6
v -0.5 1 -1.6
v -0.5 1 -1.7
v -0.5 1.1 1.8
v -0.5 1.1 1.7
v -0.5 1.1 -1.7
v -0.5 1.1 -1.8
v -0.5 1.4 1.9
v -0.5 1.4 1.8
v -0.5 1.4 -1.8
v -0.5 1.4 -1.9
v -0.5 2.6 1.9
v -0.5 2.6 1.8
v -0.5 2.6 -1.8
v -0.5 2.6 -1.9
v -0.5 2.9 1.8
v -0.5 2.9 1.7
v -0.5 2.9 -1.7
v -0.5 2.9 -1.8
v -0.5 3 1.7
v -0.5 3 1.6
v -0.5 3 -1.6
v -0.5 3 -1.7
v -0.5 3.2 1.6
v -0.5 3.2 1.5
v -0.5 3.2 -1.5
v -0.5 3.2 -1.6
v -0.5 3.3 1.5
v -0.5 3.3 1.4
v -0.5 3.3 -1.4
v -0.5 3.3 -1.5
v -0.5 3.4 1.4
v -0.5 3.4 1.3
v -0.5 3.4 -1.3
v -0.5 3.4 -1.4
v -0.5 3.5 1.3
v -0.5 3.5 1.2
v -0.5 3.5 -1.2
v -0.5 3.5 -1.3
v -0.5 3.6 1.2
v -0.5 3.6 1
v -0.5 3.6 -1
v -0.5 3.6 -1.2
v -0.5 3.7 1
v -0.5 3.7 0.9
v -0.5 3.7 -0.9
v -0.5 3.7 -1
v -0.5 3.8 0.9
v -0.5 3.8 0.6
v -0.5 3.8 -0.6
v -0.5 3.8 -0.9
v -0.5 3.9 0.6
v -0.5 3.9 -0.6
v -0.1 0.1 0.6
v -0.1 0.1 -0.6
v -0.1 0.2 0.9
v -0.1 0.2 0.6
v -0.1 0.2 -0.6
v -0.1 0.2 -0.9
v -0.1 0.3 1
v -0.1 0.3 0.9
v -0.1 0.3 -0.9
v -0.1 0.3 -1
v -0.1 0.4 1.2
v -0.1 0.4 1
v -0.1 0.4 0.5
v -0.1 0.4 -0.5
v -0.1 0.4 -1
v -0.1 0.4 -1.2
v -0.1 0.5 1.3
v -0.1 0.5 1.2
v -0.1 0.5 0.8
v -0.1 0.5 0.5
v -0.1 0.5 -0.5
v -0.1 0.5 -0.8
v -0.1 0.5 -1.2
v -0.1 0.5 -1.3
v -0.1 0.6 1.4
v -0.1 0.6 1.3
v -0.1 0.6 0.9
v -0.1 0.6 0.8
v -0.1 0.6 -0.8
v -0.1 0.6 -0.9
v -0.1 0.6 -1.3
v -0.1 0.6 -1.4
v -0.1 0.7 1.5
v -0.1 0.7 1.4
v -0.1 0.7 1.1
v -0.1 0.7 0.9
v -0.1 0.7 -0.9
v -0.1 0.7 -1.1
v -0.1 0.7 -1.4
v -0.1 0.7 -1.5
v -0.1 0.8 1.6
v -0.1 0.8 1.5
v -0.1 0.8 1.2
v -0.1 0.8 1.1
v -0.1 0.8 -1.1
v -0.1 0.8 -1.2
v -0.1 0.8 -1.5
v -0.1 0.8 -1.6
v -0.1 0.9 1.3
v -0.1 0.9 1.2
v -0.1 0.9 -1.2
v -0.1 0.9 -1.3
v -0.1 1 1.7
v -0.1 1 1.6
v -0.1 1 -1.6
v -0.1 1 -1.7
v -0.1 1.1 1.8
v -0.1 1.1 1.7
v -0.1 1.1 1.4
v -0.1 1.1 1.3
v -0.1 1.1 -1.3
v -0.1 1.1 -1.4
v -0.1 1.1 -1.7
v -0.1 1.1 -1.8
v -0.1 1.2 1.5
v -0.1 1.2 1.4
v -0.1 1.2 -1.4
v -0.1 1.2 -1.5
v -0.1 1.4 1.9
v -0.1 1.4 1.8
v -0.1 1.4 -1.8
v -0.1 1.4 -1.9
v -0.1 1.5 1.6
v -0.1 1.5 1.5
v -0.1 1.5 -1.5
v -0.1 1.5 -1.6
v -0.1 2.5 1.6
v -0.1 2.5 1.5
v -0.1 2.5 -1.5
v -0.1 2.5 -1.6
v -0.1 2.6 1.9
v -0.1 2.6 1.8
v -0.1 2.6 -1.8
v -0.1 2.6 -1.9
v -0.1 2.8 1.5
v -0.1 2.8 1.4
v -0.1 2.8 -1.4
v -0.1 2.8 -1.5
v -0.1 2.9 1.8
v -0.1 2.9 1.7
v -0.1 2.9 1.4
v -0.1 2.9 1.3
v -0.1 2.9 -1.3
v -0.1 2.9 -1.4
v -0.1 2.9 -1.7
v -0.1 2.9 -1.8
v -0.1 3 1.7
v -0.1 3 1.6
v -0.1 3 -1.6
v -0.1 3 -1.7
v -0.1 3.1 1.3
v -0.1 3.1 1.2
v -0.1 3.1 -1.2
v -0.1 3.1 -1.3
v -0.1 3.2 1.6
v -0.1 3.2 1.5
v -0.1 3.2 1.2
v -0.1 3.2 1.1
v -0.1 3.2 -1.1
v -0.1 3.2 -1.2
v -0.1 3.2 -1.5
v -0.1 3.2 -1.6
v -0.1 3.3 1.5
v -0.1 3.3 1.4
v -0.1 3.3 1.1
v -0.1 3.3 0.9
v -0.1 3.3 -0.9
v -0.1 3.3 -1.1
v -0.1 3.3 -1.4
v -0.1 3.3 -1.5
v -0.1 3.4 1.4
v -0.1 3.4 1.3
v -0.1 3.4 0.9
v -0.1 3.4 0.8
v -0.1 3.4 -0.8
v -0.1 3.4 -0.9
v -0.1 3.4 -1.3
v -0.1 3.4 -1.4
v -0.1 3.5 1.3
v -0.1 3.5 1.2
v -0.1 3.5 0.8
v -0.1 3.5 0.5
v -0.1 3.5 -0.5
v -0.1 3.5 -0.8
v -0.1 3.5 -1.2
v -0.1 3.5 -1.3
v -0.1 3.6 1.2
v -0.1 3.6 1
v -0.1 3.6 0.5
v -0.1 3.6 -0.5
v -0.1 3.6 -1
v -0.1 3.6 -1.2
v -0.1 3.7 1
v -0.1 3.7 0.9
v -0.1 3.7 -0.9
v -0.1 3.7 -1
v -0.1 3.8 0.9
v -0.1 3.8 0.6
v -0.1 3.8 -0.6
v -0.1 3.8 -0.9
v -0.1 3.9 0.6
v -0.1 3.9 -0.6
v 0.3 0.4 0.5
v 0.3 0.4 -0.5
v 0.3 0.5 0.8
v 0.3 0.5 0.5
v 0.3 0.5 -0.5
v 0.3 0.5 -0.8
v 0.3 0.6 0.9
v 0.3 0.6 0.8
v 0.3 0.6 -0.8
v 0.3 0.6 -0.9
v 0.3 0.7 1.1
v 0.3 0.7 0.9
v 0.3 0.7 -0.9
v 0.3 0.7 -1.1
v 0.3 0.8 1.2
v 0.3 0.8 1.1
v 0.3 0.8 -1.1
v 0.3 0.8 -1.2
v 0.3 0.9 1.3
v 0.3 0.9 1.2
v 0.3 0.9 -1.2
v 0.3 0.9 -1.3
v 0.3 1.1 1.4
v 0.3 1.1 1.3
v 0.3 1.1 -1.3
v 0.3 1.1 -1.4
v 0.3 1.2 1.5
v 0.3 1.2 1.4
v 0.3 1.2 -1.4
v 0.3 1.2 -1.5
v 0.3 1.5 1.6
v 0.3 1.5 1.5
v 0.3 1.5 -1.5
v 0.3 1.5 -1.6
v 0.3 2.5 1.6
v 0.3 2.5 1.5
v 0.3 2.5 -1.5
v 0.3 2.5 -1.6
v 0.3 2.8 1.5
v 0.3 2.8 1.4
v 0.3 2.8 -1.4
v 0.3 2.8 -1.5
v 0.3 2.9 1.4
v 0.3 2.9 1.3
v 0.3 2.9 -1.3
v 0.3 2.9 -1.4
v 0.3 3.1 1.3
v 0.3 3.1 1.2
v 0.3 3.1 -1.2
v 0.3 3.1 -1.3
v 0.3 3.2 1.2
v 0.3 3.2 1.1
v 0.3 3.2 -1.1
v 0.3 3.2 -1.2
v 0.3 3.3 1.1
v 0.3 3.3 0.9
v 0.3 3.3 -0.9
v 0.3 3.3 -1.1
v 0.3 3.4 0.9
v 0.3 3.4 0.8
v 0.3 3.4 -0.8
v 0.3 3.4 -0.9
v 0.3 3.5 0.8
v 0.3 3.5 0.5
v 0.3 3.5 -0.5
v 0.3 3.5 -0.8
v 0.3 3.6 0.5
v 0.3 3.6 -0.5
v -0.5 1.4 1.9
v -0.5 2.6 1.9
v -0.1 1.4 1.9
v -0.1 2.6 1.9
v -0.5 1.1 1.8
v -0.5 1.4 1.8
v -0.5 2.6 1.8
v -0.5 2.9 1.8
v -0.1 1.1 1.8
v -0.1 1.4 1.8
v -0.1 2.6 1.8
v -0.1 2.9 1.8
v -0.5 1 1.7
v -0.5 1.1 1.7
v -0.5 2.9 1.7
v -0.5 3 1.7
v -0.1 1 1.7
v -0.1 1.1 1.7
v -0.1 2.9 1.7
v -0.1 3 1.7
v -0.5 0.8 1.6
v -0.5 1 1.6
v -0.5 3 1.6
v -0.5 3.2 1.6
v -0.1 0.8 1.6
v -0.1 1 1.6
v -0.1 1.5 1.6
v -0.1 2.5 1.6
v -0.1 3 1.6
v -0.1 3.2 1.6
v 0.2 1.5 1.6
v 0.2 2.5 1.6
v 0.3 1.5 1.6
v 0.3 2.5 1.6
v -0.5 0.7 1.5
v -0.5 0.8 1.5
v -0.5 3.2 1.5
v -0.5 3.3 1.5
v -0.1 0.7 1.5
v -0.1 0.8 1.5
v -0.1 1.2 1.5
v -0.1 1.5 1.5
v -0.1 2.5 1.5
v -0.1 2.8 1.5
v -0.1 3.2 1.5
v -0.1 3.3 1.5
v 0.2 1.2 1.5
v 0.2 1.5 1.5
v 0.2 2.5 1.5
v 0.2 2.8 1.5
v 0.3 1.2 1.5
v 0.3 1.5 1.5
v 0.3 2.5 1.5
v 0.3 2.8 1.5
v -0.5 0.6 1.4
v -0.5 0.7 1.4
v -0.5 3.3 1.4
v -0.5 3.4 1.4
v -0.1 0.6 1.4
v -0.1 0.7 1.4
v -0.1 1.1 1.4
v -0.1 1.2 1.4
v -0.1 2.8 1.4
v -0.1 2.9 1.4
v -0.1 3.3 1.4
v -0.1 3.4 1.4
v 0.2 1.1 1.4
v 0.2 1.2 1.4
v 0.2 2.8 1.4
v 0.2 2.9 1.4
v 0.3 1.1 1.4
v 0.3 1.2 1.4
v 0.3 2.8 1.4
v 0.3 2.9 1.4
v -0.5 0.5 1.3
v -0.5 0.6 1.3
v -0.5 3.4 1.3
v -0.5 3.5 1.3
v -0.1 0.5 1.3
v -0.1 0.6 1.3
v -0.1 0.9 1.3
v -0.1 1.1 1.3
v -0.1 2.9 1.3
v -0.1 3.1 1.3
v -0.1 3.4 1.3
v -0.1 3.5 1.3
v 0.2 0.9 1.3
v 0.2 1.1 1.3
v 0.2 2.9 1.3
v 0.2 3.1 1.3
v 0.3 0.9 1.3
v 0.3 1.1 1.3
v 0.3 2.9 1.3
v 0.3 3.1 1.3
v -0.5 0.4 1.2
v -0.5 0.5 1.2
v -0.5 3.5 1.2
v -0.5 3.6 1.2
v -0.1 0.4 1.2
v -0.1 0.5 1.2
v -0.1 0.8 1.2
v -0.1 0.9 1.2
v -0.1 3.1 1.2
v -0.1 3.2 1.2
v -0.1 3.5 1.2
v -0.1 3.6 1.2
v 0.2 0.8 1.2
v 0.2 0.9 1.2
v 0.2 3.1 1.2
v 0.2 3.2 1.2
v 0.3 0.8 1.2
v 0.3 0.9 1.2
v 0.3 3.1 1.2
v 0.3 3.2 1.2
v -0.1 0.7 1.1
v -0.1 0.8 1.1
v -0.1 3.2 1.1
v -0.1 3.3 1.1
v 0.2 0.7 1.1
v 0.2 0.8 1.1
v 0.2 3.2 1.1
v 0.2 3.3 1.1
v 0.3 0.7 1.1
v 0.3 0.8 1.1
v 0.3 3.2 1.1
v 0.3 3.3 1.1
v -0.5 0.3 1
v -0.5 0.4 1
v -0.5 3.6 1
v -0.5 3.7 1
v -0.1 0.3 1
v -0.1 0.4 1
v -0.1 3.6 1
v -0.1 3.7 1
v -0.5 0.2 0.9
v -0.5 0.3 0.9
v -0.5 3.7 0.9
v -0.5 3.8 0.9
v -0.1 0.2 0.9
v -0.1 0.3 0.9
v -0.1 0.6 0.9
v -0.1 0.7 0.9
v -0.1 3.3 0.9
v -0.1 3.4 0.9
v -0.1 3.7 0.9
v -0.1 3.8 0.9
v 0.2 0.6 0.9
v 0.2 0.7 0.9
v 0.2 3.3 0.9
v 0.2 3.4 0.9
v 0.3 0.6 0.9
v 0.3 0.7 0.9
v 0.3 3.3 0.9
v 0.3 3.4 0.9
v -0.1 0.5 0.8
v -0.1 0.6 0.8
v -0.1 3.4 0.8
v -0.1 3.5 0.8
v 0.2 0.5 0.8
v 0.2 0.6 0.8
v 0.2 3.4 0.8
v 0.2 3.5 0.8
v 0.3 0.5 0.8
v 0.3 0.6 0.8
v 0.3 3.4 0.8
v 0.3 3.5 0.8
v -0.5 0.1 0.6
v -0.5 0.2 0.6
v -0.5 3.8 0.6
v -0.5 3.9 0.6
v -0.1 0.1 0.6
v -0.1 0.2 0.6
v -0.1 3.8 0.6
v -0.1 3.9 0.6
v -0.1 0.4 0.5
v -0.1 0.5 0.5
v -0.1 3.5 0.5
v -0.1 3.6 0.5
v 0.2 0.4 0.5
v 0.2 0.5 0.5
v 0.2 3.5 0.5
v 0.2 3.6 0.5
v 0.3 0.4 0.5
v 0.3 0.5 0.5
v 0.3 3.5 0.5
v 0.3 3.6 0.5
v -0.1 0.4 -0.5
v -0.1 0.5 -0.5
v -0.1 3.5 -0.5
v -0.1 3.6 -0.5
v 0.2 0.4 -0.5
v 0.2 0.5 -0.5
v 0.2 3.5 -0.5
v 0.2 3.6 -0.5
v 0.3 0.4 -0.5
v 0.3 0.5 -0.5
v 0.3 3.5 -0.5
v 0.3 3.6 -0.5
v -0.5 0.1 -0.6
v -0.5 0.2 -0.6
v -0.5 3.8 -0.6
v -0.5 3.9 -0.6
v -0.1 0.1 -0.6
v -0.1 0.2 -0.6
v -0.1 3.8 -0.6
v -0.1 3.9 -0.6
v -0.1 0.5 -0.8
v -0.1 0.6 -0.8
v -0.1 3.4 -0.8
v -0.1 3.5 -0.8
v 0.2 0.5 -0.8
v 0.2 0.6 -0.8
v 0.2 3.4 -0.8
v 0.2 3.5 -0.8
v 0.3 0.5 -0.8
v 0.3 0.6 -0.8
v 0.3 3.4 -0.8
v 0.3 3.5 -0.8
v -0.5 0.2 -0.9
v -0.5 0.3 -0.9
v -0.5 3.7 -0.9
v -0.5 3.8 -0.9
v -0.1 0.2 -0.9
v -0.1 0.3 -0.9
v -0.1 0.6 -0.9
v -0.1 0.7 -0.9
v -0.1 3.3 -0.9
v -0.1 3.4 -0.9
v -0.1 3.7 -0.9
v -0.1 3.8 -0.9
v 0.2 0.6 -0.9
v 0.2 0.7 -0.9
v 0.2 3.3 -0.9
v 0.2 3.4 -0.9
v 0.3 0.6 -0.9
v 0.3 0.7 -0.9
v 0.3 3.3 -0.9
v 0.3 3.4 -0.9
v -0.5 0.3 -1
v -0.5 0.4 -1
v -0.5 3.6 -1
v -0.5 3.7 -1
v -0.1 0.3 -1
v -0.1 0.4 -1
v -0.1 3.6 -1
v -0.1 3.7 -1
v -0.1 0.7 -1.1
v -0.1 0.8 -1.1
v -0.1 3.2 -1.1
v -0.1 3.3 -1.1
v 0.2 0.7 -1.1
v 0.2 0.8 -1.1
v 0.2 3.2 -1.1
v 0.2 3.3 -1.1
v 0.3 0.7 -1.1
v 0.3 0.8 -1.1
v 0.3 3.2 -1.1
v 0.3 3.3 -1.1
v -0.5 0.4 -1.2
v -0.5 0.5 -1.2
v -0.5 3.5 -1.2
v -0.5 3.6 -1.2
v -0.1 0.4 -1.2
v -0.1 0.5 -1.2
v -0.1 0.8 -1.2
v -0.1 0.9 -1.2
v -0.1 3.1 -1.2
v -0.1 3.2 -1.2
v -0.1 3.5 -1.2
v -0.1 3.6 -1.2
v 0.2 0.8 -1.2
v 0.2 0.9 -1.2
v 0.2 3.1 -1.2
v 0.2 3.2 -1.2
v 0.3 0.8 -1.2
v 0.3 0.9 -1.2
v 0.3 3.1 -1.2
v 0.3 3.2 -1.2
v -0.5 0.5 -1.3
v -0.5 0.6 -1.3
v -0.5 3.4 -1.3
v -0.5 3.5 -1.3
v -0.1 0.5 -1.3
v -0.1 0.6 -1.3
v -0.1 0.9 -1.3
v -0.1 1.1 -1.3
v -0.1 2.9 -1.3
v -0.1 3.1 -1.3
v -0.1 3.4 -1.3
v -0.1 3.5 -1.3
v 0.2 0.9 -1.3
v 0.2 1.1 -1.3
v 0.2 2.9 -1.3
v 0.2 3.1 -1.3
v 0.3 0.9 -1.3
v 0.3 1.1 -1.3
v 0.3 2.9 -1.3
v 0.3 3.1 -1.3
v -0.5 0.6 -1.4
v -0.5 0.7 -1.4
v -0.5 3.3 -1.4
v -0.5 3.4 -1.4
v -0.1 0.6 -1.4
v -0.1 0.7 -1.4
v -0.1 1.1 -1.4
v -0.1 1.2 -1.4
v -0.1 2.8 -1.4
v -0.1 2.9 -1.4
v -0.1 3.3 -1.4
v -0.1 3.4 -1.4
v 0.2 1.1 -1.4
v 0.2 1.2 -1.4
v 0.2 2.8 -1.4
v 0.2 2.9 -1.4
v 0.3 1.1 -1.4
v 0.3 1.2 -1.4
v 0.3 2.8 -1.4
v 0.3 2.9 -1.4
v -0.5 0.7 -1.5
v -0.5 0.8 -1.5
v -0.5 3.2 -1.5
v -0.5 3.3 -1.5
v -0.1 0.7 -1.5
v -0.1 0.8 -1.5
v -0.1 1.2 -1.5
v -0.1 1.5 -1.5
v -0.1 2.5 -1.5
v -0.1 2.8 -1.5
v -0.1 3.2 -1.5
v -0.1 3.3 -1.5
v 0.2 1.2 -1.5
v 0.2 1.5 -1.5
v 0.2 2.5 -1.5
v 0.2 2.8 -1.5
v 0.3 1.2 -1.5
v 0.3 1.5 -1.5
v 0.3 2.5 -1.5
v 0.3 2.8 -1.5
v -0.5 0.8 -1.6
v -0.5 1 -1.6
v -0.5 3 -1.6
v -0.5 3.2 -1.6
v -0.1 0.8 -1.6
v -0.1 1 -1.6
v -0.1 1.5 -1.6
v -0.1 2.5 -1.6
v -0.1 3 -1.6
v -0.1 3.2 -1.6
v 0.2 1.5 -1.6
v 0.2 2.5 -1.6
v 0.3 1.5 -1.6
v 0.3 2.5 -1.6
v -0.5 1 -1.7
v -0.5 1.1 -1.7
v -0.5 2.9 -1.7
v -0.5 3 -1.7
v -0.1 1 -1.7
v -0.1 1.1 -1.7
v -0.1 2.9 -1.7
v -0.1 3 -1.7
v -0.5 1.1 -1.8
v -0.5 1.4 -1.8
v -0.5 2.6 -1.8
v -0.5 2.9 -1.8
v -0.1 1.1 -1.8
v -0.1 1.4 -1.8
v -0.1 2.6 -1.8
v -0.1 2.9 -1.8
v -0.5 1.4 -1.9
v -0.5 2.6 -1.9
v -0.1 1.4 -1.9
v -0.1 2.6 -1.9
v -0.5 0.1 0.6
v -0.1 0.1 0.6
v -0.5 0.1 -0.6
v -0.1 0.1 -0.6
v -0.5 0.2 0.9
v -0.1 0.2 0.9
v -0.5 0.2 0.6
v -0.1 0.2 0.6
v -0.5 0.2 -0.6
v -0.1 0.2 -0.6
v -0.5 0.2 -0.9
v -0.1 0.2 -0.9
v -0.5 0.3 1
v -0.1 0.3 1
v -0.5 0.3 0.9
v -0.1 0.3 0.9
v -0.5 0.3 -0.9
v -0.1 0.3 -0.9
v -0.5 0.3 -1
v -0.1 0.3 -1
v -0.5 0.4 1.2
v -0.1 0.4 1.2
v -0.5 0.4 1
v -0.1 0.4 1
v -0.1 0.4 0.5
v 0.2 0.4 0.5
v 0.3 0.4 0.5
v -0.1 0.4 -0.5
v 0.2 0.4 -0.5
v 0.3 0.4 -0.5
v -0.5 0.4 -1
v -0.1 0.4 -1
v -0.5 0.4 -1.2
v -0.1 0.4 -1.2
v -0.5 0.5 1.3
v -0.1 0.5 1.3
v -0.5 0.5 1.2
v -0.1 0.5 1.2
v -0.1 0.5 0.8
v 0.2 0.5 0.8
v 0.3 0.5 0.8
v -0.1 0.5 0.5
v 0.2 0.5 0.5
v 0.3 0.5 0.5
v -0.1 0.5 -0.5
v 0.2 0.5 -0.5
v 0.3 0.5 -0.5
v -0.1 0.5 -0.8
v 0.2 0.5 -0.8
v 0.3 0.5 -0.8
v -0.5 0.5 -1.2
v -0.1 0.5 -1.2
v -0.5 0.5 -1.3
v -0.1 0.5 -1.3
v -0.5 0.6 1.4
v -0.1 0.6 1.4
v -0.5 0.6 1.3
v -0.1 0.6 1.3
v -0.1 0.6 0.9
v 0.2 0.6 0.9
v 0.3 0.6 0.9
v -0.1 0.6 0.8
v 0.2 0.6 0.8
v 0.3 0.6 0.8
v -0.1 0.6 -0.8
v 0.2 0.6 -0.8
v 0.3 0.6 -0.8
v -0.1 0.6 -0.9
v 0.2 0.6 -0.9
v 0.3 0.6 -0.9
v -0.5 0.6 -1.3
v -0.1 0.6 -1.3
v -0.5 0.6 -1.4
v -0.1 0.6 -1.4
v -0.5 0.7 1.5
v -0.1 0.7 1.5
v -0.5 0.7 1.4
v -0.1 0.7 1.4
v -0.1 0.7 1.1
v 0.2 0.7 1.1
v 0.3 0.7 1.1
v -0.1 0.7 0.9
v 0.2 0.7 0.9
v 0.3 0.7 0.9
v -0.1 0.7 -0.9
v 0.2 0.7 -0.9
v 0.3 0.7 -0.9
v -0.1 0.7 -1.1
v 0.2 0.7 -1.1
v 0.3 0.7 -1.1
v -0.5 0.7 -1.4
v -0.1 0.7 -1.4
v -0.5 0.7 -1.5
v -0.1 0.7 -1.5
v -0.5 0.8 1.6
v -0.1 0.8 1.6
v -0.5 0.8 1.5
v -0.1 0.8 1.5
v -0.1 0.8 1.2
v 0.2 0.8 1.2
v 0.3 0.8 1.2
v -0.1 0.8 1.1
v 0.2 0.8 1.1
v 0.3 0.8 1.1
v -0.1 0.8 -1.1
v 0.2 0.8 -1.1
v 0.3 0.8 -1.1
v -0.1 0.8 -1.2
v 0.2 0.8 -1.2
v 0.3 0.8 -1.2
v -0.5 0.8 -1.5
v -0.1 0.8 -1.5
v -0.5 0.8 -1.6
v -0.1 0.8 -1.6
v -0.1 0.9 1.3
v 0.2 0.9 1.3
v 0.3 0.9 1.3
v -0.1 0.9 1.2
v 0.2 0.9 1.2
v 0.3 0.9 1.2
v -0.1 0.9 -1.2
v 0.2 0.9 -1.2
v 0.3 0.9 -1.2
v -0.1 0.9 -1.3
v 0.2 0.9 -1.3
v 0.3 0.9 -1.3
v -0.5 1 1.7
v -0.1 1 1.7
v -0.5 1 1.6
v -0.1 1 1.6
v -0.5 1 -1.6
v -0.1 1 -1.6
v -0.5 1 -1.7
v -0.1 1 -1.7
v -0.5 1.1 1.8
v -0.1 1.1 1.8
v -0.5 1.1 1.7
v -0.1 1.1 1.7
v -0.1 1.1 1.4
v 0.2 1.1 1.4
v 0.3 1.1 1.4
v -0.1 1.1 1.3
v 0.2 1.1 1.3
v 0.3 1.1 1.3
v -0.1 1.1 -1.3
v 0.2 1.1 -1.3
v 0.3 1.1 -1.3
v -0.1 1.1 -1.4
v 0.2 1.1 -1.4
v 0.3 1.1 -1.4
v -0.5 1.1 -1.7
v -0.1 1.1 -1.7
v -0.5 1.1 -1.8
v -0.1 1.1 -1.8
v -0.1 1.2 1.5
v 0.2 1.2 1.5
v 0.3 1.2 1.5
v -0.1 1.2 1.4
v 0.2 1.2 1.4
v 0.3 1.2 1.4
v -0.1 1.2 -1.4
v 0.2 1.2 -1.4
v 0.3 1.2 -1.4
v -0.1 1.2 -1.5
v 0.2 1.2 -1.5
v 0.3 1.2 -1.5
v -0.5 1.4 1.9
v -0.1 1.4 1.9
v -0.5 1.4 1.8
v -0.1 1.4 1.8
v -0.5 1.4 -1.8
v -0.1 1.4 -1.8
v -0.5 1.4 -1.9
v -0.1 1.4 -1.9
v -0.1 1.5 1.6
v 0.2 1.5 1.6
v 0.3 1.5 1.6
v -0.1 1.5 1.5
v 0.2 1.5 1.5
v 0.3 1.5 1.5
v -0.1 1.5 -1.5
v 0.2 1.5 -1.5
v 0.3 1.5 -1.5
v -0.1 1.5 -1.6
v 0.2 1.5 -1.6
v 0.3 1.5 -1.6
v -0.1 2.5 1.6
v 0.2 2.5 1.6
v 0.3 2.5 1.6
v -0.1 2.5 1.5
v 0.2 2.5 1.5
v 0.3 2.5 1.5
v -0.1 2.5 -1.5
v 0.2 2.5 -1.5
v 0.3 2.5 -1.5
v -0.1 2.5 -1.6
v 0.2 2.5 -1.6
v 0.3 2.5 -1.6
v -0.5 2.6 1.9
v -0.1 2.6 1.9
v -0.5 2.6 1.8
v -0.1 2.6 1.8
v -0.5 2.6 -1.8
v -0.1 2.6 -1.8
v -0.5 2.6 -1.9
v -0.1 2.6 -1.9
v -0.1 2.8 1.5
v 0.2 2.8 1.5
v 0.3 2.8 1.5
v -0.1 2.8 1.4
v 0.2 2.8 1.4
v 0.3 2.8 1.4
v -0.1 2.8 -1.4
v 0.2 2.8 -1.4
v 0.3 2.8 -1.4
v -0.1 2.8 -1.5
v 0.2 2.8 -1.5
v 0.3 2.8 -1.5
v -0.5 2.9 1.8
v -0.1 2.9 1.8
v -0.5 2.9 1.7
v -0.1 2.9 1.7
v -0.1 2.9 1.4
v 0.2 2.9 1.4
v 0.3 2.9 1.4
v -0.1 2.9 1.3
v 0.2 2.9 1.3
v 0.3 2.9 1.3
v -0.1 2.9 -1.3
v 0.2 2.9 -1.3
v 0.3 2.9 -1.3
v -0.1 2.9 -1.4
v 0.2 2.9 -1.4
v 0.3 2.9 -1.4
v -0.5 2.9 -1.7
v -0.1 2.9 -1.7
v -0.5 2.9 -1.8
v -0.1 2.9 -1.8
v -0.5 3 1.7
v -0.1 3 1.7
v -0.5 3 1.6
v -0.1 3 1.6
v -0.5 3 -1.6
v -0.1 3 -1.6
v -0.5 3 -1.7
v -0.1 3 -1.7
v -0.1 3.1 1.3
v 0.2 3.1 1.3
v 0.3 3.1 1.3
v -0.1 3.1 1.2
v 0.2 3.1 1.2
v 0.3 3.1 1.2
v -0.1 3.1 -1.2
v 0.2 3.1 -1.2
v 0.3 3.1 -1.2
v -0.1 3.1 -1.3
v 0.2 3.1 -1.3
v 0.3 3.1 -1.3
v -0.5 3.2 1.6
v -0.1 3.2 1.6
v -0.5 3.2 1.5
v -0.1 3.2 1.5
v -0.1 3.2 1.2
v 0.2 3.2 1.2
v 0.3 3.2 1.2
v -0.1 3.2 1.1
v 0.2 3.2 1.1
v 0.3 3.2 1.1
v -0.1 3.2 -1.1
v 0.2 3.2 -1.1
v 0.3 3.2 -1.1
v -0.1 3.2 -1.2
v 0.2 3.2 -1.2
v 0.3 3.2 -1.2
v -0.5 3.2 -1.5
v -0.1 3.2 -1.5
v -0.5 3.2 -1.6
v -0.1 3.2 -1.6
v -0.5 3.3 1.5
v -0.1 3.3 1.5
v -0.5 3.3 1.4
v -0.1 3.3 1.4
v -0.1 3.3 1.1
v 0.2 3.3 1.1
v 0.3 3.3 1.1
v -0.1 3.3 0.9
v 0.2 3.3 0.9
v 0.3 3.3 0.9
v -0.1 3.3 -0.9
v 0.2 3.3 -0.9
v 0.3 3.3 -0.9
v -0.1 3.3 -1.1
v 0.2 3.3 -1.1
v 0.3 3.3 -1.1
v -0.5 3.3 -1.4
v -0.1 3.3 -1.4
v -0.5 3.3 -1.5
v -0.1 3.3 -1.5
v -0.5 3.4 1.4
v -0.1 3.4 1.4
v -0.5 3.4 1.3
v -0.1 3.4 1.3
v -0.1 3.4 0.9
v 0.2 3.4 0.9
v 0.3 3.4 0.9
v -0.1 3.4 0.8
v 0.2 3.4 0.8
v 0.3 3.4 0.8
v -0.1 3.4 -0.8
v 0.2 3.4 -0.8
v 0.3 3.4 -0.8
v -0.1 3.4 -0.9
v 0.2 3.4 -0.9
v 0.3 3.4 -0.9
v -0.5 3.4 -1.3
v -0.1 3.4 -1.3
v -0.5 3.4 -1.4
v -0.1 3.4 -1.4
v -0.5 3.5 1.3
v -0.1 3.5 1.3
v -0.5 3.5 1.2
v -0.1 3.5 1.2
v -0.1 3.5 0.8
v 0.2 3.5 0.8
v 0.3 3.5 0.8
v -0.1 3.5 0.5
v 0.2 3.5 0.5
v 0.3 3.5 0.5
v -0.1 3.5 -0.5
v 0.2 3.5 -0.5
v 0.3 3.5 -0.5
v -0.1 3.5 -0.8
v 0.2 3.5 -0.8
v 0.3 3.5 -0.8
v -0.5 3.5 -1.2
v -0.1 3.5 -1.2
v -0.5 3.5 -1.3
v -0.1 3.5 -1.3
v -0.5 3.6 1.2
v -0.1 3.6 1.2
v -0.5 3.6 1
v -0.1 3.6 1
v -0.1 3.6 0.5
v 0.2 3.6 0.5
v 0.3 3.6 0.5
v -0.1 3.6 -0.5
v 0.2 3.6 -0.5
v 0.3 3.6 -0.5
v -0.5 3.6 -1
v -0.1 3.6 -1
v -0.5 3.6 -1.2
v -0.1 3.6 -1.2
v -0.5 3.7 1
v -0.1 3.7 1
v -0.5 3.7 0.9
v -0.1 3.7 0.9
v -0.5 3.7 -0.9
v -0.1 3.7 -0.9
v -0.5 3.7 -1
v -0.1 3.7 -1
v -0.5 3.8 0.9
v -0.1 3.8 0.9
v -0.5 3.8 0.6
v -0.1 3.8 0.6
v -0.5 3.8 -0.6
v -0.1 3.8 -0.6
v -0.5 3.8 -0.9
v -0.1 3.8 -0.9
v -0.5 3.9 0.6
v -0.1 3.9 0.6
v -0.5 3.9 -0.6
v -0.1 3.9 -0.6

# faces
f 4/4/1 2/4/1 1/4/1
f 5/4/1 2/4/1 4/4/1
f 8/4/1 4/4/1 3/4/1
f 8/4/1 6/4/1 5/4/1
f 8/4/1 5/4/1 4/4/1
f 9/4/1 6/4/1 8/4/1
f 12/4/1 8/4/1 7/4/1
f 12/4/1 10/4/1 9/4/1
f 12/4/1 9/4/1 8/4/1
f 13/4/1 10/4/1 12/4/1
f 16/4/1 12/4/1 11/4/1
f 16/4/1 14/4/1 13/4/1
f 16/4/1 13/4/1 12/4/1
f 17/4/1 14/4/1 16/4/1
f 20/4/1 16/4/1 15/4/1
f 20/4/1 18/4/1 17/4/1
f 20/4/1 17/4/1 16/4/1
f 21/4/1 18/4/1 20/4/1
f 24/4/1 20/4/1 19/4/1
f 24/4/1 22/4/1 21/4/1
f 24/4/1 21/4/1 20/4/1
f 25/4/1 22/4/1 24/4/1
f 28/4/1 24/4/1 23/4/1
f 28/4/1 26/4/1 25/4/1
f 28/4/1 25/4/1 24/4/1
f 29/4/1 26/4/1 28/4/1
f 32/4/1 28/4/1 27/4/1
f 32/4/1 30/4/1 29/4/1
f 32/4/1 29/4/1 28/4/1
f 33/4/1 30/4/1 32/4/1
f 36/4/1 32/4/1 31/4/1
f 36/4/1 34/4/1 33/4/1
f 36/4/1 33/4/1 32/4/1
f 37/4/1 34/4/1 36/4/1
f 40/4/1 36/4/1 35/4/1
f 40/4/1 38/4/1 37/4/1
f 40/4/1 37/4/1 36/4/1
f 41/4/1 38/4/1 40/4/1
f 43/4/1 40/4/1 39/4/1
f 43/4/1 42/4/1 41/4/1
f 43/4/1 41/4/1 40/4/1
f 44/4/1 42/4/1 43/4/1
f 45/4/1 42/4/1 44/4/1
f 46/4/1 42/4/1 45/4/1
f 47/4/1 45/4/1 44/4/1
f 48/4/1 45/4/1 47/4/1
f 49/4/1 45/4/1 48/4/1
f 50/4/1 45/4/1 49/4/1
f 51/4/1 49/4/1 48/4/1
f 52/4/1 49/4/1 51/4/1
f 53/4/1 49/4/1 52/4/1
f 54/4/1 49/4/1 53/4/1
f 55/4/1 53/4/1 52/4/1
f 56/4/1 53/4/1 55/4/1
f 57/4/1 53/4/1 56/4/1
f 58/4/1 53/4/1 57/4/1
f 59/4/1 57/4/1 56/4/1
f 60/4/1 57/4/1 59/4/1
f 61/4/1 57/4/1 60/4/1
f 62/4/1 57/4/1 61/4/1
f 63/4/1 61/4/1 60/4/1
f 64/4/1 61/4/1 63/4/1
f 65/4/1 61/4/1 64/4/1
f 66/4/1 61/4/1 65/4/1
f 67/4/1 65/4/1 64/4/1
f 68/4/1 65/4/1 67/4/1
f 69/4/1 65/4/1 68/4/1
f 70/4/1 65/4/1 69/4/1
f 71/4/1 69/4/1 68/4/1
f 72/4/1 69/4/1 71/4/1
f 73/4/1 69/4/1 72/4/1
f 74/4/1 69/4/1 73/4/1
f 75/4/1 73/4/1 72/4/1
f 76/4/1 73/4/1 75/4/1
f 77/4/1 73/4/1 76/4/1
f 78/4/1 73/4/1 77/4/1
f 79/4/1 77/4/1 76/4/1
f 80/4/1 77/4/1 79/4/1
f 81/4/1 77/4/1 80/4/1
f 82/4/1 77/4/1 81/4/1
f 83/4/1 81/4/1 80/4/1
f 84/4/1 81/4/1 83/4/1
f 85/4/2 86/4/2 88/4/2
f 88/4/2 86/4/2 89/4/2
f 87/4/2 88/4/2 92/4/2
f 89/4/2 90/4/2 92/4/2
f 88/4/2 89/4/2 92/4/2
f 92/4/2 90/4/2 93/4/2
f 91/4/2 92/4/2 96/4/2
f 93/4/2 94/4/2 96/4/2
f 92/4/2 93/4/2 96/4/2
f 96/4/2 94/4/2 97/4/2
f 97/4/2 94/4/2 98/4/2
f 98/4/2 94/4/2 99/4/2
f 95/4/2 96/4/2 102/4/2
f 96/4/2 97/4/2 102/4/2
f 102/4/2 97/4/2 103/4/2
f 103/4/2 97/4/2 104/4/2
f 98/4/2 99/4/2 105/4/2
f 99/4/2 100/4/2 105/4/2
f 105/4/2 100/4/2 106/4/2
f 106/4/2 100/4/2 107/4/2
f 102/4/2 103/4/2 110/4/2
f 101/4/2 102/4/2 110/4/2
f 110/4/2 103/4/2 111/4/2
f 111/4/2 103/4/2 112/4/2
f 107/4/2 108/4/2 113/4/2
f 106/4/2 107/4/2 113/4/2
f 113/4/2 108/4/2 114/4/2
f 114/4/2 108/4/2 115/4/2
f 110/4/2 111/4/2 118/4/2
f 109/4/2 110/4/2 118/4/2
f 118/4/2 111/4/2 119/4/2
f 119/4/2 111/4/2 120/4/2
f 115/4/2 116/4/2 121/4/2
f 114/4/2 115/4/2 121/4/2
f 121/4/2 116/4/2 122/4/2
f 122/4/2 116/4/2 123/4/2
f 118/4/2 119/4/2 126/4/2
f 117/4/2 118/4/2 126/4/2
f 126/4/2 119/4/2 127/4/2
f 127/4/2 119/4/2 128/4/2
f 123/4/2 124/4/2 129/4/2
f 122/4/2 123/4/2 129/4/2
f 129/4/2 124/4/2 130/4/2
f 130/4/2 124/4/2 131/4/2
f 126/4/2 127/4/2 133/4/2
f 125/4/2 126/4/2 133/4/2
f 133/4/2 127/4/2 134/4/2
f 131/4/2 132/4/2 135/4/2
f 130/4/2 131/4/2 135/4/2
f 135/4/2 132/4/2 136/4/2
f 125/4/2 133/4/2 138/4/2
f 136/4/2 132/4/2 139/4/2
f 137/4/2 138/4/2 142/4/2
f 138/4/2 133/4/2 143/4/2
f 142/4/2 138/4/2 143/4/2
f 143/4/2 133/4/2 144/4/2
f 139/4/2 140/4/2 145/4/2
f 136/4/2 139/4/2 145/4/2
f 145/4/2 140/4/2 146/4/2
f 146/4/2 140/4/2 147/4/2
f 141/4/2 142/4/2 149/4/2
f 142/4/2 143/4/2 149/4/2
f 149/4/2 143/4/2 150/4/2
f 147/4/2 148/4/2 151/4/2
f 146/4/2 147/4/2 151/4/2
f 151/4/2 148/4/2 152/4/2
f 141/4/2 149/4/2 154/4/2
f 152/4/2 148/4/2 155/4/2
f 153/4/2 154/4/2 157/4/2
f 154/4/2 149/4/2 157/4/2
f 157/4/2 149/4/2 158/4/2
f 155/4/2 156/4/2 159/4/2
f 152/4/2 155/4/2 159/4/2
f 159/4/2 156/4/2 160/4/2
f 153/4/2 157/4/2 161/4/2
f 160/4/2 156/4/2 164/4/2
f 161/4/2 162/4/2 165/4/2
f 153/4/2 161/4/2 165/4/2
f 165/4/2 162/4/2 166/4/2
f 163/4/2 164/4/2 167/4/2
f 164/4/2 156/4/2 167/4/2
f 167/4/2 156/4/2 168/4/2
f 166/4/2 162/4/2 169/4/2
f 163/4/2 167/4/2 172/4/2
f 169/4/2 170/4/2 173/4/2
f 166/4/2 169/4/2 173/4/2
f 173/4/2 170/4/2 174/4/2
f 174/4/2 170/4/2 175/4/2
f 171/4/2 172/4/2 178/4/2
f 172/4/2 167/4/2 179/4/2
f 178/4/2 172/4/2 179/4/2
f 179/4/2 167/4/2 180/4/2
f 175/4/2 176/4/2 181/4/2
f 174/4/2 175/4/2 181/4/2
f 181/4/2 176/4/2 182/4/2
f 177/4/2 178/4/2 183/4/2
f 178/4/2 179/4/2 183/4/2
f 183/4/2 179/4/2 184/4/2
f 182/4/2 176/4/2 185/4/2
f 177/4/2 183/4/2 188/4/2
f 185/4/2 186/4/2 189/4/2
f 182/4/2 185/4/2 189/4/2
f 189/4/2 186/4/2 190/4/2
f 190/4/2 186/4/2 191/4/2
f 187/4/2 188/4/2 194/4/2
f 188/4/2 183/4/2 195/4/2
f 194/4/2 188/4/2 195/4/2
f 195/4/2 183/4/2 196/4/2
f 191/4/2 192/4/2 197/4/2
f 190/4/2 191/4/2 197/4/2
f 197/4/2 192/4/2 198/4/2
f 198/4/2 192/4/2 199/4/2
f 193/4/2 194/4/2 202/4/2
f 194/4/2 195/4/2 202/4/2
f 202/4/2 195/4/2 203/4/2
f 203/4/2 195/4/2 204/4/2
f 199/4/2 200/4/2 205/4/2
f 198/4/2 199/4/2 205/4/2
f 205/4/2 200/4/2 206/4/2
f 206/4/2 200/4/2 207/4/2
f 202/4/2 203/4/2 210/4/2
f 201/4/2 202/4/2 210/4/2
f 210/4/2 203/4/2 211/4/2
f 211/4/2 203/4/2 212/4/2
f 207/4/2 208/4/2 213/4/2
f 206/4/2 207/4/2 213/4/2
f 213/4/2 208/4/2 214/4/2
f 214/4/2 208/4/2 215/4/2
f 210/4/2 211/4/2 218/4/2
f 209/4/2 210/4/2 218/4/2
f 218/4/2 211/4/2 219/4/2
f 219/4/2 211/4/2 220/4/2
f 215/4/2 216/4/2 221/4/2
f 214/4/2 215/4/2 221/4/2
f 221/4/2 216/4/2 222/4/2
f 222/4/2 216/4/2 223/4/2
f 218/4/2 219/4/2 224/4/2
f 217/4/2 218/4/2 224/4/2
f 224/4/2 219/4/2 225/4/2
f 225/4/2 219/4/2 226/4/2
f 222/4/2 223/4/2 227/4/2
f 224/4/2 225/4/2 227/4/2
f 223/4/2 224/4/2 227/4/2
f 227/4/2 225/4/2 228/4/2
f 228/4/2 225/4/2 229/4/2
f 229/4/2 225/4/2 230/4/2
f 228/4/2 229/4/2 231/4/2
f 231/4/2 229/4/2 232/4/2
f 232/4/2 229/4/2 233/4/2
f 233/4/2 229/4/2 234/4/2
f 232/4/2 233/4/2 235/4/2
f 235/4/2 233/4/2 236/4/2
f 237/2/2 238/2/2 240/2/2
f 240/2/2 238/2/2 241/2/2
f 239/2/2 240/2/2 244/2/2
f 241/2/2 242/2/2 244/2/2
f 240/2/2 241/2/2 244/2/2
f 244/2/2 242/2/2 245/2/2
f 243/2/2 244/2/2 248/2/2
f 245/2/2 246/2/2 248/2/2
f 244/2/2 245/2/2 248/2/2
f 248/2/2 246/2/2 249/2/2
f 247/2/2 248/2/2 252/2/2
f 249/2/2 250/2/2 252/2/2
f 248/2/2 249/2/2 252/2/2
f 252/2/2 250/2/2 253/2/2
f 251/2/2 252/2/2 256/2/2
f 253/2/2 254/2/2 256/2/2
f 252/2/2 253/2/2 256/2/2
f 256/2/2 254/2/2 257/2/2
f 255/2/2 256/2/2 260/2/2
f 257/2/2 258/2/2 260/2/2
f 256/2/2 257/2/2 260/2/2
f 260/2/2 258/2/2 261/2/2
f 259/2/2 260/2/2 264/2/2
f 261/2/2 262/2/2 264/2/2
f 260/2/2 261/2/2 264/2/2
f 264/2/2 262/2/2 265/2/2
f 263/2/2 264/2/2 268/2/2
f 265/2/2 266/2/2 268/2/2
f 264/2/2 265/2/2 268/2/2
f 268/2/2 266/2/2 269/2/2
f 267/2/2 268/2/2 271/2/2
f 269/2/2 270/2/2 271/2/2
f 268/2/2 269/2/2 271/2/2
f 271/2/2 270/2/2 272/2/2
f 272/2/2 270/2/2 273/2/2
f 273/2/2 270/2/2 274/2/2
f 272/2/2 273/2/2 275/2/2
f 275/2/2 273/2/2 276/2/2
f 276/2/2 273/2/2 277/2/2
f 277/2/2 273/2/2 278/2/2
f 276/2/2 277/2/2 279/2/2
f 279/2/2 277/2/2 280/2/2
f 280/2/2 277/2/2 281/2/2
f 281/2/2 277/2/2 282/2/2
f 280/2/2 281/2/2 283/2/2
f 283/2/2 281/2/2 284/2/2
f 284/2/2 281/2/2 285/2/2
f 285/2/2 281/2/2 286/2/2
f 284/2/2 285/2/2 287/2/2
f 287/2/2 285/2/2 288/2/2
f 288/2/2 285/2/2 289/2/2
f 289/2/2 285/2/2 290/2/2
f 288/2/2 289/2/2 291/2/2
f 291/2/2 289/2/2 292/2/2
f 292/2/2 289/2/2 293/2/2
f 293/2/2 289/2/2 294/2/2
f 292/2/2 293/2/2 295/2/2
f 295/2/2 293/2/2 296/2/2
f 296/2/2 293/2/2 297/2/2
f 297/2/2 293/2/2 298/2/2
f 296/2/2 297/2/2 299/2/2
f 299/2/2 297/2/2 300/2/2
f 300/2/2 297/2/2 301/2/2
f 301/2/2 297/2/2 302/2/2
f 300/2/2 301/2/2 303/2/2
f 303/2/2 301/2/2 304/2/2
f 307/4/3 306/4/3 305/4/3
f 308/4/3 306/4/3 307/4/3
f 313/4/3 310/4/3 309/4/3
f 314/4/3 310/4/3 313/4/3
f 315/4/3 312/4/3 311/4/3
f 316/4/3 312/4/3 315/4/3
f 321/4/3 318/4/3 317/4/3
f 322/4/3 318/4/3 321/4/3
f 323/4/3 320/4/3 319/4/3
f 324/4/3 320/4/3 323/4/3
f 329/4/3 326/4/3 325/4/3
f 330/4/3 326/4/3 329/4/3
f 333/4/3 328/4/3 327/4/3
f 334/4/3 328/4/3 333/4/3
f 335/3/3 332/3/3 331/3/3
f 336/3/3 332/3/3 335/3/3
f 337/2/3 336/2/3 335/2/3
f 338/2/3 336/2/3 337/2/3
f 343/4/3 340/4/3 339/4/3
f 344/4/3 340/4/3 343/4/3
f 349/4/3 342/4/3 341/4/3
f 350/4/3 342/4/3 349/4/3
f 351/3/3 346/3/3 345/3/3
f 352/3/3 346/3/3 351/3/3
f 353/3/3 348/3/3 347/3/3
f 354/3/3 348/3/3 353/3/3
f 355/2/3 352/2/3 351/2/3
f 356/2/3 352/2/3 355/2/3
f 357/2/3 354/2/3 353/2/3
f 358/2/3 354/2/3 357/2/3
f 363/4/3 360/4/3 359/4/3
f 364/4/3 360/4/3 363/4/3
f 369/4/3 362/4/3 361/4/3
f 370/4/3 362/4/3 369/4/3
f 371/3/3 366/3/3 365/3/3
f 372/3/3 366/3/3 371/3/3
f 373/3/3 368/3/3 367/3/3
f 374/3/3 368/3/3 373/3/3
f 375/2/3 372/2/3 371/2/3
f 376/2/3 372/2/3 375/2/3
f 377/2/3 374/2/3 373/2/3
f 378/2/3 374/2/3 377/2/3
f 383/4/3 380/4/3 379/4/3
f 384/4/3 380/4/3 383/4/3
f 389/4/3 382/4/3 381/4/3
f 390/4/3 382/4/3 389/4/3
f 391/3/3 386/3/3 385/3/3
f 392/3/3 386/3/3 391/3/3
f 393/3/3 388/3/3 387/3/3
f 394/3/3 388/3/3 393/3/3
f 395/2/3 392/2/3 391/2/3
f 396/2/3 392/2/3 395/2/3
f 397/2/3 394/2/3 393/2/3
f 398/2/3 394/2/3 397/2/3
f 403/4/3 400/4/3 399/4/3
f 404/4/3 400/4/3 403/4/3
f 409/4/3 402/4/3 401/4/3
f 410/4/3 402/4/3 409/4/3
f 411/3/3 406/3/3 405/3/3
f 412/3/3 406/3/3 411/3/3
f 413/3/3 408/3/3 407/3/3
f 414/3/3 408/3/3 413/3/3
f 415/2/3 412/2/3 411/2/3
f 416/2/3 412/2/3 415/2/3
f 417/2/3 414/2/3 413/2/3
f 418/2/3 414/2/3 417/2/3
f 423/3/3 420/3/3 419/3/3
f 424/3/3 420/3/3 423/3/3
f 425/3/3 422/3/3 421/3/3
f 426/3/3 422/3/3 425/3/3
f 427/2/3 424/2/3 423/2/3
f 428/2/3 424/2/3 427/2/3
f 429/2/3 426/2/3 425/2/3
f 430/2/3 426/2/3 429/2/3
f 435/4/3 432/4/3 431/4/3
f 436/4/3 432/4/3 435/4/3
f 437/4/3 434/4/3 433/4/3
f 438/4/3 434/4/3 437/4/3
f 443/4/3 440/4/3 439/4/3
f 444/4/3 440/4/3 443/4/3
f 449/4/3 442/4/3 441/4/3
f 450/4/3 442/4/3 449/4/3
f 451/3/3 446/3/3 445/3/3
f 452/3/3 446/3/3 451/3/3
f 453/3/3 448/3/3 447/3/3
f 454/3/3 448/3/3 453/3/3
f 455/2/3 452/2/3 451/2/3
f 456/2/3 452/2/3 455/2/3
f 457/2/3 454/2/3 453/2/3
f 458/2/3 454/2/3 457/2/3
f 463/3/3 460/3/3 459/3/3
f 464/3/3 460/3/3 463/3/3
f 465/3/3 462/3/3 461/3/3
f 466/3/3 462/3/3 465/3/3
f 467/2/3 464/2/3 463/2/3
f 468/2/3 464/2/3 467/2/3
f 469/2/3 466/2/3 465/2/3
f 470/2/3 466/2/3 469/2/3
f 475/4/3 472/4/3 471/4/3
f 476/4/3 472/4/3 475/4/3
f 477/4/3 474/4/3 473/4/3
f 478/4/3 474/4/3 477/4/3
f 483/3/3 480/3/3 479/3/3
f 484/3/3 480/3/3 483/3/3
f 485/3/3 482/3/3 481/3/3
f 486/3/3 482/3/3 485/3/3
f 487/2/3 484/2/3 483/2/3
f 488/2/3 484/2/3 487/2/3
f 489/2/3 486/2/3 485/2/3
f 490/2/3 486/2/3 489/2/3
f 491/3/4 492/3/4 495/3/4
f 495/3/4 492/3/4 496/3/4
f 493/3/4 494/3/4 497/3/4
f 497/3/4 494/3/4 498/3/4
f 495/2/4 496/2/4 499/2/4
f 499/2/4 496/2/4 500/2/4
f 497/2/4 498/2/4 501/2/4
f 501/2/4 498/2/4 502/2/4
f 503/4/4 504/4/4 507/4/4
f 507/4/4 504/4/4 508/4/4
f 505/4/4 506/4/4 509/4/4
f 509/4/4 506/4/4 510/4/4
f 511/3/4 512/3/4 515/3/4
f 515/3/4 512/3/4 516/3/4
f 513/3/4 514/3/4 517/3/4
f 517/3/4 514/3/4 518/3/4
f 515/2/4 516/2/4 519/2/4
f 519/2/4 516/2/4 520/2/4
f 517/2/4 518/2/4 521/2/4
f 521/2/4 518/2/4 522/2/4
f 523/4/4 524/4/4 527/4/4
f 527/4/4 524/4/4 528/4/4
f 525/4/4 526/4/4 533/4/4
f 533/4/4 526/4/4 534/4/4
f 529/3/4 530/3/4 535/3/4
f 535/3/4 530/3/4 536/3/4
f 531/3/4 532/3/4 537/3/4
f 537/3/4 532/3/4 538/3/4
f 535/2/4 536/2/4 539/2/4
f 539/2/4 536/2/4 540/2/4
f 537/2/4 538/2/4 541/2/4
f 541/2/4 538/2/4 542/2/4
f 543/4/4 544/4/4 547/4/4
f 547/4/4 544/4/4 548/4/4
f 545/4/4 546/4/4 549/4/4
f 549/4/4 546/4/4 550/4/4
f 551/3/4 552/3/4 555/3/4
f 555/3/4 552/3/4 556/3/4
f 553/3/4 554/3/4 557/3/4
f 557/3/4 554/3/4 558/3/4
f 555/2/4 556/2/4 559/2/4
f 559/2/4 556/2/4 560/2/4
f 557/2/4 558/2/4 561/2/4
f 561/2/4 558/2/4 562/2/4
f 563/4/4 564/4/4 567/4/4
f 567/4/4 564/4/4 568/4/4
f 565/4/4 566/4/4 573/4/4
f 573/4/4 566/4/4 574/4/4
f 569/3/4 570/3/4 575/3/4
f 575/3/4 570/3/4 576/3/4
f 571/3/4 572/3/4 577/3/4
f 577/3/4 572/3/4 578/3/4
f 575/2/4 576/2/4 579/2/4
f 579/2/4 576/2/4 580/2/4
f 577/2/4 578/2/4 581/2/4
f 581/2/4 578/2/4 582/2/4
f 583/4/4 584/4/4 587/4/4
f 587/4/4 584/4/4 588/4/4
f 585/4/4 586/4/4 593/4/4
f 593/4/4 586/4/4 594/4/4
f 589/3/4 590/3/4 595/3/4
f 595/3/4 590/3/4 596/3/4
f 591/3/4 592/3/4 597/3/4
f 597/3/4 592/3/4 598/3/4
f 595/2/4 596/2/4 599/2/4
f 599/2/4 596/2/4 600/2/4
f 597/2/4 598/2/4 601/2/4
f 601/2/4 598/2/4 602/2/4
f 603/4/4 604/4/4 607/4/4
f 607/4/4 604/4/4 608/4/4
f 605/4/4 606/4/4 613/4/4
f 613/4/4 606/4/4 614/4/4
f 609/3/4 610/3/4 615/3/4
f 615/3/4 610/3/4 616/3/4
f 611/3/4 612/3/4 617/3/4
f 617/3/4 612/3/4 618/3/4
f 615/2/4 616/2/4 619/2/4
f 619/2/4 616/2/4 620/2/4
f 617/2/4 618/2/4 621/2/4
f 621/2/4 618/2/4 622/2/4
f 623/4/4 624/4/4 627/4/4
f 627/4/4 624/4/4 628/4/4
f 625/4/4 626/4/4 633/4/4
f 633/4/4 626/4/4 634/4/4
f 629/3/4 630/3/4 635/3/4
f 635/3/4 630/3/4 636/3/4
f 631/3/4 632/3/4 637/3/4
f 637/3/4 632/3/4 638/3/4
f 635/2/4 636/2/4 639/2/4
f 639/2/4 636/2/4 640/2/4
f 637/2/4 638/2/4 641/2/4
f 641/2/4 638/2/4 642/2/4
f 643/4/4 644/4/4 647/4/4
f 647/4/4 644/4/4 648/4/4
f 645/4/4 646/4/4 651/4/4
f 651/4/4 646/4/4 652/4/4
f 649/3/4 650/3/4 653/3/4
f 653/3/4 650/3/4 654/3/4
f 653/2/4 654/2/4 655/2/4
f 655/2/4 654/2/4 656/2/4
f 657/4/4 658/4/4 661/4/4
f 661/4/4 658/4/4 662/4/4
f 659/4/4 660/4/4 663/4/4
f 663/4/4 660/4/4 664/4/4
f 665/4/4 666/4/4 669/4/4
f 669/4/4 666/4/4 670/4/4
f 667/4/4 668/4/4 671/4/4
f 671/4/4 668/4/4 672/4/4
f 673/4/4 674/4/4 675/4/4
f 675/4/4 674/4/4 676/4/4
f 679/4/5 678/4/5 677/4/5
f 680/4/5 678/4/5 679/4/5
f 683/4/5 682/4/5 681/4/5
f 684/4/5 682/4/5 683/4/5
f 687/4/5 686/4/5 685/4/5
f 688/4/5 686/4/5 687/4/5
f 691/4/5 690/4/5 689/4/5
f 692/4/5 690/4/5 691/4/5
f 695/4/5 694/4/5 693/4/5
f 696/4/5 694/4/5 695/4/5
f 699/4/5 698/4/5 697/4/5
f 700/4/5 698/4/5 699/4/5
f 704/3/5 702/3/5 701/3/5
f 705/2/5 703/2/5 702/2/5
f 705/3/5 702/3/5 704/3/5
f 706/2/5 703/2/5 705/2/5
f 709/4/5 708/4/5 707/4/5
f 710/4/5 708/4/5 709/4/5
f 713/4/5 712/4/5 711/4/5
f 714/4/5 712/4/5 713/4/5
f 718/3/5 716/3/5 715/3/5
f 719/2/5 717/2/5 716/2/5
f 719/3/5 716/3/5 718/3/5
f 720/2/5 717/2/5 719/2/5
f 724/3/5 722/3/5 721/3/5
f 725/2/5 723/2/5 722/2/5
f 725/3/5 722/3/5 724/3/5
f 726/2/5 723/2/5 725/2/5
f 729/4/5 728/4/5 727/4/5
f 730/4/5 728/4/5 729/4/5
f 733/4/5 732/4/5 731/4/5
f 734/4/5 732/4/5 733/4/5
f 738/3/5 736/3/5 735/3/5
f 739/2/5 737/2/5 736/2/5
f 739/3/5 736/3/5 738/3/5
f 740/2/5 737/2/5 739/2/5
f 744/3/5 742/3/5 741/3/5
f 745/2/5 743/2/5 742/2/5
f 745/3/5 742/3/5 744/3/5
f 746/2/5 743/2/5 745/2/5
f 749/4/5 748/4/5 747/4/5
f 750/4/5 748/4/5 749/4/5
f 753/4/5 752/4/5 751/4/5
f 754/4/5 752/4/5 753/4/5
f 758/3/5 756/3/5 755/3/5
f 759/2/5 757/2/5 756/2/5
f 759/3/5 756/3/5 758/3/5
f 760/2/5 757/2/5 759/2/5
f 764/3/5 762/3/5 761/3/5
f 765/2/5 763/2/5 762/2/5
f 765/3/5 762/3/5 764/3/5
f 766/2/5 763/2/5 765/2/5
f 769/4/5 768/4/5 767/4/5
f 770/4/5 768/4/5 769/4/5
f 773/4/5 772/4/5 771/4/5
f 774/4/5 772/4/5 773/4/5
f 778/3/5 776/3/5 775/3/5
f 779/2/5 777/2/5 776/2/5
f 779/3/5 776/3/5 778/3/5
f 780/2/5 777/2/5 779/2/5
f 784/3/5 782/3/5 781/3/5
f 785/2/5 783/2/5 782/2/5
f 785/3/5 782/3/5 784/3/5
f 786/2/5 783/2/5 785/2/5
f 789/4/5 788/4/5 787/4/5
f 790/4/5 788/4/5 789/4/5
f 794/3/5 792/3/5 791/3/5
f 795/2/5 793/2/5 792/2/5
f 795/3/5 792/3/5 794/3/5
f 796/2/5 793/2/5 795/2/5
f 800/3/5 798/3/5 797/3/5
f 801/2/5 799/2/5 798/2/5
f 801/3/5 798/3/5 800/3/5
f 802/2/5 799/2/5 801/2/5
f 805/4/5 804/4/5 803/4/5
f 806/4/5 804/4/5 805/4/5
f 809/4/5 808/4/5 807/4/5
f 810/4/5 808/4/5 809/4/5
f 813/4/5 812/4/5 811/4/5
f 814/4/5 812/4/5 813/4/5
f 818/3/5 816/3/5 815/3/5
f 819/2/5 817/2/5 816/2/5
f 819/3/5 816/3/5 818/3/5
f 820/2/5 817/2/5 819/2/5
f 824/3/5 822/3/5 821/3/5
f 825/2/5 823/2/5 822/2/5
f 825/3/5 822/3/5 824/3/5
f 826/2/5 823/2/5 825/2/5
f 829/4/5 828/4/5 827/4/5
f 830/4/5 828/4/5 829/4/5
f 834/3/5 832/3/5 831/3/5
f 835/2/5 833/2/5 832/2/5
f 835/3/5 832/3/5 834/3/5
f 836/2/5 833/2/5 835/2/5
f 840/3/5 838/3/5 837/3/5
f 841/2/5 839/2/5 838/2/5
f 841/3/5 838/3/5 840/3/5
f 842/2/5 839/2/5 841/2/5
f 845/4/5 844/4/5 843/4/5
f 846/4/5 844/4/5 845/4/5
f 849/4/5 848/4/5 847/4/5
f 850/4/5 848/4/5 849/4/5
f 854/3/5 852/3/5 851/3/5
f 855/2/5 853/2/5 852/2/5
f 855/3/5 852/3/5 854/3/5
f 856/2/5 853/2/5 855/2/5
f 860/3/5 858/3/5 857/3/5
f 861/2/5 859/2/5 858/2/5
f 861/3/5 858/3/5 860/3/5
f 862/2/5 859/2/5 861/2/5
f 863/3/6 864/3/6 866/3/6
f 864/2/6 865/2/6 867/2/6
f 866/3/6 864/3/6 867/3/6
f 867/2/6 865/2/6 868/2/6
f 869/3/6 870/3/6 872/3/6
f 870/2/6 871/2/6 873/2/6
f 872/3/6 870/3/6 873/3/6
f 873/2/6 871/2/6 874/2/6
f 875/4/6 876/4/6 877/4/6
f 877/4/6 876/4/6 878/4/6
f 879/4/6 880/4/6 881/4/6
f 881/4/6 880/4/6 882/4/6
f 883/3/6 884/3/6 886/3/6
f 884/2/6 885/2/6 887/2/6
f 886/3/6 884/3/6 887/3/6
f 887/2/6 885/2/6 888/2/6
f 889/3/6 890/3/6 892/3/6
f 890/2/6 891/2/6 893/2/6
f 892/3/6 890/3/6 893/3/6
f 893/2/6 891/2/6 894/2/6
f 895/4/6 896/4/6 897/4/6
f 897/4/6 896/4/6 898/4/6
f 899/3/6 900/3/6 902/3/6
f 900/2/6 901/2/6 903/2/6
f 902/3/6 900/3/6 903/3/6
f 903/2/6 901/2/6 904/2/6
f 905/3/6 906/3/6 908/3/6
f 906/2/6 907/2/6 909/2/6
f 908/3/6 906/3/6 909/3/6
f 909/2/6 907/2/6 910/2/6
f 911/4/6 912/4/6 913/4/6
f 913/4/6 912/4/6 914/4/6
f 915/4/6 916/4/6 917/4/6
f 917/4/6 916/4/6 918/4/6
f 919/4/6 920/4/6 921/4/6
f 921/4/6 920/4/6 922/4/6
f 923/3/6 924/3/6 926/3/6
f 924/2/6 925/2/6 927/2/6
f 926/3/6 924/3/6 927/3/6
f 927/2/6 925/2/6 928/2/6
f 929/3/6 930/3/6 932/3/6
f 930/2/6 931/2/6 933/2/6
f 932/3/6 930/3/6 933/3/6
f 933/2/6 931/2/6 934/2/6
f 935/4/6 936/4/6 937/4/6
f 937/4/6 936/4/6 938/4/6
f 939/3/6 940/3/6 942/3/6
f 940/2/6 941/2/6 943/2/6
f 942/3/6 940/3/6 943/3/6
f 943/2/6 941/2/6 944/2/6
f 945/3/6 946/3/6 948/3/6
f 946/2/6 947/2/6 949/2/6
f 948/3/6 946/3/6 949/3/6
f 949/2/6 947/2/6 950/2/6
f 951/4/6 952/4/6 953/4/6
f 953/4/6 952/4/6 954/4/6
f 955/4/6 956/4/6 957/4/6
f 957/4/6 956/4/6 958/4/6
f 959/3/6 960/3/6 962/3/6
f 960/2/6 961/2/6 963/2/6
f 962/3/6 960/3/6 963/3/6
f 963/2/6 961/2/6 964/2/6
f 965/3/6 966/3/6 968/3/6
f 966/2/6 967/2/6 969/2/6
f 968/3/6 966/3/6 969/3/6
f 969/2/6 967/2/6 970/2/6
f 971/4/6 972/4/6 973/4/6
f 973/4/6 972/4/6 974/4/6
f 975/4/6 976/4/6 977/4/6
f 977/4/6 976/4/6 978/4/6
f 979/3/6 980/3/6 982/3/6
f 980/2/6 981/2/6 983/2/6
f 982/3/6 980/3/6 983/3/6
f 983/2/6 981/2/6 984/2/6
f 985/3/6 986/3/6 988/3/6
f 986/2/6 987/2/6 989/2/6
f 988/3/6 986/3/6 989/3/6
f 989/2/6 987/2/6 990/2/6
f 991/4/6 992/4/6 993/4/6
f 993/4/6 992/4/6 994/4/6
f 995/4/6 996/4/6 997/4/6
f 997/4/6 996/4/6 998/4/6
f 999/3/6 1000/3/6 1002/3/6
f 1000/2/6 1001/2/6 1003/2/6
f 1002/3/6 1000/3/6 1003/3/6
f 1003/2/6 1001/2/6 1004/2/6
f 1005/3/6 1006/3/6 1008/3/6
f 1006/2/6 1007/2/6 1009/2/6
f 1008/3/6 1006/3/6 1009/3/6
f 1009/2/6 1007/2/6 1010/2/6
f 1011/4/6 1012/4/6 1013/4/6
f 1013/4/6 1012/4/6 1014/4/6
f 1015/4/6 1016/4/6 1017/4/6
f 1017/4/6 1016/4/6 1018/4/6
f 1019/3/6 1020/3/6 1022/3/6
f 1020/2/6 1021/2/6 1023/2/6
f 1022/3/6 1020/3/6 1023/3/6
f 1023/2/6 1021/2/6 1024/2/6
f 1025/4/6 1026/4/6 1027/4/6
f 1027/4/6 1026/4/6 1028/4/6
f 1029/4/6 1030/4/6 1031/4/6
f 1031/4/6 1030/4/6 1032/4/6
f 1033/4/6 1034/4/6 1035/4/6
f 1035/4/6 1034/4/6 1036/4/6
f 1037/4/6 1038/4/6 1039/4/6
f 1039/4/6 1038/4/6 1040/4/6
f 1041/4/6 1042/4/6 1043/4/6
f 1043/4/6 1042/4/6 1044/4/6
f 1045/4/6 1046/4/6 1047/4/6
f 1047/4/6 1046/4/6 1048/4/6
